  0
SECTION
  2
HEADER
  9
$ACADVER
  1
AC1032
  9
$ACADMAINTVER
 90
      321
  9
$DWGCODEPAGE
  3
ANSI_1252
  9
$REQUIREDVERSIONS
160
                 0
  9
$INSBASE
 10
0.0
 20
0.0
 30
0.0
  9
$EXTMIN
 10
469.6251853058539
 20
-748.1607425773345
 30
0.0
  9
$EXTMAX
 10
1213.625185305855
 20
927.8392574226669
 30
0.0
  9
$LIMMIN
 10
0.0
 20
0.0
  9
$LIMMAX
 10
12.0
 20
9.0
  9
$ORTHOMODE
 70
     0
  9
$REGENMODE
 70
     1
  9
$FILLMODE
 70
     1
  9
$QTEXTMODE
 70
     0
  9
$MIRRTEXT
 70
     0
  9
$LTSCALE
 40
1.0
  9
$ATTMODE
 70
     1
  9
$TEXTSIZE
 40
0.2
  9
$TRACEWID
 40
0.05
  9
$TEXTSTYLE
  7
Standard
  9
$CLAYER
  8
0
  9
$CELTYPE
  6
ByLayer
  9
$CECOLOR
 62
   256
  9
$CELTSCALE
 40
1.0
  9
$DISPSILH
 70
     0
  9
$DIMSCALE
 40
1.0
  9
$DIMASZ
 40
0.18
  9
$DIMEXO
 40
0.0625
  9
$DIMDLI
 40
0.38
  9
$DIMRND
 40
0.0
  9
$DIMDLE
 40
0.0
  9
$DIMEXE
 40
0.18
  9
$DIMTP
 40
0.0
  9
$DIMTM
 40
0.0
  9
$DIMTXT
 40
0.18
  9
$DIMCEN
 40
0.09
  9
$DIMTSZ
 40
0.0
  9
$DIMTOL
 70
     0
  9
$DIMLIM
 70
     0
  9
$DIMTIH
 70
     1
  9
$DIMTOH
 70
     1
  9
$DIMSE1
 70
     0
  9
$DIMSE2
 70
     0
  9
$DIMTAD
 70
     0
  9
$DIMZIN
 70
     0
  9
$DIMBLK
  1

  9
$DIMASO
 70
     1
  9
$DIMSHO
 70
     1
  9
$DIMPOST
  1

  9
$DIMAPOST
  1

  9
$DIMALT
 70
     0
  9
$DIMALTD
 70
     2
  9
$DIMALTF
 40
25.4
  9
$DIMLFAC
 40
1.0
  9
$DIMTOFL
 70
     0
  9
$DIMTVP
 40
0.0
  9
$DIMTIX
 70
     0
  9
$DIMSOXD
 70
     0
  9
$DIMSAH
 70
     0
  9
$DIMBLK1
  1

  9
$DIMBLK2
  1

  9
$DIMSTYLE
  2
Standard
  9
$DIMCLRD
 70
     0
  9
$DIMCLRE
 70
     0
  9
$DIMCLRT
 70
     0
  9
$DIMTFAC
 40
1.0
  9
$DIMGAP
 40
0.09
  9
$DIMJUST
 70
     0
  9
$DIMSD1
 70
     0
  9
$DIMSD2
 70
     0
  9
$DIMTOLJ
 70
     1
  9
$DIMTZIN
 70
     0
  9
$DIMALTZ
 70
     0
  9
$DIMALTTZ
 70
     0
  9
$DIMUPT
 70
     0
  9
$DIMDEC
 70
     4
  9
$DIMTDEC
 70
     4
  9
$DIMALTU
 70
     4
  9
$DIMALTTD
 70
     2
  9
$DIMTXSTY
  7
Standard
  9
$DIMAUNIT
 70
     0
  9
$DIMADEC
 70
     0
  9
$DIMALTRND
 40
0.0
  9
$DIMAZIN
 70
     0
  9
$DIMDSEP
 70
    46
  9
$DIMATFIT
 70
     3
  9
$DIMFRAC
 70
     0
  9
$DIMLDRBLK
  1

  9
$DIMLUNIT
 70
     4
  9
$DIMLWD
 70
    -2
  9
$DIMLWE
 70
    -2
  9
$DIMTMOVE
 70
     0
  9
$DIMFXL
 40
1.0
  9
$DIMFXLON
 70
     0
  9
$DIMJOGANG
 40
0.7853981633974483
  9
$DIMTFILL
 70
     0
  9
$DIMTFILLCLR
 70
     0
  9
$DIMARCSYM
 70
     0
  9
$DIMLTYPE
  6

  9
$DIMLTEX1
  6

  9
$DIMLTEX2
  6

  9
$DIMTXTDIRECTION
 70
     0
  9
$LUNITS
 70
     4
  9
$LUPREC
 70
     4
  9
$SKETCHINC
 40
0.1
  9
$FILLETRAD
 40
0.0
  9
$AUNITS
 70
     0
  9
$AUPREC
 70
     0
  9
$MENU
  1
.
  9
$ELEVATION
 40
0.0
  9
$PELEVATION
 40
0.0
  9
$THICKNESS
 40
0.0
  9
$LIMCHECK
 70
     0
  9
$CHAMFERA
 40
0.0
  9
$CHAMFERB
 40
0.0
  9
$CHAMFERC
 40
0.0
  9
$CHAMFERD
 40
0.0
  9
$SKPOLY
 70
     0
  9
$TDCREATE
 40
2461071.454050926
  9
$TDUCREATE
 40
2461071.704050926
  9
$TDUPDATE
 40
2461071.454050926
  9
$TDUUPDATE
 40
2461071.704050926
  9
$TDINDWG
 40
0.0000000000
  9
$TDUSRTIMER
 40
0.0000000000
  9
$USRTIMER
 70
     1
  9
$ANGBASE
 50
0.0
  9
$ANGDIR
 70
     0
  9
$PDMODE
 70
     0
  9
$PDSIZE
 40
0.0
  9
$PLINEWID
 40
0.0
  9
$SPLFRAME
 70
     0
  9
$SPLINETYPE
 70
     6
  9
$SPLINESEGS
 70
     8
  9
$HANDSEED
  5
21A
  9
$SURFTAB1
 70
     6
  9
$SURFTAB2
 70
     6
  9
$SURFTYPE
 70
     6
  9
$SURFU
 70
     6
  9
$SURFV
 70
     6
  9
$UCSBASE
  2

  9
$UCSNAME
  2

  9
$UCSORG
 10
0.0
 20
0.0
 30
0.0
  9
$UCSXDIR
 10
1.0
 20
0.0
 30
0.0
  9
$UCSYDIR
 10
0.0
 20
1.0
 30
0.0
  9
$UCSORTHOREF
  2

  9
$UCSORTHOVIEW
 70
     0
  9
$UCSORGTOP
 10
0.0
 20
0.0
 30
0.0
  9
$UCSORGBOTTOM
 10
0.0
 20
0.0
 30
0.0
  9
$UCSORGLEFT
 10
0.0
 20
0.0
 30
0.0
  9
$UCSORGRIGHT
 10
0.0
 20
0.0
 30
0.0
  9
$UCSORGFRONT
 10
0.0
 20
0.0
 30
0.0
  9
$UCSORGBACK
 10
0.0
 20
0.0
 30
0.0
  9
$PUCSBASE
  2

  9
$PUCSNAME
  2

  9
$PUCSORG
 10
0.0
 20
0.0
 30
0.0
  9
$PUCSXDIR
 10
1.0
 20
0.0
 30
0.0
  9
$PUCSYDIR
 10
0.0
 20
1.0
 30
0.0
  9
$PUCSORTHOREF
  2

  9
$PUCSORTHOVIEW
 70
     0
  9
$PUCSORGTOP
 10
0.0
 20
0.0
 30
0.0
  9
$PUCSORGBOTTOM
 10
0.0
 20
0.0
 30
0.0
  9
$PUCSORGLEFT
 10
0.0
 20
0.0
 30
0.0
  9
$PUCSORGRIGHT
 10
0.0
 20
0.0
 30
0.0
  9
$PUCSORGFRONT
 10
0.0
 20
0.0
 30
0.0
  9
$PUCSORGBACK
 10
0.0
 20
0.0
 30
0.0
  9
$USERI1
 70
     0
  9
$USERI2
 70
     0
  9
$USERI3
 70
     0
  9
$USERI4
 70
     0
  9
$USERI5
 70
     0
  9
$USERR1
 40
0.0
  9
$USERR2
 40
0.0
  9
$USERR3
 40
0.0
  9
$USERR4
 40
0.0
  9
$USERR5
 40
0.0
  9
$WORLDVIEW
 70
     1
  9
$SHADEDGE
 70
     3
  9
$SHADEDIF
 70
    70
  9
$TILEMODE
 70
     1
  9
$MAXACTVP
 70
    64
  9
$PINSBASE
 10
0.0
 20
0.0
 30
0.0
  9
$PLIMCHECK
 70
     0
  9
$PEXTMIN
 10
1.000000000000000E+20
 20
1.000000000000000E+20
 30
1.000000000000000E+20
  9
$PEXTMAX
 10
-1.000000000000000E+20
 20
-1.000000000000000E+20
 30
-1.000000000000000E+20
  9
$PLIMMIN
 10
0.0
 20
0.0
  9
$PLIMMAX
 10
12.0
 20
9.0
  9
$UNITMODE
 70
     0
  9
$VISRETAIN
 70
     1
  9
$PLINEGEN
 70
     0
  9
$PSLTSCALE
 70
     0
  9
$TREEDEPTH
 70
  3020
  9
$CMLSTYLE
  2
Standard
  9
$CMLJUST
 70
     0
  9
$CMLSCALE
 40
1.0
  9
$PROXYGRAPHICS
 70
     1
  9
$MEASUREMENT
 70
     0
  9
$CELWEIGHT
370
    -1
  9
$ENDCAPS
280
     0
  9
$JOINSTYLE
280
     0
  9
$LWDISPLAY
290
     0
  9
$INSUNITS
 70
     1
  9
$HYPERLINKBASE
  1

  9
$STYLESHEET
  1

  9
$XEDIT
290
     1
  9
$CEPSNTYPE
380
     0
  9
$PSTYLEMODE
290
     1
  9
$FINGERPRINTGUID
  2
{12F7A387-6029-EC43-8A7B-78CABA48EADD}
  9
$VERSIONGUID
  2
{A6755226-04A1-6E4B-A390-418736BE2A9B}
  9
$EXTNAMES
290
     1
  9
$PSVPSCALE
 40
0.0
  9
$OLESTARTUP
290
     0
  9
$SORTENTS
280
   127
  9
$INDEXCTL
280
     0
  9
$HIDETEXT
280
     1
  9
$XCLIPFRAME
280
     2
  9
$HALOGAP
280
     0
  9
$OBSCOLOR
 70
   257
  9
$OBSLTYPE
280
     0
  9
$INTERSECTIONDISPLAY
280
     0
  9
$INTERSECTIONCOLOR
 70
   257
  9
$DIMASSOC
280
     2
  9
$PROJECTNAME
  1

  9
$CAMERADISPLAY
290
     0
  9
$LENSLENGTH
 40
50.0
  9
$CAMERAHEIGHT
 40
0.0
  9
$STEPSPERSEC
 40
2.0
  9
$STEPSIZE
 40
6.0
  9
$3DDWFPREC
 40
2.0
  9
$PSOLWIDTH
 40
0.25
  9
$PSOLHEIGHT
 40
4.0
  9
$LOFTANG1
 40
1.570796326794896
  9
$LOFTANG2
 40
1.570796326794896
  9
$LOFTMAG1
 40
0.0
  9
$LOFTMAG2
 40
0.0
  9
$LOFTPARAM
 70
     7
  9
$LOFTNORMALS
280
     1
  9
$LATITUDE
 40
37.795
  9
$LONGITUDE
 40
-122.394
  9
$NORTHDIRECTION
 40
0.0
  9
$TIMEZONE
 70
 -8000
  9
$LIGHTGLYPHDISPLAY
280
     1
  9
$TILEMODELIGHTSYNCH
280
     1
  9
$CMATERIAL
347
11
  9
$SOLIDHIST
280
     0
  9
$SHOWHIST
280
     1
  9
$DWFFRAME
280
     2
  9
$DGNFRAME
280
     0
  9
$REALWORLDSCALE
290
     1
  9
$INTERFERECOLOR
 62
     1
  9
$INTERFEREOBJVS
345
33
  9
$INTERFEREVPVS
346
30
  9
$CSHADOW
280
     0
  9
$SHADOWPLANELOCATION
 40
0.0
  0
ENDSEC
  0
SECTION
  2
CLASSES
  0
CLASS
  1
ACDBDICTIONARYWDFLT
  2
AcDbDictionaryWithDefault
  3
ObjectDBX Classes
 90
        0
 91
        1
280
     0
281
     0
  0
CLASS
  1
MATERIAL
  2
AcDbMaterial
  3
ObjectDBX Classes
 90
     1153
 91
        3
280
     0
281
     0
  0
CLASS
  1
VISUALSTYLE
  2
AcDbVisualStyle
  3
ObjectDBX Classes
 90
     4095
 91
       24
280
     0
281
     0
  0
CLASS
  1
SCALE
  2
AcDbScale
  3
ObjectDBX Classes
 90
     1153
 91
       17
280
     0
281
     0
  0
CLASS
  1
TABLESTYLE
  2
AcDbTableStyle
  3
ObjectDBX Classes
 90
     4095
 91
        1
280
     0
281
     0
  0
CLASS
  1
MLEADERSTYLE
  2
AcDbMLeaderStyle
  3
ACDB_MLEADERSTYLE_CLASS
 90
     4095
 91
        1
280
     0
281
     0
  0
CLASS
  1
ACDBSECTIONVIEWSTYLE
  2
AcDbSectionViewStyle
  3
ObjectDBX Classes
 90
     1025
 91
        1
280
     0
281
     0
  0
CLASS
  1
ACDBDETAILVIEWSTYLE
  2
AcDbDetailViewStyle
  3
ObjectDBX Classes
 90
     1025
 91
        1
280
     0
281
     0
  0
CLASS
  1
RASTERVARIABLES
  2
AcDbRasterVariables
  3
ISM
 90
        0
 91
        1
280
     0
281
     0
  0
CLASS
  1
DICTIONARYVAR
  2
AcDbDictionaryVar
  3
ObjectDBX Classes
 90
        0
 91
        5
280
     0
281
     0
  0
CLASS
  1
CELLSTYLEMAP
  2
AcDbCellStyleMap
  3
ObjectDBX Classes
 90
     1152
 91
        2
280
     0
281
     0
  0
CLASS
  1
SORTENTSTABLE
  2
AcDbSortentsTable
  3
ObjectDBX Classes
 90
        0
 91
        1
280
     0
281
     0
  0
ENDSEC
  0
SECTION
  2
TABLES
  0
TABLE
  2
VPORT
  5
8
330
0
100
AcDbSymbolTable
 70
     1
  0
VPORT
  5
57
330
8
100
AcDbSymbolTableRecord
100
AcDbViewportTableRecord
  2
*Active
 70
     0
 10
0.0
 20
0.0
 11
1.0
 21
1.0
 12
841.6251853058543
 22
89.83925742266626
 13
0.0
 23
0.0
 14
1.0
 24
1.0
 15
0.0
 25
0.0
 16
0.0
 26
0.0
 36
1.0
 17
0.0
 27
0.0
 37
0.0
 40
1676.000000000001
 41
0.4439140811455849
 42
50.0
 43
0.0
 44
0.0
 50
0.0
 51
0.0
 71
     0
 72
  1000
 73
     1
 74
     1
 75
     0
 76
     0
 77
     0
 78
     0
281
     0
 65
     1
110
0.0
120
0.0
130
0.0
111
1.0
121
0.0
131
0.0
112
0.0
122
1.0
132
0.0
 79
     0
146
0.0
 60
     3
 61
     5
292
     1
282
     1
141
0.0
142
0.0
 63
   250
421
  3355443
  0
ENDTAB
  0
TABLE
  2
LTYPE
  5
5
330
0
100
AcDbSymbolTable
 70
     1
  0
LTYPE
  5
5B
330
5
100
AcDbSymbolTableRecord
100
AcDbLinetypeTableRecord
  2
ByBlock
 70
     0
  3

 72
    65
 73
     0
 40
0.0
  0
LTYPE
  5
5C
330
5
100
AcDbSymbolTableRecord
100
AcDbLinetypeTableRecord
  2
ByLayer
 70
     0
  3

 72
    65
 73
     0
 40
0.0
  0
LTYPE
  5
5D
330
5
100
AcDbSymbolTableRecord
100
AcDbLinetypeTableRecord
  2
Continuous
 70
     0
  3
Solid line
 72
    65
 73
     0
 40
0.0
  0
ENDTAB
  0
TABLE
  2
LAYER
  5
2
330
0
100
AcDbSymbolTable
 70
    11
  0
LAYER
  5
54
330
2
100
AcDbSymbolTableRecord
100
AcDbLayerTableRecord
  2
0
 70
     0
 62
     7
  6
Continuous
370
    -3
390
F
347
21
348
0
  0
LAYER
  5
84
330
2
100
AcDbSymbolTableRecord
100
AcDbLayerTableRecord
  2
S-STRS
 70
     0
 62
    31
  6
Continuous
370
     9
390
F
347
21
348
0
  0
LAYER
  5
85
330
2
100
AcDbSymbolTableRecord
100
AcDbLayerTableRecord
  2
A-FLOR-HRAL
 70
     0
 62
    11
  6
Continuous
370
     9
390
F
347
21
348
0
  0
LAYER
  5
86
330
2
100
AcDbSymbolTableRecord
100
AcDbLayerTableRecord
  2
A-WALL
 70
     0
 62
   113
  6
Continuous
370
    15
390
F
347
21
348
0
  0
LAYER
  5
87
330
2
100
AcDbSymbolTableRecord
100
AcDbLayerTableRecord
  2
I-WALL
 70
     0
 62
     2
  6
Continuous
370
    15
390
F
347
21
348
0
  0
LAYER
  5
88
330
2
100
AcDbSymbolTableRecord
100
AcDbLayerTableRecord
  2
A-GLAZ-CURT
 70
     0
 62
    52
  6
Continuous
370
     9
390
F
347
21
348
0
  0
LAYER
  5
89
330
2
100
AcDbSymbolTableRecord
100
AcDbLayerTableRecord
  2
A-GLAZ-CWMG
 70
     0
 62
    51
  6
Continuous
370
     9
390
F
347
21
348
0
  0
LAYER
  5
8A
330
2
100
AcDbSymbolTableRecord
100
AcDbLayerTableRecord
  2
A-DOOR
 70
     0
 62
    31
  6
Continuous
370
    15
390
F
347
21
348
0
  0
LAYER
  5
198
330
2
100
AcDbSymbolTableRecord
100
AcDbLayerTableRecord
  2
A-DOOR-FRAM
 70
     0
 62
    31
  6
Continuous
370
    25
390
F
347
21
348
0
  0
LAYER
  5
206
330
2
100
AcDbSymbolTableRecord
100
AcDbLayerTableRecord
  2
A-AREA-BNDY
 70
     0
 62
    -1
  6
Continuous
370
     9
390
F
347
21
348
0
  0
ENDTAB
  0
TABLE
  2
STYLE
  5
3
330
0
100
AcDbSymbolTable
 70
     2
  0
STYLE
  5
55
330
3
100
AcDbSymbolTableRecord
100
AcDbTextStyleTableRecord
  2
Standard
 70
     0
 40
0.0
 41
1.0
 50
0.0
 71
     0
 42
0.2
  3
txt
  4

  0
STYLE
  5
5A
330
3
100
AcDbSymbolTableRecord
100
AcDbTextStyleTableRecord
  2
Annotative
 70
     0
 40
0.0
 41
1.0
 50
0.0
 71
     0
 42
0.2
  3
txt
  4

1001
AcadAnnotative
1000
AnnotativeData
1002
{
1070
     1
1070
     1
1002
}
  0
ENDTAB
  0
TABLE
  2
VIEW
  5
6
330
0
100
AcDbSymbolTable
 70
     0
  0
ENDTAB
  0
TABLE
  2
UCS
  5
7
330
0
100
AcDbSymbolTable
 70
     2
  0
UCS
  5
20F
330
7
100
AcDbSymbolTableRecord
100
AcDbUCSTableRecord
  2
REVIT60-Internal
 70
     0
 10
0.0
 20
0.0
 30
0.0
 11
0.0000000000000018
 21
-1.0
 31
0.0
 12
1.0
 22
0.0000000000000018
 32
0.0
 79
     0
146
0.0
  0
UCS
  5
210
330
7
100
AcDbSymbolTableRecord
100
AcDbUCSTableRecord
  2
REVIT60-Default Site
 70
     0
 10
-0.0000000000020464
 20
0.0
 30
-1200.0
 11
0.0000000000000018
 21
-1.0
 31
0.0
 12
1.0
 22
0.0000000000000018
 32
0.0
 79
     0
146
0.0
  0
ENDTAB
  0
TABLE
  2
APPID
  5
9
330
0
100
AcDbSymbolTable
 70
     3
  0
APPID
  5
56
330
9
100
AcDbSymbolTableRecord
100
AcDbRegAppTableRecord
  2
ACAD
 70
     0
  0
APPID
  5
5E
330
9
100
AcDbSymbolTableRecord
100
AcDbRegAppTableRecord
  2
AcadAnnotative
 70
     0
  0
APPID
  5
78
330
9
100
AcDbSymbolTableRecord
100
AcDbRegAppTableRecord
  2
REVIT
 70
     0
  0
ENDTAB
  0
TABLE
  2
DIMSTYLE
  5
A
330
0
100
AcDbSymbolTable
 70
     2
100
AcDbDimStyleTable
 71
     0
  0
DIMSTYLE
105
58
330
A
100
AcDbSymbolTableRecord
100
AcDbDimStyleTableRecord
  2
Standard
 70
     0
340
55
  0
DIMSTYLE
105
59
330
A
100
AcDbSymbolTableRecord
100
AcDbDimStyleTableRecord
  2
Annotative
 70
     0
340
55
1001
AcadAnnotative
1000
AnnotativeData
1002
{
1070
     1
1070
     1
1002
}
  0
ENDTAB
  0
TABLE
  2
BLOCK_RECORD
  5
1
330
0
100
AcDbSymbolTable
 70
    15
  0
BLOCK_RECORD
  5
70
102
{ACAD_XDICTIONARY
360
215
102
}
330
1
100
AcDbSymbolTableRecord
100
AcDbBlockTableRecord
  2
*Model_Space
340
73
 70
     0
280
     1
281
     0
  0
BLOCK_RECORD
  5
6C
330
1
100
AcDbSymbolTableRecord
100
AcDbBlockTableRecord
  2
*Paper_Space
340
6F
 70
     0
280
     1
281
     0
  0
BLOCK_RECORD
  5
74
330
1
100
AcDbSymbolTableRecord
100
AcDbBlockTableRecord
  2
*Paper_Space0
340
77
 70
     0
280
     1
281
     0
  0
BLOCK_RECORD
  5
AE
330
1
100
AcDbSymbolTableRecord
100
AcDbBlockTableRecord
  2
Railing - Railing-5139451-LEVEL 2 Map Export
340
0
102
{BLKREFS
331
BA
102
}
 70
     0
280
     1
281
     0
  0
BLOCK_RECORD
  5
BB
330
1
100
AcDbSymbolTableRecord
100
AcDbBlockTableRecord
  2
Railing - Railing-5139455-LEVEL 2 Map Export
340
0
102
{BLKREFS
331
CA
102
}
 70
     0
280
     1
281
     0
  0
BLOCK_RECORD
  5
14D
330
1
100
AcDbSymbolTableRecord
100
AcDbBlockTableRecord
  2
System Panel - zGlazed-5163577-LEVEL 2 Map Export
340
0
102
{BLKREFS
331
154
331
16B
331
1FA
331
1FE
331
202
102
}
 70
     0
280
     1
281
     0
  0
BLOCK_RECORD
  5
155
330
1
100
AcDbSymbolTableRecord
100
AcDbBlockTableRecord
  2
Rectangular Mullion - 4 1_2_ x 2_ Rectangular_CE_-5151717-LEVEL 2 Map Export
340
0
102
{BLKREFS
331
15A
331
16C
331
1FB
331
1FF
331
203
102
}
 70
     0
280
     1
281
     0
  0
BLOCK_RECORD
  5
15B
330
1
100
AcDbSymbolTableRecord
100
AcDbBlockTableRecord
  2
Rectangular Mullion - 4 1_2_ x 2_ Rectangular_CE_-5163578-LEVEL 2 Map Export
340
0
102
{BLKREFS
331
162
331
16D
331
1FC
331
200
331
204
102
}
 70
     0
280
     1
281
     0
  0
BLOCK_RECORD
  5
163
330
1
100
AcDbSymbolTableRecord
100
AcDbBlockTableRecord
  2
Rectangular Mullion - 4 1_2_ x 2_ Rectangular_CE_-5163579-LEVEL 2 Map Export
340
0
102
{BLKREFS
331
16A
331
16E
331
1FD
331
201
331
205
102
}
 70
     0
280
     1
281
     0
  0
BLOCK_RECORD
  5
16F
330
1
100
AcDbSymbolTableRecord
100
AcDbBlockTableRecord
  2
System Panel - zGlazed-5163638-LEVEL 2 Map Export
340
0
102
{BLKREFS
331
176
331
18D
102
}
 70
     0
280
     1
281
     0
  0
BLOCK_RECORD
  5
177
330
1
100
AcDbSymbolTableRecord
100
AcDbBlockTableRecord
  2
Rectangular Mullion - 4 1_2_ x 2_ Rectangular_CE_-5152743-LEVEL 2 Map Export
340
0
102
{BLKREFS
331
17C
331
18E
102
}
 70
     0
280
     1
281
     0
  0
BLOCK_RECORD
  5
17D
330
1
100
AcDbSymbolTableRecord
100
AcDbBlockTableRecord
  2
Rectangular Mullion - 4 1_2_ x 2_ Rectangular_CE_-5163639-LEVEL 2 Map Export
340
0
102
{BLKREFS
331
184
331
18F
102
}
 70
     0
280
     1
281
     0
  0
BLOCK_RECORD
  5
185
330
1
100
AcDbSymbolTableRecord
100
AcDbBlockTableRecord
  2
Rectangular Mullion - 4 1_2_ x 2_ Rectangular_CE_-5163640-LEVEL 2 Map Export
340
0
102
{BLKREFS
331
18C
331
190
102
}
 70
     0
280
     1
281
     0
  0
BLOCK_RECORD
  5
191
330
1
100
AcDbSymbolTableRecord
100
AcDbBlockTableRecord
  2
Door-Single_CE_ - HM Door-2_ HM Frame-5137187-LEVEL 2 Map Export
340
0
102
{BLKREFS
331
1B1
331
1B2
331
1D3
102
}
 70
     0
280
     1
281
     0
  0
BLOCK_RECORD
  5
1B3
330
1
100
AcDbSymbolTableRecord
100
AcDbBlockTableRecord
  2
Door-Single_CE_ - HM Door-2_ HM Frame-5137074-LEVEL 2 Map Export
340
0
102
{BLKREFS
331
1D2
102
}
 70
     0
280
     1
281
     0
  0
BLOCK_RECORD
  5
1E8
330
1
100
AcDbSymbolTableRecord
100
AcDbBlockTableRecord
  2
Railing - Railing-5163119-LEVEL 2 Map Export
340
0
102
{BLKREFS
331
1F0
102
}
 70
     0
280
     1
281
     0
  0
BLOCK_RECORD
  5
1F1
330
1
100
AcDbSymbolTableRecord
100
AcDbBlockTableRecord
  2
Railing - Railing-5163123-LEVEL 2 Map Export
340
0
102
{BLKREFS
331
1F9
102
}
 70
     0
280
     1
281
     0
  0
ENDTAB
  0
ENDSEC
  0
SECTION
  2
BLOCKS
  0
BLOCK
  5
71
330
70
100
AcDbEntity
  8
0
100
AcDbBlockBegin
  2
*Model_Space
 70
     0
 10
0.0
 20
0.0
 30
0.0
  3
*Model_Space
  1

  0
ENDBLK
  5
72
330
70
100
AcDbEntity
  8
0
100
AcDbBlockEnd
  0
BLOCK
  5
6D
330
6C
100
AcDbEntity
 67
     1
  8
0
100
AcDbBlockBegin
  2
*Paper_Space
 70
     0
 10
0.0
 20
0.0
 30
0.0
  3
*Paper_Space
  1

  0
ENDBLK
  5
6E
330
6C
100
AcDbEntity
 67
     1
  8
0
100
AcDbBlockEnd
  0
BLOCK
  5
75
330
74
100
AcDbEntity
 67
     1
  8
0
100
AcDbBlockBegin
  2
*Paper_Space0
 70
     0
 10
0.0
 20
0.0
 30
0.0
  3
*Paper_Space0
  1

  0
ENDBLK
  5
76
330
74
100
AcDbEntity
 67
     1
  8
0
100
AcDbBlockEnd
  0
BLOCK
  5
B8
330
AE
100
AcDbEntity
  8
0
100
AcDbBlockBegin
  2
Railing - Railing-5139451-LEVEL 2 Map Export
 70
     0
 10
0.0
 20
0.0
 30
0.0
  3
Railing - Railing-5139451-LEVEL 2 Map Export
  1

  0
LINE
  5
AF
330
AE
100
AcDbEntity
  8
A-FLOR-HRAL
100
AcDbLine
 10
561.6251853058574
 20
860.839257422667
 30
0.0
 11
561.6251853058574
 21
862.8392574226669
 31
0.0
1001
REVIT
1002
{
1070
     1
1000
5139450
1002
}
1002
{
1070
     5
1000
1969
1002
}
1002
{
1070
     3
1000
-2000128
1002
}
  0
LINE
  5
B0
330
AE
100
AcDbEntity
  8
A-FLOR-HRAL
100
AcDbLine
 10
673.6251853058574
 20
860.839257422667
 30
0.0
 11
561.6251853058574
 21
860.839257422667
 31
0.0
1001
REVIT
1002
{
1070
     1
1000
5139450
1002
}
1002
{
1070
     5
1000
1969
1002
}
1002
{
1070
     3
1000
-2000128
1002
}
  0
LINE
  5
B1
330
AE
100
AcDbEntity
  8
A-FLOR-HRAL
100
AcDbLine
 10
673.6251853058572
 20
877.5507347915507
 30
0.0
 11
673.6251853058574
 21
860.839257422667
 31
0.0
1001
REVIT
1002
{
1070
     1
1000
5139450
1002
}
1002
{
1070
     5
1000
1969
1002
}
1002
{
1070
     3
1000
-2000128
1002
}
  0
LINE
  5
B2
330
AE
100
AcDbEntity
  8
A-FLOR-HRAL
100
AcDbLine
 10
671.6251853058572
 20
877.5507347915507
 30
0.0
 11
673.6251853058572
 21
877.5507347915507
 31
0.0
1001
REVIT
1002
{
1070
     1
1000
5139450
1002
}
1002
{
1070
     5
1000
1969
1002
}
1002
{
1070
     3
1000
-2000128
1002
}
  0
LINE
  5
B3
330
AE
100
AcDbEntity
  8
A-FLOR-HRAL
100
AcDbLine
 10
561.6251853058572
 20
877.5507347915507
 30
0.0
 11
671.6251853058572
 21
877.5507347915507
 31
0.0
1001
REVIT
1002
{
1070
     1
1000
5139450
1002
}
1002
{
1070
     5
1000
1969
1002
}
1002
{
1070
     3
1000
-2000128
1002
}
  0
LINE
  5
B4
330
AE
100
AcDbEntity
  8
A-FLOR-HRAL
100
AcDbLine
 10
561.6251853058572
 20
875.5507347915507
 30
0.0
 11
561.6251853058572
 21
877.5507347915507
 31
0.0
1001
REVIT
1002
{
1070
     1
1000
5139450
1002
}
1002
{
1070
     5
1000
1969
1002
}
1002
{
1070
     3
1000
-2000128
1002
}
  0
LINE
  5
B5
330
AE
100
AcDbEntity
  8
A-FLOR-HRAL
100
AcDbLine
 10
671.6251853058572
 20
862.8392574226669
 30
0.0
 11
561.6251853058574
 21
862.8392574226669
 31
0.0
1001
REVIT
1002
{
1070
     1
1000
5139450
1002
}
1002
{
1070
     5
1000
1969
1002
}
1002
{
1070
     3
1000
-2000128
1002
}
  0
LINE
  5
B6
330
AE
100
AcDbEntity
  8
A-FLOR-HRAL
100
AcDbLine
 10
671.6251853058572
 20
875.5507347915507
 30
0.0
 11
671.6251853058572
 21
862.8392574226669
 31
0.0
1001
REVIT
1002
{
1070
     1
1000
5139450
1002
}
1002
{
1070
     5
1000
1969
1002
}
1002
{
1070
     3
1000
-2000128
1002
}
  0
LINE
  5
B7
330
AE
100
AcDbEntity
  8
A-FLOR-HRAL
100
AcDbLine
 10
561.6251853058572
 20
875.5507347915507
 30
0.0
 11
671.6251853058572
 21
875.5507347915507
 31
0.0
1001
REVIT
1002
{
1070
     1
1000
5139450
1002
}
1002
{
1070
     5
1000
1969
1002
}
1002
{
1070
     3
1000
-2000128
1002
}
  0
ENDBLK
  5
B9
330
AE
100
AcDbEntity
  8
0
100
AcDbBlockEnd
  0
BLOCK
  5
C8
330
BB
100
AcDbEntity
  8
0
100
AcDbBlockBegin
  2
Railing - Railing-5139455-LEVEL 2 Map Export
 70
     0
 10
0.0
 20
0.0
 30
0.0
  3
Railing - Railing-5139455-LEVEL 2 Map Export
  1

  0
LINE
  5
BC
330
BB
100
AcDbEntity
  8
A-FLOR-HRAL
100
AcDbLine
 10
561.6251853058574
 20
826.839257422667
 30
0.0
 11
561.6251853058574
 21
828.8392574226667
 31
0.0
1001
REVIT
1002
{
1070
     1
1000
5139454
1002
}
1002
{
1070
     5
1000
1969
1002
}
1002
{
1070
     3
1000
-2000128
1002
}
  0
LINE
  5
BD
330
BB
100
AcDbEntity
  8
A-FLOR-HRAL
100
AcDbLine
 10
671.6251853058572
 20
826.839257422667
 30
0.0
 11
561.6251853058574
 21
826.839257422667
 31
0.0
1001
REVIT
1002
{
1070
     1
1000
5139454
1002
}
1002
{
1070
     5
1000
1969
1002
}
1002
{
1070
     3
1000
-2000128
1002
}
  0
LINE
  5
BE
330
BB
100
AcDbEntity
  8
A-FLOR-HRAL
100
AcDbLine
 10
707.6251853058574
 20
826.839257422667
 30
0.0
 11
671.6251853058572
 21
826.839257422667
 31
0.0
1001
REVIT
1002
{
1070
     1
1000
5139454
1002
}
1002
{
1070
     5
1000
1969
1002
}
1002
{
1070
     3
1000
-2000128
1002
}
  0
LINE
  5
BF
330
BB
100
AcDbEntity
  8
A-FLOR-HRAL
100
AcDbLine
 10
707.6251853058572
 20
911.5507347915508
 30
0.0
 11
707.6251853058574
 21
826.839257422667
 31
0.0
1001
REVIT
1002
{
1070
     1
1000
5139454
1002
}
1002
{
1070
     5
1000
1969
1002
}
1002
{
1070
     3
1000
-2000128
1002
}
  0
LINE
  5
C0
330
BB
100
AcDbEntity
  8
A-FLOR-HRAL
100
AcDbLine
 10
671.6251853058572
 20
911.5507347915508
 30
0.0
 11
707.6251853058572
 21
911.5507347915508
 31
0.0
1001
REVIT
1002
{
1070
     1
1000
5139454
1002
}
1002
{
1070
     5
1000
1969
1002
}
1002
{
1070
     3
1000
-2000128
1002
}
  0
LINE
  5
C1
330
BB
100
AcDbEntity
  8
A-FLOR-HRAL
100
AcDbLine
 10
561.6251853058572
 20
911.5507347915508
 30
0.0
 11
671.6251853058572
 21
911.5507347915508
 31
0.0
1001
REVIT
1002
{
1070
     1
1000
5139454
1002
}
1002
{
1070
     5
1000
1969
1002
}
1002
{
1070
     3
1000
-2000128
1002
}
  0
LINE
  5
C2
330
BB
100
AcDbEntity
  8
A-FLOR-HRAL
100
AcDbLine
 10
561.6251853058572
 20
909.5507347915509
 30
0.0
 11
561.6251853058572
 21
911.5507347915508
 31
0.0
1001
REVIT
1002
{
1070
     1
1000
5139454
1002
}
1002
{
1070
     5
1000
1969
1002
}
1002
{
1070
     3
1000
-2000128
1002
}
  0
LINE
  5
C3
330
BB
100
AcDbEntity
  8
A-FLOR-HRAL
100
AcDbLine
 10
671.6251853058572
 20
828.8392574226667
 30
0.0
 11
561.6251853058574
 21
828.8392574226667
 31
0.0
1001
REVIT
1002
{
1070
     1
1000
5139454
1002
}
1002
{
1070
     5
1000
1969
1002
}
1002
{
1070
     3
1000
-2000128
1002
}
  0
LINE
  5
C4
330
BB
100
AcDbEntity
  8
A-FLOR-HRAL
100
AcDbLine
 10
705.6251853058573
 20
828.8392574226667
 30
0.0
 11
671.6251853058572
 21
828.8392574226667
 31
0.0
1001
REVIT
1002
{
1070
     1
1000
5139454
1002
}
1002
{
1070
     5
1000
1969
1002
}
1002
{
1070
     3
1000
-2000128
1002
}
  0
LINE
  5
C5
330
BB
100
AcDbEntity
  8
A-FLOR-HRAL
100
AcDbLine
 10
705.6251853058571
 20
909.5507347915509
 30
0.0
 11
705.6251853058573
 21
828.8392574226667
 31
0.0
1001
REVIT
1002
{
1070
     1
1000
5139454
1002
}
1002
{
1070
     5
1000
1969
1002
}
1002
{
1070
     3
1000
-2000128
1002
}
  0
LINE
  5
C6
330
BB
100
AcDbEntity
  8
A-FLOR-HRAL
100
AcDbLine
 10
671.6251853058572
 20
909.5507347915509
 30
0.0
 11
705.6251853058571
 21
909.5507347915509
 31
0.0
1001
REVIT
1002
{
1070
     1
1000
5139454
1002
}
1002
{
1070
     5
1000
1969
1002
}
1002
{
1070
     3
1000
-2000128
1002
}
  0
LINE
  5
C7
330
BB
100
AcDbEntity
  8
A-FLOR-HRAL
100
AcDbLine
 10
561.6251853058572
 20
909.5507347915509
 30
0.0
 11
671.6251853058572
 21
909.5507347915509
 31
0.0
1001
REVIT
1002
{
1070
     1
1000
5139454
1002
}
1002
{
1070
     5
1000
1969
1002
}
1002
{
1070
     3
1000
-2000128
1002
}
  0
ENDBLK
  5
C9
330
BB
100
AcDbEntity
  8
0
100
AcDbBlockEnd
  0
BLOCK
  5
152
330
14D
100
AcDbEntity
  8
0
100
AcDbBlockBegin
  2
System Panel - zGlazed-5163577-LEVEL 2 Map Export
 70
     0
 10
0.0
 20
0.0
 30
0.0
  3
System Panel - zGlazed-5163577-LEVEL 2 Map Export
  1

  0
LINE
  5
14E
330
14D
100
AcDbEntity
  8
A-GLAZ-CURT
370
    15
100
AcDbLine
 10
-16.00000000000011
 20
0.5000000000002273
 30
0.0
 11
15.99999999999994
 21
0.5000000000002273
 31
0.0
1001
REVIT
1002
{
1070
     1
1000
5152459
1002
}
1002
{
1070
     5
1000
645966
1002
}
  0
LINE
  5
14F
330
14D
100
AcDbEntity
  8
A-GLAZ-CURT
370
    15
100
AcDbLine
 10
15.99999999999994
 20
0.5000000000002273
 30
0.0
 11
15.99999999999994
 21
1.50000000000017
 31
0.0
1001
REVIT
1002
{
1070
     1
1000
5152459
1002
}
1002
{
1070
     5
1000
645966
1002
}
  0
LINE
  5
150
330
14D
100
AcDbEntity
  8
A-GLAZ-CURT
370
    15
100
AcDbLine
 10
15.99999999999994
 20
1.50000000000017
 30
0.0
 11
-16.00000000000011
 21
1.50000000000017
 31
0.0
1001
REVIT
1002
{
1070
     1
1000
5152459
1002
}
1002
{
1070
     5
1000
645966
1002
}
  0
LINE
  5
151
330
14D
100
AcDbEntity
  8
A-GLAZ-CURT
370
    15
100
AcDbLine
 10
-16.00000000000011
 20
1.50000000000017
 30
0.0
 11
-16.00000000000011
 21
0.5000000000002273
 31
0.0
1001
REVIT
1002
{
1070
     1
1000
5152459
1002
}
1002
{
1070
     5
1000
645966
1002
}
  0
ENDBLK
  5
153
330
14D
100
AcDbEntity
  8
0
100
AcDbBlockEnd
  0
BLOCK
  5
158
330
155
100
AcDbEntity
  8
0
100
AcDbBlockBegin
  2
Rectangular Mullion - 4 1_2_ x 2_ Rectangular_CE_-5151717-LEVEL 2 Map Export
 70
     0
 10
0.0
 20
0.0
 30
0.0
  3
Rectangular Mullion - 4 1_2_ x 2_ Rectangular_CE_-5151717-LEVEL 2 Map Export
  1

  0
LINE
  5
156
330
155
100
AcDbEntity
  8
A-GLAZ-CWMG
100
AcDbLine
 10
959.3751853058577
 20
825.8392574226663
 30
0.0
 11
959.3751853058579
 21
857.8392574226663
 31
0.0
1001
REVIT
1002
{
1070
     1
1000
5152461
1002
}
1002
{
1070
     5
1000
646104
1002
}
  0
LINE
  5
157
330
155
100
AcDbEntity
  8
A-GLAZ-CWMG
100
AcDbLine
 10
963.8751853058577
 20
825.8392574226663
 30
0.0
 11
963.8751853058579
 21
857.8392574226663
 31
0.0
1001
REVIT
1002
{
1070
     1
1000
5152461
1002
}
1002
{
1070
     5
1000
646104
1002
}
  0
ENDBLK
  5
159
330
155
100
AcDbEntity
  8
0
100
AcDbBlockEnd
  0
BLOCK
  5
160
330
15B
100
AcDbEntity
  8
0
100
AcDbBlockBegin
  2
Rectangular Mullion - 4 1_2_ x 2_ Rectangular_CE_-5163578-LEVEL 2 Map Export
 70
     0
 10
0.0
 20
0.0
 30
0.0
  3
Rectangular Mullion - 4 1_2_ x 2_ Rectangular_CE_-5163578-LEVEL 2 Map Export
  1

  0
LINE
  5
15C
330
15B
100
AcDbEntity
  8
A-GLAZ-CWMG
370
    25
100
AcDbLine
 10
-2.000000000000056
 20
2.249999999999999
 30
0.0
 11
0.0
 21
2.249999999999999
 31
0.0
1001
REVIT
1002
{
1070
     1
1000
5152462
1002
}
1002
{
1070
     5
1000
646104
1002
}
  0
LINE
  5
15D
330
15B
100
AcDbEntity
  8
A-GLAZ-CWMG
370
    25
100
AcDbLine
 10
0.0
 20
2.249999999999999
 30
0.0
 11
0.0
 21
-2.249999999999999
 31
0.0
1001
REVIT
1002
{
1070
     1
1000
5152462
1002
}
1002
{
1070
     5
1000
646104
1002
}
  0
LINE
  5
15E
330
15B
100
AcDbEntity
  8
A-GLAZ-CWMG
370
    25
100
AcDbLine
 10
0.0
 20
-2.249999999999999
 30
0.0
 11
-2.000000000000056
 21
-2.249999999999999
 31
0.0
1001
REVIT
1002
{
1070
     1
1000
5152462
1002
}
1002
{
1070
     5
1000
646104
1002
}
  0
LINE
  5
15F
330
15B
100
AcDbEntity
  8
A-GLAZ-CWMG
370
    25
100
AcDbLine
 10
-2.000000000000056
 20
-2.249999999999999
 30
0.0
 11
-2.000000000000056
 21
2.249999999999999
 31
0.0
1001
REVIT
1002
{
1070
     1
1000
5152462
1002
}
1002
{
1070
     5
1000
646104
1002
}
  0
ENDBLK
  5
161
330
15B
100
AcDbEntity
  8
0
100
AcDbBlockEnd
  0
BLOCK
  5
168
330
163
100
AcDbEntity
  8
0
100
AcDbBlockBegin
  2
Rectangular Mullion - 4 1_2_ x 2_ Rectangular_CE_-5163579-LEVEL 2 Map Export
 70
     0
 10
0.0
 20
0.0
 30
0.0
  3
Rectangular Mullion - 4 1_2_ x 2_ Rectangular_CE_-5163579-LEVEL 2 Map Export
  1

  0
LINE
  5
164
330
163
100
AcDbEntity
  8
A-GLAZ-CWMG
370
    25
100
AcDbLine
 10
0.0
 20
2.249999999999999
 30
0.0
 11
-2.000000000000056
 21
2.249999999999999
 31
0.0
1001
REVIT
1002
{
1070
     1
1000
5152463
1002
}
1002
{
1070
     5
1000
646104
1002
}
  0
LINE
  5
165
330
163
100
AcDbEntity
  8
A-GLAZ-CWMG
370
    25
100
AcDbLine
 10
-2.000000000000056
 20
2.249999999999999
 30
0.0
 11
-2.000000000000056
 21
-2.249999999999999
 31
0.0
1001
REVIT
1002
{
1070
     1
1000
5152463
1002
}
1002
{
1070
     5
1000
646104
1002
}
  0
LINE
  5
166
330
163
100
AcDbEntity
  8
A-GLAZ-CWMG
370
    25
100
AcDbLine
 10
-2.000000000000056
 20
-2.249999999999999
 30
0.0
 11
0.0
 21
-2.249999999999999
 31
0.0
1001
REVIT
1002
{
1070
     1
1000
5152463
1002
}
1002
{
1070
     5
1000
646104
1002
}
  0
LINE
  5
167
330
163
100
AcDbEntity
  8
A-GLAZ-CWMG
370
    25
100
AcDbLine
 10
0.0
 20
-2.249999999999999
 30
0.0
 11
0.0
 21
2.249999999999999
 31
0.0
1001
REVIT
1002
{
1070
     1
1000
5152463
1002
}
1002
{
1070
     5
1000
646104
1002
}
  0
ENDBLK
  5
169
330
163
100
AcDbEntity
  8
0
100
AcDbBlockEnd
  0
BLOCK
  5
174
330
16F
100
AcDbEntity
  8
0
100
AcDbBlockBegin
  2
System Panel - zGlazed-5163638-LEVEL 2 Map Export
 70
     0
 10
0.0
 20
0.0
 30
0.0
  3
System Panel - zGlazed-5163638-LEVEL 2 Map Export
  1

  0
LINE
  5
170
330
16F
100
AcDbEntity
  8
A-GLAZ-CURT
370
    15
100
AcDbLine
 10
-16.00000000000002
 20
-1.499999999999999
 30
0.0
 11
16.00000000000002
 21
-1.499999999999999
 31
0.0
1001
REVIT
1002
{
1070
     1
1000
5152737
1002
}
1002
{
1070
     5
1000
645966
1002
}
  0
LINE
  5
171
330
16F
100
AcDbEntity
  8
A-GLAZ-CURT
370
    15
100
AcDbLine
 10
16.00000000000002
 20
-1.499999999999999
 30
0.0
 11
16.00000000000002
 21
-0.5000000000000568
 31
0.0
1001
REVIT
1002
{
1070
     1
1000
5152737
1002
}
1002
{
1070
     5
1000
645966
1002
}
  0
LINE
  5
172
330
16F
100
AcDbEntity
  8
A-GLAZ-CURT
370
    15
100
AcDbLine
 10
16.00000000000002
 20
-0.5000000000000568
 30
0.0
 11
-16.00000000000002
 21
-0.5000000000000568
 31
0.0
1001
REVIT
1002
{
1070
     1
1000
5152737
1002
}
1002
{
1070
     5
1000
645966
1002
}
  0
LINE
  5
173
330
16F
100
AcDbEntity
  8
A-GLAZ-CURT
370
    15
100
AcDbLine
 10
-16.00000000000002
 20
-0.5000000000000568
 30
0.0
 11
-16.00000000000002
 21
-1.499999999999999
 31
0.0
1001
REVIT
1002
{
1070
     1
1000
5152737
1002
}
1002
{
1070
     5
1000
645966
1002
}
  0
ENDBLK
  5
175
330
16F
100
AcDbEntity
  8
0
100
AcDbBlockEnd
  0
BLOCK
  5
17A
330
177
100
AcDbEntity
  8
0
100
AcDbBlockBegin
  2
Rectangular Mullion - 4 1_2_ x 2_ Rectangular_CE_-5152743-LEVEL 2 Map Export
 70
     0
 10
0.0
 20
0.0
 30
0.0
  3
Rectangular Mullion - 4 1_2_ x 2_ Rectangular_CE_-5152743-LEVEL 2 Map Export
  1

  0
LINE
  5
178
330
177
100
AcDbEntity
  8
A-GLAZ-CWMG
100
AcDbLine
 10
963.8751853058582
 20
647.8392574226668
 30
0.0
 11
963.8751853058584
 21
615.8392574226668
 31
0.0
1001
REVIT
1002
{
1070
     1
1000
5152739
1002
}
1002
{
1070
     5
1000
646104
1002
}
  0
LINE
  5
179
330
177
100
AcDbEntity
  8
A-GLAZ-CWMG
100
AcDbLine
 10
959.3751853058583
 20
647.8392574226668
 30
0.0
 11
959.3751853058584
 21
615.8392574226668
 31
0.0
1001
REVIT
1002
{
1070
     1
1000
5152739
1002
}
1002
{
1070
     5
1000
646104
1002
}
  0
ENDBLK
  5
17B
330
177
100
AcDbEntity
  8
0
100
AcDbBlockEnd
  0
BLOCK
  5
182
330
17D
100
AcDbEntity
  8
0
100
AcDbBlockBegin
  2
Rectangular Mullion - 4 1_2_ x 2_ Rectangular_CE_-5163639-LEVEL 2 Map Export
 70
     0
 10
0.0
 20
0.0
 30
0.0
  3
Rectangular Mullion - 4 1_2_ x 2_ Rectangular_CE_-5163639-LEVEL 2 Map Export
  1

  0
LINE
  5
17E
330
17D
100
AcDbEntity
  8
A-GLAZ-CWMG
370
    25
100
AcDbLine
 10
-1.999999999999971
 20
2.249999999999999
 30
0.0
 11
0.0
 21
2.249999999999999
 31
0.0
1001
REVIT
1002
{
1070
     1
1000
5152740
1002
}
1002
{
1070
     5
1000
646104
1002
}
  0
LINE
  5
17F
330
17D
100
AcDbEntity
  8
A-GLAZ-CWMG
370
    25
100
AcDbLine
 10
0.0
 20
2.249999999999999
 30
0.0
 11
0.0
 21
-2.249999999999999
 31
0.0
1001
REVIT
1002
{
1070
     1
1000
5152740
1002
}
1002
{
1070
     5
1000
646104
1002
}
  0
LINE
  5
180
330
17D
100
AcDbEntity
  8
A-GLAZ-CWMG
370
    25
100
AcDbLine
 10
0.0
 20
-2.249999999999999
 30
0.0
 11
-1.999999999999971
 21
-2.249999999999999
 31
0.0
1001
REVIT
1002
{
1070
     1
1000
5152740
1002
}
1002
{
1070
     5
1000
646104
1002
}
  0
LINE
  5
181
330
17D
100
AcDbEntity
  8
A-GLAZ-CWMG
370
    25
100
AcDbLine
 10
-1.999999999999971
 20
-2.249999999999999
 30
0.0
 11
-1.999999999999971
 21
2.249999999999999
 31
0.0
1001
REVIT
1002
{
1070
     1
1000
5152740
1002
}
1002
{
1070
     5
1000
646104
1002
}
  0
ENDBLK
  5
183
330
17D
100
AcDbEntity
  8
0
100
AcDbBlockEnd
  0
BLOCK
  5
18A
330
185
100
AcDbEntity
  8
0
100
AcDbBlockBegin
  2
Rectangular Mullion - 4 1_2_ x 2_ Rectangular_CE_-5163640-LEVEL 2 Map Export
 70
     0
 10
0.0
 20
0.0
 30
0.0
  3
Rectangular Mullion - 4 1_2_ x 2_ Rectangular_CE_-5163640-LEVEL 2 Map Export
  1

  0
LINE
  5
186
330
185
100
AcDbEntity
  8
A-GLAZ-CWMG
370
    25
100
AcDbLine
 10
0.0
 20
2.249999999999999
 30
0.0
 11
-1.999999999999971
 21
2.249999999999999
 31
0.0
1001
REVIT
1002
{
1070
     1
1000
5152741
1002
}
1002
{
1070
     5
1000
646104
1002
}
  0
LINE
  5
187
330
185
100
AcDbEntity
  8
A-GLAZ-CWMG
370
    25
100
AcDbLine
 10
-1.999999999999971
 20
2.249999999999999
 30
0.0
 11
-1.999999999999971
 21
-2.249999999999999
 31
0.0
1001
REVIT
1002
{
1070
     1
1000
5152741
1002
}
1002
{
1070
     5
1000
646104
1002
}
  0
LINE
  5
188
330
185
100
AcDbEntity
  8
A-GLAZ-CWMG
370
    25
100
AcDbLine
 10
-1.999999999999971
 20
-2.249999999999999
 30
0.0
 11
0.0
 21
-2.249999999999999
 31
0.0
1001
REVIT
1002
{
1070
     1
1000
5152741
1002
}
1002
{
1070
     5
1000
646104
1002
}
  0
LINE
  5
189
330
185
100
AcDbEntity
  8
A-GLAZ-CWMG
370
    25
100
AcDbLine
 10
0.0
 20
-2.249999999999999
 30
0.0
 11
0.0
 21
2.249999999999999
 31
0.0
1001
REVIT
1002
{
1070
     1
1000
5152741
1002
}
1002
{
1070
     5
1000
646104
1002
}
  0
ENDBLK
  5
18B
330
185
100
AcDbEntity
  8
0
100
AcDbBlockEnd
  0
BLOCK
  5
1AF
330
191
100
AcDbEntity
  8
0
100
AcDbBlockBegin
  2
Door-Single_CE_ - HM Door-2_ HM Frame-5137187-LEVEL 2 Map Export
 70
     0
 10
0.0
 20
0.0
 30
0.0
  3
Door-Single_CE_ - HM Door-2_ HM Frame-5137187-LEVEL 2 Map Export
  1

  0
ARC
  5
192
330
191
100
AcDbEntity
  8
A-DOOR
370
     9
100
AcDbCircle
 10
18.0000000000032
 20
2.999999999999463
 30
0.0
 40
36.0
100
AcDbArc
 50
90.00000000000012
 51
180.4999999999995
1001
REVIT
1002
{
1070
     1
1000
5157038
1002
}
1002
{
1070
     5
1000
4450563
1002
}
1002
{
1070
     3
1000
636535
1002
}
  0
LINE
  5
193
330
191
100
AcDbEntity
  8
A-DOOR
100
AcDbLine
 10
18.00000000000001
 20
2.999999999999383
 30
0.0
 11
17.99999999999995
 21
38.99999999999938
 31
0.0
1001
REVIT
1002
{
1070
     1
1000
5157038
1002
}
1002
{
1070
     5
1000
4450563
1002
}
1002
{
1070
     3
1000
-2000025
1002
}
  0
LINE
  5
194
330
191
100
AcDbEntity
  8
A-DOOR
100
AcDbLine
 10
17.99999999999995
 20
38.99999999999938
 30
0.0
 11
16.24999999999995
 21
38.99999999999938
 31
0.0
1001
REVIT
1002
{
1070
     1
1000
5157038
1002
}
1002
{
1070
     5
1000
4450563
1002
}
1002
{
1070
     3
1000
-2000025
1002
}
  0
LINE
  5
195
330
191
100
AcDbEntity
  8
A-DOOR
100
AcDbLine
 10
16.24999999999995
 20
38.99999999999938
 30
0.0
 11
16.25000000000001
 21
2.999999999999381
 31
0.0
1001
REVIT
1002
{
1070
     1
1000
5157038
1002
}
1002
{
1070
     5
1000
4450563
1002
}
1002
{
1070
     3
1000
-2000025
1002
}
  0
LINE
  5
196
330
191
100
AcDbEntity
  8
A-DOOR
100
AcDbLine
 10
16.25000000000001
 20
2.99999999999938
 30
0.0
 11
18.00000000000001
 21
2.999999999999383
 31
0.0
1001
REVIT
1002
{
1070
     1
1000
5157038
1002
}
1002
{
1070
     5
1000
4450563
1002
}
1002
{
1070
     3
1000
-2000025
1002
}
  0
ARC
  5
197
330
191
100
AcDbEntity
  8
A-DOOR
370
     9
100
AcDbCircle
 10
18.00000000000001
 20
2.999999999999386
 30
0.0
 40
36.0
100
AcDbArc
 50
90.00000000000012
 51
180.4999999999995
1001
REVIT
1002
{
1070
     1
1000
5157038
1002
}
1002
{
1070
     5
1000
4450563
1002
}
1002
{
1070
     3
1000
636535
1002
}
  0
LINE
  5
199
330
191
100
AcDbEntity
  8
A-DOOR-FRAM
100
AcDbLine
 10
-17.99999999999988
 20
3.00000000000004
 30
0.0
 11
-20.00000000000011
 21
3.000000000000047
 31
0.0
1001
REVIT
1002
{
1070
     1
1000
5157038
1002
}
1002
{
1070
     5
1000
4450563
1002
}
1002
{
1070
     3
1000
-2000029
1002
}
  0
LINE
  5
19A
330
191
100
AcDbEntity
  8
A-DOOR-FRAM
100
AcDbLine
 10
-20.00000000000011
 20
3.000000000000047
 30
0.0
 11
-20.00000000000013
 21
-2.999999999999936
 31
0.0
1001
REVIT
1002
{
1070
     1
1000
5157038
1002
}
1002
{
1070
     5
1000
4450563
1002
}
1002
{
1070
     3
1000
-2000029
1002
}
  0
LINE
  5
19B
330
191
100
AcDbEntity
  8
A-DOOR-FRAM
100
AcDbLine
 10
-20.00000000000013
 20
-2.999999999999936
 30
0.0
 11
-17.9999999999999
 21
-2.999999999999943
 31
0.0
1001
REVIT
1002
{
1070
     1
1000
5157038
1002
}
1002
{
1070
     5
1000
4450563
1002
}
1002
{
1070
     3
1000
-2000029
1002
}
  0
LINE
  5
19C
330
191
100
AcDbEntity
  8
A-DOOR-FRAM
100
AcDbLine
 10
-17.9999999999999
 20
-2.999999999999943
 30
0.0
 11
-17.99999999999989
 21
-0.7499999999997674
 31
0.0
1001
REVIT
1002
{
1070
     1
1000
5157038
1002
}
1002
{
1070
     5
1000
4450563
1002
}
1002
{
1070
     3
1000
-2000029
1002
}
  0
LINE
  5
19D
330
191
100
AcDbEntity
  8
A-DOOR-FRAM
100
AcDbLine
 10
-17.99999999999989
 20
-0.7499999999997674
 30
0.0
 11
-17.49999999999991
 21
-0.7499999999997672
 31
0.0
1001
REVIT
1002
{
1070
     1
1000
5157038
1002
}
1002
{
1070
     5
1000
4450563
1002
}
1002
{
1070
     3
1000
-2000029
1002
}
  0
LINE
  5
19E
330
191
100
AcDbEntity
  8
A-DOOR-FRAM
100
AcDbLine
 10
-17.49999999999991
 20
-0.7499999999997672
 30
0.0
 11
-17.4999999999999
 21
1.250000000000289
 31
0.0
1001
REVIT
1002
{
1070
     1
1000
5157038
1002
}
1002
{
1070
     5
1000
4450563
1002
}
1002
{
1070
     3
1000
-2000029
1002
}
  0
LINE
  5
19F
330
191
100
AcDbEntity
  8
A-DOOR-FRAM
100
AcDbLine
 10
-17.4999999999999
 20
1.250000000000289
 30
0.0
 11
-17.99999999999988
 21
1.250000000000291
 31
0.0
1001
REVIT
1002
{
1070
     1
1000
5157038
1002
}
1002
{
1070
     5
1000
4450563
1002
}
1002
{
1070
     3
1000
-2000029
1002
}
  0
LINE
  5
1A0
330
191
100
AcDbEntity
  8
A-DOOR-FRAM
100
AcDbLine
 10
-17.99999999999988
 20
1.250000000000291
 30
0.0
 11
-17.99999999999988
 21
3.00000000000004
 31
0.0
1001
REVIT
1002
{
1070
     1
1000
5157038
1002
}
1002
{
1070
     5
1000
4450563
1002
}
1002
{
1070
     3
1000
-2000029
1002
}
  0
LINE
  5
1A1
330
191
100
AcDbEntity
  8
A-DOOR-FRAM
100
AcDbLine
 10
20.00000000000001
 20
2.999999999999918
 30
0.0
 11
18.00000000000007
 21
2.999999999999925
 31
0.0
1001
REVIT
1002
{
1070
     1
1000
5157038
1002
}
1002
{
1070
     5
1000
4450563
1002
}
1002
{
1070
     3
1000
-2000029
1002
}
  0
LINE
  5
1A2
330
191
100
AcDbEntity
  8
A-DOOR-FRAM
100
AcDbLine
 10
18.00000000000007
 20
2.999999999999925
 30
0.0
 11
18.00000000000007
 21
1.250000000000171
 31
0.0
1001
REVIT
1002
{
1070
     1
1000
5157038
1002
}
1002
{
1070
     5
1000
4450563
1002
}
1002
{
1070
     3
1000
-2000029
1002
}
  0
LINE
  5
1A3
330
191
100
AcDbEntity
  8
A-DOOR-FRAM
100
AcDbLine
 10
18.00000000000007
 20
1.250000000000171
 30
0.0
 11
17.49999999999995
 21
1.250000000000172
 31
0.0
1001
REVIT
1002
{
1070
     1
1000
5157038
1002
}
1002
{
1070
     5
1000
4450563
1002
}
1002
{
1070
     3
1000
-2000029
1002
}
  0
LINE
  5
1A4
330
191
100
AcDbEntity
  8
A-DOOR-FRAM
100
AcDbLine
 10
17.49999999999995
 20
1.250000000000172
 30
0.0
 11
17.49999999999995
 21
-0.74999999999988
 31
0.0
1001
REVIT
1002
{
1070
     1
1000
5157038
1002
}
1002
{
1070
     5
1000
4450563
1002
}
1002
{
1070
     3
1000
-2000029
1002
}
  0
LINE
  5
1A5
330
191
100
AcDbEntity
  8
A-DOOR-FRAM
100
AcDbLine
 10
17.49999999999995
 20
-0.74999999999988
 30
0.0
 11
18.00000000000007
 21
-0.7499999999998814
 31
0.0
1001
REVIT
1002
{
1070
     1
1000
5157038
1002
}
1002
{
1070
     5
1000
4450563
1002
}
1002
{
1070
     3
1000
-2000029
1002
}
  0
LINE
  5
1A6
330
191
100
AcDbEntity
  8
A-DOOR-FRAM
100
AcDbLine
 10
18.00000000000007
 20
-0.7499999999998814
 30
0.0
 11
18.00000000000006
 21
-3.000000000000059
 31
0.0
1001
REVIT
1002
{
1070
     1
1000
5157038
1002
}
1002
{
1070
     5
1000
4450563
1002
}
1002
{
1070
     3
1000
-2000029
1002
}
  0
LINE
  5
1A7
330
191
100
AcDbEntity
  8
A-DOOR-FRAM
100
AcDbLine
 10
18.00000000000006
 20
-3.000000000000059
 30
0.0
 11
19.99999999999999
 21
-3.000000000000066
 31
0.0
1001
REVIT
1002
{
1070
     1
1000
5157038
1002
}
1002
{
1070
     5
1000
4450563
1002
}
1002
{
1070
     3
1000
-2000029
1002
}
  0
LINE
  5
1A8
330
191
100
AcDbEntity
  8
A-DOOR-FRAM
100
AcDbLine
 10
19.99999999999999
 20
-3.000000000000066
 30
0.0
 11
20.00000000000001
 21
2.999999999999918
 31
0.0
1001
REVIT
1002
{
1070
     1
1000
5157038
1002
}
1002
{
1070
     5
1000
4450563
1002
}
1002
{
1070
     3
1000
-2000029
1002
}
  0
LINE
  5
1A9
330
191
100
AcDbEntity
  8
A-DOOR
370
    25
100
AcDbLine
 10
17.99999999999993
 20
38.99999999999938
 30
0.0
 11
16.24999999999993
 21
38.99999999999938
 31
0.0
1001
REVIT
1002
{
1070
     1
1000
5157038
1002
}
1002
{
1070
     5
1000
4450563
1002
}
  0
LINE
  5
1AA
330
191
100
AcDbEntity
  8
A-DOOR
370
    25
100
AcDbLine
 10
18.0
 20
2.999999999999383
 30
0.0
 11
17.99999999999993
 21
38.99999999999938
 31
0.0
1001
REVIT
1002
{
1070
     1
1000
5157038
1002
}
1002
{
1070
     5
1000
4450563
1002
}
  0
LINE
  5
1AB
330
191
100
AcDbEntity
  8
A-DOOR
370
    25
100
AcDbLine
 10
16.24999999999993
 20
38.99999999999938
 30
0.0
 11
16.25
 21
2.999999999999381
 31
0.0
1001
REVIT
1002
{
1070
     1
1000
5157038
1002
}
1002
{
1070
     5
1000
4450563
1002
}
  0
LINE
  5
1AC
330
191
100
AcDbEntity
  8
A-DOOR
370
    25
100
AcDbLine
 10
18.0
 20
2.999999999999383
 30
0.0
 11
16.25
 21
2.999999999999381
 31
0.0
1001
REVIT
1002
{
1070
     1
1000
5157038
1002
}
1002
{
1070
     5
1000
4450563
1002
}
  0
ARC
  5
1AD
330
191
100
AcDbEntity
  8
A-DOOR
370
     9
100
AcDbCircle
 10
18.0
 20
2.999999999999386
 30
0.0
 40
36.0
100
AcDbArc
 50
90.00000000000012
 51
180.4999999999968
1001
REVIT
1002
{
1070
     1
1000
5157038
1002
}
1002
{
1070
     5
1000
4450563
1002
}
1002
{
1070
     3
1000
636535
1002
}
  0
ARC
  5
1AE
330
191
100
AcDbEntity
  8
A-DOOR
370
     9
100
AcDbCircle
 10
18.0
 20
2.999999999999386
 30
0.0
 40
36.0
100
AcDbArc
 50
90.00000000000012
 51
180.4999999999962
1001
REVIT
1002
{
1070
     1
1000
5157038
1002
}
1002
{
1070
     5
1000
4450563
1002
}
1002
{
1070
     3
1000
636535
1002
}
  0
ENDBLK
  5
1B0
330
191
100
AcDbEntity
  8
0
100
AcDbBlockEnd
  0
BLOCK
  5
1D0
330
1B3
100
AcDbEntity
  8
0
100
AcDbBlockBegin
  2
Door-Single_CE_ - HM Door-2_ HM Frame-5137074-LEVEL 2 Map Export
 70
     0
 10
0.0
 20
0.0
 30
0.0
  3
Door-Single_CE_ - HM Door-2_ HM Frame-5137074-LEVEL 2 Map Export
  1

  0
ARC
  5
1B4
330
1B3
100
AcDbEntity
  8
A-DOOR
370
     9
100
AcDbCircle
 10
18.0000000000032
 20
-2.999999999999463
 30
0.0
 40
36.0
100
AcDbArc
 50
179.5000000000001
 51
269.9999999999995
1001
REVIT
1002
{
1070
     1
1000
5158147
1002
}
1002
{
1070
     5
1000
4450563
1002
}
1002
{
1070
     3
1000
636535
1002
}
  0
LINE
  5
1B5
330
1B3
100
AcDbEntity
  8
A-DOOR
100
AcDbLine
 10
18.00000000000001
 20
-2.999999999999383
 30
0.0
 11
17.99999999999995
 21
-38.99999999999938
 31
0.0
1001
REVIT
1002
{
1070
     1
1000
5158147
1002
}
1002
{
1070
     5
1000
4450563
1002
}
1002
{
1070
     3
1000
-2000025
1002
}
  0
LINE
  5
1B6
330
1B3
100
AcDbEntity
  8
A-DOOR
100
AcDbLine
 10
17.99999999999995
 20
-38.99999999999938
 30
0.0
 11
16.24999999999995
 21
-38.99999999999938
 31
0.0
1001
REVIT
1002
{
1070
     1
1000
5158147
1002
}
1002
{
1070
     5
1000
4450563
1002
}
1002
{
1070
     3
1000
-2000025
1002
}
  0
LINE
  5
1B7
330
1B3
100
AcDbEntity
  8
A-DOOR
100
AcDbLine
 10
16.24999999999995
 20
-38.99999999999938
 30
0.0
 11
16.25000000000001
 21
-2.999999999999381
 31
0.0
1001
REVIT
1002
{
1070
     1
1000
5158147
1002
}
1002
{
1070
     5
1000
4450563
1002
}
1002
{
1070
     3
1000
-2000025
1002
}
  0
LINE
  5
1B8
330
1B3
100
AcDbEntity
  8
A-DOOR
100
AcDbLine
 10
16.25000000000001
 20
-2.99999999999938
 30
0.0
 11
18.00000000000001
 21
-2.999999999999383
 31
0.0
1001
REVIT
1002
{
1070
     1
1000
5158147
1002
}
1002
{
1070
     5
1000
4450563
1002
}
1002
{
1070
     3
1000
-2000025
1002
}
  0
ARC
  5
1B9
330
1B3
100
AcDbEntity
  8
A-DOOR
370
     9
100
AcDbCircle
 10
18.00000000000001
 20
-2.999999999999386
 30
0.0
 40
36.0
100
AcDbArc
 50
179.5000000000001
 51
269.9999999999995
1001
REVIT
1002
{
1070
     1
1000
5158147
1002
}
1002
{
1070
     5
1000
4450563
1002
}
1002
{
1070
     3
1000
636535
1002
}
  0
LINE
  5
1BA
330
1B3
100
AcDbEntity
  8
A-DOOR-FRAM
100
AcDbLine
 10
19.99999999999999
 20
3.000000000000066
 30
0.0
 11
20.00000000000001
 21
-2.999999999999918
 31
0.0
1001
REVIT
1002
{
1070
     1
1000
5158147
1002
}
1002
{
1070
     5
1000
4450563
1002
}
1002
{
1070
     3
1000
-2000029
1002
}
  0
LINE
  5
1BB
330
1B3
100
AcDbEntity
  8
A-DOOR-FRAM
100
AcDbLine
 10
18.00000000000006
 20
3.000000000000059
 30
0.0
 11
19.99999999999999
 21
3.000000000000066
 31
0.0
1001
REVIT
1002
{
1070
     1
1000
5158147
1002
}
1002
{
1070
     5
1000
4450563
1002
}
1002
{
1070
     3
1000
-2000029
1002
}
  0
LINE
  5
1BC
330
1B3
100
AcDbEntity
  8
A-DOOR-FRAM
100
AcDbLine
 10
18.00000000000007
 20
0.7499999999998814
 30
0.0
 11
18.00000000000006
 21
3.000000000000059
 31
0.0
1001
REVIT
1002
{
1070
     1
1000
5158147
1002
}
1002
{
1070
     5
1000
4450563
1002
}
1002
{
1070
     3
1000
-2000029
1002
}
  0
LINE
  5
1BD
330
1B3
100
AcDbEntity
  8
A-DOOR-FRAM
100
AcDbLine
 10
17.49999999999995
 20
0.74999999999988
 30
0.0
 11
18.00000000000007
 21
0.7499999999998814
 31
0.0
1001
REVIT
1002
{
1070
     1
1000
5158147
1002
}
1002
{
1070
     5
1000
4450563
1002
}
1002
{
1070
     3
1000
-2000029
1002
}
  0
LINE
  5
1BE
330
1B3
100
AcDbEntity
  8
A-DOOR-FRAM
100
AcDbLine
 10
17.49999999999995
 20
-1.250000000000172
 30
0.0
 11
17.49999999999995
 21
0.74999999999988
 31
0.0
1001
REVIT
1002
{
1070
     1
1000
5158147
1002
}
1002
{
1070
     5
1000
4450563
1002
}
1002
{
1070
     3
1000
-2000029
1002
}
  0
LINE
  5
1BF
330
1B3
100
AcDbEntity
  8
A-DOOR-FRAM
100
AcDbLine
 10
18.00000000000007
 20
-1.250000000000171
 30
0.0
 11
17.49999999999995
 21
-1.250000000000172
 31
0.0
1001
REVIT
1002
{
1070
     1
1000
5158147
1002
}
1002
{
1070
     5
1000
4450563
1002
}
1002
{
1070
     3
1000
-2000029
1002
}
  0
LINE
  5
1C0
330
1B3
100
AcDbEntity
  8
A-DOOR-FRAM
100
AcDbLine
 10
18.00000000000007
 20
-2.999999999999925
 30
0.0
 11
18.00000000000007
 21
-1.250000000000171
 31
0.0
1001
REVIT
1002
{
1070
     1
1000
5158147
1002
}
1002
{
1070
     5
1000
4450563
1002
}
1002
{
1070
     3
1000
-2000029
1002
}
  0
LINE
  5
1C1
330
1B3
100
AcDbEntity
  8
A-DOOR-FRAM
100
AcDbLine
 10
20.00000000000001
 20
-2.999999999999918
 30
0.0
 11
18.00000000000007
 21
-2.999999999999925
 31
0.0
1001
REVIT
1002
{
1070
     1
1000
5158147
1002
}
1002
{
1070
     5
1000
4450563
1002
}
1002
{
1070
     3
1000
-2000029
1002
}
  0
LINE
  5
1C2
330
1B3
100
AcDbEntity
  8
A-DOOR-FRAM
100
AcDbLine
 10
-17.99999999999988
 20
-1.250000000000291
 30
0.0
 11
-17.99999999999988
 21
-3.00000000000004
 31
0.0
1001
REVIT
1002
{
1070
     1
1000
5158147
1002
}
1002
{
1070
     5
1000
4450563
1002
}
1002
{
1070
     3
1000
-2000029
1002
}
  0
LINE
  5
1C3
330
1B3
100
AcDbEntity
  8
A-DOOR-FRAM
100
AcDbLine
 10
-17.4999999999999
 20
-1.250000000000289
 30
0.0
 11
-17.99999999999988
 21
-1.250000000000291
 31
0.0
1001
REVIT
1002
{
1070
     1
1000
5158147
1002
}
1002
{
1070
     5
1000
4450563
1002
}
1002
{
1070
     3
1000
-2000029
1002
}
  0
LINE
  5
1C4
330
1B3
100
AcDbEntity
  8
A-DOOR-FRAM
100
AcDbLine
 10
-17.49999999999991
 20
0.7499999999997672
 30
0.0
 11
-17.4999999999999
 21
-1.250000000000289
 31
0.0
1001
REVIT
1002
{
1070
     1
1000
5158147
1002
}
1002
{
1070
     5
1000
4450563
1002
}
1002
{
1070
     3
1000
-2000029
1002
}
  0
LINE
  5
1C5
330
1B3
100
AcDbEntity
  8
A-DOOR-FRAM
100
AcDbLine
 10
-17.99999999999989
 20
0.7499999999997674
 30
0.0
 11
-17.49999999999991
 21
0.7499999999997672
 31
0.0
1001
REVIT
1002
{
1070
     1
1000
5158147
1002
}
1002
{
1070
     5
1000
4450563
1002
}
1002
{
1070
     3
1000
-2000029
1002
}
  0
LINE
  5
1C6
330
1B3
100
AcDbEntity
  8
A-DOOR-FRAM
100
AcDbLine
 10
-17.9999999999999
 20
2.999999999999943
 30
0.0
 11
-17.99999999999989
 21
0.7499999999997674
 31
0.0
1001
REVIT
1002
{
1070
     1
1000
5158147
1002
}
1002
{
1070
     5
1000
4450563
1002
}
1002
{
1070
     3
1000
-2000029
1002
}
  0
LINE
  5
1C7
330
1B3
100
AcDbEntity
  8
A-DOOR-FRAM
100
AcDbLine
 10
-20.00000000000013
 20
2.999999999999936
 30
0.0
 11
-17.9999999999999
 21
2.999999999999943
 31
0.0
1001
REVIT
1002
{
1070
     1
1000
5158147
1002
}
1002
{
1070
     5
1000
4450563
1002
}
1002
{
1070
     3
1000
-2000029
1002
}
  0
LINE
  5
1C8
330
1B3
100
AcDbEntity
  8
A-DOOR-FRAM
100
AcDbLine
 10
-20.00000000000011
 20
-3.000000000000047
 30
0.0
 11
-20.00000000000013
 21
2.999999999999936
 31
0.0
1001
REVIT
1002
{
1070
     1
1000
5158147
1002
}
1002
{
1070
     5
1000
4450563
1002
}
1002
{
1070
     3
1000
-2000029
1002
}
  0
LINE
  5
1C9
330
1B3
100
AcDbEntity
  8
A-DOOR-FRAM
100
AcDbLine
 10
-17.99999999999988
 20
-3.00000000000004
 30
0.0
 11
-20.00000000000011
 21
-3.000000000000047
 31
0.0
1001
REVIT
1002
{
1070
     1
1000
5158147
1002
}
1002
{
1070
     5
1000
4450563
1002
}
1002
{
1070
     3
1000
-2000029
1002
}
  0
LINE
  5
1CA
330
1B3
100
AcDbEntity
  8
A-DOOR
370
    25
100
AcDbLine
 10
17.99999999999993
 20
-38.99999999999938
 30
0.0
 11
16.24999999999993
 21
-38.99999999999938
 31
0.0
1001
REVIT
1002
{
1070
     1
1000
5158147
1002
}
1002
{
1070
     5
1000
4450563
1002
}
  0
LINE
  5
1CB
330
1B3
100
AcDbEntity
  8
A-DOOR
370
    25
100
AcDbLine
 10
18.0
 20
-2.999999999999383
 30
0.0
 11
17.99999999999993
 21
-38.99999999999938
 31
0.0
1001
REVIT
1002
{
1070
     1
1000
5158147
1002
}
1002
{
1070
     5
1000
4450563
1002
}
  0
LINE
  5
1CC
330
1B3
100
AcDbEntity
  8
A-DOOR
370
    25
100
AcDbLine
 10
16.24999999999993
 20
-38.99999999999938
 30
0.0
 11
16.25
 21
-2.999999999999381
 31
0.0
1001
REVIT
1002
{
1070
     1
1000
5158147
1002
}
1002
{
1070
     5
1000
4450563
1002
}
  0
LINE
  5
1CD
330
1B3
100
AcDbEntity
  8
A-DOOR
370
    25
100
AcDbLine
 10
18.0
 20
-2.999999999999383
 30
0.0
 11
16.25
 21
-2.999999999999381
 31
0.0
1001
REVIT
1002
{
1070
     1
1000
5158147
1002
}
1002
{
1070
     5
1000
4450563
1002
}
  0
ARC
  5
1CE
330
1B3
100
AcDbEntity
  8
A-DOOR
370
     9
100
AcDbCircle
 10
18.0
 20
-2.999999999999386
 30
0.0
 40
36.0
100
AcDbArc
 50
179.5000000000028
 51
269.9999999999995
1001
REVIT
1002
{
1070
     1
1000
5158147
1002
}
1002
{
1070
     5
1000
4450563
1002
}
1002
{
1070
     3
1000
636535
1002
}
  0
ARC
  5
1CF
330
1B3
100
AcDbEntity
  8
A-DOOR
370
     9
100
AcDbCircle
 10
18.0
 20
-2.999999999999386
 30
0.0
 40
36.0
100
AcDbArc
 50
179.5000000000034
 51
269.9999999999995
1001
REVIT
1002
{
1070
     1
1000
5158147
1002
}
1002
{
1070
     5
1000
4450563
1002
}
1002
{
1070
     3
1000
636535
1002
}
  0
ENDBLK
  5
1D1
330
1B3
100
AcDbEntity
  8
0
100
AcDbBlockEnd
  0
BLOCK
  5
1EE
330
1E8
100
AcDbEntity
  8
0
100
AcDbBlockBegin
  2
Railing - Railing-5163119-LEVEL 2 Map Export
 70
     0
 10
0.0
 20
0.0
 30
0.0
  3
Railing - Railing-5163119-LEVEL 2 Map Export
  1

  0
LINE
  5
1E9
330
1E8
100
AcDbEntity
  8
A-FLOR-HRAL
100
AcDbLine
 10
485.1251853058548
 20
23.44612040107235
 30
0.0
 11
483.1251853058548
 21
23.44612040107235
 31
0.0
1001
REVIT
1002
{
1070
     1
1000
5163118
1002
}
1002
{
1070
     5
1000
1969
1002
}
1002
{
1070
     3
1000
-2000128
1002
}
  0
LINE
  5
1EA
330
1E8
100
AcDbEntity
  8
A-FLOR-HRAL
100
AcDbLine
 10
485.1251853058551
 20
210.4461204010723
 30
0.0
 11
485.1251853058549
 21
61.83925742266692
 31
0.0
1001
REVIT
1002
{
1070
     1
1000
5163118
1002
}
1002
{
1070
     5
1000
1969
1002
}
1002
{
1070
     3
1000
-2000128
1002
}
  0
LINE
  5
1EB
330
1E8
100
AcDbEntity
  8
A-FLOR-HRAL
100
AcDbLine
 10
485.1251853058549
 20
56.83925742266684
 30
0.0
 11
485.1251853058548
 21
23.44612040107235
 31
0.0
1001
REVIT
1002
{
1070
     1
1000
5163118
1002
}
1002
{
1070
     5
1000
1969
1002
}
1002
{
1070
     3
1000
-2000128
1002
}
  0
LINE
  5
1EC
330
1E8
100
AcDbEntity
  8
A-FLOR-HRAL
100
AcDbLine
 10
483.125185305855
 20
210.4461204010723
 30
0.0
 11
483.1251853058549
 21
61.83925742266692
 31
0.0
1001
REVIT
1002
{
1070
     1
1000
5163118
1002
}
1002
{
1070
     5
1000
1969
1002
}
1002
{
1070
     3
1000
-2000128
1002
}
  0
LINE
  5
1ED
330
1E8
100
AcDbEntity
  8
A-FLOR-HRAL
100
AcDbLine
 10
483.1251853058549
 20
56.83925742266684
 30
0.0
 11
483.1251853058548
 21
23.44612040107235
 31
0.0
1001
REVIT
1002
{
1070
     1
1000
5163118
1002
}
1002
{
1070
     5
1000
1969
1002
}
1002
{
1070
     3
1000
-2000128
1002
}
  0
ENDBLK
  5
1EF
330
1E8
100
AcDbEntity
  8
0
100
AcDbBlockEnd
  0
BLOCK
  5
1F7
330
1F1
100
AcDbEntity
  8
0
100
AcDbBlockBegin
  2
Railing - Railing-5163123-LEVEL 2 Map Export
 70
     0
 10
0.0
 20
0.0
 30
0.0
  3
Railing - Railing-5163123-LEVEL 2 Map Export
  1

  0
LINE
  5
1F2
330
1F1
100
AcDbEntity
  8
A-FLOR-HRAL
100
AcDbLine
 10
519.1251853058548
 20
23.44612040107241
 30
0.0
 11
517.1251853058548
 21
23.44612040107241
 31
0.0
1001
REVIT
1002
{
1070
     1
1000
5163122
1002
}
1002
{
1070
     5
1000
1969
1002
}
1002
{
1070
     3
1000
-2000128
1002
}
  0
LINE
  5
1F3
330
1F1
100
AcDbEntity
  8
A-FLOR-HRAL
100
AcDbLine
 10
519.1251853058551
 20
210.4461204010724
 30
0.0
 11
519.1251853058548
 21
61.83925742266707
 31
0.0
1001
REVIT
1002
{
1070
     1
1000
5163122
1002
}
1002
{
1070
     5
1000
1969
1002
}
1002
{
1070
     3
1000
-2000128
1002
}
  0
LINE
  5
1F4
330
1F1
100
AcDbEntity
  8
A-FLOR-HRAL
100
AcDbLine
 10
519.1251853058548
 20
56.83925742266699
 30
0.0
 11
519.1251853058548
 21
23.44612040107241
 31
0.0
1001
REVIT
1002
{
1070
     1
1000
5163122
1002
}
1002
{
1070
     5
1000
1969
1002
}
1002
{
1070
     3
1000
-2000128
1002
}
  0
LINE
  5
1F5
330
1F1
100
AcDbEntity
  8
A-FLOR-HRAL
100
AcDbLine
 10
517.1251853058549
 20
210.4461204010724
 30
0.0
 11
517.1251853058548
 21
61.83925742266707
 31
0.0
1001
REVIT
1002
{
1070
     1
1000
5163122
1002
}
1002
{
1070
     5
1000
1969
1002
}
1002
{
1070
     3
1000
-2000128
1002
}
  0
LINE
  5
1F6
330
1F1
100
AcDbEntity
  8
A-FLOR-HRAL
100
AcDbLine
 10
517.1251853058548
 20
56.83925742266699
 30
0.0
 11
517.1251853058548
 21
23.44612040107241
 31
0.0
1001
REVIT
1002
{
1070
     1
1000
5163122
1002
}
1002
{
1070
     5
1000
1969
1002
}
1002
{
1070
     3
1000
-2000128
1002
}
  0
ENDBLK
  5
1F8
330
1F1
100
AcDbEntity
  8
0
100
AcDbBlockEnd
  0
ENDSEC
  0
SECTION
  2
ENTITIES
  0
LINE
  5
8C
330
70
100
AcDbEntity
  8
S-STRS
100
AcDbLine
 10
561.6251853058574
 20
864.839257422667
 30
0.0
 11
561.6251853058574
 21
862.8392574226669
 31
0.0
1001
REVIT
1002
{
1070
     1
1000
5139211
1002
}
1002
{
1070
     5
1000
44989
1002
}
1002
{
1070
     2
1000
-2000120
1002
}
1002
{
1070
     3
1000
-2000952
1002
}
  0
LINE
  5
8D
330
70
100
AcDbEntity
  8
S-STRS
100
AcDbLine
 10
669.6251853058574
 20
864.839257422667
 30
0.0
 11
561.6251853058574
 21
864.839257422667
 31
0.0
1001
REVIT
1002
{
1070
     1
1000
5139211
1002
}
1002
{
1070
     5
1000
44989
1002
}
1002
{
1070
     2
1000
-2000120
1002
}
1002
{
1070
     3
1000
-2000952
1002
}
  0
LINE
  5
8E
330
70
100
AcDbEntity
  8
S-STRS
100
AcDbLine
 10
561.6251853058574
 20
826.839257422667
 30
0.0
 11
561.6251853058574
 21
824.8392574226668
 31
0.0
1001
REVIT
1002
{
1070
     1
1000
5139211
1002
}
1002
{
1070
     5
1000
44989
1002
}
1002
{
1070
     2
1000
-2000120
1002
}
1002
{
1070
     3
1000
-2000952
1002
}
  0
LINE
  5
8F
330
70
100
AcDbEntity
  8
S-STRS
100
AcDbLine
 10
681.6762326301701
 20
824.8392574226668
 30
0.0
 11
561.6251853058574
 21
824.8392574226668
 31
0.0
1001
REVIT
1002
{
1070
     1
1000
5139211
1002
}
1002
{
1070
     5
1000
44989
1002
}
1002
{
1070
     2
1000
-2000120
1002
}
1002
{
1070
     3
1000
-2000952
1002
}
  0
LINE
  5
90
330
70
100
AcDbEntity
  8
S-STRS
100
AcDbLine
 10
669.6251853058572
 20
873.5507347915506
 30
0.0
 11
669.6251853058574
 21
864.839257422667
 31
0.0
1001
REVIT
1002
{
1070
     1
1000
5139211
1002
}
1002
{
1070
     5
1000
44989
1002
}
1002
{
1070
     2
1000
-2000120
1002
}
1002
{
1070
     3
1000
-2000952
1002
}
  0
LINE
  5
91
330
70
100
AcDbEntity
  8
S-STRS
100
AcDbLine
 10
709.6251853058571
 20
913.5507347915508
 30
0.0
 11
672.5741379815445
 21
913.5507347915508
 31
0.0
1001
REVIT
1002
{
1070
     1
1000
5139211
1002
}
1002
{
1070
     5
1000
44989
1002
}
1002
{
1070
     2
1000
-2000120
1002
}
1002
{
1070
     3
1000
-2000952
1002
}
  0
LINE
  5
92
330
70
100
AcDbEntity
  8
S-STRS
100
AcDbLine
 10
709.6251853058573
 20
824.8392574226668
 30
0.0
 11
709.6251853058571
 21
913.5507347915508
 31
0.0
1001
REVIT
1002
{
1070
     1
1000
5139211
1002
}
1002
{
1070
     5
1000
44989
1002
}
1002
{
1070
     2
1000
-2000120
1002
}
1002
{
1070
     3
1000
-2000952
1002
}
  0
LINE
  5
93
330
70
100
AcDbEntity
  8
S-STRS
100
AcDbLine
 10
681.6762326301701
 20
824.8392574226668
 30
0.0
 11
709.6251853058573
 21
824.8392574226668
 31
0.0
1001
REVIT
1002
{
1070
     1
1000
5139211
1002
}
1002
{
1070
     5
1000
44989
1002
}
1002
{
1070
     2
1000
-2000120
1002
}
1002
{
1070
     3
1000
-2000952
1002
}
  0
LINE
  5
94
330
70
100
AcDbEntity
  8
S-STRS
100
AcDbLine
 10
561.6251853058572
 20
875.5507347915507
 30
0.0
 11
561.6251853058572
 21
873.5507347915506
 31
0.0
1001
REVIT
1002
{
1070
     1
1000
5139211
1002
}
1002
{
1070
     5
1000
44989
1002
}
1002
{
1070
     2
1000
-2000120
1002
}
1002
{
1070
     3
1000
-2000952
1002
}
  0
LINE
  5
95
330
70
100
AcDbEntity
  8
S-STRS
100
AcDbLine
 10
561.6251853058572
 20
873.5507347915506
 30
0.0
 11
669.6251853058574
 21
873.5507347915506
 31
0.0
1001
REVIT
1002
{
1070
     1
1000
5139211
1002
}
1002
{
1070
     5
1000
44989
1002
}
1002
{
1070
     2
1000
-2000120
1002
}
1002
{
1070
     3
1000
-2000952
1002
}
  0
LINE
  5
96
330
70
100
AcDbEntity
  8
S-STRS
100
AcDbLine
 10
561.6251853058572
 20
913.5507347915508
 30
0.0
 11
561.6251853058572
 21
911.5507347915508
 31
0.0
1001
REVIT
1002
{
1070
     1
1000
5139211
1002
}
1002
{
1070
     5
1000
44989
1002
}
1002
{
1070
     2
1000
-2000120
1002
}
1002
{
1070
     3
1000
-2000952
1002
}
  0
LINE
  5
97
330
70
100
AcDbEntity
  8
S-STRS
100
AcDbLine
 10
561.6251853058572
 20
913.5507347915508
 30
0.0
 11
672.5741379815445
 21
913.5507347915508
 31
0.0
1001
REVIT
1002
{
1070
     1
1000
5139211
1002
}
1002
{
1070
     5
1000
44989
1002
}
1002
{
1070
     2
1000
-2000120
1002
}
1002
{
1070
     3
1000
-2000952
1002
}
  0
LINE
  5
98
330
70
100
AcDbEntity
  8
S-STRS
100
AcDbLine
 10
561.6251853058574
 20
828.8392574226667
 30
0.0
 11
561.6251853058574
 21
860.839257422667
 31
0.0
1001
REVIT
1002
{
1070
     1
1000
5139211
1002
}
1002
{
1070
     5
1000
44989
1002
}
1002
{
1070
     2
1000
-2000120
1002
}
1002
{
1070
     3
1000
-2000934
1002
}
  0
LINE
  5
99
330
70
100
AcDbEntity
  8
S-STRS
100
AcDbLine
 10
671.6251853058572
 20
828.8392574226667
 30
0.0
 11
671.6251853058572
 21
860.839257422667
 31
0.0
1001
REVIT
1002
{
1070
     1
1000
5139211
1002
}
1002
{
1070
     5
1000
44989
1002
}
1002
{
1070
     2
1000
-2000120
1002
}
1002
{
1070
     3
1000
-2000934
1002
}
  0
LINE
  5
9A
330
70
100
AcDbEntity
  8
S-STRS
100
AcDbLine
 10
671.6251853058572
 20
909.5507347915509
 30
0.0
 11
671.6251853058572
 21
877.5507347915507
 31
0.0
1001
REVIT
1002
{
1070
     1
1000
5139211
1002
}
1002
{
1070
     5
1000
44989
1002
}
1002
{
1070
     2
1000
-2000120
1002
}
1002
{
1070
     3
1000
-2000934
1002
}
  0
LINE
  5
9B
330
70
100
AcDbEntity
  8
S-STRS
100
AcDbLine
 10
561.6251853058572
 20
909.5507347915509
 30
0.0
 11
561.6251853058572
 21
877.5507347915507
 31
0.0
1001
REVIT
1002
{
1070
     1
1000
5139211
1002
}
1002
{
1070
     5
1000
44989
1002
}
1002
{
1070
     2
1000
-2000120
1002
}
1002
{
1070
     3
1000
-2000934
1002
}
  0
LINE
  5
9C
330
70
100
AcDbEntity
  8
S-STRS
100
AcDbLine
 10
572.6251853058573
 20
828.8392574226667
 30
0.0
 11
572.6251853058573
 21
860.839257422667
 31
0.0
1001
REVIT
1002
{
1070
     1
1000
5139211
1002
}
1002
{
1070
     5
1000
44989
1002
}
1002
{
1070
     2
1000
-2000120
1002
}
1002
{
1070
     3
1000
-2000932
1002
}
  0
LINE
  5
9D
330
70
100
AcDbEntity
  8
S-STRS
100
AcDbLine
 10
583.6251853058572
 20
828.8392574226667
 30
0.0
 11
583.6251853058572
 21
860.839257422667
 31
0.0
1001
REVIT
1002
{
1070
     1
1000
5139211
1002
}
1002
{
1070
     5
1000
44989
1002
}
1002
{
1070
     2
1000
-2000120
1002
}
1002
{
1070
     3
1000
-2000932
1002
}
  0
LINE
  5
9E
330
70
100
AcDbEntity
  8
S-STRS
100
AcDbLine
 10
594.6251853058574
 20
828.8392574226667
 30
0.0
 11
594.6251853058574
 21
860.839257422667
 31
0.0
1001
REVIT
1002
{
1070
     1
1000
5139211
1002
}
1002
{
1070
     5
1000
44989
1002
}
1002
{
1070
     2
1000
-2000120
1002
}
1002
{
1070
     3
1000
-2000932
1002
}
  0
LINE
  5
9F
330
70
100
AcDbEntity
  8
S-STRS
100
AcDbLine
 10
605.6251853058572
 20
828.8392574226667
 30
0.0
 11
605.6251853058572
 21
860.839257422667
 31
0.0
1001
REVIT
1002
{
1070
     1
1000
5139211
1002
}
1002
{
1070
     5
1000
44989
1002
}
1002
{
1070
     2
1000
-2000120
1002
}
1002
{
1070
     3
1000
-2000932
1002
}
  0
LINE
  5
A0
330
70
100
AcDbEntity
  8
S-STRS
100
AcDbLine
 10
616.6251853058573
 20
828.8392574226667
 30
0.0
 11
616.6251853058573
 21
860.839257422667
 31
0.0
1001
REVIT
1002
{
1070
     1
1000
5139211
1002
}
1002
{
1070
     5
1000
44989
1002
}
1002
{
1070
     2
1000
-2000120
1002
}
1002
{
1070
     3
1000
-2000932
1002
}
  0
LINE
  5
A1
330
70
100
AcDbEntity
  8
S-STRS
100
AcDbLine
 10
627.6251853058574
 20
828.8392574226667
 30
0.0
 11
627.6251853058574
 21
860.839257422667
 31
0.0
1001
REVIT
1002
{
1070
     1
1000
5139211
1002
}
1002
{
1070
     5
1000
44989
1002
}
1002
{
1070
     2
1000
-2000120
1002
}
1002
{
1070
     3
1000
-2000932
1002
}
  0
LINE
  5
A2
330
70
100
AcDbEntity
  8
S-STRS
100
AcDbLine
 10
638.6251853058572
 20
828.8392574226667
 30
0.0
 11
638.6251853058572
 21
860.839257422667
 31
0.0
1001
REVIT
1002
{
1070
     1
1000
5139211
1002
}
1002
{
1070
     5
1000
44989
1002
}
1002
{
1070
     2
1000
-2000120
1002
}
1002
{
1070
     3
1000
-2000932
1002
}
  0
LINE
  5
A3
330
70
100
AcDbEntity
  8
S-STRS
100
AcDbLine
 10
649.6251853058573
 20
828.8392574226667
 30
0.0
 11
649.6251853058573
 21
860.839257422667
 31
0.0
1001
REVIT
1002
{
1070
     1
1000
5139211
1002
}
1002
{
1070
     5
1000
44989
1002
}
1002
{
1070
     2
1000
-2000120
1002
}
1002
{
1070
     3
1000
-2000932
1002
}
  0
LINE
  5
A4
330
70
100
AcDbEntity
  8
S-STRS
100
AcDbLine
 10
660.6251853058573
 20
828.8392574226667
 30
0.0
 11
660.6251853058573
 21
860.839257422667
 31
0.0
1001
REVIT
1002
{
1070
     1
1000
5139211
1002
}
1002
{
1070
     5
1000
44989
1002
}
1002
{
1070
     2
1000
-2000120
1002
}
1002
{
1070
     3
1000
-2000932
1002
}
  0
LINE
  5
A5
330
70
100
AcDbEntity
  8
S-STRS
100
AcDbLine
 10
660.6251853058572
 20
909.5507347915509
 30
0.0
 11
660.6251853058572
 21
877.5507347915507
 31
0.0
1001
REVIT
1002
{
1070
     1
1000
5139211
1002
}
1002
{
1070
     5
1000
44989
1002
}
1002
{
1070
     2
1000
-2000120
1002
}
1002
{
1070
     3
1000
-2000932
1002
}
  0
LINE
  5
A6
330
70
100
AcDbEntity
  8
S-STRS
100
AcDbLine
 10
649.6251853058573
 20
909.5507347915509
 30
0.0
 11
649.6251853058573
 21
877.5507347915507
 31
0.0
1001
REVIT
1002
{
1070
     1
1000
5139211
1002
}
1002
{
1070
     5
1000
44989
1002
}
1002
{
1070
     2
1000
-2000120
1002
}
1002
{
1070
     3
1000
-2000932
1002
}
  0
LINE
  5
A7
330
70
100
AcDbEntity
  8
S-STRS
100
AcDbLine
 10
638.6251853058572
 20
909.5507347915509
 30
0.0
 11
638.6251853058572
 21
877.5507347915507
 31
0.0
1001
REVIT
1002
{
1070
     1
1000
5139211
1002
}
1002
{
1070
     5
1000
44989
1002
}
1002
{
1070
     2
1000
-2000120
1002
}
1002
{
1070
     3
1000
-2000932
1002
}
  0
LINE
  5
A8
330
70
100
AcDbEntity
  8
S-STRS
100
AcDbLine
 10
627.6251853058572
 20
909.5507347915509
 30
0.0
 11
627.6251853058572
 21
877.5507347915507
 31
0.0
1001
REVIT
1002
{
1070
     1
1000
5139211
1002
}
1002
{
1070
     5
1000
44989
1002
}
1002
{
1070
     2
1000
-2000120
1002
}
1002
{
1070
     3
1000
-2000932
1002
}
  0
LINE
  5
A9
330
70
100
AcDbEntity
  8
S-STRS
100
AcDbLine
 10
616.6251853058573
 20
909.5507347915509
 30
0.0
 11
616.6251853058573
 21
877.5507347915507
 31
0.0
1001
REVIT
1002
{
1070
     1
1000
5139211
1002
}
1002
{
1070
     5
1000
44989
1002
}
1002
{
1070
     2
1000
-2000120
1002
}
1002
{
1070
     3
1000
-2000932
1002
}
  0
LINE
  5
AA
330
70
100
AcDbEntity
  8
S-STRS
100
AcDbLine
 10
605.6251853058572
 20
909.5507347915509
 30
0.0
 11
605.6251853058572
 21
877.5507347915507
 31
0.0
1001
REVIT
1002
{
1070
     1
1000
5139211
1002
}
1002
{
1070
     5
1000
44989
1002
}
1002
{
1070
     2
1000
-2000120
1002
}
1002
{
1070
     3
1000
-2000932
1002
}
  0
LINE
  5
AB
330
70
100
AcDbEntity
  8
S-STRS
100
AcDbLine
 10
594.6251853058572
 20
909.5507347915509
 30
0.0
 11
594.6251853058572
 21
877.5507347915507
 31
0.0
1001
REVIT
1002
{
1070
     1
1000
5139211
1002
}
1002
{
1070
     5
1000
44989
1002
}
1002
{
1070
     2
1000
-2000120
1002
}
1002
{
1070
     3
1000
-2000932
1002
}
  0
LINE
  5
AC
330
70
100
AcDbEntity
  8
S-STRS
100
AcDbLine
 10
583.6251853058572
 20
909.5507347915509
 30
0.0
 11
583.6251853058572
 21
877.5507347915507
 31
0.0
1001
REVIT
1002
{
1070
     1
1000
5139211
1002
}
1002
{
1070
     5
1000
44989
1002
}
1002
{
1070
     2
1000
-2000120
1002
}
1002
{
1070
     3
1000
-2000932
1002
}
  0
LINE
  5
AD
330
70
100
AcDbEntity
  8
S-STRS
100
AcDbLine
 10
572.6251853058572
 20
909.5507347915509
 30
0.0
 11
572.6251853058572
 21
877.5507347915507
 31
0.0
1001
REVIT
1002
{
1070
     1
1000
5139211
1002
}
1002
{
1070
     5
1000
44989
1002
}
1002
{
1070
     2
1000
-2000120
1002
}
1002
{
1070
     3
1000
-2000932
1002
}
  0
INSERT
  5
BA
330
70
100
AcDbEntity
  8
A-FLOR-HRAL
100
AcDbBlockReference
  2
Railing - Railing-5139451-LEVEL 2 Map Export
 10
0.0
 20
0.0
 30
0.0
1001
REVIT
1002
{
1070
     1
1000
5139450
1002
}
1002
{
1070
     5
1000
1969
1002
}
1002
{
1070
     2
1000
-2000126
1002
}
1002
{
1070
     3
1000
-2000128
1002
}
  0
INSERT
  5
CA
330
70
100
AcDbEntity
  8
A-FLOR-HRAL
100
AcDbBlockReference
  2
Railing - Railing-5139455-LEVEL 2 Map Export
 10
0.0
 20
0.0
 30
0.0
1001
REVIT
1002
{
1070
     1
1000
5139454
1002
}
1002
{
1070
     5
1000
1969
1002
}
1002
{
1070
     2
1000
-2000126
1002
}
1002
{
1070
     3
1000
-2000128
1002
}
  0
LINE
  5
CB
330
70
100
AcDbEntity
  8
A-WALL
370
    40
100
AcDbLine
 10
955.6251853058576
 20
915.839257422667
 30
0.0
 11
955.6251853058574
 21
859.8392574226664
 31
0.0
1001
REVIT
1002
{
1070
     1
1000
5146261
1002
}
1002
{
1070
     5
1000
639164
1002
}
1002
{
1070
     2
1000
-2000011
1002
}
  0
LINE
  5
CC
330
70
100
AcDbEntity
  8
A-WALL
370
    40
100
AcDbLine
 10
955.6251853058574
 20
859.8392574226664
 30
0.0
 11
967.6251853058573
 21
859.8392574226664
 31
0.0
1001
REVIT
1002
{
1070
     1
1000
5146261
1002
}
1002
{
1070
     5
1000
639164
1002
}
1002
{
1070
     2
1000
-2000011
1002
}
  0
LINE
  5
CD
330
70
100
AcDbEntity
  8
A-WALL
370
    40
100
AcDbLine
 10
967.6251853058573
 20
859.8392574226664
 30
0.0
 11
967.6251853058575
 21
927.8392574226668
 31
0.0
1001
REVIT
1002
{
1070
     1
1000
5146261
1002
}
1002
{
1070
     5
1000
639164
1002
}
1002
{
1070
     2
1000
-2000011
1002
}
  0
LINE
  5
CF
330
70
100
AcDbEntity
  8
A-WALL
370
    40
100
AcDbLine
 10
955.6251853058574
 20
823.8392574226665
 30
0.0
 11
955.6251853058572
 21
754.8392574226665
 31
0.0
1001
REVIT
1002
{
1070
     1
1000
5146261
1002
}
1002
{
1070
     5
1000
639164
1002
}
1002
{
1070
     2
1000
-2000011
1002
}
  0
LINE
  5
D0
330
70
100
AcDbEntity
  8
A-WALL
370
    40
100
AcDbLine
 10
955.6251853058572
 20
754.8392574226665
 30
0.0
 11
967.6251853058571
 21
754.8392574226665
 31
0.0
1001
REVIT
1002
{
1070
     1
1000
5146261
1002
}
1002
{
1070
     5
1000
639164
1002
}
1002
{
1070
     2
1000
-2000011
1002
}
  0
LINE
  5
D1
330
70
100
AcDbEntity
  8
A-WALL
370
    40
100
AcDbLine
 10
967.6251853058571
 20
754.8392574226665
 30
0.0
 11
967.6251853058573
 21
823.8392574226665
 31
0.0
1001
REVIT
1002
{
1070
     1
1000
5146261
1002
}
1002
{
1070
     5
1000
639164
1002
}
1002
{
1070
     2
1000
-2000011
1002
}
  0
LINE
  5
D2
330
70
100
AcDbEntity
  8
A-WALL
370
    40
100
AcDbLine
 10
967.6251853058573
 20
823.8392574226665
 30
0.0
 11
955.6251853058574
 21
823.8392574226665
 31
0.0
1001
REVIT
1002
{
1070
     1
1000
5146261
1002
}
1002
{
1070
     5
1000
639164
1002
}
1002
{
1070
     2
1000
-2000011
1002
}
  0
LINE
  5
D3
330
70
100
AcDbEntity
  8
A-WALL
370
    40
100
AcDbLine
 10
955.6251853058572
 20
718.8392574226667
 30
0.0
 11
955.6251853058572
 21
649.8392574226668
 31
0.0
1001
REVIT
1002
{
1070
     1
1000
5146261
1002
}
1002
{
1070
     5
1000
639164
1002
}
1002
{
1070
     2
1000
-2000011
1002
}
  0
LINE
  5
D4
330
70
100
AcDbEntity
  8
A-WALL
370
    40
100
AcDbLine
 10
955.6251853058572
 20
649.8392574226668
 30
0.0
 11
967.6251853058571
 21
649.8392574226668
 31
0.0
1001
REVIT
1002
{
1070
     1
1000
5146261
1002
}
1002
{
1070
     5
1000
639164
1002
}
1002
{
1070
     2
1000
-2000011
1002
}
  0
LINE
  5
D5
330
70
100
AcDbEntity
  8
A-WALL
370
    40
100
AcDbLine
 10
967.6251853058571
 20
649.8392574226668
 30
0.0
 11
967.6251853058571
 21
718.8392574226667
 31
0.0
1001
REVIT
1002
{
1070
     1
1000
5146261
1002
}
1002
{
1070
     5
1000
639164
1002
}
1002
{
1070
     2
1000
-2000011
1002
}
  0
LINE
  5
D6
330
70
100
AcDbEntity
  8
A-WALL
370
    40
100
AcDbLine
 10
967.6251853058571
 20
718.8392574226667
 30
0.0
 11
955.6251853058572
 21
718.8392574226667
 31
0.0
1001
REVIT
1002
{
1070
     1
1000
5146261
1002
}
1002
{
1070
     5
1000
639164
1002
}
1002
{
1070
     2
1000
-2000011
1002
}
  0
LINE
  5
D7
330
70
100
AcDbEntity
  8
A-WALL
370
    40
100
AcDbLine
 10
955.625185305857
 20
613.8392574226668
 30
0.0
 11
955.625185305857
 21
544.839257422667
 31
0.0
1001
REVIT
1002
{
1070
     1
1000
5146261
1002
}
1002
{
1070
     5
1000
639164
1002
}
1002
{
1070
     2
1000
-2000011
1002
}
  0
LINE
  5
D8
330
70
100
AcDbEntity
  8
A-WALL
370
    40
100
AcDbLine
 10
955.625185305857
 20
544.839257422667
 30
0.0
 11
967.625185305857
 21
544.839257422667
 31
0.0
1001
REVIT
1002
{
1070
     1
1000
5146261
1002
}
1002
{
1070
     5
1000
639164
1002
}
1002
{
1070
     2
1000
-2000011
1002
}
  0
LINE
  5
D9
330
70
100
AcDbEntity
  8
A-WALL
370
    40
100
AcDbLine
 10
967.625185305857
 20
544.839257422667
 30
0.0
 11
967.625185305857
 21
613.8392574226668
 31
0.0
1001
REVIT
1002
{
1070
     1
1000
5146261
1002
}
1002
{
1070
     5
1000
639164
1002
}
1002
{
1070
     2
1000
-2000011
1002
}
  0
LINE
  5
DA
330
70
100
AcDbEntity
  8
A-WALL
370
    40
100
AcDbLine
 10
967.625185305857
 20
613.8392574226668
 30
0.0
 11
955.625185305857
 21
613.8392574226668
 31
0.0
1001
REVIT
1002
{
1070
     1
1000
5146261
1002
}
1002
{
1070
     5
1000
639164
1002
}
1002
{
1070
     2
1000
-2000011
1002
}
  0
LINE
  5
DB
330
70
100
AcDbEntity
  8
A-WALL
370
    40
100
AcDbLine
 10
955.6251853058569
 20
508.8392574226671
 30
0.0
 11
955.6251853058569
 21
494.8392574226669
 31
0.0
1001
REVIT
1002
{
1070
     1
1000
5146261
1002
}
1002
{
1070
     5
1000
639164
1002
}
1002
{
1070
     2
1000
-2000011
1002
}
  0
LINE
  5
DC
330
70
100
AcDbEntity
  8
A-WALL
370
    40
100
AcDbLine
 10
955.6251853058569
 20
489.839257422667
 30
0.0
 11
955.6251853058569
 21
447.839257422667
 31
0.0
1001
REVIT
1002
{
1070
     1
1000
5146261
1002
}
1002
{
1070
     5
1000
639164
1002
}
1002
{
1070
     2
1000
-2000011
1002
}
  0
LINE
  5
DD
330
70
100
AcDbEntity
  8
A-WALL
370
    40
100
AcDbLine
 10
955.6251853058569
 20
447.839257422667
 30
0.0
 11
967.625185305857
 21
447.839257422667
 31
0.0
1001
REVIT
1002
{
1070
     1
1000
5146261
1002
}
1002
{
1070
     5
1000
639164
1002
}
1002
{
1070
     2
1000
-2000011
1002
}
  0
LINE
  5
DE
330
70
100
AcDbEntity
  8
A-WALL
370
    40
100
AcDbLine
 10
967.625185305857
 20
447.839257422667
 30
0.0
 11
967.625185305857
 21
508.8392574226671
 31
0.0
1001
REVIT
1002
{
1070
     1
1000
5146261
1002
}
1002
{
1070
     5
1000
639164
1002
}
1002
{
1070
     2
1000
-2000011
1002
}
  0
LINE
  5
DF
330
70
100
AcDbEntity
  8
A-WALL
370
    40
100
AcDbLine
 10
967.625185305857
 20
508.8392574226671
 30
0.0
 11
955.6251853058569
 21
508.8392574226671
 31
0.0
1001
REVIT
1002
{
1070
     1
1000
5146261
1002
}
1002
{
1070
     5
1000
639164
1002
}
1002
{
1070
     2
1000
-2000011
1002
}
  0
LINE
  5
E0
330
70
100
AcDbEntity
  8
A-WALL
370
    40
100
AcDbLine
 10
955.6251853058567
 20
411.8392574226669
 30
0.0
 11
955.6251853058567
 21
342.8392574226669
 31
0.0
1001
REVIT
1002
{
1070
     1
1000
5146261
1002
}
1002
{
1070
     5
1000
639164
1002
}
1002
{
1070
     2
1000
-2000011
1002
}
  0
LINE
  5
E1
330
70
100
AcDbEntity
  8
A-WALL
370
    40
100
AcDbLine
 10
955.6251853058567
 20
342.8392574226669
 30
0.0
 11
967.6251853058566
 21
342.8392574226669
 31
0.0
1001
REVIT
1002
{
1070
     1
1000
5146261
1002
}
1002
{
1070
     5
1000
639164
1002
}
1002
{
1070
     2
1000
-2000011
1002
}
  0
LINE
  5
E2
330
70
100
AcDbEntity
  8
A-WALL
370
    40
100
AcDbLine
 10
967.6251853058566
 20
342.8392574226669
 30
0.0
 11
967.6251853058566
 21
411.8392574226669
 31
0.0
1001
REVIT
1002
{
1070
     1
1000
5146261
1002
}
1002
{
1070
     5
1000
639164
1002
}
1002
{
1070
     2
1000
-2000011
1002
}
  0
LINE
  5
E3
330
70
100
AcDbEntity
  8
A-WALL
370
    40
100
AcDbLine
 10
967.6251853058566
 20
411.8392574226669
 30
0.0
 11
955.6251853058567
 21
411.8392574226669
 31
0.0
1001
REVIT
1002
{
1070
     1
1000
5146261
1002
}
1002
{
1070
     5
1000
639164
1002
}
1002
{
1070
     2
1000
-2000011
1002
}
  0
LINE
  5
E4
330
70
100
AcDbEntity
  8
A-WALL
370
    40
100
AcDbLine
 10
955.6251853058565
 20
306.8392574226669
 30
0.0
 11
955.6251853058565
 21
237.839257422667
 31
0.0
1001
REVIT
1002
{
1070
     1
1000
5146261
1002
}
1002
{
1070
     5
1000
639164
1002
}
1002
{
1070
     2
1000
-2000011
1002
}
  0
LINE
  5
E5
330
70
100
AcDbEntity
  8
A-WALL
370
    40
100
AcDbLine
 10
955.6251853058565
 20
237.839257422667
 30
0.0
 11
967.6251853058566
 21
237.839257422667
 31
0.0
1001
REVIT
1002
{
1070
     1
1000
5146261
1002
}
1002
{
1070
     5
1000
639164
1002
}
1002
{
1070
     2
1000
-2000011
1002
}
  0
LINE
  5
E6
330
70
100
AcDbEntity
  8
A-WALL
370
    40
100
AcDbLine
 10
967.6251853058566
 20
237.839257422667
 30
0.0
 11
967.6251853058566
 21
306.8392574226669
 31
0.0
1001
REVIT
1002
{
1070
     1
1000
5146261
1002
}
1002
{
1070
     5
1000
639164
1002
}
1002
{
1070
     2
1000
-2000011
1002
}
  0
LINE
  5
E7
330
70
100
AcDbEntity
  8
A-WALL
370
    40
100
AcDbLine
 10
967.6251853058566
 20
306.8392574226669
 30
0.0
 11
955.6251853058565
 21
306.8392574226669
 31
0.0
1001
REVIT
1002
{
1070
     1
1000
5146261
1002
}
1002
{
1070
     5
1000
639164
1002
}
1002
{
1070
     2
1000
-2000011
1002
}
  0
LINE
  5
E8
330
70
100
AcDbEntity
  8
A-WALL
370
    40
100
AcDbLine
 10
955.6251853058565
 20
201.839257422667
 30
0.0
 11
955.6251853058562
 21
-11.16074257733295
 31
0.0
1001
REVIT
1002
{
1070
     1
1000
5146261
1002
}
1002
{
1070
     5
1000
639164
1002
}
1002
{
1070
     2
1000
-2000011
1002
}
  0
LINE
  5
EA
330
70
100
AcDbEntity
  8
A-WALL
370
    40
100
AcDbLine
 10
967.6251853058563
 20
-4.160742577332867
 30
0.0
 11
967.6251853058566
 21
201.839257422667
 31
0.0
1001
REVIT
1002
{
1070
     1
1000
5146261
1002
}
1002
{
1070
     5
1000
639164
1002
}
1002
{
1070
     2
1000
-2000011
1002
}
  0
LINE
  5
EB
330
70
100
AcDbEntity
  8
A-WALL
370
    40
100
AcDbLine
 10
967.6251853058566
 20
201.839257422667
 30
0.0
 11
955.6251853058565
 21
201.839257422667
 31
0.0
1001
REVIT
1002
{
1070
     1
1000
5146261
1002
}
1002
{
1070
     5
1000
639164
1002
}
1002
{
1070
     2
1000
-2000011
1002
}
  0
LINE
  5
EC
330
70
100
AcDbEntity
  8
A-WALL
100
AcDbLine
 10
955.6251853058565
 20
201.839257422667
 30
0.0
 11
955.6251853058565
 21
237.839257422667
 31
0.0
1001
REVIT
1002
{
1070
     1
1000
5146261
1002
}
1002
{
1070
     5
1000
639164
1002
}
1002
{
1070
     2
1000
-2000011
1002
}
  0
LINE
  5
ED
330
70
100
AcDbEntity
  8
A-WALL
100
AcDbLine
 10
955.6251853058565
 20
306.8392574226669
 30
0.0
 11
955.6251853058567
 21
342.8392574226669
 31
0.0
1001
REVIT
1002
{
1070
     1
1000
5146261
1002
}
1002
{
1070
     5
1000
639164
1002
}
1002
{
1070
     2
1000
-2000011
1002
}
  0
LINE
  5
EE
330
70
100
AcDbEntity
  8
A-WALL
100
AcDbLine
 10
955.6251853058567
 20
411.8392574226669
 30
0.0
 11
955.6251853058569
 21
447.839257422667
 31
0.0
1001
REVIT
1002
{
1070
     1
1000
5146261
1002
}
1002
{
1070
     5
1000
639164
1002
}
1002
{
1070
     2
1000
-2000011
1002
}
  0
LINE
  5
EF
330
70
100
AcDbEntity
  8
A-WALL
100
AcDbLine
 10
955.6251853058569
 20
508.8392574226671
 30
0.0
 11
955.625185305857
 21
544.839257422667
 31
0.0
1001
REVIT
1002
{
1070
     1
1000
5146261
1002
}
1002
{
1070
     5
1000
639164
1002
}
1002
{
1070
     2
1000
-2000011
1002
}
  0
LINE
  5
F0
330
70
100
AcDbEntity
  8
A-WALL
100
AcDbLine
 10
955.625185305857
 20
613.8392574226668
 30
0.0
 11
955.6251853058572
 21
649.8392574226668
 31
0.0
1001
REVIT
1002
{
1070
     1
1000
5146261
1002
}
1002
{
1070
     5
1000
639164
1002
}
1002
{
1070
     2
1000
-2000011
1002
}
  0
LINE
  5
F1
330
70
100
AcDbEntity
  8
A-WALL
100
AcDbLine
 10
955.6251853058572
 20
718.8392574226667
 30
0.0
 11
955.6251853058572
 21
754.8392574226665
 31
0.0
1001
REVIT
1002
{
1070
     1
1000
5146261
1002
}
1002
{
1070
     5
1000
639164
1002
}
1002
{
1070
     2
1000
-2000011
1002
}
  0
LINE
  5
F2
330
70
100
AcDbEntity
  8
A-WALL
100
AcDbLine
 10
955.6251853058574
 20
823.8392574226665
 30
0.0
 11
955.6251853058574
 21
859.8392574226664
 31
0.0
1001
REVIT
1002
{
1070
     1
1000
5146261
1002
}
1002
{
1070
     5
1000
639164
1002
}
1002
{
1070
     2
1000
-2000011
1002
}
  0
LINE
  5
F3
330
70
100
AcDbEntity
  8
A-WALL
100
AcDbLine
 10
967.6251853058573
 20
859.8392574226664
 30
0.0
 11
967.6251853058573
 21
823.8392574226665
 31
0.0
1001
REVIT
1002
{
1070
     1
1000
5146261
1002
}
1002
{
1070
     5
1000
639164
1002
}
1002
{
1070
     2
1000
-2000011
1002
}
  0
LINE
  5
F4
330
70
100
AcDbEntity
  8
A-WALL
100
AcDbLine
 10
967.6251853058571
 20
754.8392574226665
 30
0.0
 11
967.6251853058571
 21
718.8392574226667
 31
0.0
1001
REVIT
1002
{
1070
     1
1000
5146261
1002
}
1002
{
1070
     5
1000
639164
1002
}
1002
{
1070
     2
1000
-2000011
1002
}
  0
LINE
  5
F5
330
70
100
AcDbEntity
  8
A-WALL
100
AcDbLine
 10
967.6251853058571
 20
649.8392574226668
 30
0.0
 11
967.625185305857
 21
613.8392574226668
 31
0.0
1001
REVIT
1002
{
1070
     1
1000
5146261
1002
}
1002
{
1070
     5
1000
639164
1002
}
1002
{
1070
     2
1000
-2000011
1002
}
  0
LINE
  5
F6
330
70
100
AcDbEntity
  8
A-WALL
100
AcDbLine
 10
967.625185305857
 20
544.839257422667
 30
0.0
 11
967.625185305857
 21
508.8392574226671
 31
0.0
1001
REVIT
1002
{
1070
     1
1000
5146261
1002
}
1002
{
1070
     5
1000
639164
1002
}
1002
{
1070
     2
1000
-2000011
1002
}
  0
LINE
  5
F7
330
70
100
AcDbEntity
  8
A-WALL
100
AcDbLine
 10
967.625185305857
 20
447.839257422667
 30
0.0
 11
967.6251853058566
 21
411.8392574226669
 31
0.0
1001
REVIT
1002
{
1070
     1
1000
5146261
1002
}
1002
{
1070
     5
1000
639164
1002
}
1002
{
1070
     2
1000
-2000011
1002
}
  0
LINE
  5
F8
330
70
100
AcDbEntity
  8
A-WALL
100
AcDbLine
 10
967.6251853058566
 20
342.8392574226669
 30
0.0
 11
967.6251853058566
 21
306.8392574226669
 31
0.0
1001
REVIT
1002
{
1070
     1
1000
5146261
1002
}
1002
{
1070
     5
1000
639164
1002
}
1002
{
1070
     2
1000
-2000011
1002
}
  0
LINE
  5
F9
330
70
100
AcDbEntity
  8
A-WALL
100
AcDbLine
 10
967.6251853058566
 20
237.839257422667
 30
0.0
 11
967.6251853058566
 21
201.839257422667
 31
0.0
1001
REVIT
1002
{
1070
     1
1000
5146261
1002
}
1002
{
1070
     5
1000
639164
1002
}
1002
{
1070
     2
1000
-2000011
1002
}
  0
LINE
  5
FA
330
70
100
AcDbEntity
  8
A-WALL
370
    40
100
AcDbLine
 10
955.6251853058562
 20
-16.16074257733288
 30
0.0
 11
1201.625185305855
 21
-16.16074257733283
 31
0.0
1001
REVIT
1002
{
1070
     1
1000
5146354
1002
}
1002
{
1070
     5
1000
639164
1002
}
1002
{
1070
     2
1000
-2000011
1002
}
  0
LINE
  5
FC
330
70
100
AcDbEntity
  8
A-WALL
370
    40
100
AcDbLine
 10
1213.625185305855
 20
-4.160742577332829
 30
0.0
 11
967.6251853058563
 21
-4.160742577332868
 31
0.0
1001
REVIT
1002
{
1070
     1
1000
5146354
1002
}
1002
{
1070
     5
1000
639164
1002
}
1002
{
1070
     2
1000
-2000011
1002
}
  0
LINE
  5
FD
330
70
100
AcDbEntity
  8
A-WALL
370
    40
100
AcDbLine
 10
1201.625185305855
 20
-16.16074257733284
 30
0.0
 11
1201.625185305854
 21
-736.1607425773331
 31
0.0
1001
REVIT
1002
{
1070
     1
1000
5146482
1002
}
1002
{
1070
     5
1000
639164
1002
}
1002
{
1070
     2
1000
-2000011
1002
}
  0
LINE
  5
FF
330
70
100
AcDbEntity
  8
A-WALL
370
    40
100
AcDbLine
 10
1213.625185305854
 20
-748.1607425773331
 30
0.0
 11
1213.625185305855
 21
-4.160742577332828
 31
0.0
1001
REVIT
1002
{
1070
     1
1000
5146482
1002
}
1002
{
1070
     5
1000
639164
1002
}
1002
{
1070
     2
1000
-2000011
1002
}
  0
LINE
  5
100
330
70
100
AcDbEntity
  8
A-WALL
370
    40
100
AcDbLine
 10
1201.625185305854
 20
-736.1607425773331
 30
0.0
 11
481.6251853058538
 21
-736.1607425773345
 31
0.0
1001
REVIT
1002
{
1070
     1
1000
5146594
1002
}
1002
{
1070
     5
1000
639164
1002
}
1002
{
1070
     2
1000
-2000011
1002
}
  0
LINE
  5
102
330
70
100
AcDbEntity
  8
A-WALL
370
    40
100
AcDbLine
 10
469.6251853058539
 20
-748.1607425773345
 30
0.0
 11
1213.625185305854
 21
-748.1607425773331
 31
0.0
1001
REVIT
1002
{
1070
     1
1000
5146594
1002
}
1002
{
1070
     5
1000
639164
1002
}
1002
{
1070
     2
1000
-2000011
1002
}
  0
LINE
  5
103
330
70
100
AcDbEntity
  8
A-WALL
370
    40
100
AcDbLine
 10
481.6251853058538
 20
-736.1607425773343
 30
0.0
 11
481.6251853058542
 21
-477.160742577333
 31
0.0
1001
REVIT
1002
{
1070
     1
1000
5146913
1002
}
1002
{
1070
     5
1000
639164
1002
}
1002
{
1070
     2
1000
-2000011
1002
}
  0
LINE
  5
104
330
70
100
AcDbEntity
  8
A-WALL
370
    40
100
AcDbLine
 10
481.6251853058543
 20
-472.160742577333
 30
0.0
 11
481.6251853058545
 21
-280.1607425773331
 31
0.0
1001
REVIT
1002
{
1070
     1
1000
5146913
1002
}
1002
{
1070
     5
1000
639164
1002
}
1002
{
1070
     2
1000
-2000011
1002
}
  0
LINE
  5
105
330
70
100
AcDbEntity
  8
A-WALL
370
    40
100
AcDbLine
 10
481.6251853058545
 20
-275.1607425773331
 30
0.0
 11
481.6251853058549
 21
-16.16074257733288
 31
0.0
1001
REVIT
1002
{
1070
     1
1000
5146913
1002
}
1002
{
1070
     5
1000
639164
1002
}
1002
{
1070
     2
1000
-2000011
1002
}
  0
LINE
  5
106
330
70
100
AcDbEntity
  8
A-WALL
370
    40
100
AcDbLine
 10
481.6251853058549
 20
-11.16074257733299
 30
0.0
 11
481.625185305855
 21
56.83925742266697
 31
0.0
1001
REVIT
1002
{
1070
     1
1000
5146913
1002
}
1002
{
1070
     5
1000
639164
1002
}
1002
{
1070
     2
1000
-2000011
1002
}
  0
LINE
  5
107
330
70
100
AcDbEntity
  8
A-WALL
370
    40
100
AcDbLine
 10
481.625185305855
 20
61.83925742266696
 30
0.0
 11
481.6251853058552
 21
210.4461204010724
 31
0.0
1001
REVIT
1002
{
1070
     1
1000
5146913
1002
}
1002
{
1070
     5
1000
639164
1002
}
1002
{
1070
     2
1000
-2000011
1002
}
  0
LINE
  5
108
330
70
100
AcDbEntity
  8
A-WALL
370
    40
100
AcDbLine
 10
481.6251853058552
 20
215.4461204010724
 30
0.0
 11
481.6251853058556
 21
489.8392574226669
 31
0.0
1001
REVIT
1002
{
1070
     1
1000
5146913
1002
}
1002
{
1070
     5
1000
639164
1002
}
1002
{
1070
     2
1000
-2000011
1002
}
  0
LINE
  5
109
330
70
100
AcDbEntity
  8
A-WALL
370
    40
100
AcDbLine
 10
481.6251853058556
 20
494.8392574226669
 30
0.0
 11
481.6251853058559
 21
711.8392574226669
 31
0.0
1001
REVIT
1002
{
1070
     1
1000
5146913
1002
}
1002
{
1070
     5
1000
639164
1002
}
1002
{
1070
     2
1000
-2000011
1002
}
  0
LINE
  5
10A
330
70
100
AcDbEntity
  8
A-WALL
370
    40
100
AcDbLine
 10
481.6251853058559
 20
716.8392574226669
 30
0.0
 11
481.6251853058562
 21
915.8392574226668
 31
0.0
1001
REVIT
1002
{
1070
     1
1000
5146913
1002
}
1002
{
1070
     5
1000
639164
1002
}
1002
{
1070
     2
1000
-2000011
1002
}
  0
LINE
  5
10C
330
70
100
AcDbEntity
  8
A-WALL
370
    40
100
AcDbLine
 10
469.6251853058562
 20
927.8392574226669
 30
0.0
 11
469.6251853058539
 21
-748.1607425773345
 31
0.0
1001
REVIT
1002
{
1070
     1
1000
5146913
1002
}
1002
{
1070
     5
1000
639164
1002
}
1002
{
1070
     2
1000
-2000011
1002
}
  0
LINE
  5
10D
330
70
100
AcDbEntity
  8
A-WALL
370
    40
100
AcDbLine
 10
481.6251853058562
 20
915.8392574226668
 30
0.0
 11
712.6251853058576
 21
915.8392574226668
 31
0.0
1001
REVIT
1002
{
1070
     1
1000
5147014
1002
}
1002
{
1070
     5
1000
639164
1002
}
1002
{
1070
     2
1000
-2000011
1002
}
  0
LINE
  5
10E
330
70
100
AcDbEntity
  8
A-WALL
370
    40
100
AcDbLine
 10
717.6251853058577
 20
915.8392574226668
 30
0.0
 11
955.6251853058576
 21
915.8392574226668
 31
0.0
1001
REVIT
1002
{
1070
     1
1000
5147014
1002
}
1002
{
1070
     5
1000
639164
1002
}
1002
{
1070
     2
1000
-2000011
1002
}
  0
LINE
  5
10F
330
70
100
AcDbEntity
  8
A-WALL
370
    40
100
AcDbLine
 10
967.6251853058575
 20
927.8392574226668
 30
0.0
 11
469.6251853058562
 21
927.8392574226669
 31
0.0
1001
REVIT
1002
{
1070
     1
1000
5147014
1002
}
1002
{
1070
     5
1000
639164
1002
}
1002
{
1070
     2
1000
-2000011
1002
}
  0
LINE
  5
110
330
70
100
AcDbEntity
  8
I-WALL
370
    40
100
AcDbLine
 10
955.6251853058562
 20
-11.16074257733295
 30
0.0
 11
481.6251853058549
 21
-11.16074257733302
 31
0.0
1001
REVIT
1002
{
1070
     1
1000
5147199
1002
}
1002
{
1070
     5
1000
639165
1002
}
1002
{
1070
     2
1000
-2000011
1002
}
  0
LINE
  5
111
330
70
100
AcDbEntity
  8
I-WALL
370
    40
100
AcDbLine
 10
481.6251853058549
 20
-16.16074257733302
 30
0.0
 11
955.6251853058562
 21
-16.16074257733295
 31
0.0
1001
REVIT
1002
{
1070
     1
1000
5147199
1002
}
1002
{
1070
     5
1000
639165
1002
}
1002
{
1070
     2
1000
-2000011
1002
}
  0
LINE
  5
112
330
70
100
AcDbEntity
  8
I-WALL
100
AcDbLine
 10
600.6251853058565
 20
195.3392574226669
 30
0.0
 11
955.6251853058565
 21
195.339257422667
 31
0.0
1001
REVIT
1002
{
1070
     1
1000
5147552
1002
}
1002
{
1070
     5
1000
639165
1002
}
1002
{
1070
     2
1000
-2000011
1002
}
  0
LINE
  5
113
330
70
100
AcDbEntity
  8
I-WALL
100
AcDbLine
 10
955.6251853058563
 20
190.339257422667
 30
0.0
 11
595.6251853058565
 21
190.3392574226669
 31
0.0
1001
REVIT
1002
{
1070
     1
1000
5147552
1002
}
1002
{
1070
     5
1000
639165
1002
}
1002
{
1070
     2
1000
-2000011
1002
}
  0
LINE
  5
116
330
70
100
AcDbEntity
  8
I-WALL
100
AcDbLine
 10
600.625185305857
 20
489.8392574226669
 30
0.0
 11
600.6251853058565
 21
195.3392574226669
 31
0.0
1001
REVIT
1002
{
1070
     1
1000
5147634
1002
}
1002
{
1070
     5
1000
639165
1002
}
1002
{
1070
     2
1000
-2000011
1002
}
  0
LINE
  5
117
330
70
100
AcDbEntity
  8
I-WALL
100
AcDbLine
 10
595.6251853058565
 20
190.3392574226669
 30
0.0
 11
595.625185305857
 21
489.8392574226669
 31
0.0
1001
REVIT
1002
{
1070
     1
1000
5147634
1002
}
1002
{
1070
     5
1000
639165
1002
}
1002
{
1070
     2
1000
-2000011
1002
}
  0
LINE
  5
119
330
70
100
AcDbEntity
  8
I-WALL
370
    40
100
AcDbLine
 10
955.6251853058569
 20
494.8392574226669
 30
0.0
 11
717.625185305857
 21
494.8392574226669
 31
0.0
1001
REVIT
1002
{
1070
     1
1000
5148014
1002
}
1002
{
1070
     5
1000
639165
1002
}
1002
{
1070
     2
1000
-2000011
1002
}
  0
LINE
  5
11A
330
70
100
AcDbEntity
  8
I-WALL
370
    40
100
AcDbLine
 10
712.6251853058571
 20
494.8392574226669
 30
0.0
 11
481.6251853058556
 21
494.8392574226669
 31
0.0
1001
REVIT
1002
{
1070
     1
1000
5148014
1002
}
1002
{
1070
     5
1000
639165
1002
}
1002
{
1070
     2
1000
-2000011
1002
}
  0
LINE
  5
11B
330
70
100
AcDbEntity
  8
I-WALL
370
    40
100
AcDbLine
 10
481.6251853058556
 20
489.8392574226669
 30
0.0
 11
955.6251853058569
 21
489.839257422667
 31
0.0
1001
REVIT
1002
{
1070
     1
1000
5148014
1002
}
1002
{
1070
     5
1000
639165
1002
}
1002
{
1070
     2
1000
-2000011
1002
}
  0
LINE
  5
11C
330
70
100
AcDbEntity
  8
I-WALL
370
    40
100
AcDbLine
 10
712.6251853058577
 20
915.8392574226668
 30
0.0
 11
712.6251853058574
 21
816.8392574226814
 31
0.0
1001
REVIT
1002
{
1070
     1
1000
5149703
1002
}
1002
{
1070
     5
1000
639165
1002
}
1002
{
1070
     2
1000
-2000011
1002
}
  0
LINE
  5
11D
330
70
100
AcDbEntity
  8
I-WALL
370
    40
100
AcDbLine
 10
712.6251853058574
 20
816.8392574226814
 30
0.0
 11
717.6251853058574
 21
816.8392574226814
 31
0.0
1001
REVIT
1002
{
1070
     1
1000
5149703
1002
}
1002
{
1070
     5
1000
639165
1002
}
1002
{
1070
     2
1000
-2000011
1002
}
  0
LINE
  5
11E
330
70
100
AcDbEntity
  8
I-WALL
370
    40
100
AcDbLine
 10
717.6251853058574
 20
816.8392574226814
 30
0.0
 11
717.6251853058577
 21
915.8392574226668
 31
0.0
1001
REVIT
1002
{
1070
     1
1000
5149703
1002
}
1002
{
1070
     5
1000
639165
1002
}
1002
{
1070
     2
1000
-2000011
1002
}
  0
LINE
  5
11F
330
70
100
AcDbEntity
  8
I-WALL
370
    40
100
AcDbLine
 10
712.6251853058574
 20
776.8392574226813
 30
0.0
 11
712.6251853058574
 21
716.8392574226669
 31
0.0
1001
REVIT
1002
{
1070
     1
1000
5149703
1002
}
1002
{
1070
     5
1000
639165
1002
}
1002
{
1070
     2
1000
-2000011
1002
}
  0
LINE
  5
120
330
70
100
AcDbEntity
  8
I-WALL
370
    40
100
AcDbLine
 10
712.6251853058574
 20
711.839257422667
 30
0.0
 11
712.6251853058571
 21
494.8392574226669
 31
0.0
1001
REVIT
1002
{
1070
     1
1000
5149703
1002
}
1002
{
1070
     5
1000
639165
1002
}
1002
{
1070
     2
1000
-2000011
1002
}
  0
LINE
  5
121
330
70
100
AcDbEntity
  8
I-WALL
370
    40
100
AcDbLine
 10
717.625185305857
 20
494.8392574226669
 30
0.0
 11
717.6251853058574
 21
776.8392574226813
 31
0.0
1001
REVIT
1002
{
1070
     1
1000
5149703
1002
}
1002
{
1070
     5
1000
639165
1002
}
1002
{
1070
     2
1000
-2000011
1002
}
  0
LINE
  5
122
330
70
100
AcDbEntity
  8
I-WALL
370
    40
100
AcDbLine
 10
717.6251853058574
 20
776.8392574226813
 30
0.0
 11
712.6251853058574
 21
776.8392574226813
 31
0.0
1001
REVIT
1002
{
1070
     1
1000
5149703
1002
}
1002
{
1070
     5
1000
639165
1002
}
1002
{
1070
     2
1000
-2000011
1002
}
  0
LINE
  5
123
330
70
100
AcDbEntity
  8
I-WALL
370
    40
100
AcDbLine
 10
712.6251853058574
 20
716.8392574226669
 30
0.0
 11
527.6251853058706
 21
716.8392574226668
 31
0.0
1001
REVIT
1002
{
1070
     1
1000
5149921
1002
}
1002
{
1070
     5
1000
639165
1002
}
1002
{
1070
     2
1000
-2000011
1002
}
  0
LINE
  5
124
330
70
100
AcDbEntity
  8
I-WALL
370
    40
100
AcDbLine
 10
527.6251853058706
 20
716.8392574226668
 30
0.0
 11
527.6251853058706
 21
711.8392574226669
 31
0.0
1001
REVIT
1002
{
1070
     1
1000
5149921
1002
}
1002
{
1070
     5
1000
639165
1002
}
1002
{
1070
     2
1000
-2000011
1002
}
  0
LINE
  5
125
330
70
100
AcDbEntity
  8
I-WALL
370
    40
100
AcDbLine
 10
527.6251853058706
 20
711.8392574226669
 30
0.0
 11
712.6251853058574
 21
711.8392574226669
 31
0.0
1001
REVIT
1002
{
1070
     1
1000
5149921
1002
}
1002
{
1070
     5
1000
639165
1002
}
1002
{
1070
     2
1000
-2000011
1002
}
  0
LINE
  5
126
330
70
100
AcDbEntity
  8
I-WALL
370
    40
100
AcDbLine
 10
487.6251853058706
 20
716.8392574226668
 30
0.0
 11
481.6251853058559
 21
716.8392574226668
 31
0.0
1001
REVIT
1002
{
1070
     1
1000
5149921
1002
}
1002
{
1070
     5
1000
639165
1002
}
1002
{
1070
     2
1000
-2000011
1002
}
  0
LINE
  5
127
330
70
100
AcDbEntity
  8
I-WALL
370
    40
100
AcDbLine
 10
481.6251853058559
 20
711.8392574226669
 30
0.0
 11
487.6251853058706
 21
711.8392574226669
 31
0.0
1001
REVIT
1002
{
1070
     1
1000
5149921
1002
}
1002
{
1070
     5
1000
639165
1002
}
1002
{
1070
     2
1000
-2000011
1002
}
  0
LINE
  5
128
330
70
100
AcDbEntity
  8
I-WALL
370
    40
100
AcDbLine
 10
487.6251853058706
 20
711.8392574226669
 30
0.0
 11
487.6251853058706
 21
716.8392574226668
 31
0.0
1001
REVIT
1002
{
1070
     1
1000
5149921
1002
}
1002
{
1070
     5
1000
639165
1002
}
1002
{
1070
     2
1000
-2000011
1002
}
  0
LINE
  5
129
330
70
100
AcDbEntity
  8
I-WALL
370
    40
100
AcDbLine
 10
481.6251853058552
 20
210.4461204010724
 30
0.0
 11
520.6251853058549
 21
210.4461204010723
 31
0.0
1001
REVIT
1002
{
1070
     1
1000
5150118
1002
}
1002
{
1070
     5
1000
639165
1002
}
1002
{
1070
     2
1000
-2000011
1002
}
  0
LINE
  5
12B
330
70
100
AcDbEntity
  8
I-WALL
370
    40
100
AcDbLine
 10
525.6251853058549
 20
215.4461204010723
 30
0.0
 11
481.6251853058552
 21
215.4461204010724
 31
0.0
1001
REVIT
1002
{
1070
     1
1000
5150118
1002
}
1002
{
1070
     5
1000
639165
1002
}
1002
{
1070
     2
1000
-2000011
1002
}
  0
LINE
  5
12C
330
70
100
AcDbEntity
  8
I-WALL
370
    40
100
AcDbLine
 10
520.6251853058549
 20
210.4461204010724
 30
0.0
 11
520.6251853058552
 21
61.83925742266698
 31
0.0
1001
REVIT
1002
{
1070
     1
1000
5150197
1002
}
1002
{
1070
     5
1000
639165
1002
}
1002
{
1070
     2
1000
-2000011
1002
}
  0
LINE
  5
12E
330
70
100
AcDbEntity
  8
I-WALL
370
    40
100
AcDbLine
 10
525.6251853058552
 20
56.83925742266697
 30
0.0
 11
525.6251853058549
 21
215.4461204010723
 31
0.0
1001
REVIT
1002
{
1070
     1
1000
5150197
1002
}
1002
{
1070
     5
1000
639165
1002
}
1002
{
1070
     2
1000
-2000011
1002
}
  0
LINE
  5
12F
330
70
100
AcDbEntity
  8
I-WALL
370
    40
100
AcDbLine
 10
520.6251853058552
 20
61.83925742266698
 30
0.0
 11
481.6251853058551
 21
61.83925742266697
 31
0.0
1001
REVIT
1002
{
1070
     1
1000
5150248
1002
}
1002
{
1070
     5
1000
639165
1002
}
1002
{
1070
     2
1000
-2000011
1002
}
  0
LINE
  5
130
330
70
100
AcDbEntity
  8
I-WALL
370
    40
100
AcDbLine
 10
481.6251853058551
 20
56.83925742266697
 30
0.0
 11
525.6251853058552
 21
56.83925742266697
 31
0.0
1001
REVIT
1002
{
1070
     1
1000
5150248
1002
}
1002
{
1070
     5
1000
639165
1002
}
1002
{
1070
     2
1000
-2000011
1002
}
  0
LINE
  5
131
330
70
100
AcDbEntity
  8
I-WALL
100
AcDbLine
 10
1136.625185305855
 20
-671.1607425773333
 30
0.0
 11
1136.625185305854
 21
-85.16074257733244
 31
0.0
1001
REVIT
1002
{
1070
     1
1000
5150659
1002
}
1002
{
1070
     5
1000
639165
1002
}
1002
{
1070
     2
1000
-2000011
1002
}
  0
LINE
  5
132
330
70
100
AcDbEntity
  8
I-WALL
100
AcDbLine
 10
1141.625185305854
 20
-80.16074257733244
 30
0.0
 11
1141.625185305854
 21
-676.1607425773332
 31
0.0
1001
REVIT
1002
{
1070
     1
1000
5150659
1002
}
1002
{
1070
     5
1000
639165
1002
}
1002
{
1070
     2
1000
-2000011
1002
}
  0
LINE
  5
134
330
70
100
AcDbEntity
  8
I-WALL
100
AcDbLine
 10
1136.625185305854
 20
-85.16074257733246
 30
0.0
 11
546.6251853058541
 21
-85.16074257733349
 31
0.0
1001
REVIT
1002
{
1070
     1
1000
5150660
1002
}
1002
{
1070
     5
1000
639165
1002
}
1002
{
1070
     2
1000
-2000011
1002
}
  0
LINE
  5
135
330
70
100
AcDbEntity
  8
I-WALL
100
AcDbLine
 10
541.6251853058541
 20
-80.1607425773335
 30
0.0
 11
1141.625185305854
 21
-80.16074257733247
 31
0.0
1001
REVIT
1002
{
1070
     1
1000
5150660
1002
}
1002
{
1070
     5
1000
639165
1002
}
1002
{
1070
     2
1000
-2000011
1002
}
  0
LINE
  5
137
330
70
100
AcDbEntity
  8
I-WALL
100
AcDbLine
 10
546.6251853058541
 20
-85.16074257733347
 30
0.0
 11
546.6251853058552
 21
-671.1607425773343
 31
0.0
1001
REVIT
1002
{
1070
     1
1000
5150661
1002
}
1002
{
1070
     5
1000
639165
1002
}
1002
{
1070
     2
1000
-2000011
1002
}
  0
LINE
  5
138
330
70
100
AcDbEntity
  8
I-WALL
100
AcDbLine
 10
541.6251853058552
 20
-676.1607425773343
 30
0.0
 11
541.6251853058549
 21
-477.1607425773328
 31
0.0
1001
REVIT
1002
{
1070
     1
1000
5150661
1002
}
1002
{
1070
     5
1000
639165
1002
}
1002
{
1070
     2
1000
-2000011
1002
}
  0
LINE
  5
139
330
70
100
AcDbEntity
  8
I-WALL
100
AcDbLine
 10
541.6251853058549
 20
-472.160742577333
 30
0.0
 11
541.6251853058545
 21
-280.160742577333
 31
0.0
1001
REVIT
1002
{
1070
     1
1000
5150661
1002
}
1002
{
1070
     5
1000
639165
1002
}
1002
{
1070
     2
1000
-2000011
1002
}
  0
LINE
  5
13A
330
70
100
AcDbEntity
  8
I-WALL
100
AcDbLine
 10
541.6251853058545
 20
-275.1607425773329
 30
0.0
 11
541.6251853058541
 21
-80.16074257733349
 31
0.0
1001
REVIT
1002
{
1070
     1
1000
5150661
1002
}
1002
{
1070
     5
1000
639165
1002
}
1002
{
1070
     2
1000
-2000011
1002
}
  0
LINE
  5
13C
330
70
100
AcDbEntity
  8
I-WALL
100
AcDbLine
 10
546.6251853058552
 20
-671.1607425773343
 30
0.0
 11
1136.625185305855
 21
-671.1607425773333
 31
0.0
1001
REVIT
1002
{
1070
     1
1000
5150662
1002
}
1002
{
1070
     5
1000
639165
1002
}
1002
{
1070
     2
1000
-2000011
1002
}
  0
LINE
  5
13D
330
70
100
AcDbEntity
  8
I-WALL
100
AcDbLine
 10
1141.625185305854
 20
-676.1607425773332
 30
0.0
 11
541.6251853058552
 21
-676.1607425773343
 31
0.0
1001
REVIT
1002
{
1070
     1
1000
5150662
1002
}
1002
{
1070
     5
1000
639165
1002
}
1002
{
1070
     2
1000
-2000011
1002
}
  0
LINE
  5
13F
330
70
100
AcDbEntity
  8
I-WALL
370
    40
100
AcDbLine
 10
541.6251853058545
 20
-275.1607425773329
 30
0.0
 11
527.6251853058687
 21
-275.1607425773329
 31
0.0
1001
REVIT
1002
{
1070
     1
1000
5150788
1002
}
1002
{
1070
     5
1000
639165
1002
}
1002
{
1070
     2
1000
-2000011
1002
}
  0
LINE
  5
140
330
70
100
AcDbEntity
  8
I-WALL
370
    40
100
AcDbLine
 10
527.6251853058687
 20
-275.1607425773329
 30
0.0
 11
527.6251853058687
 21
-280.160742577333
 31
0.0
1001
REVIT
1002
{
1070
     1
1000
5150788
1002
}
1002
{
1070
     5
1000
639165
1002
}
1002
{
1070
     2
1000
-2000011
1002
}
  0
LINE
  5
141
330
70
100
AcDbEntity
  8
I-WALL
370
    40
100
AcDbLine
 10
527.6251853058687
 20
-280.160742577333
 30
0.0
 11
541.6251853058545
 21
-280.160742577333
 31
0.0
1001
REVIT
1002
{
1070
     1
1000
5150788
1002
}
1002
{
1070
     5
1000
639165
1002
}
1002
{
1070
     2
1000
-2000011
1002
}
  0
LINE
  5
142
330
70
100
AcDbEntity
  8
I-WALL
370
    40
100
AcDbLine
 10
541.6251853058545
 20
-280.160742577333
 30
0.0
 11
541.6251853058545
 21
-275.1607425773329
 31
0.0
1001
REVIT
1002
{
1070
     1
1000
5150788
1002
}
1002
{
1070
     5
1000
639165
1002
}
1002
{
1070
     2
1000
-2000011
1002
}
  0
LINE
  5
143
330
70
100
AcDbEntity
  8
I-WALL
370
    40
100
AcDbLine
 10
487.6251853058687
 20
-275.160742577333
 30
0.0
 11
481.6251853058545
 21
-275.160742577333
 31
0.0
1001
REVIT
1002
{
1070
     1
1000
5150788
1002
}
1002
{
1070
     5
1000
639165
1002
}
1002
{
1070
     2
1000
-2000011
1002
}
  0
LINE
  5
144
330
70
100
AcDbEntity
  8
I-WALL
370
    40
100
AcDbLine
 10
481.6251853058545
 20
-280.160742577333
 30
0.0
 11
487.6251853058687
 21
-280.160742577333
 31
0.0
1001
REVIT
1002
{
1070
     1
1000
5150788
1002
}
1002
{
1070
     5
1000
639165
1002
}
1002
{
1070
     2
1000
-2000011
1002
}
  0
LINE
  5
145
330
70
100
AcDbEntity
  8
I-WALL
370
    40
100
AcDbLine
 10
487.6251853058687
 20
-280.160742577333
 30
0.0
 11
487.6251853058687
 21
-275.160742577333
 31
0.0
1001
REVIT
1002
{
1070
     1
1000
5150788
1002
}
1002
{
1070
     5
1000
639165
1002
}
1002
{
1070
     2
1000
-2000011
1002
}
  0
LINE
  5
146
330
70
100
AcDbEntity
  8
I-WALL
370
    40
100
AcDbLine
 10
541.6251853058549
 20
-472.160742577333
 30
0.0
 11
527.6251853058688
 21
-472.160742577333
 31
0.0
1001
REVIT
1002
{
1070
     1
1000
5150884
1002
}
1002
{
1070
     5
1000
639165
1002
}
1002
{
1070
     2
1000
-2000011
1002
}
  0
LINE
  5
147
330
70
100
AcDbEntity
  8
I-WALL
370
    40
100
AcDbLine
 10
527.6251853058688
 20
-472.160742577333
 30
0.0
 11
527.6251853058688
 21
-477.160742577333
 31
0.0
1001
REVIT
1002
{
1070
     1
1000
5150884
1002
}
1002
{
1070
     5
1000
639165
1002
}
1002
{
1070
     2
1000
-2000011
1002
}
  0
LINE
  5
148
330
70
100
AcDbEntity
  8
I-WALL
370
    40
100
AcDbLine
 10
527.6251853058688
 20
-477.160742577333
 30
0.0
 11
541.6251853058549
 21
-477.160742577333
 31
0.0
1001
REVIT
1002
{
1070
     1
1000
5150884
1002
}
1002
{
1070
     5
1000
639165
1002
}
1002
{
1070
     2
1000
-2000011
1002
}
  0
LINE
  5
149
330
70
100
AcDbEntity
  8
I-WALL
370
    40
100
AcDbLine
 10
541.6251853058549
 20
-477.160742577333
 30
0.0
 11
541.6251853058549
 21
-472.160742577333
 31
0.0
1001
REVIT
1002
{
1070
     1
1000
5150884
1002
}
1002
{
1070
     5
1000
639165
1002
}
1002
{
1070
     2
1000
-2000011
1002
}
  0
LINE
  5
14A
330
70
100
AcDbEntity
  8
I-WALL
370
    40
100
AcDbLine
 10
487.6251853058688
 20
-472.160742577333
 30
0.0
 11
481.6251853058543
 21
-472.160742577333
 31
0.0
1001
REVIT
1002
{
1070
     1
1000
5150884
1002
}
1002
{
1070
     5
1000
639165
1002
}
1002
{
1070
     2
1000
-2000011
1002
}
  0
LINE
  5
14B
330
70
100
AcDbEntity
  8
I-WALL
370
    40
100
AcDbLine
 10
481.6251853058543
 20
-477.160742577333
 30
0.0
 11
487.6251853058688
 21
-477.160742577333
 31
0.0
1001
REVIT
1002
{
1070
     1
1000
5150884
1002
}
1002
{
1070
     5
1000
639165
1002
}
1002
{
1070
     2
1000
-2000011
1002
}
  0
LINE
  5
14C
330
70
100
AcDbEntity
  8
I-WALL
370
    40
100
AcDbLine
 10
487.6251853058688
 20
-477.160742577333
 30
0.0
 11
487.6251853058688
 21
-472.160742577333
 31
0.0
1001
REVIT
1002
{
1070
     1
1000
5150884
1002
}
1002
{
1070
     5
1000
639165
1002
}
1002
{
1070
     2
1000
-2000011
1002
}
  0
INSERT
  5
154
330
70
100
AcDbEntity
  8
A-GLAZ-CURT
100
AcDbBlockReference
  2
System Panel - zGlazed-5163577-LEVEL 2 Map Export
 10
961.625185305858
 20
841.8392574226665
 30
0.0
 50
269.9999999999998
1001
REVIT
1002
{
1070
     1
1000
5152459
1002
}
1002
{
1070
     5
1000
645966
1002
}
1002
{
1070
     2
1000
-2000170
1002
}
  0
INSERT
  5
15A
330
70
100
AcDbEntity
  8
A-GLAZ-CWMG
100
AcDbBlockReference
  2
Rectangular Mullion - 4 1_2_ x 2_ Rectangular_CE_-5151717-LEVEL 2 Map Export
 10
0.0
 20
0.0
 30
0.0
1001
REVIT
1002
{
1070
     1
1000
5152461
1002
}
1002
{
1070
     5
1000
646104
1002
}
1002
{
1070
     2
1000
-2000171
1002
}
  0
INSERT
  5
162
330
70
100
AcDbEntity
  8
A-GLAZ-CWMG
100
AcDbBlockReference
  2
Rectangular Mullion - 4 1_2_ x 2_ Rectangular_CE_-5163578-LEVEL 2 Map Export
 10
-961.6251853058576
 20
823.8392574226665
 30
0.0
 50
270.0000000000002
210
0.0
220
0.0
230
-1.0
1001
REVIT
1002
{
1070
     1
1000
5152462
1002
}
1002
{
1070
     5
1000
646104
1002
}
1002
{
1070
     2
1000
-2000171
1002
}
  0
INSERT
  5
16A
330
70
100
AcDbEntity
  8
A-GLAZ-CWMG
100
AcDbBlockReference
  2
Rectangular Mullion - 4 1_2_ x 2_ Rectangular_CE_-5163579-LEVEL 2 Map Export
 10
961.625185305858
 20
859.8392574226664
 30
0.0
 50
89.99999999999984
1001
REVIT
1002
{
1070
     1
1000
5152463
1002
}
1002
{
1070
     5
1000
646104
1002
}
1002
{
1070
     2
1000
-2000171
1002
}
  0
INSERT
  5
16B
330
70
100
AcDbEntity
  8
A-GLAZ-CURT
100
AcDbBlockReference
  2
System Panel - zGlazed-5163577-LEVEL 2 Map Export
 10
961.6251853058576
 20
736.8392574226667
 30
0.0
 50
269.9999999999999
1001
REVIT
1002
{
1070
     1
1000
5152465
1002
}
1002
{
1070
     5
1000
645966
1002
}
1002
{
1070
     2
1000
-2000170
1002
}
  0
INSERT
  5
16C
330
70
100
AcDbEntity
  8
A-GLAZ-CWMG
100
AcDbBlockReference
  2
Rectangular Mullion - 4 1_2_ x 2_ Rectangular_CE_-5151717-LEVEL 2 Map Export
 10
0.0
 20
-105.0000000000044
 30
0.0
1001
REVIT
1002
{
1070
     1
1000
5152467
1002
}
1002
{
1070
     5
1000
646104
1002
}
1002
{
1070
     2
1000
-2000171
1002
}
  0
INSERT
  5
16D
330
70
100
AcDbEntity
  8
A-GLAZ-CWMG
100
AcDbBlockReference
  2
Rectangular Mullion - 4 1_2_ x 2_ Rectangular_CE_-5163578-LEVEL 2 Map Export
 10
-961.6251853058576
 20
718.8392574226667
 30
0.0
 50
270.0000000000001
210
0.0
220
0.0
230
-1.0
1001
REVIT
1002
{
1070
     1
1000
5152468
1002
}
1002
{
1070
     5
1000
646104
1002
}
1002
{
1070
     2
1000
-2000171
1002
}
  0
INSERT
  5
16E
330
70
100
AcDbEntity
  8
A-GLAZ-CWMG
100
AcDbBlockReference
  2
Rectangular Mullion - 4 1_2_ x 2_ Rectangular_CE_-5163579-LEVEL 2 Map Export
 10
961.6251853058576
 20
754.8392574226665
 30
0.0
 50
89.99999999999989
1001
REVIT
1002
{
1070
     1
1000
5152469
1002
}
1002
{
1070
     5
1000
646104
1002
}
1002
{
1070
     2
1000
-2000171
1002
}
  0
INSERT
  5
176
330
70
100
AcDbEntity
  8
A-GLAZ-CURT
100
AcDbBlockReference
  2
System Panel - zGlazed-5163638-LEVEL 2 Map Export
 10
961.6251853058583
 20
631.8392574226668
 30
0.0
 50
90.00000000000039
1001
REVIT
1002
{
1070
     1
1000
5152737
1002
}
1002
{
1070
     5
1000
645966
1002
}
1002
{
1070
     2
1000
-2000170
1002
}
  0
INSERT
  5
17C
330
70
100
AcDbEntity
  8
A-GLAZ-CWMG
100
AcDbBlockReference
  2
Rectangular Mullion - 4 1_2_ x 2_ Rectangular_CE_-5152743-LEVEL 2 Map Export
 10
0.0
 20
0.0
 30
0.0
1001
REVIT
1002
{
1070
     1
1000
5152739
1002
}
1002
{
1070
     5
1000
646104
1002
}
1002
{
1070
     2
1000
-2000171
1002
}
  0
INSERT
  5
184
330
70
100
AcDbEntity
  8
A-GLAZ-CWMG
100
AcDbBlockReference
  2
Rectangular Mullion - 4 1_2_ x 2_ Rectangular_CE_-5163639-LEVEL 2 Map Export
 10
-961.6251853058583
 20
649.8392574226668
 30
0.0
 50
89.99999999999962
210
0.0
220
0.0
230
-1.0
1001
REVIT
1002
{
1070
     1
1000
5152740
1002
}
1002
{
1070
     5
1000
646104
1002
}
1002
{
1070
     2
1000
-2000171
1002
}
  0
INSERT
  5
18C
330
70
100
AcDbEntity
  8
A-GLAZ-CWMG
100
AcDbBlockReference
  2
Rectangular Mullion - 4 1_2_ x 2_ Rectangular_CE_-5163640-LEVEL 2 Map Export
 10
961.6251853058583
 20
613.8392574226668
 30
0.0
 50
270.0000000000003
1001
REVIT
1002
{
1070
     1
1000
5152741
1002
}
1002
{
1070
     5
1000
646104
1002
}
1002
{
1070
     2
1000
-2000171
1002
}
  0
INSERT
  5
18D
330
70
100
AcDbEntity
  8
A-GLAZ-CURT
100
AcDbBlockReference
  2
System Panel - zGlazed-5163638-LEVEL 2 Map Export
 10
961.625185305858
 20
526.8392574226671
 30
0.0
 50
90.00000000000033
1001
REVIT
1002
{
1070
     1
1000
5152810
1002
}
1002
{
1070
     5
1000
645966
1002
}
1002
{
1070
     2
1000
-2000170
1002
}
  0
INSERT
  5
18E
330
70
100
AcDbEntity
  8
A-GLAZ-CWMG
100
AcDbBlockReference
  2
Rectangular Mullion - 4 1_2_ x 2_ Rectangular_CE_-5152743-LEVEL 2 Map Export
 10
0.0
 20
-104.9999999999997
 30
0.0
1001
REVIT
1002
{
1070
     1
1000
5152812
1002
}
1002
{
1070
     5
1000
646104
1002
}
1002
{
1070
     2
1000
-2000171
1002
}
  0
INSERT
  5
18F
330
70
100
AcDbEntity
  8
A-GLAZ-CWMG
100
AcDbBlockReference
  2
Rectangular Mullion - 4 1_2_ x 2_ Rectangular_CE_-5163639-LEVEL 2 Map Export
 10
-961.625185305858
 20
544.839257422667
 30
0.0
 50
89.99999999999969
210
0.0
220
0.0
230
-1.0
1001
REVIT
1002
{
1070
     1
1000
5152813
1002
}
1002
{
1070
     5
1000
646104
1002
}
1002
{
1070
     2
1000
-2000171
1002
}
  0
INSERT
  5
190
330
70
100
AcDbEntity
  8
A-GLAZ-CWMG
100
AcDbBlockReference
  2
Rectangular Mullion - 4 1_2_ x 2_ Rectangular_CE_-5163640-LEVEL 2 Map Export
 10
961.625185305858
 20
508.8392574226671
 30
0.0
 50
270.0000000000003
1001
REVIT
1002
{
1070
     1
1000
5152814
1002
}
1002
{
1070
     5
1000
646104
1002
}
1002
{
1070
     2
1000
-2000171
1002
}
  0
INSERT
  5
1B1
330
70
100
AcDbEntity
  8
A-DOOR
370
     9
100
AcDbBlockReference
  2
Door-Single_CE_ - HM Door-2_ HM Frame-5137187-LEVEL 2 Map Export
 10
715.1251853058576
 20
796.8392574226812
 30
0.0
 50
269.9999999999999
1001
REVIT
1002
{
1070
     1
1000
5157038
1002
}
1002
{
1070
     5
1000
4450563
1002
}
1002
{
1070
     2
1000
-2000023
1002
}
1002
{
1070
     3
1000
636535
1002
}
  0
INSERT
  5
1B2
330
70
100
AcDbEntity
  8
A-DOOR
370
     9
100
AcDbBlockReference
  2
Door-Single_CE_ - HM Door-2_ HM Frame-5137187-LEVEL 2 Map Export
 10
507.6251853058706
 20
714.3392574226668
 30
0.0
 50
180.0
1001
REVIT
1002
{
1070
     1
1000
5157126
1002
}
1002
{
1070
     5
1000
4450563
1002
}
1002
{
1070
     2
1000
-2000023
1002
}
1002
{
1070
     3
1000
636535
1002
}
  0
INSERT
  5
1D2
330
70
100
AcDbEntity
  8
A-DOOR
370
     9
100
AcDbBlockReference
  2
Door-Single_CE_ - HM Door-2_ HM Frame-5137074-LEVEL 2 Map Export
 10
507.6251853058686
 20
-277.6607425773329
 30
0.0
 50
180.0
1001
REVIT
1002
{
1070
     1
1000
5158147
1002
}
1002
{
1070
     5
1000
4450563
1002
}
1002
{
1070
     2
1000
-2000023
1002
}
1002
{
1070
     3
1000
636535
1002
}
  0
INSERT
  5
1D3
330
70
100
AcDbEntity
  8
A-DOOR
370
     9
100
AcDbBlockReference
  2
Door-Single_CE_ - HM Door-2_ HM Frame-5137187-LEVEL 2 Map Export
 10
507.6251853058686
 20
-474.6607425773331
 30
0.0
 50
180.0
1001
REVIT
1002
{
1070
     1
1000
5158239
1002
}
1002
{
1070
     5
1000
4450563
1002
}
1002
{
1070
     2
1000
-2000023
1002
}
1002
{
1070
     3
1000
636535
1002
}
  0
LINE
  5
1D4
330
70
100
AcDbEntity
  8
S-STRS
100
AcDbLine
 10
481.625185305855
 20
23.44612040107243
 30
0.0
 11
483.1251853058548
 21
23.44612040107243
 31
0.0
1001
REVIT
1002
{
1070
     1
1000
5162924
1002
}
1002
{
1070
     5
1000
44989
1002
}
1002
{
1070
     2
1000
-2000120
1002
}
1002
{
1070
     3
1000
-2000952
1002
}
  0
LINE
  5
1D5
330
70
100
AcDbEntity
  8
S-STRS
100
AcDbLine
 10
519.1251853058548
 20
23.44612040107235
 30
0.0
 11
521.1251853058548
 21
23.44612040107235
 31
0.0
1001
REVIT
1002
{
1070
     1
1000
5162924
1002
}
1002
{
1070
     5
1000
44989
1002
}
1002
{
1070
     2
1000
-2000120
1002
}
1002
{
1070
     3
1000
-2000952
1002
}
  0
LINE
  5
1D6
330
70
100
AcDbEntity
  8
S-STRS
100
AcDbLine
 10
521.1251853058548
 20
56.83925742266686
 30
0.0
 11
521.1251853058548
 21
23.44612040107232
 31
0.0
1001
REVIT
1002
{
1070
     1
1000
5162924
1002
}
1002
{
1070
     5
1000
44989
1002
}
1002
{
1070
     2
1000
-2000120
1002
}
1002
{
1070
     3
1000
-2000952
1002
}
  0
LINE
  5
1D7
330
70
100
AcDbEntity
  8
S-STRS
100
AcDbLine
 10
517.1251853058546
 20
23.44612040107239
 30
0.0
 11
485.1251853058548
 21
23.44612040107239
 31
0.0
1001
REVIT
1002
{
1070
     1
1000
5162924
1002
}
1002
{
1070
     5
1000
44989
1002
}
1002
{
1070
     2
1000
-2000120
1002
}
1002
{
1070
     3
1000
-2000934
1002
}
  0
LINE
  5
1D8
330
70
100
AcDbEntity
  8
S-STRS
100
AcDbLine
 10
517.1251853058546
 20
34.44612040107238
 30
0.0
 11
485.1251853058548
 21
34.44612040107238
 31
0.0
1001
REVIT
1002
{
1070
     1
1000
5162924
1002
}
1002
{
1070
     5
1000
44989
1002
}
1002
{
1070
     2
1000
-2000120
1002
}
1002
{
1070
     3
1000
-2000932
1002
}
  0
LINE
  5
1D9
330
70
100
AcDbEntity
  8
S-STRS
100
AcDbLine
 10
517.1251853058546
 20
45.44612040107237
 30
0.0
 11
485.1251853058548
 21
45.44612040107237
 31
0.0
1001
REVIT
1002
{
1070
     1
1000
5162924
1002
}
1002
{
1070
     5
1000
44989
1002
}
1002
{
1070
     2
1000
-2000120
1002
}
1002
{
1070
     3
1000
-2000932
1002
}
  0
LINE
  5
1DA
330
70
100
AcDbEntity
  8
S-STRS
100
AcDbLine
 10
517.1251853058548
 20
56.44612040107226
 30
0.0
 11
485.1251853058549
 21
56.44612040107251
 31
0.0
1001
REVIT
1002
{
1070
     1
1000
5162924
1002
}
1002
{
1070
     5
1000
44989
1002
}
1002
{
1070
     2
1000
-2000120
1002
}
1002
{
1070
     3
1000
-2000932
1002
}
  0
LINE
  5
1DB
330
70
100
AcDbEntity
  8
S-STRS
100
AcDbLine
 10
517.1251853058548
 20
67.44612040107238
 30
0.0
 11
485.1251853058549
 21
67.44612040107238
 31
0.0
1001
REVIT
1002
{
1070
     1
1000
5162924
1002
}
1002
{
1070
     5
1000
44989
1002
}
1002
{
1070
     2
1000
-2000120
1002
}
1002
{
1070
     3
1000
-2000932
1002
}
  0
LINE
  5
1DC
330
70
100
AcDbEntity
  8
S-STRS
100
AcDbLine
 10
517.1251853058548
 20
78.44612040107236
 30
0.0
 11
485.1251853058549
 21
78.44612040107236
 31
0.0
1001
REVIT
1002
{
1070
     1
1000
5162924
1002
}
1002
{
1070
     5
1000
44989
1002
}
1002
{
1070
     2
1000
-2000120
1002
}
1002
{
1070
     3
1000
-2000932
1002
}
  0
LINE
  5
1DD
330
70
100
AcDbEntity
  8
S-STRS
100
AcDbLine
 10
517.1251853058548
 20
89.44612040107237
 30
0.0
 11
485.1251853058549
 21
89.44612040107237
 31
0.0
1001
REVIT
1002
{
1070
     1
1000
5162924
1002
}
1002
{
1070
     5
1000
44989
1002
}
1002
{
1070
     2
1000
-2000120
1002
}
1002
{
1070
     3
1000
-2000932
1002
}
  0
LINE
  5
1DE
330
70
100
AcDbEntity
  8
S-STRS
100
AcDbLine
 10
517.1251853058548
 20
100.4461204010723
 30
0.0
 11
485.1251853058549
 21
100.4461204010723
 31
0.0
1001
REVIT
1002
{
1070
     1
1000
5162924
1002
}
1002
{
1070
     5
1000
44989
1002
}
1002
{
1070
     2
1000
-2000120
1002
}
1002
{
1070
     3
1000
-2000932
1002
}
  0
LINE
  5
1DF
330
70
100
AcDbEntity
  8
S-STRS
100
AcDbLine
 10
517.1251853058548
 20
111.4461204010723
 30
0.0
 11
485.1251853058549
 21
111.4461204010723
 31
0.0
1001
REVIT
1002
{
1070
     1
1000
5162924
1002
}
1002
{
1070
     5
1000
44989
1002
}
1002
{
1070
     2
1000
-2000120
1002
}
1002
{
1070
     3
1000
-2000932
1002
}
  0
LINE
  5
1E0
330
70
100
AcDbEntity
  8
S-STRS
100
AcDbLine
 10
517.1251853058549
 20
122.4461204010722
 30
0.0
 11
485.1251853058551
 21
122.4461204010725
 31
0.0
1001
REVIT
1002
{
1070
     1
1000
5162924
1002
}
1002
{
1070
     5
1000
44989
1002
}
1002
{
1070
     2
1000
-2000120
1002
}
1002
{
1070
     3
1000
-2000932
1002
}
  0
LINE
  5
1E1
330
70
100
AcDbEntity
  8
S-STRS
100
AcDbLine
 10
517.1251853058549
 20
133.4461204010723
 30
0.0
 11
485.1251853058551
 21
133.4461204010723
 31
0.0
1001
REVIT
1002
{
1070
     1
1000
5162924
1002
}
1002
{
1070
     5
1000
44989
1002
}
1002
{
1070
     2
1000
-2000120
1002
}
1002
{
1070
     3
1000
-2000932
1002
}
  0
LINE
  5
1E2
330
70
100
AcDbEntity
  8
S-STRS
100
AcDbLine
 10
517.1251853058549
 20
144.4461204010723
 30
0.0
 11
485.1251853058551
 21
144.4461204010723
 31
0.0
1001
REVIT
1002
{
1070
     1
1000
5162924
1002
}
1002
{
1070
     5
1000
44989
1002
}
1002
{
1070
     2
1000
-2000120
1002
}
1002
{
1070
     3
1000
-2000932
1002
}
  0
LINE
  5
1E3
330
70
100
AcDbEntity
  8
S-STRS
100
AcDbLine
 10
517.1251853058549
 20
155.4461204010723
 30
0.0
 11
485.1251853058551
 21
155.4461204010723
 31
0.0
1001
REVIT
1002
{
1070
     1
1000
5162924
1002
}
1002
{
1070
     5
1000
44989
1002
}
1002
{
1070
     2
1000
-2000120
1002
}
1002
{
1070
     3
1000
-2000932
1002
}
  0
LINE
  5
1E4
330
70
100
AcDbEntity
  8
S-STRS
100
AcDbLine
 10
517.1251853058549
 20
166.4461204010723
 30
0.0
 11
485.1251853058551
 21
166.4461204010723
 31
0.0
1001
REVIT
1002
{
1070
     1
1000
5162924
1002
}
1002
{
1070
     5
1000
44989
1002
}
1002
{
1070
     2
1000
-2000120
1002
}
1002
{
1070
     3
1000
-2000932
1002
}
  0
LINE
  5
1E5
330
70
100
AcDbEntity
  8
S-STRS
100
AcDbLine
 10
517.1251853058549
 20
177.4461204010722
 30
0.0
 11
485.1251853058551
 21
177.4461204010725
 31
0.0
1001
REVIT
1002
{
1070
     1
1000
5162924
1002
}
1002
{
1070
     5
1000
44989
1002
}
1002
{
1070
     2
1000
-2000120
1002
}
1002
{
1070
     3
1000
-2000932
1002
}
  0
LINE
  5
1E6
330
70
100
AcDbEntity
  8
S-STRS
100
AcDbLine
 10
517.125185305855
 20
188.4461204010723
 30
0.0
 11
485.1251853058551
 21
188.4461204010723
 31
0.0
1001
REVIT
1002
{
1070
     1
1000
5162924
1002
}
1002
{
1070
     5
1000
44989
1002
}
1002
{
1070
     2
1000
-2000120
1002
}
1002
{
1070
     3
1000
-2000932
1002
}
  0
LINE
  5
1E7
330
70
100
AcDbEntity
  8
S-STRS
100
AcDbLine
 10
517.125185305855
 20
199.4461204010723
 30
0.0
 11
485.1251853058551
 21
199.4461204010723
 31
0.0
1001
REVIT
1002
{
1070
     1
1000
5162924
1002
}
1002
{
1070
     5
1000
44989
1002
}
1002
{
1070
     2
1000
-2000120
1002
}
1002
{
1070
     3
1000
-2000932
1002
}
  0
INSERT
  5
1F0
330
70
100
AcDbEntity
  8
A-FLOR-HRAL
100
AcDbBlockReference
  2
Railing - Railing-5163119-LEVEL 2 Map Export
 10
0.0
 20
0.0
 30
0.0
1001
REVIT
1002
{
1070
     1
1000
5163118
1002
}
1002
{
1070
     5
1000
1969
1002
}
1002
{
1070
     2
1000
-2000126
1002
}
1002
{
1070
     3
1000
-2000128
1002
}
  0
INSERT
  5
1F9
330
70
100
AcDbEntity
  8
A-FLOR-HRAL
100
AcDbBlockReference
  2
Railing - Railing-5163123-LEVEL 2 Map Export
 10
0.0
 20
0.0
 30
0.0
1001
REVIT
1002
{
1070
     1
1000
5163122
1002
}
1002
{
1070
     5
1000
1969
1002
}
1002
{
1070
     2
1000
-2000126
1002
}
1002
{
1070
     3
1000
-2000128
1002
}
  0
INSERT
  5
1FA
330
70
100
AcDbEntity
  8
A-GLAZ-CURT
100
AcDbBlockReference
  2
System Panel - zGlazed-5163577-LEVEL 2 Map Export
 10
961.6251853058569
 20
429.839257422667
 30
0.0
 50
269.9999999999998
1001
REVIT
1002
{
1070
     1
1000
5163181
1002
}
1002
{
1070
     5
1000
645966
1002
}
1002
{
1070
     2
1000
-2000170
1002
}
  0
INSERT
  5
1FB
330
70
100
AcDbEntity
  8
A-GLAZ-CWMG
100
AcDbBlockReference
  2
Rectangular Mullion - 4 1_2_ x 2_ Rectangular_CE_-5151717-LEVEL 2 Map Export
 10
0.0
 20
-411.9999999999994
 30
0.0
1001
REVIT
1002
{
1070
     1
1000
5163184
1002
}
1002
{
1070
     5
1000
646104
1002
}
1002
{
1070
     2
1000
-2000171
1002
}
  0
INSERT
  5
1FC
330
70
100
AcDbEntity
  8
A-GLAZ-CWMG
100
AcDbBlockReference
  2
Rectangular Mullion - 4 1_2_ x 2_ Rectangular_CE_-5163578-LEVEL 2 Map Export
 10
-961.6251853058567
 20
411.8392574226669
 30
0.0
 50
270.0000000000002
210
0.0
220
0.0
230
-1.0
1001
REVIT
1002
{
1070
     1
1000
5163185
1002
}
1002
{
1070
     5
1000
646104
1002
}
1002
{
1070
     2
1000
-2000171
1002
}
  0
INSERT
  5
1FD
330
70
100
AcDbEntity
  8
A-GLAZ-CWMG
100
AcDbBlockReference
  2
Rectangular Mullion - 4 1_2_ x 2_ Rectangular_CE_-5163579-LEVEL 2 Map Export
 10
961.6251853058569
 20
447.839257422667
 30
0.0
 50
89.99999999999982
1001
REVIT
1002
{
1070
     1
1000
5163186
1002
}
1002
{
1070
     5
1000
646104
1002
}
1002
{
1070
     2
1000
-2000171
1002
}
  0
INSERT
  5
1FE
330
70
100
AcDbEntity
  8
A-GLAZ-CURT
100
AcDbBlockReference
  2
System Panel - zGlazed-5163577-LEVEL 2 Map Export
 10
961.6251853058567
 20
324.839257422667
 30
0.0
 50
269.9999999999999
1001
REVIT
1002
{
1070
     1
1000
5163268
1002
}
1002
{
1070
     5
1000
645966
1002
}
1002
{
1070
     2
1000
-2000170
1002
}
  0
INSERT
  5
1FF
330
70
100
AcDbEntity
  8
A-GLAZ-CWMG
100
AcDbBlockReference
  2
Rectangular Mullion - 4 1_2_ x 2_ Rectangular_CE_-5151717-LEVEL 2 Map Export
 10
0.0
 20
-517.000000000004
 30
0.0
1001
REVIT
1002
{
1070
     1
1000
5163271
1002
}
1002
{
1070
     5
1000
646104
1002
}
1002
{
1070
     2
1000
-2000171
1002
}
  0
INSERT
  5
200
330
70
100
AcDbEntity
  8
A-GLAZ-CWMG
100
AcDbBlockReference
  2
Rectangular Mullion - 4 1_2_ x 2_ Rectangular_CE_-5163578-LEVEL 2 Map Export
 10
-961.6251853058567
 20
306.8392574226669
 30
0.0
 50
270.0000000000001
210
0.0
220
0.0
230
-1.0
1001
REVIT
1002
{
1070
     1
1000
5163272
1002
}
1002
{
1070
     5
1000
646104
1002
}
1002
{
1070
     2
1000
-2000171
1002
}
  0
INSERT
  5
201
330
70
100
AcDbEntity
  8
A-GLAZ-CWMG
100
AcDbBlockReference
  2
Rectangular Mullion - 4 1_2_ x 2_ Rectangular_CE_-5163579-LEVEL 2 Map Export
 10
961.6251853058567
 20
342.8392574226669
 30
0.0
 50
89.99999999999989
1001
REVIT
1002
{
1070
     1
1000
5163273
1002
}
1002
{
1070
     5
1000
646104
1002
}
1002
{
1070
     2
1000
-2000171
1002
}
  0
INSERT
  5
202
330
70
100
AcDbEntity
  8
A-GLAZ-CURT
100
AcDbBlockReference
  2
System Panel - zGlazed-5163577-LEVEL 2 Map Export
 10
961.6251853058601
 20
219.839257422667
 30
0.0
 50
269.9999999999998
1001
REVIT
1002
{
1070
     1
1000
5163348
1002
}
1002
{
1070
     5
1000
645966
1002
}
1002
{
1070
     2
1000
-2000170
1002
}
  0
INSERT
  5
203
330
70
100
AcDbEntity
  8
A-GLAZ-CWMG
100
AcDbBlockReference
  2
Rectangular Mullion - 4 1_2_ x 2_ Rectangular_CE_-5151717-LEVEL 2 Map Export
 10
0.0
 20
-621.9999999999995
 30
0.0
1001
REVIT
1002
{
1070
     1
1000
5163351
1002
}
1002
{
1070
     5
1000
646104
1002
}
1002
{
1070
     2
1000
-2000171
1002
}
  0
INSERT
  5
204
330
70
100
AcDbEntity
  8
A-GLAZ-CWMG
100
AcDbBlockReference
  2
Rectangular Mullion - 4 1_2_ x 2_ Rectangular_CE_-5163578-LEVEL 2 Map Export
 10
-961.6251853058599
 20
201.839257422667
 30
0.0
 50
270.0000000000002
210
0.0
220
0.0
230
-1.0
1001
REVIT
1002
{
1070
     1
1000
5163352
1002
}
1002
{
1070
     5
1000
646104
1002
}
1002
{
1070
     2
1000
-2000171
1002
}
  0
INSERT
  5
205
330
70
100
AcDbEntity
  8
A-GLAZ-CWMG
100
AcDbBlockReference
  2
Rectangular Mullion - 4 1_2_ x 2_ Rectangular_CE_-5163579-LEVEL 2 Map Export
 10
961.6251853058601
 20
237.839257422667
 30
0.0
 50
89.99999999999976
1001
REVIT
1002
{
1070
     1
1000
5163353
1002
}
1002
{
1070
     5
1000
646104
1002
}
1002
{
1070
     2
1000
-2000171
1002
}
  0
LWPOLYLINE
  5
207
330
70
100
AcDbEntity
  8
A-AREA-BNDY
100
AcDbPolyline
 90
        5
 70
   129
 43
0.0
 10
481.6251853058564
 20
711.8392574226676
 10
481.625185305856
 20
494.8392574226674
 10
598.1251853058576
 20
494.8392574226674
 10
712.6251853058576
 20
494.8392574226676
 10
712.625185305858
 20
711.8392574226676
1001
REVIT
1002
{
1070
     1
1000
5150552
1002
}
1002
{
1070
     2
1000
-2000829
1002
}
1002
{
1070
   101
1000
STORAGE
1002
}
1002
{
1070
   102
1000
201
1002
}
1002
{
1070
   103
1000

1002
}
1002
{
1070
   104
1000

1002
}
1002
{
1070
   105
1000

1002
}
  0
LWPOLYLINE
  5
208
330
70
100
AcDbEntity
  8
A-AREA-BNDY
100
AcDbPolyline
 90
        4
 70
   129
 43
0.0
 10
481.6251853058567
 20
915.8392574226677
 10
481.6251853058564
 20
716.8392574226676
 10
712.625185305858
 20
716.8392574226676
 10
712.6251853058581
 20
915.8392574226677
1001
REVIT
1002
{
1070
     1
1000
5150553
1002
}
1002
{
1070
     2
1000
-2000829
1002
}
1002
{
1070
   101
1000
STORAGE
1002
}
1002
{
1070
   102
1000
200
1002
}
1002
{
1070
   103
1000

1002
}
1002
{
1070
   104
1000

1002
}
1002
{
1070
   105
1000

1002
}
  0
LWPOLYLINE
  5
209
330
70
100
AcDbEntity
  8
A-AREA-BNDY
100
AcDbPolyline
 90
       10
 70
   129
 43
0.0
 10
955.6251853058572
 20
-11.16074257733299
 10
955.6251853058574
 20
190.3392574226672
 10
595.6251853058571
 20
190.339257422667
 10
595.6251853058574
 20
489.8392574226673
 10
481.625185305856
 20
489.8392574226673
 10
481.6251853058556
 20
215.4461204010726
 10
525.6251853058554
 20
215.4461204010726
 10
525.6251853058556
 20
56.83925742266688
 10
481.6251853058554
 20
56.83925742266688
 10
481.6251853058552
 20
-11.16074257733299
1001
REVIT
1002
{
1070
     1
1000
5150554
1002
}
1002
{
1070
     2
1000
-2000829
1002
}
1002
{
1070
   101
1000
PROP STORAGE
1002
}
1002
{
1070
   102
1000
204
1002
}
1002
{
1070
   103
1000

1002
}
1002
{
1070
   104
1000

1002
}
1002
{
1070
   105
1000

1002
}
  0
LWPOLYLINE
  5
20A
330
70
100
AcDbEntity
  8
A-AREA-BNDY
100
AcDbPolyline
 90
       14
 70
   129
 43
0.0
 10
1201.625185305856
 20
-16.16074257733288
 10
961.6251853058573
 20
-16.16074257733288
 10
955.6011853058572
 20
-16.16074257733288
 10
481.6251853058552
 20
-16.16074257733322
 10
481.625185305855
 20
-275.1607425773333
 10
541.625185305855
 20
-275.1607425773333
 10
541.6251853058547
 20
-80.16074257733366
 10
1141.625185305855
 20
-80.16074257733247
 10
1141.625185305856
 20
-676.1607425773341
 10
541.6251853058557
 20
-676.1607425773352
 10
541.6251853058553
 20
-477.1607425773334
 10
481.6251853058546
 20
-477.1607425773334
 10
481.6251853058542
 20
-736.1607425773351
 10
1201.625185305855
 20
-736.1607425773338
1001
REVIT
1002
{
1070
     1
1000
5151006
1002
}
1002
{
1070
     2
1000
-2000829
1002
}
1002
{
1070
   101
1000
STAGE BALCONY
1002
}
1002
{
1070
   102
1000
205
1002
}
1002
{
1070
   103
1000

1002
}
1002
{
1070
   104
1000

1002
}
1002
{
1070
   105
1000

1002
}
  0
LWPOLYLINE
  5
20B
330
70
100
AcDbEntity
  8
A-AREA-BNDY
100
AcDbPolyline
 90
        4
 70
   129
 43
0.0
 10
481.625185305855
 20
-280.1607425773333
 10
481.6251853058546
 20
-472.1607425773335
 10
541.6251853058553
 20
-472.1607425773335
 10
541.625185305855
 20
-280.1607425773333
1001
REVIT
1002
{
1070
     1
1000
5151009
1002
}
1002
{
1070
     2
1000
-2000829
1002
}
1002
{
1070
   101
1000
SOUND BOOTH
1002
}
1002
{
1070
   102
1000
219
1002
}
1002
{
1070
   103
1000

1002
}
1002
{
1070
   104
1000

1002
}
1002
{
1070
   105
1000

1002
}
  0
LWPOLYLINE
  5
20C
330
70
100
AcDbEntity
  8
A-AREA-BNDY
100
AcDbPolyline
 90
        5
 70
   129
 43
0.0
 10
955.6251853058579
 20
494.8392574226676
 10
955.6251853058583
 20
915.8392574226677
 10
717.6251853058584
 20
915.8392574226677
 10
717.625185305858
 20
714.3392574226677
 10
717.6251853058577
 20
494.8392574226676
1001
REVIT
1002
{
1070
     1
1000
5151200
1002
}
1002
{
1070
     2
1000
-2000829
1002
}
1002
{
1070
   101
1000
COSTUME
1002
}
1002
{
1070
   102
1000
202
1002
}
1002
{
1070
   103
1000

1002
}
1002
{
1070
   104
1000

1002
}
1002
{
1070
   105
1000

1002
}
  0
ENDSEC
  0
SECTION
  2
OBJECTS
  0
DICTIONARY
  5
C
330
0
100
AcDbDictionary
281
     1
  3
ACAD_CIP_PREVIOUS_PRODUCT_INFO
350
79
  3
ACAD_COLOR
350
63
  3
ACAD_DETAILVIEWSTYLE
350
6A
  3
ACAD_GROUP
350
D
  3
ACAD_IMAGE_VARS
350
7A
  3
ACAD_LAYOUT
350
62
  3
ACAD_MATERIAL
350
10
  3
ACAD_MLEADERSTYLE
350
66
  3
ACAD_MLINESTYLE
350
5F
  3
ACAD_PLOTSETTINGS
350
61
  3
ACAD_PLOTSTYLENAME
350
E
  3
ACAD_SCALELIST
350
42
  3
ACAD_SECTIONVIEWSTYLE
350
68
  3
ACAD_TABLESTYLE
350
64
  3
ACAD_VISUALSTYLE
350
29
  3
ACDB_RECOMPOSE_DATA
350
219
  3
AcDbVariableDictionary
350
7B
  3
REVIT_DICTIONARY
350
20D
  0
DICTIONARY
  5
215
330
70
100
AcDbDictionary
280
     1
281
     1
  3
ACAD_SORTENTS
360
216
  0
XRECORD
  5
79
102
{ACAD_REACTORS
330
C
102
}
330
C
100
AcDbXrecord
280
     1
300
RVT
300
2025
300
RVT2025
  0
DICTIONARY
  5
63
102
{ACAD_REACTORS
330
C
102
}
330
C
100
AcDbDictionary
281
     1
  0
DICTIONARY
  5
6A
102
{ACAD_REACTORS
330
C
102
}
330
C
100
AcDbDictionary
281
     1
  3
Imperial24
350
6B
  0
DICTIONARY
  5
D
102
{ACAD_REACTORS
330
C
102
}
330
C
100
AcDbDictionary
281
     1
  0
RASTERVARIABLES
  5
7A
102
{ACAD_REACTORS
330
C
102
}
330
C
100
AcDbRasterVariables
 90
        0
 70
     0
 71
     1
 72
     5
  0
DICTIONARY
  5
62
102
{ACAD_REACTORS
330
C
102
}
330
C
100
AcDbDictionary
281
     1
  3
Layout1
350
6F
  3
Layout2
350
77
  3
Model
350
73
  0
DICTIONARY
  5
10
102
{ACAD_REACTORS
330
C
102
}
330
C
100
AcDbDictionary
281
     1
  3
ByBlock
350
19
  3
ByLayer
350
11
  3
Global
350
21
  0
DICTIONARY
  5
66
102
{ACAD_REACTORS
330
C
102
}
330
C
100
AcDbDictionary
281
     1
  3
Standard
350
67
  0
DICTIONARY
  5
5F
102
{ACAD_REACTORS
330
C
102
}
330
C
100
AcDbDictionary
281
     1
  3
Standard
350
60
  0
DICTIONARY
  5
61
102
{ACAD_REACTORS
330
C
102
}
330
C
100
AcDbDictionary
281
     1
  0
ACDBDICTIONARYWDFLT
  5
E
102
{ACAD_REACTORS
330
C
102
}
330
C
100
AcDbDictionary
281
     1
  3
Normal
350
F
100
AcDbDictionaryWithDefault
340
F
  0
DICTIONARY
  5
42
102
{ACAD_REACTORS
330
C
102
}
330
C
100
AcDbDictionary
281
     1
  3
A0
350
43
  3
A1
350
44
  3
A2
350
45
  3
A3
350
46
  3
A4
350
47
  3
A5
350
48
  3
A6
350
49
  3
A7
350
4A
  3
A8
350
4B
  3
A9
350
4C
  3
B0
350
4D
  3
B1
350
4E
  3
B2
350
4F
  3
B3
350
50
  3
B4
350
51
  3
B5
350
52
  3
B6
350
53
  0
DICTIONARY
  5
68
102
{ACAD_REACTORS
330
C
102
}
330
C
100
AcDbDictionary
281
     1
  3
Imperial24
350
69
  0
DICTIONARY
  5
64
102
{ACAD_REACTORS
330
C
102
}
330
C
100
AcDbDictionary
281
     1
  3
Standard
350
65
  0
DICTIONARY
  5
29
102
{ACAD_REACTORS
330
C
102
}
330
C
100
AcDbDictionary
281
     1
  3
2dWireframe
350
2F
  3
Basic
350
2E
  3
Brighten
350
35
  3
ColorChange
350
39
  3
Conceptual
350
32
  3
Dim
350
34
  3
EdgeColorOff
350
41
  3
Facepattern
350
38
  3
Flat
350
2A
  3
FlatWithEdges
350
2B
  3
Gouraud
350
2C
  3
GouraudWithEdges
350
2D
  3
Hidden
350
31
  3
JitterOff
350
3F
  3
Linepattern
350
37
  3
OverhangOff
350
40
  3
Realistic
350
33
  3
Shaded
350
3E
  3
Shaded with edges
350
3D
  3
Shades of Gray
350
3A
  3
Sketchy
350
3B
  3
Thicken
350
36
  3
Wireframe
350
30
  3
X-Ray
350
3C
  0
XRECORD
  5
219
102
{ACAD_REACTORS
330
C
102
}
330
C
100
AcDbXrecord
280
     1
 90
        1
330
65
  0
DICTIONARY
  5
7B
102
{ACAD_REACTORS
330
C
102
}
330
C
100
AcDbDictionary
281
     1
  3
CANNOSCALE
350
80
  3
CMLEADERSTYLE
350
7D
  3
CTABLESTYLE
350
7C
  3
CVIEWDETAILSTYLE
350
7E
  3
CVIEWSECTIONSTYLE
350
7F
  0
DICTIONARY
  5
20D
102
{ACAD_REACTORS
330
C
102
}
330
C
100
AcDbDictionary
281
     1
  3
DRAWING_TOOL
350
214
  3
REVIT_CATEGORY_MAPPING
350
212
  3
REVIT_GET_SITE
350
20E
  3
REVIT_SUB_CATEGORY_MAPPING
350
213
  3
REVIT_TYPE_MAPPING
350
211
  0
SORTENTSTABLE
  5
216
102
{ACAD_REACTORS
330
215
102
}
330
215
100
AcDbSortentsTable
330
70
  0
ACDBDETAILVIEWSTYLE
  5
6B
102
{ACAD_REACTORS
330
6A
102
}
330
6A
100
AcDbModelDocViewStyle
 70
     0
  3
Imperial24
290
     1
300
Imperial24
 90
        0
100
AcDbDetailViewStyle
 70
     0
 71
     0
 90
        3
 71
     1
340
55
 62
   256
 40
0.24
340
0
 62
   256
 40
0.24
300

 40
0.36
280
     3
 71
     2
340
5D
 90
       25
 62
   256
 71
     3
340
55
 62
   256
 40
0.24
 90
        1
 40
0.75
 90
        1
300
%<\AcVar ViewType \f "%tc1">% %<\AcVar ViewDetailId>%\PSCALE %<\AcVar ViewScale \f "%sn">%
 71
     4
340
5D
 90
       25
 62
   256
340
5D
 90
       25
 62
   256
280
     0
  0
LAYOUT
  5
6F
102
{ACAD_REACTORS
330
62
102
}
330
62
100
AcDbPlotSettings
  1

  2

  4

  6

 40
0.0
 41
0.0
 42
0.0
 43
0.0
 44
0.0
 45
0.0
 46
0.0
 47
0.0
 48
0.0
 49
0.0
140
0.0
141
0.0
142
1.0
143
1.0
 70
   688
 72
     0
 73
     0
 74
     5
  7

 75
    16
147
1.0
 76
     0
 77
     2
 78
   300
148
0.0
149
0.0
100
AcDbLayout
  1
Layout1
 70
     1
 71
     1
 10
0.0
 20
0.0
 11
12.0
 21
9.0
 12
0.0
 22
0.0
 32
0.0
 14
0.0
 24
0.0
 34
0.0
 15
0.0
 25
0.0
 35
0.0
146
0.0
 13
0.0
 23
0.0
 33
0.0
 16
1.0
 26
0.0
 36
0.0
 17
0.0
 27
1.0
 37
0.0
 76
     0
330
6C
  0
LAYOUT
  5
77
102
{ACAD_REACTORS
330
62
102
}
330
62
100
AcDbPlotSettings
  1

  2

  4

  6

 40
0.0
 41
0.0
 42
0.0
 43
0.0
 44
0.0
 45
0.0
 46
0.0
 47
0.0
 48
0.0
 49
0.0
140
0.0
141
0.0
142
1.0
143
1.0
 70
   688
 72
     0
 73
     0
 74
     5
  7

 75
    16
147
1.0
 76
     0
 77
     2
 78
   300
148
0.0
149
0.0
100
AcDbLayout
  1
Layout2
 70
     1
 71
     2
 10
0.0
 20
0.0
 11
12.0
 21
9.0
 12
0.0
 22
0.0
 32
0.0
 14
0.0
 24
0.0
 34
0.0
 15
0.0
 25
0.0
 35
0.0
146
0.0
 13
0.0
 23
0.0
 33
0.0
 16
1.0
 26
0.0
 36
0.0
 17
0.0
 27
1.0
 37
0.0
 76
     0
330
74
  0
LAYOUT
  5
73
102
{ACAD_REACTORS
330
62
102
}
330
62
100
AcDbPlotSettings
  1

  2

  4

  6

 40
0.0
 41
0.0
 42
0.0
 43
0.0
 44
0.0
 45
0.0
 46
0.0
 47
0.0
 48
0.0
 49
0.0
140
0.0
141
0.0
142
1.0
143
1.0
 70
  1712
 72
     0
 73
     0
 74
     0
  7

 75
     0
147
1.0
 76
     0
 77
     2
 78
   300
148
0.0
149
0.0
100
AcDbLayout
  1
Model
 70
     1
 71
     0
 10
0.0
 20
0.0
 11
12.0
 21
9.0
 12
0.0
 22
0.0
 32
0.0
 14
0.0
 24
0.0
 34
0.0
 15
0.0
 25
0.0
 35
0.0
146
0.0
 13
0.0
 23
0.0
 33
0.0
 16
1.0
 26
0.0
 36
0.0
 17
0.0
 27
1.0
 37
0.0
 76
     0
330
70
  0
MATERIAL
  5
19
102
{ACAD_XDICTIONARY
360
1A
102
}
102
{ACAD_REACTORS
330
10
102
}
330
10
100
AcDbMaterial
  1
ByBlock
 72
     0
 43
0.0208333333333333
 43
0.0
 43
0.0
 43
0.0
 43
0.0
 43
0.0208333333333333
 43
0.0
 43
0.0
 43
0.0
 43
0.0
 43
1.0
 43
0.0
 43
0.0
 43
0.0
 43
0.0
 43
1.0
 77
     0
 47
0.0208333333333333
 47
0.0
 47
0.0
 47
0.0
 47
0.0
 47
0.0208333333333333
 47
0.0
 47
0.0
 47
0.0
 47
0.0
 47
1.0
 47
0.0
 47
0.0
 47
0.0
 47
0.0
 47
1.0
171
     0
 49
0.0208333333333333
 49
0.0
 49
0.0
 49
0.0
 49
0.0
 49
0.0208333333333333
 49
0.0
 49
0.0
 49
0.0
 49
0.0
 49
1.0
 49
0.0
 49
0.0
 49
0.0
 49
0.0
 49
1.0
175
     0
142
0.0208333333333333
142
0.0
142
0.0
142
0.0
142
0.0
142
0.0208333333333333
142
0.0
142
0.0
142
0.0
142
0.0
142
1.0
142
0.0
142
0.0
142
0.0
142
0.0
142
1.0
179
     0
144
0.0208333333333333
144
0.0
144
0.0
144
0.0
144
0.0
144
0.0208333333333333
144
0.0
144
0.0
144
0.0
144
0.0
144
1.0
144
0.0
144
0.0
144
0.0
144
0.0
144
1.0
147
0.0208333333333333
147
0.0
147
0.0
147
0.0
147
0.0
147
0.0208333333333333
147
0.0
147
0.0
147
0.0
147
0.0
147
1.0
147
0.0
147
0.0
147
0.0
147
0.0
147
1.0
  0
MATERIAL
  5
11
102
{ACAD_XDICTIONARY
360
12
102
}
102
{ACAD_REACTORS
330
10
102
}
330
10
100
AcDbMaterial
  1
ByLayer
 72
     0
 43
0.0208333333333333
 43
0.0
 43
0.0
 43
0.0
 43
0.0
 43
0.0208333333333333
 43
0.0
 43
0.0
 43
0.0
 43
0.0
 43
1.0
 43
0.0
 43
0.0
 43
0.0
 43
0.0
 43
1.0
 77
     0
 47
0.0208333333333333
 47
0.0
 47
0.0
 47
0.0
 47
0.0
 47
0.0208333333333333
 47
0.0
 47
0.0
 47
0.0
 47
0.0
 47
1.0
 47
0.0
 47
0.0
 47
0.0
 47
0.0
 47
1.0
171
     0
 49
0.0208333333333333
 49
0.0
 49
0.0
 49
0.0
 49
0.0
 49
0.0208333333333333
 49
0.0
 49
0.0
 49
0.0
 49
0.0
 49
1.0
 49
0.0
 49
0.0
 49
0.0
 49
0.0
 49
1.0
175
     0
142
0.0208333333333333
142
0.0
142
0.0
142
0.0
142
0.0
142
0.0208333333333333
142
0.0
142
0.0
142
0.0
142
0.0
142
1.0
142
0.0
142
0.0
142
0.0
142
0.0
142
1.0
179
     0
144
0.0208333333333333
144
0.0
144
0.0
144
0.0
144
0.0
144
0.0208333333333333
144
0.0
144
0.0
144
0.0
144
0.0
144
1.0
144
0.0
144
0.0
144
0.0
144
0.0
144
1.0
147
0.0208333333333333
147
0.0
147
0.0
147
0.0
147
0.0
147
0.0208333333333333
147
0.0
147
0.0
147
0.0
147
0.0
147
1.0
147
0.0
147
0.0
147
0.0
147
0.0
147
1.0
  0
MATERIAL
  5
21
102
{ACAD_XDICTIONARY
360
22
102
}
102
{ACAD_REACTORS
330
10
102
}
330
10
100
AcDbMaterial
  1
Global
 72
     0
 43
0.0208333333333333
 43
0.0
 43
0.0
 43
0.0
 43
0.0
 43
0.0208333333333333
 43
0.0
 43
0.0
 43
0.0
 43
0.0
 43
1.0
 43
0.0
 43
0.0
 43
0.0
 43
0.0
 43
1.0
 77
     0
 47
0.0208333333333333
 47
0.0
 47
0.0
 47
0.0
 47
0.0
 47
0.0208333333333333
 47
0.0
 47
0.0
 47
0.0
 47
0.0
 47
1.0
 47
0.0
 47
0.0
 47
0.0
 47
0.0
 47
1.0
171
     0
 49
0.0208333333333333
 49
0.0
 49
0.0
 49
0.0
 49
0.0
 49
0.0208333333333333
 49
0.0
 49
0.0
 49
0.0
 49
0.0
 49
1.0
 49
0.0
 49
0.0
 49
0.0
 49
0.0
 49
1.0
175
     0
142
0.0208333333333333
142
0.0
142
0.0
142
0.0
142
0.0
142
0.0208333333333333
142
0.0
142
0.0
142
0.0
142
0.0
142
1.0
142
0.0
142
0.0
142
0.0
142
0.0
142
1.0
179
     0
144
0.0208333333333333
144
0.0
144
0.0
144
0.0
144
0.0
144
0.0208333333333333
144
0.0
144
0.0
144
0.0
144
0.0
144
1.0
144
0.0
144
0.0
144
0.0
144
0.0
144
1.0
147
0.0208333333333333
147
0.0
147
0.0
147
0.0
147
0.0
147
0.0208333333333333
147
0.0
147
0.0
147
0.0
147
0.0
147
1.0
147
0.0
147
0.0
147
0.0
147
0.0
147
1.0
  0
MLEADERSTYLE
  5
67
102
{ACAD_REACTORS
330
66
102
}
330
66
100
AcDbMLeaderStyle
179
     2
170
     2
171
     1
172
     0
 90
        2
 40
0.0
 41
0.0
173
     1
 91
-1056964608
340
5B
 92
       -2
290
     1
 42
0.09
291
     1
 43
0.36
  3
Standard
 44
0.18
300

342
55
174
     1
178
     6
175
     1
176
     0
 93
-1056964608
 45
0.18
292
     0
297
     0
 46
0.18
 94
-1056964608
 47
1.0
 49
1.0
140
1.0
293
     1
141
0.0
294
     1
177
     0
142
1.0
295
     1
296
     0
143
0.125
271
     0
272
     9
273
     9
298
     1
  0
MLINESTYLE
  5
60
102
{ACAD_REACTORS
330
5F
102
}
330
5F
100
AcDbMlineStyle
  2
STANDARD
 70
     0
  3

 62
   256
 51
90.0
 52
90.0
 71
     2
 49
0.5
 62
   256
  6
BYLAYER
 49
-0.5
 62
   256
  6
BYLAYER
  0
ACDBPLACEHOLDER
  5
F
102
{ACAD_REACTORS
330
E
102
}
330
E
  0
SCALE
  5
43
102
{ACAD_REACTORS
330
42
102
}
330
42
100
AcDbScale
 70
     0
300
1:1
140
1.0
141
1.0
290
     1
  0
SCALE
  5
44
102
{ACAD_REACTORS
330
42
102
}
330
42
100
AcDbScale
 70
     0
300
1/128" = 1'-0"
140
0.0078125
141
12.0
290
     0
  0
SCALE
  5
45
102
{ACAD_REACTORS
330
42
102
}
330
42
100
AcDbScale
 70
     0
300
1/64" = 1'-0"
140
0.015625
141
12.0
290
     0
  0
SCALE
  5
46
102
{ACAD_REACTORS
330
42
102
}
330
42
100
AcDbScale
 70
     0
300
1/32" = 1'-0"
140
0.03125
141
12.0
290
     0
  0
SCALE
  5
47
102
{ACAD_REACTORS
330
42
102
}
330
42
100
AcDbScale
 70
     0
300
1/16" = 1'-0"
140
0.0625
141
12.0
290
     0
  0
SCALE
  5
48
102
{ACAD_REACTORS
330
42
102
}
330
42
100
AcDbScale
 70
     0
300
3/32" = 1'-0"
140
0.09375
141
12.0
290
     0
  0
SCALE
  5
49
102
{ACAD_REACTORS
330
42
102
}
330
42
100
AcDbScale
 70
     0
300
1/8" = 1'-0"
140
0.125
141
12.0
290
     0
  0
SCALE
  5
4A
102
{ACAD_REACTORS
330
42
102
}
330
42
100
AcDbScale
 70
     0
300
3/16" = 1'-0"
140
0.1875
141
12.0
290
     0
  0
SCALE
  5
4B
102
{ACAD_REACTORS
330
42
102
}
330
42
100
AcDbScale
 70
     0
300
1/4" = 1'-0"
140
0.25
141
12.0
290
     0
  0
SCALE
  5
4C
102
{ACAD_REACTORS
330
42
102
}
330
42
100
AcDbScale
 70
     0
300
3/8" = 1'-0"
140
0.375
141
12.0
290
     0
  0
SCALE
  5
4D
102
{ACAD_REACTORS
330
42
102
}
330
42
100
AcDbScale
 70
     0
300
1/2" = 1'-0"
140
0.5
141
12.0
290
     0
  0
SCALE
  5
4E
102
{ACAD_REACTORS
330
42
102
}
330
42
100
AcDbScale
 70
     0
300
3/4" = 1'-0"
140
0.75
141
12.0
290
     0
  0
SCALE
  5
4F
102
{ACAD_REACTORS
330
42
102
}
330
42
100
AcDbScale
 70
     0
300
1" = 1'-0"
140
1.0
141
12.0
290
     0
  0
SCALE
  5
50
102
{ACAD_REACTORS
330
42
102
}
330
42
100
AcDbScale
 70
     0
300
1-1/2" = 1'-0"
140
1.5
141
12.0
290
     0
  0
SCALE
  5
51
102
{ACAD_REACTORS
330
42
102
}
330
42
100
AcDbScale
 70
     0
300
3" = 1'-0"
140
3.0
141
12.0
290
     0
  0
SCALE
  5
52
102
{ACAD_REACTORS
330
42
102
}
330
42
100
AcDbScale
 70
     0
300
6" = 1'-0"
140
6.0
141
12.0
290
     0
  0
SCALE
  5
53
102
{ACAD_REACTORS
330
42
102
}
330
42
100
AcDbScale
 70
     0
300
1'-0" = 1'-0"
140
12.0
141
12.0
290
     0
  0
ACDBSECTIONVIEWSTYLE
  5
69
102
{ACAD_REACTORS
330
68
102
}
330
68
100
AcDbModelDocViewStyle
 70
     0
  3
Imperial24
290
     1
300
Imperial24
 90
        0
100
AcDbSectionViewStyle
 70
     0
 71
     0
 90
       78
 71
     1
340
55
 62
   256
 40
0.24
340
0
340
0
 62
   256
 40
0.24
300
I, O, Q, S, X, Z
 40
0.48
 90
        3
 40
0.18
 90
        1
 71
     2
340
5D
 90
       25
 62
   256
340
5D
 90
       50
 62
   256
 40
0.24
 40
0.0
 40
0.24
 71
     3
340
55
 62
   256
 40
0.24
 90
        1
 40
0.75
 90
        1
300
%<\AcVar ViewType \f "%tc1">% %<\AcVar ViewSectionStartId>%-%<\AcVar ViewSectionEndId>%\PSCALE %<\AcVar ViewScale \f "%sn">%
 71
     4
 62
   256
 62
   257
300
ANSI31
 40
1.0
 90
        0
290
     0
290
     0
 90
        6
 40
0.0
 40
1.570796326794896
 40
0.2617993877991494
 40
1.308996938995747
 40
-0.2617993877991494
 40
1.832595714594046
  0
TABLESTYLE
  5
65
102
{ACAD_XDICTIONARY
360
217
102
}
102
{ACAD_REACTORS
330
64
102
}
330
64
100
AcDbTableStyle
280
     0
  3
Standard
 70
     0
 71
     0
 40
0.06
 41
0.06
280
     0
281
     0
  7
Standard
140
0.18
170
     2
 62
     0
 63
     7
283
     0
 90
      512
 91
        0
  1

274
    -2
284
     1
 64
     0
275
    -2
285
     1
 65
     0
276
    -2
286
     1
 66
     0
277
    -2
287
     1
 67
     0
278
    -2
288
     1
 68
     0
279
    -2
289
     1
 69
     0
  7
Standard
140
0.25
170
     5
 62
     0
 63
     7
283
     0
 90
      512
 91
        0
  1

274
    -2
284
     1
 64
     0
275
    -2
285
     1
 65
     0
276
    -2
286
     1
 66
     0
277
    -2
287
     1
 67
     0
278
    -2
288
     1
 68
     0
279
    -2
289
     1
 69
     0
  7
Standard
140
0.18
170
     5
 62
     0
 63
     7
283
     0
 90
      512
 91
        0
  1

274
    -2
284
     1
 64
     0
275
    -2
285
     1
 65
     0
276
    -2
286
     1
 66
     0
277
    -2
287
     1
 67
     0
278
    -2
288
     1
 68
     0
279
    -2
289
     1
 69
     0
  0
VISUALSTYLE
  5
2F
102
{ACAD_REACTORS
330
29
102
}
330
29
100
AcDbVisualStyle
  2
2dWireframe
 70
     4
177
     3
291
     0
 70
    58
 90
        0
176
     1
 90
        2
176
     1
 90
        0
176
     1
 90
        0
176
     1
 40
0.6
176
     1
 40
30.0
176
     1
 62
     7
420
 16777215
176
     1
 90
        1
176
     1
 90
        4
176
     1
 62
     7
176
     1
 62
   257
176
     1
 90
        1
176
     1
 90
        1
176
     1
 40
1.0
176
     1
 90
        0
176
     1
 62
   257
176
     1
 40
1.0
176
     1
 90
        1
176
     1
 90
        6
176
     1
 90
        2
176
     1
 62
     7
176
     1
 90
        5
176
     1
 90
        0
176
     1
 90
        0
176
     1
290
     0
176
     1
 90
        1
176
     1
 40
0.0
176
     1
 90
        0
176
     1
290
     1
176
     1
290
     1
176
     1
290
     0
176
     1
290
     0
176
     1
290
     0
176
     1
290
     0
176
     1
290
     0
176
     1
290
     0
176
     1
290
     0
176
     1
 90
       50
176
     1
 40
0.0
176
     1
 40
1.0
176
     1
 90
        0
176
     1
 62
    18
420
        0
176
     1
 90
       50
176
     1
 90
        3
176
     1
 62
     5
420
      255
176
     1
290
     0
176
     1
 90
       50
176
     1
 90
       50
176
     1
 90
       50
176
     1
290
     0
176
     1
 90
       50
176
     1
 62
   256
176
     0
 40
1.0
176
     0
 90
        2
176
     1
  1
strokes_ogs.tif
176
     1
290
     0
176
     1
 40
1.0
176
     1
 40
1.0
176
     1
  0
VISUALSTYLE
  5
2E
102
{ACAD_REACTORS
330
29
102
}
330
29
100
AcDbVisualStyle
  2
Basic
 70
     7
177
     3
291
     1
 70
    58
 90
        1
176
     1
 90
        0
176
     1
 90
        1
176
     1
 90
        0
176
     1
 40
0.6
176
     1
 40
30.0
176
     1
 62
     7
420
 16777215
176
     1
 90
        0
176
     1
 90
        4
176
     1
 62
     7
176
     1
 62
   257
176
     1
 90
        1
176
     1
 90
        1
176
     1
 40
1.0
176
     1
 90
        8
176
     1
 62
     7
176
     1
 40
1.0
176
     1
 90
        1
176
     1
 90
        6
176
     1
 90
        2
176
     1
 62
     7
176
     1
 90
        5
176
     1
 90
        0
176
     1
 90
        0
176
     1
290
     0
176
     1
 90
        1
176
     1
 40
0.0
176
     1
 90
        0
176
     1
290
     0
176
     1
290
     1
176
     1
290
     1
176
     1
290
     0
176
     1
290
     0
176
     1
290
     0
176
     1
290
     0
176
     1
290
     0
176
     1
290
     0
176
     1
 90
       50
176
     1
 40
0.0
176
     1
 40
1.0
176
     1
 90
        0
176
     1
 62
    18
420
        0
176
     1
 90
       50
176
     1
 90
        3
176
     1
 62
     5
420
      255
176
     1
290
     0
176
     1
 90
       50
176
     1
 90
       50
176
     1
 90
       50
176
     1
290
     0
176
     1
 90
       50
176
     1
 62
   256
176
     0
 40
1.0
176
     0
 90
        2
176
     1
  1
strokes_ogs.tif
176
     1
290
     0
176
     1
 40
1.0
176
     1
 40
1.0
176
     1
  0
VISUALSTYLE
  5
35
102
{ACAD_REACTORS
330
29
102
}
330
29
100
AcDbVisualStyle
  2
Brighten
 70
    12
177
     3
291
     1
 70
    58
 90
        2
176
     1
 90
        2
176
     1
 90
        0
176
     1
 90
        0
176
     1
 40
0.6
176
     1
 40
30.0
176
     1
 62
     7
420
 16777215
176
     1
 90
        1
176
     1
 90
        4
176
     1
 62
     7
176
     1
 62
   257
176
     1
 90
        1
176
     1
 90
        1
176
     1
 40
1.0
176
     1
 90
        8
176
     1
 62
     7
176
     1
 40
1.0
176
     1
 90
        1
176
     1
 90
        6
176
     1
 90
        2
176
     1
 62
     7
176
     1
 90
        5
176
     1
 90
        0
176
     1
 90
        0
176
     1
290
     0
176
     1
 90
        1
176
     1
 40
50.0
176
     1
 90
        0
176
     1
290
     0
176
     1
290
     1
176
     1
290
     1
176
     1
290
     0
176
     1
290
     0
176
     1
290
     0
176
     1
290
     0
176
     1
290
     0
176
     1
290
     0
176
     1
 90
       50
176
     1
 40
0.0
176
     1
 40
1.0
176
     1
 90
        0
176
     1
 62
    18
420
        0
176
     1
 90
       50
176
     1
 90
        3
176
     1
 62
     5
420
      255
176
     1
290
     0
176
     1
 90
       50
176
     1
 90
       50
176
     1
 90
       50
176
     1
290
     0
176
     1
 90
       50
176
     1
 62
   256
176
     0
 40
1.0
176
     0
 90
        2
176
     1
  1
strokes_ogs.tif
176
     1
290
     0
176
     1
 40
1.0
176
     1
 40
1.0
176
     1
  0
VISUALSTYLE
  5
39
102
{ACAD_REACTORS
330
29
102
}
330
29
100
AcDbVisualStyle
  2
ColorChange
 70
    16
177
     3
291
     1
 70
    58
 90
        2
176
     1
 90
        2
176
     1
 90
        3
176
     1
 90
        0
176
     1
 40
0.6
176
     1
 40
30.0
176
     1
 62
     8
420
  8421504
176
     1
 90
        1
176
     1
 90
        4
176
     1
 62
     7
176
     1
 62
   257
176
     1
 90
        1
176
     1
 90
        1
176
     1
 40
1.0
176
     1
 90
        8
176
     1
 62
     8
420
  8421504
176
     1
 40
1.0
176
     1
 90
        1
176
     1
 90
        6
176
     1
 90
        2
176
     1
 62
     7
176
     1
 90
        5
176
     1
 90
        0
176
     1
 90
        0
176
     1
290
     0
176
     1
 90
        1
176
     1
 40
0.0
176
     1
 90
        0
176
     1
290
     0
176
     1
290
     1
176
     1
290
     1
176
     1
290
     0
176
     1
290
     0
176
     1
290
     0
176
     1
290
     0
176
     1
290
     0
176
     1
290
     0
176
     1
 90
       50
176
     1
 40
0.0
176
     1
 40
1.0
176
     1
 90
        0
176
     1
 62
    18
420
        0
176
     1
 90
       50
176
     1
 90
        3
176
     1
 62
     5
420
      255
176
     1
290
     0
176
     1
 90
       50
176
     1
 90
       50
176
     1
 90
       50
176
     1
290
     0
176
     1
 90
       50
176
     1
 62
   256
176
     0
 40
1.0
176
     0
 90
        2
176
     1
  1
strokes_ogs.tif
176
     1
290
     0
176
     1
 40
1.0
176
     1
 40
1.0
176
     1
  0
VISUALSTYLE
  5
32
102
{ACAD_REACTORS
330
29
102
}
330
29
100
AcDbVisualStyle
  2
Conceptual
 70
     9
177
     3
291
     0
 70
    58
 90
        3
176
     1
 90
        2
176
     1
 90
        0
176
     1
 90
        0
176
     1
 40
0.6
176
     1
 40
30.0
176
     1
 62
     7
420
 16777215
176
     1
 90
        2
176
     1
 90
        2
176
     1
 62
     7
176
     1
 62
   257
176
     1
 90
        1
176
     1
 90
        1
176
     1
 40
179.0
176
     1
 90
        8
176
     1
 62
     7
176
     1
 40
1.0
176
     1
 90
        1
176
     1
 90
        6
176
     1
 90
        2
176
     1
 62
     7
176
     1
 90
        3
176
     1
 90
        0
176
     1
 90
        0
176
     1
290
     0
176
     1
 90
        1
176
     1
 40
0.0
176
     1
 90
        0
176
     1
290
     0
176
     1
290
     1
176
     1
290
     1
176
     1
290
     0
176
     1
290
     0
176
     1
290
     0
176
     1
290
     0
176
     1
290
     0
176
     1
290
     0
176
     1
 90
       50
176
     1
 40
0.0
176
     1
 40
1.0
176
     1
 90
        0
176
     1
 62
    18
420
        0
176
     1
 90
       50
176
     1
 90
        3
176
     1
 62
     5
420
      255
176
     1
290
     0
176
     1
 90
       50
176
     1
 90
       50
176
     1
 90
       50
176
     1
290
     0
176
     1
 90
       50
176
     1
 62
   256
176
     0
 40
1.0
176
     0
 90
        2
176
     1
  1
strokes_ogs.tif
176
     1
290
     0
176
     1
 40
1.0
176
     1
 40
1.0
176
     1
  0
VISUALSTYLE
  5
34
102
{ACAD_REACTORS
330
29
102
}
330
29
100
AcDbVisualStyle
  2
Dim
 70
    11
177
     3
291
     1
 70
    58
 90
        2
176
     1
 90
        2
176
     1
 90
        0
176
     1
 90
        0
176
     1
 40
0.6
176
     1
 40
30.0
176
     1
 62
     7
420
 16777215
176
     1
 90
        1
176
     1
 90
        4
176
     1
 62
     7
176
     1
 62
   257
176
     1
 90
        1
176
     1
 90
        1
176
     1
 40
1.0
176
     1
 90
        8
176
     1
 62
     7
176
     1
 40
1.0
176
     1
 90
        1
176
     1
 90
        6
176
     1
 90
        2
176
     1
 62
     7
176
     1
 90
        5
176
     1
 90
        0
176
     1
 90
        0
176
     1
290
     0
176
     1
 90
        1
176
     1
 40
-50.0
176
     1
 90
        0
176
     1
290
     0
176
     1
290
     1
176
     1
290
     1
176
     1
290
     0
176
     1
290
     0
176
     1
290
     0
176
     1
290
     0
176
     1
290
     0
176
     1
290
     0
176
     1
 90
       50
176
     1
 40
0.0
176
     1
 40
1.0
176
     1
 90
        0
176
     1
 62
    18
420
        0
176
     1
 90
       50
176
     1
 90
        3
176
     1
 62
     5
420
      255
176
     1
290
     0
176
     1
 90
       50
176
     1
 90
       50
176
     1
 90
       50
176
     1
290
     0
176
     1
 90
       50
176
     1
 62
   256
176
     0
 40
1.0
176
     0
 90
        2
176
     1
  1
strokes_ogs.tif
176
     1
290
     0
176
     1
 40
1.0
176
     1
 40
1.0
176
     1
  0
VISUALSTYLE
  5
41
102
{ACAD_REACTORS
330
29
102
}
330
29
100
AcDbVisualStyle
  2
EdgeColorOff
 70
    22
177
     3
291
     1
 70
    58
 90
        2
176
     0
 90
        2
176
     0
 90
        0
176
     0
 90
        0
176
     0
 40
0.6
176
     0
 40
30.0
176
     0
 62
     7
420
 16777215
176
     0
 90
        1
176
     0
 90
        4
176
     0
 62
     7
176
     0
 62
   257
176
     0
 90
        1
176
     0
 90
        1
176
     0
 40
1.0
176
     0
 90
        8
176
     2
 62
     7
176
     0
 40
1.0
176
     0
 90
        1
176
     0
 90
        6
176
     0
 90
        2
176
     0
 62
     7
176
     0
 90
        5
176
     0
 90
        0
176
     0
 90
        0
176
     0
290
     0
176
     0
 90
        1
176
     0
 40
0.0
176
     0
 90
        0
176
     0
290
     0
176
     0
290
     1
176
     0
290
     1
176
     0
290
     0
176
     0
290
     0
176
     0
290
     0
176
     0
290
     0
176
     0
290
     0
176
     0
290
     0
176
     0
 90
       50
176
     0
 40
0.0
176
     0
 40
1.0
176
     0
 90
        0
176
     0
 62
    18
420
        0
176
     0
 90
       50
176
     0
 90
        3
176
     0
 62
     5
420
      255
176
     0
290
     0
176
     0
 90
       50
176
     0
 90
       50
176
     0
 90
       50
176
     0
290
     0
176
     0
 90
       50
176
     0
 62
   256
176
     0
 40
1.0
176
     0
 90
        2
176
     0
  1
strokes_ogs.tif
176
     0
290
     0
176
     0
 40
1.0
176
     0
 40
1.0
176
     0
  0
VISUALSTYLE
  5
38
102
{ACAD_REACTORS
330
29
102
}
330
29
100
AcDbVisualStyle
  2
Facepattern
 70
    15
177
     3
291
     1
 70
    58
 90
        2
176
     1
 90
        2
176
     1
 90
        0
176
     1
 90
        0
176
     1
 40
0.6
176
     1
 40
30.0
176
     1
 62
     7
420
 16777215
176
     1
 90
        1
176
     1
 90
        4
176
     1
 62
     7
176
     1
 62
   257
176
     1
 90
        1
176
     1
 90
        1
176
     1
 40
1.0
176
     1
 90
        8
176
     1
 62
     7
176
     1
 40
1.0
176
     1
 90
        1
176
     1
 90
        6
176
     1
 90
        2
176
     1
 62
     7
176
     1
 90
        5
176
     1
 90
        0
176
     1
 90
        0
176
     1
290
     0
176
     1
 90
        1
176
     1
 40
0.0
176
     1
 90
        0
176
     1
290
     0
176
     1
290
     1
176
     1
290
     1
176
     1
290
     0
176
     1
290
     0
176
     1
290
     0
176
     1
290
     0
176
     1
290
     0
176
     1
290
     0
176
     1
 90
       50
176
     1
 40
0.0
176
     1
 40
1.0
176
     1
 90
        0
176
     1
 62
    18
420
        0
176
     1
 90
       50
176
     1
 90
        3
176
     1
 62
     5
420
      255
176
     1
290
     0
176
     1
 90
       50
176
     1
 90
       50
176
     1
 90
       50
176
     1
290
     0
176
     1
 90
       50
176
     1
 62
   256
176
     0
 40
1.0
176
     0
 90
        2
176
     1
  1
strokes_ogs.tif
176
     1
290
     0
176
     1
 40
1.0
176
     1
 40
1.0
176
     1
  0
VISUALSTYLE
  5
2A
102
{ACAD_REACTORS
330
29
102
}
330
29
100
AcDbVisualStyle
  2
Flat
 70
     0
177
     3
291
     1
 70
    58
 90
        2
176
     1
 90
        1
176
     1
 90
        1
176
     1
 90
        2
176
     1
 40
0.6
176
     1
 40
30.0
176
     1
 62
     7
420
 16777215
176
     1
 90
        0
176
     1
 90
        0
176
     1
 62
     7
176
     1
 62
   257
176
     1
 90
        1
176
     1
 90
        1
176
     1
 40
1.0
176
     1
 90
        8
176
     1
 62
     7
176
     1
 40
1.0
176
     1
 90
        1
176
     1
 90
        6
176
     1
 90
        2
176
     1
 62
     7
176
     1
 90
        5
176
     1
 90
        0
176
     1
 90
        0
176
     1
290
     0
176
     1
 90
       13
176
     1
 40
0.0
176
     1
 90
        0
176
     1
290
     0
176
     1
290
     1
176
     1
290
     1
176
     1
290
     0
176
     1
290
     0
176
     1
290
     0
176
     1
290
     0
176
     1
290
     0
176
     1
290
     0
176
     1
 90
       50
176
     1
 40
0.0
176
     1
 40
1.0
176
     1
 90
        0
176
     1
 62
    18
420
        0
176
     1
 90
       50
176
     1
 90
        3
176
     1
 62
     5
420
      255
176
     1
290
     0
176
     1
 90
       50
176
     1
 90
       50
176
     1
 90
       50
176
     1
290
     0
176
     1
 90
       50
176
     1
 62
   256
176
     0
 40
1.0
176
     0
 90
        2
176
     1
  1
strokes_ogs.tif
176
     1
290
     0
176
     1
 40
1.0
176
     1
 40
1.0
176
     1
  0
VISUALSTYLE
  5
2B
102
{ACAD_REACTORS
330
29
102
}
330
29
100
AcDbVisualStyle
  2
FlatWithEdges
 70
     1
177
     3
291
     1
 70
    58
 90
        2
176
     1
 90
        1
176
     1
 90
        1
176
     1
 90
        2
176
     1
 40
0.6
176
     1
 40
30.0
176
     1
 62
     7
420
 16777215
176
     1
 90
        1
176
     1
 90
        0
176
     1
 62
     7
176
     1
 62
   257
176
     1
 90
        1
176
     1
 90
        1
176
     1
 40
1.0
176
     1
 90
        0
176
     1
 62
   257
176
     1
 40
1.0
176
     1
 90
        1
176
     1
 90
        6
176
     1
 90
        2
176
     1
 62
     7
176
     1
 90
        5
176
     1
 90
        0
176
     1
 90
        0
176
     1
290
     0
176
     1
 90
       13
176
     1
 40
0.0
176
     1
 90
        0
176
     1
290
     0
176
     1
290
     1
176
     1
290
     1
176
     1
290
     0
176
     1
290
     0
176
     1
290
     0
176
     1
290
     0
176
     1
290
     0
176
     1
290
     0
176
     1
 90
       50
176
     1
 40
0.0
176
     1
 40
1.0
176
     1
 90
        0
176
     1
 62
    18
420
        0
176
     1
 90
       50
176
     1
 90
        3
176
     1
 62
     5
420
      255
176
     1
290
     0
176
     1
 90
       50
176
     1
 90
       50
176
     1
 90
       50
176
     1
290
     0
176
     1
 90
       50
176
     1
 62
   256
176
     0
 40
1.0
176
     0
 90
        2
176
     1
  1
strokes_ogs.tif
176
     1
290
     0
176
     1
 40
1.0
176
     1
 40
1.0
176
     1
  0
VISUALSTYLE
  5
2C
102
{ACAD_REACTORS
330
29
102
}
330
29
100
AcDbVisualStyle
  2
Gouraud
 70
     2
177
     3
291
     1
 70
    58
 90
        2
176
     1
 90
        2
176
     1
 90
        1
176
     1
 90
        2
176
     1
 40
0.6
176
     1
 40
30.0
176
     1
 62
     7
420
 16777215
176
     1
 90
        0
176
     1
 90
        0
176
     1
 62
     7
176
     1
 62
   257
176
     1
 90
        1
176
     1
 90
        1
176
     1
 40
1.0
176
     1
 90
        0
176
     1
 62
     7
176
     1
 40
1.0
176
     1
 90
        1
176
     1
 90
        6
176
     1
 90
        2
176
     1
 62
     7
176
     1
 90
        5
176
     1
 90
        0
176
     1
 90
        0
176
     1
290
     0
176
     1
 90
       13
176
     1
 40
0.0
176
     1
 90
        0
176
     1
290
     0
176
     1
290
     1
176
     1
290
     1
176
     1
290
     0
176
     1
290
     0
176
     1
290
     0
176
     1
290
     0
176
     1
290
     0
176
     1
290
     0
176
     1
 90
       50
176
     1
 40
0.0
176
     1
 40
1.0
176
     1
 90
        0
176
     1
 62
    18
420
        0
176
     1
 90
       50
176
     1
 90
        3
176
     1
 62
     5
420
      255
176
     1
290
     0
176
     1
 90
       50
176
     1
 90
       50
176
     1
 90
       50
176
     1
290
     0
176
     1
 90
       50
176
     1
 62
   256
176
     0
 40
1.0
176
     0
 90
        2
176
     1
  1
strokes_ogs.tif
176
     1
290
     0
176
     1
 40
1.0
176
     1
 40
1.0
176
     1
  0
VISUALSTYLE
  5
2D
102
{ACAD_REACTORS
330
29
102
}
330
29
100
AcDbVisualStyle
  2
GouraudWithEdges
 70
     3
177
     3
291
     1
 70
    58
 90
        2
176
     1
 90
        2
176
     1
 90
        1
176
     1
 90
        2
176
     1
 40
0.6
176
     1
 40
30.0
176
     1
 62
     7
420
 16777215
176
     1
 90
        1
176
     1
 90
        0
176
     1
 62
     7
176
     1
 62
   257
176
     1
 90
        1
176
     1
 90
        1
176
     1
 40
1.0
176
     1
 90
        0
176
     1
 62
   257
176
     1
 40
1.0
176
     1
 90
        1
176
     1
 90
        6
176
     1
 90
        2
176
     1
 62
     7
176
     1
 90
        5
176
     1
 90
        0
176
     1
 90
        0
176
     1
290
     0
176
     1
 90
       13
176
     1
 40
0.0
176
     1
 90
        0
176
     1
290
     0
176
     1
290
     1
176
     1
290
     1
176
     1
290
     0
176
     1
290
     0
176
     1
290
     0
176
     1
290
     0
176
     1
290
     0
176
     1
290
     0
176
     1
 90
       50
176
     1
 40
0.0
176
     1
 40
1.0
176
     1
 90
        0
176
     1
 62
    18
420
        0
176
     1
 90
       50
176
     1
 90
        3
176
     1
 62
     5
420
      255
176
     1
290
     0
176
     1
 90
       50
176
     1
 90
       50
176
     1
 90
       50
176
     1
290
     0
176
     1
 90
       50
176
     1
 62
   256
176
     0
 40
1.0
176
     0
 90
        2
176
     1
  1
strokes_ogs.tif
176
     1
290
     0
176
     1
 40
1.0
176
     1
 40
1.0
176
     1
  0
VISUALSTYLE
  5
31
102
{ACAD_REACTORS
330
29
102
}
330
29
100
AcDbVisualStyle
  2
Hidden
 70
     6
177
     3
291
     0
 70
    58
 90
        1
176
     1
 90
        2
176
     1
 90
        2
176
     1
 90
        0
176
     1
 40
0.6
176
     1
 40
30.0
176
     1
 62
     7
420
 16777215
176
     1
 90
        2
176
     1
 90
        2
176
     1
 62
     7
176
     1
 62
   257
176
     1
 90
        2
176
     1
 90
        1
176
     1
 40
40.0
176
     1
 90
        0
176
     1
 62
   257
176
     1
 40
1.0
176
     1
 90
        1
176
     1
 90
        6
176
     1
 90
        2
176
     1
 62
     7
176
     1
 90
        3
176
     1
 90
        0
176
     1
 90
        0
176
     1
290
     0
176
     1
 90
        1
176
     1
 40
0.0
176
     1
 90
        0
176
     1
290
     0
176
     1
290
     1
176
     1
290
     1
176
     1
290
     0
176
     1
290
     0
176
     1
290
     0
176
     1
290
     0
176
     1
290
     0
176
     1
290
     0
176
     1
 90
       50
176
     1
 40
0.0
176
     1
 40
1.0
176
     1
 90
        0
176
     1
 62
    18
420
        0
176
     1
 90
       50
176
     1
 90
        3
176
     1
 62
     5
420
      255
176
     1
290
     0
176
     1
 90
       50
176
     1
 90
       50
176
     1
 90
       50
176
     1
290
     0
176
     1
 90
       50
176
     1
 62
   256
176
     0
 40
1.0
176
     0
 90
        2
176
     1
  1
strokes_ogs.tif
176
     1
290
     0
176
     1
 40
1.0
176
     1
 40
1.0
176
     1
  0
VISUALSTYLE
  5
3F
102
{ACAD_REACTORS
330
29
102
}
330
29
100
AcDbVisualStyle
  2
JitterOff
 70
    20
177
     3
291
     1
 70
    58
 90
        2
176
     0
 90
        2
176
     0
 90
        0
176
     0
 90
        0
176
     0
 40
0.6
176
     0
 40
30.0
176
     0
 62
     7
420
 16777215
176
     0
 90
        1
176
     0
 90
        4
176
     0
 62
     7
176
     0
 62
   257
176
     0
 90
        1
176
     0
 90
        1
176
     0
 40
1.0
176
     0
 90
       10
176
     2
 62
     7
176
     0
 40
1.0
176
     0
 90
        1
176
     0
 90
        6
176
     0
 90
        2
176
     0
 62
     7
176
     0
 90
        5
176
     0
 90
        0
176
     0
 90
        0
176
     0
290
     0
176
     0
 90
        1
176
     0
 40
0.0
176
     0
 90
        0
176
     0
290
     0
176
     0
290
     1
176
     0
290
     1
176
     0
290
     0
176
     0
290
     0
176
     0
290
     0
176
     0
290
     0
176
     0
290
     0
176
     0
290
     0
176
     0
 90
       50
176
     0
 40
0.0
176
     0
 40
1.0
176
     0
 90
        0
176
     0
 62
    18
420
        0
176
     0
 90
       50
176
     0
 90
        3
176
     0
 62
     5
420
      255
176
     0
290
     0
176
     0
 90
       50
176
     0
 90
       50
176
     0
 90
       50
176
     0
290
     0
176
     0
 90
       50
176
     0
 62
   256
176
     0
 40
1.0
176
     0
 90
        2
176
     0
  1
strokes_ogs.tif
176
     0
290
     0
176
     0
 40
1.0
176
     0
 40
1.0
176
     0
  0
VISUALSTYLE
  5
37
102
{ACAD_REACTORS
330
29
102
}
330
29
100
AcDbVisualStyle
  2
Linepattern
 70
    14
177
     3
291
     1
 70
    58
 90
        2
176
     1
 90
        2
176
     1
 90
        0
176
     1
 90
        0
176
     1
 40
0.6
176
     1
 40
30.0
176
     1
 62
     7
420
 16777215
176
     1
 90
        1
176
     1
 90
        4
176
     1
 62
     7
176
     1
 62
   257
176
     1
 90
        7
176
     1
 90
        7
176
     1
 40
1.0
176
     1
 90
        8
176
     1
 62
     7
176
     1
 40
1.0
176
     1
 90
        1
176
     1
 90
        6
176
     1
 90
        2
176
     1
 62
     7
176
     1
 90
        5
176
     1
 90
        0
176
     1
 90
        0
176
     1
290
     0
176
     1
 90
        1
176
     1
 40
0.0
176
     1
 90
        0
176
     1
290
     0
176
     1
290
     1
176
     1
290
     1
176
     1
290
     0
176
     1
290
     0
176
     1
290
     0
176
     1
290
     0
176
     1
290
     0
176
     1
290
     0
176
     1
 90
       50
176
     1
 40
0.0
176
     1
 40
1.0
176
     1
 90
        0
176
     1
 62
    18
420
        0
176
     1
 90
       50
176
     1
 90
        3
176
     1
 62
     5
420
      255
176
     1
290
     0
176
     1
 90
       50
176
     1
 90
       50
176
     1
 90
       50
176
     1
290
     0
176
     1
 90
       50
176
     1
 62
   256
176
     0
 40
1.0
176
     0
 90
        2
176
     1
  1
strokes_ogs.tif
176
     1
290
     0
176
     1
 40
1.0
176
     1
 40
1.0
176
     1
  0
VISUALSTYLE
  5
40
102
{ACAD_REACTORS
330
29
102
}
330
29
100
AcDbVisualStyle
  2
OverhangOff
 70
    21
177
     3
291
     1
 70
    58
 90
        2
176
     0
 90
        2
176
     0
 90
        0
176
     0
 90
        0
176
     0
 40
0.6
176
     0
 40
30.0
176
     0
 62
     7
420
 16777215
176
     0
 90
        1
176
     0
 90
        4
176
     0
 62
     7
176
     0
 62
   257
176
     0
 90
        1
176
     0
 90
        1
176
     0
 40
1.0
176
     0
 90
        9
176
     2
 62
     7
176
     0
 40
1.0
176
     0
 90
        1
176
     0
 90
        6
176
     0
 90
        2
176
     0
 62
     7
176
     0
 90
        5
176
     0
 90
        0
176
     0
 90
        0
176
     0
290
     0
176
     0
 90
        1
176
     0
 40
0.0
176
     0
 90
        0
176
     0
290
     0
176
     0
290
     1
176
     0
290
     1
176
     0
290
     0
176
     0
290
     0
176
     0
290
     0
176
     0
290
     0
176
     0
290
     0
176
     0
290
     0
176
     0
 90
       50
176
     0
 40
0.0
176
     0
 40
1.0
176
     0
 90
        0
176
     0
 62
    18
420
        0
176
     0
 90
       50
176
     0
 90
        3
176
     0
 62
     5
420
      255
176
     0
290
     0
176
     0
 90
       50
176
     0
 90
       50
176
     0
 90
       50
176
     0
290
     0
176
     0
 90
       50
176
     0
 62
   256
176
     0
 40
1.0
176
     0
 90
        2
176
     0
  1
strokes_ogs.tif
176
     0
290
     0
176
     0
 40
1.0
176
     0
 40
1.0
176
     0
  0
VISUALSTYLE
  5
33
102
{ACAD_REACTORS
330
29
102
}
330
29
100
AcDbVisualStyle
  2
Realistic
 70
     8
177
     3
291
     0
 70
    58
 90
        2
176
     1
 90
        3
176
     1
 90
        0
176
     1
 90
        2
176
     1
 40
0.6
176
     1
 40
30.0
176
     1
 62
     7
420
 16777215
176
     1
 90
        0
176
     1
 90
        0
176
     1
 62
     7
176
     1
 62
   257
176
     1
 90
        1
176
     1
 90
        1
176
     1
 40
1.0
176
     1
 90
        8
176
     1
 62
   257
176
     1
 40
1.0
176
     1
 90
        1
176
     1
 90
        6
176
     1
 90
        2
176
     1
 62
     7
176
     1
 90
        3
176
     1
 90
        0
176
     1
 90
        0
176
     1
290
     0
176
     1
 90
       13
176
     1
 40
0.0
176
     1
 90
        0
176
     1
290
     0
176
     1
290
     1
176
     1
290
     1
176
     1
290
     0
176
     1
290
     0
176
     1
290
     0
176
     1
290
     0
176
     1
290
     0
176
     1
290
     0
176
     1
 90
       50
176
     1
 40
0.0
176
     1
 40
1.0
176
     1
 90
        0
176
     1
 62
    18
420
        0
176
     1
 90
       50
176
     1
 90
        3
176
     1
 62
     5
420
      255
176
     1
290
     0
176
     1
 90
       50
176
     1
 90
       50
176
     1
 90
       50
176
     1
290
     0
176
     1
 90
       50
176
     1
 62
   256
176
     0
 40
1.0
176
     0
 90
        2
176
     1
  1
strokes_ogs.tif
176
     1
290
     0
176
     1
 40
1.0
176
     1
 40
1.0
176
     1
  0
VISUALSTYLE
  5
3E
102
{ACAD_REACTORS
330
29
102
}
330
29
100
AcDbVisualStyle
  2
Shaded
 70
    27
177
     3
291
     0
 70
    58
 90
        2
176
     1
 90
        2
176
     1
 90
        1
176
     1
 90
        2
176
     1
 40
0.6
176
     1
 40
30.0
176
     1
 62
     7
420
 16777215
176
     1
 90
        0
176
     1
 90
        4
176
     1
 62
     7
176
     1
 62
   257
176
     1
 90
        1
176
     1
 90
        1
176
     1
 40
1.0
176
     1
 90
        8
176
     1
 62
   257
176
     1
 40
1.0
176
     1
 90
        1
176
     1
 90
        6
176
     1
 90
        2
176
     1
 62
     8
420
  7895160
176
     1
 90
        3
176
     1
 90
        0
176
     1
 90
        0
176
     1
290
     0
176
     1
 90
        5
176
     1
 40
0.0
176
     1
 90
        0
176
     1
290
     0
176
     1
290
     1
176
     1
290
     1
176
     1
290
     0
176
     1
290
     0
176
     1
290
     0
176
     1
290
     0
176
     1
290
     0
176
     1
290
     0
176
     1
 90
       50
176
     1
 40
0.0
176
     1
 40
1.0
176
     1
 90
        0
176
     1
 62
    18
420
        0
176
     1
 90
       50
176
     1
 90
        3
176
     1
 62
     5
420
      255
176
     1
290
     0
176
     1
 90
       50
176
     1
 90
       50
176
     1
 90
       50
176
     1
290
     0
176
     1
 90
       50
176
     1
 62
   256
176
     0
 40
1.0
176
     0
 90
        2
176
     1
  1
strokes_ogs.tif
176
     1
290
     0
176
     1
 40
1.0
176
     1
 40
1.0
176
     1
  0
VISUALSTYLE
  5
3D
102
{ACAD_REACTORS
330
29
102
}
330
29
100
AcDbVisualStyle
  2
Shaded with edges
 70
    26
177
     3
291
     0
 70
    58
 90
        2
176
     1
 90
        2
176
     1
 90
        1
176
     1
 90
        2
176
     1
 40
0.6
176
     1
 40
30.0
176
     1
 62
     7
420
 16777215
176
     1
 90
        1
176
     1
 90
        2
176
     1
 62
     7
176
     1
 62
   257
176
     1
 90
        2
176
     1
 90
        1
176
     1
 40
1.0
176
     1
 90
        8
176
     1
 62
   257
176
     1
 40
1.0
176
     1
 90
        1
176
     1
 90
        6
176
     1
 90
        2
176
     1
 62
     7
176
     1
 90
        3
176
     1
 90
        0
176
     1
 90
        0
176
     1
290
     0
176
     1
 90
        5
176
     1
 40
0.0
176
     1
 90
        0
176
     1
290
     0
176
     1
290
     1
176
     1
290
     1
176
     1
290
     0
176
     1
290
     0
176
     1
290
     0
176
     1
290
     0
176
     1
290
     0
176
     1
290
     0
176
     1
 90
       50
176
     1
 40
0.0
176
     1
 40
1.0
176
     1
 90
        0
176
     1
 62
    18
420
        0
176
     1
 90
       50
176
     1
 90
        3
176
     1
 62
     5
420
      255
176
     1
290
     0
176
     1
 90
       50
176
     1
 90
       50
176
     1
 90
       50
176
     1
290
     0
176
     1
 90
       50
176
     1
 62
   256
176
     0
 40
1.0
176
     0
 90
        2
176
     1
  1
strokes_ogs.tif
176
     1
290
     0
176
     1
 40
1.0
176
     1
 40
1.0
176
     1
  0
VISUALSTYLE
  5
3A
102
{ACAD_REACTORS
330
29
102
}
330
29
100
AcDbVisualStyle
  2
Shades of Gray
 70
    23
177
     3
291
     0
 70
    58
 90
        2
176
     1
 90
        2
176
     1
 90
        3
176
     1
 90
        0
176
     1
 40
0.6
176
     1
 40
30.0
176
     1
 62
     7
420
 16777215
176
     1
 90
        2
176
     1
 90
        2
176
     1
 62
     7
176
     1
 62
     7
176
     1
 90
        1
176
     1
 90
        1
176
     1
 40
40.0
176
     1
 90
        8
176
     1
 62
     7
176
     1
 40
1.0
176
     1
 90
        1
176
     1
 90
        6
176
     1
 90
        2
176
     1
 62
     7
176
     1
 90
        3
176
     1
 90
        0
176
     1
 90
        0
176
     1
290
     0
176
     1
 90
        1
176
     1
 40
0.0
176
     1
 90
        0
176
     1
290
     0
176
     1
290
     1
176
     1
290
     1
176
     1
290
     0
176
     1
290
     0
176
     1
290
     0
176
     1
290
     0
176
     1
290
     0
176
     1
290
     0
176
     1
 90
       50
176
     1
 40
0.0
176
     1
 40
1.0
176
     1
 90
        0
176
     1
 62
    18
420
        0
176
     1
 90
       50
176
     1
 90
        3
176
     1
 62
     5
420
      255
176
     1
290
     0
176
     1
 90
       50
176
     1
 90
       50
176
     1
 90
       50
176
     1
290
     0
176
     1
 90
       50
176
     1
 62
   256
176
     0
 40
1.0
176
     0
 90
        2
176
     1
  1
strokes_ogs.tif
176
     1
290
     0
176
     1
 40
1.0
176
     1
 40
1.0
176
     1
  0
VISUALSTYLE
  5
3B
102
{ACAD_REACTORS
330
29
102
}
330
29
100
AcDbVisualStyle
  2
Sketchy
 70
    24
177
     3
291
     0
 70
    58
 90
        1
176
     1
 90
        2
176
     1
 90
        2
176
     1
 90
        0
176
     1
 40
0.6
176
     1
 40
30.0
176
     1
 62
     7
420
 16777215
176
     1
 90
        2
176
     1
 90
        2
176
     1
 62
     7
176
     1
 62
     7
176
     1
 90
        1
176
     1
 90
        1
176
     1
 40
40.0
176
     1
 90
       11
176
     1
 62
     7
176
     1
 40
1.0
176
     1
 90
        1
176
     1
 90
        6
176
     1
 90
        2
176
     1
 62
     7
176
     1
 90
        6
176
     1
 90
        0
176
     1
 90
        0
176
     1
290
     0
176
     1
 90
        1
176
     1
 40
0.0
176
     1
 90
        0
176
     1
290
     0
176
     1
290
     1
176
     1
290
     1
176
     1
290
     0
176
     1
290
     0
176
     1
290
     0
176
     1
290
     0
176
     1
290
     0
176
     1
290
     0
176
     1
 90
       50
176
     1
 40
0.0
176
     1
 40
1.0
176
     1
 90
        0
176
     1
 62
    18
420
        0
176
     1
 90
       50
176
     1
 90
        3
176
     1
 62
     5
420
      255
176
     1
290
     0
176
     1
 90
       50
176
     1
 90
       50
176
     1
 90
       50
176
     1
290
     0
176
     1
 90
       50
176
     1
 62
   256
176
     0
 40
1.0
176
     0
 90
        2
176
     1
  1
strokes_ogs.tif
176
     1
290
     0
176
     1
 40
1.0
176
     1
 40
1.0
176
     1
  0
VISUALSTYLE
  5
36
102
{ACAD_REACTORS
330
29
102
}
330
29
100
AcDbVisualStyle
  2
Thicken
 70
    13
177
     3
291
     1
 70
    58
 90
        2
176
     1
 90
        2
176
     1
 90
        0
176
     1
 90
        0
176
     1
 40
0.6
176
     1
 40
30.0
176
     1
 62
     7
420
 16777215
176
     1
 90
        1
176
     1
 90
        4
176
     1
 62
     7
176
     1
 62
   257
176
     1
 90
        1
176
     1
 90
        1
176
     1
 40
1.0
176
     1
 90
       12
176
     1
 62
     7
176
     1
 40
1.0
176
     1
 90
        1
176
     1
 90
        6
176
     1
 90
        2
176
     1
 62
     7
176
     1
 90
        5
176
     1
 90
        0
176
     1
 90
        0
176
     1
290
     0
176
     1
 90
        1
176
     1
 40
0.0
176
     1
 90
        0
176
     1
290
     0
176
     1
290
     1
176
     1
290
     1
176
     1
290
     0
176
     1
290
     0
176
     1
290
     0
176
     1
290
     0
176
     1
290
     0
176
     1
290
     0
176
     1
 90
       50
176
     1
 40
0.0
176
     1
 40
1.0
176
     1
 90
        0
176
     1
 62
    18
420
        0
176
     1
 90
       50
176
     1
 90
        3
176
     1
 62
     5
420
      255
176
     1
290
     0
176
     1
 90
       50
176
     1
 90
       50
176
     1
 90
       50
176
     1
290
     0
176
     1
 90
       50
176
     1
 62
   256
176
     0
 40
1.0
176
     0
 90
        2
176
     1
  1
strokes_ogs.tif
176
     1
290
     0
176
     1
 40
1.0
176
     1
 40
1.0
176
     1
  0
VISUALSTYLE
  5
30
102
{ACAD_REACTORS
330
29
102
}
330
29
100
AcDbVisualStyle
  2
Wireframe
 70
     5
177
     3
291
     0
 70
    58
 90
        0
176
     1
 90
        2
176
     1
 90
        0
176
     1
 90
        0
176
     1
 40
0.6
176
     1
 40
30.0
176
     1
 62
     7
420
 16777215
176
     1
 90
        1
176
     1
 90
        4
176
     1
 62
     7
176
     1
 62
   257
176
     1
 90
        1
176
     1
 90
        1
176
     1
 40
1.0
176
     1
 90
        0
176
     1
 62
   257
176
     1
 40
1.0
176
     1
 90
        1
176
     1
 90
        6
176
     1
 90
        2
176
     1
 62
     7
176
     1
 90
        3
176
     1
 90
        0
176
     1
 90
        0
176
     1
290
     0
176
     1
 90
        1
176
     1
 40
0.0
176
     1
 90
        0
176
     1
290
     0
176
     1
290
     1
176
     1
290
     1
176
     1
290
     0
176
     1
290
     0
176
     1
290
     0
176
     1
290
     0
176
     1
290
     0
176
     1
290
     0
176
     1
 90
       50
176
     1
 40
0.0
176
     1
 40
1.0
176
     1
 90
        0
176
     1
 62
    18
420
        0
176
     1
 90
       50
176
     1
 90
        3
176
     1
 62
     5
420
      255
176
     1
290
     0
176
     1
 90
       50
176
     1
 90
       50
176
     1
 90
       50
176
     1
290
     0
176
     1
 90
       50
176
     1
 62
   256
176
     0
 40
1.0
176
     0
 90
        2
176
     1
  1
strokes_ogs.tif
176
     1
290
     0
176
     1
 40
1.0
176
     1
 40
1.0
176
     1
  0
VISUALSTYLE
  5
3C
102
{ACAD_REACTORS
330
29
102
}
330
29
100
AcDbVisualStyle
  2
X-Ray
 70
    25
177
     3
291
     0
 70
    58
 90
        2
176
     1
 90
        2
176
     1
 90
        1
176
     1
 90
        1
176
     1
 40
0.5
176
     1
 40
30.0
176
     1
 62
     7
420
 16777215
176
     1
 90
        1
176
     1
 90
        0
176
     1
 62
     7
176
     1
 62
   257
176
     1
 90
        1
176
     1
 90
        1
176
     1
 40
1.0
176
     1
 90
        8
176
     1
 62
     7
176
     1
 40
1.0
176
     1
 90
        1
176
     1
 90
        6
176
     1
 90
        2
176
     1
 62
     7
176
     1
 90
        3
176
     1
 90
        0
176
     1
 90
        0
176
     1
290
     0
176
     1
 90
       13
176
     1
 40
0.0
176
     1
 90
        0
176
     1
290
     0
176
     1
290
     1
176
     1
290
     1
176
     1
290
     0
176
     1
290
     0
176
     1
290
     0
176
     1
290
     0
176
     1
290
     0
176
     1
290
     0
176
     1
 90
       50
176
     1
 40
0.0
176
     1
 40
1.0
176
     1
 90
        0
176
     1
 62
    18
420
        0
176
     1
 90
       50
176
     1
 90
        3
176
     1
 62
     5
420
      255
176
     1
290
     0
176
     1
 90
       50
176
     1
 90
       50
176
     1
 90
       50
176
     1
290
     0
176
     1
 90
       50
176
     1
 62
   256
176
     0
 40
1.0
176
     0
 90
        2
176
     1
  1
strokes_ogs.tif
176
     1
290
     0
176
     1
 40
1.0
176
     1
 40
1.0
176
     1
  0
DICTIONARYVAR
  5
80
102
{ACAD_REACTORS
330
7B
102
}
330
7B
100
DictionaryVariables
280
     0
  1
1:1
  0
DICTIONARYVAR
  5
7D
102
{ACAD_REACTORS
330
7B
102
}
330
7B
100
DictionaryVariables
280
     0
  1
STANDARD
  0
DICTIONARYVAR
  5
7C
102
{ACAD_REACTORS
330
7B
102
}
330
7B
100
DictionaryVariables
280
     0
  1
STANDARD
  0
DICTIONARYVAR
  5
7E
102
{ACAD_REACTORS
330
7B
102
}
330
7B
100
DictionaryVariables
280
     0
  1
Imperial24
  0
DICTIONARYVAR
  5
7F
102
{ACAD_REACTORS
330
7B
102
}
330
7B
100
DictionaryVariables
280
     0
  1
Imperial24
  0
XRECORD
  5
214
102
{ACAD_REACTORS
330
20D
102
}
330
20D
100
AcDbXrecord
280
     1
  1
BUILDING_ID
  1
686001_HCMFP_ScottTheater_A25_Rotated
  1
FLOOR_ID
  1
5165925
  0
XRECORD
  5
212
102
{ACAD_REACTORS
330
20D
102
}
330
20D
100
AcDbXrecord
280
     1
  1
-2000011
  1
Walls
  1
-2000023
  1
Doors
  1
-2000120
  1
Stairs
  1
-2000126
  1
Railings
  1
-2000170
  1
Curtain Panels
  1
-2000171
  1
Curtain Wall Mullions
  1
-2000829
  1
Room Polylines
  0
XRECORD
  5
20E
102
{ACAD_REACTORS
330
20D
102
}
330
20D
100
AcDbXrecord
280
     1
  1
94b0639d-b4c7-4e68-a149-f163d106cf9d
  0
XRECORD
  5
213
102
{ACAD_REACTORS
330
20D
102
}
330
20D
100
AcDbXrecord
280
     1
  1
-2000025
  1
Panel
  1
-2000029
  1
Frame/Mullion
  1
-2000128
  1
Rails
  1
-2000932
  1
Nosing Lines
  1
-2000934
  1
Outlines
  1
-2000952
  1
Supports
  1
636535
  1
Plan Swing
  0
XRECORD
  5
211
102
{ACAD_REACTORS
330
20D
102
}
330
20D
100
AcDbXrecord
280
     1
  1
1969
  1
Railing : Railing 1
  1
4450563
  1
Door-Single(CE) : HM Door-2" HM Frame
  1
44989
  1
Assembled Stair : 7" max riser 11" tread
  1
639164
  1
Basic Wall : *Generic - 12" : *Generic - 12"
  1
639165
  1
Basic Wall : *Generic - 5" : *Generic - 5"
  1
645966
  1
System Panel : zGlazed
  1
646104
  1
Rectangular Mullion : 4 1/2" x 2" Rectangular(CE)
  0
DICTIONARY
  5
1A
330
19
100
AcDbDictionary
280
     1
281
     1
  3
BUMPTILE
360
1C
  3
DIFFUSETILE
360
1B
  3
OPACITYTILE
360
1F
  3
REFLECTIONTILE
360
1E
  3
REFRACTIONTILE
360
20
  3
SPECULARTILE
360
1D
  0
DICTIONARY
  5
12
330
11
100
AcDbDictionary
280
     1
281
     1
  3
BUMPTILE
360
14
  3
DIFFUSETILE
360
13
  3
OPACITYTILE
360
17
  3
REFLECTIONTILE
360
16
  3
REFRACTIONTILE
360
18
  3
SPECULARTILE
360
15
  0
DICTIONARY
  5
22
330
21
100
AcDbDictionary
280
     1
281
     1
  3
BUMPTILE
360
24
  3
DIFFUSETILE
360
23
  3
OPACITYTILE
360
27
  3
REFLECTIONTILE
360
26
  3
REFRACTIONTILE
360
28
  3
SPECULARTILE
360
25
  0
DICTIONARY
  5
217
330
65
100
AcDbDictionary
280
     1
281
     1
  3
ACAD_ROUNDTRIP_2008_TABLESTYLE_CELLSTYLEMAP
360
218
  0
XRECORD
  5
1C
102
{ACAD_REACTORS
330
1A
102
}
330
1A
100
AcDbXrecord
280
     1
270
     1
271
     1
  0
XRECORD
  5
1B
102
{ACAD_REACTORS
330
1A
102
}
330
1A
100
AcDbXrecord
280
     1
270
     1
271
     1
  0
XRECORD
  5
1F
102
{ACAD_REACTORS
330
1A
102
}
330
1A
100
AcDbXrecord
280
     1
270
     1
271
     1
  0
XRECORD
  5
1E
102
{ACAD_REACTORS
330
1A
102
}
330
1A
100
AcDbXrecord
280
     1
270
     1
271
     1
  0
XRECORD
  5
20
102
{ACAD_REACTORS
330
1A
102
}
330
1A
100
AcDbXrecord
280
     1
270
     1
271
     1
  0
XRECORD
  5
1D
102
{ACAD_REACTORS
330
1A
102
}
330
1A
100
AcDbXrecord
280
     1
270
     1
271
     1
  0
XRECORD
  5
14
102
{ACAD_REACTORS
330
12
102
}
330
12
100
AcDbXrecord
280
     1
270
     1
271
     1
  0
XRECORD
  5
13
102
{ACAD_REACTORS
330
12
102
}
330
12
100
AcDbXrecord
280
     1
270
     1
271
     1
  0
XRECORD
  5
17
102
{ACAD_REACTORS
330
12
102
}
330
12
100
AcDbXrecord
280
     1
270
     1
271
     1
  0
XRECORD
  5
16
102
{ACAD_REACTORS
330
12
102
}
330
12
100
AcDbXrecord
280
     1
270
     1
271
     1
  0
XRECORD
  5
18
102
{ACAD_REACTORS
330
12
102
}
330
12
100
AcDbXrecord
280
     1
270
     1
271
     1
  0
XRECORD
  5
15
102
{ACAD_REACTORS
330
12
102
}
330
12
100
AcDbXrecord
280
     1
270
     1
271
     1
  0
XRECORD
  5
24
102
{ACAD_REACTORS
330
22
102
}
330
22
100
AcDbXrecord
280
     1
270
     1
271
     1
  0
XRECORD
  5
23
102
{ACAD_REACTORS
330
22
102
}
330
22
100
AcDbXrecord
280
     1
270
     1
271
     1
  0
XRECORD
  5
27
102
{ACAD_REACTORS
330
22
102
}
330
22
100
AcDbXrecord
280
     1
270
     1
271
     1
  0
XRECORD
  5
26
102
{ACAD_REACTORS
330
22
102
}
330
22
100
AcDbXrecord
280
     1
270
     1
271
     1
  0
XRECORD
  5
28
102
{ACAD_REACTORS
330
22
102
}
330
22
100
AcDbXrecord
280
     1
270
     1
271
     1
  0
XRECORD
  5
25
102
{ACAD_REACTORS
330
22
102
}
330
22
100
AcDbXrecord
280
     1
270
     1
271
     1
  0
CELLSTYLEMAP
  5
218
102
{ACAD_REACTORS
330
217
102
}
330
217
100
AcDbCellStyleMap
 90
        3
300
CELLSTYLE
  1
TABLEFORMAT_BEGIN
 90
        5
170
     1
 91
        0
 92
    32768
 62
   257
 93
        1
300
CONTENTFORMAT
  1
CONTENTFORMAT_BEGIN
 90
        0
 91
        0
 92
      512
 93
        0
300

 40
0.0
140
1.0
 94
        5
 62
     0
340
55
144
0.25
309
CONTENTFORMAT_END
171
     0
 94
        0
309
TABLEFORMAT_END
  1
CELLSTYLE_BEGIN
 90
        1
 91
        1
300
_TITLE
309
CELLSTYLE_END
300
CELLSTYLE
  1
TABLEFORMAT_BEGIN
 90
        5
170
     1
 91
        0
 92
        0
 62
   257
 93
        1
300
CONTENTFORMAT
  1
CONTENTFORMAT_BEGIN
 90
        0
 91
        0
 92
      512
 93
        0
300

 40
0.0
140
1.0
 94
        5
 62
     0
340
55
144
0.18
309
CONTENTFORMAT_END
171
     0
 94
        0
309
TABLEFORMAT_END
  1
CELLSTYLE_BEGIN
 90
        2
 91
        1
300
_HEADER
309
CELLSTYLE_END
300
CELLSTYLE
  1
TABLEFORMAT_BEGIN
 90
        5
170
     1
 91
        0
 92
        0
 62
   257
 93
        1
300
CONTENTFORMAT
  1
CONTENTFORMAT_BEGIN
 90
        0
 91
        0
 92
      512
 93
        0
300

 40
0.0
140
1.0
 94
        2
 62
     0
340
55
144
0.18
309
CONTENTFORMAT_END
171
     0
 94
        0
309
TABLEFORMAT_END
  1
CELLSTYLE_BEGIN
 90
        3
 91
        2
300
_DATA
309
CELLSTYLE_END
  0
ENDSEC
  0
EOF
