  0
SECTION
  2
HEADER
  9
$ACADVER
  1
AC1032
  9
$ACADMAINTVER
 90
      321
  9
$DWGCODEPAGE
  3
ANSI_1252
  9
$REQUIREDVERSIONS
160
                 0
  9
$INSBASE
 10
0.0
 20
0.0
 30
0.0
  9
$EXTMIN
 10
-1393.874999999998
 20
33.78659240465143
 30
0.0
  9
$EXTMAX
 10
711.1250000000003
 20
1239.786592404648
 30
0.0
  9
$LIMMIN
 10
0.0
 20
0.0
  9
$LIMMAX
 10
12.0
 20
9.0
  9
$ORTHOMODE
 70
     0
  9
$REGENMODE
 70
     1
  9
$FILLMODE
 70
     1
  9
$QTEXTMODE
 70
     0
  9
$MIRRTEXT
 70
     0
  9
$LTSCALE
 40
1.0
  9
$ATTMODE
 70
     1
  9
$TEXTSIZE
 40
0.2
  9
$TRACEWID
 40
0.05
  9
$TEXTSTYLE
  7
Standard
  9
$CLAYER
  8
0
  9
$CELTYPE
  6
ByLayer
  9
$CECOLOR
 62
   256
  9
$CELTSCALE
 40
1.0
  9
$DISPSILH
 70
     0
  9
$DIMSCALE
 40
1.0
  9
$DIMASZ
 40
0.18
  9
$DIMEXO
 40
0.0625
  9
$DIMDLI
 40
0.38
  9
$DIMRND
 40
0.0
  9
$DIMDLE
 40
0.0
  9
$DIMEXE
 40
0.18
  9
$DIMTP
 40
0.0
  9
$DIMTM
 40
0.0
  9
$DIMTXT
 40
0.18
  9
$DIMCEN
 40
0.09
  9
$DIMTSZ
 40
0.0
  9
$DIMTOL
 70
     0
  9
$DIMLIM
 70
     0
  9
$DIMTIH
 70
     1
  9
$DIMTOH
 70
     1
  9
$DIMSE1
 70
     0
  9
$DIMSE2
 70
     0
  9
$DIMTAD
 70
     0
  9
$DIMZIN
 70
     0
  9
$DIMBLK
  1

  9
$DIMASO
 70
     1
  9
$DIMSHO
 70
     1
  9
$DIMPOST
  1

  9
$DIMAPOST
  1

  9
$DIMALT
 70
     0
  9
$DIMALTD
 70
     2
  9
$DIMALTF
 40
25.4
  9
$DIMLFAC
 40
1.0
  9
$DIMTOFL
 70
     0
  9
$DIMTVP
 40
0.0
  9
$DIMTIX
 70
     0
  9
$DIMSOXD
 70
     0
  9
$DIMSAH
 70
     0
  9
$DIMBLK1
  1

  9
$DIMBLK2
  1

  9
$DIMSTYLE
  2
Standard
  9
$DIMCLRD
 70
     0
  9
$DIMCLRE
 70
     0
  9
$DIMCLRT
 70
     0
  9
$DIMTFAC
 40
1.0
  9
$DIMGAP
 40
0.09
  9
$DIMJUST
 70
     0
  9
$DIMSD1
 70
     0
  9
$DIMSD2
 70
     0
  9
$DIMTOLJ
 70
     1
  9
$DIMTZIN
 70
     0
  9
$DIMALTZ
 70
     0
  9
$DIMALTTZ
 70
     0
  9
$DIMUPT
 70
     0
  9
$DIMDEC
 70
     4
  9
$DIMTDEC
 70
     4
  9
$DIMALTU
 70
     4
  9
$DIMALTTD
 70
     2
  9
$DIMTXSTY
  7
Standard
  9
$DIMAUNIT
 70
     0
  9
$DIMADEC
 70
     0
  9
$DIMALTRND
 40
0.0
  9
$DIMAZIN
 70
     0
  9
$DIMDSEP
 70
    46
  9
$DIMATFIT
 70
     3
  9
$DIMFRAC
 70
     0
  9
$DIMLDRBLK
  1

  9
$DIMLUNIT
 70
     4
  9
$DIMLWD
 70
    -2
  9
$DIMLWE
 70
    -2
  9
$DIMTMOVE
 70
     0
  9
$DIMFXL
 40
1.0
  9
$DIMFXLON
 70
     0
  9
$DIMJOGANG
 40
0.7853981633974483
  9
$DIMTFILL
 70
     0
  9
$DIMTFILLCLR
 70
     0
  9
$DIMARCSYM
 70
     0
  9
$DIMLTYPE
  6

  9
$DIMLTEX1
  6

  9
$DIMLTEX2
  6

  9
$DIMTXTDIRECTION
 70
     0
  9
$LUNITS
 70
     4
  9
$LUPREC
 70
     4
  9
$SKETCHINC
 40
0.1
  9
$FILLETRAD
 40
0.0
  9
$AUNITS
 70
     0
  9
$AUPREC
 70
     0
  9
$MENU
  1
.
  9
$ELEVATION
 40
0.0
  9
$PELEVATION
 40
0.0
  9
$THICKNESS
 40
0.0
  9
$LIMCHECK
 70
     0
  9
$CHAMFERA
 40
0.0
  9
$CHAMFERB
 40
0.0
  9
$CHAMFERC
 40
0.0
  9
$CHAMFERD
 40
0.0
  9
$SKPOLY
 70
     0
  9
$TDCREATE
 40
2461074.369930555
  9
$TDUCREATE
 40
2461074.619930556
  9
$TDUPDATE
 40
2461074.369930555
  9
$TDUUPDATE
 40
2461074.619930556
  9
$TDINDWG
 40
0.0000000000
  9
$TDUSRTIMER
 40
0.0000000000
  9
$USRTIMER
 70
     1
  9
$ANGBASE
 50
0.0
  9
$ANGDIR
 70
     0
  9
$PDMODE
 70
     0
  9
$PDSIZE
 40
0.0
  9
$PLINEWID
 40
0.0
  9
$SPLFRAME
 70
     0
  9
$SPLINETYPE
 70
     6
  9
$SPLINESEGS
 70
     8
  9
$HANDSEED
  5
235
  9
$SURFTAB1
 70
     6
  9
$SURFTAB2
 70
     6
  9
$SURFTYPE
 70
     6
  9
$SURFU
 70
     6
  9
$SURFV
 70
     6
  9
$UCSBASE
  2

  9
$UCSNAME
  2

  9
$UCSORG
 10
0.0
 20
0.0
 30
0.0
  9
$UCSXDIR
 10
1.0
 20
0.0
 30
0.0
  9
$UCSYDIR
 10
0.0
 20
1.0
 30
0.0
  9
$UCSORTHOREF
  2

  9
$UCSORTHOVIEW
 70
     0
  9
$UCSORGTOP
 10
0.0
 20
0.0
 30
0.0
  9
$UCSORGBOTTOM
 10
0.0
 20
0.0
 30
0.0
  9
$UCSORGLEFT
 10
0.0
 20
0.0
 30
0.0
  9
$UCSORGRIGHT
 10
0.0
 20
0.0
 30
0.0
  9
$UCSORGFRONT
 10
0.0
 20
0.0
 30
0.0
  9
$UCSORGBACK
 10
0.0
 20
0.0
 30
0.0
  9
$PUCSBASE
  2

  9
$PUCSNAME
  2

  9
$PUCSORG
 10
0.0
 20
0.0
 30
0.0
  9
$PUCSXDIR
 10
1.0
 20
0.0
 30
0.0
  9
$PUCSYDIR
 10
0.0
 20
1.0
 30
0.0
  9
$PUCSORTHOREF
  2

  9
$PUCSORTHOVIEW
 70
     0
  9
$PUCSORGTOP
 10
0.0
 20
0.0
 30
0.0
  9
$PUCSORGBOTTOM
 10
0.0
 20
0.0
 30
0.0
  9
$PUCSORGLEFT
 10
0.0
 20
0.0
 30
0.0
  9
$PUCSORGRIGHT
 10
0.0
 20
0.0
 30
0.0
  9
$PUCSORGFRONT
 10
0.0
 20
0.0
 30
0.0
  9
$PUCSORGBACK
 10
0.0
 20
0.0
 30
0.0
  9
$USERI1
 70
     0
  9
$USERI2
 70
     0
  9
$USERI3
 70
     0
  9
$USERI4
 70
     0
  9
$USERI5
 70
     0
  9
$USERR1
 40
0.0
  9
$USERR2
 40
0.0
  9
$USERR3
 40
0.0
  9
$USERR4
 40
0.0
  9
$USERR5
 40
0.0
  9
$WORLDVIEW
 70
     1
  9
$SHADEDGE
 70
     3
  9
$SHADEDIF
 70
    70
  9
$TILEMODE
 70
     1
  9
$MAXACTVP
 70
    64
  9
$PINSBASE
 10
0.0
 20
0.0
 30
0.0
  9
$PLIMCHECK
 70
     0
  9
$PEXTMIN
 10
1.000000000000000E+20
 20
1.000000000000000E+20
 30
1.000000000000000E+20
  9
$PEXTMAX
 10
-1.000000000000000E+20
 20
-1.000000000000000E+20
 30
-1.000000000000000E+20
  9
$PLIMMIN
 10
0.0
 20
0.0
  9
$PLIMMAX
 10
12.0
 20
9.0
  9
$UNITMODE
 70
     0
  9
$VISRETAIN
 70
     1
  9
$PLINEGEN
 70
     0
  9
$PSLTSCALE
 70
     0
  9
$TREEDEPTH
 70
  3020
  9
$CMLSTYLE
  2
Standard
  9
$CMLJUST
 70
     0
  9
$CMLSCALE
 40
1.0
  9
$PROXYGRAPHICS
 70
     1
  9
$MEASUREMENT
 70
     0
  9
$CELWEIGHT
370
    -1
  9
$ENDCAPS
280
     0
  9
$JOINSTYLE
280
     0
  9
$LWDISPLAY
290
     0
  9
$INSUNITS
 70
     1
  9
$HYPERLINKBASE
  1

  9
$STYLESHEET
  1

  9
$XEDIT
290
     1
  9
$CEPSNTYPE
380
     0
  9
$PSTYLEMODE
290
     1
  9
$FINGERPRINTGUID
  2
{674F7706-428A-844F-A1DA-954D61B5B4C9}
  9
$VERSIONGUID
  2
{C8F9101D-F8C3-0441-B89D-641076112BA9}
  9
$EXTNAMES
290
     1
  9
$PSVPSCALE
 40
0.0
  9
$OLESTARTUP
290
     0
  9
$SORTENTS
280
   127
  9
$INDEXCTL
280
     0
  9
$HIDETEXT
280
     1
  9
$XCLIPFRAME
280
     2
  9
$HALOGAP
280
     0
  9
$OBSCOLOR
 70
   257
  9
$OBSLTYPE
280
     0
  9
$INTERSECTIONDISPLAY
280
     0
  9
$INTERSECTIONCOLOR
 70
   257
  9
$DIMASSOC
280
     2
  9
$PROJECTNAME
  1

  9
$CAMERADISPLAY
290
     0
  9
$LENSLENGTH
 40
50.0
  9
$CAMERAHEIGHT
 40
0.0
  9
$STEPSPERSEC
 40
2.0
  9
$STEPSIZE
 40
6.0
  9
$3DDWFPREC
 40
2.0
  9
$PSOLWIDTH
 40
0.25
  9
$PSOLHEIGHT
 40
4.0
  9
$LOFTANG1
 40
1.570796326794896
  9
$LOFTANG2
 40
1.570796326794896
  9
$LOFTMAG1
 40
0.0
  9
$LOFTMAG2
 40
0.0
  9
$LOFTPARAM
 70
     7
  9
$LOFTNORMALS
280
     1
  9
$LATITUDE
 40
37.795
  9
$LONGITUDE
 40
-122.394
  9
$NORTHDIRECTION
 40
0.0
  9
$TIMEZONE
 70
 -8000
  9
$LIGHTGLYPHDISPLAY
280
     1
  9
$TILEMODELIGHTSYNCH
280
     1
  9
$CMATERIAL
347
11
  9
$SOLIDHIST
280
     0
  9
$SHOWHIST
280
     1
  9
$DWFFRAME
280
     2
  9
$DGNFRAME
280
     0
  9
$REALWORLDSCALE
290
     1
  9
$INTERFERECOLOR
 62
     1
  9
$INTERFEREOBJVS
345
33
  9
$INTERFEREVPVS
346
30
  9
$CSHADOW
280
     0
  9
$SHADOWPLANELOCATION
 40
0.0
  0
ENDSEC
  0
SECTION
  2
CLASSES
  0
CLASS
  1
ACDBDICTIONARYWDFLT
  2
AcDbDictionaryWithDefault
  3
ObjectDBX Classes
 90
        0
 91
        1
280
     0
281
     0
  0
CLASS
  1
MATERIAL
  2
AcDbMaterial
  3
ObjectDBX Classes
 90
     1153
 91
        3
280
     0
281
     0
  0
CLASS
  1
VISUALSTYLE
  2
AcDbVisualStyle
  3
ObjectDBX Classes
 90
     4095
 91
       24
280
     0
281
     0
  0
CLASS
  1
SCALE
  2
AcDbScale
  3
ObjectDBX Classes
 90
     1153
 91
       17
280
     0
281
     0
  0
CLASS
  1
TABLESTYLE
  2
AcDbTableStyle
  3
ObjectDBX Classes
 90
     4095
 91
        1
280
     0
281
     0
  0
CLASS
  1
MLEADERSTYLE
  2
AcDbMLeaderStyle
  3
ACDB_MLEADERSTYLE_CLASS
 90
     4095
 91
        1
280
     0
281
     0
  0
CLASS
  1
ACDBSECTIONVIEWSTYLE
  2
AcDbSectionViewStyle
  3
ObjectDBX Classes
 90
     1025
 91
        1
280
     0
281
     0
  0
CLASS
  1
ACDBDETAILVIEWSTYLE
  2
AcDbDetailViewStyle
  3
ObjectDBX Classes
 90
     1025
 91
        1
280
     0
281
     0
  0
CLASS
  1
RASTERVARIABLES
  2
AcDbRasterVariables
  3
ISM
 90
        0
 91
        1
280
     0
281
     0
  0
CLASS
  1
DICTIONARYVAR
  2
AcDbDictionaryVar
  3
ObjectDBX Classes
 90
        0
 91
        5
280
     0
281
     0
  0
CLASS
  1
CELLSTYLEMAP
  2
AcDbCellStyleMap
  3
ObjectDBX Classes
 90
     1152
 91
        2
280
     0
281
     0
  0
CLASS
  1
SORTENTSTABLE
  2
AcDbSortentsTable
  3
ObjectDBX Classes
 90
        0
 91
        1
280
     0
281
     0
  0
ENDSEC
  0
SECTION
  2
TABLES
  0
TABLE
  2
VPORT
  5
8
330
0
100
AcDbSymbolTable
 70
     1
  0
VPORT
  5
57
330
8
100
AcDbSymbolTableRecord
100
AcDbViewportTableRecord
  2
*Active
 70
     0
 10
0.0
 20
0.0
 11
1.0
 21
1.0
 12
-341.3749999999989
 22
636.7865924046496
 13
0.0
 23
0.0
 14
1.0
 24
1.0
 15
0.0
 25
0.0
 16
0.0
 26
0.0
 36
1.0
 17
0.0
 27
0.0
 37
0.0
 40
1205.999999999996
 41
1.74543946932007
 42
50.0
 43
0.0
 44
0.0
 50
0.0
 51
0.0
 71
     0
 72
  1000
 73
     1
 74
     1
 75
     0
 76
     0
 77
     0
 78
     0
281
     0
 65
     1
110
0.0
120
0.0
130
0.0
111
1.0
121
0.0
131
0.0
112
0.0
122
1.0
132
0.0
 79
     0
146
0.0
 60
     3
 61
     5
292
     1
282
     1
141
0.0
142
0.0
 63
   250
421
  3355443
  0
ENDTAB
  0
TABLE
  2
LTYPE
  5
5
330
0
100
AcDbSymbolTable
 70
     1
  0
LTYPE
  5
5B
330
5
100
AcDbSymbolTableRecord
100
AcDbLinetypeTableRecord
  2
ByBlock
 70
     0
  3

 72
    65
 73
     0
 40
0.0
  0
LTYPE
  5
5C
330
5
100
AcDbSymbolTableRecord
100
AcDbLinetypeTableRecord
  2
ByLayer
 70
     0
  3

 72
    65
 73
     0
 40
0.0
  0
LTYPE
  5
5D
330
5
100
AcDbSymbolTableRecord
100
AcDbLinetypeTableRecord
  2
Continuous
 70
     0
  3
Solid line
 72
    65
 73
     0
 40
0.0
  0
ENDTAB
  0
TABLE
  2
LAYER
  5
2
330
0
100
AcDbSymbolTable
 70
     7
  0
LAYER
  5
54
330
2
100
AcDbSymbolTableRecord
100
AcDbLayerTableRecord
  2
0
 70
     0
 62
     7
  6
Continuous
370
    -3
390
F
347
21
348
0
  0
LAYER
  5
84
330
2
100
AcDbSymbolTableRecord
100
AcDbLayerTableRecord
  2
A-WALL
 70
     0
 62
   113
  6
Continuous
370
    15
390
F
347
21
348
0
  0
LAYER
  5
85
330
2
100
AcDbSymbolTableRecord
100
AcDbLayerTableRecord
  2
S-STRS
 70
     0
 62
    31
  6
Continuous
370
     9
390
F
347
21
348
0
  0
LAYER
  5
86
330
2
100
AcDbSymbolTableRecord
100
AcDbLayerTableRecord
  2
A-FLOR-HRAL
 70
     0
 62
    11
  6
Continuous
370
     9
390
F
347
21
348
0
  0
LAYER
  5
87
330
2
100
AcDbSymbolTableRecord
100
AcDbLayerTableRecord
  2
A-DOOR
 70
     0
 62
    31
  6
Continuous
370
    15
390
F
347
21
348
0
  0
LAYER
  5
152
330
2
100
AcDbSymbolTableRecord
100
AcDbLayerTableRecord
  2
S-STRS-MBND
 70
     0
 62
    31
  6
Continuous
370
     9
390
F
347
21
348
0
  0
LAYER
  5
175
330
2
100
AcDbSymbolTableRecord
100
AcDbLayerTableRecord
  2
A-DOOR-FRAM
 70
     0
 62
    31
  6
Continuous
370
    25
390
F
347
21
348
0
  0
ENDTAB
  0
TABLE
  2
STYLE
  5
3
330
0
100
AcDbSymbolTable
 70
     2
  0
STYLE
  5
55
330
3
100
AcDbSymbolTableRecord
100
AcDbTextStyleTableRecord
  2
Standard
 70
     0
 40
0.0
 41
1.0
 50
0.0
 71
     0
 42
0.2
  3
txt
  4

  0
STYLE
  5
5A
330
3
100
AcDbSymbolTableRecord
100
AcDbTextStyleTableRecord
  2
Annotative
 70
     0
 40
0.0
 41
1.0
 50
0.0
 71
     0
 42
0.2
  3
txt
  4

1001
AcadAnnotative
1000
AnnotativeData
1002
{
1070
     1
1070
     1
1002
}
  0
ENDTAB
  0
TABLE
  2
VIEW
  5
6
330
0
100
AcDbSymbolTable
 70
     0
  0
ENDTAB
  0
TABLE
  2
UCS
  5
7
330
0
100
AcDbSymbolTable
 70
     2
  0
UCS
  5
22A
330
7
100
AcDbSymbolTableRecord
100
AcDbUCSTableRecord
  2
REVIT60-Default Site
 70
     0
 10
0.0
 20
0.0000000000020464
 30
-1200.0
 11
-1.0
 21
0.0000000000000032
 31
0.0
 12
-0.0000000000000032
 22
-1.0
 32
0.0
 79
     0
146
0.0
  0
UCS
  5
22B
330
7
100
AcDbSymbolTableRecord
100
AcDbUCSTableRecord
  2
REVIT60-Internal
 70
     0
 10
0.0
 20
0.0
 30
0.0
 11
-1.0
 21
0.0000000000000032
 31
0.0
 12
-0.0000000000000032
 22
-1.0
 32
0.0
 79
     0
146
0.0
  0
ENDTAB
  0
TABLE
  2
APPID
  5
9
330
0
100
AcDbSymbolTable
 70
     3
  0
APPID
  5
56
330
9
100
AcDbSymbolTableRecord
100
AcDbRegAppTableRecord
  2
ACAD
 70
     0
  0
APPID
  5
5E
330
9
100
AcDbSymbolTableRecord
100
AcDbRegAppTableRecord
  2
AcadAnnotative
 70
     0
  0
APPID
  5
78
330
9
100
AcDbSymbolTableRecord
100
AcDbRegAppTableRecord
  2
REVIT
 70
     0
  0
ENDTAB
  0
TABLE
  2
DIMSTYLE
  5
A
330
0
100
AcDbSymbolTable
 70
     2
100
AcDbDimStyleTable
 71
     0
  0
DIMSTYLE
105
58
330
A
100
AcDbSymbolTableRecord
100
AcDbDimStyleTableRecord
  2
Standard
 70
     0
340
55
  0
DIMSTYLE
105
59
330
A
100
AcDbSymbolTableRecord
100
AcDbDimStyleTableRecord
  2
Annotative
 70
     0
340
55
1001
AcadAnnotative
1000
AnnotativeData
1002
{
1070
     1
1070
     1
1002
}
  0
ENDTAB
  0
TABLE
  2
BLOCK_RECORD
  5
1
330
0
100
AcDbSymbolTable
 70
     7
  0
BLOCK_RECORD
  5
70
102
{ACAD_XDICTIONARY
360
230
102
}
330
1
100
AcDbSymbolTableRecord
100
AcDbBlockTableRecord
  2
*Model_Space
340
73
 70
     0
280
     1
281
     0
  0
BLOCK_RECORD
  5
6C
330
1
100
AcDbSymbolTableRecord
100
AcDbBlockTableRecord
  2
*Paper_Space
340
6F
 70
     0
280
     1
281
     0
  0
BLOCK_RECORD
  5
74
330
1
100
AcDbSymbolTableRecord
100
AcDbBlockTableRecord
  2
*Paper_Space0
340
77
 70
     0
280
     1
281
     0
  0
BLOCK_RECORD
  5
15E
330
1
100
AcDbSymbolTableRecord
100
AcDbBlockTableRecord
  2
Railing - Railing-5161019-BASEMENT Map Export
340
0
102
{BLKREFS
331
165
102
}
 70
     0
280
     1
281
     0
  0
BLOCK_RECORD
  5
166
330
1
100
AcDbSymbolTableRecord
100
AcDbBlockTableRecord
  2
Railing - Railing-5161023-BASEMENT Map Export
340
0
102
{BLKREFS
331
16D
102
}
 70
     0
280
     1
281
     0
  0
BLOCK_RECORD
  5
16E
330
1
100
AcDbSymbolTableRecord
100
AcDbBlockTableRecord
  2
Door-Single_CE_ - HM Door-2_ HM Frame-5163379-BASEMENT Map Export
340
0
102
{BLKREFS
331
18E
102
}
 70
     0
280
     1
281
     0
  0
BLOCK_RECORD
  5
18F
330
1
100
AcDbSymbolTableRecord
100
AcDbBlockTableRecord
  2
Door-Single_CE_ - HM Door-2_ HM Frame-5162622-BASEMENT Map Export
340
0
102
{BLKREFS
331
1AE
331
1AF
331
1B0
331
1B1
102
}
 70
     0
280
     1
281
     0
  0
BLOCK_RECORD
  5
1B2
330
1
100
AcDbSymbolTableRecord
100
AcDbBlockTableRecord
  2
Door-Single_CE_ - HM Door-2_ HM Frame-5164562-BASEMENT Map Export
340
0
102
{BLKREFS
331
1D1
331
1D2
331
1D3
331
1D4
102
}
 70
     0
280
     1
281
     0
  0
BLOCK_RECORD
  5
1D5
330
1
100
AcDbSymbolTableRecord
100
AcDbBlockTableRecord
  2
Door-Single_CE_ - HM Door-2_ HM Frame-5164208-BASEMENT Map Export
340
0
102
{BLKREFS
331
1F4
102
}
 70
     0
280
     1
281
     0
  0
ENDTAB
  0
ENDSEC
  0
SECTION
  2
BLOCKS
  0
BLOCK
  5
71
330
70
100
AcDbEntity
  8
0
100
AcDbBlockBegin
  2
*Model_Space
 70
     0
 10
0.0
 20
0.0
 30
0.0
  3
*Model_Space
  1

  0
ENDBLK
  5
72
330
70
100
AcDbEntity
  8
0
100
AcDbBlockEnd
  0
BLOCK
  5
6D
330
6C
100
AcDbEntity
 67
     1
  8
0
100
AcDbBlockBegin
  2
*Paper_Space
 70
     0
 10
0.0
 20
0.0
 30
0.0
  3
*Paper_Space
  1

  0
ENDBLK
  5
6E
330
6C
100
AcDbEntity
 67
     1
  8
0
100
AcDbBlockEnd
  0
BLOCK
  5
75
330
74
100
AcDbEntity
 67
     1
  8
0
100
AcDbBlockBegin
  2
*Paper_Space0
 70
     0
 10
0.0
 20
0.0
 30
0.0
  3
*Paper_Space0
  1

  0
ENDBLK
  5
76
330
74
100
AcDbEntity
 67
     1
  8
0
100
AcDbBlockEnd
  0
BLOCK
  5
163
330
15E
100
AcDbEntity
  8
0
100
AcDbBlockBegin
  2
Railing - Railing-5161019-BASEMENT Map Export
 70
     0
 10
0.0
 20
0.0
 30
0.0
  3
Railing - Railing-5161019-BASEMENT Map Export
  1

  0
LINE
  5
15F
330
15E
100
AcDbEntity
  8
A-FLOR-HRAL
100
AcDbLine
 10
713.4814621532056
 20
-705.7865924046504
 30
0.0
 11
714.4140774695155
 21
-707.7865924046506
 31
0.0
1001
REVIT
1002
{
1070
     1
1000
5161018
1002
}
1002
{
1070
     5
1000
1969
1002
}
1002
{
1070
     3
1000
-2000128
1002
}
  0
LINE
  5
160
330
15E
100
AcDbEntity
  8
A-FLOR-HRAL
100
AcDbLine
 10
776.8749999999955
 20
-707.7865924046509
 30
0.0
 11
714.4140774695156
 21
-707.7865924046506
 31
0.0
1001
REVIT
1002
{
1070
     1
1000
5161018
1002
}
1002
{
1070
     5
1000
1969
1002
}
1002
{
1070
     3
1000
-2000128
1002
}
  0
LINE
  5
161
330
15E
100
AcDbEntity
  8
A-FLOR-HRAL
100
AcDbLine
 10
776.8749999999955
 20
-705.786592404651
 30
0.0
 11
776.8749999999955
 21
-707.7865924046509
 31
0.0
1001
REVIT
1002
{
1070
     1
1000
5161018
1002
}
1002
{
1070
     5
1000
1969
1002
}
1002
{
1070
     3
1000
-2000128
1002
}
  0
LINE
  5
162
330
15E
100
AcDbEntity
  8
A-FLOR-HRAL
100
AcDbLine
 10
769.0178571428526
 20
-705.7865924046508
 30
0.0
 11
713.4814621532056
 21
-705.7865924046504
 31
0.0
1001
REVIT
1002
{
1070
     1
1000
5161018
1002
}
1002
{
1070
     5
1000
1969
1002
}
1002
{
1070
     3
1000
-2000128
1002
}
  0
ENDBLK
  5
164
330
15E
100
AcDbEntity
  8
0
100
AcDbBlockEnd
  0
BLOCK
  5
16B
330
166
100
AcDbEntity
  8
0
100
AcDbBlockBegin
  2
Railing - Railing-5161023-BASEMENT Map Export
 70
     0
 10
0.0
 20
0.0
 30
0.0
  3
Railing - Railing-5161023-BASEMENT Map Export
  1

  0
LINE
  5
167
330
166
100
AcDbEntity
  8
A-FLOR-HRAL
100
AcDbLine
 10
729.3359225304751
 20
-739.7865924046505
 30
0.0
 11
730.2685378467852
 21
-741.7865924046505
 31
0.0
1001
REVIT
1002
{
1070
     1
1000
5161022
1002
}
1002
{
1070
     5
1000
1969
1002
}
1002
{
1070
     3
1000
-2000128
1002
}
  0
LINE
  5
168
330
166
100
AcDbEntity
  8
A-FLOR-HRAL
100
AcDbLine
 10
776.8749999999953
 20
-741.7865924046509
 30
0.0
 11
730.2685378467852
 21
-741.7865924046505
 31
0.0
1001
REVIT
1002
{
1070
     1
1000
5161022
1002
}
1002
{
1070
     5
1000
1969
1002
}
1002
{
1070
     3
1000
-2000128
1002
}
  0
LINE
  5
169
330
166
100
AcDbEntity
  8
A-FLOR-HRAL
100
AcDbLine
 10
776.8749999999953
 20
-739.7865924046508
 30
0.0
 11
776.8749999999953
 21
-741.7865924046509
 31
0.0
1001
REVIT
1002
{
1070
     1
1000
5161022
1002
}
1002
{
1070
     5
1000
1969
1002
}
1002
{
1070
     3
1000
-2000128
1002
}
  0
LINE
  5
16A
330
166
100
AcDbEntity
  8
A-FLOR-HRAL
100
AcDbLine
 10
776.8749999999953
 20
-739.7865924046508
 30
0.0
 11
729.3359225304751
 21
-739.7865924046505
 31
0.0
1001
REVIT
1002
{
1070
     1
1000
5161022
1002
}
1002
{
1070
     5
1000
1969
1002
}
1002
{
1070
     3
1000
-2000128
1002
}
  0
ENDBLK
  5
16C
330
166
100
AcDbEntity
  8
0
100
AcDbBlockEnd
  0
BLOCK
  5
18C
330
16E
100
AcDbEntity
  8
0
100
AcDbBlockBegin
  2
Door-Single_CE_ - HM Door-2_ HM Frame-5163379-BASEMENT Map Export
 70
     0
 10
0.0
 20
0.0
 30
0.0
  3
Door-Single_CE_ - HM Door-2_ HM Frame-5163379-BASEMENT Map Export
  1

  0
ARC
  5
16F
330
16E
100
AcDbEntity
  8
A-DOOR
370
     9
100
AcDbCircle
 10
18.0000000000032
 20
-3.499999999999462
 30
0.0
 40
36.0
100
AcDbArc
 50
179.5000000000001
 51
269.9999999999995
1001
REVIT
1002
{
1070
     1
1000
5171237
1002
}
1002
{
1070
     5
1000
4450563
1002
}
1002
{
1070
     3
1000
636535
1002
}
  0
LINE
  5
170
330
16E
100
AcDbEntity
  8
A-DOOR
100
AcDbLine
 10
18.00000000000001
 20
-3.499999999999382
 30
0.0
 11
17.99999999999995
 21
-39.49999999999938
 31
0.0
1001
REVIT
1002
{
1070
     1
1000
5171237
1002
}
1002
{
1070
     5
1000
4450563
1002
}
1002
{
1070
     3
1000
-2000025
1002
}
  0
LINE
  5
171
330
16E
100
AcDbEntity
  8
A-DOOR
100
AcDbLine
 10
17.99999999999995
 20
-39.49999999999938
 30
0.0
 11
16.24999999999995
 21
-39.49999999999938
 31
0.0
1001
REVIT
1002
{
1070
     1
1000
5171237
1002
}
1002
{
1070
     5
1000
4450563
1002
}
1002
{
1070
     3
1000
-2000025
1002
}
  0
LINE
  5
172
330
16E
100
AcDbEntity
  8
A-DOOR
100
AcDbLine
 10
16.24999999999995
 20
-39.49999999999938
 30
0.0
 11
16.25000000000001
 21
-3.499999999999379
 31
0.0
1001
REVIT
1002
{
1070
     1
1000
5171237
1002
}
1002
{
1070
     5
1000
4450563
1002
}
1002
{
1070
     3
1000
-2000025
1002
}
  0
LINE
  5
173
330
16E
100
AcDbEntity
  8
A-DOOR
100
AcDbLine
 10
16.25000000000001
 20
-3.49999999999938
 30
0.0
 11
18.00000000000001
 21
-3.499999999999382
 31
0.0
1001
REVIT
1002
{
1070
     1
1000
5171237
1002
}
1002
{
1070
     5
1000
4450563
1002
}
1002
{
1070
     3
1000
-2000025
1002
}
  0
ARC
  5
174
330
16E
100
AcDbEntity
  8
A-DOOR
370
     9
100
AcDbCircle
 10
18.00000000000001
 20
-3.499999999999386
 30
0.0
 40
36.0
100
AcDbArc
 50
179.5000000000001
 51
269.9999999999995
1001
REVIT
1002
{
1070
     1
1000
5171237
1002
}
1002
{
1070
     5
1000
4450563
1002
}
1002
{
1070
     3
1000
636535
1002
}
  0
LINE
  5
176
330
16E
100
AcDbEntity
  8
A-DOOR-FRAM
100
AcDbLine
 10
-17.99999999999988
 20
-1.750000000000283
 30
0.0
 11
-17.99999999999987
 21
-3.500000000000039
 31
0.0
1001
REVIT
1002
{
1070
     1
1000
5171237
1002
}
1002
{
1070
     5
1000
4450563
1002
}
1002
{
1070
     3
1000
-2000029
1002
}
  0
LINE
  5
177
330
16E
100
AcDbEntity
  8
A-DOOR-FRAM
100
AcDbLine
 10
-17.49999999999988
 20
-1.750000000000281
 30
0.0
 11
-17.99999999999988
 21
-1.750000000000283
 31
0.0
1001
REVIT
1002
{
1070
     1
1000
5171237
1002
}
1002
{
1070
     5
1000
4450563
1002
}
1002
{
1070
     3
1000
-2000029
1002
}
  0
LINE
  5
178
330
16E
100
AcDbEntity
  8
A-DOOR-FRAM
100
AcDbLine
 10
-17.49999999999989
 20
0.2499999999997764
 30
0.0
 11
-17.49999999999988
 21
-1.750000000000281
 31
0.0
1001
REVIT
1002
{
1070
     1
1000
5171237
1002
}
1002
{
1070
     5
1000
4450563
1002
}
1002
{
1070
     3
1000
-2000029
1002
}
  0
LINE
  5
179
330
16E
100
AcDbEntity
  8
A-DOOR-FRAM
100
AcDbLine
 10
-17.99999999999988
 20
0.2499999999997732
 30
0.0
 11
-17.49999999999989
 21
0.2499999999997764
 31
0.0
1001
REVIT
1002
{
1070
     1
1000
5171237
1002
}
1002
{
1070
     5
1000
4450563
1002
}
1002
{
1070
     3
1000
-2000029
1002
}
  0
LINE
  5
17A
330
16E
100
AcDbEntity
  8
A-DOOR-FRAM
100
AcDbLine
 10
-17.9999999999999
 20
3.49999999999994
 30
0.0
 11
-17.99999999999988
 21
0.2499999999997732
 31
0.0
1001
REVIT
1002
{
1070
     1
1000
5171237
1002
}
1002
{
1070
     5
1000
4450563
1002
}
1002
{
1070
     3
1000
-2000029
1002
}
  0
LINE
  5
17B
330
16E
100
AcDbEntity
  8
A-DOOR-FRAM
100
AcDbLine
 10
-20.00000000000013
 20
3.499999999999933
 30
0.0
 11
-17.9999999999999
 21
3.49999999999994
 31
0.0
1001
REVIT
1002
{
1070
     1
1000
5171237
1002
}
1002
{
1070
     5
1000
4450563
1002
}
1002
{
1070
     3
1000
-2000029
1002
}
  0
LINE
  5
17C
330
16E
100
AcDbEntity
  8
A-DOOR-FRAM
100
AcDbLine
 10
-20.00000000000011
 20
-3.500000000000045
 30
0.0
 11
-20.00000000000013
 21
3.499999999999933
 31
0.0
1001
REVIT
1002
{
1070
     1
1000
5171237
1002
}
1002
{
1070
     5
1000
4450563
1002
}
1002
{
1070
     3
1000
-2000029
1002
}
  0
LINE
  5
17D
330
16E
100
AcDbEntity
  8
A-DOOR-FRAM
100
AcDbLine
 10
-17.99999999999987
 20
-3.500000000000039
 30
0.0
 11
-20.00000000000011
 21
-3.500000000000045
 31
0.0
1001
REVIT
1002
{
1070
     1
1000
5171237
1002
}
1002
{
1070
     5
1000
4450563
1002
}
1002
{
1070
     3
1000
-2000029
1002
}
  0
LINE
  5
17E
330
16E
100
AcDbEntity
  8
A-DOOR-FRAM
100
AcDbLine
 10
19.99999999999999
 20
3.500000000000063
 30
0.0
 11
20.00000000000001
 21
-3.499999999999916
 31
0.0
1001
REVIT
1002
{
1070
     1
1000
5171237
1002
}
1002
{
1070
     5
1000
4450563
1002
}
1002
{
1070
     3
1000
-2000029
1002
}
  0
LINE
  5
17F
330
16E
100
AcDbEntity
  8
A-DOOR-FRAM
100
AcDbLine
 10
18.00000000000006
 20
3.500000000000056
 30
0.0
 11
19.99999999999999
 21
3.500000000000063
 31
0.0
1001
REVIT
1002
{
1070
     1
1000
5171237
1002
}
1002
{
1070
     5
1000
4450563
1002
}
1002
{
1070
     3
1000
-2000029
1002
}
  0
LINE
  5
180
330
16E
100
AcDbEntity
  8
A-DOOR-FRAM
100
AcDbLine
 10
18.00000000000007
 20
0.2499999999998905
 30
0.0
 11
18.00000000000006
 21
3.500000000000056
 31
0.0
1001
REVIT
1002
{
1070
     1
1000
5171237
1002
}
1002
{
1070
     5
1000
4450563
1002
}
1002
{
1070
     3
1000
-2000029
1002
}
  0
LINE
  5
181
330
16E
100
AcDbEntity
  8
A-DOOR-FRAM
100
AcDbLine
 10
17.49999999999995
 20
0.2499999999998887
 30
0.0
 11
18.00000000000007
 21
0.2499999999998905
 31
0.0
1001
REVIT
1002
{
1070
     1
1000
5171237
1002
}
1002
{
1070
     5
1000
4450563
1002
}
1002
{
1070
     3
1000
-2000029
1002
}
  0
LINE
  5
182
330
16E
100
AcDbEntity
  8
A-DOOR-FRAM
100
AcDbLine
 10
17.49999999999996
 20
-1.750000000000165
 30
0.0
 11
17.49999999999995
 21
0.2499999999998888
 31
0.0
1001
REVIT
1002
{
1070
     1
1000
5171237
1002
}
1002
{
1070
     5
1000
4450563
1002
}
1002
{
1070
     3
1000
-2000029
1002
}
  0
LINE
  5
183
330
16E
100
AcDbEntity
  8
A-DOOR-FRAM
100
AcDbLine
 10
18.00000000000007
 20
-1.750000000000163
 30
0.0
 11
17.49999999999996
 21
-1.750000000000165
 31
0.0
1001
REVIT
1002
{
1070
     1
1000
5171237
1002
}
1002
{
1070
     5
1000
4450563
1002
}
1002
{
1070
     3
1000
-2000029
1002
}
  0
LINE
  5
184
330
16E
100
AcDbEntity
  8
A-DOOR-FRAM
100
AcDbLine
 10
18.00000000000008
 20
-3.499999999999923
 30
0.0
 11
18.00000000000007
 21
-1.750000000000163
 31
0.0
1001
REVIT
1002
{
1070
     1
1000
5171237
1002
}
1002
{
1070
     5
1000
4450563
1002
}
1002
{
1070
     3
1000
-2000029
1002
}
  0
LINE
  5
185
330
16E
100
AcDbEntity
  8
A-DOOR-FRAM
100
AcDbLine
 10
20.00000000000001
 20
-3.499999999999916
 30
0.0
 11
18.00000000000008
 21
-3.499999999999923
 31
0.0
1001
REVIT
1002
{
1070
     1
1000
5171237
1002
}
1002
{
1070
     5
1000
4450563
1002
}
1002
{
1070
     3
1000
-2000029
1002
}
  0
LINE
  5
186
330
16E
100
AcDbEntity
  8
A-DOOR
370
    25
100
AcDbLine
 10
17.99999999999995
 20
-39.49999999999938
 30
0.0
 11
16.24999999999995
 21
-39.49999999999938
 31
0.0
1001
REVIT
1002
{
1070
     1
1000
5171237
1002
}
1002
{
1070
     5
1000
4450563
1002
}
  0
LINE
  5
187
330
16E
100
AcDbEntity
  8
A-DOOR
370
    25
100
AcDbLine
 10
18.00000000000001
 20
-3.499999999999382
 30
0.0
 11
17.99999999999995
 21
-39.49999999999938
 31
0.0
1001
REVIT
1002
{
1070
     1
1000
5171237
1002
}
1002
{
1070
     5
1000
4450563
1002
}
  0
LINE
  5
188
330
16E
100
AcDbEntity
  8
A-DOOR
370
    25
100
AcDbLine
 10
16.24999999999995
 20
-39.49999999999938
 30
0.0
 11
16.25000000000001
 21
-3.499999999999379
 31
0.0
1001
REVIT
1002
{
1070
     1
1000
5171237
1002
}
1002
{
1070
     5
1000
4450563
1002
}
  0
LINE
  5
189
330
16E
100
AcDbEntity
  8
A-DOOR
370
    25
100
AcDbLine
 10
18.00000000000001
 20
-3.499999999999382
 30
0.0
 11
16.25000000000001
 21
-3.499999999999379
 31
0.0
1001
REVIT
1002
{
1070
     1
1000
5171237
1002
}
1002
{
1070
     5
1000
4450563
1002
}
  0
ARC
  5
18A
330
16E
100
AcDbEntity
  8
A-DOOR
370
     9
100
AcDbCircle
 10
18.00000000000001
 20
-3.499999999999384
 30
0.0
 40
36.0
100
AcDbArc
 50
179.5000000000028
 51
269.9999999999995
1001
REVIT
1002
{
1070
     1
1000
5171237
1002
}
1002
{
1070
     5
1000
4450563
1002
}
1002
{
1070
     3
1000
636535
1002
}
  0
ARC
  5
18B
330
16E
100
AcDbEntity
  8
A-DOOR
370
     9
100
AcDbCircle
 10
18.00000000000001
 20
-3.499999999999384
 30
0.0
 40
36.0
100
AcDbArc
 50
179.5000000000034
 51
269.9999999999995
1001
REVIT
1002
{
1070
     1
1000
5171237
1002
}
1002
{
1070
     5
1000
4450563
1002
}
1002
{
1070
     3
1000
636535
1002
}
  0
ENDBLK
  5
18D
330
16E
100
AcDbEntity
  8
0
100
AcDbBlockEnd
  0
BLOCK
  5
1AC
330
18F
100
AcDbEntity
  8
0
100
AcDbBlockBegin
  2
Door-Single_CE_ - HM Door-2_ HM Frame-5162622-BASEMENT Map Export
 70
     0
 10
0.0
 20
0.0
 30
0.0
  3
Door-Single_CE_ - HM Door-2_ HM Frame-5162622-BASEMENT Map Export
  1

  0
ARC
  5
190
330
18F
100
AcDbEntity
  8
A-DOOR
370
     9
100
AcDbCircle
 10
18.0000000000032
 20
3.499999999999462
 30
0.0
 40
36.0
100
AcDbArc
 50
90.00000000000012
 51
180.4999999999995
1001
REVIT
1002
{
1070
     1
1000
5171316
1002
}
1002
{
1070
     5
1000
4450563
1002
}
1002
{
1070
     3
1000
636535
1002
}
  0
LINE
  5
191
330
18F
100
AcDbEntity
  8
A-DOOR
100
AcDbLine
 10
18.00000000000001
 20
3.499999999999382
 30
0.0
 11
17.99999999999995
 21
39.49999999999938
 31
0.0
1001
REVIT
1002
{
1070
     1
1000
5171316
1002
}
1002
{
1070
     5
1000
4450563
1002
}
1002
{
1070
     3
1000
-2000025
1002
}
  0
LINE
  5
192
330
18F
100
AcDbEntity
  8
A-DOOR
100
AcDbLine
 10
17.99999999999995
 20
39.49999999999938
 30
0.0
 11
16.24999999999995
 21
39.49999999999938
 31
0.0
1001
REVIT
1002
{
1070
     1
1000
5171316
1002
}
1002
{
1070
     5
1000
4450563
1002
}
1002
{
1070
     3
1000
-2000025
1002
}
  0
LINE
  5
193
330
18F
100
AcDbEntity
  8
A-DOOR
100
AcDbLine
 10
16.24999999999995
 20
39.49999999999938
 30
0.0
 11
16.25000000000001
 21
3.499999999999379
 31
0.0
1001
REVIT
1002
{
1070
     1
1000
5171316
1002
}
1002
{
1070
     5
1000
4450563
1002
}
1002
{
1070
     3
1000
-2000025
1002
}
  0
LINE
  5
194
330
18F
100
AcDbEntity
  8
A-DOOR
100
AcDbLine
 10
16.25000000000001
 20
3.49999999999938
 30
0.0
 11
18.00000000000001
 21
3.499999999999382
 31
0.0
1001
REVIT
1002
{
1070
     1
1000
5171316
1002
}
1002
{
1070
     5
1000
4450563
1002
}
1002
{
1070
     3
1000
-2000025
1002
}
  0
ARC
  5
195
330
18F
100
AcDbEntity
  8
A-DOOR
370
     9
100
AcDbCircle
 10
18.00000000000001
 20
3.499999999999386
 30
0.0
 40
36.0
100
AcDbArc
 50
90.00000000000012
 51
180.4999999999995
1001
REVIT
1002
{
1070
     1
1000
5171316
1002
}
1002
{
1070
     5
1000
4450563
1002
}
1002
{
1070
     3
1000
636535
1002
}
  0
LINE
  5
196
330
18F
100
AcDbEntity
  8
A-DOOR-FRAM
100
AcDbLine
 10
20.00000000000001
 20
3.499999999999916
 30
0.0
 11
18.00000000000008
 21
3.499999999999923
 31
0.0
1001
REVIT
1002
{
1070
     1
1000
5171316
1002
}
1002
{
1070
     5
1000
4450563
1002
}
1002
{
1070
     3
1000
-2000029
1002
}
  0
LINE
  5
197
330
18F
100
AcDbEntity
  8
A-DOOR-FRAM
100
AcDbLine
 10
18.00000000000008
 20
3.499999999999923
 30
0.0
 11
18.00000000000007
 21
1.750000000000163
 31
0.0
1001
REVIT
1002
{
1070
     1
1000
5171316
1002
}
1002
{
1070
     5
1000
4450563
1002
}
1002
{
1070
     3
1000
-2000029
1002
}
  0
LINE
  5
198
330
18F
100
AcDbEntity
  8
A-DOOR-FRAM
100
AcDbLine
 10
18.00000000000007
 20
1.750000000000163
 30
0.0
 11
17.49999999999996
 21
1.750000000000165
 31
0.0
1001
REVIT
1002
{
1070
     1
1000
5171316
1002
}
1002
{
1070
     5
1000
4450563
1002
}
1002
{
1070
     3
1000
-2000029
1002
}
  0
LINE
  5
199
330
18F
100
AcDbEntity
  8
A-DOOR-FRAM
100
AcDbLine
 10
17.49999999999996
 20
1.750000000000165
 30
0.0
 11
17.49999999999995
 21
-0.2499999999998888
 31
0.0
1001
REVIT
1002
{
1070
     1
1000
5171316
1002
}
1002
{
1070
     5
1000
4450563
1002
}
1002
{
1070
     3
1000
-2000029
1002
}
  0
LINE
  5
19A
330
18F
100
AcDbEntity
  8
A-DOOR-FRAM
100
AcDbLine
 10
17.49999999999995
 20
-0.2499999999998887
 30
0.0
 11
18.00000000000007
 21
-0.2499999999998905
 31
0.0
1001
REVIT
1002
{
1070
     1
1000
5171316
1002
}
1002
{
1070
     5
1000
4450563
1002
}
1002
{
1070
     3
1000
-2000029
1002
}
  0
LINE
  5
19B
330
18F
100
AcDbEntity
  8
A-DOOR-FRAM
100
AcDbLine
 10
18.00000000000007
 20
-0.2499999999998905
 30
0.0
 11
18.00000000000006
 21
-3.500000000000056
 31
0.0
1001
REVIT
1002
{
1070
     1
1000
5171316
1002
}
1002
{
1070
     5
1000
4450563
1002
}
1002
{
1070
     3
1000
-2000029
1002
}
  0
LINE
  5
19C
330
18F
100
AcDbEntity
  8
A-DOOR-FRAM
100
AcDbLine
 10
18.00000000000006
 20
-3.500000000000056
 30
0.0
 11
19.99999999999999
 21
-3.500000000000063
 31
0.0
1001
REVIT
1002
{
1070
     1
1000
5171316
1002
}
1002
{
1070
     5
1000
4450563
1002
}
1002
{
1070
     3
1000
-2000029
1002
}
  0
LINE
  5
19D
330
18F
100
AcDbEntity
  8
A-DOOR-FRAM
100
AcDbLine
 10
19.99999999999999
 20
-3.500000000000063
 30
0.0
 11
20.00000000000001
 21
3.499999999999916
 31
0.0
1001
REVIT
1002
{
1070
     1
1000
5171316
1002
}
1002
{
1070
     5
1000
4450563
1002
}
1002
{
1070
     3
1000
-2000029
1002
}
  0
LINE
  5
19E
330
18F
100
AcDbEntity
  8
A-DOOR-FRAM
100
AcDbLine
 10
-17.99999999999987
 20
3.500000000000039
 30
0.0
 11
-20.00000000000011
 21
3.500000000000045
 31
0.0
1001
REVIT
1002
{
1070
     1
1000
5171316
1002
}
1002
{
1070
     5
1000
4450563
1002
}
1002
{
1070
     3
1000
-2000029
1002
}
  0
LINE
  5
19F
330
18F
100
AcDbEntity
  8
A-DOOR-FRAM
100
AcDbLine
 10
-20.00000000000011
 20
3.500000000000045
 30
0.0
 11
-20.00000000000013
 21
-3.499999999999933
 31
0.0
1001
REVIT
1002
{
1070
     1
1000
5171316
1002
}
1002
{
1070
     5
1000
4450563
1002
}
1002
{
1070
     3
1000
-2000029
1002
}
  0
LINE
  5
1A0
330
18F
100
AcDbEntity
  8
A-DOOR-FRAM
100
AcDbLine
 10
-20.00000000000013
 20
-3.499999999999933
 30
0.0
 11
-17.9999999999999
 21
-3.49999999999994
 31
0.0
1001
REVIT
1002
{
1070
     1
1000
5171316
1002
}
1002
{
1070
     5
1000
4450563
1002
}
1002
{
1070
     3
1000
-2000029
1002
}
  0
LINE
  5
1A1
330
18F
100
AcDbEntity
  8
A-DOOR-FRAM
100
AcDbLine
 10
-17.9999999999999
 20
-3.49999999999994
 30
0.0
 11
-17.99999999999988
 21
-0.2499999999997732
 31
0.0
1001
REVIT
1002
{
1070
     1
1000
5171316
1002
}
1002
{
1070
     5
1000
4450563
1002
}
1002
{
1070
     3
1000
-2000029
1002
}
  0
LINE
  5
1A2
330
18F
100
AcDbEntity
  8
A-DOOR-FRAM
100
AcDbLine
 10
-17.99999999999988
 20
-0.2499999999997732
 30
0.0
 11
-17.49999999999989
 21
-0.2499999999997764
 31
0.0
1001
REVIT
1002
{
1070
     1
1000
5171316
1002
}
1002
{
1070
     5
1000
4450563
1002
}
1002
{
1070
     3
1000
-2000029
1002
}
  0
LINE
  5
1A3
330
18F
100
AcDbEntity
  8
A-DOOR-FRAM
100
AcDbLine
 10
-17.49999999999989
 20
-0.2499999999997764
 30
0.0
 11
-17.49999999999988
 21
1.750000000000281
 31
0.0
1001
REVIT
1002
{
1070
     1
1000
5171316
1002
}
1002
{
1070
     5
1000
4450563
1002
}
1002
{
1070
     3
1000
-2000029
1002
}
  0
LINE
  5
1A4
330
18F
100
AcDbEntity
  8
A-DOOR-FRAM
100
AcDbLine
 10
-17.49999999999988
 20
1.750000000000281
 30
0.0
 11
-17.99999999999988
 21
1.750000000000283
 31
0.0
1001
REVIT
1002
{
1070
     1
1000
5171316
1002
}
1002
{
1070
     5
1000
4450563
1002
}
1002
{
1070
     3
1000
-2000029
1002
}
  0
LINE
  5
1A5
330
18F
100
AcDbEntity
  8
A-DOOR-FRAM
100
AcDbLine
 10
-17.99999999999988
 20
1.750000000000283
 30
0.0
 11
-17.99999999999987
 21
3.500000000000039
 31
0.0
1001
REVIT
1002
{
1070
     1
1000
5171316
1002
}
1002
{
1070
     5
1000
4450563
1002
}
1002
{
1070
     3
1000
-2000029
1002
}
  0
LINE
  5
1A6
330
18F
100
AcDbEntity
  8
A-DOOR
370
    25
100
AcDbLine
 10
17.99999999999995
 20
39.49999999999938
 30
0.0
 11
16.24999999999995
 21
39.49999999999938
 31
0.0
1001
REVIT
1002
{
1070
     1
1000
5171316
1002
}
1002
{
1070
     5
1000
4450563
1002
}
  0
LINE
  5
1A7
330
18F
100
AcDbEntity
  8
A-DOOR
370
    25
100
AcDbLine
 10
18.00000000000001
 20
3.499999999999382
 30
0.0
 11
17.99999999999995
 21
39.49999999999938
 31
0.0
1001
REVIT
1002
{
1070
     1
1000
5171316
1002
}
1002
{
1070
     5
1000
4450563
1002
}
  0
LINE
  5
1A8
330
18F
100
AcDbEntity
  8
A-DOOR
370
    25
100
AcDbLine
 10
16.24999999999995
 20
39.49999999999938
 30
0.0
 11
16.25000000000001
 21
3.499999999999379
 31
0.0
1001
REVIT
1002
{
1070
     1
1000
5171316
1002
}
1002
{
1070
     5
1000
4450563
1002
}
  0
LINE
  5
1A9
330
18F
100
AcDbEntity
  8
A-DOOR
370
    25
100
AcDbLine
 10
18.00000000000001
 20
3.499999999999382
 30
0.0
 11
16.25000000000001
 21
3.499999999999379
 31
0.0
1001
REVIT
1002
{
1070
     1
1000
5171316
1002
}
1002
{
1070
     5
1000
4450563
1002
}
  0
ARC
  5
1AA
330
18F
100
AcDbEntity
  8
A-DOOR
370
     9
100
AcDbCircle
 10
18.00000000000001
 20
3.499999999999384
 30
0.0
 40
36.0
100
AcDbArc
 50
90.00000000000012
 51
180.4999999999968
1001
REVIT
1002
{
1070
     1
1000
5171316
1002
}
1002
{
1070
     5
1000
4450563
1002
}
1002
{
1070
     3
1000
636535
1002
}
  0
ARC
  5
1AB
330
18F
100
AcDbEntity
  8
A-DOOR
370
     9
100
AcDbCircle
 10
18.00000000000001
 20
3.499999999999384
 30
0.0
 40
36.0
100
AcDbArc
 50
90.00000000000012
 51
180.4999999999962
1001
REVIT
1002
{
1070
     1
1000
5171316
1002
}
1002
{
1070
     5
1000
4450563
1002
}
1002
{
1070
     3
1000
636535
1002
}
  0
ENDBLK
  5
1AD
330
18F
100
AcDbEntity
  8
0
100
AcDbBlockEnd
  0
BLOCK
  5
1CF
330
1B2
100
AcDbEntity
  8
0
100
AcDbBlockBegin
  2
Door-Single_CE_ - HM Door-2_ HM Frame-5164562-BASEMENT Map Export
 70
     0
 10
0.0
 20
0.0
 30
0.0
  3
Door-Single_CE_ - HM Door-2_ HM Frame-5164562-BASEMENT Map Export
  1

  0
ARC
  5
1B3
330
1B2
100
AcDbEntity
  8
A-DOOR
370
     9
100
AcDbCircle
 10
18.00000000000321
 20
6.499999999999456
 30
0.0
 40
36.0
100
AcDbArc
 50
90.00000000000012
 51
180.4999999999995
1001
REVIT
1002
{
1070
     1
1000
5171514
1002
}
1002
{
1070
     5
1000
4450563
1002
}
1002
{
1070
     3
1000
636535
1002
}
  0
LINE
  5
1B4
330
1B2
100
AcDbEntity
  8
A-DOOR
100
AcDbLine
 10
18.00000000000002
 20
6.499999999999376
 30
0.0
 11
17.99999999999996
 21
42.49999999999936
 31
0.0
1001
REVIT
1002
{
1070
     1
1000
5171514
1002
}
1002
{
1070
     5
1000
4450563
1002
}
1002
{
1070
     3
1000
-2000025
1002
}
  0
LINE
  5
1B5
330
1B2
100
AcDbEntity
  8
A-DOOR
100
AcDbLine
 10
17.99999999999996
 20
42.49999999999937
 30
0.0
 11
16.24999999999996
 21
42.49999999999936
 31
0.0
1001
REVIT
1002
{
1070
     1
1000
5171514
1002
}
1002
{
1070
     5
1000
4450563
1002
}
1002
{
1070
     3
1000
-2000025
1002
}
  0
LINE
  5
1B6
330
1B2
100
AcDbEntity
  8
A-DOOR
100
AcDbLine
 10
16.24999999999996
 20
42.49999999999936
 30
0.0
 11
16.25000000000002
 21
6.499999999999373
 31
0.0
1001
REVIT
1002
{
1070
     1
1000
5171514
1002
}
1002
{
1070
     5
1000
4450563
1002
}
1002
{
1070
     3
1000
-2000025
1002
}
  0
LINE
  5
1B7
330
1B2
100
AcDbEntity
  8
A-DOOR
100
AcDbLine
 10
16.25000000000002
 20
6.499999999999373
 30
0.0
 11
18.00000000000002
 21
6.499999999999376
 31
0.0
1001
REVIT
1002
{
1070
     1
1000
5171514
1002
}
1002
{
1070
     5
1000
4450563
1002
}
1002
{
1070
     3
1000
-2000025
1002
}
  0
ARC
  5
1B8
330
1B2
100
AcDbEntity
  8
A-DOOR
370
     9
100
AcDbCircle
 10
18.00000000000002
 20
6.499999999999379
 30
0.0
 40
36.0
100
AcDbArc
 50
90.00000000000012
 51
180.4999999999995
1001
REVIT
1002
{
1070
     1
1000
5171514
1002
}
1002
{
1070
     5
1000
4450563
1002
}
1002
{
1070
     3
1000
636535
1002
}
  0
LINE
  5
1B9
330
1B2
100
AcDbEntity
  8
A-DOOR-FRAM
100
AcDbLine
 10
-17.99999999999986
 20
6.500000000000032
 30
0.0
 11
-20.0000000000001
 21
6.500000000000039
 31
0.0
1001
REVIT
1002
{
1070
     1
1000
5171514
1002
}
1002
{
1070
     5
1000
4450563
1002
}
1002
{
1070
     3
1000
-2000029
1002
}
  0
LINE
  5
1BA
330
1B2
100
AcDbEntity
  8
A-DOOR-FRAM
100
AcDbLine
 10
-20.0000000000001
 20
6.500000000000039
 30
0.0
 11
-20.00000000000014
 21
-6.499999999999936
 31
0.0
1001
REVIT
1002
{
1070
     1
1000
5171514
1002
}
1002
{
1070
     5
1000
4450563
1002
}
1002
{
1070
     3
1000
-2000029
1002
}
  0
LINE
  5
1BB
330
1B2
100
AcDbEntity
  8
A-DOOR-FRAM
100
AcDbLine
 10
-20.00000000000014
 20
-6.499999999999936
 30
0.0
 11
-17.99999999999991
 21
-6.499999999999942
 31
0.0
1001
REVIT
1002
{
1070
     1
1000
5171514
1002
}
1002
{
1070
     5
1000
4450563
1002
}
1002
{
1070
     3
1000
-2000029
1002
}
  0
LINE
  5
1BC
330
1B2
100
AcDbEntity
  8
A-DOOR-FRAM
100
AcDbLine
 10
-17.99999999999991
 20
-6.499999999999942
 30
0.0
 11
-17.99999999999988
 21
2.750000000000194
 31
0.0
1001
REVIT
1002
{
1070
     1
1000
5171514
1002
}
1002
{
1070
     5
1000
4450563
1002
}
1002
{
1070
     3
1000
-2000029
1002
}
  0
LINE
  5
1BD
330
1B2
100
AcDbEntity
  8
A-DOOR-FRAM
100
AcDbLine
 10
-17.99999999999988
 20
2.750000000000194
 30
0.0
 11
-17.49999999999991
 21
2.750000000000215
 31
0.0
1001
REVIT
1002
{
1070
     1
1000
5171514
1002
}
1002
{
1070
     5
1000
4450563
1002
}
1002
{
1070
     3
1000
-2000029
1002
}
  0
LINE
  5
1BE
330
1B2
100
AcDbEntity
  8
A-DOOR-FRAM
100
AcDbLine
 10
-17.49999999999991
 20
2.750000000000215
 30
0.0
 11
-17.49999999999989
 21
4.750000000000248
 31
0.0
1001
REVIT
1002
{
1070
     1
1000
5171514
1002
}
1002
{
1070
     5
1000
4450563
1002
}
1002
{
1070
     3
1000
-2000029
1002
}
  0
LINE
  5
1BF
330
1B2
100
AcDbEntity
  8
A-DOOR-FRAM
100
AcDbLine
 10
-17.49999999999989
 20
4.750000000000248
 30
0.0
 11
-17.99999999999987
 21
4.75000000000025
 31
0.0
1001
REVIT
1002
{
1070
     1
1000
5171514
1002
}
1002
{
1070
     5
1000
4450563
1002
}
1002
{
1070
     3
1000
-2000029
1002
}
  0
LINE
  5
1C0
330
1B2
100
AcDbEntity
  8
A-DOOR-FRAM
100
AcDbLine
 10
-17.99999999999987
 20
4.75000000000025
 30
0.0
 11
-17.99999999999986
 21
6.500000000000032
 31
0.0
1001
REVIT
1002
{
1070
     1
1000
5171514
1002
}
1002
{
1070
     5
1000
4450563
1002
}
1002
{
1070
     3
1000
-2000029
1002
}
  0
LINE
  5
1C1
330
1B2
100
AcDbEntity
  8
A-DOOR-FRAM
100
AcDbLine
 10
20.00000000000002
 20
6.49999999999991
 30
0.0
 11
18.00000000000009
 21
6.499999999999917
 31
0.0
1001
REVIT
1002
{
1070
     1
1000
5171514
1002
}
1002
{
1070
     5
1000
4450563
1002
}
1002
{
1070
     3
1000
-2000029
1002
}
  0
LINE
  5
1C2
330
1B2
100
AcDbEntity
  8
A-DOOR-FRAM
100
AcDbLine
 10
18.00000000000009
 20
6.499999999999917
 30
0.0
 11
18.00000000000009
 21
4.750000000000154
 31
0.0
1001
REVIT
1002
{
1070
     1
1000
5171514
1002
}
1002
{
1070
     5
1000
4450563
1002
}
1002
{
1070
     3
1000
-2000029
1002
}
  0
LINE
  5
1C3
330
1B2
100
AcDbEntity
  8
A-DOOR-FRAM
100
AcDbLine
 10
18.00000000000009
 20
4.750000000000154
 30
0.0
 11
17.49999999999997
 21
4.750000000000155
 31
0.0
1001
REVIT
1002
{
1070
     1
1000
5171514
1002
}
1002
{
1070
     5
1000
4450563
1002
}
1002
{
1070
     3
1000
-2000029
1002
}
  0
LINE
  5
1C4
330
1B2
100
AcDbEntity
  8
A-DOOR-FRAM
100
AcDbLine
 10
17.49999999999997
 20
4.750000000000155
 30
0.0
 11
17.49999999999996
 21
2.750000000000099
 31
0.0
1001
REVIT
1002
{
1070
     1
1000
5171514
1002
}
1002
{
1070
     5
1000
4450563
1002
}
1002
{
1070
     3
1000
-2000029
1002
}
  0
LINE
  5
1C5
330
1B2
100
AcDbEntity
  8
A-DOOR-FRAM
100
AcDbLine
 10
17.49999999999996
 20
2.750000000000099
 30
0.0
 11
18.00000000000007
 21
2.750000000000099
 31
0.0
1001
REVIT
1002
{
1070
     1
1000
5171514
1002
}
1002
{
1070
     5
1000
4450563
1002
}
1002
{
1070
     3
1000
-2000029
1002
}
  0
LINE
  5
1C6
330
1B2
100
AcDbEntity
  8
A-DOOR-FRAM
100
AcDbLine
 10
18.00000000000007
 20
2.750000000000099
 30
0.0
 11
18.00000000000005
 21
-6.500000000000058
 31
0.0
1001
REVIT
1002
{
1070
     1
1000
5171514
1002
}
1002
{
1070
     5
1000
4450563
1002
}
1002
{
1070
     3
1000
-2000029
1002
}
  0
LINE
  5
1C7
330
1B2
100
AcDbEntity
  8
A-DOOR-FRAM
100
AcDbLine
 10
18.00000000000005
 20
-6.500000000000058
 30
0.0
 11
19.99999999999998
 21
-6.500000000000064
 31
0.0
1001
REVIT
1002
{
1070
     1
1000
5171514
1002
}
1002
{
1070
     5
1000
4450563
1002
}
1002
{
1070
     3
1000
-2000029
1002
}
  0
LINE
  5
1C8
330
1B2
100
AcDbEntity
  8
A-DOOR-FRAM
100
AcDbLine
 10
19.99999999999998
 20
-6.500000000000064
 30
0.0
 11
20.00000000000002
 21
6.49999999999991
 31
0.0
1001
REVIT
1002
{
1070
     1
1000
5171514
1002
}
1002
{
1070
     5
1000
4450563
1002
}
1002
{
1070
     3
1000
-2000029
1002
}
  0
LINE
  5
1C9
330
1B2
100
AcDbEntity
  8
A-DOOR
370
    25
100
AcDbLine
 10
17.99999999999996
 20
42.49999999999937
 30
0.0
 11
16.24999999999996
 21
42.49999999999937
 31
0.0
1001
REVIT
1002
{
1070
     1
1000
5171514
1002
}
1002
{
1070
     5
1000
4450563
1002
}
  0
LINE
  5
1CA
330
1B2
100
AcDbEntity
  8
A-DOOR
370
    25
100
AcDbLine
 10
18.00000000000002
 20
6.499999999999376
 30
0.0
 11
17.99999999999996
 21
42.49999999999936
 31
0.0
1001
REVIT
1002
{
1070
     1
1000
5171514
1002
}
1002
{
1070
     5
1000
4450563
1002
}
  0
LINE
  5
1CB
330
1B2
100
AcDbEntity
  8
A-DOOR
370
    25
100
AcDbLine
 10
16.24999999999996
 20
42.49999999999937
 30
0.0
 11
16.25000000000002
 21
6.499999999999373
 31
0.0
1001
REVIT
1002
{
1070
     1
1000
5171514
1002
}
1002
{
1070
     5
1000
4450563
1002
}
  0
LINE
  5
1CC
330
1B2
100
AcDbEntity
  8
A-DOOR
370
    25
100
AcDbLine
 10
18.00000000000002
 20
6.499999999999376
 30
0.0
 11
16.25000000000002
 21
6.499999999999373
 31
0.0
1001
REVIT
1002
{
1070
     1
1000
5171514
1002
}
1002
{
1070
     5
1000
4450563
1002
}
  0
ARC
  5
1CD
330
1B2
100
AcDbEntity
  8
A-DOOR
370
     9
100
AcDbCircle
 10
18.00000000000002
 20
6.499999999999379
 30
0.0
 40
36.0
100
AcDbArc
 50
90.00000000000012
 51
180.4999999999968
1001
REVIT
1002
{
1070
     1
1000
5171514
1002
}
1002
{
1070
     5
1000
4450563
1002
}
1002
{
1070
     3
1000
636535
1002
}
  0
ARC
  5
1CE
330
1B2
100
AcDbEntity
  8
A-DOOR
370
     9
100
AcDbCircle
 10
18.00000000000002
 20
6.499999999999379
 30
0.0
 40
36.0
100
AcDbArc
 50
90.00000000000012
 51
180.4999999999962
1001
REVIT
1002
{
1070
     1
1000
5171514
1002
}
1002
{
1070
     5
1000
4450563
1002
}
1002
{
1070
     3
1000
636535
1002
}
  0
ENDBLK
  5
1D0
330
1B2
100
AcDbEntity
  8
0
100
AcDbBlockEnd
  0
BLOCK
  5
1F2
330
1D5
100
AcDbEntity
  8
0
100
AcDbBlockBegin
  2
Door-Single_CE_ - HM Door-2_ HM Frame-5164208-BASEMENT Map Export
 70
     0
 10
0.0
 20
0.0
 30
0.0
  3
Door-Single_CE_ - HM Door-2_ HM Frame-5164208-BASEMENT Map Export
  1

  0
ARC
  5
1D6
330
1D5
100
AcDbEntity
  8
A-DOOR
370
     9
100
AcDbCircle
 10
18.00000000000321
 20
-6.499999999999456
 30
0.0
 40
36.0
100
AcDbArc
 50
179.5000000000001
 51
269.9999999999995
1001
REVIT
1002
{
1070
     1
1000
5172186
1002
}
1002
{
1070
     5
1000
4450563
1002
}
1002
{
1070
     3
1000
636535
1002
}
  0
LINE
  5
1D7
330
1D5
100
AcDbEntity
  8
A-DOOR
100
AcDbLine
 10
18.00000000000002
 20
-6.499999999999376
 30
0.0
 11
17.99999999999996
 21
-42.49999999999936
 31
0.0
1001
REVIT
1002
{
1070
     1
1000
5172186
1002
}
1002
{
1070
     5
1000
4450563
1002
}
1002
{
1070
     3
1000
-2000025
1002
}
  0
LINE
  5
1D8
330
1D5
100
AcDbEntity
  8
A-DOOR
100
AcDbLine
 10
17.99999999999996
 20
-42.49999999999937
 30
0.0
 11
16.24999999999996
 21
-42.49999999999936
 31
0.0
1001
REVIT
1002
{
1070
     1
1000
5172186
1002
}
1002
{
1070
     5
1000
4450563
1002
}
1002
{
1070
     3
1000
-2000025
1002
}
  0
LINE
  5
1D9
330
1D5
100
AcDbEntity
  8
A-DOOR
100
AcDbLine
 10
16.24999999999996
 20
-42.49999999999936
 30
0.0
 11
16.25000000000002
 21
-6.499999999999373
 31
0.0
1001
REVIT
1002
{
1070
     1
1000
5172186
1002
}
1002
{
1070
     5
1000
4450563
1002
}
1002
{
1070
     3
1000
-2000025
1002
}
  0
LINE
  5
1DA
330
1D5
100
AcDbEntity
  8
A-DOOR
100
AcDbLine
 10
16.25000000000002
 20
-6.499999999999373
 30
0.0
 11
18.00000000000002
 21
-6.499999999999376
 31
0.0
1001
REVIT
1002
{
1070
     1
1000
5172186
1002
}
1002
{
1070
     5
1000
4450563
1002
}
1002
{
1070
     3
1000
-2000025
1002
}
  0
ARC
  5
1DB
330
1D5
100
AcDbEntity
  8
A-DOOR
370
     9
100
AcDbCircle
 10
18.00000000000002
 20
-6.499999999999379
 30
0.0
 40
36.0
100
AcDbArc
 50
179.5000000000001
 51
269.9999999999995
1001
REVIT
1002
{
1070
     1
1000
5172186
1002
}
1002
{
1070
     5
1000
4450563
1002
}
1002
{
1070
     3
1000
636535
1002
}
  0
LINE
  5
1DC
330
1D5
100
AcDbEntity
  8
A-DOOR-FRAM
100
AcDbLine
 10
-17.99999999999987
 20
-4.75000000000025
 30
0.0
 11
-17.99999999999986
 21
-6.500000000000032
 31
0.0
1001
REVIT
1002
{
1070
     1
1000
5172186
1002
}
1002
{
1070
     5
1000
4450563
1002
}
1002
{
1070
     3
1000
-2000029
1002
}
  0
LINE
  5
1DD
330
1D5
100
AcDbEntity
  8
A-DOOR-FRAM
100
AcDbLine
 10
-17.49999999999989
 20
-4.750000000000248
 30
0.0
 11
-17.99999999999987
 21
-4.75000000000025
 31
0.0
1001
REVIT
1002
{
1070
     1
1000
5172186
1002
}
1002
{
1070
     5
1000
4450563
1002
}
1002
{
1070
     3
1000
-2000029
1002
}
  0
LINE
  5
1DE
330
1D5
100
AcDbEntity
  8
A-DOOR-FRAM
100
AcDbLine
 10
-17.49999999999991
 20
-2.750000000000215
 30
0.0
 11
-17.49999999999989
 21
-4.750000000000248
 31
0.0
1001
REVIT
1002
{
1070
     1
1000
5172186
1002
}
1002
{
1070
     5
1000
4450563
1002
}
1002
{
1070
     3
1000
-2000029
1002
}
  0
LINE
  5
1DF
330
1D5
100
AcDbEntity
  8
A-DOOR-FRAM
100
AcDbLine
 10
-17.99999999999988
 20
-2.750000000000194
 30
0.0
 11
-17.49999999999991
 21
-2.750000000000215
 31
0.0
1001
REVIT
1002
{
1070
     1
1000
5172186
1002
}
1002
{
1070
     5
1000
4450563
1002
}
1002
{
1070
     3
1000
-2000029
1002
}
  0
LINE
  5
1E0
330
1D5
100
AcDbEntity
  8
A-DOOR-FRAM
100
AcDbLine
 10
-17.99999999999991
 20
6.499999999999942
 30
0.0
 11
-17.99999999999988
 21
-2.750000000000194
 31
0.0
1001
REVIT
1002
{
1070
     1
1000
5172186
1002
}
1002
{
1070
     5
1000
4450563
1002
}
1002
{
1070
     3
1000
-2000029
1002
}
  0
LINE
  5
1E1
330
1D5
100
AcDbEntity
  8
A-DOOR-FRAM
100
AcDbLine
 10
-20.00000000000014
 20
6.499999999999936
 30
0.0
 11
-17.99999999999991
 21
6.499999999999942
 31
0.0
1001
REVIT
1002
{
1070
     1
1000
5172186
1002
}
1002
{
1070
     5
1000
4450563
1002
}
1002
{
1070
     3
1000
-2000029
1002
}
  0
LINE
  5
1E2
330
1D5
100
AcDbEntity
  8
A-DOOR-FRAM
100
AcDbLine
 10
-20.0000000000001
 20
-6.500000000000039
 30
0.0
 11
-20.00000000000014
 21
6.499999999999936
 31
0.0
1001
REVIT
1002
{
1070
     1
1000
5172186
1002
}
1002
{
1070
     5
1000
4450563
1002
}
1002
{
1070
     3
1000
-2000029
1002
}
  0
LINE
  5
1E3
330
1D5
100
AcDbEntity
  8
A-DOOR-FRAM
100
AcDbLine
 10
-17.99999999999986
 20
-6.500000000000032
 30
0.0
 11
-20.0000000000001
 21
-6.500000000000039
 31
0.0
1001
REVIT
1002
{
1070
     1
1000
5172186
1002
}
1002
{
1070
     5
1000
4450563
1002
}
1002
{
1070
     3
1000
-2000029
1002
}
  0
LINE
  5
1E4
330
1D5
100
AcDbEntity
  8
A-DOOR-FRAM
100
AcDbLine
 10
19.99999999999998
 20
6.500000000000064
 30
0.0
 11
20.00000000000002
 21
-6.49999999999991
 31
0.0
1001
REVIT
1002
{
1070
     1
1000
5172186
1002
}
1002
{
1070
     5
1000
4450563
1002
}
1002
{
1070
     3
1000
-2000029
1002
}
  0
LINE
  5
1E5
330
1D5
100
AcDbEntity
  8
A-DOOR-FRAM
100
AcDbLine
 10
18.00000000000005
 20
6.500000000000058
 30
0.0
 11
19.99999999999998
 21
6.500000000000064
 31
0.0
1001
REVIT
1002
{
1070
     1
1000
5172186
1002
}
1002
{
1070
     5
1000
4450563
1002
}
1002
{
1070
     3
1000
-2000029
1002
}
  0
LINE
  5
1E6
330
1D5
100
AcDbEntity
  8
A-DOOR-FRAM
100
AcDbLine
 10
18.00000000000007
 20
-2.750000000000099
 30
0.0
 11
18.00000000000005
 21
6.500000000000058
 31
0.0
1001
REVIT
1002
{
1070
     1
1000
5172186
1002
}
1002
{
1070
     5
1000
4450563
1002
}
1002
{
1070
     3
1000
-2000029
1002
}
  0
LINE
  5
1E7
330
1D5
100
AcDbEntity
  8
A-DOOR-FRAM
100
AcDbLine
 10
17.49999999999996
 20
-2.750000000000099
 30
0.0
 11
18.00000000000007
 21
-2.750000000000099
 31
0.0
1001
REVIT
1002
{
1070
     1
1000
5172186
1002
}
1002
{
1070
     5
1000
4450563
1002
}
1002
{
1070
     3
1000
-2000029
1002
}
  0
LINE
  5
1E8
330
1D5
100
AcDbEntity
  8
A-DOOR-FRAM
100
AcDbLine
 10
17.49999999999997
 20
-4.750000000000155
 30
0.0
 11
17.49999999999996
 21
-2.750000000000099
 31
0.0
1001
REVIT
1002
{
1070
     1
1000
5172186
1002
}
1002
{
1070
     5
1000
4450563
1002
}
1002
{
1070
     3
1000
-2000029
1002
}
  0
LINE
  5
1E9
330
1D5
100
AcDbEntity
  8
A-DOOR-FRAM
100
AcDbLine
 10
18.00000000000009
 20
-4.750000000000154
 30
0.0
 11
17.49999999999997
 21
-4.750000000000155
 31
0.0
1001
REVIT
1002
{
1070
     1
1000
5172186
1002
}
1002
{
1070
     5
1000
4450563
1002
}
1002
{
1070
     3
1000
-2000029
1002
}
  0
LINE
  5
1EA
330
1D5
100
AcDbEntity
  8
A-DOOR-FRAM
100
AcDbLine
 10
18.00000000000009
 20
-6.499999999999917
 30
0.0
 11
18.00000000000009
 21
-4.750000000000154
 31
0.0
1001
REVIT
1002
{
1070
     1
1000
5172186
1002
}
1002
{
1070
     5
1000
4450563
1002
}
1002
{
1070
     3
1000
-2000029
1002
}
  0
LINE
  5
1EB
330
1D5
100
AcDbEntity
  8
A-DOOR-FRAM
100
AcDbLine
 10
20.00000000000002
 20
-6.49999999999991
 30
0.0
 11
18.00000000000009
 21
-6.499999999999917
 31
0.0
1001
REVIT
1002
{
1070
     1
1000
5172186
1002
}
1002
{
1070
     5
1000
4450563
1002
}
1002
{
1070
     3
1000
-2000029
1002
}
  0
LINE
  5
1EC
330
1D5
100
AcDbEntity
  8
A-DOOR
370
    25
100
AcDbLine
 10
17.99999999999996
 20
-42.49999999999937
 30
0.0
 11
16.24999999999996
 21
-42.49999999999937
 31
0.0
1001
REVIT
1002
{
1070
     1
1000
5172186
1002
}
1002
{
1070
     5
1000
4450563
1002
}
  0
LINE
  5
1ED
330
1D5
100
AcDbEntity
  8
A-DOOR
370
    25
100
AcDbLine
 10
18.00000000000002
 20
-6.499999999999376
 30
0.0
 11
17.99999999999996
 21
-42.49999999999936
 31
0.0
1001
REVIT
1002
{
1070
     1
1000
5172186
1002
}
1002
{
1070
     5
1000
4450563
1002
}
  0
LINE
  5
1EE
330
1D5
100
AcDbEntity
  8
A-DOOR
370
    25
100
AcDbLine
 10
16.24999999999996
 20
-42.49999999999937
 30
0.0
 11
16.25000000000002
 21
-6.499999999999373
 31
0.0
1001
REVIT
1002
{
1070
     1
1000
5172186
1002
}
1002
{
1070
     5
1000
4450563
1002
}
  0
LINE
  5
1EF
330
1D5
100
AcDbEntity
  8
A-DOOR
370
    25
100
AcDbLine
 10
18.00000000000002
 20
-6.499999999999376
 30
0.0
 11
16.25000000000002
 21
-6.499999999999373
 31
0.0
1001
REVIT
1002
{
1070
     1
1000
5172186
1002
}
1002
{
1070
     5
1000
4450563
1002
}
  0
ARC
  5
1F0
330
1D5
100
AcDbEntity
  8
A-DOOR
370
     9
100
AcDbCircle
 10
18.00000000000002
 20
-6.499999999999379
 30
0.0
 40
36.0
100
AcDbArc
 50
179.5000000000028
 51
269.9999999999995
1001
REVIT
1002
{
1070
     1
1000
5172186
1002
}
1002
{
1070
     5
1000
4450563
1002
}
1002
{
1070
     3
1000
636535
1002
}
  0
ARC
  5
1F1
330
1D5
100
AcDbEntity
  8
A-DOOR
370
     9
100
AcDbCircle
 10
18.00000000000002
 20
-6.499999999999379
 30
0.0
 40
36.0
100
AcDbArc
 50
179.5000000000034
 51
269.9999999999995
1001
REVIT
1002
{
1070
     1
1000
5172186
1002
}
1002
{
1070
     5
1000
4450563
1002
}
1002
{
1070
     3
1000
636535
1002
}
  0
ENDBLK
  5
1F3
330
1D5
100
AcDbEntity
  8
0
100
AcDbBlockEnd
  0
ENDSEC
  0
SECTION
  2
ENTITIES
  0
LINE
  5
88
330
70
100
AcDbEntity
  8
A-WALL
370
    40
100
AcDbLine
 10
-1177.874999999998
 20
189.7865924046536
 30
0.0
 11
-481.875
 21
189.7865924046514
 31
0.0
1001
REVIT
1002
{
1070
     1
1000
5131606
1002
}
1002
{
1070
     5
1000
639164
1002
}
1002
{
1070
     2
1000
-2000011
1002
}
  0
LINE
  5
8A
330
70
100
AcDbEntity
  8
A-WALL
370
    40
100
AcDbLine
 10
-481.8750000000001
 20
201.7865924046513
 30
0.0
 11
-606.8749999999989
 21
201.7865924046518
 31
0.0
1001
REVIT
1002
{
1070
     1
1000
5131606
1002
}
1002
{
1070
     5
1000
639164
1002
}
1002
{
1070
     2
1000
-2000011
1002
}
  0
LINE
  5
8B
330
70
100
AcDbEntity
  8
A-WALL
370
    40
100
AcDbLine
 10
-612.8749999999988
 20
201.7865924046518
 30
0.0
 11
-1165.874999999998
 21
201.7865924046537
 31
0.0
1001
REVIT
1002
{
1070
     1
1000
5131606
1002
}
1002
{
1070
     5
1000
639164
1002
}
1002
{
1070
     2
1000
-2000011
1002
}
  0
LINE
  5
8C
330
70
100
AcDbEntity
  8
A-WALL
370
    40
100
AcDbLine
 10
-481.8750000000001
 20
189.7865924046514
 30
0.0
 11
-481.8750000000001
 21
33.78659240465145
 31
0.0
1001
REVIT
1002
{
1070
     1
1000
5131658
1002
}
1002
{
1070
     5
1000
639164
1002
}
1002
{
1070
     2
1000
-2000011
1002
}
  0
LINE
  5
8E
330
70
100
AcDbEntity
  8
A-WALL
370
    40
100
AcDbLine
 10
-469.8750000000002
 20
45.78659240465142
 30
0.0
 11
-469.875
 21
237.7865924046514
 31
0.0
1001
REVIT
1002
{
1070
     1
1000
5131658
1002
}
1002
{
1070
     5
1000
639164
1002
}
1002
{
1070
     2
1000
-2000011
1002
}
  0
LINE
  5
8F
330
70
100
AcDbEntity
  8
A-WALL
370
    40
100
AcDbLine
 10
-481.8750000000001
 20
33.78659240465145
 30
0.0
 11
-193.8750000000001
 21
33.78659240465143
 31
0.0
1001
REVIT
1002
{
1070
     1
1000
5131712
1002
}
1002
{
1070
     5
1000
639164
1002
}
1002
{
1070
     2
1000
-2000011
1002
}
  0
LINE
  5
91
330
70
100
AcDbEntity
  8
A-WALL
370
    40
100
AcDbLine
 10
-205.8750000000001
 20
45.78659240465142
 30
0.0
 11
-469.8750000000001
 21
45.78659240465142
 31
0.0
1001
REVIT
1002
{
1070
     1
1000
5131712
1002
}
1002
{
1070
     5
1000
639164
1002
}
1002
{
1070
     2
1000
-2000011
1002
}
  0
LINE
  5
92
330
70
100
AcDbEntity
  8
A-WALL
370
    40
100
AcDbLine
 10
-193.8750000000001
 20
33.78659240465143
 30
0.0
 11
-193.8749999999998
 21
189.786592404651
 31
0.0
1001
REVIT
1002
{
1070
     1
1000
5131803
1002
}
1002
{
1070
     5
1000
639164
1002
}
1002
{
1070
     2
1000
-2000011
1002
}
  0
LINE
  5
93
330
70
100
AcDbEntity
  8
A-WALL
370
    40
100
AcDbLine
 10
-193.8749999999998
 20
201.7865924046509
 30
0.0
 11
-193.8749999999995
 21
411.7865924046514
 31
0.0
1001
REVIT
1002
{
1070
     1
1000
5131803
1002
}
1002
{
1070
     5
1000
639164
1002
}
1002
{
1070
     2
1000
-2000011
1002
}
  0
LINE
  5
94
330
70
100
AcDbEntity
  8
A-WALL
370
    40
100
AcDbLine
 10
-193.8749999999995
 20
411.7865924046514
 30
0.0
 11
-205.8749999999995
 21
411.7865924046514
 31
0.0
1001
REVIT
1002
{
1070
     1
1000
5131803
1002
}
1002
{
1070
     5
1000
639164
1002
}
1002
{
1070
     2
1000
-2000011
1002
}
  0
LINE
  5
95
330
70
100
AcDbEntity
  8
A-WALL
370
    40
100
AcDbLine
 10
-205.8749999999995
 20
411.7865924046514
 30
0.0
 11
-205.8749999999998
 21
249.7865924046506
 31
0.0
1001
REVIT
1002
{
1070
     1
1000
5131803
1002
}
1002
{
1070
     5
1000
639164
1002
}
1002
{
1070
     2
1000
-2000011
1002
}
  0
LINE
  5
96
330
70
100
AcDbEntity
  8
A-WALL
370
    40
100
AcDbLine
 10
-205.8749999999998
 20
237.7865924046506
 30
0.0
 11
-205.8750000000001
 21
45.78659240465142
 31
0.0
1001
REVIT
1002
{
1070
     1
1000
5131803
1002
}
1002
{
1070
     5
1000
639164
1002
}
1002
{
1070
     2
1000
-2000011
1002
}
  0
LINE
  5
97
330
70
100
AcDbEntity
  8
A-WALL
370
    40
100
AcDbLine
 10
-193.8749999999998
 20
189.786592404651
 30
0.0
 11
502.125
 21
189.7865924046487
 31
0.0
1001
REVIT
1002
{
1070
     1
1000
5131955
1002
}
1002
{
1070
     5
1000
639164
1002
}
1002
{
1070
     2
1000
-2000011
1002
}
  0
LINE
  5
99
330
70
100
AcDbEntity
  8
A-WALL
370
    40
100
AcDbLine
 10
490.125
 20
201.7865924046487
 30
0.0
 11
-193.8749999999998
 21
201.7865924046509
 31
0.0
1001
REVIT
1002
{
1070
     1
1000
5131955
1002
}
1002
{
1070
     5
1000
639164
1002
}
1002
{
1070
     2
1000
-2000011
1002
}
  0
LINE
  5
9A
330
70
100
AcDbEntity
  8
A-WALL
370
    40
100
AcDbLine
 10
502.125
 20
189.7865924046487
 30
0.0
 11
502.1250000000002
 21
234.7865924046439
 31
0.0
1001
REVIT
1002
{
1070
     1
1000
5131994
1002
}
1002
{
1070
     5
1000
639164
1002
}
1002
{
1070
     2
1000
-2000011
1002
}
  0
LINE
  5
9C
330
70
100
AcDbEntity
  8
A-WALL
370
    40
100
AcDbLine
 10
490.1250000000003
 20
246.786592404644
 30
0.0
 11
490.125
 21
201.7865924046487
 31
0.0
1001
REVIT
1002
{
1070
     1
1000
5131994
1002
}
1002
{
1070
     5
1000
639164
1002
}
1002
{
1070
     2
1000
-2000011
1002
}
  0
LINE
  5
9D
330
70
100
AcDbEntity
  8
A-WALL
370
    40
100
AcDbLine
 10
502.1250000000002
 20
234.7865924046439
 30
0.0
 11
711.1249999999992
 21
234.7865924046425
 31
0.0
1001
REVIT
1002
{
1070
     1
1000
5132087
1002
}
1002
{
1070
     5
1000
639164
1002
}
1002
{
1070
     2
1000
-2000011
1002
}
  0
LINE
  5
9F
330
70
100
AcDbEntity
  8
A-WALL
370
    40
100
AcDbLine
 10
699.1249999999993
 20
246.7865924046426
 30
0.0
 11
490.1250000000003
 21
246.786592404644
 31
0.0
1001
REVIT
1002
{
1070
     1
1000
5132087
1002
}
1002
{
1070
     5
1000
639164
1002
}
1002
{
1070
     2
1000
-2000011
1002
}
  0
LINE
  5
A0
330
70
100
AcDbEntity
  8
A-WALL
370
    40
100
AcDbLine
 10
711.1249999999992
 20
234.7865924046425
 30
0.0
 11
711.1250000000003
 21
381.7865924046472
 31
0.0
1001
REVIT
1002
{
1070
     1
1000
5132142
1002
}
1002
{
1070
     5
1000
639164
1002
}
1002
{
1070
     2
1000
-2000011
1002
}
  0
LINE
  5
A2
330
70
100
AcDbEntity
  8
A-WALL
370
    40
100
AcDbLine
 10
699.1250000000003
 20
369.7865924046474
 30
0.0
 11
699.1249999999994
 21
246.7865924046426
 31
0.0
1001
REVIT
1002
{
1070
     1
1000
5132142
1002
}
1002
{
1070
     5
1000
639164
1002
}
1002
{
1070
     2
1000
-2000011
1002
}
  0
LINE
  5
A3
330
70
100
AcDbEntity
  8
A-WALL
370
    40
100
AcDbLine
 10
711.1250000000003
 20
381.7865924046472
 30
0.0
 11
640.1250000000012
 21
381.7865924046478
 31
0.0
1001
REVIT
1002
{
1070
     1
1000
5132248
1002
}
1002
{
1070
     5
1000
639164
1002
}
1002
{
1070
     2
1000
-2000011
1002
}
  0
LINE
  5
A4
330
70
100
AcDbEntity
  8
A-WALL
370
    40
100
AcDbLine
 10
628.1250000000012
 20
381.7865924046479
 30
0.0
 11
502.1250000000015
 21
381.7865924046487
 31
0.0
1001
REVIT
1002
{
1070
     1
1000
5132248
1002
}
1002
{
1070
     5
1000
639164
1002
}
1002
{
1070
     2
1000
-2000011
1002
}
  0
LINE
  5
A6
330
70
100
AcDbEntity
  8
A-WALL
370
    40
100
AcDbLine
 10
490.1250000000013
 20
369.7865924046488
 30
0.0
 11
699.1250000000003
 21
369.7865924046474
 31
0.0
1001
REVIT
1002
{
1070
     1
1000
5132248
1002
}
1002
{
1070
     5
1000
639164
1002
}
1002
{
1070
     2
1000
-2000011
1002
}
  0
LINE
  5
A7
330
70
100
AcDbEntity
  8
A-WALL
370
    40
100
AcDbLine
 10
502.1250000000015
 20
381.7865924046487
 30
0.0
 11
502.1250000000017
 21
417.7865924046487
 31
0.0
1001
REVIT
1002
{
1070
     1
1000
5132294
1002
}
1002
{
1070
     5
1000
639164
1002
}
1002
{
1070
     2
1000
-2000011
1002
}
  0
LINE
  5
A8
330
70
100
AcDbEntity
  8
A-WALL
370
    40
100
AcDbLine
 10
502.1250000000017
 20
417.7865924046487
 30
0.0
 11
490.1250000000016
 21
417.7865924046488
 31
0.0
1001
REVIT
1002
{
1070
     1
1000
5132294
1002
}
1002
{
1070
     5
1000
639164
1002
}
1002
{
1070
     2
1000
-2000011
1002
}
  0
LINE
  5
A9
330
70
100
AcDbEntity
  8
A-WALL
370
    40
100
AcDbLine
 10
490.1250000000016
 20
417.7865924046488
 30
0.0
 11
490.1250000000013
 21
369.7865924046488
 31
0.0
1001
REVIT
1002
{
1070
     1
1000
5132294
1002
}
1002
{
1070
     5
1000
639164
1002
}
1002
{
1070
     2
1000
-2000011
1002
}
  0
LINE
  5
AA
330
70
100
AcDbEntity
  8
A-WALL
370
    40
100
AcDbLine
 10
640.1250000000012
 20
381.7865924046478
 30
0.0
 11
640.1250000000016
 21
705.7865924046478
 31
0.0
1001
REVIT
1002
{
1070
     1
1000
5132404
1002
}
1002
{
1070
     5
1000
639164
1002
}
1002
{
1070
     2
1000
-2000011
1002
}
  0
LINE
  5
AC
330
70
100
AcDbEntity
  8
A-WALL
370
    40
100
AcDbLine
 10
628.1250000000016
 20
693.7865924046477
 30
0.0
 11
628.1250000000012
 21
381.7865924046479
 31
0.0
1001
REVIT
1002
{
1070
     1
1000
5132404
1002
}
1002
{
1070
     5
1000
639164
1002
}
1002
{
1070
     2
1000
-2000011
1002
}
  0
LINE
  5
AD
330
70
100
AcDbEntity
  8
A-WALL
370
    40
100
AcDbLine
 10
640.1250000000016
 20
705.7865924046478
 30
0.0
 11
-7.874999999998101
 21
705.7865924046478
 31
0.0
1001
REVIT
1002
{
1070
     1
1000
5132519
1002
}
1002
{
1070
     5
1000
639164
1002
}
1002
{
1070
     2
1000
-2000011
1002
}
  0
LINE
  5
AE
330
70
100
AcDbEntity
  8
A-WALL
370
    40
100
AcDbLine
 10
-19.87499999999813
 20
705.7865924046478
 30
0.0
 11
-61.87499999999818
 21
705.7865924046478
 31
0.0
1001
REVIT
1002
{
1070
     1
1000
5132519
1002
}
1002
{
1070
     5
1000
639164
1002
}
1002
{
1070
     2
1000
-2000011
1002
}
  0
LINE
  5
B0
330
70
100
AcDbEntity
  8
A-WALL
370
    40
100
AcDbLine
 10
-49.87499999999812
 20
693.7865924046477
 30
0.0
 11
628.1250000000018
 21
693.7865924046477
 31
0.0
1001
REVIT
1002
{
1070
     1
1000
5132519
1002
}
1002
{
1070
     5
1000
639164
1002
}
1002
{
1070
     2
1000
-2000011
1002
}
  0
LINE
  5
B1
330
70
100
AcDbEntity
  8
A-WALL
370
    40
100
AcDbLine
 10
-7.874999999998123
 20
705.7865924046478
 30
0.0
 11
-7.8749999999979
 21
843.7865924046477
 31
0.0
1001
REVIT
1002
{
1070
     1
1000
5132624
1002
}
1002
{
1070
     5
1000
639164
1002
}
1002
{
1070
     2
1000
-2000011
1002
}
  0
LINE
  5
B3
330
70
100
AcDbEntity
  8
A-WALL
370
    40
100
AcDbLine
 10
-19.87499999999792
 20
831.7865924046477
 30
0.0
 11
-19.87499999999812
 21
705.7865924046476
 31
0.0
1001
REVIT
1002
{
1070
     1
1000
5132624
1002
}
1002
{
1070
     5
1000
639164
1002
}
1002
{
1070
     2
1000
-2000011
1002
}
  0
LINE
  5
B4
330
70
100
AcDbEntity
  8
A-WALL
370
    40
100
AcDbLine
 10
-7.8749999999979
 20
843.7865924046477
 30
0.0
 11
-115.8749999999978
 21
843.7865924046477
 31
0.0
1001
REVIT
1002
{
1070
     1
1000
5132680
1002
}
1002
{
1070
     5
1000
639164
1002
}
1002
{
1070
     2
1000
-2000011
1002
}
  0
LINE
  5
B6
330
70
100
AcDbEntity
  8
A-WALL
370
    40
100
AcDbLine
 10
-199.8749999999978
 20
831.7865924046477
 30
0.0
 11
-19.87499999999791
 21
831.7865924046477
 31
0.0
1001
REVIT
1002
{
1070
     1
1000
5132680
1002
}
1002
{
1070
     5
1000
639164
1002
}
1002
{
1070
     2
1000
-2000011
1002
}
  0
LINE
  5
B7
330
70
100
AcDbEntity
  8
A-WALL
370
    40
100
AcDbLine
 10
-115.8749999999978
 20
843.7865924046477
 30
0.0
 11
-115.8749999999972
 21
1239.786592404648
 31
0.0
1001
REVIT
1002
{
1070
     1
1000
5132863
1002
}
1002
{
1070
     5
1000
639164
1002
}
1002
{
1070
     2
1000
-2000011
1002
}
  0
LINE
  5
B9
330
70
100
AcDbEntity
  8
A-WALL
370
    40
100
AcDbLine
 10
-127.8749999999972
 20
1227.786592404648
 30
0.0
 11
-127.8749999999978
 21
843.7865924046477
 31
0.0
1001
REVIT
1002
{
1070
     1
1000
5132863
1002
}
1002
{
1070
     5
1000
639164
1002
}
1002
{
1070
     2
1000
-2000011
1002
}
  0
LINE
  5
BA
330
70
100
AcDbEntity
  8
A-WALL
370
    40
100
AcDbLine
 10
-115.8749999999972
 20
1239.786592404648
 30
0.0
 11
-559.8749999999971
 21
1239.786592404647
 31
0.0
1001
REVIT
1002
{
1070
     1
1000
5132958
1002
}
1002
{
1070
     5
1000
639164
1002
}
1002
{
1070
     2
1000
-2000011
1002
}
  0
LINE
  5
BC
330
70
100
AcDbEntity
  8
A-WALL
370
    40
100
AcDbLine
 10
-547.8749999999973
 20
1227.786592404647
 30
0.0
 11
-127.8749999999972
 21
1227.786592404648
 31
0.0
1001
REVIT
1002
{
1070
     1
1000
5132958
1002
}
1002
{
1070
     5
1000
639164
1002
}
1002
{
1070
     2
1000
-2000011
1002
}
  0
LINE
  5
BD
330
70
100
AcDbEntity
  8
A-WALL
370
    40
100
AcDbLine
 10
-559.8749999999971
 20
1239.786592404647
 30
0.0
 11
-559.874999999998
 21
705.7865924046478
 31
0.0
1001
REVIT
1002
{
1070
     1
1000
5133068
1002
}
1002
{
1070
     5
1000
639164
1002
}
1002
{
1070
     2
1000
-2000011
1002
}
  0
LINE
  5
BE
330
70
100
AcDbEntity
  8
A-WALL
370
    40
100
AcDbLine
 10
-547.8749999999981
 20
705.7865924046476
 30
0.0
 11
-547.8749999999979
 21
765.7865924046476
 31
0.0
1001
REVIT
1002
{
1070
     1
1000
5133068
1002
}
1002
{
1070
     5
1000
639164
1002
}
1002
{
1070
     2
1000
-2000011
1002
}
  0
LINE
  5
BF
330
70
100
AcDbEntity
  8
A-WALL
370
    40
100
AcDbLine
 10
-547.8749999999978
 20
777.7865924046477
 30
0.0
 11
-547.8749999999973
 21
1227.786592404648
 31
0.0
1001
REVIT
1002
{
1070
     1
1000
5133068
1002
}
1002
{
1070
     5
1000
639164
1002
}
1002
{
1070
     2
1000
-2000011
1002
}
  0
LINE
  5
C0
330
70
100
AcDbEntity
  8
A-WALL
370
    40
100
AcDbLine
 10
-478.874999999998
 20
705.7865924046475
 30
0.0
 11
-547.8749999999981
 21
705.7865924046476
 31
0.0
1001
REVIT
1002
{
1070
     1
1000
5133246
1002
}
1002
{
1070
     5
1000
639164
1002
}
1002
{
1070
     2
1000
-2000011
1002
}
  0
LINE
  5
C1
330
70
100
AcDbEntity
  8
A-WALL
370
    40
100
AcDbLine
 10
-559.8749999999982
 20
705.7865924046478
 30
0.0
 11
-713.4814621532078
 21
705.7865924046483
 31
0.0
1001
REVIT
1002
{
1070
     1
1000
5133246
1002
}
1002
{
1070
     5
1000
639164
1002
}
1002
{
1070
     2
1000
-2000011
1002
}
  0
LINE
  5
C2
330
70
100
AcDbEntity
  8
A-WALL
370
    40
100
AcDbLine
 10
-768.9989999999975
 20
705.7865924046484
 30
0.0
 11
-779.8750000000157
 21
705.7865924046484
 31
0.0
1001
REVIT
1002
{
1070
     1
1000
5133246
1002
}
1002
{
1070
     5
1000
639164
1002
}
1002
{
1070
     2
1000
-2000011
1002
}
  0
LINE
  5
C3
330
70
100
AcDbEntity
  8
A-WALL
370
    40
100
AcDbLine
 10
-779.8750000000157
 20
705.7865924046484
 30
0.0
 11
-779.8750000000158
 21
693.7865924046484
 31
0.0
1001
REVIT
1002
{
1070
     1
1000
5133246
1002
}
1002
{
1070
     5
1000
639164
1002
}
1002
{
1070
     2
1000
-2000011
1002
}
  0
LINE
  5
C4
330
70
100
AcDbEntity
  8
A-WALL
370
    40
100
AcDbLine
 10
-779.8750000000158
 20
693.7865924046484
 30
0.0
 11
-765.8750000000003
 21
693.7865924046484
 31
0.0
1001
REVIT
1002
{
1070
     1
1000
5133246
1002
}
1002
{
1070
     5
1000
639164
1002
}
1002
{
1070
     2
1000
-2000011
1002
}
  0
LINE
  5
C5
330
70
100
AcDbEntity
  8
A-WALL
370
    40
100
AcDbLine
 10
-759.8750000000003
 20
693.7865924046484
 30
0.0
 11
-559.874999999998
 21
693.7865924046477
 31
0.0
1001
REVIT
1002
{
1070
     1
1000
5133246
1002
}
1002
{
1070
     5
1000
639164
1002
}
1002
{
1070
     2
1000
-2000011
1002
}
  0
LINE
  5
C6
330
70
100
AcDbEntity
  8
A-WALL
370
    40
100
AcDbLine
 10
-547.8749999999981
 20
693.7865924046477
 30
0.0
 11
-466.8749999999979
 21
693.7865924046474
 31
0.0
1001
REVIT
1002
{
1070
     1
1000
5133246
1002
}
1002
{
1070
     5
1000
639164
1002
}
1002
{
1070
     2
1000
-2000011
1002
}
  0
LINE
  5
C7
330
70
100
AcDbEntity
  8
A-WALL
370
    40
100
AcDbLine
 10
-819.8750000000158
 20
705.7865924046486
 30
0.0
 11
-1315.874999999998
 21
705.7865924046502
 31
0.0
1001
REVIT
1002
{
1070
     1
1000
5133246
1002
}
1002
{
1070
     5
1000
639164
1002
}
1002
{
1070
     2
1000
-2000011
1002
}
  0
LINE
  5
C9
330
70
100
AcDbEntity
  8
A-WALL
370
    40
100
AcDbLine
 10
-1303.874999999998
 20
693.7865924046502
 30
0.0
 11
-1135.875
 21
693.7865924046497
 31
0.0
1001
REVIT
1002
{
1070
     1
1000
5133246
1002
}
1002
{
1070
     5
1000
639164
1002
}
1002
{
1070
     2
1000
-2000011
1002
}
  0
LINE
  5
CA
330
70
100
AcDbEntity
  8
A-WALL
370
    40
100
AcDbLine
 10
-1127.875
 20
693.7865924046495
 30
0.0
 11
-981.8750000000001
 21
693.7865924046492
 31
0.0
1001
REVIT
1002
{
1070
     1
1000
5133246
1002
}
1002
{
1070
     5
1000
639164
1002
}
1002
{
1070
     2
1000
-2000011
1002
}
  0
LINE
  5
CB
330
70
100
AcDbEntity
  8
A-WALL
370
    40
100
AcDbLine
 10
-975.875
 20
693.786592404649
 30
0.0
 11
-890.8750000000001
 21
693.7865924046487
 31
0.0
1001
REVIT
1002
{
1070
     1
1000
5133246
1002
}
1002
{
1070
     5
1000
639164
1002
}
1002
{
1070
     2
1000
-2000011
1002
}
  0
LINE
  5
CC
330
70
100
AcDbEntity
  8
A-WALL
370
    40
100
AcDbLine
 10
-884.875
 20
693.7865924046487
 30
0.0
 11
-826.8750000000002
 21
693.7865924046486
 31
0.0
1001
REVIT
1002
{
1070
     1
1000
5133246
1002
}
1002
{
1070
     5
1000
639164
1002
}
1002
{
1070
     2
1000
-2000011
1002
}
  0
LINE
  5
CD
330
70
100
AcDbEntity
  8
A-WALL
370
    40
100
AcDbLine
 10
-820.8750000000001
 20
693.7865924046486
 30
0.0
 11
-819.8750000000158
 21
693.7865924046486
 31
0.0
1001
REVIT
1002
{
1070
     1
1000
5133246
1002
}
1002
{
1070
     5
1000
639164
1002
}
1002
{
1070
     2
1000
-2000011
1002
}
  0
LINE
  5
CE
330
70
100
AcDbEntity
  8
A-WALL
370
    40
100
AcDbLine
 10
-819.8750000000158
 20
693.7865924046486
 30
0.0
 11
-819.8750000000158
 21
705.7865924046486
 31
0.0
1001
REVIT
1002
{
1070
     1
1000
5133246
1002
}
1002
{
1070
     5
1000
639164
1002
}
1002
{
1070
     2
1000
-2000011
1002
}
  0
LINE
  5
CF
330
70
100
AcDbEntity
  8
A-WALL
370
    40
100
AcDbLine
 10
-1315.874999999998
 20
705.7865924046502
 30
0.0
 11
-1315.874999999998
 21
489.7865924046501
 31
0.0
1001
REVIT
1002
{
1070
     1
1000
5133315
1002
}
1002
{
1070
     5
1000
639164
1002
}
1002
{
1070
     2
1000
-2000011
1002
}
  0
LINE
  5
D0
330
70
100
AcDbEntity
  8
A-WALL
370
    40
100
AcDbLine
 10
-1315.874999999998
 20
477.7865924046501
 30
0.0
 11
-1315.874999999998
 21
372.78659240465
 31
0.0
1001
REVIT
1002
{
1070
     1
1000
5133315
1002
}
1002
{
1070
     5
1000
639164
1002
}
1002
{
1070
     2
1000
-2000011
1002
}
  0
LINE
  5
D1
330
70
100
AcDbEntity
  8
A-WALL
370
    40
100
AcDbLine
 10
-1303.874999999998
 20
372.78659240465
 30
0.0
 11
-1303.874999999998
 21
693.7865924046502
 31
0.0
1001
REVIT
1002
{
1070
     1
1000
5133315
1002
}
1002
{
1070
     5
1000
639164
1002
}
1002
{
1070
     2
1000
-2000011
1002
}
  0
LINE
  5
D2
330
70
100
AcDbEntity
  8
A-WALL
370
    40
100
AcDbLine
 10
-1315.874999999998
 20
489.7865924046501
 30
0.0
 11
-1393.874999999998
 21
489.7865924046501
 31
0.0
1001
REVIT
1002
{
1070
     1
1000
5133370
1002
}
1002
{
1070
     5
1000
639164
1002
}
1002
{
1070
     2
1000
-2000011
1002
}
  0
LINE
  5
D4
330
70
100
AcDbEntity
  8
A-WALL
370
    40
100
AcDbLine
 10
-1381.874999999998
 20
477.7865924046501
 30
0.0
 11
-1315.874999999998
 21
477.7865924046501
 31
0.0
1001
REVIT
1002
{
1070
     1
1000
5133370
1002
}
1002
{
1070
     5
1000
639164
1002
}
1002
{
1070
     2
1000
-2000011
1002
}
  0
LINE
  5
D5
330
70
100
AcDbEntity
  8
A-WALL
370
    40
100
AcDbLine
 10
-1393.874999999998
 20
489.7865924046501
 30
0.0
 11
-1393.874999999998
 21
234.7865924046503
 31
0.0
1001
REVIT
1002
{
1070
     1
1000
5133448
1002
}
1002
{
1070
     5
1000
639164
1002
}
1002
{
1070
     2
1000
-2000011
1002
}
  0
LINE
  5
D7
330
70
100
AcDbEntity
  8
A-WALL
370
    40
100
AcDbLine
 10
-1381.874999999998
 20
246.7865924046503
 30
0.0
 11
-1381.874999999998
 21
360.7865924046502
 31
0.0
1001
REVIT
1002
{
1070
     1
1000
5133448
1002
}
1002
{
1070
     5
1000
639164
1002
}
1002
{
1070
     2
1000
-2000011
1002
}
  0
LINE
  5
D8
330
70
100
AcDbEntity
  8
A-WALL
370
    40
100
AcDbLine
 10
-1381.874999999998
 20
372.7865924046502
 30
0.0
 11
-1381.874999999998
 21
477.7865924046501
 31
0.0
1001
REVIT
1002
{
1070
     1
1000
5133448
1002
}
1002
{
1070
     5
1000
639164
1002
}
1002
{
1070
     2
1000
-2000011
1002
}
  0
LINE
  5
D9
330
70
100
AcDbEntity
  8
A-WALL
370
    40
100
AcDbLine
 10
-1393.874999999998
 20
234.7865924046503
 30
0.0
 11
-1177.874999999998
 21
234.7865924046496
 31
0.0
1001
REVIT
1002
{
1070
     1
1000
5133527
1002
}
1002
{
1070
     5
1000
639164
1002
}
1002
{
1070
     2
1000
-2000011
1002
}
  0
LINE
  5
DA
330
70
100
AcDbEntity
  8
A-WALL
370
    40
100
AcDbLine
 10
-1177.874999999998
 20
246.7865924046496
 30
0.0
 11
-1381.874999999998
 21
246.7865924046503
 31
0.0
1001
REVIT
1002
{
1070
     1
1000
5133527
1002
}
1002
{
1070
     5
1000
639164
1002
}
1002
{
1070
     2
1000
-2000011
1002
}
  0
LINE
  5
DB
330
70
100
AcDbEntity
  8
A-WALL
370
    40
100
AcDbLine
 10
-1177.874999999998
 20
397.7865924046495
 30
0.0
 11
-1177.874999999998
 21
372.7865924046496
 31
0.0
1001
REVIT
1002
{
1070
     1
1000
5133572
1002
}
1002
{
1070
     5
1000
639164
1002
}
1002
{
1070
     2
1000
-2000011
1002
}
  0
LINE
  5
DC
330
70
100
AcDbEntity
  8
A-WALL
370
    40
100
AcDbLine
 10
-1177.874999999998
 20
360.7865924046496
 30
0.0
 11
-1177.874999999998
 21
246.7865924046496
 31
0.0
1001
REVIT
1002
{
1070
     1
1000
5133572
1002
}
1002
{
1070
     5
1000
639164
1002
}
1002
{
1070
     2
1000
-2000011
1002
}
  0
LINE
  5
DD
330
70
100
AcDbEntity
  8
A-WALL
370
    40
100
AcDbLine
 10
-1177.874999999998
 20
234.7865924046496
 30
0.0
 11
-1177.874999999998
 21
189.7865924046536
 31
0.0
1001
REVIT
1002
{
1070
     1
1000
5133572
1002
}
1002
{
1070
     5
1000
639164
1002
}
1002
{
1070
     2
1000
-2000011
1002
}
  0
LINE
  5
DF
330
70
100
AcDbEntity
  8
A-WALL
370
    40
100
AcDbLine
 10
-1165.874999999998
 20
201.7865924046537
 30
0.0
 11
-1165.874999999998
 21
385.7865924046495
 31
0.0
1001
REVIT
1002
{
1070
     1
1000
5133572
1002
}
1002
{
1070
     5
1000
639164
1002
}
1002
{
1070
     2
1000
-2000011
1002
}
  0
LINE
  5
E1
330
70
100
AcDbEntity
  8
A-WALL
370
    40
100
AcDbLine
 10
-61.87499999999818
 20
705.7865924046478
 30
0.0
 11
-61.8749999999981
 21
489.7865924046477
 31
0.0
1001
REVIT
1002
{
1070
     1
1000
5133720
1002
}
1002
{
1070
     5
1000
639164
1002
}
1002
{
1070
     2
1000
-2000011
1002
}
  0
LINE
  5
E3
330
70
100
AcDbEntity
  8
A-WALL
370
    40
100
AcDbLine
 10
-49.87499999999812
 20
477.7865924046476
 30
0.0
 11
-49.87499999999812
 21
693.7865924046477
 31
0.0
1001
REVIT
1002
{
1070
     1
1000
5133720
1002
}
1002
{
1070
     5
1000
639164
1002
}
1002
{
1070
     2
1000
-2000011
1002
}
  0
LINE
  5
E4
330
70
100
AcDbEntity
  8
A-WALL
370
    40
100
AcDbLine
 10
-61.87499999999814
 20
489.7865924046477
 30
0.0
 11
-417.8749999999848
 21
489.7865924046489
 31
0.0
1001
REVIT
1002
{
1070
     1
1000
5133803
1002
}
1002
{
1070
     5
1000
639164
1002
}
1002
{
1070
     2
1000
-2000011
1002
}
  0
LINE
  5
E5
330
70
100
AcDbEntity
  8
A-WALL
370
    40
100
AcDbLine
 10
-417.8749999999848
 20
489.7865924046489
 30
0.0
 11
-417.8749999999848
 21
477.7865924046489
 31
0.0
1001
REVIT
1002
{
1070
     1
1000
5133803
1002
}
1002
{
1070
     5
1000
639164
1002
}
1002
{
1070
     2
1000
-2000011
1002
}
  0
LINE
  5
E6
330
70
100
AcDbEntity
  8
A-WALL
370
    40
100
AcDbLine
 10
-417.8749999999848
 20
477.7865924046489
 30
0.0
 11
-49.87499999999812
 21
477.7865924046476
 31
0.0
1001
REVIT
1002
{
1070
     1
1000
5133803
1002
}
1002
{
1070
     5
1000
639164
1002
}
1002
{
1070
     2
1000
-2000011
1002
}
  0
LINE
  5
E7
330
70
100
AcDbEntity
  8
A-WALL
370
    40
100
AcDbLine
 10
-457.8749999999848
 20
489.7865924046491
 30
0.0
 11
-547.8749999999983
 21
489.7865924046493
 31
0.0
1001
REVIT
1002
{
1070
     1
1000
5133803
1002
}
1002
{
1070
     5
1000
639164
1002
}
1002
{
1070
     2
1000
-2000011
1002
}
  0
LINE
  5
E8
330
70
100
AcDbEntity
  8
A-WALL
370
    40
100
AcDbLine
 10
-559.8749999999983
 20
492.2865924046641
 30
0.0
 11
-559.8749999999983
 21
483.7865924046494
 31
0.0
1001
REVIT
1002
{
1070
     1
1000
5133803
1002
}
1002
{
1070
     5
1000
639164
1002
}
1002
{
1070
     2
1000
-2000011
1002
}
  0
LINE
  5
E9
330
70
100
AcDbEntity
  8
A-WALL
370
    40
100
AcDbLine
 10
-606.8749999999982
 20
477.7865924046495
 30
0.0
 11
-481.8749999999996
 21
477.7865924046492
 31
0.0
1001
REVIT
1002
{
1070
     1
1000
5133803
1002
}
1002
{
1070
     5
1000
639164
1002
}
1002
{
1070
     2
1000
-2000011
1002
}
  0
LINE
  5
EA
330
70
100
AcDbEntity
  8
A-WALL
370
    40
100
AcDbLine
 10
-469.8749999999997
 20
477.7865924046491
 30
0.0
 11
-457.8749999999848
 21
477.7865924046491
 31
0.0
1001
REVIT
1002
{
1070
     1
1000
5133803
1002
}
1002
{
1070
     5
1000
639164
1002
}
1002
{
1070
     2
1000
-2000011
1002
}
  0
LINE
  5
EB
330
70
100
AcDbEntity
  8
A-WALL
370
    40
100
AcDbLine
 10
-457.8749999999848
 20
477.7865924046491
 30
0.0
 11
-457.8749999999848
 21
489.7865924046491
 31
0.0
1001
REVIT
1002
{
1070
     1
1000
5133803
1002
}
1002
{
1070
     5
1000
639164
1002
}
1002
{
1070
     2
1000
-2000011
1002
}
  0
LINE
  5
EC
330
70
100
AcDbEntity
  8
A-WALL
370
    40
100
AcDbLine
 10
-547.8749999999983
 20
489.7865924046493
 30
0.0
 11
-547.8749999999983
 21
492.2865924046641
 31
0.0
1001
REVIT
1002
{
1070
     1
1000
5133880
1002
}
1002
{
1070
     5
1000
639164
1002
}
1002
{
1070
     2
1000
-2000011
1002
}
  0
LINE
  5
ED
330
70
100
AcDbEntity
  8
A-WALL
370
    40
100
AcDbLine
 10
-547.8749999999983
 20
492.2865924046641
 30
0.0
 11
-559.8749999999983
 21
492.2865924046641
 31
0.0
1001
REVIT
1002
{
1070
     1
1000
5133880
1002
}
1002
{
1070
     5
1000
639164
1002
}
1002
{
1070
     2
1000
-2000011
1002
}
  0
LINE
  5
EF
330
70
100
AcDbEntity
  8
A-WALL
370
    40
100
AcDbLine
 10
-547.8749999999982
 20
532.286592404664
 30
0.0
 11
-547.8749999999981
 21
693.7865924046477
 31
0.0
1001
REVIT
1002
{
1070
     1
1000
5133880
1002
}
1002
{
1070
     5
1000
639164
1002
}
1002
{
1070
     2
1000
-2000011
1002
}
  0
LINE
  5
F0
330
70
100
AcDbEntity
  8
A-WALL
370
    40
100
AcDbLine
 10
-559.874999999998
 20
693.7865924046477
 30
0.0
 11
-559.8749999999982
 21
564.7865924046482
 31
0.0
1001
REVIT
1002
{
1070
     1
1000
5133880
1002
}
1002
{
1070
     5
1000
639164
1002
}
1002
{
1070
     2
1000
-2000011
1002
}
  0
LINE
  5
F1
330
70
100
AcDbEntity
  8
A-WALL
370
    40
100
AcDbLine
 10
-559.8749999999982
 20
558.7865924046481
 30
0.0
 11
-559.8749999999982
 21
540.7865924046481
 31
0.0
1001
REVIT
1002
{
1070
     1
1000
5133880
1002
}
1002
{
1070
     5
1000
639164
1002
}
1002
{
1070
     2
1000
-2000011
1002
}
  0
LINE
  5
F2
330
70
100
AcDbEntity
  8
A-WALL
370
    40
100
AcDbLine
 10
-559.8749999999983
 20
534.786592404648
 30
0.0
 11
-559.8749999999983
 21
532.2865924046641
 31
0.0
1001
REVIT
1002
{
1070
     1
1000
5133880
1002
}
1002
{
1070
     5
1000
639164
1002
}
1002
{
1070
     2
1000
-2000011
1002
}
  0
LINE
  5
F3
330
70
100
AcDbEntity
  8
A-WALL
370
    40
100
AcDbLine
 10
-559.8749999999983
 20
532.2865924046641
 30
0.0
 11
-547.8749999999982
 21
532.286592404664
 31
0.0
1001
REVIT
1002
{
1070
     1
1000
5133880
1002
}
1002
{
1070
     5
1000
639164
1002
}
1002
{
1070
     2
1000
-2000011
1002
}
  0
LINE
  5
F5
330
70
100
AcDbEntity
  8
A-WALL
370
    40
100
AcDbLine
 10
-469.8749999999999
 20
249.7865924046514
 30
0.0
 11
-469.8749999999996
 21
477.7865924046491
 31
0.0
1001
REVIT
1002
{
1070
     1
1000
5134000
1002
}
1002
{
1070
     5
1000
639164
1002
}
1002
{
1070
     2
1000
-2000011
1002
}
  0
LINE
  5
F6
330
70
100
AcDbEntity
  8
A-WALL
370
    40
100
AcDbLine
 10
-481.8749999999996
 20
477.7865924046492
 30
0.0
 11
-481.8749999999998
 21
343.7865924046491
 31
0.0
1001
REVIT
1002
{
1070
     1
1000
5134000
1002
}
1002
{
1070
     5
1000
639164
1002
}
1002
{
1070
     2
1000
-2000011
1002
}
  0
LINE
  5
F7
330
70
100
AcDbEntity
  8
A-WALL
370
    40
100
AcDbLine
 10
-481.8749999999998
 20
337.7865924046491
 30
0.0
 11
-481.8750000000001
 21
201.7865924046513
 31
0.0
1001
REVIT
1002
{
1070
     1
1000
5134000
1002
}
1002
{
1070
     5
1000
639164
1002
}
1002
{
1070
     2
1000
-2000011
1002
}
  0
LINE
  5
F8
330
70
100
AcDbEntity
  8
A-WALL
370
    40
100
AcDbLine
 10
-469.875
 20
237.7865924046514
 30
0.0
 11
-205.8749999999998
 21
237.7865924046506
 31
0.0
1001
REVIT
1002
{
1070
     1
1000
5134076
1002
}
1002
{
1070
     5
1000
639164
1002
}
1002
{
1070
     2
1000
-2000011
1002
}
  0
LINE
  5
F9
330
70
100
AcDbEntity
  8
A-WALL
370
    40
100
AcDbLine
 10
-205.8749999999998
 20
249.7865924046506
 30
0.0
 11
-469.875
 21
249.7865924046514
 31
0.0
1001
REVIT
1002
{
1070
     1
1000
5134076
1002
}
1002
{
1070
     5
1000
639164
1002
}
1002
{
1070
     2
1000
-2000011
1002
}
  0
LINE
  5
FA
330
70
100
AcDbEntity
  8
A-WALL
370
    40
100
AcDbLine
 10
-1381.874999999998
 20
360.7865924046502
 30
0.0
 11
-1229.874999999983
 21
360.7865924046497
 31
0.0
1001
REVIT
1002
{
1070
     1
1000
5134284
1002
}
1002
{
1070
     5
1000
639164
1002
}
1002
{
1070
     2
1000
-2000011
1002
}
  0
LINE
  5
FB
330
70
100
AcDbEntity
  8
A-WALL
370
    40
100
AcDbLine
 10
-1229.874999999983
 20
360.7865924046497
 30
0.0
 11
-1229.874999999983
 21
372.7865924046497
 31
0.0
1001
REVIT
1002
{
1070
     1
1000
5134284
1002
}
1002
{
1070
     5
1000
639164
1002
}
1002
{
1070
     2
1000
-2000011
1002
}
  0
LINE
  5
FC
330
70
100
AcDbEntity
  8
A-WALL
370
    40
100
AcDbLine
 10
-1229.874999999983
 20
372.7865924046497
 30
0.0
 11
-1303.874999999998
 21
372.78659240465
 31
0.0
1001
REVIT
1002
{
1070
     1
1000
5134284
1002
}
1002
{
1070
     5
1000
639164
1002
}
1002
{
1070
     2
1000
-2000011
1002
}
  0
LINE
  5
FD
330
70
100
AcDbEntity
  8
A-WALL
370
    40
100
AcDbLine
 10
-1315.874999999998
 20
372.7865924046501
 30
0.0
 11
-1381.874999999998
 21
372.7865924046502
 31
0.0
1001
REVIT
1002
{
1070
     1
1000
5134284
1002
}
1002
{
1070
     5
1000
639164
1002
}
1002
{
1070
     2
1000
-2000011
1002
}
  0
LINE
  5
FE
330
70
100
AcDbEntity
  8
A-WALL
370
    40
100
AcDbLine
 10
-1189.874999999982
 20
360.7865924046496
 30
0.0
 11
-1177.874999999998
 21
360.7865924046496
 31
0.0
1001
REVIT
1002
{
1070
     1
1000
5134284
1002
}
1002
{
1070
     5
1000
639164
1002
}
1002
{
1070
     2
1000
-2000011
1002
}
  0
LINE
  5
FF
330
70
100
AcDbEntity
  8
A-WALL
370
    40
100
AcDbLine
 10
-1177.874999999998
 20
372.7865924046496
 30
0.0
 11
-1189.874999999982
 21
372.7865924046497
 31
0.0
1001
REVIT
1002
{
1070
     1
1000
5134284
1002
}
1002
{
1070
     5
1000
639164
1002
}
1002
{
1070
     2
1000
-2000011
1002
}
  0
LINE
  5
100
330
70
100
AcDbEntity
  8
A-WALL
370
    40
100
AcDbLine
 10
-1189.874999999982
 20
372.7865924046497
 30
0.0
 11
-1189.874999999982
 21
360.7865924046496
 31
0.0
1001
REVIT
1002
{
1070
     1
1000
5134284
1002
}
1002
{
1070
     5
1000
639164
1002
}
1002
{
1070
     2
1000
-2000011
1002
}
  0
LINE
  5
101
330
70
100
AcDbEntity
  8
A-WALL
370
    40
100
AcDbLine
 10
-1165.874999999998
 20
385.7865924046495
 30
0.0
 11
-1017.875
 21
385.7865924046495
 31
0.0
1001
REVIT
1002
{
1070
     1
1000
5134425
1002
}
1002
{
1070
     5
1000
639164
1002
}
1002
{
1070
     2
1000
-2000011
1002
}
  0
LINE
  5
102
330
70
100
AcDbEntity
  8
A-WALL
370
    40
100
AcDbLine
 10
-1017.875
 20
385.7865924046495
 30
0.0
 11
-1017.875
 21
397.7865924046495
 31
0.0
1001
REVIT
1002
{
1070
     1
1000
5134425
1002
}
1002
{
1070
     5
1000
639164
1002
}
1002
{
1070
     2
1000
-2000011
1002
}
  0
LINE
  5
103
330
70
100
AcDbEntity
  8
A-WALL
370
    40
100
AcDbLine
 10
-1017.875
 20
397.7865924046495
 30
0.0
 11
-1177.874999999998
 21
397.7865924046495
 31
0.0
1001
REVIT
1002
{
1070
     1
1000
5134425
1002
}
1002
{
1070
     5
1000
639164
1002
}
1002
{
1070
     2
1000
-2000011
1002
}
  0
LINE
  5
104
330
70
100
AcDbEntity
  8
A-WALL
370
    40
100
AcDbLine
 10
-981.8750000000001
 20
693.7865924046491
 30
0.0
 11
-981.8750000000003
 21
540.7865924046491
 31
0.0
1001
REVIT
1002
{
1070
     1
1000
5134531
1002
}
1002
{
1070
     5
1000
639162
1002
}
1002
{
1070
     2
1000
-2000011
1002
}
  0
LINE
  5
105
330
70
100
AcDbEntity
  8
A-WALL
370
    40
100
AcDbLine
 10
-975.8750000000002
 20
540.7865924046491
 30
0.0
 11
-975.875
 21
693.7865924046491
 31
0.0
1001
REVIT
1002
{
1070
     1
1000
5134531
1002
}
1002
{
1070
     5
1000
639162
1002
}
1002
{
1070
     2
1000
-2000011
1002
}
  0
LINE
  5
106
330
70
100
AcDbEntity
  8
A-WALL
370
    40
100
AcDbLine
 10
-890.8750000000001
 20
693.7865924046487
 30
0.0
 11
-890.8750000000004
 21
540.7865924046488
 31
0.0
1001
REVIT
1002
{
1070
     1
1000
5134739
1002
}
1002
{
1070
     5
1000
639162
1002
}
1002
{
1070
     2
1000
-2000011
1002
}
  0
LINE
  5
108
330
70
100
AcDbEntity
  8
A-WALL
370
    40
100
AcDbLine
 10
-884.8750000000004
 20
534.7865924046487
 30
0.0
 11
-884.8750000000004
 21
582.7865924046486
 31
0.0
1001
REVIT
1002
{
1070
     1
1000
5134739
1002
}
1002
{
1070
     5
1000
639162
1002
}
1002
{
1070
     2
1000
-2000011
1002
}
  0
LINE
  5
109
330
70
100
AcDbEntity
  8
A-WALL
370
    40
100
AcDbLine
 10
-884.8750000000004
 20
588.7865924046487
 30
0.0
 11
-884.875
 21
693.7865924046487
 31
0.0
1001
REVIT
1002
{
1070
     1
1000
5134739
1002
}
1002
{
1070
     5
1000
639162
1002
}
1002
{
1070
     2
1000
-2000011
1002
}
  0
LINE
  5
10A
330
70
100
AcDbEntity
  8
A-WALL
370
    40
100
AcDbLine
 10
-826.8750000000002
 20
693.7865924046486
 30
0.0
 11
-826.8750000000002
 21
588.7865924046487
 31
0.0
1001
REVIT
1002
{
1070
     1
1000
5134836
1002
}
1002
{
1070
     5
1000
639162
1002
}
1002
{
1070
     2
1000
-2000011
1002
}
  0
LINE
  5
10C
330
70
100
AcDbEntity
  8
A-WALL
370
    40
100
AcDbLine
 10
-820.8750000000003
 20
582.7865924046485
 30
0.0
 11
-820.8750000000001
 21
693.7865924046486
 31
0.0
1001
REVIT
1002
{
1070
     1
1000
5134836
1002
}
1002
{
1070
     5
1000
639162
1002
}
1002
{
1070
     2
1000
-2000011
1002
}
  0
LINE
  5
10D
330
70
100
AcDbEntity
  8
A-WALL
370
    40
100
AcDbLine
 10
-765.8750000000003
 20
693.7865924046484
 30
0.0
 11
-765.8750000000005
 21
580.7865924046636
 31
0.0
1001
REVIT
1002
{
1070
     1
1000
5134959
1002
}
1002
{
1070
     5
1000
639162
1002
}
1002
{
1070
     2
1000
-2000011
1002
}
  0
LINE
  5
10E
330
70
100
AcDbEntity
  8
A-WALL
370
    40
100
AcDbLine
 10
-765.8750000000005
 20
580.7865924046636
 30
0.0
 11
-759.8750000000006
 21
580.7865924046634
 31
0.0
1001
REVIT
1002
{
1070
     1
1000
5134959
1002
}
1002
{
1070
     5
1000
639162
1002
}
1002
{
1070
     2
1000
-2000011
1002
}
  0
LINE
  5
10F
330
70
100
AcDbEntity
  8
A-WALL
370
    40
100
AcDbLine
 10
-759.8750000000006
 20
580.7865924046634
 30
0.0
 11
-759.8750000000003
 21
693.7865924046483
 31
0.0
1001
REVIT
1002
{
1070
     1
1000
5134959
1002
}
1002
{
1070
     5
1000
639162
1002
}
1002
{
1070
     2
1000
-2000011
1002
}
  0
LINE
  5
110
330
70
100
AcDbEntity
  8
A-WALL
370
    40
100
AcDbLine
 10
-765.8750000000006
 20
540.7865924046636
 30
0.0
 11
-765.8750000000006
 21
534.7865924046487
 31
0.0
1001
REVIT
1002
{
1070
     1
1000
5134959
1002
}
1002
{
1070
     5
1000
639162
1002
}
1002
{
1070
     2
1000
-2000011
1002
}
  0
LINE
  5
113
330
70
100
AcDbEntity
  8
A-WALL
370
    40
100
AcDbLine
 10
-765.8750000000006
 20
534.7865924046487
 30
0.0
 11
-559.8749999999983
 21
534.786592404648
 31
0.0
1001
REVIT
1002
{
1070
     1
1000
5135053
1002
}
1002
{
1070
     5
1000
639162
1002
}
1002
{
1070
     2
1000
-2000011
1002
}
  0
LINE
  5
114
330
70
100
AcDbEntity
  8
A-WALL
370
    40
100
AcDbLine
 10
-559.8749999999982
 20
540.7865924046481
 30
0.0
 11
-581.8749999999981
 21
540.7865924046482
 31
0.0
1001
REVIT
1002
{
1070
     1
1000
5135053
1002
}
1002
{
1070
     5
1000
639162
1002
}
1002
{
1070
     2
1000
-2000011
1002
}
  0
LINE
  5
115
330
70
100
AcDbEntity
  8
A-WALL
370
    40
100
AcDbLine
 10
-587.8749999999981
 20
540.7865924046482
 30
0.0
 11
-765.8750000000006
 21
540.7865924046636
 31
0.0
1001
REVIT
1002
{
1070
     1
1000
5135053
1002
}
1002
{
1070
     5
1000
639162
1002
}
1002
{
1070
     2
1000
-2000011
1002
}
  0
LINE
  5
116
330
70
100
AcDbEntity
  8
A-WALL
370
    40
100
AcDbLine
 10
-581.8749999999981
 20
540.7865924046482
 30
0.0
 11
-581.8749999999981
 21
558.7865924046483
 31
0.0
1001
REVIT
1002
{
1070
     1
1000
5135137
1002
}
1002
{
1070
     5
1000
639162
1002
}
1002
{
1070
     2
1000
-2000011
1002
}
  0
LINE
  5
118
330
70
100
AcDbEntity
  8
A-WALL
370
    40
100
AcDbLine
 10
-587.8749999999981
 20
564.7865924046483
 30
0.0
 11
-587.8749999999981
 21
540.7865924046482
 31
0.0
1001
REVIT
1002
{
1070
     1
1000
5135137
1002
}
1002
{
1070
     5
1000
639162
1002
}
1002
{
1070
     2
1000
-2000011
1002
}
  0
LINE
  5
119
330
70
100
AcDbEntity
  8
A-WALL
370
    40
100
AcDbLine
 10
-581.8749999999981
 20
558.7865924046483
 30
0.0
 11
-559.8749999999982
 21
558.7865924046481
 31
0.0
1001
REVIT
1002
{
1070
     1
1000
5135181
1002
}
1002
{
1070
     5
1000
639162
1002
}
1002
{
1070
     2
1000
-2000011
1002
}
  0
LINE
  5
11A
330
70
100
AcDbEntity
  8
A-WALL
370
    40
100
AcDbLine
 10
-559.8749999999982
 20
564.7865924046482
 30
0.0
 11
-587.8749999999981
 21
564.7865924046483
 31
0.0
1001
REVIT
1002
{
1070
     1
1000
5135181
1002
}
1002
{
1070
     5
1000
639162
1002
}
1002
{
1070
     2
1000
-2000011
1002
}
  0
LINE
  5
11B
330
70
100
AcDbEntity
  8
A-WALL
370
    40
100
AcDbLine
 10
-826.8750000000004
 20
588.7865924046487
 30
0.0
 11
-835.8750000000153
 21
588.7865924046487
 31
0.0
1001
REVIT
1002
{
1070
     1
1000
5135281
1002
}
1002
{
1070
     5
1000
639162
1002
}
1002
{
1070
     2
1000
-2000011
1002
}
  0
LINE
  5
11C
330
70
100
AcDbEntity
  8
A-WALL
370
    40
100
AcDbLine
 10
-835.8750000000153
 20
588.7865924046487
 30
0.0
 11
-835.8750000000153
 21
582.7865924046486
 31
0.0
1001
REVIT
1002
{
1070
     1
1000
5135281
1002
}
1002
{
1070
     5
1000
639162
1002
}
1002
{
1070
     2
1000
-2000011
1002
}
  0
LINE
  5
11D
330
70
100
AcDbEntity
  8
A-WALL
370
    40
100
AcDbLine
 10
-835.8750000000153
 20
582.7865924046486
 30
0.0
 11
-820.8750000000003
 21
582.7865924046485
 31
0.0
1001
REVIT
1002
{
1070
     1
1000
5135281
1002
}
1002
{
1070
     5
1000
639162
1002
}
1002
{
1070
     2
1000
-2000011
1002
}
  0
LINE
  5
11E
330
70
100
AcDbEntity
  8
A-WALL
370
    40
100
AcDbLine
 10
-875.8750000000153
 20
588.7865924046487
 30
0.0
 11
-884.8750000000004
 21
588.7865924046487
 31
0.0
1001
REVIT
1002
{
1070
     1
1000
5135281
1002
}
1002
{
1070
     5
1000
639162
1002
}
1002
{
1070
     2
1000
-2000011
1002
}
  0
LINE
  5
11F
330
70
100
AcDbEntity
  8
A-WALL
370
    40
100
AcDbLine
 10
-884.8750000000004
 20
582.7865924046486
 30
0.0
 11
-875.8750000000153
 21
582.7865924046488
 31
0.0
1001
REVIT
1002
{
1070
     1
1000
5135281
1002
}
1002
{
1070
     5
1000
639162
1002
}
1002
{
1070
     2
1000
-2000011
1002
}
  0
LINE
  5
120
330
70
100
AcDbEntity
  8
A-WALL
370
    40
100
AcDbLine
 10
-875.8750000000153
 20
582.7865924046488
 30
0.0
 11
-875.8750000000153
 21
588.7865924046487
 31
0.0
1001
REVIT
1002
{
1070
     1
1000
5135281
1002
}
1002
{
1070
     5
1000
639162
1002
}
1002
{
1070
     2
1000
-2000011
1002
}
  0
LINE
  5
121
330
70
100
AcDbEntity
  8
A-WALL
370
    40
100
AcDbLine
 10
-481.8749999999998
 20
343.7865924046491
 30
0.0
 11
-606.8749999999986
 21
343.7865924046495
 31
0.0
1001
REVIT
1002
{
1070
     1
1000
5135428
1002
}
1002
{
1070
     5
1000
639162
1002
}
1002
{
1070
     2
1000
-2000011
1002
}
  0
LINE
  5
122
330
70
100
AcDbEntity
  8
A-WALL
370
    40
100
AcDbLine
 10
-606.8749999999986
 20
337.7865924046495
 30
0.0
 11
-481.8749999999998
 21
337.7865924046491
 31
0.0
1001
REVIT
1002
{
1070
     1
1000
5135428
1002
}
1002
{
1070
     5
1000
639162
1002
}
1002
{
1070
     2
1000
-2000011
1002
}
  0
LINE
  5
123
330
70
100
AcDbEntity
  8
A-WALL
370
    40
100
AcDbLine
 10
-559.8749999999983
 20
483.7865924046494
 30
0.0
 11
-612.8749999999983
 21
483.7865924046496
 31
0.0
1001
REVIT
1002
{
1070
     1
1000
5135512
1002
}
1002
{
1070
     5
1000
639162
1002
}
1002
{
1070
     2
1000
-2000011
1002
}
  0
LINE
  5
126
330
70
100
AcDbEntity
  8
A-WALL
370
    40
100
AcDbLine
 10
-612.8749999999983
 20
483.7865924046496
 30
0.0
 11
-612.8749999999985
 21
386.7865924046641
 31
0.0
1001
REVIT
1002
{
1070
     1
1000
5135667
1002
}
1002
{
1070
     5
1000
639162
1002
}
1002
{
1070
     2
1000
-2000011
1002
}
  0
LINE
  5
127
330
70
100
AcDbEntity
  8
A-WALL
370
    40
100
AcDbLine
 10
-612.8749999999985
 20
386.7865924046641
 30
0.0
 11
-606.8749999999985
 21
386.7865924046641
 31
0.0
1001
REVIT
1002
{
1070
     1
1000
5135667
1002
}
1002
{
1070
     5
1000
639162
1002
}
1002
{
1070
     2
1000
-2000011
1002
}
  0
LINE
  5
128
330
70
100
AcDbEntity
  8
A-WALL
370
    40
100
AcDbLine
 10
-606.8749999999985
 20
386.7865924046641
 30
0.0
 11
-606.8749999999982
 21
477.7865924046495
 31
0.0
1001
REVIT
1002
{
1070
     1
1000
5135667
1002
}
1002
{
1070
     5
1000
639162
1002
}
1002
{
1070
     2
1000
-2000011
1002
}
  0
LINE
  5
129
330
70
100
AcDbEntity
  8
A-WALL
370
    40
100
AcDbLine
 10
-612.8749999999986
 20
346.7865924046642
 30
0.0
 11
-612.8749999999986
 21
335.7865924046652
 31
0.0
1001
REVIT
1002
{
1070
     1
1000
5135667
1002
}
1002
{
1070
     5
1000
639162
1002
}
1002
{
1070
     2
1000
-2000011
1002
}
  0
LINE
  5
12A
330
70
100
AcDbEntity
  8
A-WALL
370
    40
100
AcDbLine
 10
-612.8749999999986
 20
335.7865924046652
 30
0.0
 11
-606.8749999999986
 21
335.7865924046651
 31
0.0
1001
REVIT
1002
{
1070
     1
1000
5135667
1002
}
1002
{
1070
     5
1000
639162
1002
}
1002
{
1070
     2
1000
-2000011
1002
}
  0
LINE
  5
12B
330
70
100
AcDbEntity
  8
A-WALL
370
    40
100
AcDbLine
 10
-606.8749999999986
 20
335.7865924046651
 30
0.0
 11
-606.8749999999986
 21
337.7865924046495
 31
0.0
1001
REVIT
1002
{
1070
     1
1000
5135667
1002
}
1002
{
1070
     5
1000
639162
1002
}
1002
{
1070
     2
1000
-2000011
1002
}
  0
LINE
  5
12C
330
70
100
AcDbEntity
  8
A-WALL
370
    40
100
AcDbLine
 10
-606.8749999999985
 20
343.7865924046495
 30
0.0
 11
-606.8749999999986
 21
346.7865924046641
 31
0.0
1001
REVIT
1002
{
1070
     1
1000
5135667
1002
}
1002
{
1070
     5
1000
639162
1002
}
1002
{
1070
     2
1000
-2000011
1002
}
  0
LINE
  5
12D
330
70
100
AcDbEntity
  8
A-WALL
370
    40
100
AcDbLine
 10
-606.8749999999986
 20
346.7865924046641
 30
0.0
 11
-612.8749999999986
 21
346.7865924046642
 31
0.0
1001
REVIT
1002
{
1070
     1
1000
5135667
1002
}
1002
{
1070
     5
1000
639162
1002
}
1002
{
1070
     2
1000
-2000011
1002
}
  0
LINE
  5
12E
330
70
100
AcDbEntity
  8
A-WALL
370
    40
100
AcDbLine
 10
-612.8749999999986
 20
295.7865924046652
 30
0.0
 11
-612.8749999999988
 21
201.7865924046518
 31
0.0
1001
REVIT
1002
{
1070
     1
1000
5135667
1002
}
1002
{
1070
     5
1000
639162
1002
}
1002
{
1070
     2
1000
-2000011
1002
}
  0
LINE
  5
12F
330
70
100
AcDbEntity
  8
A-WALL
370
    40
100
AcDbLine
 10
-606.8749999999988
 20
201.7865924046518
 30
0.0
 11
-606.8749999999986
 21
295.7865924046652
 31
0.0
1001
REVIT
1002
{
1070
     1
1000
5135667
1002
}
1002
{
1070
     5
1000
639162
1002
}
1002
{
1070
     2
1000
-2000011
1002
}
  0
LINE
  5
130
330
70
100
AcDbEntity
  8
A-WALL
370
    40
100
AcDbLine
 10
-606.8749999999986
 20
295.7865924046652
 30
0.0
 11
-612.8749999999986
 21
295.7865924046652
 31
0.0
1001
REVIT
1002
{
1070
     1
1000
5135667
1002
}
1002
{
1070
     5
1000
639162
1002
}
1002
{
1070
     2
1000
-2000011
1002
}
  0
LINE
  5
131
330
70
100
AcDbEntity
  8
A-WALL
370
    40
100
AcDbLine
 10
-1029.566478537933
 20
477.7865924046508
 30
0.0
 11
-703.5664785379333
 21
477.7865924046499
 31
0.0
1001
REVIT
1002
{
1070
     1
1000
5135806
1002
}
1002
{
1070
     5
1000
639162
1002
}
1002
{
1070
     2
1000
-2000011
1002
}
  0
LINE
  5
132
330
70
100
AcDbEntity
  8
A-WALL
370
    40
100
AcDbLine
 10
-703.5664785379333
 20
477.7865924046499
 30
0.0
 11
-703.5664785379333
 21
483.7865924046498
 31
0.0
1001
REVIT
1002
{
1070
     1
1000
5135806
1002
}
1002
{
1070
     5
1000
639162
1002
}
1002
{
1070
     2
1000
-2000011
1002
}
  0
LINE
  5
133
330
70
100
AcDbEntity
  8
A-WALL
370
    40
100
AcDbLine
 10
-703.5664785379333
 20
483.7865924046498
 30
0.0
 11
-1029.566478537933
 21
483.7865924046509
 31
0.0
1001
REVIT
1002
{
1070
     1
1000
5135806
1002
}
1002
{
1070
     5
1000
639162
1002
}
1002
{
1070
     2
1000
-2000011
1002
}
  0
LINE
  5
134
330
70
100
AcDbEntity
  8
A-WALL
370
    40
100
AcDbLine
 10
-1029.566478537933
 20
483.7865924046509
 30
0.0
 11
-1029.566478537933
 21
477.7865924046508
 31
0.0
1001
REVIT
1002
{
1070
     1
1000
5135806
1002
}
1002
{
1070
     5
1000
639162
1002
}
1002
{
1070
     2
1000
-2000011
1002
}
  0
LINE
  5
135
330
70
100
AcDbEntity
  8
A-WALL
370
    40
100
AcDbLine
 10
-1017.574174389192
 20
534.7865924046491
 30
0.0
 11
-957.8750000000161
 21
534.786592404649
 31
0.0
1001
REVIT
1002
{
1070
     1
1000
5135965
1002
}
1002
{
1070
     5
1000
639162
1002
}
1002
{
1070
     2
1000
-2000011
1002
}
  0
LINE
  5
136
330
70
100
AcDbEntity
  8
A-WALL
370
    40
100
AcDbLine
 10
-957.8750000000161
 20
534.786592404649
 30
0.0
 11
-957.8750000000159
 21
540.786592404649
 31
0.0
1001
REVIT
1002
{
1070
     1
1000
5135965
1002
}
1002
{
1070
     5
1000
639162
1002
}
1002
{
1070
     2
1000
-2000011
1002
}
  0
LINE
  5
137
330
70
100
AcDbEntity
  8
A-WALL
370
    40
100
AcDbLine
 10
-957.8750000000159
 20
540.786592404649
 30
0.0
 11
-975.8750000000002
 21
540.7865924046491
 31
0.0
1001
REVIT
1002
{
1070
     1
1000
5135965
1002
}
1002
{
1070
     5
1000
639162
1002
}
1002
{
1070
     2
1000
-2000011
1002
}
  0
LINE
  5
138
330
70
100
AcDbEntity
  8
A-WALL
370
    40
100
AcDbLine
 10
-981.8750000000003
 20
540.7865924046491
 30
0.0
 11
-1017.574174389192
 21
540.7865924046491
 31
0.0
1001
REVIT
1002
{
1070
     1
1000
5135965
1002
}
1002
{
1070
     5
1000
639162
1002
}
1002
{
1070
     2
1000
-2000011
1002
}
  0
LINE
  5
139
330
70
100
AcDbEntity
  8
A-WALL
370
    40
100
AcDbLine
 10
-1017.574174389192
 20
540.7865924046491
 30
0.0
 11
-1017.574174389192
 21
534.7865924046491
 31
0.0
1001
REVIT
1002
{
1070
     1
1000
5135965
1002
}
1002
{
1070
     5
1000
639162
1002
}
1002
{
1070
     2
1000
-2000011
1002
}
  0
LINE
  5
13A
330
70
100
AcDbEntity
  8
A-WALL
370
    40
100
AcDbLine
 10
-917.875000000016
 20
534.7865924046487
 30
0.0
 11
-884.8750000000004
 21
534.7865924046487
 31
0.0
1001
REVIT
1002
{
1070
     1
1000
5135965
1002
}
1002
{
1070
     5
1000
639162
1002
}
1002
{
1070
     2
1000
-2000011
1002
}
  0
LINE
  5
13B
330
70
100
AcDbEntity
  8
A-WALL
370
    40
100
AcDbLine
 10
-890.8750000000004
 20
540.7865924046488
 30
0.0
 11
-917.8750000000158
 21
540.7865924046488
 31
0.0
1001
REVIT
1002
{
1070
     1
1000
5135965
1002
}
1002
{
1070
     5
1000
639162
1002
}
1002
{
1070
     2
1000
-2000011
1002
}
  0
LINE
  5
13C
330
70
100
AcDbEntity
  8
A-WALL
370
    40
100
AcDbLine
 10
-917.8750000000158
 20
540.7865924046488
 30
0.0
 11
-917.875000000016
 21
534.7865924046487
 31
0.0
1001
REVIT
1002
{
1070
     1
1000
5135965
1002
}
1002
{
1070
     5
1000
639162
1002
}
1002
{
1070
     2
1000
-2000011
1002
}
  0
LINE
  5
13D
330
70
100
AcDbEntity
  8
A-WALL
370
    40
100
AcDbLine
 10
-547.8749999999979
 20
765.7865924046476
 30
0.0
 11
-478.8749999999978
 21
765.7865924046474
 31
0.0
1001
REVIT
1002
{
1070
     1
1000
5136104
1002
}
1002
{
1070
     5
1000
639164
1002
}
1002
{
1070
     2
1000
-2000011
1002
}
  0
LINE
  5
13E
330
70
100
AcDbEntity
  8
A-WALL
370
    40
100
AcDbLine
 10
-466.8749999999978
 20
765.7865924046473
 30
0.0
 11
-199.8749999999979
 21
765.7865924046465
 31
0.0
1001
REVIT
1002
{
1070
     1
1000
5136104
1002
}
1002
{
1070
     5
1000
639164
1002
}
1002
{
1070
     2
1000
-2000011
1002
}
  0
LINE
  5
13F
330
70
100
AcDbEntity
  8
A-WALL
370
    40
100
AcDbLine
 10
-199.8749999999979
 20
765.7865924046465
 30
0.0
 11
-199.8749999999978
 21
784.7865924046318
 31
0.0
1001
REVIT
1002
{
1070
     1
1000
5136104
1002
}
1002
{
1070
     5
1000
639164
1002
}
1002
{
1070
     2
1000
-2000011
1002
}
  0
LINE
  5
140
330
70
100
AcDbEntity
  8
A-WALL
370
    40
100
AcDbLine
 10
-211.8749999999979
 20
777.7865924046465
 30
0.0
 11
-547.8749999999978
 21
777.7865924046477
 31
0.0
1001
REVIT
1002
{
1070
     1
1000
5136104
1002
}
1002
{
1070
     5
1000
639164
1002
}
1002
{
1070
     2
1000
-2000011
1002
}
  0
LINE
  5
142
330
70
100
AcDbEntity
  8
A-WALL
370
    40
100
AcDbLine
 10
-199.8749999999978
 20
784.7865924046318
 30
0.0
 11
-211.8749999999979
 21
784.7865924046319
 31
0.0
1001
REVIT
1002
{
1070
     1
1000
5136178
1002
}
1002
{
1070
     5
1000
639164
1002
}
1002
{
1070
     2
1000
-2000011
1002
}
  0
LINE
  5
143
330
70
100
AcDbEntity
  8
A-WALL
370
    40
100
AcDbLine
 10
-211.8749999999979
 20
784.7865924046319
 30
0.0
 11
-211.8749999999979
 21
777.7865924046465
 31
0.0
1001
REVIT
1002
{
1070
     1
1000
5136178
1002
}
1002
{
1070
     5
1000
639164
1002
}
1002
{
1070
     2
1000
-2000011
1002
}
  0
LINE
  5
144
330
70
100
AcDbEntity
  8
A-WALL
370
    40
100
AcDbLine
 10
-199.8749999999978
 20
824.7865924046319
 30
0.0
 11
-199.8749999999978
 21
831.7865924046477
 31
0.0
1001
REVIT
1002
{
1070
     1
1000
5136178
1002
}
1002
{
1070
     5
1000
639164
1002
}
1002
{
1070
     2
1000
-2000011
1002
}
  0
LINE
  5
145
330
70
100
AcDbEntity
  8
A-WALL
370
    40
100
AcDbLine
 10
-211.8749999999979
 20
831.7865924046477
 30
0.0
 11
-211.8749999999979
 21
824.7865924046321
 31
0.0
1001
REVIT
1002
{
1070
     1
1000
5136178
1002
}
1002
{
1070
     5
1000
639164
1002
}
1002
{
1070
     2
1000
-2000011
1002
}
  0
LINE
  5
146
330
70
100
AcDbEntity
  8
A-WALL
370
    40
100
AcDbLine
 10
-211.8749999999979
 20
824.7865924046321
 30
0.0
 11
-199.8749999999978
 21
824.7865924046319
 31
0.0
1001
REVIT
1002
{
1070
     1
1000
5136178
1002
}
1002
{
1070
     5
1000
639164
1002
}
1002
{
1070
     2
1000
-2000011
1002
}
  0
LINE
  5
147
330
70
100
AcDbEntity
  8
A-WALL
370
    40
100
AcDbLine
 10
-271.8749999999979
 20
831.7865924046479
 30
0.0
 11
-211.8749999999978
 21
831.7865924046477
 31
0.0
1001
REVIT
1002
{
1070
     1
1000
5136245
1002
}
1002
{
1070
     5
1000
639164
1002
}
1002
{
1070
     2
1000
-2000011
1002
}
  0
LINE
  5
149
330
70
100
AcDbEntity
  8
A-WALL
370
    40
100
AcDbLine
 10
-127.8749999999978
 20
843.7865924046477
 30
0.0
 11
-271.8749999999978
 21
843.7865924046478
 31
0.0
1001
REVIT
1002
{
1070
     1
1000
5136245
1002
}
1002
{
1070
     5
1000
639164
1002
}
1002
{
1070
     2
1000
-2000011
1002
}
  0
LINE
  5
14A
330
70
100
AcDbEntity
  8
A-WALL
370
    40
100
AcDbLine
 10
-271.8749999999978
 20
843.7865924046478
 30
0.0
 11
-271.8749999999979
 21
831.7865924046479
 31
0.0
1001
REVIT
1002
{
1070
     1
1000
5136245
1002
}
1002
{
1070
     5
1000
639164
1002
}
1002
{
1070
     2
1000
-2000011
1002
}
  0
LINE
  5
14B
330
70
100
AcDbEntity
  8
A-WALL
370
    40
100
AcDbLine
 10
-478.8749999999978
 20
765.7865924046475
 30
0.0
 11
-478.8749999999979
 21
705.7865924046474
 31
0.0
1001
REVIT
1002
{
1070
     1
1000
5136371
1002
}
1002
{
1070
     5
1000
639164
1002
}
1002
{
1070
     2
1000
-2000011
1002
}
  0
LINE
  5
14D
330
70
100
AcDbEntity
  8
A-WALL
370
    40
100
AcDbLine
 10
-466.8749999999979
 20
693.7865924046474
 30
0.0
 11
-466.8749999999978
 21
765.7865924046474
 31
0.0
1001
REVIT
1002
{
1070
     1
1000
5136371
1002
}
1002
{
1070
     5
1000
639164
1002
}
1002
{
1070
     2
1000
-2000011
1002
}
  0
LINE
  5
14E
330
70
100
AcDbEntity
  8
S-STRS
100
AcDbLine
 10
-714.7485494232621
 20
703.7865924046482
 30
0.0
 11
-712.5488468368979
 21
703.7865924046482
 31
0.0
1001
REVIT
1002
{
1070
     1
1000
5160826
1002
}
1002
{
1070
     5
1000
44989
1002
}
1002
{
1070
     2
1000
-2000120
1002
}
1002
{
1070
     3
1000
-2000952
1002
}
  0
LINE
  5
14F
330
70
100
AcDbEntity
  8
S-STRS
100
AcDbLine
 10
-776.8749999999976
 20
743.7865924046484
 30
0.0
 11
-776.8749999999976
 21
741.7865924046484
 31
0.0
1001
REVIT
1002
{
1070
     1
1000
5160826
1002
}
1002
{
1070
     5
1000
44989
1002
}
1002
{
1070
     2
1000
-2000120
1002
}
1002
{
1070
     3
1000
-2000952
1002
}
  0
LINE
  5
150
330
70
100
AcDbEntity
  8
S-STRS
100
AcDbLine
 10
-776.8749999999976
 20
743.7865924046484
 30
0.0
 11
-731.2011531630974
 21
743.7865924046482
 31
0.0
1001
REVIT
1002
{
1070
     1
1000
5160826
1002
}
1002
{
1070
     5
1000
44989
1002
}
1002
{
1070
     2
1000
-2000120
1002
}
1002
{
1070
     3
1000
-2000952
1002
}
  0
LINE
  5
151
330
70
100
AcDbEntity
  8
S-STRS
100
AcDbLine
 10
-776.8749999999977
 20
739.7865924046485
 30
0.0
 11
-776.8749999999976
 21
707.7865924046485
 31
0.0
1001
REVIT
1002
{
1070
     1
1000
5160826
1002
}
1002
{
1070
     5
1000
44989
1002
}
1002
{
1070
     2
1000
-2000120
1002
}
1002
{
1070
     3
1000
-2000934
1002
}
  0
LINE
  5
153
330
70
100
AcDbEntity
  8
S-STRS-MBND
100
AcDbLine
 10
-724.4107095704419
 20
729.2244391268681
 30
0.0
 11
-731.2011531630974
 21
743.7865924046482
 31
0.0
1001
REVIT
1002
{
1070
     1
1000
5160826
1002
}
1002
{
1070
     5
1000
44989
1002
}
1002
{
1070
     2
1000
-2000120
1002
}
1002
{
1070
     3
1000
-2000930
1002
}
  0
LINE
  5
154
330
70
100
AcDbEntity
  8
S-STRS-MBND
100
AcDbLine
 10
-715.0776915972228
 20
726.9562293677033
 30
0.0
 11
-724.4107095704419
 21
729.2244391268681
 31
0.0
1001
REVIT
1002
{
1070
     1
1000
5160826
1002
}
1002
{
1070
     5
1000
44989
1002
}
1002
{
1070
     2
1000
-2000120
1002
}
1002
{
1070
     3
1000
-2000930
1002
}
  0
LINE
  5
155
330
70
100
AcDbEntity
  8
S-STRS-MBND
100
AcDbLine
 10
-728.6723084027726
 20
720.6169554415929
 30
0.0
 11
-715.0776915972228
 21
726.9562293677033
 31
0.0
1001
REVIT
1002
{
1070
     1
1000
5160826
1002
}
1002
{
1070
     5
1000
44989
1002
}
1002
{
1070
     2
1000
-2000120
1002
}
1002
{
1070
     3
1000
-2000930
1002
}
  0
LINE
  5
156
330
70
100
AcDbEntity
  8
S-STRS-MBND
100
AcDbLine
 10
-719.3392904295535
 20
718.3487456824283
 30
0.0
 11
-728.6723084027726
 21
720.6169554415929
 31
0.0
1001
REVIT
1002
{
1070
     1
1000
5160826
1002
}
1002
{
1070
     5
1000
44989
1002
}
1002
{
1070
     2
1000
-2000120
1002
}
1002
{
1070
     3
1000
-2000930
1002
}
  0
LINE
  5
157
330
70
100
AcDbEntity
  8
S-STRS-MBND
100
AcDbLine
 10
-712.5488468368979
 20
703.7865924046482
 30
0.0
 11
-719.3392904295535
 21
718.3487456824283
 31
0.0
1001
REVIT
1002
{
1070
     1
1000
5160826
1002
}
1002
{
1070
     5
1000
44989
1002
}
1002
{
1070
     2
1000
-2000120
1002
}
1002
{
1070
     3
1000
-2000930
1002
}
  0
LINE
  5
158
330
70
100
AcDbEntity
  8
S-STRS
100
AcDbLine
 10
-721.8749999999977
 20
718.9650009184722
 30
0.0
 11
-721.8749999999977
 21
707.7865924046482
 31
0.0
1001
REVIT
1002
{
1070
     1
1000
5160826
1002
}
1002
{
1070
     5
1000
44989
1002
}
1002
{
1070
     2
1000
-2000120
1002
}
1002
{
1070
     3
1000
-2000932
1002
}
  0
LINE
  5
159
330
70
100
AcDbEntity
  8
S-STRS
100
AcDbLine
 10
-721.8749999999977
 20
728.608183890824
 30
0.0
 11
-721.8749999999977
 21
723.7865924046482
 31
0.0
1001
REVIT
1002
{
1070
     1
1000
5160826
1002
}
1002
{
1070
     5
1000
44989
1002
}
1002
{
1070
     2
1000
-2000120
1002
}
1002
{
1070
     3
1000
-2000932
1002
}
  0
LINE
  5
15A
330
70
100
AcDbEntity
  8
S-STRS
100
AcDbLine
 10
-732.8749999999977
 20
739.7865924046482
 30
0.0
 11
-732.8749999999978
 21
707.7865924046482
 31
0.0
1001
REVIT
1002
{
1070
     1
1000
5160826
1002
}
1002
{
1070
     5
1000
44989
1002
}
1002
{
1070
     2
1000
-2000120
1002
}
1002
{
1070
     3
1000
-2000932
1002
}
  0
LINE
  5
15B
330
70
100
AcDbEntity
  8
S-STRS
100
AcDbLine
 10
-743.8749999999977
 20
739.7865924046483
 30
0.0
 11
-743.8749999999978
 21
707.7865924046485
 31
0.0
1001
REVIT
1002
{
1070
     1
1000
5160826
1002
}
1002
{
1070
     5
1000
44989
1002
}
1002
{
1070
     2
1000
-2000120
1002
}
1002
{
1070
     3
1000
-2000932
1002
}
  0
LINE
  5
15C
330
70
100
AcDbEntity
  8
S-STRS
100
AcDbLine
 10
-754.8749999999976
 20
739.7865924046483
 30
0.0
 11
-754.8749999999976
 21
707.7865924046482
 31
0.0
1001
REVIT
1002
{
1070
     1
1000
5160826
1002
}
1002
{
1070
     5
1000
44989
1002
}
1002
{
1070
     2
1000
-2000120
1002
}
1002
{
1070
     3
1000
-2000932
1002
}
  0
LINE
  5
15D
330
70
100
AcDbEntity
  8
S-STRS
100
AcDbLine
 10
-765.8749999999977
 20
739.7865924046483
 30
0.0
 11
-765.8749999999978
 21
707.7865924046483
 31
0.0
1001
REVIT
1002
{
1070
     1
1000
5160826
1002
}
1002
{
1070
     5
1000
44989
1002
}
1002
{
1070
     2
1000
-2000120
1002
}
1002
{
1070
     3
1000
-2000932
1002
}
  0
INSERT
  5
165
330
70
100
AcDbEntity
  8
A-FLOR-HRAL
100
AcDbBlockReference
  2
Railing - Railing-5161019-BASEMENT Map Export
 10
0.0
 20
0.0
 30
0.0
 50
180.0
1001
REVIT
1002
{
1070
     1
1000
5161018
1002
}
1002
{
1070
     5
1000
1969
1002
}
1002
{
1070
     2
1000
-2000126
1002
}
1002
{
1070
     3
1000
-2000128
1002
}
  0
INSERT
  5
16D
330
70
100
AcDbEntity
  8
A-FLOR-HRAL
100
AcDbBlockReference
  2
Railing - Railing-5161023-BASEMENT Map Export
 10
0.0
 20
0.0
 30
0.0
 50
180.0
1001
REVIT
1002
{
1070
     1
1000
5161022
1002
}
1002
{
1070
     5
1000
1969
1002
}
1002
{
1070
     2
1000
-2000126
1002
}
1002
{
1070
     3
1000
-2000128
1002
}
  0
INSERT
  5
18E
330
70
100
AcDbEntity
  8
A-DOOR
370
     9
100
AcDbBlockReference
  2
Door-Single_CE_ - HM Door-2_ HM Frame-5163379-BASEMENT Map Export
 10
-609.8749999999985
 20
315.7865924046652
 30
0.0
 50
89.99999999999991
1001
REVIT
1002
{
1070
     1
1000
5171237
1002
}
1002
{
1070
     5
1000
4450563
1002
}
1002
{
1070
     2
1000
-2000023
1002
}
1002
{
1070
     3
1000
636535
1002
}
  0
INSERT
  5
1AE
330
70
100
AcDbEntity
  8
A-DOOR
370
     9
100
AcDbBlockReference
  2
Door-Single_CE_ - HM Door-2_ HM Frame-5162622-BASEMENT Map Export
 10
-609.8749999999983
 20
366.7865924046641
 30
0.0
 50
269.9999999999999
1001
REVIT
1002
{
1070
     1
1000
5171316
1002
}
1002
{
1070
     5
1000
4450563
1002
}
1002
{
1070
     2
1000
-2000023
1002
}
1002
{
1070
     3
1000
636535
1002
}
  0
INSERT
  5
1AF
330
70
100
AcDbEntity
  8
A-DOOR
370
     9
100
AcDbBlockReference
  2
Door-Single_CE_ - HM Door-2_ HM Frame-5162622-BASEMENT Map Export
 10
-762.8750000000005
 20
560.7865924046636
 30
0.0
 50
269.9999999999999
1001
REVIT
1002
{
1070
     1
1000
5171402
1002
}
1002
{
1070
     5
1000
4450563
1002
}
1002
{
1070
     2
1000
-2000023
1002
}
1002
{
1070
     3
1000
636535
1002
}
  0
INSERT
  5
1B0
330
70
100
AcDbEntity
  8
A-DOOR
370
     9
100
AcDbBlockReference
  2
Door-Single_CE_ - HM Door-2_ HM Frame-5162622-BASEMENT Map Export
 10
-855.8750000000154
 20
585.7865924046487
 30
0.0
1001
REVIT
1002
{
1070
     1
1000
5171446
1002
}
1002
{
1070
     5
1000
4450563
1002
}
1002
{
1070
     2
1000
-2000023
1002
}
1002
{
1070
     3
1000
636535
1002
}
  0
INSERT
  5
1B1
330
70
100
AcDbEntity
  8
A-DOOR
370
     9
100
AcDbBlockReference
  2
Door-Single_CE_ - HM Door-2_ HM Frame-5162622-BASEMENT Map Export
 10
-937.875000000016
 20
537.7865924046489
 30
0.0
1001
REVIT
1002
{
1070
     1
1000
5171482
1002
}
1002
{
1070
     5
1000
4450563
1002
}
1002
{
1070
     2
1000
-2000023
1002
}
1002
{
1070
     3
1000
636535
1002
}
  0
INSERT
  5
1D1
330
70
100
AcDbEntity
  8
A-DOOR
370
     9
100
AcDbBlockReference
  2
Door-Single_CE_ - HM Door-2_ HM Frame-5164562-BASEMENT Map Export
 10
-1209.874999999982
 20
366.7865924046495
 30
0.0
 50
180.0
1001
REVIT
1002
{
1070
     1
1000
5171514
1002
}
1002
{
1070
     5
1000
4450563
1002
}
1002
{
1070
     2
1000
-2000023
1002
}
1002
{
1070
     3
1000
636535
1002
}
  0
INSERT
  5
1D2
330
70
100
AcDbEntity
  8
A-DOOR
370
     9
100
AcDbBlockReference
  2
Door-Single_CE_ - HM Door-2_ HM Frame-5164562-BASEMENT Map Export
 10
-437.8749999999849
 20
483.7865924046488
 30
0.0
 50
180.0
1001
REVIT
1002
{
1070
     1
1000
5171546
1002
}
1002
{
1070
     5
1000
4450563
1002
}
1002
{
1070
     2
1000
-2000023
1002
}
1002
{
1070
     3
1000
636535
1002
}
  0
INSERT
  5
1D3
330
70
100
AcDbEntity
  8
A-DOOR
370
     9
100
AcDbBlockReference
  2
Door-Single_CE_ - HM Door-2_ HM Frame-5164562-BASEMENT Map Export
 10
-553.8749999999981
 20
512.2865924046641
 30
0.0
 50
269.9999999999999
1001
REVIT
1002
{
1070
     1
1000
5171652
1002
}
1002
{
1070
     5
1000
4450563
1002
}
1002
{
1070
     2
1000
-2000023
1002
}
1002
{
1070
     3
1000
636535
1002
}
  0
INSERT
  5
1D4
330
70
100
AcDbEntity
  8
A-DOOR
370
     9
100
AcDbBlockReference
  2
Door-Single_CE_ - HM Door-2_ HM Frame-5164562-BASEMENT Map Export
 10
-205.874999999998
 20
804.7865924046318
 30
0.0
 50
89.99999999999991
1001
REVIT
1002
{
1070
     1
1000
5171760
1002
}
1002
{
1070
     5
1000
4450563
1002
}
1002
{
1070
     2
1000
-2000023
1002
}
1002
{
1070
     3
1000
636535
1002
}
  0
INSERT
  5
1F4
330
70
100
AcDbEntity
  8
A-DOOR
370
     9
100
AcDbBlockReference
  2
Door-Single_CE_ - HM Door-2_ HM Frame-5164208-BASEMENT Map Export
 10
-799.8750000000157
 20
699.7865924046486
 30
0.0
 50
180.0
1001
REVIT
1002
{
1070
     1
1000
5172186
1002
}
1002
{
1070
     5
1000
4450563
1002
}
1002
{
1070
     2
1000
-2000023
1002
}
1002
{
1070
     3
1000
636535
1002
}
  0
LINE
  5
1F5
330
70
100
AcDbEntity
  8
S-STRS
100
AcDbLine
 10
-1257.874999999997
 20
309.7865924046496
 30
0.0
 11
-1257.874999999997
 21
357.7865924046496
 31
0.0
1001
REVIT
1002
{
1070
     1
1000
5207755
1002
}
1002
{
1070
     5
1000
44989
1002
}
1002
{
1070
     2
1000
-2000120
1002
}
1002
{
1070
     3
1000
-2000934
1002
}
  0
LINE
  5
1F6
330
70
100
AcDbEntity
  8
S-STRS
100
AcDbLine
 10
-1323.874999999997
 20
357.7865924046498
 30
0.0
 11
-1324.066383795717
 21
357.7865924046498
 31
0.0
1001
REVIT
1002
{
1070
     1
1000
5207755
1002
}
1002
{
1070
     5
1000
44989
1002
}
1002
{
1070
     2
1000
-2000120
1002
}
1002
{
1070
     3
1000
-2000934
1002
}
  0
LINE
  5
1F7
330
70
100
AcDbEntity
  8
S-STRS
100
AcDbLine
 10
-1312.874999999997
 20
357.7865924046497
 30
0.0
 11
-1323.874999999997
 21
357.7865924046498
 31
0.0
1001
REVIT
1002
{
1070
     1
1000
5207755
1002
}
1002
{
1070
     5
1000
44989
1002
}
1002
{
1070
     2
1000
-2000120
1002
}
1002
{
1070
     3
1000
-2000934
1002
}
  0
LINE
  5
1F8
330
70
100
AcDbEntity
  8
S-STRS
100
AcDbLine
 10
-1301.874999999997
 20
357.7865924046497
 30
0.0
 11
-1312.874999999997
 21
357.7865924046497
 31
0.0
1001
REVIT
1002
{
1070
     1
1000
5207755
1002
}
1002
{
1070
     5
1000
44989
1002
}
1002
{
1070
     2
1000
-2000120
1002
}
1002
{
1070
     3
1000
-2000934
1002
}
  0
LINE
  5
1F9
330
70
100
AcDbEntity
  8
S-STRS
100
AcDbLine
 10
-1290.874999999997
 20
357.7865924046496
 30
0.0
 11
-1301.874999999997
 21
357.7865924046497
 31
0.0
1001
REVIT
1002
{
1070
     1
1000
5207755
1002
}
1002
{
1070
     5
1000
44989
1002
}
1002
{
1070
     2
1000
-2000120
1002
}
1002
{
1070
     3
1000
-2000934
1002
}
  0
LINE
  5
1FA
330
70
100
AcDbEntity
  8
S-STRS
100
AcDbLine
 10
-1279.874999999997
 20
357.7865924046496
 30
0.0
 11
-1290.874999999997
 21
357.7865924046496
 31
0.0
1001
REVIT
1002
{
1070
     1
1000
5207755
1002
}
1002
{
1070
     5
1000
44989
1002
}
1002
{
1070
     2
1000
-2000120
1002
}
1002
{
1070
     3
1000
-2000934
1002
}
  0
LINE
  5
1FB
330
70
100
AcDbEntity
  8
S-STRS
100
AcDbLine
 10
-1268.874999999997
 20
357.7865924046496
 30
0.0
 11
-1279.874999999997
 21
357.7865924046496
 31
0.0
1001
REVIT
1002
{
1070
     1
1000
5207755
1002
}
1002
{
1070
     5
1000
44989
1002
}
1002
{
1070
     2
1000
-2000120
1002
}
1002
{
1070
     3
1000
-2000934
1002
}
  0
LINE
  5
1FC
330
70
100
AcDbEntity
  8
S-STRS
100
AcDbLine
 10
-1257.874999999997
 20
357.7865924046496
 30
0.0
 11
-1268.874999999997
 21
357.7865924046496
 31
0.0
1001
REVIT
1002
{
1070
     1
1000
5207755
1002
}
1002
{
1070
     5
1000
44989
1002
}
1002
{
1070
     2
1000
-2000120
1002
}
1002
{
1070
     3
1000
-2000934
1002
}
  0
LINE
  5
1FD
330
70
100
AcDbEntity
  8
S-STRS
100
AcDbLine
 10
-1290.874999999997
 20
309.7865924046496
 30
0.0
 11
-1301.683616204278
 21
309.7865924046497
 31
0.0
1001
REVIT
1002
{
1070
     1
1000
5207755
1002
}
1002
{
1070
     5
1000
44989
1002
}
1002
{
1070
     2
1000
-2000120
1002
}
1002
{
1070
     3
1000
-2000934
1002
}
  0
LINE
  5
1FE
330
70
100
AcDbEntity
  8
S-STRS
100
AcDbLine
 10
-1279.874999999997
 20
309.7865924046496
 30
0.0
 11
-1290.874999999997
 21
309.7865924046496
 31
0.0
1001
REVIT
1002
{
1070
     1
1000
5207755
1002
}
1002
{
1070
     5
1000
44989
1002
}
1002
{
1070
     2
1000
-2000120
1002
}
1002
{
1070
     3
1000
-2000934
1002
}
  0
LINE
  5
1FF
330
70
100
AcDbEntity
  8
S-STRS
100
AcDbLine
 10
-1268.874999999997
 20
309.7865924046496
 30
0.0
 11
-1279.874999999997
 21
309.7865924046496
 31
0.0
1001
REVIT
1002
{
1070
     1
1000
5207755
1002
}
1002
{
1070
     5
1000
44989
1002
}
1002
{
1070
     2
1000
-2000120
1002
}
1002
{
1070
     3
1000
-2000934
1002
}
  0
LINE
  5
200
330
70
100
AcDbEntity
  8
S-STRS
100
AcDbLine
 10
-1257.874999999997
 20
309.7865924046496
 30
0.0
 11
-1268.874999999997
 21
309.7865924046496
 31
0.0
1001
REVIT
1002
{
1070
     1
1000
5207755
1002
}
1002
{
1070
     5
1000
44989
1002
}
1002
{
1070
     2
1000
-2000120
1002
}
1002
{
1070
     3
1000
-2000934
1002
}
  0
LINE
  5
201
330
70
100
AcDbEntity
  8
S-STRS-MBND
100
AcDbLine
 10
-1310.339290429553
 20
328.3487456824298
 30
0.0
 11
-1301.683616204278
 21
309.7865924046497
 31
0.0
1001
REVIT
1002
{
1070
     1
1000
5207755
1002
}
1002
{
1070
     5
1000
44989
1002
}
1002
{
1070
     2
1000
-2000120
1002
}
1002
{
1070
     3
1000
-2000930
1002
}
  0
LINE
  5
202
330
70
100
AcDbEntity
  8
S-STRS-MBND
100
AcDbLine
 10
-1319.672308402772
 20
330.6169554415945
 30
0.0
 11
-1310.339290429553
 21
328.3487456824298
 31
0.0
1001
REVIT
1002
{
1070
     1
1000
5207755
1002
}
1002
{
1070
     5
1000
44989
1002
}
1002
{
1070
     2
1000
-2000120
1002
}
1002
{
1070
     3
1000
-2000930
1002
}
  0
LINE
  5
203
330
70
100
AcDbEntity
  8
S-STRS-MBND
100
AcDbLine
 10
-1306.077691597222
 20
336.9562293677049
 30
0.0
 11
-1319.672308402772
 21
330.6169554415945
 31
0.0
1001
REVIT
1002
{
1070
     1
1000
5207755
1002
}
1002
{
1070
     5
1000
44989
1002
}
1002
{
1070
     2
1000
-2000120
1002
}
1002
{
1070
     3
1000
-2000930
1002
}
  0
LINE
  5
204
330
70
100
AcDbEntity
  8
S-STRS-MBND
100
AcDbLine
 10
-1315.410709570441
 20
339.2244391268696
 30
0.0
 11
-1306.077691597222
 21
336.9562293677049
 31
0.0
1001
REVIT
1002
{
1070
     1
1000
5207755
1002
}
1002
{
1070
     5
1000
44989
1002
}
1002
{
1070
     2
1000
-2000120
1002
}
1002
{
1070
     3
1000
-2000930
1002
}
  0
LINE
  5
205
330
70
100
AcDbEntity
  8
S-STRS-MBND
100
AcDbLine
 10
-1324.066383795717
 20
357.7865924046498
 30
0.0
 11
-1315.410709570441
 21
339.2244391268696
 31
0.0
1001
REVIT
1002
{
1070
     1
1000
5207755
1002
}
1002
{
1070
     5
1000
44989
1002
}
1002
{
1070
     2
1000
-2000120
1002
}
1002
{
1070
     3
1000
-2000930
1002
}
  0
LINE
  5
206
330
70
100
AcDbEntity
  8
S-STRS
100
AcDbLine
 10
-1323.874999999997
 20
357.3761685302546
 30
0.0
 11
-1323.874999999997
 21
357.7865924046498
 31
0.0
1001
REVIT
1002
{
1070
     1
1000
5207755
1002
}
1002
{
1070
     5
1000
44989
1002
}
1002
{
1070
     2
1000
-2000120
1002
}
1002
{
1070
     3
1000
-2000932
1002
}
  0
LINE
  5
207
330
70
100
AcDbEntity
  8
S-STRS
100
AcDbLine
 10
-1312.874999999997
 20
338.6081838908256
 30
0.0
 11
-1312.874999999997
 21
357.7865924046497
 31
0.0
1001
REVIT
1002
{
1070
     1
1000
5207755
1002
}
1002
{
1070
     5
1000
44989
1002
}
1002
{
1070
     2
1000
-2000120
1002
}
1002
{
1070
     3
1000
-2000932
1002
}
  0
LINE
  5
208
330
70
100
AcDbEntity
  8
S-STRS
100
AcDbLine
 10
-1312.874999999997
 20
328.9650009184738
 30
0.0
 11
-1312.874999999997
 21
333.7865924046497
 31
0.0
1001
REVIT
1002
{
1070
     1
1000
5207755
1002
}
1002
{
1070
     5
1000
44989
1002
}
1002
{
1070
     2
1000
-2000120
1002
}
1002
{
1070
     3
1000
-2000932
1002
}
  0
LINE
  5
209
330
70
100
AcDbEntity
  8
S-STRS
100
AcDbLine
 10
-1301.874999999997
 20
310.1970162790445
 30
0.0
 11
-1301.874999999997
 21
357.7865924046497
 31
0.0
1001
REVIT
1002
{
1070
     1
1000
5207755
1002
}
1002
{
1070
     5
1000
44989
1002
}
1002
{
1070
     2
1000
-2000120
1002
}
1002
{
1070
     3
1000
-2000932
1002
}
  0
LINE
  5
20A
330
70
100
AcDbEntity
  8
S-STRS
100
AcDbLine
 10
-1290.874999999997
 20
309.7865924046496
 30
0.0
 11
-1290.874999999997
 21
357.7865924046496
 31
0.0
1001
REVIT
1002
{
1070
     1
1000
5207755
1002
}
1002
{
1070
     5
1000
44989
1002
}
1002
{
1070
     2
1000
-2000120
1002
}
1002
{
1070
     3
1000
-2000932
1002
}
  0
LINE
  5
20B
330
70
100
AcDbEntity
  8
S-STRS
100
AcDbLine
 10
-1279.874999999997
 20
309.7865924046496
 30
0.0
 11
-1279.874999999997
 21
357.7865924046496
 31
0.0
1001
REVIT
1002
{
1070
     1
1000
5207755
1002
}
1002
{
1070
     5
1000
44989
1002
}
1002
{
1070
     2
1000
-2000120
1002
}
1002
{
1070
     3
1000
-2000932
1002
}
  0
LINE
  5
20C
330
70
100
AcDbEntity
  8
S-STRS
100
AcDbLine
 10
-1268.874999999997
 20
309.7865924046496
 30
0.0
 11
-1268.874999999997
 21
357.7865924046496
 31
0.0
1001
REVIT
1002
{
1070
     1
1000
5207755
1002
}
1002
{
1070
     5
1000
44989
1002
}
1002
{
1070
     2
1000
-2000120
1002
}
1002
{
1070
     3
1000
-2000932
1002
}
  0
LINE
  5
20D
330
70
100
AcDbEntity
  8
S-STRS
100
AcDbLine
 10
574.7397117474977
 20
296.7865924046456
 30
0.0
 11
574.7397117474979
 21
248.7865924046457
 31
0.0
1001
REVIT
1002
{
1070
     1
1000
5207991
1002
}
1002
{
1070
     5
1000
44989
1002
}
1002
{
1070
     2
1000
-2000120
1002
}
1002
{
1070
     3
1000
-2000934
1002
}
  0
LINE
  5
20E
330
70
100
AcDbEntity
  8
S-STRS
100
AcDbLine
 10
640.7397117474978
 20
248.7865924046459
 30
0.0
 11
640.9310955432176
 21
248.7865924046459
 31
0.0
1001
REVIT
1002
{
1070
     1
1000
5207991
1002
}
1002
{
1070
     5
1000
44989
1002
}
1002
{
1070
     2
1000
-2000120
1002
}
1002
{
1070
     3
1000
-2000934
1002
}
  0
LINE
  5
20F
330
70
100
AcDbEntity
  8
S-STRS
100
AcDbLine
 10
629.7397117474978
 20
248.7865924046459
 30
0.0
 11
640.7397117474978
 21
248.7865924046459
 31
0.0
1001
REVIT
1002
{
1070
     1
1000
5207991
1002
}
1002
{
1070
     5
1000
44989
1002
}
1002
{
1070
     2
1000
-2000120
1002
}
1002
{
1070
     3
1000
-2000934
1002
}
  0
LINE
  5
210
330
70
100
AcDbEntity
  8
S-STRS
100
AcDbLine
 10
618.7397117474978
 20
248.7865924046458
 30
0.0
 11
629.7397117474978
 21
248.7865924046459
 31
0.0
1001
REVIT
1002
{
1070
     1
1000
5207991
1002
}
1002
{
1070
     5
1000
44989
1002
}
1002
{
1070
     2
1000
-2000120
1002
}
1002
{
1070
     3
1000
-2000934
1002
}
  0
LINE
  5
211
330
70
100
AcDbEntity
  8
S-STRS
100
AcDbLine
 10
607.7397117474978
 20
248.7865924046458
 30
0.0
 11
618.7397117474978
 21
248.7865924046458
 31
0.0
1001
REVIT
1002
{
1070
     1
1000
5207991
1002
}
1002
{
1070
     5
1000
44989
1002
}
1002
{
1070
     2
1000
-2000120
1002
}
1002
{
1070
     3
1000
-2000934
1002
}
  0
LINE
  5
212
330
70
100
AcDbEntity
  8
S-STRS
100
AcDbLine
 10
596.7397117474978
 20
248.7865924046457
 30
0.0
 11
607.7397117474978
 21
248.7865924046458
 31
0.0
1001
REVIT
1002
{
1070
     1
1000
5207991
1002
}
1002
{
1070
     5
1000
44989
1002
}
1002
{
1070
     2
1000
-2000120
1002
}
1002
{
1070
     3
1000
-2000934
1002
}
  0
LINE
  5
213
330
70
100
AcDbEntity
  8
S-STRS
100
AcDbLine
 10
585.7397117474978
 20
248.7865924046457
 30
0.0
 11
596.7397117474978
 21
248.7865924046457
 31
0.0
1001
REVIT
1002
{
1070
     1
1000
5207991
1002
}
1002
{
1070
     5
1000
44989
1002
}
1002
{
1070
     2
1000
-2000120
1002
}
1002
{
1070
     3
1000
-2000934
1002
}
  0
LINE
  5
214
330
70
100
AcDbEntity
  8
S-STRS
100
AcDbLine
 10
574.7397117474979
 20
248.7865924046457
 30
0.0
 11
585.7397117474978
 21
248.7865924046457
 31
0.0
1001
REVIT
1002
{
1070
     1
1000
5207991
1002
}
1002
{
1070
     5
1000
44989
1002
}
1002
{
1070
     2
1000
-2000120
1002
}
1002
{
1070
     3
1000
-2000934
1002
}
  0
LINE
  5
215
330
70
100
AcDbEntity
  8
S-STRS
100
AcDbLine
 10
607.7397117474977
 20
296.7865924046458
 30
0.0
 11
618.5483279517777
 21
296.7865924046458
 31
0.0
1001
REVIT
1002
{
1070
     1
1000
5207991
1002
}
1002
{
1070
     5
1000
44989
1002
}
1002
{
1070
     2
1000
-2000120
1002
}
1002
{
1070
     3
1000
-2000934
1002
}
  0
LINE
  5
216
330
70
100
AcDbEntity
  8
S-STRS
100
AcDbLine
 10
596.7397117474976
 20
296.7865924046457
 30
0.0
 11
607.7397117474977
 21
296.7865924046458
 31
0.0
1001
REVIT
1002
{
1070
     1
1000
5207991
1002
}
1002
{
1070
     5
1000
44989
1002
}
1002
{
1070
     2
1000
-2000120
1002
}
1002
{
1070
     3
1000
-2000934
1002
}
  0
LINE
  5
217
330
70
100
AcDbEntity
  8
S-STRS
100
AcDbLine
 10
585.7397117474977
 20
296.7865924046456
 30
0.0
 11
596.7397117474976
 21
296.7865924046457
 31
0.0
1001
REVIT
1002
{
1070
     1
1000
5207991
1002
}
1002
{
1070
     5
1000
44989
1002
}
1002
{
1070
     2
1000
-2000120
1002
}
1002
{
1070
     3
1000
-2000934
1002
}
  0
LINE
  5
218
330
70
100
AcDbEntity
  8
S-STRS
100
AcDbLine
 10
574.7397117474977
 20
296.7865924046456
 30
0.0
 11
585.7397117474977
 21
296.7865924046456
 31
0.0
1001
REVIT
1002
{
1070
     1
1000
5207991
1002
}
1002
{
1070
     5
1000
44989
1002
}
1002
{
1070
     2
1000
-2000120
1002
}
1002
{
1070
     3
1000
-2000934
1002
}
  0
LINE
  5
219
330
70
100
AcDbEntity
  8
S-STRS-MBND
100
AcDbLine
 10
627.2040021770534
 20
278.2244391268658
 30
0.0
 11
618.5483279517777
 21
296.7865924046458
 31
0.0
1001
REVIT
1002
{
1070
     1
1000
5207991
1002
}
1002
{
1070
     5
1000
44989
1002
}
1002
{
1070
     2
1000
-2000120
1002
}
1002
{
1070
     3
1000
-2000930
1002
}
  0
LINE
  5
21A
330
70
100
AcDbEntity
  8
S-STRS-MBND
100
AcDbLine
 10
636.5370201502726
 20
275.9562293677011
 30
0.0
 11
627.2040021770534
 21
278.2244391268658
 31
0.0
1001
REVIT
1002
{
1070
     1
1000
5207991
1002
}
1002
{
1070
     5
1000
44989
1002
}
1002
{
1070
     2
1000
-2000120
1002
}
1002
{
1070
     3
1000
-2000930
1002
}
  0
LINE
  5
21B
330
70
100
AcDbEntity
  8
S-STRS-MBND
100
AcDbLine
 10
622.9424033447228
 20
269.6169554415906
 30
0.0
 11
636.5370201502726
 21
275.9562293677011
 31
0.0
1001
REVIT
1002
{
1070
     1
1000
5207991
1002
}
1002
{
1070
     5
1000
44989
1002
}
1002
{
1070
     2
1000
-2000120
1002
}
1002
{
1070
     3
1000
-2000930
1002
}
  0
LINE
  5
21C
330
70
100
AcDbEntity
  8
S-STRS-MBND
100
AcDbLine
 10
632.2754213179418
 20
267.3487456824259
 30
0.0
 11
622.9424033447228
 21
269.6169554415906
 31
0.0
1001
REVIT
1002
{
1070
     1
1000
5207991
1002
}
1002
{
1070
     5
1000
44989
1002
}
1002
{
1070
     2
1000
-2000120
1002
}
1002
{
1070
     3
1000
-2000930
1002
}
  0
LINE
  5
21D
330
70
100
AcDbEntity
  8
S-STRS-MBND
100
AcDbLine
 10
640.9310955432176
 20
248.7865924046459
 30
0.0
 11
632.2754213179418
 21
267.3487456824259
 31
0.0
1001
REVIT
1002
{
1070
     1
1000
5207991
1002
}
1002
{
1070
     5
1000
44989
1002
}
1002
{
1070
     2
1000
-2000120
1002
}
1002
{
1070
     3
1000
-2000930
1002
}
  0
LINE
  5
21E
330
70
100
AcDbEntity
  8
S-STRS
100
AcDbLine
 10
640.7397117474978
 20
249.1970162790405
 30
0.0
 11
640.7397117474978
 21
248.7865924046459
 31
0.0
1001
REVIT
1002
{
1070
     1
1000
5207991
1002
}
1002
{
1070
     5
1000
44989
1002
}
1002
{
1070
     2
1000
-2000120
1002
}
1002
{
1070
     3
1000
-2000932
1002
}
  0
LINE
  5
21F
330
70
100
AcDbEntity
  8
S-STRS
100
AcDbLine
 10
629.7397117474977
 20
267.9650009184699
 30
0.0
 11
629.7397117474978
 21
248.7865924046459
 31
0.0
1001
REVIT
1002
{
1070
     1
1000
5207991
1002
}
1002
{
1070
     5
1000
44989
1002
}
1002
{
1070
     2
1000
-2000120
1002
}
1002
{
1070
     3
1000
-2000932
1002
}
  0
LINE
  5
220
330
70
100
AcDbEntity
  8
S-STRS
100
AcDbLine
 10
629.7397117474976
 20
277.6081838908218
 30
0.0
 11
629.7397117474977
 21
272.7865924046459
 31
0.0
1001
REVIT
1002
{
1070
     1
1000
5207991
1002
}
1002
{
1070
     5
1000
44989
1002
}
1002
{
1070
     2
1000
-2000120
1002
}
1002
{
1070
     3
1000
-2000932
1002
}
  0
LINE
  5
221
330
70
100
AcDbEntity
  8
S-STRS
100
AcDbLine
 10
618.7397117474977
 20
296.376168530251
 30
0.0
 11
618.7397117474978
 21
248.7865924046458
 31
0.0
1001
REVIT
1002
{
1070
     1
1000
5207991
1002
}
1002
{
1070
     5
1000
44989
1002
}
1002
{
1070
     2
1000
-2000120
1002
}
1002
{
1070
     3
1000
-2000932
1002
}
  0
LINE
  5
222
330
70
100
AcDbEntity
  8
S-STRS
100
AcDbLine
 10
607.7397117474977
 20
296.7865924046458
 30
0.0
 11
607.7397117474978
 21
248.7865924046458
 31
0.0
1001
REVIT
1002
{
1070
     1
1000
5207991
1002
}
1002
{
1070
     5
1000
44989
1002
}
1002
{
1070
     2
1000
-2000120
1002
}
1002
{
1070
     3
1000
-2000932
1002
}
  0
LINE
  5
223
330
70
100
AcDbEntity
  8
S-STRS
100
AcDbLine
 10
596.7397117474976
 20
296.7865924046457
 30
0.0
 11
596.7397117474978
 21
248.7865924046457
 31
0.0
1001
REVIT
1002
{
1070
     1
1000
5207991
1002
}
1002
{
1070
     5
1000
44989
1002
}
1002
{
1070
     2
1000
-2000120
1002
}
1002
{
1070
     3
1000
-2000932
1002
}
  0
LINE
  5
224
330
70
100
AcDbEntity
  8
S-STRS
100
AcDbLine
 10
585.7397117474977
 20
296.7865924046456
 30
0.0
 11
585.7397117474978
 21
248.7865924046457
 31
0.0
1001
REVIT
1002
{
1070
     1
1000
5207991
1002
}
1002
{
1070
     5
1000
44989
1002
}
1002
{
1070
     2
1000
-2000120
1002
}
1002
{
1070
     3
1000
-2000932
1002
}
  0
LINE
  5
225
330
70
100
AcDbEntity
  8
A-WALL
370
    40
100
AcDbLine
 10
-1135.875
 20
693.7865924046497
 30
0.0
 11
-1135.875
 21
655.7865924046499
 31
0.0
1001
REVIT
1002
{
1070
     1
1000
5208601
1002
}
1002
{
1070
     5
1000
639163
1002
}
1002
{
1070
     2
1000
-2000011
1002
}
  0
LINE
  5
226
330
70
100
AcDbEntity
  8
A-WALL
370
    40
100
AcDbLine
 10
-1135.875
 20
655.7865924046499
 30
0.0
 11
-1127.875
 21
655.7865924046499
 31
0.0
1001
REVIT
1002
{
1070
     1
1000
5208601
1002
}
1002
{
1070
     5
1000
639163
1002
}
1002
{
1070
     2
1000
-2000011
1002
}
  0
LINE
  5
227
330
70
100
AcDbEntity
  8
A-WALL
370
    40
100
AcDbLine
 10
-1127.875
 20
655.7865924046499
 30
0.0
 11
-1127.875
 21
693.7865924046495
 31
0.0
1001
REVIT
1002
{
1070
     1
1000
5208601
1002
}
1002
{
1070
     5
1000
639163
1002
}
1002
{
1070
     2
1000
-2000011
1002
}
  0
ENDSEC
  0
SECTION
  2
OBJECTS
  0
DICTIONARY
  5
C
330
0
100
AcDbDictionary
281
     1
  3
ACAD_CIP_PREVIOUS_PRODUCT_INFO
350
79
  3
ACAD_COLOR
350
63
  3
ACAD_DETAILVIEWSTYLE
350
6A
  3
ACAD_GROUP
350
D
  3
ACAD_IMAGE_VARS
350
7A
  3
ACAD_LAYOUT
350
62
  3
ACAD_MATERIAL
350
10
  3
ACAD_MLEADERSTYLE
350
66
  3
ACAD_MLINESTYLE
350
5F
  3
ACAD_PLOTSETTINGS
350
61
  3
ACAD_PLOTSTYLENAME
350
E
  3
ACAD_SCALELIST
350
42
  3
ACAD_SECTIONVIEWSTYLE
350
68
  3
ACAD_TABLESTYLE
350
64
  3
ACAD_VISUALSTYLE
350
29
  3
ACDB_RECOMPOSE_DATA
350
234
  3
AcDbVariableDictionary
350
7B
  3
REVIT_DICTIONARY
350
228
  0
DICTIONARY
  5
230
330
70
100
AcDbDictionary
280
     1
281
     1
  3
ACAD_SORTENTS
360
231
  0
XRECORD
  5
79
102
{ACAD_REACTORS
330
C
102
}
330
C
100
AcDbXrecord
280
     1
300
RVT
300
2025
300
RVT2025
  0
DICTIONARY
  5
63
102
{ACAD_REACTORS
330
C
102
}
330
C
100
AcDbDictionary
281
     1
  0
DICTIONARY
  5
6A
102
{ACAD_REACTORS
330
C
102
}
330
C
100
AcDbDictionary
281
     1
  3
Imperial24
350
6B
  0
DICTIONARY
  5
D
102
{ACAD_REACTORS
330
C
102
}
330
C
100
AcDbDictionary
281
     1
  0
RASTERVARIABLES
  5
7A
102
{ACAD_REACTORS
330
C
102
}
330
C
100
AcDbRasterVariables
 90
        0
 70
     0
 71
     1
 72
     5
  0
DICTIONARY
  5
62
102
{ACAD_REACTORS
330
C
102
}
330
C
100
AcDbDictionary
281
     1
  3
Layout1
350
6F
  3
Layout2
350
77
  3
Model
350
73
  0
DICTIONARY
  5
10
102
{ACAD_REACTORS
330
C
102
}
330
C
100
AcDbDictionary
281
     1
  3
ByBlock
350
19
  3
ByLayer
350
11
  3
Global
350
21
  0
DICTIONARY
  5
66
102
{ACAD_REACTORS
330
C
102
}
330
C
100
AcDbDictionary
281
     1
  3
Standard
350
67
  0
DICTIONARY
  5
5F
102
{ACAD_REACTORS
330
C
102
}
330
C
100
AcDbDictionary
281
     1
  3
Standard
350
60
  0
DICTIONARY
  5
61
102
{ACAD_REACTORS
330
C
102
}
330
C
100
AcDbDictionary
281
     1
  0
ACDBDICTIONARYWDFLT
  5
E
102
{ACAD_REACTORS
330
C
102
}
330
C
100
AcDbDictionary
281
     1
  3
Normal
350
F
100
AcDbDictionaryWithDefault
340
F
  0
DICTIONARY
  5
42
102
{ACAD_REACTORS
330
C
102
}
330
C
100
AcDbDictionary
281
     1
  3
A0
350
43
  3
A1
350
44
  3
A2
350
45
  3
A3
350
46
  3
A4
350
47
  3
A5
350
48
  3
A6
350
49
  3
A7
350
4A
  3
A8
350
4B
  3
A9
350
4C
  3
B0
350
4D
  3
B1
350
4E
  3
B2
350
4F
  3
B3
350
50
  3
B4
350
51
  3
B5
350
52
  3
B6
350
53
  0
DICTIONARY
  5
68
102
{ACAD_REACTORS
330
C
102
}
330
C
100
AcDbDictionary
281
     1
  3
Imperial24
350
69
  0
DICTIONARY
  5
64
102
{ACAD_REACTORS
330
C
102
}
330
C
100
AcDbDictionary
281
     1
  3
Standard
350
65
  0
DICTIONARY
  5
29
102
{ACAD_REACTORS
330
C
102
}
330
C
100
AcDbDictionary
281
     1
  3
2dWireframe
350
2F
  3
Basic
350
2E
  3
Brighten
350
35
  3
ColorChange
350
39
  3
Conceptual
350
32
  3
Dim
350
34
  3
EdgeColorOff
350
41
  3
Facepattern
350
38
  3
Flat
350
2A
  3
FlatWithEdges
350
2B
  3
Gouraud
350
2C
  3
GouraudWithEdges
350
2D
  3
Hidden
350
31
  3
JitterOff
350
3F
  3
Linepattern
350
37
  3
OverhangOff
350
40
  3
Realistic
350
33
  3
Shaded
350
3E
  3
Shaded with edges
350
3D
  3
Shades of Gray
350
3A
  3
Sketchy
350
3B
  3
Thicken
350
36
  3
Wireframe
350
30
  3
X-Ray
350
3C
  0
XRECORD
  5
234
102
{ACAD_REACTORS
330
C
102
}
330
C
100
AcDbXrecord
280
     1
 90
        1
330
65
  0
DICTIONARY
  5
7B
102
{ACAD_REACTORS
330
C
102
}
330
C
100
AcDbDictionary
281
     1
  3
CANNOSCALE
350
80
  3
CMLEADERSTYLE
350
7D
  3
CTABLESTYLE
350
7C
  3
CVIEWDETAILSTYLE
350
7E
  3
CVIEWSECTIONSTYLE
350
7F
  0
DICTIONARY
  5
228
102
{ACAD_REACTORS
330
C
102
}
330
C
100
AcDbDictionary
281
     1
  3
DRAWING_TOOL
350
22F
  3
REVIT_CATEGORY_MAPPING
350
22D
  3
REVIT_GET_SITE
350
229
  3
REVIT_SUB_CATEGORY_MAPPING
350
22E
  3
REVIT_TYPE_MAPPING
350
22C
  0
SORTENTSTABLE
  5
231
102
{ACAD_REACTORS
330
230
102
}
330
230
100
AcDbSortentsTable
330
70
  0
ACDBDETAILVIEWSTYLE
  5
6B
102
{ACAD_REACTORS
330
6A
102
}
330
6A
100
AcDbModelDocViewStyle
 70
     0
  3
Imperial24
290
     1
300
Imperial24
 90
        0
100
AcDbDetailViewStyle
 70
     0
 71
     0
 90
        3
 71
     1
340
55
 62
   256
 40
0.24
340
0
 62
   256
 40
0.24
300

 40
0.36
280
     3
 71
     2
340
5D
 90
       25
 62
   256
 71
     3
340
55
 62
   256
 40
0.24
 90
        1
 40
0.75
 90
        1
300
%<\AcVar ViewType \f "%tc1">% %<\AcVar ViewDetailId>%\PSCALE %<\AcVar ViewScale \f "%sn">%
 71
     4
340
5D
 90
       25
 62
   256
340
5D
 90
       25
 62
   256
280
     0
  0
LAYOUT
  5
6F
102
{ACAD_REACTORS
330
62
102
}
330
62
100
AcDbPlotSettings
  1

  2

  4

  6

 40
0.0
 41
0.0
 42
0.0
 43
0.0
 44
0.0
 45
0.0
 46
0.0
 47
0.0
 48
0.0
 49
0.0
140
0.0
141
0.0
142
1.0
143
1.0
 70
   688
 72
     0
 73
     0
 74
     5
  7

 75
    16
147
1.0
 76
     0
 77
     2
 78
   300
148
0.0
149
0.0
100
AcDbLayout
  1
Layout1
 70
     1
 71
     1
 10
0.0
 20
0.0
 11
12.0
 21
9.0
 12
0.0
 22
0.0
 32
0.0
 14
0.0
 24
0.0
 34
0.0
 15
0.0
 25
0.0
 35
0.0
146
0.0
 13
0.0
 23
0.0
 33
0.0
 16
1.0
 26
0.0
 36
0.0
 17
0.0
 27
1.0
 37
0.0
 76
     0
330
6C
  0
LAYOUT
  5
77
102
{ACAD_REACTORS
330
62
102
}
330
62
100
AcDbPlotSettings
  1

  2

  4

  6

 40
0.0
 41
0.0
 42
0.0
 43
0.0
 44
0.0
 45
0.0
 46
0.0
 47
0.0
 48
0.0
 49
0.0
140
0.0
141
0.0
142
1.0
143
1.0
 70
   688
 72
     0
 73
     0
 74
     5
  7

 75
    16
147
1.0
 76
     0
 77
     2
 78
   300
148
0.0
149
0.0
100
AcDbLayout
  1
Layout2
 70
     1
 71
     2
 10
0.0
 20
0.0
 11
12.0
 21
9.0
 12
0.0
 22
0.0
 32
0.0
 14
0.0
 24
0.0
 34
0.0
 15
0.0
 25
0.0
 35
0.0
146
0.0
 13
0.0
 23
0.0
 33
0.0
 16
1.0
 26
0.0
 36
0.0
 17
0.0
 27
1.0
 37
0.0
 76
     0
330
74
  0
LAYOUT
  5
73
102
{ACAD_REACTORS
330
62
102
}
330
62
100
AcDbPlotSettings
  1

  2

  4

  6

 40
0.0
 41
0.0
 42
0.0
 43
0.0
 44
0.0
 45
0.0
 46
0.0
 47
0.0
 48
0.0
 49
0.0
140
0.0
141
0.0
142
1.0
143
1.0
 70
  1712
 72
     0
 73
     0
 74
     0
  7

 75
     0
147
1.0
 76
     0
 77
     2
 78
   300
148
0.0
149
0.0
100
AcDbLayout
  1
Model
 70
     1
 71
     0
 10
0.0
 20
0.0
 11
12.0
 21
9.0
 12
0.0
 22
0.0
 32
0.0
 14
0.0
 24
0.0
 34
0.0
 15
0.0
 25
0.0
 35
0.0
146
0.0
 13
0.0
 23
0.0
 33
0.0
 16
1.0
 26
0.0
 36
0.0
 17
0.0
 27
1.0
 37
0.0
 76
     0
330
70
  0
MATERIAL
  5
19
102
{ACAD_XDICTIONARY
360
1A
102
}
102
{ACAD_REACTORS
330
10
102
}
330
10
100
AcDbMaterial
  1
ByBlock
 72
     0
 43
0.0208333333333333
 43
0.0
 43
0.0
 43
0.0
 43
0.0
 43
0.0208333333333333
 43
0.0
 43
0.0
 43
0.0
 43
0.0
 43
1.0
 43
0.0
 43
0.0
 43
0.0
 43
0.0
 43
1.0
 77
     0
 47
0.0208333333333333
 47
0.0
 47
0.0
 47
0.0
 47
0.0
 47
0.0208333333333333
 47
0.0
 47
0.0
 47
0.0
 47
0.0
 47
1.0
 47
0.0
 47
0.0
 47
0.0
 47
0.0
 47
1.0
171
     0
 49
0.0208333333333333
 49
0.0
 49
0.0
 49
0.0
 49
0.0
 49
0.0208333333333333
 49
0.0
 49
0.0
 49
0.0
 49
0.0
 49
1.0
 49
0.0
 49
0.0
 49
0.0
 49
0.0
 49
1.0
175
     0
142
0.0208333333333333
142
0.0
142
0.0
142
0.0
142
0.0
142
0.0208333333333333
142
0.0
142
0.0
142
0.0
142
0.0
142
1.0
142
0.0
142
0.0
142
0.0
142
0.0
142
1.0
179
     0
144
0.0208333333333333
144
0.0
144
0.0
144
0.0
144
0.0
144
0.0208333333333333
144
0.0
144
0.0
144
0.0
144
0.0
144
1.0
144
0.0
144
0.0
144
0.0
144
0.0
144
1.0
147
0.0208333333333333
147
0.0
147
0.0
147
0.0
147
0.0
147
0.0208333333333333
147
0.0
147
0.0
147
0.0
147
0.0
147
1.0
147
0.0
147
0.0
147
0.0
147
0.0
147
1.0
  0
MATERIAL
  5
11
102
{ACAD_XDICTIONARY
360
12
102
}
102
{ACAD_REACTORS
330
10
102
}
330
10
100
AcDbMaterial
  1
ByLayer
 72
     0
 43
0.0208333333333333
 43
0.0
 43
0.0
 43
0.0
 43
0.0
 43
0.0208333333333333
 43
0.0
 43
0.0
 43
0.0
 43
0.0
 43
1.0
 43
0.0
 43
0.0
 43
0.0
 43
0.0
 43
1.0
 77
     0
 47
0.0208333333333333
 47
0.0
 47
0.0
 47
0.0
 47
0.0
 47
0.0208333333333333
 47
0.0
 47
0.0
 47
0.0
 47
0.0
 47
1.0
 47
0.0
 47
0.0
 47
0.0
 47
0.0
 47
1.0
171
     0
 49
0.0208333333333333
 49
0.0
 49
0.0
 49
0.0
 49
0.0
 49
0.0208333333333333
 49
0.0
 49
0.0
 49
0.0
 49
0.0
 49
1.0
 49
0.0
 49
0.0
 49
0.0
 49
0.0
 49
1.0
175
     0
142
0.0208333333333333
142
0.0
142
0.0
142
0.0
142
0.0
142
0.0208333333333333
142
0.0
142
0.0
142
0.0
142
0.0
142
1.0
142
0.0
142
0.0
142
0.0
142
0.0
142
1.0
179
     0
144
0.0208333333333333
144
0.0
144
0.0
144
0.0
144
0.0
144
0.0208333333333333
144
0.0
144
0.0
144
0.0
144
0.0
144
1.0
144
0.0
144
0.0
144
0.0
144
0.0
144
1.0
147
0.0208333333333333
147
0.0
147
0.0
147
0.0
147
0.0
147
0.0208333333333333
147
0.0
147
0.0
147
0.0
147
0.0
147
1.0
147
0.0
147
0.0
147
0.0
147
0.0
147
1.0
  0
MATERIAL
  5
21
102
{ACAD_XDICTIONARY
360
22
102
}
102
{ACAD_REACTORS
330
10
102
}
330
10
100
AcDbMaterial
  1
Global
 72
     0
 43
0.0208333333333333
 43
0.0
 43
0.0
 43
0.0
 43
0.0
 43
0.0208333333333333
 43
0.0
 43
0.0
 43
0.0
 43
0.0
 43
1.0
 43
0.0
 43
0.0
 43
0.0
 43
0.0
 43
1.0
 77
     0
 47
0.0208333333333333
 47
0.0
 47
0.0
 47
0.0
 47
0.0
 47
0.0208333333333333
 47
0.0
 47
0.0
 47
0.0
 47
0.0
 47
1.0
 47
0.0
 47
0.0
 47
0.0
 47
0.0
 47
1.0
171
     0
 49
0.0208333333333333
 49
0.0
 49
0.0
 49
0.0
 49
0.0
 49
0.0208333333333333
 49
0.0
 49
0.0
 49
0.0
 49
0.0
 49
1.0
 49
0.0
 49
0.0
 49
0.0
 49
0.0
 49
1.0
175
     0
142
0.0208333333333333
142
0.0
142
0.0
142
0.0
142
0.0
142
0.0208333333333333
142
0.0
142
0.0
142
0.0
142
0.0
142
1.0
142
0.0
142
0.0
142
0.0
142
0.0
142
1.0
179
     0
144
0.0208333333333333
144
0.0
144
0.0
144
0.0
144
0.0
144
0.0208333333333333
144
0.0
144
0.0
144
0.0
144
0.0
144
1.0
144
0.0
144
0.0
144
0.0
144
0.0
144
1.0
147
0.0208333333333333
147
0.0
147
0.0
147
0.0
147
0.0
147
0.0208333333333333
147
0.0
147
0.0
147
0.0
147
0.0
147
1.0
147
0.0
147
0.0
147
0.0
147
0.0
147
1.0
  0
MLEADERSTYLE
  5
67
102
{ACAD_REACTORS
330
66
102
}
330
66
100
AcDbMLeaderStyle
179
     2
170
     2
171
     1
172
     0
 90
        2
 40
0.0
 41
0.0
173
     1
 91
-1056964608
340
5B
 92
       -2
290
     1
 42
0.09
291
     1
 43
0.36
  3
Standard
 44
0.18
300

342
55
174
     1
178
     6
175
     1
176
     0
 93
-1056964608
 45
0.18
292
     0
297
     0
 46
0.18
 94
-1056964608
 47
1.0
 49
1.0
140
1.0
293
     1
141
0.0
294
     1
177
     0
142
1.0
295
     1
296
     0
143
0.125
271
     0
272
     9
273
     9
298
     1
  0
MLINESTYLE
  5
60
102
{ACAD_REACTORS
330
5F
102
}
330
5F
100
AcDbMlineStyle
  2
STANDARD
 70
     0
  3

 62
   256
 51
90.0
 52
90.0
 71
     2
 49
0.5
 62
   256
  6
BYLAYER
 49
-0.5
 62
   256
  6
BYLAYER
  0
ACDBPLACEHOLDER
  5
F
102
{ACAD_REACTORS
330
E
102
}
330
E
  0
SCALE
  5
43
102
{ACAD_REACTORS
330
42
102
}
330
42
100
AcDbScale
 70
     0
300
1:1
140
1.0
141
1.0
290
     1
  0
SCALE
  5
44
102
{ACAD_REACTORS
330
42
102
}
330
42
100
AcDbScale
 70
     0
300
1/128" = 1'-0"
140
0.0078125
141
12.0
290
     0
  0
SCALE
  5
45
102
{ACAD_REACTORS
330
42
102
}
330
42
100
AcDbScale
 70
     0
300
1/64" = 1'-0"
140
0.015625
141
12.0
290
     0
  0
SCALE
  5
46
102
{ACAD_REACTORS
330
42
102
}
330
42
100
AcDbScale
 70
     0
300
1/32" = 1'-0"
140
0.03125
141
12.0
290
     0
  0
SCALE
  5
47
102
{ACAD_REACTORS
330
42
102
}
330
42
100
AcDbScale
 70
     0
300
1/16" = 1'-0"
140
0.0625
141
12.0
290
     0
  0
SCALE
  5
48
102
{ACAD_REACTORS
330
42
102
}
330
42
100
AcDbScale
 70
     0
300
3/32" = 1'-0"
140
0.09375
141
12.0
290
     0
  0
SCALE
  5
49
102
{ACAD_REACTORS
330
42
102
}
330
42
100
AcDbScale
 70
     0
300
1/8" = 1'-0"
140
0.125
141
12.0
290
     0
  0
SCALE
  5
4A
102
{ACAD_REACTORS
330
42
102
}
330
42
100
AcDbScale
 70
     0
300
3/16" = 1'-0"
140
0.1875
141
12.0
290
     0
  0
SCALE
  5
4B
102
{ACAD_REACTORS
330
42
102
}
330
42
100
AcDbScale
 70
     0
300
1/4" = 1'-0"
140
0.25
141
12.0
290
     0
  0
SCALE
  5
4C
102
{ACAD_REACTORS
330
42
102
}
330
42
100
AcDbScale
 70
     0
300
3/8" = 1'-0"
140
0.375
141
12.0
290
     0
  0
SCALE
  5
4D
102
{ACAD_REACTORS
330
42
102
}
330
42
100
AcDbScale
 70
     0
300
1/2" = 1'-0"
140
0.5
141
12.0
290
     0
  0
SCALE
  5
4E
102
{ACAD_REACTORS
330
42
102
}
330
42
100
AcDbScale
 70
     0
300
3/4" = 1'-0"
140
0.75
141
12.0
290
     0
  0
SCALE
  5
4F
102
{ACAD_REACTORS
330
42
102
}
330
42
100
AcDbScale
 70
     0
300
1" = 1'-0"
140
1.0
141
12.0
290
     0
  0
SCALE
  5
50
102
{ACAD_REACTORS
330
42
102
}
330
42
100
AcDbScale
 70
     0
300
1-1/2" = 1'-0"
140
1.5
141
12.0
290
     0
  0
SCALE
  5
51
102
{ACAD_REACTORS
330
42
102
}
330
42
100
AcDbScale
 70
     0
300
3" = 1'-0"
140
3.0
141
12.0
290
     0
  0
SCALE
  5
52
102
{ACAD_REACTORS
330
42
102
}
330
42
100
AcDbScale
 70
     0
300
6" = 1'-0"
140
6.0
141
12.0
290
     0
  0
SCALE
  5
53
102
{ACAD_REACTORS
330
42
102
}
330
42
100
AcDbScale
 70
     0
300
1'-0" = 1'-0"
140
12.0
141
12.0
290
     0
  0
ACDBSECTIONVIEWSTYLE
  5
69
102
{ACAD_REACTORS
330
68
102
}
330
68
100
AcDbModelDocViewStyle
 70
     0
  3
Imperial24
290
     1
300
Imperial24
 90
        0
100
AcDbSectionViewStyle
 70
     0
 71
     0
 90
       78
 71
     1
340
55
 62
   256
 40
0.24
340
0
340
0
 62
   256
 40
0.24
300
I, O, Q, S, X, Z
 40
0.48
 90
        3
 40
0.18
 90
        1
 71
     2
340
5D
 90
       25
 62
   256
340
5D
 90
       50
 62
   256
 40
0.24
 40
0.0
 40
0.24
 71
     3
340
55
 62
   256
 40
0.24
 90
        1
 40
0.75
 90
        1
300
%<\AcVar ViewType \f "%tc1">% %<\AcVar ViewSectionStartId>%-%<\AcVar ViewSectionEndId>%\PSCALE %<\AcVar ViewScale \f "%sn">%
 71
     4
 62
   256
 62
   257
300
ANSI31
 40
1.0
 90
        0
290
     0
290
     0
 90
        6
 40
0.0
 40
1.570796326794896
 40
0.2617993877991494
 40
1.308996938995747
 40
-0.2617993877991494
 40
1.832595714594046
  0
TABLESTYLE
  5
65
102
{ACAD_XDICTIONARY
360
232
102
}
102
{ACAD_REACTORS
330
64
102
}
330
64
100
AcDbTableStyle
280
     0
  3
Standard
 70
     0
 71
     0
 40
0.06
 41
0.06
280
     0
281
     0
  7
Standard
140
0.18
170
     2
 62
     0
 63
     7
283
     0
 90
      512
 91
        0
  1

274
    -2
284
     1
 64
     0
275
    -2
285
     1
 65
     0
276
    -2
286
     1
 66
     0
277
    -2
287
     1
 67
     0
278
    -2
288
     1
 68
     0
279
    -2
289
     1
 69
     0
  7
Standard
140
0.25
170
     5
 62
     0
 63
     7
283
     0
 90
      512
 91
        0
  1

274
    -2
284
     1
 64
     0
275
    -2
285
     1
 65
     0
276
    -2
286
     1
 66
     0
277
    -2
287
     1
 67
     0
278
    -2
288
     1
 68
     0
279
    -2
289
     1
 69
     0
  7
Standard
140
0.18
170
     5
 62
     0
 63
     7
283
     0
 90
      512
 91
        0
  1

274
    -2
284
     1
 64
     0
275
    -2
285
     1
 65
     0
276
    -2
286
     1
 66
     0
277
    -2
287
     1
 67
     0
278
    -2
288
     1
 68
     0
279
    -2
289
     1
 69
     0
  0
VISUALSTYLE
  5
2F
102
{ACAD_REACTORS
330
29
102
}
330
29
100
AcDbVisualStyle
  2
2dWireframe
 70
     4
177
     3
291
     0
 70
    58
 90
        0
176
     1
 90
        2
176
     1
 90
        0
176
     1
 90
        0
176
     1
 40
0.6
176
     1
 40
30.0
176
     1
 62
     7
420
 16777215
176
     1
 90
        1
176
     1
 90
        4
176
     1
 62
     7
176
     1
 62
   257
176
     1
 90
        1
176
     1
 90
        1
176
     1
 40
1.0
176
     1
 90
        0
176
     1
 62
   257
176
     1
 40
1.0
176
     1
 90
        1
176
     1
 90
        6
176
     1
 90
        2
176
     1
 62
     7
176
     1
 90
        5
176
     1
 90
        0
176
     1
 90
        0
176
     1
290
     0
176
     1
 90
        1
176
     1
 40
0.0
176
     1
 90
        0
176
     1
290
     1
176
     1
290
     1
176
     1
290
     0
176
     1
290
     0
176
     1
290
     0
176
     1
290
     0
176
     1
290
     0
176
     1
290
     0
176
     1
290
     0
176
     1
 90
       50
176
     1
 40
0.0
176
     1
 40
1.0
176
     1
 90
        0
176
     1
 62
    18
420
        0
176
     1
 90
       50
176
     1
 90
        3
176
     1
 62
     5
420
      255
176
     1
290
     0
176
     1
 90
       50
176
     1
 90
       50
176
     1
 90
       50
176
     1
290
     0
176
     1
 90
       50
176
     1
 62
   256
176
     0
 40
1.0
176
     0
 90
        2
176
     1
  1
strokes_ogs.tif
176
     1
290
     0
176
     1
 40
1.0
176
     1
 40
1.0
176
     1
  0
VISUALSTYLE
  5
2E
102
{ACAD_REACTORS
330
29
102
}
330
29
100
AcDbVisualStyle
  2
Basic
 70
     7
177
     3
291
     1
 70
    58
 90
        1
176
     1
 90
        0
176
     1
 90
        1
176
     1
 90
        0
176
     1
 40
0.6
176
     1
 40
30.0
176
     1
 62
     7
420
 16777215
176
     1
 90
        0
176
     1
 90
        4
176
     1
 62
     7
176
     1
 62
   257
176
     1
 90
        1
176
     1
 90
        1
176
     1
 40
1.0
176
     1
 90
        8
176
     1
 62
     7
176
     1
 40
1.0
176
     1
 90
        1
176
     1
 90
        6
176
     1
 90
        2
176
     1
 62
     7
176
     1
 90
        5
176
     1
 90
        0
176
     1
 90
        0
176
     1
290
     0
176
     1
 90
        1
176
     1
 40
0.0
176
     1
 90
        0
176
     1
290
     0
176
     1
290
     1
176
     1
290
     1
176
     1
290
     0
176
     1
290
     0
176
     1
290
     0
176
     1
290
     0
176
     1
290
     0
176
     1
290
     0
176
     1
 90
       50
176
     1
 40
0.0
176
     1
 40
1.0
176
     1
 90
        0
176
     1
 62
    18
420
        0
176
     1
 90
       50
176
     1
 90
        3
176
     1
 62
     5
420
      255
176
     1
290
     0
176
     1
 90
       50
176
     1
 90
       50
176
     1
 90
       50
176
     1
290
     0
176
     1
 90
       50
176
     1
 62
   256
176
     0
 40
1.0
176
     0
 90
        2
176
     1
  1
strokes_ogs.tif
176
     1
290
     0
176
     1
 40
1.0
176
     1
 40
1.0
176
     1
  0
VISUALSTYLE
  5
35
102
{ACAD_REACTORS
330
29
102
}
330
29
100
AcDbVisualStyle
  2
Brighten
 70
    12
177
     3
291
     1
 70
    58
 90
        2
176
     1
 90
        2
176
     1
 90
        0
176
     1
 90
        0
176
     1
 40
0.6
176
     1
 40
30.0
176
     1
 62
     7
420
 16777215
176
     1
 90
        1
176
     1
 90
        4
176
     1
 62
     7
176
     1
 62
   257
176
     1
 90
        1
176
     1
 90
        1
176
     1
 40
1.0
176
     1
 90
        8
176
     1
 62
     7
176
     1
 40
1.0
176
     1
 90
        1
176
     1
 90
        6
176
     1
 90
        2
176
     1
 62
     7
176
     1
 90
        5
176
     1
 90
        0
176
     1
 90
        0
176
     1
290
     0
176
     1
 90
        1
176
     1
 40
50.0
176
     1
 90
        0
176
     1
290
     0
176
     1
290
     1
176
     1
290
     1
176
     1
290
     0
176
     1
290
     0
176
     1
290
     0
176
     1
290
     0
176
     1
290
     0
176
     1
290
     0
176
     1
 90
       50
176
     1
 40
0.0
176
     1
 40
1.0
176
     1
 90
        0
176
     1
 62
    18
420
        0
176
     1
 90
       50
176
     1
 90
        3
176
     1
 62
     5
420
      255
176
     1
290
     0
176
     1
 90
       50
176
     1
 90
       50
176
     1
 90
       50
176
     1
290
     0
176
     1
 90
       50
176
     1
 62
   256
176
     0
 40
1.0
176
     0
 90
        2
176
     1
  1
strokes_ogs.tif
176
     1
290
     0
176
     1
 40
1.0
176
     1
 40
1.0
176
     1
  0
VISUALSTYLE
  5
39
102
{ACAD_REACTORS
330
29
102
}
330
29
100
AcDbVisualStyle
  2
ColorChange
 70
    16
177
     3
291
     1
 70
    58
 90
        2
176
     1
 90
        2
176
     1
 90
        3
176
     1
 90
        0
176
     1
 40
0.6
176
     1
 40
30.0
176
     1
 62
     8
420
  8421504
176
     1
 90
        1
176
     1
 90
        4
176
     1
 62
     7
176
     1
 62
   257
176
     1
 90
        1
176
     1
 90
        1
176
     1
 40
1.0
176
     1
 90
        8
176
     1
 62
     8
420
  8421504
176
     1
 40
1.0
176
     1
 90
        1
176
     1
 90
        6
176
     1
 90
        2
176
     1
 62
     7
176
     1
 90
        5
176
     1
 90
        0
176
     1
 90
        0
176
     1
290
     0
176
     1
 90
        1
176
     1
 40
0.0
176
     1
 90
        0
176
     1
290
     0
176
     1
290
     1
176
     1
290
     1
176
     1
290
     0
176
     1
290
     0
176
     1
290
     0
176
     1
290
     0
176
     1
290
     0
176
     1
290
     0
176
     1
 90
       50
176
     1
 40
0.0
176
     1
 40
1.0
176
     1
 90
        0
176
     1
 62
    18
420
        0
176
     1
 90
       50
176
     1
 90
        3
176
     1
 62
     5
420
      255
176
     1
290
     0
176
     1
 90
       50
176
     1
 90
       50
176
     1
 90
       50
176
     1
290
     0
176
     1
 90
       50
176
     1
 62
   256
176
     0
 40
1.0
176
     0
 90
        2
176
     1
  1
strokes_ogs.tif
176
     1
290
     0
176
     1
 40
1.0
176
     1
 40
1.0
176
     1
  0
VISUALSTYLE
  5
32
102
{ACAD_REACTORS
330
29
102
}
330
29
100
AcDbVisualStyle
  2
Conceptual
 70
     9
177
     3
291
     0
 70
    58
 90
        3
176
     1
 90
        2
176
     1
 90
        0
176
     1
 90
        0
176
     1
 40
0.6
176
     1
 40
30.0
176
     1
 62
     7
420
 16777215
176
     1
 90
        2
176
     1
 90
        2
176
     1
 62
     7
176
     1
 62
   257
176
     1
 90
        1
176
     1
 90
        1
176
     1
 40
179.0
176
     1
 90
        8
176
     1
 62
     7
176
     1
 40
1.0
176
     1
 90
        1
176
     1
 90
        6
176
     1
 90
        2
176
     1
 62
     7
176
     1
 90
        3
176
     1
 90
        0
176
     1
 90
        0
176
     1
290
     0
176
     1
 90
        1
176
     1
 40
0.0
176
     1
 90
        0
176
     1
290
     0
176
     1
290
     1
176
     1
290
     1
176
     1
290
     0
176
     1
290
     0
176
     1
290
     0
176
     1
290
     0
176
     1
290
     0
176
     1
290
     0
176
     1
 90
       50
176
     1
 40
0.0
176
     1
 40
1.0
176
     1
 90
        0
176
     1
 62
    18
420
        0
176
     1
 90
       50
176
     1
 90
        3
176
     1
 62
     5
420
      255
176
     1
290
     0
176
     1
 90
       50
176
     1
 90
       50
176
     1
 90
       50
176
     1
290
     0
176
     1
 90
       50
176
     1
 62
   256
176
     0
 40
1.0
176
     0
 90
        2
176
     1
  1
strokes_ogs.tif
176
     1
290
     0
176
     1
 40
1.0
176
     1
 40
1.0
176
     1
  0
VISUALSTYLE
  5
34
102
{ACAD_REACTORS
330
29
102
}
330
29
100
AcDbVisualStyle
  2
Dim
 70
    11
177
     3
291
     1
 70
    58
 90
        2
176
     1
 90
        2
176
     1
 90
        0
176
     1
 90
        0
176
     1
 40
0.6
176
     1
 40
30.0
176
     1
 62
     7
420
 16777215
176
     1
 90
        1
176
     1
 90
        4
176
     1
 62
     7
176
     1
 62
   257
176
     1
 90
        1
176
     1
 90
        1
176
     1
 40
1.0
176
     1
 90
        8
176
     1
 62
     7
176
     1
 40
1.0
176
     1
 90
        1
176
     1
 90
        6
176
     1
 90
        2
176
     1
 62
     7
176
     1
 90
        5
176
     1
 90
        0
176
     1
 90
        0
176
     1
290
     0
176
     1
 90
        1
176
     1
 40
-50.0
176
     1
 90
        0
176
     1
290
     0
176
     1
290
     1
176
     1
290
     1
176
     1
290
     0
176
     1
290
     0
176
     1
290
     0
176
     1
290
     0
176
     1
290
     0
176
     1
290
     0
176
     1
 90
       50
176
     1
 40
0.0
176
     1
 40
1.0
176
     1
 90
        0
176
     1
 62
    18
420
        0
176
     1
 90
       50
176
     1
 90
        3
176
     1
 62
     5
420
      255
176
     1
290
     0
176
     1
 90
       50
176
     1
 90
       50
176
     1
 90
       50
176
     1
290
     0
176
     1
 90
       50
176
     1
 62
   256
176
     0
 40
1.0
176
     0
 90
        2
176
     1
  1
strokes_ogs.tif
176
     1
290
     0
176
     1
 40
1.0
176
     1
 40
1.0
176
     1
  0
VISUALSTYLE
  5
41
102
{ACAD_REACTORS
330
29
102
}
330
29
100
AcDbVisualStyle
  2
EdgeColorOff
 70
    22
177
     3
291
     1
 70
    58
 90
        2
176
     0
 90
        2
176
     0
 90
        0
176
     0
 90
        0
176
     0
 40
0.6
176
     0
 40
30.0
176
     0
 62
     7
420
 16777215
176
     0
 90
        1
176
     0
 90
        4
176
     0
 62
     7
176
     0
 62
   257
176
     0
 90
        1
176
     0
 90
        1
176
     0
 40
1.0
176
     0
 90
        8
176
     2
 62
     7
176
     0
 40
1.0
176
     0
 90
        1
176
     0
 90
        6
176
     0
 90
        2
176
     0
 62
     7
176
     0
 90
        5
176
     0
 90
        0
176
     0
 90
        0
176
     0
290
     0
176
     0
 90
        1
176
     0
 40
0.0
176
     0
 90
        0
176
     0
290
     0
176
     0
290
     1
176
     0
290
     1
176
     0
290
     0
176
     0
290
     0
176
     0
290
     0
176
     0
290
     0
176
     0
290
     0
176
     0
290
     0
176
     0
 90
       50
176
     0
 40
0.0
176
     0
 40
1.0
176
     0
 90
        0
176
     0
 62
    18
420
        0
176
     0
 90
       50
176
     0
 90
        3
176
     0
 62
     5
420
      255
176
     0
290
     0
176
     0
 90
       50
176
     0
 90
       50
176
     0
 90
       50
176
     0
290
     0
176
     0
 90
       50
176
     0
 62
   256
176
     0
 40
1.0
176
     0
 90
        2
176
     0
  1
strokes_ogs.tif
176
     0
290
     0
176
     0
 40
1.0
176
     0
 40
1.0
176
     0
  0
VISUALSTYLE
  5
38
102
{ACAD_REACTORS
330
29
102
}
330
29
100
AcDbVisualStyle
  2
Facepattern
 70
    15
177
     3
291
     1
 70
    58
 90
        2
176
     1
 90
        2
176
     1
 90
        0
176
     1
 90
        0
176
     1
 40
0.6
176
     1
 40
30.0
176
     1
 62
     7
420
 16777215
176
     1
 90
        1
176
     1
 90
        4
176
     1
 62
     7
176
     1
 62
   257
176
     1
 90
        1
176
     1
 90
        1
176
     1
 40
1.0
176
     1
 90
        8
176
     1
 62
     7
176
     1
 40
1.0
176
     1
 90
        1
176
     1
 90
        6
176
     1
 90
        2
176
     1
 62
     7
176
     1
 90
        5
176
     1
 90
        0
176
     1
 90
        0
176
     1
290
     0
176
     1
 90
        1
176
     1
 40
0.0
176
     1
 90
        0
176
     1
290
     0
176
     1
290
     1
176
     1
290
     1
176
     1
290
     0
176
     1
290
     0
176
     1
290
     0
176
     1
290
     0
176
     1
290
     0
176
     1
290
     0
176
     1
 90
       50
176
     1
 40
0.0
176
     1
 40
1.0
176
     1
 90
        0
176
     1
 62
    18
420
        0
176
     1
 90
       50
176
     1
 90
        3
176
     1
 62
     5
420
      255
176
     1
290
     0
176
     1
 90
       50
176
     1
 90
       50
176
     1
 90
       50
176
     1
290
     0
176
     1
 90
       50
176
     1
 62
   256
176
     0
 40
1.0
176
     0
 90
        2
176
     1
  1
strokes_ogs.tif
176
     1
290
     0
176
     1
 40
1.0
176
     1
 40
1.0
176
     1
  0
VISUALSTYLE
  5
2A
102
{ACAD_REACTORS
330
29
102
}
330
29
100
AcDbVisualStyle
  2
Flat
 70
     0
177
     3
291
     1
 70
    58
 90
        2
176
     1
 90
        1
176
     1
 90
        1
176
     1
 90
        2
176
     1
 40
0.6
176
     1
 40
30.0
176
     1
 62
     7
420
 16777215
176
     1
 90
        0
176
     1
 90
        0
176
     1
 62
     7
176
     1
 62
   257
176
     1
 90
        1
176
     1
 90
        1
176
     1
 40
1.0
176
     1
 90
        8
176
     1
 62
     7
176
     1
 40
1.0
176
     1
 90
        1
176
     1
 90
        6
176
     1
 90
        2
176
     1
 62
     7
176
     1
 90
        5
176
     1
 90
        0
176
     1
 90
        0
176
     1
290
     0
176
     1
 90
       13
176
     1
 40
0.0
176
     1
 90
        0
176
     1
290
     0
176
     1
290
     1
176
     1
290
     1
176
     1
290
     0
176
     1
290
     0
176
     1
290
     0
176
     1
290
     0
176
     1
290
     0
176
     1
290
     0
176
     1
 90
       50
176
     1
 40
0.0
176
     1
 40
1.0
176
     1
 90
        0
176
     1
 62
    18
420
        0
176
     1
 90
       50
176
     1
 90
        3
176
     1
 62
     5
420
      255
176
     1
290
     0
176
     1
 90
       50
176
     1
 90
       50
176
     1
 90
       50
176
     1
290
     0
176
     1
 90
       50
176
     1
 62
   256
176
     0
 40
1.0
176
     0
 90
        2
176
     1
  1
strokes_ogs.tif
176
     1
290
     0
176
     1
 40
1.0
176
     1
 40
1.0
176
     1
  0
VISUALSTYLE
  5
2B
102
{ACAD_REACTORS
330
29
102
}
330
29
100
AcDbVisualStyle
  2
FlatWithEdges
 70
     1
177
     3
291
     1
 70
    58
 90
        2
176
     1
 90
        1
176
     1
 90
        1
176
     1
 90
        2
176
     1
 40
0.6
176
     1
 40
30.0
176
     1
 62
     7
420
 16777215
176
     1
 90
        1
176
     1
 90
        0
176
     1
 62
     7
176
     1
 62
   257
176
     1
 90
        1
176
     1
 90
        1
176
     1
 40
1.0
176
     1
 90
        0
176
     1
 62
   257
176
     1
 40
1.0
176
     1
 90
        1
176
     1
 90
        6
176
     1
 90
        2
176
     1
 62
     7
176
     1
 90
        5
176
     1
 90
        0
176
     1
 90
        0
176
     1
290
     0
176
     1
 90
       13
176
     1
 40
0.0
176
     1
 90
        0
176
     1
290
     0
176
     1
290
     1
176
     1
290
     1
176
     1
290
     0
176
     1
290
     0
176
     1
290
     0
176
     1
290
     0
176
     1
290
     0
176
     1
290
     0
176
     1
 90
       50
176
     1
 40
0.0
176
     1
 40
1.0
176
     1
 90
        0
176
     1
 62
    18
420
        0
176
     1
 90
       50
176
     1
 90
        3
176
     1
 62
     5
420
      255
176
     1
290
     0
176
     1
 90
       50
176
     1
 90
       50
176
     1
 90
       50
176
     1
290
     0
176
     1
 90
       50
176
     1
 62
   256
176
     0
 40
1.0
176
     0
 90
        2
176
     1
  1
strokes_ogs.tif
176
     1
290
     0
176
     1
 40
1.0
176
     1
 40
1.0
176
     1
  0
VISUALSTYLE
  5
2C
102
{ACAD_REACTORS
330
29
102
}
330
29
100
AcDbVisualStyle
  2
Gouraud
 70
     2
177
     3
291
     1
 70
    58
 90
        2
176
     1
 90
        2
176
     1
 90
        1
176
     1
 90
        2
176
     1
 40
0.6
176
     1
 40
30.0
176
     1
 62
     7
420
 16777215
176
     1
 90
        0
176
     1
 90
        0
176
     1
 62
     7
176
     1
 62
   257
176
     1
 90
        1
176
     1
 90
        1
176
     1
 40
1.0
176
     1
 90
        0
176
     1
 62
     7
176
     1
 40
1.0
176
     1
 90
        1
176
     1
 90
        6
176
     1
 90
        2
176
     1
 62
     7
176
     1
 90
        5
176
     1
 90
        0
176
     1
 90
        0
176
     1
290
     0
176
     1
 90
       13
176
     1
 40
0.0
176
     1
 90
        0
176
     1
290
     0
176
     1
290
     1
176
     1
290
     1
176
     1
290
     0
176
     1
290
     0
176
     1
290
     0
176
     1
290
     0
176
     1
290
     0
176
     1
290
     0
176
     1
 90
       50
176
     1
 40
0.0
176
     1
 40
1.0
176
     1
 90
        0
176
     1
 62
    18
420
        0
176
     1
 90
       50
176
     1
 90
        3
176
     1
 62
     5
420
      255
176
     1
290
     0
176
     1
 90
       50
176
     1
 90
       50
176
     1
 90
       50
176
     1
290
     0
176
     1
 90
       50
176
     1
 62
   256
176
     0
 40
1.0
176
     0
 90
        2
176
     1
  1
strokes_ogs.tif
176
     1
290
     0
176
     1
 40
1.0
176
     1
 40
1.0
176
     1
  0
VISUALSTYLE
  5
2D
102
{ACAD_REACTORS
330
29
102
}
330
29
100
AcDbVisualStyle
  2
GouraudWithEdges
 70
     3
177
     3
291
     1
 70
    58
 90
        2
176
     1
 90
        2
176
     1
 90
        1
176
     1
 90
        2
176
     1
 40
0.6
176
     1
 40
30.0
176
     1
 62
     7
420
 16777215
176
     1
 90
        1
176
     1
 90
        0
176
     1
 62
     7
176
     1
 62
   257
176
     1
 90
        1
176
     1
 90
        1
176
     1
 40
1.0
176
     1
 90
        0
176
     1
 62
   257
176
     1
 40
1.0
176
     1
 90
        1
176
     1
 90
        6
176
     1
 90
        2
176
     1
 62
     7
176
     1
 90
        5
176
     1
 90
        0
176
     1
 90
        0
176
     1
290
     0
176
     1
 90
       13
176
     1
 40
0.0
176
     1
 90
        0
176
     1
290
     0
176
     1
290
     1
176
     1
290
     1
176
     1
290
     0
176
     1
290
     0
176
     1
290
     0
176
     1
290
     0
176
     1
290
     0
176
     1
290
     0
176
     1
 90
       50
176
     1
 40
0.0
176
     1
 40
1.0
176
     1
 90
        0
176
     1
 62
    18
420
        0
176
     1
 90
       50
176
     1
 90
        3
176
     1
 62
     5
420
      255
176
     1
290
     0
176
     1
 90
       50
176
     1
 90
       50
176
     1
 90
       50
176
     1
290
     0
176
     1
 90
       50
176
     1
 62
   256
176
     0
 40
1.0
176
     0
 90
        2
176
     1
  1
strokes_ogs.tif
176
     1
290
     0
176
     1
 40
1.0
176
     1
 40
1.0
176
     1
  0
VISUALSTYLE
  5
31
102
{ACAD_REACTORS
330
29
102
}
330
29
100
AcDbVisualStyle
  2
Hidden
 70
     6
177
     3
291
     0
 70
    58
 90
        1
176
     1
 90
        2
176
     1
 90
        2
176
     1
 90
        0
176
     1
 40
0.6
176
     1
 40
30.0
176
     1
 62
     7
420
 16777215
176
     1
 90
        2
176
     1
 90
        2
176
     1
 62
     7
176
     1
 62
   257
176
     1
 90
        2
176
     1
 90
        1
176
     1
 40
40.0
176
     1
 90
        0
176
     1
 62
   257
176
     1
 40
1.0
176
     1
 90
        1
176
     1
 90
        6
176
     1
 90
        2
176
     1
 62
     7
176
     1
 90
        3
176
     1
 90
        0
176
     1
 90
        0
176
     1
290
     0
176
     1
 90
        1
176
     1
 40
0.0
176
     1
 90
        0
176
     1
290
     0
176
     1
290
     1
176
     1
290
     1
176
     1
290
     0
176
     1
290
     0
176
     1
290
     0
176
     1
290
     0
176
     1
290
     0
176
     1
290
     0
176
     1
 90
       50
176
     1
 40
0.0
176
     1
 40
1.0
176
     1
 90
        0
176
     1
 62
    18
420
        0
176
     1
 90
       50
176
     1
 90
        3
176
     1
 62
     5
420
      255
176
     1
290
     0
176
     1
 90
       50
176
     1
 90
       50
176
     1
 90
       50
176
     1
290
     0
176
     1
 90
       50
176
     1
 62
   256
176
     0
 40
1.0
176
     0
 90
        2
176
     1
  1
strokes_ogs.tif
176
     1
290
     0
176
     1
 40
1.0
176
     1
 40
1.0
176
     1
  0
VISUALSTYLE
  5
3F
102
{ACAD_REACTORS
330
29
102
}
330
29
100
AcDbVisualStyle
  2
JitterOff
 70
    20
177
     3
291
     1
 70
    58
 90
        2
176
     0
 90
        2
176
     0
 90
        0
176
     0
 90
        0
176
     0
 40
0.6
176
     0
 40
30.0
176
     0
 62
     7
420
 16777215
176
     0
 90
        1
176
     0
 90
        4
176
     0
 62
     7
176
     0
 62
   257
176
     0
 90
        1
176
     0
 90
        1
176
     0
 40
1.0
176
     0
 90
       10
176
     2
 62
     7
176
     0
 40
1.0
176
     0
 90
        1
176
     0
 90
        6
176
     0
 90
        2
176
     0
 62
     7
176
     0
 90
        5
176
     0
 90
        0
176
     0
 90
        0
176
     0
290
     0
176
     0
 90
        1
176
     0
 40
0.0
176
     0
 90
        0
176
     0
290
     0
176
     0
290
     1
176
     0
290
     1
176
     0
290
     0
176
     0
290
     0
176
     0
290
     0
176
     0
290
     0
176
     0
290
     0
176
     0
290
     0
176
     0
 90
       50
176
     0
 40
0.0
176
     0
 40
1.0
176
     0
 90
        0
176
     0
 62
    18
420
        0
176
     0
 90
       50
176
     0
 90
        3
176
     0
 62
     5
420
      255
176
     0
290
     0
176
     0
 90
       50
176
     0
 90
       50
176
     0
 90
       50
176
     0
290
     0
176
     0
 90
       50
176
     0
 62
   256
176
     0
 40
1.0
176
     0
 90
        2
176
     0
  1
strokes_ogs.tif
176
     0
290
     0
176
     0
 40
1.0
176
     0
 40
1.0
176
     0
  0
VISUALSTYLE
  5
37
102
{ACAD_REACTORS
330
29
102
}
330
29
100
AcDbVisualStyle
  2
Linepattern
 70
    14
177
     3
291
     1
 70
    58
 90
        2
176
     1
 90
        2
176
     1
 90
        0
176
     1
 90
        0
176
     1
 40
0.6
176
     1
 40
30.0
176
     1
 62
     7
420
 16777215
176
     1
 90
        1
176
     1
 90
        4
176
     1
 62
     7
176
     1
 62
   257
176
     1
 90
        7
176
     1
 90
        7
176
     1
 40
1.0
176
     1
 90
        8
176
     1
 62
     7
176
     1
 40
1.0
176
     1
 90
        1
176
     1
 90
        6
176
     1
 90
        2
176
     1
 62
     7
176
     1
 90
        5
176
     1
 90
        0
176
     1
 90
        0
176
     1
290
     0
176
     1
 90
        1
176
     1
 40
0.0
176
     1
 90
        0
176
     1
290
     0
176
     1
290
     1
176
     1
290
     1
176
     1
290
     0
176
     1
290
     0
176
     1
290
     0
176
     1
290
     0
176
     1
290
     0
176
     1
290
     0
176
     1
 90
       50
176
     1
 40
0.0
176
     1
 40
1.0
176
     1
 90
        0
176
     1
 62
    18
420
        0
176
     1
 90
       50
176
     1
 90
        3
176
     1
 62
     5
420
      255
176
     1
290
     0
176
     1
 90
       50
176
     1
 90
       50
176
     1
 90
       50
176
     1
290
     0
176
     1
 90
       50
176
     1
 62
   256
176
     0
 40
1.0
176
     0
 90
        2
176
     1
  1
strokes_ogs.tif
176
     1
290
     0
176
     1
 40
1.0
176
     1
 40
1.0
176
     1
  0
VISUALSTYLE
  5
40
102
{ACAD_REACTORS
330
29
102
}
330
29
100
AcDbVisualStyle
  2
OverhangOff
 70
    21
177
     3
291
     1
 70
    58
 90
        2
176
     0
 90
        2
176
     0
 90
        0
176
     0
 90
        0
176
     0
 40
0.6
176
     0
 40
30.0
176
     0
 62
     7
420
 16777215
176
     0
 90
        1
176
     0
 90
        4
176
     0
 62
     7
176
     0
 62
   257
176
     0
 90
        1
176
     0
 90
        1
176
     0
 40
1.0
176
     0
 90
        9
176
     2
 62
     7
176
     0
 40
1.0
176
     0
 90
        1
176
     0
 90
        6
176
     0
 90
        2
176
     0
 62
     7
176
     0
 90
        5
176
     0
 90
        0
176
     0
 90
        0
176
     0
290
     0
176
     0
 90
        1
176
     0
 40
0.0
176
     0
 90
        0
176
     0
290
     0
176
     0
290
     1
176
     0
290
     1
176
     0
290
     0
176
     0
290
     0
176
     0
290
     0
176
     0
290
     0
176
     0
290
     0
176
     0
290
     0
176
     0
 90
       50
176
     0
 40
0.0
176
     0
 40
1.0
176
     0
 90
        0
176
     0
 62
    18
420
        0
176
     0
 90
       50
176
     0
 90
        3
176
     0
 62
     5
420
      255
176
     0
290
     0
176
     0
 90
       50
176
     0
 90
       50
176
     0
 90
       50
176
     0
290
     0
176
     0
 90
       50
176
     0
 62
   256
176
     0
 40
1.0
176
     0
 90
        2
176
     0
  1
strokes_ogs.tif
176
     0
290
     0
176
     0
 40
1.0
176
     0
 40
1.0
176
     0
  0
VISUALSTYLE
  5
33
102
{ACAD_REACTORS
330
29
102
}
330
29
100
AcDbVisualStyle
  2
Realistic
 70
     8
177
     3
291
     0
 70
    58
 90
        2
176
     1
 90
        3
176
     1
 90
        0
176
     1
 90
        2
176
     1
 40
0.6
176
     1
 40
30.0
176
     1
 62
     7
420
 16777215
176
     1
 90
        0
176
     1
 90
        0
176
     1
 62
     7
176
     1
 62
   257
176
     1
 90
        1
176
     1
 90
        1
176
     1
 40
1.0
176
     1
 90
        8
176
     1
 62
   257
176
     1
 40
1.0
176
     1
 90
        1
176
     1
 90
        6
176
     1
 90
        2
176
     1
 62
     7
176
     1
 90
        3
176
     1
 90
        0
176
     1
 90
        0
176
     1
290
     0
176
     1
 90
       13
176
     1
 40
0.0
176
     1
 90
        0
176
     1
290
     0
176
     1
290
     1
176
     1
290
     1
176
     1
290
     0
176
     1
290
     0
176
     1
290
     0
176
     1
290
     0
176
     1
290
     0
176
     1
290
     0
176
     1
 90
       50
176
     1
 40
0.0
176
     1
 40
1.0
176
     1
 90
        0
176
     1
 62
    18
420
        0
176
     1
 90
       50
176
     1
 90
        3
176
     1
 62
     5
420
      255
176
     1
290
     0
176
     1
 90
       50
176
     1
 90
       50
176
     1
 90
       50
176
     1
290
     0
176
     1
 90
       50
176
     1
 62
   256
176
     0
 40
1.0
176
     0
 90
        2
176
     1
  1
strokes_ogs.tif
176
     1
290
     0
176
     1
 40
1.0
176
     1
 40
1.0
176
     1
  0
VISUALSTYLE
  5
3E
102
{ACAD_REACTORS
330
29
102
}
330
29
100
AcDbVisualStyle
  2
Shaded
 70
    27
177
     3
291
     0
 70
    58
 90
        2
176
     1
 90
        2
176
     1
 90
        1
176
     1
 90
        2
176
     1
 40
0.6
176
     1
 40
30.0
176
     1
 62
     7
420
 16777215
176
     1
 90
        0
176
     1
 90
        4
176
     1
 62
     7
176
     1
 62
   257
176
     1
 90
        1
176
     1
 90
        1
176
     1
 40
1.0
176
     1
 90
        8
176
     1
 62
   257
176
     1
 40
1.0
176
     1
 90
        1
176
     1
 90
        6
176
     1
 90
        2
176
     1
 62
     8
420
  7895160
176
     1
 90
        3
176
     1
 90
        0
176
     1
 90
        0
176
     1
290
     0
176
     1
 90
        5
176
     1
 40
0.0
176
     1
 90
        0
176
     1
290
     0
176
     1
290
     1
176
     1
290
     1
176
     1
290
     0
176
     1
290
     0
176
     1
290
     0
176
     1
290
     0
176
     1
290
     0
176
     1
290
     0
176
     1
 90
       50
176
     1
 40
0.0
176
     1
 40
1.0
176
     1
 90
        0
176
     1
 62
    18
420
        0
176
     1
 90
       50
176
     1
 90
        3
176
     1
 62
     5
420
      255
176
     1
290
     0
176
     1
 90
       50
176
     1
 90
       50
176
     1
 90
       50
176
     1
290
     0
176
     1
 90
       50
176
     1
 62
   256
176
     0
 40
1.0
176
     0
 90
        2
176
     1
  1
strokes_ogs.tif
176
     1
290
     0
176
     1
 40
1.0
176
     1
 40
1.0
176
     1
  0
VISUALSTYLE
  5
3D
102
{ACAD_REACTORS
330
29
102
}
330
29
100
AcDbVisualStyle
  2
Shaded with edges
 70
    26
177
     3
291
     0
 70
    58
 90
        2
176
     1
 90
        2
176
     1
 90
        1
176
     1
 90
        2
176
     1
 40
0.6
176
     1
 40
30.0
176
     1
 62
     7
420
 16777215
176
     1
 90
        1
176
     1
 90
        2
176
     1
 62
     7
176
     1
 62
   257
176
     1
 90
        2
176
     1
 90
        1
176
     1
 40
1.0
176
     1
 90
        8
176
     1
 62
   257
176
     1
 40
1.0
176
     1
 90
        1
176
     1
 90
        6
176
     1
 90
        2
176
     1
 62
     7
176
     1
 90
        3
176
     1
 90
        0
176
     1
 90
        0
176
     1
290
     0
176
     1
 90
        5
176
     1
 40
0.0
176
     1
 90
        0
176
     1
290
     0
176
     1
290
     1
176
     1
290
     1
176
     1
290
     0
176
     1
290
     0
176
     1
290
     0
176
     1
290
     0
176
     1
290
     0
176
     1
290
     0
176
     1
 90
       50
176
     1
 40
0.0
176
     1
 40
1.0
176
     1
 90
        0
176
     1
 62
    18
420
        0
176
     1
 90
       50
176
     1
 90
        3
176
     1
 62
     5
420
      255
176
     1
290
     0
176
     1
 90
       50
176
     1
 90
       50
176
     1
 90
       50
176
     1
290
     0
176
     1
 90
       50
176
     1
 62
   256
176
     0
 40
1.0
176
     0
 90
        2
176
     1
  1
strokes_ogs.tif
176
     1
290
     0
176
     1
 40
1.0
176
     1
 40
1.0
176
     1
  0
VISUALSTYLE
  5
3A
102
{ACAD_REACTORS
330
29
102
}
330
29
100
AcDbVisualStyle
  2
Shades of Gray
 70
    23
177
     3
291
     0
 70
    58
 90
        2
176
     1
 90
        2
176
     1
 90
        3
176
     1
 90
        0
176
     1
 40
0.6
176
     1
 40
30.0
176
     1
 62
     7
420
 16777215
176
     1
 90
        2
176
     1
 90
        2
176
     1
 62
     7
176
     1
 62
     7
176
     1
 90
        1
176
     1
 90
        1
176
     1
 40
40.0
176
     1
 90
        8
176
     1
 62
     7
176
     1
 40
1.0
176
     1
 90
        1
176
     1
 90
        6
176
     1
 90
        2
176
     1
 62
     7
176
     1
 90
        3
176
     1
 90
        0
176
     1
 90
        0
176
     1
290
     0
176
     1
 90
        1
176
     1
 40
0.0
176
     1
 90
        0
176
     1
290
     0
176
     1
290
     1
176
     1
290
     1
176
     1
290
     0
176
     1
290
     0
176
     1
290
     0
176
     1
290
     0
176
     1
290
     0
176
     1
290
     0
176
     1
 90
       50
176
     1
 40
0.0
176
     1
 40
1.0
176
     1
 90
        0
176
     1
 62
    18
420
        0
176
     1
 90
       50
176
     1
 90
        3
176
     1
 62
     5
420
      255
176
     1
290
     0
176
     1
 90
       50
176
     1
 90
       50
176
     1
 90
       50
176
     1
290
     0
176
     1
 90
       50
176
     1
 62
   256
176
     0
 40
1.0
176
     0
 90
        2
176
     1
  1
strokes_ogs.tif
176
     1
290
     0
176
     1
 40
1.0
176
     1
 40
1.0
176
     1
  0
VISUALSTYLE
  5
3B
102
{ACAD_REACTORS
330
29
102
}
330
29
100
AcDbVisualStyle
  2
Sketchy
 70
    24
177
     3
291
     0
 70
    58
 90
        1
176
     1
 90
        2
176
     1
 90
        2
176
     1
 90
        0
176
     1
 40
0.6
176
     1
 40
30.0
176
     1
 62
     7
420
 16777215
176
     1
 90
        2
176
     1
 90
        2
176
     1
 62
     7
176
     1
 62
     7
176
     1
 90
        1
176
     1
 90
        1
176
     1
 40
40.0
176
     1
 90
       11
176
     1
 62
     7
176
     1
 40
1.0
176
     1
 90
        1
176
     1
 90
        6
176
     1
 90
        2
176
     1
 62
     7
176
     1
 90
        6
176
     1
 90
        0
176
     1
 90
        0
176
     1
290
     0
176
     1
 90
        1
176
     1
 40
0.0
176
     1
 90
        0
176
     1
290
     0
176
     1
290
     1
176
     1
290
     1
176
     1
290
     0
176
     1
290
     0
176
     1
290
     0
176
     1
290
     0
176
     1
290
     0
176
     1
290
     0
176
     1
 90
       50
176
     1
 40
0.0
176
     1
 40
1.0
176
     1
 90
        0
176
     1
 62
    18
420
        0
176
     1
 90
       50
176
     1
 90
        3
176
     1
 62
     5
420
      255
176
     1
290
     0
176
     1
 90
       50
176
     1
 90
       50
176
     1
 90
       50
176
     1
290
     0
176
     1
 90
       50
176
     1
 62
   256
176
     0
 40
1.0
176
     0
 90
        2
176
     1
  1
strokes_ogs.tif
176
     1
290
     0
176
     1
 40
1.0
176
     1
 40
1.0
176
     1
  0
VISUALSTYLE
  5
36
102
{ACAD_REACTORS
330
29
102
}
330
29
100
AcDbVisualStyle
  2
Thicken
 70
    13
177
     3
291
     1
 70
    58
 90
        2
176
     1
 90
        2
176
     1
 90
        0
176
     1
 90
        0
176
     1
 40
0.6
176
     1
 40
30.0
176
     1
 62
     7
420
 16777215
176
     1
 90
        1
176
     1
 90
        4
176
     1
 62
     7
176
     1
 62
   257
176
     1
 90
        1
176
     1
 90
        1
176
     1
 40
1.0
176
     1
 90
       12
176
     1
 62
     7
176
     1
 40
1.0
176
     1
 90
        1
176
     1
 90
        6
176
     1
 90
        2
176
     1
 62
     7
176
     1
 90
        5
176
     1
 90
        0
176
     1
 90
        0
176
     1
290
     0
176
     1
 90
        1
176
     1
 40
0.0
176
     1
 90
        0
176
     1
290
     0
176
     1
290
     1
176
     1
290
     1
176
     1
290
     0
176
     1
290
     0
176
     1
290
     0
176
     1
290
     0
176
     1
290
     0
176
     1
290
     0
176
     1
 90
       50
176
     1
 40
0.0
176
     1
 40
1.0
176
     1
 90
        0
176
     1
 62
    18
420
        0
176
     1
 90
       50
176
     1
 90
        3
176
     1
 62
     5
420
      255
176
     1
290
     0
176
     1
 90
       50
176
     1
 90
       50
176
     1
 90
       50
176
     1
290
     0
176
     1
 90
       50
176
     1
 62
   256
176
     0
 40
1.0
176
     0
 90
        2
176
     1
  1
strokes_ogs.tif
176
     1
290
     0
176
     1
 40
1.0
176
     1
 40
1.0
176
     1
  0
VISUALSTYLE
  5
30
102
{ACAD_REACTORS
330
29
102
}
330
29
100
AcDbVisualStyle
  2
Wireframe
 70
     5
177
     3
291
     0
 70
    58
 90
        0
176
     1
 90
        2
176
     1
 90
        0
176
     1
 90
        0
176
     1
 40
0.6
176
     1
 40
30.0
176
     1
 62
     7
420
 16777215
176
     1
 90
        1
176
     1
 90
        4
176
     1
 62
     7
176
     1
 62
   257
176
     1
 90
        1
176
     1
 90
        1
176
     1
 40
1.0
176
     1
 90
        0
176
     1
 62
   257
176
     1
 40
1.0
176
     1
 90
        1
176
     1
 90
        6
176
     1
 90
        2
176
     1
 62
     7
176
     1
 90
        3
176
     1
 90
        0
176
     1
 90
        0
176
     1
290
     0
176
     1
 90
        1
176
     1
 40
0.0
176
     1
 90
        0
176
     1
290
     0
176
     1
290
     1
176
     1
290
     1
176
     1
290
     0
176
     1
290
     0
176
     1
290
     0
176
     1
290
     0
176
     1
290
     0
176
     1
290
     0
176
     1
 90
       50
176
     1
 40
0.0
176
     1
 40
1.0
176
     1
 90
        0
176
     1
 62
    18
420
        0
176
     1
 90
       50
176
     1
 90
        3
176
     1
 62
     5
420
      255
176
     1
290
     0
176
     1
 90
       50
176
     1
 90
       50
176
     1
 90
       50
176
     1
290
     0
176
     1
 90
       50
176
     1
 62
   256
176
     0
 40
1.0
176
     0
 90
        2
176
     1
  1
strokes_ogs.tif
176
     1
290
     0
176
     1
 40
1.0
176
     1
 40
1.0
176
     1
  0
VISUALSTYLE
  5
3C
102
{ACAD_REACTORS
330
29
102
}
330
29
100
AcDbVisualStyle
  2
X-Ray
 70
    25
177
     3
291
     0
 70
    58
 90
        2
176
     1
 90
        2
176
     1
 90
        1
176
     1
 90
        1
176
     1
 40
0.5
176
     1
 40
30.0
176
     1
 62
     7
420
 16777215
176
     1
 90
        1
176
     1
 90
        0
176
     1
 62
     7
176
     1
 62
   257
176
     1
 90
        1
176
     1
 90
        1
176
     1
 40
1.0
176
     1
 90
        8
176
     1
 62
     7
176
     1
 40
1.0
176
     1
 90
        1
176
     1
 90
        6
176
     1
 90
        2
176
     1
 62
     7
176
     1
 90
        3
176
     1
 90
        0
176
     1
 90
        0
176
     1
290
     0
176
     1
 90
       13
176
     1
 40
0.0
176
     1
 90
        0
176
     1
290
     0
176
     1
290
     1
176
     1
290
     1
176
     1
290
     0
176
     1
290
     0
176
     1
290
     0
176
     1
290
     0
176
     1
290
     0
176
     1
290
     0
176
     1
 90
       50
176
     1
 40
0.0
176
     1
 40
1.0
176
     1
 90
        0
176
     1
 62
    18
420
        0
176
     1
 90
       50
176
     1
 90
        3
176
     1
 62
     5
420
      255
176
     1
290
     0
176
     1
 90
       50
176
     1
 90
       50
176
     1
 90
       50
176
     1
290
     0
176
     1
 90
       50
176
     1
 62
   256
176
     0
 40
1.0
176
     0
 90
        2
176
     1
  1
strokes_ogs.tif
176
     1
290
     0
176
     1
 40
1.0
176
     1
 40
1.0
176
     1
  0
DICTIONARYVAR
  5
80
102
{ACAD_REACTORS
330
7B
102
}
330
7B
100
DictionaryVariables
280
     0
  1
1:1
  0
DICTIONARYVAR
  5
7D
102
{ACAD_REACTORS
330
7B
102
}
330
7B
100
DictionaryVariables
280
     0
  1
STANDARD
  0
DICTIONARYVAR
  5
7C
102
{ACAD_REACTORS
330
7B
102
}
330
7B
100
DictionaryVariables
280
     0
  1
STANDARD
  0
DICTIONARYVAR
  5
7E
102
{ACAD_REACTORS
330
7B
102
}
330
7B
100
DictionaryVariables
280
     0
  1
Imperial24
  0
DICTIONARYVAR
  5
7F
102
{ACAD_REACTORS
330
7B
102
}
330
7B
100
DictionaryVariables
280
     0
  1
Imperial24
  0
XRECORD
  5
22F
102
{ACAD_REACTORS
330
228
102
}
330
228
100
AcDbXrecord
280
     1
  1
BUILDING_ID
  1
686001_HCMFP_BroncHallMensResidence_A25_Rotated
  1
FLOOR_ID
  1
5226836
  0
XRECORD
  5
22D
102
{ACAD_REACTORS
330
228
102
}
330
228
100
AcDbXrecord
280
     1
  1
-2000011
  1
Walls
  1
-2000023
  1
Doors
  1
-2000120
  1
Stairs
  1
-2000126
  1
Railings
  0
XRECORD
  5
229
102
{ACAD_REACTORS
330
228
102
}
330
228
100
AcDbXrecord
280
     1
  1
2990baef-c3b5-4d89-ba92-b32cbcc96dea
  0
XRECORD
  5
22E
102
{ACAD_REACTORS
330
228
102
}
330
228
100
AcDbXrecord
280
     1
  1
-2000025
  1
Panel
  1
-2000029
  1
Frame/Mullion
  1
-2000128
  1
Rails
  1
-2000930
  1
Cut Marks
  1
-2000932
  1
Nosing Lines
  1
-2000934
  1
Outlines
  1
-2000952
  1
Supports
  1
636535
  1
Plan Swing
  0
XRECORD
  5
22C
102
{ACAD_REACTORS
330
228
102
}
330
228
100
AcDbXrecord
280
     1
  1
1969
  1
Railing : Railing 1
  1
4450563
  1
Door-Single(CE) : HM Door-2" HM Frame
  1
44989
  1
Assembled Stair : 7" max riser 11" tread
  1
639162
  1
Basic Wall : *Generic - 6" : *Generic - 6"
  1
639163
  1
Basic Wall : *Generic - 8" : *Generic - 8"
  1
639164
  1
Basic Wall : *Generic - 12" : *Generic - 12"
  0
DICTIONARY
  5
1A
330
19
100
AcDbDictionary
280
     1
281
     1
  3
BUMPTILE
360
1C
  3
DIFFUSETILE
360
1B
  3
OPACITYTILE
360
1F
  3
REFLECTIONTILE
360
1E
  3
REFRACTIONTILE
360
20
  3
SPECULARTILE
360
1D
  0
DICTIONARY
  5
12
330
11
100
AcDbDictionary
280
     1
281
     1
  3
BUMPTILE
360
14
  3
DIFFUSETILE
360
13
  3
OPACITYTILE
360
17
  3
REFLECTIONTILE
360
16
  3
REFRACTIONTILE
360
18
  3
SPECULARTILE
360
15
  0
DICTIONARY
  5
22
330
21
100
AcDbDictionary
280
     1
281
     1
  3
BUMPTILE
360
24
  3
DIFFUSETILE
360
23
  3
OPACITYTILE
360
27
  3
REFLECTIONTILE
360
26
  3
REFRACTIONTILE
360
28
  3
SPECULARTILE
360
25
  0
DICTIONARY
  5
232
330
65
100
AcDbDictionary
280
     1
281
     1
  3
ACAD_ROUNDTRIP_2008_TABLESTYLE_CELLSTYLEMAP
360
233
  0
XRECORD
  5
1C
102
{ACAD_REACTORS
330
1A
102
}
330
1A
100
AcDbXrecord
280
     1
270
     1
271
     1
  0
XRECORD
  5
1B
102
{ACAD_REACTORS
330
1A
102
}
330
1A
100
AcDbXrecord
280
     1
270
     1
271
     1
  0
XRECORD
  5
1F
102
{ACAD_REACTORS
330
1A
102
}
330
1A
100
AcDbXrecord
280
     1
270
     1
271
     1
  0
XRECORD
  5
1E
102
{ACAD_REACTORS
330
1A
102
}
330
1A
100
AcDbXrecord
280
     1
270
     1
271
     1
  0
XRECORD
  5
20
102
{ACAD_REACTORS
330
1A
102
}
330
1A
100
AcDbXrecord
280
     1
270
     1
271
     1
  0
XRECORD
  5
1D
102
{ACAD_REACTORS
330
1A
102
}
330
1A
100
AcDbXrecord
280
     1
270
     1
271
     1
  0
XRECORD
  5
14
102
{ACAD_REACTORS
330
12
102
}
330
12
100
AcDbXrecord
280
     1
270
     1
271
     1
  0
XRECORD
  5
13
102
{ACAD_REACTORS
330
12
102
}
330
12
100
AcDbXrecord
280
     1
270
     1
271
     1
  0
XRECORD
  5
17
102
{ACAD_REACTORS
330
12
102
}
330
12
100
AcDbXrecord
280
     1
270
     1
271
     1
  0
XRECORD
  5
16
102
{ACAD_REACTORS
330
12
102
}
330
12
100
AcDbXrecord
280
     1
270
     1
271
     1
  0
XRECORD
  5
18
102
{ACAD_REACTORS
330
12
102
}
330
12
100
AcDbXrecord
280
     1
270
     1
271
     1
  0
XRECORD
  5
15
102
{ACAD_REACTORS
330
12
102
}
330
12
100
AcDbXrecord
280
     1
270
     1
271
     1
  0
XRECORD
  5
24
102
{ACAD_REACTORS
330
22
102
}
330
22
100
AcDbXrecord
280
     1
270
     1
271
     1
  0
XRECORD
  5
23
102
{ACAD_REACTORS
330
22
102
}
330
22
100
AcDbXrecord
280
     1
270
     1
271
     1
  0
XRECORD
  5
27
102
{ACAD_REACTORS
330
22
102
}
330
22
100
AcDbXrecord
280
     1
270
     1
271
     1
  0
XRECORD
  5
26
102
{ACAD_REACTORS
330
22
102
}
330
22
100
AcDbXrecord
280
     1
270
     1
271
     1
  0
XRECORD
  5
28
102
{ACAD_REACTORS
330
22
102
}
330
22
100
AcDbXrecord
280
     1
270
     1
271
     1
  0
XRECORD
  5
25
102
{ACAD_REACTORS
330
22
102
}
330
22
100
AcDbXrecord
280
     1
270
     1
271
     1
  0
CELLSTYLEMAP
  5
233
102
{ACAD_REACTORS
330
232
102
}
330
232
100
AcDbCellStyleMap
 90
        3
300
CELLSTYLE
  1
TABLEFORMAT_BEGIN
 90
        5
170
     1
 91
        0
 92
    32768
 62
   257
 93
        1
300
CONTENTFORMAT
  1
CONTENTFORMAT_BEGIN
 90
        0
 91
        0
 92
      512
 93
        0
300

 40
0.0
140
1.0
 94
        5
 62
     0
340
55
144
0.25
309
CONTENTFORMAT_END
171
     0
 94
        0
309
TABLEFORMAT_END
  1
CELLSTYLE_BEGIN
 90
        1
 91
        1
300
_TITLE
309
CELLSTYLE_END
300
CELLSTYLE
  1
TABLEFORMAT_BEGIN
 90
        5
170
     1
 91
        0
 92
        0
 62
   257
 93
        1
300
CONTENTFORMAT
  1
CONTENTFORMAT_BEGIN
 90
        0
 91
        0
 92
      512
 93
        0
300

 40
0.0
140
1.0
 94
        5
 62
     0
340
55
144
0.18
309
CONTENTFORMAT_END
171
     0
 94
        0
309
TABLEFORMAT_END
  1
CELLSTYLE_BEGIN
 90
        2
 91
        1
300
_HEADER
309
CELLSTYLE_END
300
CELLSTYLE
  1
TABLEFORMAT_BEGIN
 90
        5
170
     1
 91
        0
 92
        0
 62
   257
 93
        1
300
CONTENTFORMAT
  1
CONTENTFORMAT_BEGIN
 90
        0
 91
        0
 92
      512
 93
        0
300

 40
0.0
140
1.0
 94
        2
 62
     0
340
55
144
0.18
309
CONTENTFORMAT_END
171
     0
 94
        0
309
TABLEFORMAT_END
  1
CELLSTYLE_BEGIN
 90
        3
 91
        2
300
_DATA
309
CELLSTYLE_END
  0
ENDSEC
  0
EOF
