  0
SECTION
  2
HEADER
  9
$ACADVER
  1
AC1032
  9
$ACADMAINTVER
 90
      321
  9
$DWGCODEPAGE
  3
ANSI_1252
  9
$REQUIREDVERSIONS
160
                 0
  9
$INSBASE
 10
0.0
 20
0.0
 30
0.0
  9
$EXTMIN
 10
-2576.111186703421
 20
-1899.736633362988
 30
0.0
  9
$EXTMAX
 10
2916.831342324039
 20
2455.948113952024
 30
0.0
  9
$LIMMIN
 10
0.0
 20
0.0
  9
$LIMMAX
 10
12.0
 20
9.0
  9
$ORTHOMODE
 70
     0
  9
$REGENMODE
 70
     1
  9
$FILLMODE
 70
     1
  9
$QTEXTMODE
 70
     0
  9
$MIRRTEXT
 70
     0
  9
$LTSCALE
 40
1.0
  9
$ATTMODE
 70
     1
  9
$TEXTSIZE
 40
0.2
  9
$TRACEWID
 40
0.05
  9
$TEXTSTYLE
  7
Standard
  9
$CLAYER
  8
0
  9
$CELTYPE
  6
ByLayer
  9
$CECOLOR
 62
   256
  9
$CELTSCALE
 40
1.0
  9
$DISPSILH
 70
     0
  9
$DIMSCALE
 40
1.0
  9
$DIMASZ
 40
0.18
  9
$DIMEXO
 40
0.0625
  9
$DIMDLI
 40
0.38
  9
$DIMRND
 40
0.0
  9
$DIMDLE
 40
0.0
  9
$DIMEXE
 40
0.18
  9
$DIMTP
 40
0.0
  9
$DIMTM
 40
0.0
  9
$DIMTXT
 40
0.18
  9
$DIMCEN
 40
0.09
  9
$DIMTSZ
 40
0.0
  9
$DIMTOL
 70
     0
  9
$DIMLIM
 70
     0
  9
$DIMTIH
 70
     1
  9
$DIMTOH
 70
     1
  9
$DIMSE1
 70
     0
  9
$DIMSE2
 70
     0
  9
$DIMTAD
 70
     0
  9
$DIMZIN
 70
     0
  9
$DIMBLK
  1

  9
$DIMASO
 70
     1
  9
$DIMSHO
 70
     1
  9
$DIMPOST
  1

  9
$DIMAPOST
  1

  9
$DIMALT
 70
     0
  9
$DIMALTD
 70
     2
  9
$DIMALTF
 40
25.4
  9
$DIMLFAC
 40
1.0
  9
$DIMTOFL
 70
     0
  9
$DIMTVP
 40
0.0
  9
$DIMTIX
 70
     0
  9
$DIMSOXD
 70
     0
  9
$DIMSAH
 70
     0
  9
$DIMBLK1
  1

  9
$DIMBLK2
  1

  9
$DIMSTYLE
  2
Standard
  9
$DIMCLRD
 70
     0
  9
$DIMCLRE
 70
     0
  9
$DIMCLRT
 70
     0
  9
$DIMTFAC
 40
1.0
  9
$DIMGAP
 40
0.09
  9
$DIMJUST
 70
     0
  9
$DIMSD1
 70
     0
  9
$DIMSD2
 70
     0
  9
$DIMTOLJ
 70
     1
  9
$DIMTZIN
 70
     0
  9
$DIMALTZ
 70
     0
  9
$DIMALTTZ
 70
     0
  9
$DIMUPT
 70
     0
  9
$DIMDEC
 70
     4
  9
$DIMTDEC
 70
     4
  9
$DIMALTU
 70
     4
  9
$DIMALTTD
 70
     2
  9
$DIMTXSTY
  7
Standard
  9
$DIMAUNIT
 70
     0
  9
$DIMADEC
 70
     0
  9
$DIMALTRND
 40
0.0
  9
$DIMAZIN
 70
     0
  9
$DIMDSEP
 70
    46
  9
$DIMATFIT
 70
     3
  9
$DIMFRAC
 70
     0
  9
$DIMLDRBLK
  1

  9
$DIMLUNIT
 70
     4
  9
$DIMLWD
 70
    -2
  9
$DIMLWE
 70
    -2
  9
$DIMTMOVE
 70
     0
  9
$DIMFXL
 40
1.0
  9
$DIMFXLON
 70
     0
  9
$DIMJOGANG
 40
0.7853981633974483
  9
$DIMTFILL
 70
     0
  9
$DIMTFILLCLR
 70
     0
  9
$DIMARCSYM
 70
     0
  9
$DIMLTYPE
  6

  9
$DIMLTEX1
  6

  9
$DIMLTEX2
  6

  9
$DIMTXTDIRECTION
 70
     0
  9
$LUNITS
 70
     4
  9
$LUPREC
 70
     4
  9
$SKETCHINC
 40
0.1
  9
$FILLETRAD
 40
0.0
  9
$AUNITS
 70
     0
  9
$AUPREC
 70
     0
  9
$MENU
  1
.
  9
$ELEVATION
 40
0.0
  9
$PELEVATION
 40
0.0
  9
$THICKNESS
 40
0.0
  9
$LIMCHECK
 70
     0
  9
$CHAMFERA
 40
0.0
  9
$CHAMFERB
 40
0.0
  9
$CHAMFERC
 40
0.0
  9
$CHAMFERD
 40
0.0
  9
$SKPOLY
 70
     0
  9
$TDCREATE
 40
2461074.412152778
  9
$TDUCREATE
 40
2461074.662152778
  9
$TDUPDATE
 40
2461074.412152778
  9
$TDUUPDATE
 40
2461074.662152778
  9
$TDINDWG
 40
0.0000115741
  9
$TDUSRTIMER
 40
0.0000115741
  9
$USRTIMER
 70
     1
  9
$ANGBASE
 50
0.0
  9
$ANGDIR
 70
     0
  9
$PDMODE
 70
     0
  9
$PDSIZE
 40
0.0
  9
$PLINEWID
 40
0.0
  9
$SPLFRAME
 70
     0
  9
$SPLINETYPE
 70
     6
  9
$SPLINESEGS
 70
     8
  9
$HANDSEED
  5
144
  9
$SURFTAB1
 70
     6
  9
$SURFTAB2
 70
     6
  9
$SURFTYPE
 70
     6
  9
$SURFU
 70
     6
  9
$SURFV
 70
     6
  9
$UCSBASE
  2

  9
$UCSNAME
  2

  9
$UCSORG
 10
0.0
 20
0.0
 30
0.0
  9
$UCSXDIR
 10
1.0
 20
0.0
 30
0.0
  9
$UCSYDIR
 10
0.0
 20
1.0
 30
0.0
  9
$UCSORTHOREF
  2

  9
$UCSORTHOVIEW
 70
     0
  9
$UCSORGTOP
 10
0.0
 20
0.0
 30
0.0
  9
$UCSORGBOTTOM
 10
0.0
 20
0.0
 30
0.0
  9
$UCSORGLEFT
 10
0.0
 20
0.0
 30
0.0
  9
$UCSORGRIGHT
 10
0.0
 20
0.0
 30
0.0
  9
$UCSORGFRONT
 10
0.0
 20
0.0
 30
0.0
  9
$UCSORGBACK
 10
0.0
 20
0.0
 30
0.0
  9
$PUCSBASE
  2

  9
$PUCSNAME
  2

  9
$PUCSORG
 10
0.0
 20
0.0
 30
0.0
  9
$PUCSXDIR
 10
1.0
 20
0.0
 30
0.0
  9
$PUCSYDIR
 10
0.0
 20
1.0
 30
0.0
  9
$PUCSORTHOREF
  2

  9
$PUCSORTHOVIEW
 70
     0
  9
$PUCSORGTOP
 10
0.0
 20
0.0
 30
0.0
  9
$PUCSORGBOTTOM
 10
0.0
 20
0.0
 30
0.0
  9
$PUCSORGLEFT
 10
0.0
 20
0.0
 30
0.0
  9
$PUCSORGRIGHT
 10
0.0
 20
0.0
 30
0.0
  9
$PUCSORGFRONT
 10
0.0
 20
0.0
 30
0.0
  9
$PUCSORGBACK
 10
0.0
 20
0.0
 30
0.0
  9
$USERI1
 70
     0
  9
$USERI2
 70
     0
  9
$USERI3
 70
     0
  9
$USERI4
 70
     0
  9
$USERI5
 70
     0
  9
$USERR1
 40
0.0
  9
$USERR2
 40
0.0
  9
$USERR3
 40
0.0
  9
$USERR4
 40
0.0
  9
$USERR5
 40
0.0
  9
$WORLDVIEW
 70
     1
  9
$SHADEDGE
 70
     3
  9
$SHADEDIF
 70
    70
  9
$TILEMODE
 70
     1
  9
$MAXACTVP
 70
    64
  9
$PINSBASE
 10
0.0
 20
0.0
 30
0.0
  9
$PLIMCHECK
 70
     0
  9
$PEXTMIN
 10
1.000000000000000E+20
 20
1.000000000000000E+20
 30
1.000000000000000E+20
  9
$PEXTMAX
 10
-1.000000000000000E+20
 20
-1.000000000000000E+20
 30
-1.000000000000000E+20
  9
$PLIMMIN
 10
0.0
 20
0.0
  9
$PLIMMAX
 10
12.0
 20
9.0
  9
$UNITMODE
 70
     0
  9
$VISRETAIN
 70
     1
  9
$PLINEGEN
 70
     0
  9
$PSLTSCALE
 70
     0
  9
$TREEDEPTH
 70
  3020
  9
$CMLSTYLE
  2
Standard
  9
$CMLJUST
 70
     0
  9
$CMLSCALE
 40
1.0
  9
$PROXYGRAPHICS
 70
     1
  9
$MEASUREMENT
 70
     0
  9
$CELWEIGHT
370
    -1
  9
$ENDCAPS
280
     0
  9
$JOINSTYLE
280
     0
  9
$LWDISPLAY
290
     0
  9
$INSUNITS
 70
     1
  9
$HYPERLINKBASE
  1

  9
$STYLESHEET
  1

  9
$XEDIT
290
     1
  9
$CEPSNTYPE
380
     0
  9
$PSTYLEMODE
290
     1
  9
$FINGERPRINTGUID
  2
{A10F001A-EAE3-5E40-98EE-847F11B3BE8A}
  9
$VERSIONGUID
  2
{3EA6DAE7-C6E3-C54D-AD33-F639BF20C34E}
  9
$EXTNAMES
290
     1
  9
$PSVPSCALE
 40
0.0
  9
$OLESTARTUP
290
     0
  9
$SORTENTS
280
   127
  9
$INDEXCTL
280
     0
  9
$HIDETEXT
280
     1
  9
$XCLIPFRAME
280
     2
  9
$HALOGAP
280
     0
  9
$OBSCOLOR
 70
   257
  9
$OBSLTYPE
280
     0
  9
$INTERSECTIONDISPLAY
280
     0
  9
$INTERSECTIONCOLOR
 70
   257
  9
$DIMASSOC
280
     2
  9
$PROJECTNAME
  1

  9
$CAMERADISPLAY
290
     0
  9
$LENSLENGTH
 40
50.0
  9
$CAMERAHEIGHT
 40
0.0
  9
$STEPSPERSEC
 40
2.0
  9
$STEPSIZE
 40
6.0
  9
$3DDWFPREC
 40
2.0
  9
$PSOLWIDTH
 40
0.25
  9
$PSOLHEIGHT
 40
4.0
  9
$LOFTANG1
 40
1.570796326794896
  9
$LOFTANG2
 40
1.570796326794896
  9
$LOFTMAG1
 40
0.0
  9
$LOFTMAG2
 40
0.0
  9
$LOFTPARAM
 70
     7
  9
$LOFTNORMALS
280
     1
  9
$LATITUDE
 40
37.795
  9
$LONGITUDE
 40
-122.394
  9
$NORTHDIRECTION
 40
0.0
  9
$TIMEZONE
 70
 -8000
  9
$LIGHTGLYPHDISPLAY
280
     1
  9
$TILEMODELIGHTSYNCH
280
     1
  9
$CMATERIAL
347
11
  9
$SOLIDHIST
280
     0
  9
$SHOWHIST
280
     1
  9
$DWFFRAME
280
     2
  9
$DGNFRAME
280
     0
  9
$REALWORLDSCALE
290
     1
  9
$INTERFERECOLOR
 62
     1
  9
$INTERFEREOBJVS
345
33
  9
$INTERFEREVPVS
346
30
  9
$CSHADOW
280
     0
  9
$SHADOWPLANELOCATION
 40
0.0
  0
ENDSEC
  0
SECTION
  2
CLASSES
  0
CLASS
  1
ACDBDICTIONARYWDFLT
  2
AcDbDictionaryWithDefault
  3
ObjectDBX Classes
 90
        0
 91
        1
280
     0
281
     0
  0
CLASS
  1
MATERIAL
  2
AcDbMaterial
  3
ObjectDBX Classes
 90
     1153
 91
        3
280
     0
281
     0
  0
CLASS
  1
VISUALSTYLE
  2
AcDbVisualStyle
  3
ObjectDBX Classes
 90
     4095
 91
       24
280
     0
281
     0
  0
CLASS
  1
SCALE
  2
AcDbScale
  3
ObjectDBX Classes
 90
     1153
 91
       17
280
     0
281
     0
  0
CLASS
  1
TABLESTYLE
  2
AcDbTableStyle
  3
ObjectDBX Classes
 90
     4095
 91
        1
280
     0
281
     0
  0
CLASS
  1
MLEADERSTYLE
  2
AcDbMLeaderStyle
  3
ACDB_MLEADERSTYLE_CLASS
 90
     4095
 91
        1
280
     0
281
     0
  0
CLASS
  1
ACDBSECTIONVIEWSTYLE
  2
AcDbSectionViewStyle
  3
ObjectDBX Classes
 90
     1025
 91
        1
280
     0
281
     0
  0
CLASS
  1
ACDBDETAILVIEWSTYLE
  2
AcDbDetailViewStyle
  3
ObjectDBX Classes
 90
     1025
 91
        1
280
     0
281
     0
  0
CLASS
  1
RASTERVARIABLES
  2
AcDbRasterVariables
  3
ISM
 90
        0
 91
        1
280
     0
281
     0
  0
CLASS
  1
DICTIONARYVAR
  2
AcDbDictionaryVar
  3
ObjectDBX Classes
 90
        0
 91
        5
280
     0
281
     0
  0
CLASS
  1
CELLSTYLEMAP
  2
AcDbCellStyleMap
  3
ObjectDBX Classes
 90
     1152
 91
        2
280
     0
281
     0
  0
CLASS
  1
SORTENTSTABLE
  2
AcDbSortentsTable
  3
ObjectDBX Classes
 90
        0
 91
        1
280
     0
281
     0
  0
ENDSEC
  0
SECTION
  2
TABLES
  0
TABLE
  2
VPORT
  5
8
330
0
100
AcDbSymbolTable
 70
     1
  0
VPORT
  5
57
330
8
100
AcDbSymbolTableRecord
100
AcDbViewportTableRecord
  2
*Active
 70
     0
 10
0.0
 20
0.0
 11
1.0
 21
1.0
 12
170.3600778103089
 22
278.1057402945176
 13
0.0
 23
0.0
 14
1.0
 24
1.0
 15
0.0
 25
0.0
 16
0.0
 26
0.0
 36
1.0
 17
0.0
 27
0.0
 37
0.0
 40
4355.684747315012
 41
1.261097358437956
 42
50.0
 43
0.0
 44
0.0
 50
0.0
 51
0.0
 71
     0
 72
  1000
 73
     1
 74
     1
 75
     0
 76
     0
 77
     0
 78
     0
281
     0
 65
     1
110
0.0
120
0.0
130
0.0
111
1.0
121
0.0
131
0.0
112
0.0
122
1.0
132
0.0
 79
     0
146
0.0
 60
     3
 61
     5
292
     1
282
     1
141
0.0
142
0.0
 63
   250
421
  3355443
  0
ENDTAB
  0
TABLE
  2
LTYPE
  5
5
330
0
100
AcDbSymbolTable
 70
     2
  0
LTYPE
  5
5B
330
5
100
AcDbSymbolTableRecord
100
AcDbLinetypeTableRecord
  2
ByBlock
 70
     0
  3

 72
    65
 73
     0
 40
0.0
  0
LTYPE
  5
5C
330
5
100
AcDbSymbolTableRecord
100
AcDbLinetypeTableRecord
  2
ByLayer
 70
     0
  3

 72
    65
 73
     0
 40
0.0
  0
LTYPE
  5
5D
330
5
100
AcDbSymbolTableRecord
100
AcDbLinetypeTableRecord
  2
Continuous
 70
     0
  3
Solid line
 72
    65
 73
     0
 40
0.0
  0
LTYPE
  5
12E
330
5
100
AcDbSymbolTableRecord
100
AcDbLinetypeTableRecord
  2
Grid Line
 70
     0
  3

 72
    65
 73
     4
 40
84.0
 49
48.0
 74
     0
 49
-12.0
 74
     0
 49
12.0
 74
     0
 49
-12.0
 74
     0
  0
ENDTAB
  0
TABLE
  2
LAYER
  5
2
330
0
100
AcDbSymbolTable
 70
     6
  0
LAYER
  5
54
330
2
100
AcDbSymbolTableRecord
100
AcDbLayerTableRecord
  2
0
 70
     0
 62
     7
  6
Continuous
370
    -3
390
F
347
21
348
0
  0
LAYER
  5
85
330
2
100
AcDbSymbolTableRecord
100
AcDbLayerTableRecord
  2
A-AREA-BNDY
 70
     0
 62
    -1
  6
Continuous
370
     9
390
F
347
21
348
0
  0
LAYER
  5
106
330
2
100
AcDbSymbolTableRecord
100
AcDbLayerTableRecord
  2
G-ANNO-SYMB
 70
     0
 62
   111
  6
Continuous
370
     9
390
F
347
21
348
0
  0
LAYER
  5
125
330
2
100
AcDbSymbolTableRecord
100
AcDbLayerTableRecord
  2
S-GRID
 70
     0
 62
     1
  6
Continuous
370
     9
390
F
347
21
348
0
  0
LAYER
  5
126
330
2
100
AcDbSymbolTableRecord
100
AcDbLayerTableRecord
  2
S-GRID-IDEN
 70
     0
 62
     1
  6
Continuous
370
    50
390
F
347
21
348
0
  0
ENDTAB
  0
TABLE
  2
STYLE
  5
3
330
0
100
AcDbSymbolTable
 70
     4
  0
STYLE
  5
55
330
3
100
AcDbSymbolTableRecord
100
AcDbTextStyleTableRecord
  2
Standard
 70
     0
 40
0.0
 41
1.0
 50
0.0
 71
     0
 42
0.2
  3
txt
  4

  0
STYLE
  5
5A
330
3
100
AcDbSymbolTableRecord
100
AcDbTextStyleTableRecord
  2
Annotative
 70
     0
 40
0.0
 41
1.0
 50
0.0
 71
     0
 42
0.2
  3
txt
  4

1001
AcadAnnotative
1000
AnnotativeData
1002
{
1070
     1
1070
     1
1002
}
  0
STYLE
  5
10F
330
3
100
AcDbSymbolTableRecord
100
AcDbTextStyleTableRecord
  2
Arial Narrow
 70
     0
 40
8.999999999999991
 41
1.0
 50
0.0
 71
     0
 42
0.2
  3
ARIALN.TTF
  4

1001
ACAD
1000
Arial Narrow
1071
       34
  0
STYLE
  5
12C
330
3
100
AcDbSymbolTableRecord
100
AcDbTextStyleTableRecord
  2
Arial Narrow_1
 70
     0
 40
11.99999999999999
 41
1.0
 50
0.0
 71
     0
 42
0.2
  3
ARIALN.TTF
  4

1001
ACAD
1000
Arial Narrow
1071
       34
  0
ENDTAB
  0
TABLE
  2
VIEW
  5
6
330
0
100
AcDbSymbolTable
 70
     0
  0
ENDTAB
  0
TABLE
  2
UCS
  5
7
330
0
100
AcDbSymbolTable
 70
     2
  0
UCS
  5
139
330
7
100
AcDbSymbolTableRecord
100
AcDbUCSTableRecord
  2
REVIT60-Default Site
 70
     0
 10
0.0000000000020464
 20
0.0
 30
-1200.0
 11
0.0000000000000018
 21
1.0
 31
0.0
 12
-1.0
 22
0.0000000000000018
 32
0.0
 79
     0
146
0.0
  0
UCS
  5
13A
330
7
100
AcDbSymbolTableRecord
100
AcDbUCSTableRecord
  2
REVIT60-Internal
 70
     0
 10
0.0
 20
0.0
 30
0.0
 11
0.0000000000000018
 21
1.0
 31
0.0
 12
-1.0
 22
0.0000000000000018
 32
0.0
 79
     0
146
0.0
  0
ENDTAB
  0
TABLE
  2
APPID
  5
9
330
0
100
AcDbSymbolTable
 70
     3
  0
APPID
  5
56
330
9
100
AcDbSymbolTableRecord
100
AcDbRegAppTableRecord
  2
ACAD
 70
     0
  0
APPID
  5
5E
330
9
100
AcDbSymbolTableRecord
100
AcDbRegAppTableRecord
  2
AcadAnnotative
 70
     0
  0
APPID
  5
78
330
9
100
AcDbSymbolTableRecord
100
AcDbRegAppTableRecord
  2
REVIT
 70
     0
  0
ENDTAB
  0
TABLE
  2
DIMSTYLE
  5
A
330
0
100
AcDbSymbolTable
 70
     2
100
AcDbDimStyleTable
 71
     0
  0
DIMSTYLE
105
58
330
A
100
AcDbSymbolTableRecord
100
AcDbDimStyleTableRecord
  2
Standard
 70
     0
340
55
  0
DIMSTYLE
105
59
330
A
100
AcDbSymbolTableRecord
100
AcDbDimStyleTableRecord
  2
Annotative
 70
     0
340
55
1001
AcadAnnotative
1000
AnnotativeData
1002
{
1070
     1
1070
     1
1002
}
  0
ENDTAB
  0
TABLE
  2
BLOCK_RECORD
  5
1
330
0
100
AcDbSymbolTable
 70
     4
  0
BLOCK_RECORD
  5
70
102
{ACAD_XDICTIONARY
360
13E
102
}
330
1
100
AcDbSymbolTableRecord
100
AcDbBlockTableRecord
  2
*Model_Space
340
73
 70
     0
280
     1
281
     0
  0
BLOCK_RECORD
  5
6C
330
1
100
AcDbSymbolTableRecord
100
AcDbBlockTableRecord
  2
*Paper_Space
340
6F
 70
     0
280
     1
281
     0
  0
BLOCK_RECORD
  5
74
330
1
100
AcDbSymbolTableRecord
100
AcDbBlockTableRecord
  2
*Paper_Space0
340
77
 70
     0
280
     1
281
     0
  0
BLOCK_RECORD
  5
107
330
1
100
AcDbSymbolTableRecord
100
AcDbBlockTableRecord
  2
Elevation - Detail Number_CE_-134675-LEVEL 2
340
0
102
{BLKREFS
331
10E
331
119
331
11D
331
121
102
}
 70
     0
280
     1
281
     0
  0
BLOCK_RECORD
  5
111
330
1
100
AcDbSymbolTableRecord
100
AcDbBlockTableRecord
  2
Elevation - Detail Number_CE_-46063-LEVEL 2
340
0
102
{BLKREFS
331
117
331
11B
331
11F
331
123
102
}
 70
     0
280
     1
281
     0
  0
BLOCK_RECORD
  5
127
330
1
100
AcDbSymbolTableRecord
100
AcDbBlockTableRecord
  2
Grid - Grid Head-Circle_CE_-46466-LEVEL 2
340
0
102
{BLKREFS
331
12B
331
132
102
}
 70
     0
280
     1
281
     0
  0
ENDTAB
  0
ENDSEC
  0
SECTION
  2
BLOCKS
  0
BLOCK
  5
71
330
70
100
AcDbEntity
  8
0
100
AcDbBlockBegin
  2
*Model_Space
 70
     0
 10
0.0
 20
0.0
 30
0.0
  3
*Model_Space
  1

  0
ENDBLK
  5
72
330
70
100
AcDbEntity
  8
0
100
AcDbBlockEnd
  0
BLOCK
  5
6D
330
6C
100
AcDbEntity
 67
     1
  8
0
100
AcDbBlockBegin
  2
*Paper_Space
 70
     0
 10
0.0
 20
0.0
 30
0.0
  3
*Paper_Space
  1

  0
ENDBLK
  5
6E
330
6C
100
AcDbEntity
 67
     1
  8
0
100
AcDbBlockEnd
  0
BLOCK
  5
75
330
74
100
AcDbEntity
 67
     1
  8
0
100
AcDbBlockBegin
  2
*Paper_Space0
 70
     0
 10
0.0
 20
0.0
 30
0.0
  3
*Paper_Space0
  1

  0
ENDBLK
  5
76
330
74
100
AcDbEntity
 67
     1
  8
0
100
AcDbBlockEnd
  0
BLOCK
  5
10C
330
107
100
AcDbEntity
  8
0
100
AcDbBlockBegin
  2
Elevation - Detail Number_CE_-134675-LEVEL 2
 70
     0
 10
0.0
 20
0.0
 30
0.0
  3
Elevation - Detail Number_CE_-134675-LEVEL 2
  1

  0
LINE
  5
108
330
107
100
AcDbEntity
  8
G-ANNO-SYMB
370
    25
100
AcDbLine
 10
0.2499999999999999
 20
0.25
 30
0.0
 11
0.2499999999999999
 21
-0.25
 31
0.0
1001
REVIT
1002
{
1070
     1
1000
317681
1002
}
1002
{
1070
     5
1000
134756
1002
}
  0
LINE
  5
109
330
107
100
AcDbEntity
  8
G-ANNO-SYMB
370
    25
100
AcDbLine
 10
0.2499999999999999
 20
-0.25
 30
0.0
 11
-0.25
 21
-0.25
 31
0.0
1001
REVIT
1002
{
1070
     1
1000
317681
1002
}
1002
{
1070
     5
1000
134756
1002
}
  0
LINE
  5
10A
330
107
100
AcDbEntity
  8
G-ANNO-SYMB
370
    25
100
AcDbLine
 10
-0.25
 20
-0.25
 30
0.0
 11
-0.25
 21
0.25
 31
0.0
1001
REVIT
1002
{
1070
     1
1000
317681
1002
}
1002
{
1070
     5
1000
134756
1002
}
  0
LINE
  5
10B
330
107
100
AcDbEntity
  8
G-ANNO-SYMB
370
    25
100
AcDbLine
 10
-0.25
 20
0.25
 30
0.0
 11
0.2499999999999999
 21
0.25
 31
0.0
1001
REVIT
1002
{
1070
     1
1000
317681
1002
}
1002
{
1070
     5
1000
134756
1002
}
  0
ENDBLK
  5
10D
330
107
100
AcDbEntity
  8
0
100
AcDbBlockEnd
  0
BLOCK
  5
115
330
111
100
AcDbEntity
  8
0
100
AcDbBlockBegin
  2
Elevation - Detail Number_CE_-46063-LEVEL 2
 70
     0
 10
0.0
 20
0.0
 30
0.0
  3
Elevation - Detail Number_CE_-46063-LEVEL 2
  1

  0
LINE
  5
112
330
111
100
AcDbEntity
  8
G-ANNO-SYMB
370
    25
100
AcDbLine
 10
0.0
 20
0.249999999999999
 30
0.0
 11
-0.2499999999999996
 21
-0.0000000000000002
 31
0.0
1001
REVIT
1002
{
1070
     1
1000
317682
1002
}
1002
{
1070
     5
1000
134756
1002
}
  0
LINE
  5
113
330
111
100
AcDbEntity
  8
G-ANNO-SYMB
370
    25
100
AcDbLine
 10
0.2499999999999996
 20
-0.0000000000000003
 30
0.0
 11
0.0
 21
0.249999999999999
 31
0.0
1001
REVIT
1002
{
1070
     1
1000
317682
1002
}
1002
{
1070
     5
1000
134756
1002
}
  0
LINE
  5
114
330
111
100
AcDbEntity
  8
G-ANNO-SYMB
370
    25
100
AcDbLine
 10
-0.2499999999999995
 20
-0.0000000000000002
 30
0.0
 11
0.2499999999999996
 21
-0.0000000000000002
 31
0.0
1001
REVIT
1002
{
1070
     1
1000
317682
1002
}
1002
{
1070
     5
1000
134756
1002
}
  0
ENDBLK
  5
116
330
111
100
AcDbEntity
  8
0
100
AcDbBlockEnd
  0
BLOCK
  5
129
330
127
100
AcDbEntity
  8
0
100
AcDbBlockBegin
  2
Grid - Grid Head-Circle_CE_-46466-LEVEL 2
 70
     0
 10
0.0
 20
0.0
 30
0.0
  3
Grid - Grid Head-Circle_CE_-46466-LEVEL 2
  1

  0
CIRCLE
  5
128
330
127
100
AcDbEntity
  8
S-GRID-IDEN
100
AcDbCircle
 10
0.0
 20
0.0
 30
0.0
 40
0.1875000000000001
1001
REVIT
1002
{
1070
     1
1000
4532416
1002
}
1002
{
1070
     5
1000
1952
1002
}
  0
ENDBLK
  5
12A
330
127
100
AcDbEntity
  8
0
100
AcDbBlockEnd
  0
ENDSEC
  0
SECTION
  2
ENTITIES
  0
LWPOLYLINE
  5
86
330
70
100
AcDbEntity
  8
A-AREA-BNDY
100
AcDbPolyline
 90
        4
 70
   129
 43
0.0
 10
731.6815414131798
 20
911.8031721222545
 10
731.6815414131792
 20
813.8031721222542
 10
818.6815414131791
 20
813.8031721222539
 10
818.6815414131798
 20
911.8031721222541
1001
REVIT
1002
{
1070
     1
1000
5181912
1002
}
1002
{
1070
     2
1000
-2000829
1002
}
1002
{
1070
   101
1000
ELEC.
1002
}
1002
{
1070
   102
1000
C101
1002
}
1002
{
1070
   103
1000

1002
}
1002
{
1070
   104
1000

1002
}
1002
{
1070
   105
1000

1002
}
  0
LWPOLYLINE
  5
87
330
70
100
AcDbEntity
  8
A-AREA-BNDY
100
AcDbPolyline
 90
        8
 70
   129
 43
0.0
 10
731.6815414131792
 20
761.3589509376995
 10
731.6815414131792
 20
727.8031721222543
 10
832.6815414131786
 20
727.8031721222543
 10
832.6815414131786
 20
653.8031721222537
 10
925.681541413178
 20
653.8031721222534
 10
925.6815414131793
 20
805.8031721222535
 10
822.6815414131788
 20
805.8031721222542
 10
731.6815414131792
 20
805.8031721222542
1001
REVIT
1002
{
1070
     1
1000
5181920
1002
}
1002
{
1070
     2
1000
-2000829
1002
}
1002
{
1070
   101
1000
OFFICE
1002
}
1002
{
1070
   102
1000
C102
1002
}
1002
{
1070
   103
1000

1002
}
1002
{
1070
   104
1000

1002
}
1002
{
1070
   105
1000

1002
}
  0
LWPOLYLINE
  5
88
330
70
100
AcDbEntity
  8
A-AREA-BNDY
100
AcDbPolyline
 90
       14
 70
   129
 43
0.0
 10
731.6815414131784
 20
645.8031721222542
 10
731.6815414131777
 20
565.8031721222543
 10
1113.681541413179
 20
565.8031721222526
 10
1113.681541413179
 20
645.8031721222527
 10
1029.681541413179
 20
645.8031721222531
 10
1029.681541413179
 20
860.8031721222527
 10
1029.68154141318
 20
911.8031721222534
 10
923.1815414131823
 20
911.8031721222534
 10
923.1815414131823
 20
919.8031721222536
 10
826.6815414131794
 20
919.8031721222543
 10
826.6815414131794
 20
813.8031721222539
 10
933.6815414131789
 20
813.8031721222535
 10
933.6815414131782
 20
645.8031721222535
 10
830.1815414131782
 20
645.8031721222538
1001
REVIT
1002
{
1070
     1
1000
5182007
1002
}
1002
{
1070
     2
1000
-2000829
1002
}
1002
{
1070
   101
1000
CORRIDOR
1002
}
1002
{
1070
   102
1000
C103
1002
}
1002
{
1070
   103
1000

1002
}
1002
{
1070
   104
1000

1002
}
1002
{
1070
   105
1000

1002
}
  0
LWPOLYLINE
  5
89
330
70
100
AcDbEntity
  8
A-AREA-BNDY
100
AcDbPolyline
 90
       12
 70
   129
 43
0.0
 10
1037.68154141318
 20
919.8031721222536
 10
1037.68154141318
 20
864.8031721222528
 10
1069.68154141318
 20
864.8031721222528
 10
1069.68154141318
 20
860.8031721222523
 10
1153.68154141318
 20
860.8031721222523
 10
1153.68154141318
 20
913.8031721222526
 10
1149.68154141318
 20
913.8031721222526
 10
1149.68154141318
 20
997.803172122253
 10
1153.68154141318
 20
997.8031721222526
 10
1153.68154141318
 20
1045.803172122253
 10
1087.181541413183
 20
1045.803172122253
 10
1037.68154141318
 20
1045.803172122253
1001
REVIT
1002
{
1070
     1
1000
5182010
1002
}
1002
{
1070
     2
1000
-2000829
1002
}
1002
{
1070
   101
1000
SHOWER
1002
}
1002
{
1070
   102
1000
EW-104
1002
}
1002
{
1070
   103
1000

1002
}
1002
{
1070
   104
1000

1002
}
1002
{
1070
   105
1000

1002
}
  0
LWPOLYLINE
  5
8A
330
70
100
AcDbEntity
  8
A-AREA-BNDY
100
AcDbPolyline
 90
        7
 70
   129
 43
0.0
 10
1321.681541413181
 20
1045.803172122252
 10
1153.68154141318
 20
1045.803172122253
 10
1153.68154141318
 20
997.8031721222526
 10
1157.68154141318
 20
997.803172122253
 10
1157.68154141318
 20
917.8031721222524
 10
1273.681541413181
 20
917.8031721222524
 10
1321.681541413181
 20
917.803172122252
1001
REVIT
1002
{
1070
     1
1000
5182013
1002
}
1002
{
1070
     2
1000
-2000829
1002
}
1002
{
1070
   101
1000
MEN'S RESTROOM
1002
}
1002
{
1070
   102
1000
EW-105
1002
}
1002
{
1070
   103
1000

1002
}
1002
{
1070
   104
1000

1002
}
1002
{
1070
   105
1000

1002
}
  0
LWPOLYLINE
  5
8B
330
70
100
AcDbEntity
  8
A-AREA-BNDY
100
AcDbPolyline
 90
       14
 70
   129
 43
0.0
 10
1037.68154141318
 20
856.8031721222526
 10
1037.681541413179
 20
653.8031721222534
 10
1117.681541413178
 20
653.803172122253
 10
1197.681541413179
 20
653.8031721222527
 10
1197.681541413179
 20
689.803172122252
 10
1197.68154141318
 20
837.8031721222525
 10
1205.68154141318
 20
837.8031721222525
 10
1205.68154141318
 20
693.8031721222521
 10
1269.681541413179
 20
693.8031721222521
 10
1269.68154141318
 20
909.8031721222524
 10
1153.68154141318
 20
909.8031721222524
 10
1153.68154141318
 20
860.8031721222523
 10
1069.68154141318
 20
860.8031721222523
 10
1069.68154141318
 20
856.8031721222526
1001
REVIT
1002
{
1070
     1
1000
5182016
1002
}
1002
{
1070
     2
1000
-2000829
1002
}
1002
{
1070
   101
1000
MEN'S STAFF LOCKER
1002
}
1002
{
1070
   102
1000
EW-106
1002
}
1002
{
1070
   103
1000

1002
}
1002
{
1070
   104
1000

1002
}
1002
{
1070
   105
1000

1002
}
  0
LWPOLYLINE
  5
8C
330
70
100
AcDbEntity
  8
A-AREA-BNDY
100
AcDbPolyline
 90
       15
 70
   129
 43
0.0
 10
1517.681541413181
 20
857.8031721222517
 10
1499.68154141318
 20
857.8031721222517
 10
1499.68154141318
 20
865.8031721222519
 10
1521.681541413181
 20
865.8031721222519
 10
1521.681541413181
 20
909.8031721222518
 10
1351.681541413181
 20
909.8031721222524
 10
1323.68154141318
 20
909.8031721222524
 10
1277.68154141318
 20
909.8031721222524
 10
1277.681541413179
 20
693.8031721222521
 10
1341.681541413179
 20
693.8031721222517
 10
1341.68154141318
 20
837.8031721222521
 10
1349.68154141318
 20
837.8031721222521
 10
1349.681541413179
 20
689.803172122252
 10
1349.681541413179
 20
653.803172122252
 10
1517.681541413179
 20
653.8031721222513
1001
REVIT
1002
{
1070
     1
1000
5182019
1002
}
1002
{
1070
     2
1000
-2000829
1002
}
1002
{
1070
   101
1000
WOMENS'S STAFF LOCKER
1002
}
1002
{
1070
   102
1000
EW-107
1002
}
1002
{
1070
   103
1000

1002
}
1002
{
1070
   104
1000

1002
}
1002
{
1070
   105
1000

1002
}
  0
LWPOLYLINE
  5
8D
330
70
100
AcDbEntity
  8
A-AREA-BNDY
100
AcDbPolyline
 90
        6
 70
   129
 43
0.0
 10
1521.681541413181
 20
1045.803172122252
 10
1353.681541413182
 20
1045.803172122252
 10
1353.681541413181
 20
917.803172122252
 10
1517.681541413181
 20
917.8031721222517
 10
1517.681541413182
 20
997.8031721222523
 10
1521.681541413181
 20
997.8031721222519
1001
REVIT
1002
{
1070
     1
1000
5182022
1002
}
1002
{
1070
     2
1000
-2000829
1002
}
1002
{
1070
   101
1000
WOMEN'S RESTROOM
1002
}
1002
{
1070
   102
1000
EW-108
1002
}
1002
{
1070
   103
1000

1002
}
1002
{
1070
   104
1000

1002
}
1002
{
1070
   105
1000

1002
}
  0
LWPOLYLINE
  5
8E
330
70
100
AcDbEntity
  8
A-AREA-BNDY
100
AcDbPolyline
 90
        8
 70
   129
 43
0.0
 10
1521.681541413181
 20
865.8031721222519
 10
1645.681541413181
 20
865.8031721222519
 10
1645.681541413182
 20
1045.803172122251
 10
1521.681541413181
 20
1045.803172122252
 10
1521.681541413181
 20
997.8031721222519
 10
1525.681541413181
 20
997.8031721222523
 10
1525.681541413181
 20
913.8031721222519
 10
1521.681541413181
 20
913.8031721222519
1001
REVIT
1002
{
1070
     1
1000
5182025
1002
}
1002
{
1070
     2
1000
-2000829
1002
}
1002
{
1070
   101
1000
SHOWER
1002
}
1002
{
1070
   102
1000
EW-109
1002
}
1002
{
1070
   103
1000

1002
}
1002
{
1070
   104
1000

1002
}
1002
{
1070
   105
1000

1002
}
  0
LWPOLYLINE
  5
8F
330
70
100
AcDbEntity
  8
A-AREA-BNDY
100
AcDbPolyline
 90
        5
 70
   129
 43
0.0
 10
1645.681541413181
 20
857.8031721222513
 10
1525.68154141318
 20
857.8031721222517
 10
1525.68154141318
 20
653.8031721222513
 10
1645.68154141318
 20
653.803172122251
 10
1645.68154141318
 20
689.8031721222516
1001
REVIT
1002
{
1070
     1
1000
5182028
1002
}
1002
{
1070
     2
1000
-2000829
1002
}
1002
{
1070
   101
1000
STORAGE
1002
}
1002
{
1070
   102
1000
C110
1002
}
1002
{
1070
   103
1000

1002
}
1002
{
1070
   104
1000

1002
}
1002
{
1070
   105
1000

1002
}
  0
LWPOLYLINE
  5
90
330
70
100
AcDbEntity
  8
A-AREA-BNDY
100
AcDbPolyline
 90
       11
 70
   129
 43
0.0
 10
1841.68154141318
 20
865.8031721222508
 10
1841.68154141318
 20
861.8031721222507
 10
1653.681541413181
 20
861.8031721222511
 10
1653.68154141318
 20
693.8031721222515
 10
1725.68154141318
 20
693.8031721222511
 10
1725.68154141318
 20
781.8031721222508
 10
1753.68154141318
 20
781.8031721222508
 10
1841.68154141318
 20
781.8031721222502
 10
1841.68154141318
 20
777.8031721222504
 10
1937.68154141318
 20
777.8031721222498
 10
1937.681541413181
 20
865.8031721222505
1001
REVIT
1002
{
1070
     1
1000
5182049
1002
}
1002
{
1070
     2
1000
-2000829
1002
}
1002
{
1070
   101
1000
ANTEROOM
1002
}
1002
{
1070
   102
1000
EW-111
1002
}
1002
{
1070
   103
1000

1002
}
1002
{
1070
   104
1000

1002
}
1002
{
1070
   105
1000

1002
}
  0
LWPOLYLINE
  5
91
330
70
100
AcDbEntity
  8
A-AREA-BNDY
100
AcDbPolyline
 90
        8
 70
   129
 43
0.0
 10
2121.681541413181
 20
869.80317212225
 10
2121.681541413183
 20
1045.80317212225
 10
1653.681541413182
 20
1045.803172122251
 10
1653.681541413181
 20
869.8031721222513
 10
1841.68154141318
 20
869.8031721222506
 10
1841.68154141318
 20
865.8031721222508
 10
1937.681541413181
 20
865.8031721222505
 10
1937.681541413181
 20
869.8031721222506
1001
REVIT
1002
{
1070
     1
1000
5182052
1002
}
1002
{
1070
     2
1000
-2000829
1002
}
1002
{
1070
   101
1000
MEN'S VARSITY LOCKER
1002
}
1002
{
1070
   102
1000
EW-112
1002
}
1002
{
1070
   103
1000

1002
}
1002
{
1070
   104
1000

1002
}
1002
{
1070
   105
1000

1002
}
  0
LWPOLYLINE
  5
92
330
70
100
AcDbEntity
  8
A-AREA-BNDY
100
AcDbPolyline
 90
       11
 70
   129
 43
0.0
 10
2121.681541413181
 20
781.8031721222495
 10
2121.681541413181
 20
861.80317212225
 10
1937.681541413181
 20
861.8031721222507
 10
1937.68154141318
 20
781.8031721222499
 10
1980.68154141318
 20
781.8031721222495
 10
2009.681541413181
 20
781.8031721222495
 10
2022.68154141318
 20
781.8031721222495
 10
2022.68154141318
 20
777.8031721222498
 10
2085.68154141318
 20
777.8031721222494
 10
2085.68154141318
 20
781.8031721222495
 10
2104.681541413181
 20
781.8031721222495
1001
REVIT
1002
{
1070
     1
1000
5182055
1002
}
1002
{
1070
     2
1000
-2000829
1002
}
1002
{
1070
   101
1000
DRYING
1002
}
1002
{
1070
   102
1000
EW-113
1002
}
1002
{
1070
   103
1000

1002
}
1002
{
1070
   104
1000

1002
}
1002
{
1070
   105
1000

1002
}
  0
LWPOLYLINE
  5
93
330
70
100
AcDbEntity
  8
A-AREA-BNDY
100
AcDbPolyline
 90
       14
 70
   129
 43
0.0
 10
2102.68154141318
 20
773.8031721222496
 10
2085.68154141318
 20
773.8031721222499
 10
2085.68154141318
 20
777.8031721222494
 10
2022.68154141318
 20
777.8031721222498
 10
2022.68154141318
 20
773.8031721222496
 10
2011.68154141318
 20
773.8031721222496
 10
2011.68154141318
 20
739.8031721222499
 10
1998.681541413179
 20
739.8031721222501
 10
1998.681541413178
 20
481.8031721222499
 10
2022.68154141318
 20
481.8031721222499
 10
2022.68154141318
 20
477.8031721222494
 10
2085.68154141318
 20
477.8031721222494
 10
2085.68154141318
 20
481.8031721222495
 10
2102.681541413179
 20
481.8031721222495
1001
REVIT
1002
{
1070
     1
1000
5182058
1002
}
1002
{
1070
     2
1000
-2000829
1002
}
1002
{
1070
   101
1000
SHOWER
1002
}
1002
{
1070
   102
1000
EW-114
1002
}
1002
{
1070
   103
1000

1002
}
1002
{
1070
   104
1000

1002
}
1002
{
1070
   105
1000

1002
}
  0
LWPOLYLINE
  5
94
330
70
100
AcDbEntity
  8
A-AREA-BNDY
100
AcDbPolyline
 90
       13
 70
   129
 43
0.0
 10
1755.681541413179
 20
481.8031721222509
 10
1841.68154141318
 20
481.8031721222506
 10
1841.68154141318
 20
477.8031721222501
 10
1937.68154141318
 20
477.8031721222498
 10
1937.68154141318
 20
481.8031721222502
 10
1976.681541413179
 20
481.8031721222499
 10
1976.68154141318
 20
741.8031721222501
 10
1976.68154141318
 20
773.8031721222499
 10
1937.68154141318
 20
773.8031721222503
 10
1937.68154141318
 20
777.8031721222498
 10
1841.68154141318
 20
777.8031721222504
 10
1841.68154141318
 20
773.8031721222503
 10
1755.681541413181
 20
773.8031721222506
1001
REVIT
1002
{
1070
     1
1000
5182061
1002
}
1002
{
1070
     2
1000
-2000829
1002
}
1002
{
1070
   101
1000
MEN'S
1002
}
1002
{
1070
   102
1000
EW-115
1002
}
1002
{
1070
   103
1000

1002
}
1002
{
1070
   104
1000

1002
}
1002
{
1070
   105
1000

1002
}
  0
LWPOLYLINE
  5
95
330
70
100
AcDbEntity
  8
A-AREA-BNDY
100
AcDbPolyline
 90
       11
 70
   129
 43
0.0
 10
2121.681541413179
 20
393.8031721222495
 10
2121.681541413179
 20
473.8031721222497
 10
2104.681541413179
 20
473.8031721222497
 10
2085.68154141318
 20
473.8031721222497
 10
2085.68154141318
 20
477.8031721222494
 10
2022.68154141318
 20
477.8031721222494
 10
2022.68154141318
 20
473.8031721222497
 10
1996.681541413179
 20
473.8031721222497
 10
1980.681541413179
 20
473.8031721222497
 10
1937.68154141318
 20
473.80317212225
 10
1937.681541413179
 20
393.8031721222498
1001
REVIT
1002
{
1070
     1
1000
5182064
1002
}
1002
{
1070
     2
1000
-2000829
1002
}
1002
{
1070
   101
1000
DRYING
1002
}
1002
{
1070
   102
1000
EW-116
1002
}
1002
{
1070
   103
1000

1002
}
1002
{
1070
   104
1000

1002
}
1002
{
1070
   105
1000

1002
}
  0
LWPOLYLINE
  5
96
330
70
100
AcDbEntity
  8
A-AREA-BNDY
100
AcDbPolyline
 90
        8
 70
   129
 43
0.0
 10
1653.681541413179
 20
473.803172122251
 10
1653.681541413179
 20
393.8031721222512
 10
1937.681541413179
 20
393.8031721222498
 10
1937.68154141318
 20
477.8031721222498
 10
1841.68154141318
 20
477.8031721222501
 10
1841.68154141318
 20
473.8031721222504
 10
1753.681541413179
 20
473.8031721222506
 10
1729.681541413178
 20
473.8031721222506
1001
REVIT
1002
{
1070
     1
1000
5182067
1002
}
1002
{
1070
     2
1000
-2000829
1002
}
1002
{
1070
   101
1000
ANTEROOM
1002
}
1002
{
1070
   102
1000
EW-117
1002
}
1002
{
1070
   103
1000

1002
}
1002
{
1070
   104
1000

1002
}
1002
{
1070
   105
1000

1002
}
  0
LWPOLYLINE
  5
97
330
70
100
AcDbEntity
  8
A-AREA-BNDY
100
AcDbPolyline
 90
        5
 70
   129
 43
0.0
 10
1277.681541413177
 20
337.8031721222523
 10
1277.681541413177
 20
196.3031721222517
 10
1383.181541413177
 20
196.3031721222514
 10
1383.181541413177
 20
258.8031721222512
 10
1383.181541413178
 20
337.8031721222516
1001
REVIT
1002
{
1070
     1
1000
5182070
1002
}
1002
{
1070
     2
1000
-2000829
1002
}
1002
{
1070
   101
1000
EXAM
1002
}
1002
{
1070
   102
1000
C120
1002
}
1002
{
1070
   103
1000

1002
}
1002
{
1070
   104
1000

1002
}
1002
{
1070
   105
1000

1002
}
  0
LWPOLYLINE
  5
98
330
70
100
AcDbEntity
  8
A-AREA-BNDY
100
AcDbPolyline
 90
        6
 70
   129
 43
0.0
 10
1557.681541413177
 20
196.3031721222507
 10
1557.681541413177
 20
337.8031721222509
 10
1388.181541413177
 20
337.8031721222516
 10
1388.181541413177
 20
261.3031721222516
 10
1452.181541413177
 20
261.3031721222513
 10
1452.181541413176
 20
196.3031721222511
1001
REVIT
1002
{
1070
     1
1000
5182221
1002
}
1002
{
1070
     2
1000
-2000829
1002
}
1002
{
1070
   101
1000
STORAGE
1002
}
1002
{
1070
   102
1000
C121
1002
}
1002
{
1070
   103
1000

1002
}
1002
{
1070
   104
1000

1002
}
1002
{
1070
   105
1000

1002
}
  0
LWPOLYLINE
  5
99
330
70
100
AcDbEntity
  8
A-AREA-BNDY
100
AcDbPolyline
 90
        4
 70
   129
 43
0.0
 10
1557.681541413176
 20
50.80317212225076
 10
1557.681541413177
 20
191.3031721222508
 10
1452.181541413176
 20
191.3031721222512
 10
1452.181541413176
 20
50.80317212225111
1001
REVIT
1002
{
1070
     1
1000
5182224
1002
}
1002
{
1070
     2
1000
-2000829
1002
}
1002
{
1070
   101
1000
OFFICE
1002
}
1002
{
1070
   102
1000
C122
1002
}
1002
{
1070
   103
1000

1002
}
1002
{
1070
   104
1000

1002
}
1002
{
1070
   105
1000

1002
}
  0
LWPOLYLINE
  5
9A
330
70
100
AcDbEntity
  8
A-AREA-BNDY
100
AcDbPolyline
 90
        6
 70
   129
 43
0.0
 10
1388.181541413177
 20
256.3031721222514
 10
1388.181541413177
 20
193.8031721222516
 10
1388.181541413176
 20
46.80317212225133
 10
1447.181541413176
 20
46.80317212225133
 10
1447.181541413177
 20
193.8031721222513
 10
1447.181541413178
 20
256.3031721222514
1001
REVIT
1002
{
1070
     1
1000
5182227
1002
}
1002
{
1070
     2
1000
-2000829
1002
}
1002
{
1070
   101
1000
CORRIDOR
1002
}
1002
{
1070
   102
1000
C123
1002
}
1002
{
1070
   103
1000

1002
}
1002
{
1070
   104
1000

1002
}
1002
{
1070
   105
1000

1002
}
  0
LWPOLYLINE
  5
9B
330
70
100
AcDbEntity
  8
A-AREA-BNDY
100
AcDbPolyline
 90
        4
 70
   129
 43
0.0
 10
1277.681541413177
 20
191.3031721222519
 10
1277.681541413176
 20
50.80317212225178
 10
1383.181541413176
 20
50.80317212225144
 10
1383.181541413177
 20
191.3031721222512
1001
REVIT
1002
{
1070
     1
1000
5182230
1002
}
1002
{
1070
     2
1000
-2000829
1002
}
1002
{
1070
   101
1000
OFFICE
1002
}
1002
{
1070
   102
1000
C124
1002
}
1002
{
1070
   103
1000

1002
}
1002
{
1070
   104
1000

1002
}
1002
{
1070
   105
1000

1002
}
  0
LWPOLYLINE
  5
9C
330
70
100
AcDbEntity
  8
A-AREA-BNDY
100
AcDbPolyline
 90
        8
 70
   129
 43
0.0
 10
1277.681541413176
 20
42.8031721222519
 10
1277.681541413173
 20
-389.1968278777484
 10
1557.681541413174
 20
-389.1968278777497
 10
1557.681541413176
 20
42.80317212225088
 10
1449.681541413175
 20
42.80317212225122
 10
1449.681541413176
 20
46.80317212225133
 10
1385.681541413176
 20
46.80317212225133
 10
1385.681541413176
 20
42.80317212225155
1001
REVIT
1002
{
1070
     1
1000
5182233
1002
}
1002
{
1070
     2
1000
-2000829
1002
}
1002
{
1070
   101
1000
TRAINING ROOM
1002
}
1002
{
1070
   102
1000
C125
1002
}
1002
{
1070
   103
1000

1002
}
1002
{
1070
   104
1000

1002
}
1002
{
1070
   105
1000

1002
}
  0
LWPOLYLINE
  5
9D
330
70
100
AcDbEntity
  8
A-AREA-BNDY
100
AcDbPolyline
 90
       16
 70
   129
 43
0.0
 10
1565.681541413174
 20
-393.1968278777495
 10
1565.681541413173
 20
-569.19682787775
 10
1642.681541413173
 20
-569.19682787775
 10
1642.681541413173
 20
-594.1968278777498
 10
1739.681541413174
 20
-594.1968278777505
 10
1739.681541413174
 20
-486.1968278777498
 10
1773.681541413174
 20
-486.1968278777498
 10
1773.681541413175
 20
-394.1968278777503
 10
1645.681541413174
 20
-394.1968278777496
 10
1645.681541413178
 20
389.803172122251
 10
1645.681541413179
 20
477.8031721222514
 10
1645.681541413179
 20
561.8031721222507
 10
1565.681541413178
 20
561.8031721222511
 10
1565.681541413177
 20
341.8031721222511
 10
1565.681541413177
 20
193.8031721222509
 10
1565.681541413176
 20
46.80317212225099
1001
REVIT
1002
{
1070
     1
1000
5182236
1002
}
1002
{
1070
     2
1000
-2000829
1002
}
1002
{
1070
   101
1000
CORRIDOR
1002
}
1002
{
1070
   102
1000
C127
1002
}
1002
{
1070
   103
1000

1002
}
1002
{
1070
   104
1000

1002
}
1002
{
1070
   105
1000

1002
}
  0
LWPOLYLINE
  5
9E
330
70
100
AcDbEntity
  8
A-AREA-BNDY
100
AcDbPolyline
 90
        9
 70
   129
 43
0.0
 10
2121.681541413175
 20
-386.1968278777514
 10
2121.681541413179
 20
385.8031721222492
 10
1937.681541413179
 20
385.8031721222499
 10
1653.681541413179
 20
385.8031721222513
 10
1653.681541413175
 20
-386.1968278777498
 10
1781.681541413175
 20
-386.1968278777504
 10
1781.681541413174
 20
-486.1968278777498
 10
1989.681541413174
 20
-486.1968278777512
 10
1989.681541413174
 20
-386.1968278777508
1001
REVIT
1002
{
1070
     1
1000
5182244
1002
}
1002
{
1070
     2
1000
-2000829
1002
}
1002
{
1070
   101
1000
FOOTBALL LOCKER
1002
}
1002
{
1070
   102
1000
C128
1002
}
1002
{
1070
   103
1000

1002
}
1002
{
1070
   104
1000

1002
}
1002
{
1070
   105
1000

1002
}
  0
LWPOLYLINE
  5
9F
330
70
100
AcDbEntity
  8
A-AREA-BNDY
100
AcDbPolyline
 90
       12
 70
   129
 43
0.0
 10
2121.681541413174
 20
-594.1968278777518
 10
2121.681541413175
 20
-394.1968278777517
 10
1997.681541413175
 20
-394.196827877751
 10
1997.681541413174
 20
-486.1968278777512
 10
2027.681541413175
 20
-486.1968278777512
 10
2027.681541413175
 20
-494.1968278777514
 10
1993.681541413174
 20
-494.1968278777514
 10
1777.681541413174
 20
-494.1968278777507
 10
1739.681541413174
 20
-494.19682787775
 10
1739.681541413174
 20
-594.1968278777505
 10
1866.681541413173
 20
-594.1968278777511
 10
1936.681541413173
 20
-594.1968278777511
1001
REVIT
1002
{
1070
     1
1000
5182247
1002
}
1002
{
1070
     2
1000
-2000829
1002
}
1002
{
1070
   101
1000
CORRIDOR
1002
}
1002
{
1070
   102
1000
C129
1002
}
1002
{
1070
   103
1000

1002
}
1002
{
1070
   104
1000

1002
}
1002
{
1070
   105
1000

1002
}
  0
LWPOLYLINE
  5
A0
330
70
100
AcDbEntity
  8
A-AREA-BNDY
100
AcDbPolyline
 90
       13
 70
   129
 43
0.0
 10
1646.681541413173
 20
-602.1968278777499
 10
1646.681541413173
 20
-688.1968278777502
 10
1646.681541413173
 20
-789.1968278777505
 10
1781.681541413172
 20
-789.1968278777505
 10
1781.681541413172
 20
-925.1968278777509
 10
1646.681541413171
 20
-925.1968278777502
 10
1646.681541413171
 20
-1027.19682787775
 10
1902.681541413172
 20
-1027.196827877751
 10
1902.681541413173
 20
-851.1968278777507
 10
1862.681541413172
 20
-851.1968278777507
 10
1862.681541413172
 20
-707.1968278777506
 10
1862.681541413174
 20
-602.1968278777507
 10
1739.681541413174
 20
-602.1968278777507
1001
REVIT
1002
{
1070
     1
1000
5182250
1002
}
1002
{
1070
     2
1000
-2000829
1002
}
1002
{
1070
   101
1000
LAUNDRY
1002
}
1002
{
1070
   102
1000
C130
1002
}
1002
{
1070
   103
1000

1002
}
1002
{
1070
   104
1000

1002
}
1002
{
1070
   105
1000

1002
}
  0
LWPOLYLINE
  5
A1
330
70
100
AcDbEntity
  8
A-AREA-BNDY
100
AcDbPolyline
 90
        9
 70
   129
 43
0.0
 10
1904.681541413173
 20
-1035.196827877752
 10
2121.681541413173
 20
-1035.196827877752
 10
2121.681541413174
 20
-602.1968278777514
 10
1940.681541413173
 20
-602.1968278777507
 10
1940.681541413173
 20
-707.1968278777506
 10
1940.681541413172
 20
-851.1968278777507
 10
1902.681541413173
 20
-851.1968278777507
 10
1902.681541413172
 20
-1029.196827877751
 10
1904.681541413173
 20
-1029.196827877751
1001
REVIT
1002
{
1070
     1
1000
5182253
1002
}
1002
{
1070
     2
1000
-2000829
1002
}
1002
{
1070
   101
1000
EQUIPMENT ROOM
1002
}
1002
{
1070
   102
1000
C131
1002
}
1002
{
1070
   103
1000

1002
}
1002
{
1070
   104
1000

1002
}
1002
{
1070
   105
1000

1002
}
  0
LWPOLYLINE
  5
A2
330
70
100
AcDbEntity
  8
A-AREA-BNDY
100
AcDbPolyline
 90
        4
 70
   129
 43
0.0
 10
1646.681541413173
 20
-797.19682787775
 10
1646.681541413171
 20
-917.19682787775
 10
1773.681541413172
 20
-917.1968278777507
 10
1773.681541413172
 20
-797.1968278777507
1001
REVIT
1002
{
1070
     1
1000
5182256
1002
}
1002
{
1070
     2
1000
-2000829
1002
}
1002
{
1070
   101
1000
OFFICE
1002
}
1002
{
1070
   102
1000
C132
1002
}
1002
{
1070
   103
1000

1002
}
1002
{
1070
   104
1000

1002
}
1002
{
1070
   105
1000

1002
}
  0
LWPOLYLINE
  5
A3
330
70
100
AcDbEntity
  8
A-AREA-BNDY
100
AcDbPolyline
 90
       10
 70
   129
 43
0.0
 10
1388.681541413171
 20
-1035.196827877749
 10
1638.681541413171
 20
-1035.19682787775
 10
1638.681541413171
 20
-1029.19682787775
 10
1638.681541413172
 20
-921.1968278777504
 10
1638.681541413172
 20
-793.1968278777502
 10
1638.681541413172
 20
-692.19682787775
 10
1526.681541413173
 20
-692.1968278777493
 10
1526.681541413173
 20
-835.1968278777496
 10
1418.681541413171
 20
-835.1968278777489
 10
1388.681541413171
 20
-835.1968278777489
1001
REVIT
1002
{
1070
     1
1000
5182259
1002
}
1002
{
1070
     2
1000
-2000829
1002
}
1002
{
1070
   101
1000
MAINTENANCE
1002
}
1002
{
1070
   102
1000
C133
1002
}
1002
{
1070
   103
1000

1002
}
1002
{
1070
   104
1000

1002
}
1002
{
1070
   105
1000

1002
}
  0
LWPOLYLINE
  5
A4
330
70
100
AcDbEntity
  8
A-AREA-BNDY
100
AcDbPolyline
 90
        5
 70
   129
 43
0.0
 10
1518.681541413173
 20
-688.1968278777495
 10
1518.681541413173
 20
-653.1968278777493
 10
1422.681541413173
 20
-653.1968278777493
 10
1422.681541413172
 20
-827.1968278777492
 10
1518.681541413172
 20
-827.1968278777492
1001
REVIT
1002
{
1070
     1
1000
5182262
1002
}
1002
{
1070
     2
1000
-2000829
1002
}
1002
{
1070
   101
1000
ELEC.
1002
}
1002
{
1070
   102
1000
C134
1002
}
1002
{
1070
   103
1000

1002
}
1002
{
1070
   104
1000

1002
}
1002
{
1070
   105
1000

1002
}
  0
LWPOLYLINE
  5
A5
330
70
100
AcDbEntity
  8
A-AREA-BNDY
100
AcDbPolyline
 90
       17
 70
   129
 43
0.0
 10
1085.68154141317
 20
-1035.196827877748
 10
1221.68154141317
 20
-1035.196827877749
 10
1221.681541413171
 20
-862.1968278777488
 10
1186.681541413171
 20
-862.1968278777488
 10
1186.681541413171
 20
-854.1968278777487
 10
1221.681541413171
 20
-854.1968278777487
 10
1221.681541413172
 20
-827.196827877748
 10
1384.681541413172
 20
-827.1968278777487
 10
1414.681541413172
 20
-827.1968278777492
 10
1414.681541413173
 20
-653.1968278777493
 10
1157.681541413173
 20
-653.1968278777486
 10
1157.681541413171
 20
-775.1968278777482
 10
1081.681541413171
 20
-775.1968278777482
 10
1081.68154141317
 20
-854.1968278777487
 10
1128.681541413171
 20
-854.1968278777487
 10
1128.681541413171
 20
-862.1968278777481
 10
1085.681541413171
 20
-862.1968278777481
1001
REVIT
1002
{
1070
     1
1000
5182265
1002
}
1002
{
1070
     2
1000
-2000829
1002
}
1002
{
1070
   101
1000
WOMEN'S SOCCER RESTROOM
1002
}
1002
{
1070
   102
1000
C136
1002
}
1002
{
1070
   103
1000

1002
}
1002
{
1070
   104
1000

1002
}
1002
{
1070
   105
1000

1002
}
  0
LWPOLYLINE
  5
A6
330
70
100
AcDbEntity
  8
A-AREA-BNDY
100
AcDbPolyline
 90
        5
 70
   129
 43
0.0
 10
1229.68154141317
 20
-1035.196827877749
 10
1380.681541413171
 20
-1035.196827877749
 10
1380.681541413171
 20
-835.1968278777489
 10
1229.681541413171
 20
-835.1968278777482
 10
1229.681541413171
 20
-858.1968278777491
1001
REVIT
1002
{
1070
     1
1000
5182274
1002
}
1002
{
1070
     2
1000
-2000829
1002
}
1002
{
1070
   101
1000
MECH.
1002
}
1002
{
1070
   102
1000
C137
1002
}
1002
{
1070
   103
1000

1002
}
1002
{
1070
   104
1000

1002
}
1002
{
1070
   105
1000

1002
}
  0
LWPOLYLINE
  5
A7
330
70
100
AcDbEntity
  8
A-AREA-BNDY
100
AcDbPolyline
 90
       17
 70
   129
 43
0.0
 10
1526.681541413173
 20
-645.1968278777491
 10
1526.681541413173
 20
-684.1968278777498
 10
1638.681541413172
 20
-684.1968278777498
 10
1638.681541413173
 20
-598.1968278777502
 10
1642.681541413173
 20
-598.1968278777502
 10
1642.681541413173
 20
-569.19682787775
 10
1561.681541413173
 20
-569.19682787775
 10
1561.681541413174
 20
-573.1968278777498
 10
1269.681541413173
 20
-573.1968278777491
 10
1269.681541413173
 20
-526.1968278777488
 10
1177.681541413172
 20
-526.1968278777482
 10
1177.681541413172
 20
-573.1968278777484
 10
831.681541413172
 20
-573.196827877747
 10
831.681541413172
 20
-645.1968278777484
 10
1081.681541413171
 20
-645.1968278777484
 10
1153.681541413172
 20
-645.1968278777491
 10
1418.681541413173
 20
-645.1968278777491
1001
REVIT
1002
{
1070
     1
1000
5182277
1002
}
1002
{
1070
     2
1000
-2000829
1002
}
1002
{
1070
   101
1000
CORRIDOR
1002
}
1002
{
1070
   102
1000
C138
1002
}
1002
{
1070
   103
1000

1002
}
1002
{
1070
   104
1000

1002
}
1002
{
1070
   105
1000

1002
}
  0
LWPOLYLINE
  5
A8
330
70
100
AcDbEntity
  8
A-AREA-BNDY
100
AcDbPolyline
 90
        6
 70
   129
 43
0.0
 10
1085.681541413171
 20
-653.196827877748
 10
1085.681541413171
 20
-726.1968278777484
 10
1081.681541413171
 20
-726.1968278777484
 10
1081.681541413171
 20
-767.1968278777479
 10
1149.681541413172
 20
-767.1968278777479
 10
1149.681541413173
 20
-653.1968278777486
1001
REVIT
1002
{
1070
     1
1000
5182362
1002
}
1002
{
1070
     2
1000
-2000829
1002
}
1002
{
1070
   101
1000
ANTEROOM
1002
}
1002
{
1070
   102
1000
C139
1002
}
1002
{
1070
   103
1000

1002
}
1002
{
1070
   104
1000

1002
}
1002
{
1070
   105
1000

1002
}
  0
LWPOLYLINE
  5
A9
330
70
100
AcDbEntity
  8
A-AREA-BNDY
100
AcDbPolyline
 90
        9
 70
   129
 43
0.0
 10
835.6815414131698
 20
-1035.196827877747
 10
1077.68154141317
 20
-1035.196827877748
 10
1077.68154141317
 20
-858.1968278777484
 10
1081.68154141317
 20
-858.1968278777484
 10
1081.681541413171
 20
-771.1968278777484
 10
1081.681541413171
 20
-726.1968278777484
 10
1077.681541413171
 20
-726.1968278777484
 10
1077.681541413172
 20
-653.196827877748
 10
835.6815414131713
 20
-653.1968278777473
1001
REVIT
1002
{
1070
     1
1000
5182365
1002
}
1002
{
1070
     2
1000
-2000829
1002
}
1002
{
1070
   101
1000
WOMEN'S VARSITY LOCKER
1002
}
1002
{
1070
   102
1000
C140
1002
}
1002
{
1070
   103
1000

1002
}
1002
{
1070
   104
1000

1002
}
1002
{
1070
   105
1000

1002
}
  0
LWPOLYLINE
  5
AA
330
70
100
AcDbEntity
  8
A-AREA-BNDY
100
AcDbPolyline
 90
        8
 70
   129
 43
0.0
 10
731.6815414131703
 20
-1035.196827877747
 10
827.6815414131696
 20
-1035.196827877747
 10
827.6815414131723
 20
-649.1968278777481
 10
831.681541413172
 20
-649.1968278777481
 10
831.681541413172
 20
-573.196827877747
 10
731.6815414131723
 20
-573.196827877747
 10
731.6815414131716
 20
-733.1968278777468
 10
731.681541413171
 20
-891.6567220182447
1001
REVIT
1002
{
1070
     1
1000
5182418
1002
}
1002
{
1070
     2
1000
-2000829
1002
}
1002
{
1070
   101
1000
CORRIDOR
1002
}
1002
{
1070
   102
1000
C141
1002
}
1002
{
1070
   103
1000

1002
}
1002
{
1070
   104
1000

1002
}
1002
{
1070
   105
1000

1002
}
  0
LWPOLYLINE
  5
AB
330
70
100
AcDbEntity
  8
A-AREA-BNDY
100
AcDbPolyline
 90
       19
 70
   129
 43
0.0
 10
731.6815414131751
 20
18.30317212225065
 10
731.6815414131723
 20
-565.1968278777468
 10
831.681541413172
 20
-565.1968278777468
 10
1169.681541413173
 20
-565.1968278777482
 10
1169.681541413173
 20
-518.1968278777479
 10
1269.681541413173
 20
-518.1968278777486
 10
1269.681541413173
 20
-393.1968278777489
 10
1269.681541413176
 20
46.80317212225167
 10
1269.681541413177
 20
193.803172122252
 10
1269.681541413177
 20
345.8031721222519
 10
1385.681541413178
 20
345.8031721222515
 10
1557.681541413177
 20
345.8031721222508
 10
1557.681541413179
 20
557.8031721222513
 10
1277.681541413177
 20
557.8031721222523
 10
1277.681541413177
 20
510.8031721222525
 10
1169.681541413176
 20
510.8031721222525
 10
1169.681541413177
 20
557.8031721222527
 10
1117.681541413178
 20
557.8031721222527
 10
731.6815414131777
 20
557.8031721222536
1001
REVIT
1002
{
1070
     1
1000
5182421
1002
}
1002
{
1070
     2
1000
-2000829
1002
}
1002
{
1070
   101
1000
WEIGHT ROOM
1002
}
1002
{
1070
   102
1000
EW-124
1002
}
1002
{
1070
   103
1000

1002
}
1002
{
1070
   104
1000

1002
}
1002
{
1070
   105
1000

1002
}
  0
LWPOLYLINE
  5
AC
330
70
100
AcDbEntity
  8
A-AREA-BNDY
100
AcDbPolyline
 90
        4
 70
   129
 43
0.0
 10
1932.681541413173
 20
-703.1968278777509
 10
1932.681541413173
 20
-602.1968278777507
 10
1870.681541413174
 20
-602.1968278777507
 10
1870.681541413173
 20
-703.1968278777502
1001
REVIT
1002
{
1070
     1
1000
5182424
1002
}
1002
{
1070
     2
1000
-2000829
1002
}
1002
{
1070
   101
1000
PLENUM
1002
}
1002
{
1070
   102
1000
C132A
1002
}
1002
{
1070
   103
1000

1002
}
1002
{
1070
   104
1000

1002
}
1002
{
1070
   105
1000

1002
}
  0
LWPOLYLINE
  5
AD
330
70
100
AcDbEntity
  8
A-AREA-BNDY
100
AcDbPolyline
 90
        5
 70
   129
 43
0.0
 10
1277.681541413173
 20
-522.1968278777484
 10
1277.681541413173
 20
-565.1968278777489
 10
1557.681541413173
 20
-565.1968278777495
 10
1557.681541413174
 20
-397.1968278777496
 10
1277.681541413173
 20
-397.1968278777483
1001
REVIT
1002
{
1070
     1
1000
5182432
1002
}
1002
{
1070
     2
1000
-2000829
1002
}
1002
{
1070
   101
1000
HYDRO ROOM
1002
}
1002
{
1070
   102
1000
C126
1002
}
1002
{
1070
   103
1000

1002
}
1002
{
1070
   104
1000

1002
}
1002
{
1070
   105
1000

1002
}
  0
LWPOLYLINE
  5
AE
330
70
100
AcDbEntity
  8
A-AREA-BNDY
100
AcDbPolyline
 90
       20
 70
   129
 43
0.0
 10
1269.681541413179
 20
565.8031721222522
 10
1561.681541413178
 20
565.8031721222512
 10
1561.681541413178
 20
561.8031721222511
 10
1653.68154141318
 20
561.8031721222507
 10
1653.681541413179
 20
481.8031721222513
 10
1725.681541413178
 20
481.8031721222509
 10
1725.68154141318
 20
685.8031721222512
 10
1653.68154141318
 20
685.8031721222515
 10
1653.68154141318
 20
645.8031721222507
 10
1521.681541413179
 20
645.8031721222511
 10
1341.681541413179
 20
645.8031721222518
 10
1341.681541413179
 20
685.8031721222519
 10
1273.681541413179
 20
685.8031721222523
 10
1205.68154141318
 20
685.8031721222523
 10
1205.68154141318
 20
645.8031721222525
 10
1121.681541413179
 20
645.8031721222527
 10
1121.681541413178
 20
565.8031721222526
 10
1177.681541413176
 20
565.8031721222526
 10
1177.681541413176
 20
518.8031721222527
 10
1269.681541413178
 20
518.8031721222527
1001
REVIT
1002
{
1070
     1
1000
5182442
1002
}
1002
{
1070
     2
1000
-2000829
1002
}
1002
{
1070
   101
1000
CORRIDOR
1002
}
1002
{
1070
   102
1000
C118
1002
}
1002
{
1070
   103
1000

1002
}
1002
{
1070
   104
1000

1002
}
1002
{
1070
   105
1000

1002
}
  0
LWPOLYLINE
  5
AF
330
70
100
AcDbEntity
  8
A-AREA-BNDY
100
AcDbPolyline
 90
        4
 70
   129
 43
0.0
 10
931.1815414131826
 20
1045.803172122254
 10
931.1815414131826
 20
927.8031721222534
 10
1029.68154141318
 20
927.8031721222534
 10
1029.681541413181
 20
1045.803172122253
1001
REVIT
1002
{
1070
     1
1000
5182479
1002
}
1002
{
1070
     2
1000
-2000829
1002
}
1002
{
1070
   101
1000
VEST.
1002
}
1002
{
1070
   102
1000
C100
1002
}
1002
{
1070
   103
1000

1002
}
1002
{
1070
   104
1000

1002
}
1002
{
1070
   105
1000

1002
}
  0
LWPOLYLINE
  5
B0
330
70
100
AcDbEntity
  8
A-AREA-BNDY
100
AcDbPolyline
 90
        4
 70
   129
 43
0.0
 10
-921.3184585868205
 20
831.3589509377058
 10
-921.3184585868205
 20
913.8188450782012
 10
-1002.818458586818
 20
913.8188450782019
 10
-1002.818458586819
 20
831.3589509377065
1001
REVIT
1002
{
1070
     1
1000
5182487
1002
}
1002
{
1070
     2
1000
-2000829
1002
}
1002
{
1070
   101
1000
TELECOMM
1002
}
1002
{
1070
   102
1000
FC-101
1002
}
1002
{
1070
   103
1000

1002
}
1002
{
1070
   104
1000

1002
}
1002
{
1070
   105
1000

1002
}
  0
LWPOLYLINE
  5
B1
330
70
100
AcDbEntity
  8
A-AREA-BNDY
100
AcDbPolyline
 90
        6
 70
   129
 43
0.0
 10
167.1815414131848
 20
1538.331422183821
 10
167.1815414131848
 20
1572.331422183822
 10
-356.818458586816
 20
1572.331422183824
 10
-356.818458586816
 20
1538.331422183824
 10
-356.818458586816
 20
1481.331422183824
 10
167.1815414131848
 20
1481.331422183822
1001
REVIT
1002
{
1070
     1
1000
5182501
1002
}
1002
{
1070
     2
1000
-2000829
1002
}
1002
{
1070
   101
1000
VEST.
1002
}
1002
{
1070
   102
1000
B100
1002
}
1002
{
1070
   103
1000

1002
}
1002
{
1070
   104
1000

1002
}
1002
{
1070
   105
1000

1002
}
  0
LWPOLYLINE
  5
B2
330
70
100
AcDbEntity
  8
A-AREA-BNDY
100
AcDbPolyline
 90
       65
 70
   129
 43
0.0
 10
-797.8184585868183
 20
1060.803172122257
 10
-649.3184585868231
 20
1060.803172122259
 10
-643.2556525932831
 20
1060.803172122259
 10
-450.8184585868177
 20
1060.803172122259
 10
-450.8184585868177
 20
1130.803172122259
 10
-416.8184585868177
 20
1130.803172122259
 10
-416.8184585868173
 20
1204.72269979582
 10
-416.8184585868258
 20
1234.823375970735
 10
-388.5720344027108
 20
1241.791344424268
 10
-360.1751623603915
 20
1248.118328047649
 10
-331.6423861077764
 20
1253.801086433906
 10
-302.9883188970234
 20
1258.836709120331
 10
-274.2276361002667
 20
1263.222617079091
 10
-245.3750676935248
 20
1266.956564038097
 10
-216.4453907126466
 20
1270.036637631443
 10
-187.4534216851526
 20
1272.461260378843
 10
-158.4140090418392
 20
1274.229190493544
 10
-141.9852060605992
 20
1247.937609811838
 10
-118.4058029973773
 20
1248.586763329615
 10
-94.81845858682582
 20
1248.803172122256
 10
-71.23111417627466
 20
1248.586763329615
 10
-47.65171111304288
 20
1247.937609811838
 10
-31.2229081317937
 20
1274.229190493543
 10
-2.183495488492212
 20
1272.461260378843
 10
26.80847353900208
 20
1270.036637631443
 10
55.73815051988094
 20
1266.956564038097
 10
84.59071892662256
 20
1263.222617079091
 10
113.3514017233802
 20
1258.836709120332
 10
142.0054689341333
 20
1253.801086433907
 10
170.5382451867487
 20
1248.118328047649
 10
198.9351172290687
 20
1241.791344424268
 10
227.1815414131838
 20
1234.823375970735
 10
227.1815414131838
 20
1204.722699795818
 10
227.1815414131831
 20
1130.803172122256
 10
261.1815414131829
 20
1130.803172122256
 10
261.1815414131822
 20
1060.803172122255
 10
453.6187354196369
 20
1060.803172122253
 10
459.6815414131769
 20
1060.803172122252
 10
608.181541413183
 20
1060.803172122252
 10
608.1815414131837
 20
1179.358950937701
 10
604.1815414131832
 20
1179.358950937701
 10
604.1815414131832
 20
1203.358950937701
 10
604.1815414131839
 20
1266.8188450782
 10
532.1815414131846
 20
1266.8188450782
 10
532.1815414131846
 20
1215.771449627055
 10
499.1815414131839
 20
1248.771449627054
 10
499.1815414131846
 20
1396.818845078195
 10
430.1815414131846
 20
1396.818845078195
 10
430.1815414131846
 20
1418.331422183821
 10
430.1187354196446
 20
1418.331422183821
 10
167.1815414131848
 20
1418.331422183822
 10
167.1815414131848
 20
1481.331422183822
 10
-356.818458586816
 20
1481.331422183824
 10
-356.818458586816
 20
1418.331422183823
 10
-619.8184585868158
 20
1418.331422183824
 10
-619.8184585868158
 20
1418.268616190283
 10
-619.8184585868158
 20
1396.818845078201
 10
-688.8184585868168
 20
1396.818845078202
 10
-688.8184585868172
 20
1248.77144962706
 10
-721.8184585868185
 20
1215.77144962706
 10
-721.8184585868182
 20
1266.818845078202
 10
-793.8184585868179
 20
1266.818845078202
 10
-793.8184585868179
 20
1203.358950937706
 10
-793.8184585868179
 20
1179.358950937706
 10
-797.818458586818
 20
1179.358950937706
1001
REVIT
1002
{
1070
     1
1000
5182508
1002
}
1002
{
1070
     2
1000
-2000829
1002
}
1002
{
1070
   101
1000
LOBBY
1002
}
1002
{
1070
   102
1000
B101
1002
}
1002
{
1070
   103
1000

1002
}
1002
{
1070
   104
1000

1002
}
1002
{
1070
   105
1000

1002
}
  0
LWPOLYLINE
  5
B3
330
70
100
AcDbEntity
  8
A-AREA-BNDY
100
AcDbPolyline
 90
       36
 70
   129
 43
0.0
 10
-260.8184585868177
 20
1056.803172122258
 10
-260.8184585868184
 20
962.8031721222564
 10
71.18154141318211
 20
962.8031721222553
 10
71.18154141318278
 20
1060.803172122257
 10
253.1815414131826
 20
1060.803172122255
 10
253.1815414131826
 20
1122.803172122255
 10
219.1815414131829
 20
1122.803172122256
 10
219.1815414131836
 20
1201.614260017281
 10
190.2279056899194
 20
1208.597591100493
 10
161.1193451914441
 20
1214.904067162435
 10
131.8716806324107
 20
1220.530260587431
 10
102.5008083315407
 20
1225.473113498373
 10
73.02269157186241
 20
1229.729939418704
 10
43.45335192454796
 20
1233.298424732528
 10
13.80886054107327
 20
1236.176629942086
 10
-15.89467058156958
 20
1238.362990721881
 10
-45.64109735785984
 20
1239.856318768906
 10
-70.22522075242351
 20
1240.566436849948
 10
-94.81845858681662
 20
1240.803172122256
 10
-119.4116964212094
 20
1240.566436849948
 10
-143.995819815773
 20
1239.856318768906
 10
-173.7422465920636
 20
1238.362990721882
 10
-203.4457777147061
 20
1236.176629942087
 10
-233.0902690981809
 20
1233.298424732529
 10
-262.6596087454956
 20
1229.729939418705
 10
-292.1377255051739
 20
1225.473113498374
 10
-321.5085978060443
 20
1220.530260587431
 10
-350.756262365078
 20
1214.904067162437
 10
-379.8648228635534
 20
1208.597591100495
 10
-408.8184585868175
 20
1201.614260017283
 10
-408.8184585868178
 20
1126.803172122259
 10
-408.8184585868181
 20
1060.803172122259
 10
-374.8184585868177
 20
1060.803172122259
 10
-374.8184585868174
 20
1132.803172122259
 10
-260.8184585868174
 20
1132.803172122258
 10
-260.8184585868177
 20
1062.827172122259
1001
REVIT
1002
{
1070
     1
1000
5182511
1002
}
1002
{
1070
     2
1000
-2000829
1002
}
1002
{
1070
   101
1000
HALL OF FAME
1002
}
1002
{
1070
   102
1000
B102
1002
}
1002
{
1070
   103
1000

1002
}
1002
{
1070
   104
1000

1002
}
1002
{
1070
   105
1000

1002
}
  0
LWPOLYLINE
  5
B4
330
70
100
AcDbEntity
  8
A-AREA-BNDY
100
AcDbPolyline
 90
        4
 70
   129
 43
0.0
 10
-619.8184585868158
 20
1636.331422183825
 10
-619.8184585868158
 20
1542.331422183825
 10
-445.8184585868159
 20
1542.331422183824
 10
-445.8184585868155
 20
1636.331422183824
1001
REVIT
1002
{
1070
     1
1000
5182702
1002
}
1002
{
1070
     2
1000
-2000829
1002
}
1002
{
1070
   101
1000
STORAGE
1002
}
1002
{
1070
   102
1000
B104
1002
}
1002
{
1070
   103
1000

1002
}
1002
{
1070
   104
1000

1002
}
1002
{
1070
   105
1000

1002
}
  0
LWPOLYLINE
  5
B5
330
70
100
AcDbEntity
  8
A-AREA-BNDY
100
AcDbPolyline
 90
        6
 70
   129
 43
0.0
 10
-619.8184585868162
 20
1426.331422183824
 10
-372.8184585868158
 20
1426.331422183823
 10
-372.8184585868158
 20
1481.331422183824
 10
-372.8184585868158
 20
1534.331422183824
 10
-441.8184585868161
 20
1534.331422183824
 10
-619.8184585868158
 20
1534.331422183825
1001
REVIT
1002
{
1070
     1
1000
5182709
1002
}
1002
{
1070
     2
1000
-2000829
1002
}
1002
{
1070
   101
1000
CONCESSIONS
1002
}
1002
{
1070
   102
1000
B105
1002
}
1002
{
1070
   103
1000

1002
}
1002
{
1070
   104
1000

1002
}
1002
{
1070
   105
1000

1002
}
  0
LWPOLYLINE
  5
B6
330
70
100
AcDbEntity
  8
A-AREA-BNDY
100
AcDbPolyline
 90
        4
 70
   129
 43
0.0
 10
-374.8184585868177
 20
1060.803172122259
 10
-260.8184585868177
 20
1060.803172122259
 10
-260.8184585868174
 20
1132.803172122258
 10
-374.8184585868174
 20
1132.803172122259
1001
REVIT
1002
{
1070
     1
1000
5182712
1002
}
1002
{
1070
     2
1000
-2000829
1002
}
1002
{
1070
   101
1000
COAT
1002
}
1002
{
1070
   102
1000
B106
1002
}
1002
{
1070
   103
1000

1002
}
1002
{
1070
   104
1000

1002
}
1002
{
1070
   105
1000

1002
}
  0
LWPOLYLINE
  5
B7
330
70
100
AcDbEntity
  8
A-AREA-BNDY
100
AcDbPolyline
 90
        6
 70
   129
 43
0.0
 10
-1104.818458586816
 20
1413.358950937707
 10
-793.8184585868175
 20
1413.358950937706
 10
-793.8184585868179
 20
1349.818845078202
 10
-721.8184585868178
 20
1349.818845078202
 10
-721.8184585868175
 20
1418.331422183823
 10
-1104.818458586816
 20
1418.331422183824
1001
REVIT
1002
{
1070
     1
1000
5182715
1002
}
1002
{
1070
     2
1000
-2000829
1002
}
1002
{
1070
   101
1000
JAN.
1002
}
1002
{
1070
   102
1000
B107
1002
}
1002
{
1070
   103
1000

1002
}
1002
{
1070
   104
1000

1002
}
1002
{
1070
   105
1000

1002
}
  0
LWPOLYLINE
  5
B8
330
70
100
AcDbEntity
  8
A-AREA-BNDY
100
AcDbPolyline
 90
        8
 70
   129
 43
0.0
 10
-801.818458586818
 20
1205.358950937706
 10
-801.818458586818
 20
1274.818845078202
 10
-721.8184585868182
 20
1274.818845078202
 10
-721.8184585868178
 20
1341.818845078202
 10
-801.8184585868178
 20
1341.818845078202
 10
-801.8184585868175
 20
1409.358950937706
 10
-1104.818458586816
 20
1409.358950937707
 10
-1104.818458586817
 20
1205.358950937707
1001
REVIT
1002
{
1070
     1
1000
5182718
1002
}
1002
{
1070
     2
1000
-2000829
1002
}
1002
{
1070
   101
1000
WOMEN'S RESTROOM
1002
}
1002
{
1070
   102
1000
B108
1002
}
1002
{
1070
   103
1000

1002
}
1002
{
1070
   104
1000

1002
}
1002
{
1070
   105
1000

1002
}
  0
LWPOLYLINE
  5
B9
330
70
100
AcDbEntity
  8
A-AREA-BNDY
100
AcDbPolyline
 90
       11
 70
   129
 43
0.0
 10
-1010.818458586817
 20
1060.803172122258
 10
-915.3184585868196
 20
1060.803172122258
 10
-797.8184585868183
 20
1060.803172122257
 10
-797.818458586818
 20
1175.358950937706
 10
-1104.818458586817
 20
1175.358950937708
 10
-1104.818458586818
 20
1024.358950937707
 10
-1104.818458586819
 20
915.3589509377072
 10
-1120.31845858682
 20
915.3589509377072
 10
-1120.318458586821
 20
831.3589509377065
 10
-1010.818458586819
 20
831.3589509377065
 10
-1010.818458586818
 20
919.8188450782016
1001
REVIT
1002
{
1070
     1
1000
5182822
1002
}
1002
{
1070
     2
1000
-2000829
1002
}
1002
{
1070
   101
1000
CORRIDOR
1002
}
1002
{
1070
   102
1000
B109
1002
}
1002
{
1070
   103
1000

1002
}
1002
{
1070
   104
1000

1002
}
1002
{
1070
   105
1000

1002
}
  0
LWPOLYLINE
  5
BA
330
70
100
AcDbEntity
  8
A-AREA-BNDY
100
AcDbPolyline
 90
        4
 70
   129
 43
0.0
 10
-921.3184585868205
 20
925.8188450782014
 10
-921.3184585868196
 20
1048.803172122257
 10
-998.8184585868181
 20
1048.803172122258
 10
-998.8184585868186
 20
925.8188450782018
1001
REVIT
1002
{
1070
     1
1000
5182825
1002
}
1002
{
1070
     2
1000
-2000829
1002
}
1002
{
1070
   101
1000
ELEV.
1002
}
1002
{
1070
   102
1000
B110
1002
}
1002
{
1070
   103
1000

1002
}
1002
{
1070
   104
1000

1002
}
1002
{
1070
   105
1000

1002
}
  0
LWPOLYLINE
  5
BB
330
70
100
AcDbEntity
  8
A-AREA-BNDY
100
AcDbPolyline
 90
        5
 70
   129
 43
0.0
 10
-909.3184585868195
 20
1048.803172122257
 10
-909.3184585868202
 20
925.8188450782014
 10
-655.3184585868231
 20
925.8188450782006
 10
-655.3184585868227
 20
1048.803172122257
 10
-797.8184585868183
 20
1048.803172122257
1001
REVIT
1002
{
1070
     1
1000
5182828
1002
}
1002
{
1070
     2
1000
-2000829
1002
}
1002
{
1070
   101
1000
STAIR 1
1002
}
1002
{
1070
   102
1000
B111
1002
}
1002
{
1070
   103
1000

1002
}
1002
{
1070
   104
1000

1002
}
1002
{
1070
   105
1000

1002
}
  0
LWPOLYLINE
  5
BC
330
70
100
AcDbEntity
  8
A-AREA-BNDY
100
AcDbPolyline
 90
        5
 70
   129
 43
0.0
 10
-909.3184585868209
 20
827.3589509377064
 10
-909.3184585868209
 20
767.3589509377026
 10
-810.26363410156
 20
767.3589509377026
 10
-663.8037399610617
 20
913.8188450782005
 10
-909.3184585868202
 20
913.8188450782012
1001
REVIT
1002
{
1070
     1
1000
5182831
1002
}
1002
{
1070
     2
1000
-2000829
1002
}
1002
{
1070
   101
1000
STORAGE
1002
}
1002
{
1070
   102
1000
B112
1002
}
1002
{
1070
   103
1000

1002
}
1002
{
1070
   104
1000

1002
}
1002
{
1070
   105
1000

1002
}
  0
LWPOLYLINE
  5
BD
330
70
100
AcDbEntity
  8
A-AREA-BNDY
100
AcDbPolyline
 90
       18
 70
   129
 43
0.0
 10
-909.3184585868232
 20
279.3589509377052
 10
-909.3184585868247
 20
18.30317212225884
 10
-819.3184585868268
 20
18.3031721222585
 10
-819.3184585868253
 20
686.2473933068136
 10
-706.2792162486529
 20
686.2473933068129
 10
-490.8336194546845
 20
901.6929901007786
 10
-490.8336194546845
 20
961.8031721222569
 10
-268.8184585868186
 20
958.8562659056737
 10
-268.8184585868179
 20
1052.803172122259
 10
-374.8184585868177
 20
1052.803172122259
 10
-412.8184585868182
 20
1052.803172122259
 10
-446.8184585868177
 20
1052.803172122259
 10
-643.3184585868231
 20
1052.803172122259
 10
-643.3184585868231
 20
917.3335637039619
 10
-805.2930713530827
 20
755.3589509377022
 10
-909.3184585868209
 20
755.3589509377022
 10
-909.3184585868216
 20
667.3589509377062
 10
-909.318458586822
 20
575.358950937706
1001
REVIT
1002
{
1070
     1
1000
5182834
1002
}
1002
{
1070
     2
1000
-2000829
1002
}
1002
{
1070
   101
1000
CORRIDOR
1002
}
1002
{
1070
   102
1000
B113
1002
}
1002
{
1070
   103
1000

1002
}
1002
{
1070
   104
1000

1002
}
1002
{
1070
   105
1000

1002
}
  0
LWPOLYLINE
  5
BE
330
70
100
AcDbEntity
  8
A-AREA-BNDY
100
AcDbPolyline
 90
       17
 70
   129
 43
0.0
 10
-643.3184585868302
 20
-1035.196827877743
 10
-94.81845858682856
 20
-1035.196827877744
 10
-94.81845858682822
 20
-940.1968278777442
 10
-490.8336194546917
 20
-940.1968278777435
 10
-490.833619454691
 20
-865.086645856264
 10
-706.2792162486573
 20
-649.6410490622969
 10
-819.318458586828
 20
-649.6410490622962
 10
-819.318458586828
 20
-642.217049062296
 10
-819.3184585868268
 20
18.3031721222585
 10
-909.3184585868247
 20
18.30317212225884
 10
-909.3184585868254
 20
-28.64104906229465
 10
-909.3184585868268
 20
-336.6410490622948
 10
-909.3184585868277
 20
-619.196827877742
 10
-909.3184585868284
 20
-710.1968278777418
 10
-909.3184585868284
 20
-727.1968278777386
 10
-805.2930713530875
 20
-727.1968278777393
 10
-643.3184585868295
 20
-889.1714406439993
1001
REVIT
1002
{
1070
     1
1000
5182837
1002
}
1002
{
1070
     2
1000
-2000829
1002
}
1002
{
1070
   101
1000
CORRIDOR
1002
}
1002
{
1070
   102
1000
B114
1002
}
1002
{
1070
   103
1000

1002
}
1002
{
1070
   104
1000

1002
}
1002
{
1070
   105
1000

1002
}
  0
LWPOLYLINE
  5
BF
330
70
100
AcDbEntity
  8
A-AREA-BNDY
100
AcDbPolyline
 90
        5
 70
   129
 43
0.0
 10
-909.3184585868284
 20
-759.1968278777415
 10
-909.3184585868295
 20
-885.6567220182371
 10
-663.8037399610679
 20
-885.6567220182379
 10
-810.2636341015648
 20
-739.1968278777393
 10
-909.3184585868284
 20
-739.1968278777386
1001
REVIT
1002
{
1070
     1
1000
5182840
1002
}
1002
{
1070
     2
1000
-2000829
1002
}
1002
{
1070
   101
1000
STORAGE
1002
}
1002
{
1070
   102
1000
B115
1002
}
1002
{
1070
   103
1000

1002
}
1002
{
1070
   104
1000

1002
}
1002
{
1070
   105
1000

1002
}
  0
LWPOLYLINE
  5
C0
330
70
100
AcDbEntity
  8
A-AREA-BNDY
100
AcDbPolyline
 90
        4
 70
   129
 43
0.0
 10
-909.3184585868302
 20
-1035.196827877741
 10
-655.3184585868299
 20
-1035.196827877743
 10
-655.3184585868292
 20
-897.6567220182387
 10
-909.3184585868295
 20
-897.6567220182372
1001
REVIT
1002
{
1070
     1
1000
5182843
1002
}
1002
{
1070
     2
1000
-2000829
1002
}
1002
{
1070
   101
1000
STAIR 3
1002
}
1002
{
1070
   102
1000
B116
1002
}
1002
{
1070
   103
1000

1002
}
1002
{
1070
   104
1000

1002
}
1002
{
1070
   105
1000

1002
}
  0
LWPOLYLINE
  5
C1
330
70
100
AcDbEntity
  8
A-AREA-BNDY
100
AcDbPolyline
 90
        4
 70
   129
 43
0.0
 10
465.6815414131701
 20
-1035.196827877746
 10
719.6815414131696
 20
-1035.196827877747
 10
719.6815414131703
 20
-897.6567220182447
 10
465.6815414131708
 20
-897.6567220182433
1001
REVIT
1002
{
1070
     1
1000
5182846
1002
}
1002
{
1070
     2
1000
-2000829
1002
}
1002
{
1070
   101
1000
STAIR 4
1002
}
1002
{
1070
   102
1000
B117
1002
}
1002
{
1070
   103
1000

1002
}
1002
{
1070
   104
1000

1002
}
1002
{
1070
   105
1000

1002
}
  0
LWPOLYLINE
  5
C2
330
70
100
AcDbEntity
  8
A-AREA-BNDY
100
AcDbPolyline
 90
        4
 70
   129
 43
0.0
 10
719.6815414131703
 20
-885.6567220182448
 10
719.6815414131716
 20
-739.1968278777468
 10
620.6267169279072
 20
-739.1968278777461
 10
474.1668227874087
 20
-885.6567220182434
1001
REVIT
1002
{
1070
     1
1000
5182849
1002
}
1002
{
1070
     2
1000
-2000829
1002
}
1002
{
1070
   101
1000
STORAGE
1002
}
1002
{
1070
   102
1000
B118
1002
}
1002
{
1070
   103
1000

1002
}
1002
{
1070
   104
1000

1002
}
1002
{
1070
   105
1000

1002
}
  0
LWPOLYLINE
  5
C3
330
70
100
AcDbEntity
  8
A-AREA-BNDY
100
AcDbPolyline
 90
       13
 70
   129
 43
0.0
 10
-94.81845858682856
 20
-1035.196827877744
 10
453.6815414131694
 20
-1035.196827877746
 10
453.6815414131701
 20
-889.1714406440055
 10
615.65615417943
 20
-727.1968278777468
 10
719.6815414131716
 20
-727.1968278777468
 10
719.6815414131723
 20
-569.1968278777466
 10
719.6815414131751
 20
18.30317212225099
 10
629.681541413175
 20
18.30317212225133
 10
629.6815414131737
 20
-649.6410490623044
 10
516.6422990750053
 20
-649.6410490623037
 10
301.1967022810363
 20
-865.0866458562681
 10
301.1967022810363
 20
-940.1968278777454
 10
-94.81845858682822
 20
-940.1968278777442
1001
REVIT
1002
{
1070
     1
1000
5182852
1002
}
1002
{
1070
     2
1000
-2000829
1002
}
1002
{
1070
   101
1000
CORRIDOR
1002
}
1002
{
1070
   102
1000
B119
1002
}
1002
{
1070
   103
1000

1002
}
1002
{
1070
   104
1000

1002
}
1002
{
1070
   105
1000

1002
}
  0
LWPOLYLINE
  5
C4
330
70
100
AcDbEntity
  8
A-AREA-BNDY
100
AcDbPolyline
 90
       16
 70
   129
 43
0.0
 10
719.6815414131751
 20
18.30317212225099
 10
719.6815414131777
 20
561.8031721222538
 10
719.6815414131777
 20
649.8031721222539
 10
719.6815414131784
 20
725.3031721222542
 10
719.6815414131784
 20
755.3589509376995
 10
615.6561541794348
 20
755.3589509376998
 10
453.6815414131762
 20
917.3335637039595
 10
453.6815414131762
 20
1052.803172122254
 10
257.1815414131824
 20
1052.803172122255
 10
79.18154141318267
 20
1052.803172122256
 10
79.18154141318233
 20
958.8562659056723
 10
301.1967022810485
 20
961.8031721222557
 10
301.1967022810485
 20
901.6929901007749
 10
516.6422990750142
 20
686.2473933068071
 10
629.6815414131764
 20
686.2473933068064
 10
629.681541413175
 20
18.30317212225133
1001
REVIT
1002
{
1070
     1
1000
5182855
1002
}
1002
{
1070
     2
1000
-2000829
1002
}
1002
{
1070
   101
1000
CORRIDOR
1002
}
1002
{
1070
   102
1000
B120
1002
}
1002
{
1070
   103
1000

1002
}
1002
{
1070
   104
1000

1002
}
1002
{
1070
   105
1000

1002
}
  0
LWPOLYLINE
  5
C5
330
70
100
AcDbEntity
  8
A-AREA-BNDY
100
AcDbPolyline
 90
        6
 70
   129
 43
0.0
 10
719.6815414131798
 20
925.818845078197
 10
719.6815414131798
 20
947.8031721222514
 10
719.6815414131805
 20
1048.803172122251
 10
608.181541413183
 20
1048.803172122252
 10
465.6815414131769
 20
1048.803172122252
 10
465.6815414131762
 20
925.8188450781981
1001
REVIT
1002
{
1070
     1
1000
5182858
1002
}
1002
{
1070
     2
1000
-2000829
1002
}
1002
{
1070
   101
1000
STAIR 2
1002
}
1002
{
1070
   102
1000
B121
1002
}
1002
{
1070
   103
1000

1002
}
1002
{
1070
   104
1000

1002
}
1002
{
1070
   105
1000

1002
}
  0
LWPOLYLINE
  5
C6
330
70
100
AcDbEntity
  8
A-AREA-BNDY
100
AcDbPolyline
 90
        5
 70
   129
 43
0.0
 10
719.6815414131784
 20
767.3589509376995
 10
719.6815414131791
 20
809.8031721222547
 10
719.6815414131798
 20
913.8188450781974
 10
474.1668227874155
 20
913.8188450781981
 10
620.6267169279128
 20
767.3589509376999
1001
REVIT
1002
{
1070
     1
1000
5182861
1002
}
1002
{
1070
     2
1000
-2000829
1002
}
1002
{
1070
   101
1000
STORAGE
1002
}
1002
{
1070
   102
1000
B122
1002
}
1002
{
1070
   103
1000

1002
}
1002
{
1070
   104
1000

1002
}
1002
{
1070
   105
1000

1002
}
  0
LWPOLYLINE
  5
C7
330
70
100
AcDbEntity
  8
A-AREA-BNDY
100
AcDbPolyline
 90
        4
 70
   129
 43
0.0
 10
731.6815414131805
 20
1052.803172122251
 10
731.6815414131798
 20
949.8031721222512
 10
818.6815414131798
 20
949.8031721222512
 10
818.6815414131798
 20
1052.803172122251
1001
REVIT
1002
{
1070
     1
1000
5182916
1002
}
1002
{
1070
     2
1000
-2000829
1002
}
1002
{
1070
   101
1000
RESTROOM
1002
}
1002
{
1070
   102
1000
B123
1002
}
1002
{
1070
   103
1000

1002
}
1002
{
1070
   104
1000

1002
}
1002
{
1070
   105
1000

1002
}
  0
LWPOLYLINE
  5
C8
330
70
100
AcDbEntity
  8
A-AREA-BNDY
100
AcDbPolyline
 90
       10
 70
   129
 43
0.0
 10
608.181541413183
 20
1060.803172122252
 10
725.6815414131805
 20
1060.803172122251
 10
826.68154141318
 20
1060.803172122251
 10
826.6815414131794
 20
947.8031721222514
 10
826.6815414131794
 20
919.8031721222543
 10
828.7055414131797
 20
919.8031721222543
 10
915.1815414131821
 20
919.8031721222536
 10
915.1815414131828
 20
1053.803172122254
 10
915.1815414131835
 20
1175.3589509377
 10
608.1815414131837
 20
1175.358950937702
1001
REVIT
1002
{
1070
     1
1000
5182919
1002
}
1002
{
1070
     2
1000
-2000829
1002
}
1002
{
1070
   101
1000
CORRIDOR
1002
}
1002
{
1070
   102
1000
B124
1002
}
1002
{
1070
   103
1000

1002
}
1002
{
1070
   104
1000

1002
}
1002
{
1070
   105
1000

1002
}
  0
LWPOLYLINE
  5
C9
330
70
100
AcDbEntity
  8
A-AREA-BNDY
100
AcDbPolyline
 90
        8
 70
   129
 43
0.0
 10
532.1815414131846
 20
1274.8188450782
 10
612.1815414131841
 20
1274.818845078199
 10
612.1815414131841
 20
1205.358950937701
 10
915.1815414131835
 20
1205.3589509377
 10
915.1815414131847
 20
1409.358950937701
 10
612.1815414131841
 20
1409.358950937702
 10
612.1815414131841
 20
1341.818845078197
 10
532.1815414131853
 20
1341.818845078197
1001
REVIT
1002
{
1070
     1
1000
5182922
1002
}
1002
{
1070
     2
1000
-2000829
1002
}
1002
{
1070
   101
1000
MEN'S RESTROOM
1002
}
1002
{
1070
   102
1000
B125
1002
}
1002
{
1070
   103
1000

1002
}
1002
{
1070
   104
1000

1002
}
1002
{
1070
   105
1000

1002
}
  0
LWPOLYLINE
  5
CA
330
70
100
AcDbEntity
  8
A-AREA-BNDY
100
AcDbPolyline
 90
        5
 70
   129
 43
0.0
 10
532.1815414131853
 20
1418.33142218382
 10
532.1815414131853
 20
1349.818845078197
 10
604.1815414131839
 20
1349.818845078196
 10
604.1815414131839
 20
1411.358950937701
 10
604.1815414131839
 20
1418.33142218382
1001
REVIT
1002
{
1070
     1
1000
5182925
1002
}
1002
{
1070
     2
1000
-2000829
1002
}
1002
{
1070
   101
1000
JAN.
1002
}
1002
{
1070
   102
1000
B126
1002
}
1002
{
1070
   103
1000

1002
}
1002
{
1070
   104
1000

1002
}
1002
{
1070
   105
1000

1002
}
  0
LWPOLYLINE
  5
CB
330
70
100
AcDbEntity
  8
A-AREA-BNDY
100
AcDbPolyline
 90
        6
 70
   129
 43
0.0
 10
-921.3184585868216
 20
671.358950937706
 10
-921.3184585868212
 20
761.3589509377029
 10
-921.3184585868205
 20
823.3589509377056
 10
-1006.818458586819
 20
823.3589509377063
 10
-1116.318458586821
 20
823.3589509377065
 10
-1116.318458586821
 20
671.3589509377067
1001
REVIT
1002
{
1070
     1
1000
5182942
1002
}
1002
{
1070
     2
1000
-2000829
1002
}
1002
{
1070
   101
1000
GA OFFICE
1002
}
1002
{
1070
   102
1000
FC-102
1002
}
1002
{
1070
   103
1000

1002
}
1002
{
1070
   104
1000

1002
}
1002
{
1070
   105
1000

1002
}
  0
LWPOLYLINE
  5
CC
330
70
100
AcDbEntity
  8
A-AREA-BNDY
100
AcDbPolyline
 90
        6
 70
   129
 43
0.0
 10
-1120.31845858682
 20
915.3589509377072
 10
-1224.818458586819
 20
915.3589509377075
 10
-1224.81845858682
 20
667.3589509377072
 10
-1124.318458586821
 20
667.3589509377069
 10
-1124.31845858682
 20
827.3589509377067
 10
-1120.318458586821
 20
827.3589509377067
1001
REVIT
1002
{
1070
     1
1000
5183018
1002
}
1002
{
1070
     2
1000
-2000829
1002
}
1002
{
1070
   101
1000
CORRIDOR
1002
}
1002
{
1070
   102
1000
FC-103
1002
}
1002
{
1070
   103
1000

1002
}
1002
{
1070
   104
1000

1002
}
1002
{
1070
   105
1000

1002
}
  0
LWPOLYLINE
  5
CD
330
70
100
AcDbEntity
  8
A-AREA-BNDY
100
AcDbPolyline
 90
       11
 70
   129
 43
0.0
 10
-1232.818458586819
 20
923.3589509377077
 10
-1232.818458586818
 20
937.3314221838226
 10
-1321.818458586819
 20
937.3314221838226
 10
-1447.818458586819
 20
937.3314221838233
 10
-1512.818458586819
 20
937.3314221838233
 10
-1512.81845858682
 20
875.3314221838238
 10
-1349.318458586822
 20
875.331422183823
 10
-1349.318458586823
 20
749.3314221838231
 10
-1345.318458586823
 20
749.3314221838231
 10
-1345.318458586823
 20
671.3589509377073
 10
-1232.81845858682
 20
671.358950937707
1001
REVIT
1002
{
1070
     1
1000
5183021
1002
}
1002
{
1070
     2
1000
-2000829
1002
}
1002
{
1070
   101
1000
RECEPTION
1002
}
1002
{
1070
   102
1000
FC-104
1002
}
1002
{
1070
   103
1000

1002
}
1002
{
1070
   104
1000

1002
}
1002
{
1070
   105
1000

1002
}
  0
LWPOLYLINE
  5
CE
330
70
100
AcDbEntity
  8
A-AREA-BNDY
100
AcDbPolyline
 90
        4
 70
   129
 43
0.0
 10
-1508.81845858682
 20
753.3314221838235
 10
-1349.318458586823
 20
753.3314221838228
 10
-1349.318458586822
 20
875.331422183823
 10
-1508.81845858682
 20
875.3314221838238
1001
REVIT
1002
{
1070
     1
1000
5183024
1002
}
1002
{
1070
     2
1000
-2000829
1002
}
1002
{
1070
   101
1000
SECRETARY
1002
}
1002
{
1070
   102
1000
FC-105
1002
}
1002
{
1070
   103
1000

1002
}
1002
{
1070
   104
1000

1002
}
1002
{
1070
   105
1000

1002
}
  0
LWPOLYLINE
  5
CF
330
70
100
AcDbEntity
  8
A-AREA-BNDY
100
AcDbPolyline
 90
        5
 70
   129
 43
0.0
 10
-1120.818458586819
 20
931.3589509377072
 10
-1120.818458586818
 20
1020.358950937707
 10
-1216.818458586818
 20
1020.358950937708
 10
-1216.818458586818
 20
941.3314221838223
 10
-1216.818458586819
 20
931.3589509377075
1001
REVIT
1002
{
1070
     1
1000
5183027
1002
}
1002
{
1070
     2
1000
-2000829
1002
}
1002
{
1070
   101
1000
VEST.
1002
}
1002
{
1070
   102
1000
FC-100
1002
}
1002
{
1070
   103
1000

1002
}
1002
{
1070
   104
1000

1002
}
1002
{
1070
   105
1000

1002
}
  0
LWPOLYLINE
  5
D0
330
70
100
AcDbEntity
  8
A-AREA-BNDY
100
AcDbPolyline
 90
        5
 70
   129
 43
0.0
 10
-1232.818458586818
 20
945.3314221838224
 10
-1232.818458586818
 20
1024.358950937708
 10
-1232.818458586818
 20
1094.331422183824
 10
-1317.818458586818
 20
1094.331422183824
 10
-1317.818458586819
 20
945.3314221838228
1001
REVIT
1002
{
1070
     1
1000
5183035
1002
}
1002
{
1070
     2
1000
-2000829
1002
}
1002
{
1070
   101
1000
OFFICE
1002
}
1002
{
1070
   102
1000
FC-106
1002
}
1002
{
1070
   103
1000

1002
}
1002
{
1070
   104
1000

1002
}
1002
{
1070
   105
1000

1002
}
  0
LWPOLYLINE
  5
D1
330
70
100
AcDbEntity
  8
A-AREA-BNDY
100
AcDbPolyline
 90
        4
 70
   129
 43
0.0
 10
-1325.818458586818
 20
1094.331422183824
 10
-1443.818458586818
 20
1094.331422183824
 10
-1443.818458586819
 20
945.3314221838235
 10
-1325.818458586819
 20
945.3314221838228
1001
REVIT
1002
{
1070
     1
1000
5183042
1002
}
1002
{
1070
     2
1000
-2000829
1002
}
1002
{
1070
   101
1000
OFFICE
1002
}
1002
{
1070
   102
1000
FC-109
1002
}
1002
{
1070
   103
1000

1002
}
1002
{
1070
   104
1000

1002
}
1002
{
1070
   105
1000

1002
}
  0
LWPOLYLINE
  5
D2
330
70
100
AcDbEntity
  8
A-AREA-BNDY
100
AcDbPolyline
 90
        5
 70
   129
 43
0.0
 10
-1451.818458586818
 20
1094.331422183824
 10
-1571.818458586818
 20
1094.331422183825
 10
-1571.818458586819
 20
945.3314221838239
 10
-1512.818458586819
 20
945.3314221838235
 10
-1451.818458586819
 20
945.3314221838235
1001
REVIT
1002
{
1070
     1
1000
5183045
1002
}
1002
{
1070
     2
1000
-2000829
1002
}
1002
{
1070
   101
1000
OFFICE
1002
}
1002
{
1070
   102
1000
FC-110
1002
}
1002
{
1070
   103
1000

1002
}
1002
{
1070
   104
1000

1002
}
1002
{
1070
   105
1000

1002
}
  0
LWPOLYLINE
  5
D3
330
70
100
AcDbEntity
  8
A-AREA-BNDY
100
AcDbPolyline
 90
        4
 70
   129
 43
0.0
 10
-1579.818458586818
 20
1094.331422183825
 10
-1699.818458586818
 20
1094.331422183825
 10
-1699.818458586818
 20
945.3314221838242
 10
-1579.818458586819
 20
945.3314221838239
1001
REVIT
1002
{
1070
     1
1000
5183048
1002
}
1002
{
1070
     2
1000
-2000829
1002
}
1002
{
1070
   101
1000
OFFICE
1002
}
1002
{
1070
   102
1000
FC-111
1002
}
1002
{
1070
   103
1000

1002
}
1002
{
1070
   104
1000

1002
}
1002
{
1070
   105
1000

1002
}
  0
LWPOLYLINE
  5
D4
330
70
100
AcDbEntity
  8
A-AREA-BNDY
100
AcDbPolyline
 90
        4
 70
   129
 43
0.0
 10
-1516.81845858682
 20
871.3314221838237
 10
-1636.81845858682
 20
871.331422183824
 10
-1636.818458586821
 20
753.3314221838241
 10
-1516.81845858682
 20
753.3314221838235
1001
REVIT
1002
{
1070
     1
1000
5183060
1002
}
1002
{
1070
     2
1000
-2000829
1002
}
1002
{
1070
   101
1000
BREAK/SUPPORT
1002
}
1002
{
1070
   102
1000
FC-108
1002
}
1002
{
1070
   103
1000

1002
}
1002
{
1070
   104
1000

1002
}
1002
{
1070
   105
1000

1002
}
  0
LWPOLYLINE
  5
D5
330
70
100
AcDbEntity
  8
A-AREA-BNDY
100
AcDbPolyline
 90
        4
 70
   129
 43
0.0
 10
-1707.818458586818
 20
1094.331422183825
 10
-1827.818458586818
 20
1094.331422183825
 10
-1827.818458586819
 20
945.3314221838246
 10
-1707.818458586819
 20
945.3314221838242
1001
REVIT
1002
{
1070
     1
1000
5183067
1002
}
1002
{
1070
     2
1000
-2000829
1002
}
1002
{
1070
   101
1000
OFFICE
1002
}
1002
{
1070
   102
1000
FC-112
1002
}
1002
{
1070
   103
1000

1002
}
1002
{
1070
   104
1000

1002
}
1002
{
1070
   105
1000

1002
}
  0
LWPOLYLINE
  5
D6
330
70
100
AcDbEntity
  8
A-AREA-BNDY
100
AcDbPolyline
 90
        4
 70
   129
 43
0.0
 10
-1835.818458586818
 20
1094.331422183825
 10
-1955.818458586818
 20
1094.331422183825
 10
-1955.818458586819
 20
945.3314221838249
 10
-1835.818458586819
 20
945.3314221838246
1001
REVIT
1002
{
1070
     1
1000
5183074
1002
}
1002
{
1070
     2
1000
-2000829
1002
}
1002
{
1070
   101
1000
OFFICE
1002
}
1002
{
1070
   102
1000
FC-113
1002
}
1002
{
1070
   103
1000

1002
}
1002
{
1070
   104
1000

1002
}
1002
{
1070
   105
1000

1002
}
  0
LWPOLYLINE
  5
D7
330
70
100
AcDbEntity
  8
A-AREA-BNDY
100
AcDbPolyline
 90
        4
 70
   129
 43
0.0
 10
-1963.818458586818
 20
1094.331422183825
 10
-2083.818458586819
 20
1094.331422183825
 10
-2083.818458586819
 20
945.3314221838253
 10
-1963.818458586819
 20
945.3314221838249
1001
REVIT
1002
{
1070
     1
1000
5183077
1002
}
1002
{
1070
     2
1000
-2000829
1002
}
1002
{
1070
   101
1000
OFFICE
1002
}
1002
{
1070
   102
1000
FC-114
1002
}
1002
{
1070
   103
1000

1002
}
1002
{
1070
   104
1000

1002
}
1002
{
1070
   105
1000

1002
}
  0
LWPOLYLINE
  5
D8
330
70
100
AcDbEntity
  8
A-AREA-BNDY
100
AcDbPolyline
 90
       17
 70
   129
 43
0.0
 10
-1512.818458586819
 20
937.3314221838233
 10
-1575.818458586819
 20
937.3314221838237
 10
-1703.818458586819
 20
937.3314221838242
 10
-1831.818458586819
 20
937.3314221838246
 10
-1959.818458586819
 20
937.3314221838253
 10
-2087.81845858682
 20
937.3314221838253
 10
-2140.318458586825
 20
937.3314221838256
 10
-2140.318458586825
 20
879.3314221838262
 10
-2082.342458586825
 20
879.3314221838256
 10
-2076.318458586825
 20
879.3314221838249
 10
-1920.318458586825
 20
879.3314221838249
 10
-1763.318458586822
 20
879.3314221838246
 10
-1763.318458586822
 20
875.3314221838248
 10
-1707.318458586822
 20
875.3314221838248
 10
-1707.318458586822
 20
879.3314221838242
 10
-1640.818458586819
 20
879.3314221838238
 10
-1512.818458586819
 20
879.3314221838235
1001
REVIT
1002
{
1070
     1
1000
5183080
1002
}
1002
{
1070
     2
1000
-2000829
1002
}
1002
{
1070
   101
1000
CORRIDOR
1002
}
1002
{
1070
   102
1000
FC-116
1002
}
1002
{
1070
   103
1000

1002
}
1002
{
1070
   104
1000

1002
}
1002
{
1070
   105
1000

1002
}
  0
LWPOLYLINE
  5
D9
330
70
100
AcDbEntity
  8
A-AREA-BNDY
100
AcDbPolyline
 90
        4
 70
   129
 43
0.0
 10
-1644.81845858682
 20
871.331422183824
 10
-1703.318458586822
 20
871.3314221838244
 10
-1703.318458586823
 20
753.3314221838241
 10
-1644.818458586821
 20
753.3314221838241
1001
REVIT
1002
{
1070
     1
1000
5183087
1002
}
1002
{
1070
     2
1000
-2000829
1002
}
1002
{
1070
   101
1000
ELEC.
1002
}
1002
{
1070
   102
1000
FC-107
1002
}
1002
{
1070
   103
1000

1002
}
1002
{
1070
   104
1000

1002
}
1002
{
1070
   105
1000

1002
}
  0
LWPOLYLINE
  5
DA
330
70
100
AcDbEntity
  8
A-AREA-BNDY
100
AcDbPolyline
 90
        5
 70
   129
 43
0.0
 10
-1767.318458586824
 20
643.3314221838239
 10
-1767.318458586822
 20
871.3314221838244
 10
-1916.318458586825
 20
871.3314221838249
 10
-1916.318458586825
 20
643.8314221838245
 10
-1916.318458586825
 20
643.3314221838243
1001
REVIT
1002
{
1070
     1
1000
5183094
1002
}
1002
{
1070
     2
1000
-2000829
1002
}
1002
{
1070
   101
1000
OFFICE
1002
}
1002
{
1070
   102
1000
FC-117
1002
}
1002
{
1070
   103
1000

1002
}
1002
{
1070
   104
1000

1002
}
1002
{
1070
   105
1000

1002
}
  0
LWPOLYLINE
  5
DB
330
70
100
AcDbEntity
  8
A-AREA-BNDY
100
AcDbPolyline
 90
        5
 70
   129
 43
0.0
 10
-1767.318458586825
 20
410.3314221838237
 10
-1767.318458586824
 20
638.3314221838237
 10
-1916.318458586825
 20
638.3314221838244
 10
-1916.318458586825
 20
413.8314221838247
 10
-1916.318458586825
 20
410.3314221838244
1001
REVIT
1002
{
1070
     1
1000
5183101
1002
}
1002
{
1070
     2
1000
-2000829
1002
}
1002
{
1070
   101
1000
GRAD. OFFICE
1002
}
1002
{
1070
   102
1000
FC-118
1002
}
1002
{
1070
   103
1000

1002
}
1002
{
1070
   104
1000

1002
}
1002
{
1070
   105
1000

1002
}
  0
LWPOLYLINE
  5
DC
330
70
100
AcDbEntity
  8
A-AREA-BNDY
100
AcDbPolyline
 90
        9
 70
   129
 43
0.0
 10
-1711.318458586823
 20
749.3314221838244
 10
-1711.318458586822
 20
875.3314221838248
 10
-1759.318458586822
 20
875.3314221838248
 10
-1759.318458586824
 20
640.8314221838239
 10
-1759.318458586824
 20
407.8314221838237
 10
-1759.318458586825
 20
236.8314221838234
 10
-1759.318458586826
 20
69.33142218382328
 10
-1711.318458586826
 20
69.33142218382328
 10
-1711.318458586824
 20
409.3314221838237
1001
REVIT
1002
{
1070
     1
1000
5183104
1002
}
1002
{
1070
     2
1000
-2000829
1002
}
1002
{
1070
   101
1000
CORRIDOR
1002
}
1002
{
1070
   102
1000
FC-119
1002
}
1002
{
1070
   103
1000

1002
}
1002
{
1070
   104
1000

1002
}
1002
{
1070
   105
1000

1002
}
  0
LWPOLYLINE
  5
DD
330
70
100
AcDbEntity
  8
A-AREA-BNDY
100
AcDbPolyline
 90
        5
 70
   129
 43
0.0
 10
-2072.318458586826
 20
641.3314221838251
 10
-2072.318458586827
 20
416.3314221838247
 10
-1924.318458586825
 20
416.3314221838245
 10
-1924.318458586825
 20
640.8314221838245
 10
-1924.318458586825
 20
641.3314221838244
1001
REVIT
1002
{
1070
     1
1000
5183107
1002
}
1002
{
1070
     2
1000
-2000829
1002
}
1002
{
1070
   101
1000
GRAD. OFFICE
1002
}
1002
{
1070
   102
1000
FC-120
1002
}
1002
{
1070
   103
1000

1002
}
1002
{
1070
   104
1000

1002
}
1002
{
1070
   105
1000

1002
}
  0
LWPOLYLINE
  5
DE
330
70
100
AcDbEntity
  8
A-AREA-BNDY
100
AcDbPolyline
 90
        4
 70
   129
 43
0.0
 10
-2072.318458586825
 20
871.3314221838253
 10
-2072.318458586826
 20
646.3314221838253
 10
-1924.318458586825
 20
646.3314221838246
 10
-1924.318458586825
 20
871.3314221838249
1001
REVIT
1002
{
1070
     1
1000
5183110
1002
}
1002
{
1070
     2
1000
-2000829
1002
}
1002
{
1070
   101
1000
OFFICE
1002
}
1002
{
1070
   102
1000
FC-121
1002
}
1002
{
1070
   103
1000

1002
}
1002
{
1070
   104
1000

1002
}
1002
{
1070
   105
1000

1002
}
  0
LWPOLYLINE
  5
DF
330
70
100
AcDbEntity
  8
A-AREA-BNDY
100
AcDbPolyline
 90
        6
 70
   129
 43
0.0
 10
-2091.818458586819
 20
1094.331422183825
 10
-2295.318458586824
 20
1094.331422183826
 10
-2295.318458586826
 20
942.3314221838259
 10
-2144.318458586825
 20
942.3314221838252
 10
-2144.318458586825
 20
945.3314221838253
 10
-2091.81845858682
 20
945.3314221838253
1001
REVIT
1002
{
1070
     1
1000
5183113
1002
}
1002
{
1070
     2
1000
-2000829
1002
}
1002
{
1070
   101
1000
OFFICE
1002
}
1002
{
1070
   102
1000
FC-115
1002
}
1002
{
1070
   103
1000

1002
}
1002
{
1070
   104
1000

1002
}
1002
{
1070
   105
1000

1002
}
  0
LWPOLYLINE
  5
E0
330
70
100
AcDbEntity
  8
A-AREA-BNDY
100
AcDbPolyline
 90
        5
 70
   129
 43
0.0
 10
-2295.318458586826
 20
934.3314221838257
 10
-2295.318458586826
 20
782.3314221838254
 10
-2148.318458586826
 20
782.3314221838248
 10
-2148.318458586826
 20
879.3314221838262
 10
-2148.318458586825
 20
934.3314221838253
1001
REVIT
1002
{
1070
     1
1000
5183185
1002
}
1002
{
1070
     2
1000
-2000829
1002
}
1002
{
1070
   101
1000
OFFICE
1002
}
1002
{
1070
   102
1000
FC-122
1002
}
1002
{
1070
   103
1000

1002
}
1002
{
1070
   104
1000

1002
}
1002
{
1070
   105
1000

1002
}
  0
LWPOLYLINE
  5
E1
330
70
100
AcDbEntity
  8
A-AREA-BNDY
100
AcDbPolyline
 90
        4
 70
   129
 43
0.0
 10
-2295.318458586826
 20
774.3314221838252
 10
-2295.318458586827
 20
655.3314221838253
 10
-2148.318458586826
 20
655.331422183825
 10
-2148.318458586826
 20
774.3314221838248
1001
REVIT
1002
{
1070
     1
1000
5183191
1002
}
1002
{
1070
     2
1000
-2000829
1002
}
1002
{
1070
   101
1000
OFFICE
1002
}
1002
{
1070
   102
1000
FC-123
1002
}
1002
{
1070
   103
1000

1002
}
1002
{
1070
   104
1000

1002
}
1002
{
1070
   105
1000

1002
}
  0
LWPOLYLINE
  5
E2
330
70
100
AcDbEntity
  8
A-AREA-BNDY
100
AcDbPolyline
 90
        4
 70
   129
 43
0.0
 10
-2295.318458586827
 20
647.3314221838254
 10
-2295.318458586827
 20
528.3314221838256
 10
-2148.318458586827
 20
528.3314221838248
 10
-2148.318458586826
 20
647.3314221838247
1001
REVIT
1002
{
1070
     1
1000
5183194
1002
}
1002
{
1070
     2
1000
-2000829
1002
}
1002
{
1070
   101
1000
OFFICE
1002
}
1002
{
1070
   102
1000
FC-124
1002
}
1002
{
1070
   103
1000

1002
}
1002
{
1070
   104
1000

1002
}
1002
{
1070
   105
1000

1002
}
  0
LWPOLYLINE
  5
E3
330
70
100
AcDbEntity
  8
A-AREA-BNDY
100
AcDbPolyline
 90
        4
 70
   129
 43
0.0
 10
-2295.318458586827
 20
520.3314221838253
 10
-2295.318458586828
 20
401.3314221838252
 10
-2148.318458586828
 20
401.3314221838248
 10
-2148.318458586827
 20
520.3314221838249
1001
REVIT
1002
{
1070
     1
1000
5183197
1002
}
1002
{
1070
     2
1000
-2000829
1002
}
1002
{
1070
   101
1000
OFFICE
1002
}
1002
{
1070
   102
1000
FC-125
1002
}
1002
{
1070
   103
1000

1002
}
1002
{
1070
   104
1000

1002
}
1002
{
1070
   105
1000

1002
}
  0
LWPOLYLINE
  5
E4
330
70
100
AcDbEntity
  8
A-AREA-BNDY
100
AcDbPolyline
 90
        4
 70
   129
 43
0.0
 10
-2295.318458586828
 20
393.3314221838253
 10
-2295.318458586828
 20
274.3314221838251
 10
-2148.318458586828
 20
274.3314221838244
 10
-2148.318458586828
 20
393.3314221838249
1001
REVIT
1002
{
1070
     1
1000
5183200
1002
}
1002
{
1070
     2
1000
-2000829
1002
}
1002
{
1070
   101
1000
OFFICE
1002
}
1002
{
1070
   102
1000
FC-126
1002
}
1002
{
1070
   103
1000

1002
}
1002
{
1070
   104
1000

1002
}
1002
{
1070
   105
1000

1002
}
  0
LWPOLYLINE
  5
E5
330
70
100
AcDbEntity
  8
A-AREA-BNDY
100
AcDbPolyline
 90
       13
 70
   129
 43
0.0
 10
-2080.318458586829
 20
69.3314221838243
 10
-2080.318458586829
 20
146.8314221838247
 10
-2080.318458586827
 20
413.8314221838247
 10
-2080.318458586826
 20
643.8314221838252
 10
-2080.318458586825
 20
879.3314221838256
 10
-2140.318458586825
 20
879.3314221838262
 10
-2140.318458586826
 20
778.3314221838247
 10
-2140.318458586826
 20
651.3314221838252
 10
-2140.318458586827
 20
524.3314221838248
 10
-2140.318458586827
 20
397.3314221838247
 10
-2140.318458586829
 20
270.3314221838246
 10
-2140.318458586829
 20
143.3314221838245
 10
-2140.318458586829
 20
69.33142218382464
1001
REVIT
1002
{
1070
     1
1000
5183203
1002
}
1002
{
1070
     2
1000
-2000829
1002
}
1002
{
1070
   101
1000
CORRIDOR
1002
}
1002
{
1070
   102
1000
FC-127
1002
}
1002
{
1070
   103
1000

1002
}
1002
{
1070
   104
1000

1002
}
1002
{
1070
   105
1000

1002
}
  0
LWPOLYLINE
  5
E6
330
70
100
AcDbEntity
  8
A-AREA-BNDY
100
AcDbPolyline
 90
        7
 70
   129
 43
0.0
 10
-2072.318458586827
 20
411.3314221838249
 10
-2072.318458586828
 20
149.3314221838245
 10
-1942.818458586826
 20
149.3314221838241
 10
-1924.318458586826
 20
149.3314221838241
 10
-1924.318458586826
 20
236.831422183824
 10
-1924.318458586825
 20
407.8314221838243
 10
-1924.318458586825
 20
411.3314221838242
1001
REVIT
1002
{
1070
     1
1000
5183206
1002
}
1002
{
1070
     2
1000
-2000829
1002
}
1002
{
1070
   101
1000
MEETING ROOM
1002
}
1002
{
1070
   102
1000
FC-128
1002
}
1002
{
1070
   103
1000

1002
}
1002
{
1070
   104
1000

1002
}
1002
{
1070
   105
1000

1002
}
  0
LWPOLYLINE
  5
E7
330
70
100
AcDbEntity
  8
A-AREA-BNDY
100
AcDbPolyline
 90
        4
 70
   129
 43
0.0
 10
-1767.318458586826
 20
239.3314221838235
 10
-1767.318458586825
 20
405.3314221838236
 10
-1916.318458586825
 20
405.3314221838242
 10
-1916.318458586825
 20
239.3314221838242
1001
REVIT
1002
{
1070
     1
1000
5183209
1002
}
1002
{
1070
     2
1000
-2000829
1002
}
1002
{
1070
   101
1000
OFFICE
1002
}
1002
{
1070
   102
1000
FC-129
1002
}
1002
{
1070
   103
1000

1002
}
1002
{
1070
   104
1000

1002
}
1002
{
1070
   105
1000

1002
}
  0
LWPOLYLINE
  5
E8
330
70
100
AcDbEntity
  8
A-AREA-BNDY
100
AcDbPolyline
 90
        6
 70
   129
 43
0.0
 10
-1767.318458586826
 20
73.33142218382305
 10
-1767.318458586826
 20
234.3314221838236
 10
-1916.318458586825
 20
234.3314221838243
 10
-1916.318458586826
 20
144.3314221838239
 10
-1940.318458586826
 20
144.3314221838243
 10
-1940.318458586827
 20
73.33142218382374
1001
REVIT
1002
{
1070
     1
1000
5183212
1002
}
1002
{
1070
     2
1000
-2000829
1002
}
1002
{
1070
   101
1000
OFFICE
1002
}
1002
{
1070
   102
1000
FC-130
1002
}
1002
{
1070
   103
1000

1002
}
1002
{
1070
   104
1000

1002
}
1002
{
1070
   105
1000

1002
}
  0
LWPOLYLINE
  5
E9
330
70
100
AcDbEntity
  8
A-AREA-BNDY
100
AcDbPolyline
 90
        4
 70
   129
 43
0.0
 10
-2072.318458586828
 20
144.3314221838246
 10
-2072.318458586829
 20
73.33142218382407
 10
-1945.318458586827
 20
73.33142218382374
 10
-1945.318458586826
 20
144.3314221838243
1001
REVIT
1002
{
1070
     1
1000
5183215
1002
}
1002
{
1070
     2
1000
-2000829
1002
}
1002
{
1070
   101
1000
RESTROOM
1002
}
1002
{
1070
   102
1000
FC-131
1002
}
1002
{
1070
   103
1000

1002
}
1002
{
1070
   104
1000

1002
}
1002
{
1070
   105
1000

1002
}
  0
LWPOLYLINE
  5
EA
330
70
100
AcDbEntity
  8
A-AREA-BNDY
100
AcDbPolyline
 90
        4
 70
   129
 43
0.0
 10
-2295.318458586828
 20
266.3314221838248
 10
-2295.318458586829
 20
147.331422183825
 10
-2148.318458586829
 20
147.3314221838243
 10
-2148.318458586828
 20
266.3314221838245
1001
REVIT
1002
{
1070
     1
1000
5183218
1002
}
1002
{
1070
     2
1000
-2000829
1002
}
1002
{
1070
   101
1000
OFFICE
1002
}
1002
{
1070
   102
1000
FC-132
1002
}
1002
{
1070
   103
1000

1002
}
1002
{
1070
   104
1000

1002
}
1002
{
1070
   105
1000

1002
}
  0
LWPOLYLINE
  5
EB
330
70
100
AcDbEntity
  8
A-AREA-BNDY
100
AcDbPolyline
 90
        5
 70
   129
 43
0.0
 10
-2295.318458586829
 20
139.3314221838251
 10
-2295.31845858683
 20
20.33142218382488
 10
-2148.31845858683
 20
20.33142218382454
 10
-2148.31845858683
 20
69.33142218382464
 10
-2148.318458586829
 20
139.3314221838244
1001
REVIT
1002
{
1070
     1
1000
5183221
1002
}
1002
{
1070
     2
1000
-2000829
1002
}
1002
{
1070
   101
1000
OFFICE
1002
}
1002
{
1070
   102
1000
FC-133
1002
}
1002
{
1070
   103
1000

1002
}
1002
{
1070
   104
1000

1002
}
1002
{
1070
   105
1000

1002
}
  0
LWPOLYLINE
  5
EC
330
70
100
AcDbEntity
  8
A-AREA-BNDY
100
AcDbPolyline
 90
        6
 70
   129
 43
0.0
 10
-2295.318458586831
 20
-150.6685778161758
 10
-2095.318458586827
 20
-150.6685778161761
 10
-2095.318458586827
 20
-2.668577816176024
 10
-2148.31845858683
 20
-2.668577816176024
 10
-2148.31845858683
 20
12.33142218382431
 10
-2295.31845858683
 20
12.33142218382465
1001
REVIT
1002
{
1070
     1
1000
5183224
1002
}
1002
{
1070
     2
1000
-2000829
1002
}
1002
{
1070
   101
1000
OFFICE
1002
}
1002
{
1070
   102
1000
FC-134
1002
}
1002
{
1070
   103
1000

1002
}
1002
{
1070
   104
1000

1002
}
1002
{
1070
   105
1000

1002
}
  0
LWPOLYLINE
  5
ED
330
70
100
AcDbEntity
  8
A-AREA-BNDY
100
AcDbPolyline
 90
        4
 70
   129
 43
0.0
 10
-2087.318458586828
 20
-150.6685778161761
 10
-1967.318458586827
 20
-150.6685778161761
 10
-1967.318458586826
 20
-2.668577816176707
 10
-2087.318458586826
 20
-2.668577816176024
1001
REVIT
1002
{
1070
     1
1000
5183227
1002
}
1002
{
1070
     2
1000
-2000829
1002
}
1002
{
1070
   101
1000
OFFICE
1002
}
1002
{
1070
   102
1000
FC-135
1002
}
1002
{
1070
   103
1000

1002
}
1002
{
1070
   104
1000

1002
}
1002
{
1070
   105
1000

1002
}
  0
LWPOLYLINE
  5
EE
330
70
100
AcDbEntity
  8
A-AREA-BNDY
100
AcDbPolyline
 90
        4
 70
   129
 43
0.0
 10
-1959.318458586827
 20
-150.6685778161761
 10
-1839.318458586827
 20
-150.6685778161764
 10
-1839.318458586826
 20
-2.668577816177048
 10
-1959.318458586827
 20
-2.668577816176707
1001
REVIT
1002
{
1070
     1
1000
5183230
1002
}
1002
{
1070
     2
1000
-2000829
1002
}
1002
{
1070
   101
1000
OFFICE
1002
}
1002
{
1070
   102
1000
FC-136
1002
}
1002
{
1070
   103
1000

1002
}
1002
{
1070
   104
1000

1002
}
1002
{
1070
   105
1000

1002
}
  0
LWPOLYLINE
  5
EF
330
70
100
AcDbEntity
  8
A-AREA-BNDY
100
AcDbPolyline
 90
       17
 70
   129
 43
0.0
 10
-1707.318458586826
 20
5.331422183822836
 10
-1571.318458586827
 20
5.331422183822154
 10
-1393.318458586827
 20
5.331422183821472
 10
-1393.318458586827
 20
65.3314221838218
 10
-1707.318458586826
 20
65.33142218382282
 10
-1707.318458586826
 20
69.33142218382328
 10
-1763.318458586826
 20
69.33142218382328
 10
-1763.318458586827
 20
65.33142218382316
 10
-1942.818458586826
 20
65.33142218382384
 10
-2076.318458586829
 20
65.33142218382419
 10
-2076.318458586829
 20
69.3314221838243
 10
-2140.318458586829
 20
69.33142218382464
 10
-2140.31845858683
 20
16.33142218382442
 10
-2140.31845858683
 20
5.33142218382386
 10
-2091.318458586826
 20
5.33142218382386
 10
-1963.318458586826
 20
5.331422183823518
 10
-1835.318458586827
 20
5.331422183823177
1001
REVIT
1002
{
1070
     1
1000
5183233
1002
}
1002
{
1070
     2
1000
-2000829
1002
}
1002
{
1070
   101
1000
CORRIDOR
1002
}
1002
{
1070
   102
1000
FC-137
1002
}
1002
{
1070
   103
1000

1002
}
1002
{
1070
   104
1000

1002
}
1002
{
1070
   105
1000

1002
}
  0
LWPOLYLINE
  5
F0
330
70
100
AcDbEntity
  8
A-AREA-BNDY
100
AcDbPolyline
 90
        4
 70
   129
 43
0.0
 10
-1831.318458586827
 20
-150.6685778161764
 10
-1711.318458586828
 20
-150.6685778161768
 10
-1711.318458586826
 20
-2.668577816177389
 10
-1831.318458586826
 20
-2.668577816177048
1001
REVIT
1002
{
1070
     1
1000
5183236
1002
}
1002
{
1070
     2
1000
-2000829
1002
}
1002
{
1070
   101
1000
OFFICE
1002
}
1002
{
1070
   102
1000
FC-138
1002
}
1002
{
1070
   103
1000

1002
}
1002
{
1070
   104
1000

1002
}
1002
{
1070
   105
1000

1002
}
  0
LWPOLYLINE
  5
F1
330
70
100
AcDbEntity
  8
A-AREA-BNDY
100
AcDbPolyline
 90
        4
 70
   129
 43
0.0
 10
-1703.318458586827
 20
-150.6685778161768
 10
-1575.318458586828
 20
-150.6685778161771
 10
-1575.318458586826
 20
-2.668577816178071
 10
-1703.318458586826
 20
-2.668577816177389
1001
REVIT
1002
{
1070
     1
1000
5183239
1002
}
1002
{
1070
     2
1000
-2000829
1002
}
1002
{
1070
   101
1000
OFFICE
1002
}
1002
{
1070
   102
1000
FC-139
1002
}
1002
{
1070
   103
1000

1002
}
1002
{
1070
   104
1000

1002
}
1002
{
1070
   105
1000

1002
}
  0
LWPOLYLINE
  5
F2
330
70
100
AcDbEntity
  8
A-AREA-BNDY
100
AcDbPolyline
 90
        6
 70
   129
 43
0.0
 10
-1567.318458586827
 20
-150.6685778161771
 10
-1369.318458586829
 20
-150.6685778161771
 10
-1353.318458586827
 20
-150.6685778161771
 10
-1353.318458586826
 20
-2.668577816178753
 10
-1389.318458586827
 20
-2.668577816178753
 10
-1567.318458586826
 20
-2.668577816178071
1001
REVIT
1002
{
1070
     1
1000
5183242
1002
}
1002
{
1070
     2
1000
-2000829
1002
}
1002
{
1070
   101
1000
RECEPTION
1002
}
1002
{
1070
   102
1000
FC-140
1002
}
1002
{
1070
   103
1000

1002
}
1002
{
1070
   104
1000

1002
}
1002
{
1070
   105
1000

1002
}
  0
LWPOLYLINE
  5
F3
330
70
100
AcDbEntity
  8
A-AREA-BNDY
100
AcDbPolyline
 90
        5
 70
   129
 43
0.0
 10
-1389.318458586827
 20
73.33142218382203
 10
-1353.318458586826
 20
73.33142218382168
 10
-1353.318458586824
 20
405.3314221838228
 10
-1703.318458586824
 20
405.3314221838239
 10
-1703.318458586826
 20
73.3314221838227
1001
REVIT
1002
{
1070
     1
1000
5183248
1002
}
1002
{
1070
     2
1000
-2000829
1002
}
1002
{
1070
   101
1000
COMPUTER LAB
1002
}
1002
{
1070
   102
1000
FC-141
1002
}
1002
{
1070
   103
1000

1002
}
1002
{
1070
   104
1000

1002
}
1002
{
1070
   105
1000

1002
}
  0
LWPOLYLINE
  5
F4
330
70
100
AcDbEntity
  8
A-AREA-BNDY
100
AcDbPolyline
 90
        7
 70
   129
 43
0.0
 10
-1353.318458586822
 20
745.3314221838226
 10
-1512.81845858682
 20
745.3314221838232
 10
-1640.81845858682
 20
745.3314221838239
 10
-1703.318458586823
 20
745.3314221838239
 10
-1703.318458586824
 20
413.3314221838241
 10
-1353.318458586824
 20
413.3314221838228
 10
-1353.318458586823
 20
667.3589509377076
1001
REVIT
1002
{
1070
     1
1000
5183251
1002
}
1002
{
1070
     2
1000
-2000829
1002
}
1002
{
1070
   101
1000
CLASSROOM
1002
}
1002
{
1070
   102
1000
FC-142
1002
}
1002
{
1070
   103
1000

1002
}
1002
{
1070
   104
1000

1002
}
1002
{
1070
   105
1000

1002
}
  0
LWPOLYLINE
  5
F5
330
70
100
AcDbEntity
  8
A-AREA-BNDY
100
AcDbPolyline
 90
       36
 70
   129
 43
0.0
 10
-921.3184585868219
 20
579.3589509377057
 10
-921.3184585868216
 20
663.3589509377058
 10
-1120.318458586821
 20
663.3589509377064
 10
-1120.318458586821
 20
667.3589509377069
 10
-1228.81845858682
 20
667.3589509377072
 10
-1228.81845858682
 20
663.3589509377071
 10
-1345.318458586823
 20
663.3589509377075
 10
-1345.318458586824
 20
409.3314221838223
 10
-1345.318458586826
 20
65.33142218382145
 10
-1385.318458586827
 20
65.3314221838218
 10
-1385.318458586827
 20
5.331422183821472
 10
-1345.318458586826
 20
5.331422183821472
 10
-1345.318458586827
 20
-158.6685778161773
 10
-1361.318458586828
 20
-158.6685778161773
 10
-1361.318458586829
 20
-741.1968278777395
 10
-1253.318458586829
 20
-741.1968278777395
 10
-1253.318458586829
 20
-623.1968278777404
 10
-1277.318458586826
 20
-623.1968278777404
 10
-1277.318458586826
 20
-442.6410490622942
 10
-1229.318458586827
 20
-442.6410490622942
 10
-1229.318458586826
 20
-366.6410490622938
 10
-1277.318458586825
 20
-366.6410490622938
 10
-1277.318458586825
 20
-310.6410490622943
 10
-1277.318458586825
 20
-134.6410490622933
 10
-1229.318458586826
 20
-134.6410490622937
 10
-1229.318458586825
 20
-58.64104906229362
 10
-1277.318458586825
 20
-58.64104906229362
 10
-1277.318458586825
 20
-2.641049062293404
 10
-1277.318458586824
 20
173.3589509377068
 10
-1229.318458586824
 20
173.3589509377068
 10
-1229.318458586824
 20
249.3589509377069
 10
-1277.318458586824
 20
249.3589509377069
 10
-1277.318458586824
 20
305.3589509377068
 10
-1277.318458586824
 20
495.3589509377072
 10
-1229.318458586822
 20
495.3589509377068
 10
-1229.318458586822
 20
579.3589509377068
1001
REVIT
1002
{
1070
     1
1000
5183254
1002
}
1002
{
1070
     2
1000
-2000829
1002
}
1002
{
1070
   101
1000
CORRIDOR
1002
}
1002
{
1070
   102
1000
FC-143
1002
}
1002
{
1070
   103
1000

1002
}
1002
{
1070
   104
1000

1002
}
1002
{
1070
   105
1000

1002
}
  0
LWPOLYLINE
  5
F6
330
70
100
AcDbEntity
  8
A-AREA-BNDY
100
AcDbPolyline
 90
        8
 70
   129
 43
0.0
 10
-921.3184585868233
 20
283.3589509377056
 10
-921.3184585868219
 20
571.3589509377059
 10
-1221.318458586822
 20
571.3589509377069
 10
-1221.318458586823
 20
487.3589509377066
 10
-1269.318458586824
 20
487.358950937707
 10
-1269.318458586824
 20
309.3589509377066
 10
-1221.318458586824
 20
309.3589509377062
 10
-1221.318458586824
 20
283.3589509377067
1001
REVIT
1002
{
1070
     1
1000
5183257
1002
}
1002
{
1070
     2
1000
-2000829
1002
}
1002
{
1070
   101
1000
CLASSROOM
1002
}
1002
{
1070
   102
1000
FC-144
1002
}
1002
{
1070
   103
1000

1002
}
1002
{
1070
   104
1000

1002
}
1002
{
1070
   105
1000

1002
}
  0
LWPOLYLINE
  5
F7
330
70
100
AcDbEntity
  8
A-AREA-BNDY
100
AcDbPolyline
 90
       10
 70
   129
 43
0.0
 10
-921.3184585868249
 20
-24.64104906229454
 10
-921.3184585868246
 20
18.30317212225884
 10
-921.3184585868233
 20
275.3589509377057
 10
-1221.318458586824
 20
275.3589509377064
 10
-1221.318458586824
 20
253.3589509377067
 10
-1221.318458586824
 20
165.3589509377065
 10
-1269.318458586824
 20
165.3589509377065
 10
-1269.318458586825
 20
1.358950937706367
 10
-1221.318458586825
 20
1.358950937706367
 10
-1221.318458586825
 20
-24.64104906229386
1001
REVIT
1002
{
1070
     1
1000
5183260
1002
}
1002
{
1070
     2
1000
-2000829
1002
}
1002
{
1070
   101
1000
CLASSROOM
1002
}
1002
{
1070
   102
1000
FC-145
1002
}
1002
{
1070
   103
1000

1002
}
1002
{
1070
   104
1000

1002
}
1002
{
1070
   105
1000

1002
}
  0
LWPOLYLINE
  5
F8
330
70
100
AcDbEntity
  8
A-AREA-BNDY
100
AcDbPolyline
 90
        9
 70
   129
 43
0.0
 10
-921.3184585868267
 20
-332.6410490622951
 10
-921.3184585868249
 20
-32.64104906229476
 10
-1221.318458586825
 20
-32.64104906229374
 10
-1221.318458586825
 20
-54.64104906229351
 10
-1221.318458586826
 20
-142.6410490622936
 10
-1269.318458586825
 20
-142.6410490622932
 10
-1269.318458586826
 20
-306.6410490622938
 10
-1221.318458586826
 20
-306.6410490622945
 10
-1221.318458586827
 20
-332.6410490622937
1001
REVIT
1002
{
1070
     1
1000
5183263
1002
}
1002
{
1070
     2
1000
-2000829
1002
}
1002
{
1070
   101
1000
CLASSROOM
1002
}
1002
{
1070
   102
1000
FC-146
1002
}
1002
{
1070
   103
1000

1002
}
1002
{
1070
   104
1000

1002
}
1002
{
1070
   105
1000

1002
}
  0
LWPOLYLINE
  5
F9
330
70
100
AcDbEntity
  8
A-AREA-BNDY
100
AcDbPolyline
 90
        9
 70
   129
 43
0.0
 10
-921.3184585868281
 20
-615.1968278777416
 10
-921.3184585868267
 20
-340.6410490622953
 10
-1221.318458586827
 20
-340.6410490622939
 10
-1221.318458586827
 20
-362.641049062294
 10
-1221.318458586827
 20
-450.6410490622938
 10
-1269.318458586826
 20
-450.6410490622938
 10
-1269.318458586826
 20
-615.1968278777403
 10
-1253.318458586828
 20
-615.1968278777403
 10
-1161.318458586828
 20
-615.1968278777409
1001
REVIT
1002
{
1070
     1
1000
5183266
1002
}
1002
{
1070
     2
1000
-2000829
1002
}
1002
{
1070
   101
1000
CLASSROOM
1002
}
1002
{
1070
   102
1000
FC-147
1002
}
1002
{
1070
   103
1000

1002
}
1002
{
1070
   104
1000

1002
}
1002
{
1070
   105
1000

1002
}
  0
LWPOLYLINE
  5
FA
330
70
100
AcDbEntity
  8
A-AREA-BNDY
100
AcDbPolyline
 90
       11
 70
   129
 43
0.0
 10
-921.3184585868285
 20
-706.1968278777413
 10
-921.3184585868281
 20
-623.1968278777411
 10
-1161.318458586828
 20
-623.1968278777411
 10
-1161.318458586829
 20
-755.1968278777405
 10
-1095.318458586828
 20
-755.1968278777405
 10
-1095.318458586828
 20
-825.1968278777416
 10
-1042.318458586829
 20
-825.1968278777416
 10
-1020.318458586829
 20
-825.1968278777416
 10
-985.3184585868286
 20
-825.1968278777416
 10
-985.3184585868286
 20
-759.1968278777409
 10
-985.3184585868282
 20
-706.1968278777413
1001
REVIT
1002
{
1070
     1
1000
5183269
1002
}
1002
{
1070
     2
1000
-2000829
1002
}
1002
{
1070
   101
1000
CORRIDOR
1002
}
1002
{
1070
   102
1000
FC-148
1002
}
1002
{
1070
   103
1000

1002
}
1002
{
1070
   104
1000

1002
}
1002
{
1070
   105
1000

1002
}
  0
LWPOLYLINE
  5
FB
330
70
100
AcDbEntity
  8
A-AREA-BNDY
100
AcDbPolyline
 90
        5
 70
   129
 43
0.0
 10
-921.3184585868289
 20
-755.1968278777411
 10
-921.3184585868285
 20
-733.1968278777393
 10
-921.3184585868285
 20
-714.1968278777416
 10
-977.3184585868287
 20
-714.1968278777416
 10
-977.3184585868287
 20
-755.1968278777411
1001
REVIT
1002
{
1070
     1
1000
5183272
1002
}
1002
{
1070
     2
1000
-2000829
1002
}
1002
{
1070
   101
1000
JAN.
1002
}
1002
{
1070
   102
1000
FC-149
1002
}
1002
{
1070
   103
1000

1002
}
1002
{
1070
   104
1000

1002
}
1002
{
1070
   105
1000

1002
}
  0
LWPOLYLINE
  5
FC
330
70
100
AcDbEntity
  8
A-AREA-BNDY
100
AcDbPolyline
 90
        7
 70
   129
 43
0.0
 10
-1018.31845858683
 20
-1035.196827877741
 10
-921.3184585868301
 20
-1035.196827877741
 10
-921.3184585868294
 20
-891.6567220182372
 10
-921.3184585868289
 20
-763.1968278777414
 10
-977.3184585868287
 20
-763.1968278777414
 10
-977.3184585868291
 20
-833.1968278777411
 10
-1018.318458586829
 20
-833.1968278777411
1001
REVIT
1002
{
1070
     1
1000
5183275
1002
}
1002
{
1070
     2
1000
-2000829
1002
}
1002
{
1070
   101
1000
MEN'S RESTROOM
1002
}
1002
{
1070
   102
1000
FC-150
1002
}
1002
{
1070
   103
1000

1002
}
1002
{
1070
   104
1000

1002
}
1002
{
1070
   105
1000

1002
}
  0
LWPOLYLINE
  5
FD
330
70
100
AcDbEntity
  8
A-AREA-BNDY
100
AcDbPolyline
 90
        7
 70
   129
 43
0.0
 10
-1157.31845858683
 20
-1035.196827877741
 10
-1044.31845858683
 20
-1035.196827877741
 10
-1044.318458586829
 20
-833.1968278777404
 10
-1103.318458586829
 20
-833.1968278777404
 10
-1103.318458586828
 20
-763.1968278777414
 10
-1157.318458586829
 20
-763.1968278777414
 10
-1157.318458586829
 20
-855.1968278777403
1001
REVIT
1002
{
1070
     1
1000
5183278
1002
}
1002
{
1070
     2
1000
-2000829
1002
}
1002
{
1070
   101
1000
WOMEN'S RESTROOM
1002
}
1002
{
1070
   102
1000
FC-151
1002
}
1002
{
1070
   103
1000

1002
}
1002
{
1070
   104
1000

1002
}
1002
{
1070
   105
1000

1002
}
  0
LWPOLYLINE
  5
FE
330
70
100
AcDbEntity
  8
A-AREA-BNDY
100
AcDbPolyline
 90
        5
 70
   129
 43
0.0
 10
-1361.318458586829
 20
-1035.196827877741
 10
-1165.31845858683
 20
-1035.196827877741
 10
-1165.318458586829
 20
-859.1968278777407
 10
-1253.318458586829
 20
-859.19682787774
 10
-1361.318458586829
 20
-859.1968278777393
1001
REVIT
1002
{
1070
     1
1000
5183281
1002
}
1002
{
1070
     2
1000
-2000829
1002
}
1002
{
1070
   101
1000
MEETING/LOUNGE
1002
}
1002
{
1070
   102
1000
FC-152
1002
}
1002
{
1070
   103
1000

1002
}
1002
{
1070
   104
1000

1002
}
1002
{
1070
   105
1000

1002
}
  0
LWPOLYLINE
  5
FF
330
70
100
AcDbEntity
  8
A-AREA-BNDY
100
AcDbPolyline
 90
        4
 70
   129
 43
0.0
 10
-1361.318458586829
 20
-749.1968278777398
 10
-1361.318458586829
 20
-851.1968278777398
 10
-1257.318458586829
 20
-851.1968278777398
 10
-1257.318458586828
 20
-749.1968278777404
1001
REVIT
1002
{
1070
     1
1000
5183284
1002
}
1002
{
1070
     2
1000
-2000829
1002
}
1002
{
1070
   101
1000
VEST.
1002
}
1002
{
1070
   102
1000
FC-153
1002
}
1002
{
1070
   103
1000

1002
}
1002
{
1070
   104
1000

1002
}
1002
{
1070
   105
1000

1002
}
  0
LWPOLYLINE
  5
100
330
70
100
AcDbEntity
  8
A-AREA-BNDY
100
AcDbPolyline
 90
        6
 70
   129
 43
0.0
 10
430.1815414131846
 20
1426.331422183821
 10
430.1815414131853
 20
1534.331422183821
 10
252.1815414131843
 20
1534.331422183821
 10
183.1815414131849
 20
1534.331422183821
 10
183.1815414131849
 20
1481.331422183822
 10
183.1815414131849
 20
1426.331422183822
1001
REVIT
1002
{
1070
     1
1000
5183568
1002
}
1002
{
1070
     2
1000
-2000829
1002
}
1002
{
1070
   101
1000
CONCESSIONS
1002
}
1002
{
1070
   102
1000
B128
1002
}
1002
{
1070
   103
1000

1002
}
1002
{
1070
   104
1000

1002
}
1002
{
1070
   105
1000

1002
}
  0
LWPOLYLINE
  5
101
330
70
100
AcDbEntity
  8
A-AREA-BNDY
100
AcDbPolyline
 90
        4
 70
   129
 43
0.0
 10
430.1815414131853
 20
1542.331422183821
 10
430.1815414131853
 20
1636.331422183822
 10
256.1815414131847
 20
1636.331422183823
 10
256.1815414131847
 20
1542.331422183821
1001
REVIT
1002
{
1070
     1
1000
5183571
1002
}
1002
{
1070
     2
1000
-2000829
1002
}
1002
{
1070
   101
1000
STORAGE
1002
}
1002
{
1070
   102
1000
B129
1002
}
1002
{
1070
   103
1000

1002
}
1002
{
1070
   104
1000

1002
}
1002
{
1070
   105
1000

1002
}
  0
LWPOLYLINE
  5
102
330
70
100
AcDbEntity
  8
A-AREA-BNDY
100
AcDbPolyline
 90
        4
 70
   129
 43
0.0
 10
-442.8184585868179
 20
1060.803172122259
 10
-416.818458586818
 20
1060.803172122259
 10
-416.8184585868177
 20
1122.803172122259
 10
-442.8184585868179
 20
1122.803172122259
1001
REVIT
1002
{
1070
     1
1000
5191406
1002
}
1002
{
1070
     2
1000
-2000829
1002
}
1002
{
1070
   101
1000
STOR.
1002
}
1002
{
1070
   102
1000
??
1002
}
1002
{
1070
   103
1000

1002
}
1002
{
1070
   104
1000

1002
}
1002
{
1070
   105
1000

1002
}
  0
LWPOLYLINE
  5
103
330
70
100
AcDbEntity
  8
A-AREA-BNDY
100
AcDbPolyline
 90
        5
 70
   129
 43
0.0
 10
-372.8184585868158
 20
1636.331422183824
 10
-437.8184585868156
 20
1636.331422183824
 10
-437.818458586816
 20
1542.331422183824
 10
-372.8184585868158
 20
1542.331422183824
 10
-372.8184585868158
 20
1572.331422183824
1001
REVIT
1002
{
1070
     1
1000
5191423
1002
}
1002
{
1070
     2
1000
-2000829
1002
}
1002
{
1070
   101
1000
TIX
1002
}
1002
{
1070
   102
1000
FC-?
1002
}
1002
{
1070
   103
1000

1002
}
1002
{
1070
   104
1000

1002
}
1002
{
1070
   105
1000

1002
}
  0
LWPOLYLINE
  5
104
330
70
100
AcDbEntity
  8
A-AREA-BNDY
100
AcDbPolyline
 90
        5
 70
   129
 43
0.0
 10
248.1815414131852
 20
1636.331422183823
 10
183.1815414131849
 20
1636.331422183823
 10
183.1815414131849
 20
1572.331422183822
 10
183.1815414131849
 20
1542.331422183821
 10
248.1815414131845
 20
1542.331422183821
1001
REVIT
1002
{
1070
     1
1000
5191431
1002
}
1002
{
1070
     2
1000
-2000829
1002
}
1002
{
1070
   101
1000
TICKETS
1002
}
1002
{
1070
   102
1000
FC-130
1002
}
1002
{
1070
   103
1000

1002
}
1002
{
1070
   104
1000

1002
}
1002
{
1070
   105
1000

1002
}
  0
LWPOLYLINE
  5
105
330
70
100
AcDbEntity
  8
A-AREA-BNDY
100
AcDbPolyline
 90
        4
 70
   129
 43
0.0
 10
731.6815414131792
 20
722.8031721222544
 10
731.6815414131784
 20
653.803172122254
 10
827.6815414131785
 20
653.8031721222537
 10
827.6815414131791
 20
722.803172122254
1001
REVIT
1002
{
1070
     1
1000
5191672
1002
}
1002
{
1070
     2
1000
-2000829
1002
}
1002
{
1070
   101
1000
TELECOMM
1002
}
1002
{
1070
   102
1000
???
1002
}
1002
{
1070
   103
1000

1002
}
1002
{
1070
   104
1000

1002
}
1002
{
1070
   105
1000

1002
}
  0
INSERT
  5
10E
330
70
100
AcDbEntity
  8
G-ANNO-SYMB
370
    25
100
AcDbBlockReference
  2
Elevation - Detail Number_CE_-134675-LEVEL 2
 10
2892.831342324038
 20
147.3912571581806
 30
0.0
 41
95.99999999999994
 42
95.99999999999994
 43
95.99999999999994
 50
89.99999999999969
1001
REVIT
1002
{
1070
     1
1000
317681
1002
}
1002
{
1070
     5
1000
134756
1002
}
1002
{
1070
     2
1000
-2000535
1002
}
  0
MTEXT
  5
110
330
70
100
AcDbEntity
  8
G-ANNO-SYMB
100
AcDbMText
 10
2880.027609825763
 20
151.7651551186374
 30
0.0
 40
8.999999999999991
 41
33.02699999999997
 46
0.0
 71
     1
 72
     1
  1
A2.10
  7
Arial Narrow
 73
     2
 44
1.0
 90
        3
 63
     9
421
 13158600
 45
1.25
441
        0
1001
REVIT
1002
{
1070
     1
1000
317681
1002
}
1002
{
1070
     5
1000
134756
1002
}
1002
{
1070
     2
1000
-2000535
1002
}
  0
INSERT
  5
117
330
70
100
AcDbEntity
  8
G-ANNO-SYMB
370
    25
100
AcDbBlockReference
  2
Elevation - Detail Number_CE_-46063-LEVEL 2
 10
2868.831342324039
 20
147.3912571581808
 30
0.0
 41
95.99999999999994
 42
95.99999999999994
 43
95.99999999999994
 50
89.99999999999969
1001
REVIT
1002
{
1070
     1
1000
317682
1002
}
1002
{
1070
     5
1000
134756
1002
}
1002
{
1070
     2
1000
-2000535
1002
}
  0
MTEXT
  5
118
330
70
100
AcDbEntity
  8
G-ANNO-SYMB
100
AcDbMText
 10
2856.370875459169
 20
152.2793242550176
 30
0.0
 40
8.999999999999991
 41
6.96899999999999
 46
0.0
 71
     1
 72
     1
  1
2
  7
Arial Narrow
 73
     2
 44
1.0
 90
        3
 63
     9
421
 13158600
 45
1.25
441
        0
1001
REVIT
1002
{
1070
     1
1000
317682
1002
}
1002
{
1070
     5
1000
134756
1002
}
1002
{
1070
     2
1000
-2000535
1002
}
  0
INSERT
  5
119
330
70
100
AcDbEntity
  8
G-ANNO-SYMB
370
    25
100
AcDbBlockReference
  2
Elevation - Detail Number_CE_-134675-LEVEL 2
 10
-195.9987367558392
 20
2431.948113952024
 30
0.0
 41
95.99999999999994
 42
95.99999999999994
 43
95.99999999999994
 50
89.99999999999991
1001
REVIT
1002
{
1070
     1
1000
317691
1002
}
1002
{
1070
     5
1000
134756
1002
}
1002
{
1070
     2
1000
-2000535
1002
}
  0
MTEXT
  5
11A
330
70
100
AcDbEntity
  8
G-ANNO-SYMB
100
AcDbMText
 10
-208.8024692541154
 20
2436.32201191248
 30
0.0
 40
8.999999999999991
 41
33.02699999999997
 46
0.0
 71
     1
 72
     1
  1
A2.11
  7
Arial Narrow
 73
     2
 44
1.0
 90
        3
 63
     9
421
 13158600
 45
1.25
441
        0
1001
REVIT
1002
{
1070
     1
1000
317691
1002
}
1002
{
1070
     5
1000
134756
1002
}
1002
{
1070
     2
1000
-2000535
1002
}
  0
INSERT
  5
11B
330
70
100
AcDbEntity
  8
G-ANNO-SYMB
370
    25
100
AcDbBlockReference
  2
Elevation - Detail Number_CE_-46063-LEVEL 2
 10
-195.9987367558393
 20
2407.948113952024
 30
0.0
 41
95.99999999999994
 42
95.99999999999994
 43
95.99999999999994
 50
180.0
1001
REVIT
1002
{
1070
     1
1000
317692
1002
}
1002
{
1070
     5
1000
134756
1002
}
1002
{
1070
     2
1000
-2000535
1002
}
  0
MTEXT
  5
11C
330
70
100
AcDbEntity
  8
G-ANNO-SYMB
100
AcDbMText
 10
-199.5214495219676
 20
2402.862450236761
 30
0.0
 40
8.999999999999991
 41
6.96899999999999
 46
0.0
 71
     1
 72
     1
  1
1
  7
Arial Narrow
 73
     2
 44
1.0
 90
        3
 63
     9
421
 13158600
 45
1.25
441
        0
1001
REVIT
1002
{
1070
     1
1000
317692
1002
}
1002
{
1070
     5
1000
134756
1002
}
1002
{
1070
     2
1000
-2000535
1002
}
  0
INSERT
  5
11D
330
70
100
AcDbEntity
  8
G-ANNO-SYMB
370
    25
100
AcDbBlockReference
  2
Elevation - Detail Number_CE_-134675-LEVEL 2
 10
-2503.970203353721
 20
118.0976018382054
 30
0.0
 41
95.99999999999994
 42
95.99999999999994
 43
95.99999999999994
 50
89.99999999999991
1001
REVIT
1002
{
1070
     1
1000
317701
1002
}
1002
{
1070
     5
1000
134756
1002
}
1002
{
1070
     2
1000
-2000535
1002
}
  0
MTEXT
  5
11E
330
70
100
AcDbEntity
  8
G-ANNO-SYMB
100
AcDbMText
 10
-2516.773935851996
 20
122.4714997986622
 30
0.0
 40
8.999999999999991
 41
33.02699999999997
 46
0.0
 71
     1
 72
     1
  1
A2.10
  7
Arial Narrow
 73
     2
 44
1.0
 90
        3
 63
     9
421
 13158600
 45
1.25
441
        0
1001
REVIT
1002
{
1070
     1
1000
317701
1002
}
1002
{
1070
     5
1000
134756
1002
}
1002
{
1070
     2
1000
-2000535
1002
}
  0
INSERT
  5
11F
330
70
100
AcDbEntity
  8
G-ANNO-SYMB
370
    25
100
AcDbBlockReference
  2
Elevation - Detail Number_CE_-46063-LEVEL 2
 10
2479.970203353721
 20
118.0976018382053
 30
0.0
 41
95.99999999999994
 42
95.99999999999994
 43
95.99999999999994
 50
90.00000000000012
210
0.0
220
0.0
230
-1.0
1001
REVIT
1002
{
1070
     1
1000
317702
1002
}
1002
{
1070
     5
1000
134756
1002
}
1002
{
1070
     2
1000
-2000535
1002
}
  0
MTEXT
  5
120
330
70
100
AcDbEntity
  8
G-ANNO-SYMB
100
AcDbMText
 10
-2473.519185307749
 20
122.9856689350421
 30
0.0
 40
8.999999999999991
 41
6.96899999999999
 46
0.0
 71
     1
 72
     1
  1
1
  7
Arial Narrow
 73
     2
 44
1.0
 90
        3
 63
     9
421
 13158600
 45
1.25
441
        0
1001
REVIT
1002
{
1070
     1
1000
317702
1002
}
1002
{
1070
     5
1000
134756
1002
}
1002
{
1070
     2
1000
-2000535
1002
}
  0
INSERT
  5
121
330
70
100
AcDbEntity
  8
G-ANNO-SYMB
370
    25
100
AcDbBlockReference
  2
Elevation - Detail Number_CE_-134675-LEVEL 2
 10
-455.3133075977676
 20
-1875.736633362988
 30
0.0
 41
95.99999999999994
 42
95.99999999999994
 43
95.99999999999994
 50
89.99999999999966
1001
REVIT
1002
{
1070
     1
1000
317711
1002
}
1002
{
1070
     5
1000
134756
1002
}
1002
{
1070
     2
1000
-2000535
1002
}
  0
MTEXT
  5
122
330
70
100
AcDbEntity
  8
G-ANNO-SYMB
100
AcDbMText
 10
-468.1170400960436
 20
-1871.362735402531
 30
0.0
 40
8.999999999999991
 41
33.02699999999997
 46
0.0
 71
     1
 72
     1
  1
A2.11
  7
Arial Narrow
 73
     2
 44
1.0
 90
        3
 63
     9
421
 13158600
 45
1.25
441
        0
1001
REVIT
1002
{
1070
     1
1000
317711
1002
}
1002
{
1070
     5
1000
134756
1002
}
1002
{
1070
     2
1000
-2000535
1002
}
  0
INSERT
  5
123
330
70
100
AcDbEntity
  8
G-ANNO-SYMB
370
    25
100
AcDbBlockReference
  2
Elevation - Detail Number_CE_-46063-LEVEL 2
 10
455.3133075977674
 20
-1851.736633362988
 30
0.0
 41
95.99999999999994
 42
95.99999999999994
 43
95.99999999999994
210
0.0
220
0.0
230
-1.0
1001
REVIT
1002
{
1070
     1
1000
317712
1002
}
1002
{
1070
     5
1000
134756
1002
}
1002
{
1070
     2
1000
-2000535
1002
}
  0
MTEXT
  5
124
330
70
100
AcDbEntity
  8
G-ANNO-SYMB
100
AcDbMText
 10
-458.8360203638956
 20
-1837.91081216741
 30
0.0
 40
8.999999999999991
 41
6.96899999999999
 46
0.0
 71
     1
 72
     1
  1
2
  7
Arial Narrow
 73
     2
 44
1.0
 90
        3
 63
     9
421
 13158600
 45
1.25
441
        0
1001
REVIT
1002
{
1070
     1
1000
317712
1002
}
1002
{
1070
     5
1000
134756
1002
}
1002
{
1070
     2
1000
-2000535
1002
}
  0
INSERT
  5
12B
330
70
100
AcDbEntity
  8
S-GRID-IDEN
100
AcDbBlockReference
  2
Grid - Grid Head-Circle_CE_-46466-LEVEL 2
 10
-2494.085063815472
 20
-1849.694731548292
 30
0.0
 41
95.99999999999994
 42
95.99999999999994
 43
95.99999999999994
1001
REVIT
1002
{
1070
     1
1000
4532416
1002
}
1002
{
1070
     5
1000
1952
1002
}
1002
{
1070
     2
1000
-2006040
1002
}
  0
MTEXT
  5
12D
330
70
100
AcDbEntity
  8
S-GRID-IDEN
370
     9
100
AcDbMText
 10
-2498.095976679105
 20
-1843.673327500704
 30
0.0
 40
11.99999999999999
 41
9.392999999999991
 46
0.0
 71
     1
 72
     1
  1
1
  7
Arial Narrow_1
 73
     2
 44
1.0
 90
        3
 63
     9
421
 13158600
 45
1.25
441
        0
1001
REVIT
1002
{
1070
     1
1000
4532416
1002
}
1002
{
1070
     5
1000
1952
1002
}
1002
{
1070
     2
1000
-2006040
1002
}
  0
LINE
  5
12F
330
70
100
AcDbEntity
  8
S-GRID
  6
Grid Line
370
    25
100
AcDbLine
 10
-2494.085063815466
 20
-461.2678839187632
 30
0.0
 11
-2494.085063815466
 21
-365.2678839187633
 31
0.0
1001
REVIT
1002
{
1070
     1
1000
4532416
1002
}
1002
{
1070
     5
1000
1952
1002
}
1002
{
1070
     2
1000
-2000220
1002
}
  0
LINE
  5
130
330
70
100
AcDbEntity
  8
S-GRID
  6
Grid Line
370
    25
100
AcDbLine
 10
-2494.085063815473
 20
-1735.694731548293
 30
0.0
 11
-2494.085063815466
 21
-461.2678839187632
 31
0.0
1001
REVIT
1002
{
1070
     1
1000
4532416
1002
}
1002
{
1070
     5
1000
1952
1002
}
1002
{
1070
     2
1000
-2000220
1002
}
  0
LINE
  5
131
330
70
100
AcDbEntity
  8
S-GRID
  6
Grid Line
370
    25
100
AcDbLine
 10
-2494.085063815473
 20
-1831.694731548293
 30
0.0
 11
-2494.085063815473
 21
-1735.694731548293
 31
0.0
1001
REVIT
1002
{
1070
     1
1000
4532416
1002
}
1002
{
1070
     5
1000
1952
1002
}
1002
{
1070
     2
1000
-2000220
1002
}
  0
INSERT
  5
132
330
70
100
AcDbEntity
  8
S-GRID-IDEN
100
AcDbBlockReference
  2
Grid - Grid Head-Circle_CE_-46466-LEVEL 2
 10
-2558.111186703421
 20
-1622.131816793579
 30
0.0
 41
95.99999999999994
 42
95.99999999999994
 43
95.99999999999994
 50
269.9999999999995
1001
REVIT
1002
{
1070
     1
1000
4532427
1002
}
1002
{
1070
     5
1000
1952
1002
}
1002
{
1070
     2
1000
-2006040
1002
}
  0
MTEXT
  5
133
330
70
100
AcDbEntity
  8
S-GRID-IDEN
370
     9
100
AcDbMText
 10
-2562.970885018038
 20
-1616.008305504749
 30
0.0
 40
11.99999999999999
 41
11.21099999999998
 46
0.0
 71
     1
 72
     1
  1
A
  7
Arial Narrow_1
 73
     2
 44
1.0
 90
        3
 63
     9
421
 13158600
 45
1.25
441
        0
1001
REVIT
1002
{
1070
     1
1000
4532427
1002
}
1002
{
1070
     5
1000
1952
1002
}
1002
{
1070
     2
1000
-2006040
1002
}
  0
LINE
  5
134
330
70
100
AcDbEntity
  8
S-GRID
  6
Grid Line
370
    25
100
AcDbLine
 10
-1235.677841535746
 20
-1622.131816793582
 30
0.0
 11
-1139.677841535746
 21
-1622.131816793582
 31
0.0
1001
REVIT
1002
{
1070
     1
1000
4532427
1002
}
1002
{
1070
     5
1000
1952
1002
}
1002
{
1070
     2
1000
-2000220
1002
}
  0
LINE
  5
135
330
70
100
AcDbEntity
  8
S-GRID
  6
Grid Line
370
    25
100
AcDbLine
 10
-2444.111186703422
 20
-1622.13181679358
 30
0.0
 11
-1235.677841535746
 21
-1622.131816793582
 31
0.0
1001
REVIT
1002
{
1070
     1
1000
4532427
1002
}
1002
{
1070
     5
1000
1952
1002
}
1002
{
1070
     2
1000
-2000220
1002
}
  0
LINE
  5
136
330
70
100
AcDbEntity
  8
S-GRID
  6
Grid Line
370
    25
100
AcDbLine
 10
-2540.111186703422
 20
-1622.13181679358
 30
0.0
 11
-2444.111186703422
 21
-1622.13181679358
 31
0.0
1001
REVIT
1002
{
1070
     1
1000
4532427
1002
}
1002
{
1070
     5
1000
1952
1002
}
1002
{
1070
     2
1000
-2000220
1002
}
  0
ENDSEC
  0
SECTION
  2
OBJECTS
  0
DICTIONARY
  5
C
330
0
100
AcDbDictionary
281
     1
  3
ACAD_CIP_PREVIOUS_PRODUCT_INFO
350
79
  3
ACAD_COLOR
350
63
  3
ACAD_DETAILVIEWSTYLE
350
6A
  3
ACAD_GROUP
350
D
  3
ACAD_IMAGE_VARS
350
7A
  3
ACAD_LAYOUT
350
62
  3
ACAD_MATERIAL
350
10
  3
ACAD_MLEADERSTYLE
350
66
  3
ACAD_MLINESTYLE
350
5F
  3
ACAD_PLOTSETTINGS
350
61
  3
ACAD_PLOTSTYLENAME
350
E
  3
ACAD_SCALELIST
350
42
  3
ACAD_SECTIONVIEWSTYLE
350
68
  3
ACAD_TABLESTYLE
350
64
  3
ACAD_VISUALSTYLE
350
29
  3
ACDB_RECOMPOSE_DATA
350
143
  3
AcDbVariableDictionary
350
7B
  3
REVIT_DICTIONARY
350
137
  0
DICTIONARY
  5
13E
330
70
100
AcDbDictionary
280
     1
281
     1
  3
ACAD_SORTENTS
360
13F
  0
XRECORD
  5
79
102
{ACAD_REACTORS
330
C
102
}
330
C
100
AcDbXrecord
280
     1
300
RVT
300
2025
300
RVT2025
  0
DICTIONARY
  5
63
102
{ACAD_REACTORS
330
C
102
}
330
C
100
AcDbDictionary
281
     1
  0
DICTIONARY
  5
6A
102
{ACAD_REACTORS
330
C
102
}
330
C
100
AcDbDictionary
281
     1
  3
Imperial24
350
6B
  0
DICTIONARY
  5
D
102
{ACAD_REACTORS
330
C
102
}
330
C
100
AcDbDictionary
281
     1
  0
RASTERVARIABLES
  5
7A
102
{ACAD_REACTORS
330
C
102
}
330
C
100
AcDbRasterVariables
 90
        0
 70
     0
 71
     1
 72
     5
  0
DICTIONARY
  5
62
102
{ACAD_REACTORS
330
C
102
}
330
C
100
AcDbDictionary
281
     1
  3
Layout1
350
6F
  3
Layout2
350
77
  3
Model
350
73
  0
DICTIONARY
  5
10
102
{ACAD_REACTORS
330
C
102
}
330
C
100
AcDbDictionary
281
     1
  3
ByBlock
350
19
  3
ByLayer
350
11
  3
Global
350
21
  0
DICTIONARY
  5
66
102
{ACAD_REACTORS
330
C
102
}
330
C
100
AcDbDictionary
281
     1
  3
Standard
350
67
  0
DICTIONARY
  5
5F
102
{ACAD_REACTORS
330
C
102
}
330
C
100
AcDbDictionary
281
     1
  3
Standard
350
60
  0
DICTIONARY
  5
61
102
{ACAD_REACTORS
330
C
102
}
330
C
100
AcDbDictionary
281
     1
  0
ACDBDICTIONARYWDFLT
  5
E
102
{ACAD_REACTORS
330
C
102
}
330
C
100
AcDbDictionary
281
     1
  3
Normal
350
F
100
AcDbDictionaryWithDefault
340
F
  0
DICTIONARY
  5
42
102
{ACAD_REACTORS
330
C
102
}
330
C
100
AcDbDictionary
281
     1
  3
A0
350
43
  3
A1
350
44
  3
A2
350
45
  3
A3
350
46
  3
A4
350
47
  3
A5
350
48
  3
A6
350
49
  3
A7
350
4A
  3
A8
350
4B
  3
A9
350
4C
  3
B0
350
4D
  3
B1
350
4E
  3
B2
350
4F
  3
B3
350
50
  3
B4
350
51
  3
B5
350
52
  3
B6
350
53
  0
DICTIONARY
  5
68
102
{ACAD_REACTORS
330
C
102
}
330
C
100
AcDbDictionary
281
     1
  3
Imperial24
350
69
  0
DICTIONARY
  5
64
102
{ACAD_REACTORS
330
C
102
}
330
C
100
AcDbDictionary
281
     1
  3
Standard
350
65
  0
DICTIONARY
  5
29
102
{ACAD_REACTORS
330
C
102
}
330
C
100
AcDbDictionary
281
     1
  3
2dWireframe
350
2F
  3
Basic
350
2E
  3
Brighten
350
35
  3
ColorChange
350
39
  3
Conceptual
350
32
  3
Dim
350
34
  3
EdgeColorOff
350
41
  3
Facepattern
350
38
  3
Flat
350
2A
  3
FlatWithEdges
350
2B
  3
Gouraud
350
2C
  3
GouraudWithEdges
350
2D
  3
Hidden
350
31
  3
JitterOff
350
3F
  3
Linepattern
350
37
  3
OverhangOff
350
40
  3
Realistic
350
33
  3
Shaded
350
3E
  3
Shaded with edges
350
3D
  3
Shades of Gray
350
3A
  3
Sketchy
350
3B
  3
Thicken
350
36
  3
Wireframe
350
30
  3
X-Ray
350
3C
  0
XRECORD
  5
143
102
{ACAD_REACTORS
330
C
102
}
330
C
100
AcDbXrecord
280
     1
 90
        1
330
65
  0
DICTIONARY
  5
7B
102
{ACAD_REACTORS
330
C
102
}
330
C
100
AcDbDictionary
281
     1
  3
CANNOSCALE
350
80
  3
CMLEADERSTYLE
350
7D
  3
CTABLESTYLE
350
7C
  3
CVIEWDETAILSTYLE
350
7E
  3
CVIEWSECTIONSTYLE
350
7F
  0
DICTIONARY
  5
137
102
{ACAD_REACTORS
330
C
102
}
330
C
100
AcDbDictionary
281
     1
  3
DRAWING_TOOL
350
13D
  3
REVIT_CATEGORY_MAPPING
350
13C
  3
REVIT_GET_SITE
350
138
  3
REVIT_TYPE_MAPPING
350
13B
  0
SORTENTSTABLE
  5
13F
102
{ACAD_REACTORS
330
13E
102
}
330
13E
100
AcDbSortentsTable
330
70
  0
ACDBDETAILVIEWSTYLE
  5
6B
102
{ACAD_REACTORS
330
6A
102
}
330
6A
100
AcDbModelDocViewStyle
 70
     0
  3
Imperial24
290
     1
300
Imperial24
 90
        0
100
AcDbDetailViewStyle
 70
     0
 71
     0
 90
        3
 71
     1
340
55
 62
   256
 40
0.24
340
0
 62
   256
 40
0.24
300

 40
0.36
280
     3
 71
     2
340
5D
 90
       25
 62
   256
 71
     3
340
55
 62
   256
 40
0.24
 90
        1
 40
0.75
 90
        1
300
%<\AcVar ViewType \f "%tc1">% %<\AcVar ViewDetailId>%\PSCALE %<\AcVar ViewScale \f "%sn">%
 71
     4
340
5D
 90
       25
 62
   256
340
5D
 90
       25
 62
   256
280
     0
  0
LAYOUT
  5
6F
102
{ACAD_REACTORS
330
62
102
}
330
62
100
AcDbPlotSettings
  1

  2

  4

  6

 40
0.0
 41
0.0
 42
0.0
 43
0.0
 44
0.0
 45
0.0
 46
0.0
 47
0.0
 48
0.0
 49
0.0
140
0.0
141
0.0
142
1.0
143
1.0
 70
   688
 72
     0
 73
     0
 74
     5
  7

 75
    16
147
1.0
 76
     0
 77
     2
 78
   300
148
0.0
149
0.0
100
AcDbLayout
  1
Layout1
 70
     1
 71
     1
 10
0.0
 20
0.0
 11
12.0
 21
9.0
 12
0.0
 22
0.0
 32
0.0
 14
0.0
 24
0.0
 34
0.0
 15
0.0
 25
0.0
 35
0.0
146
0.0
 13
0.0
 23
0.0
 33
0.0
 16
1.0
 26
0.0
 36
0.0
 17
0.0
 27
1.0
 37
0.0
 76
     0
330
6C
  0
LAYOUT
  5
77
102
{ACAD_REACTORS
330
62
102
}
330
62
100
AcDbPlotSettings
  1

  2

  4

  6

 40
0.0
 41
0.0
 42
0.0
 43
0.0
 44
0.0
 45
0.0
 46
0.0
 47
0.0
 48
0.0
 49
0.0
140
0.0
141
0.0
142
1.0
143
1.0
 70
   688
 72
     0
 73
     0
 74
     5
  7

 75
    16
147
1.0
 76
     0
 77
     2
 78
   300
148
0.0
149
0.0
100
AcDbLayout
  1
Layout2
 70
     1
 71
     2
 10
0.0
 20
0.0
 11
12.0
 21
9.0
 12
0.0
 22
0.0
 32
0.0
 14
0.0
 24
0.0
 34
0.0
 15
0.0
 25
0.0
 35
0.0
146
0.0
 13
0.0
 23
0.0
 33
0.0
 16
1.0
 26
0.0
 36
0.0
 17
0.0
 27
1.0
 37
0.0
 76
     0
330
74
  0
LAYOUT
  5
73
102
{ACAD_REACTORS
330
62
102
}
330
62
100
AcDbPlotSettings
  1

  2

  4

  6

 40
0.0
 41
0.0
 42
0.0
 43
0.0
 44
0.0
 45
0.0
 46
0.0
 47
0.0
 48
0.0
 49
0.0
140
0.0
141
0.0
142
1.0
143
1.0
 70
  1712
 72
     0
 73
     0
 74
     0
  7

 75
     0
147
1.0
 76
     0
 77
     2
 78
   300
148
0.0
149
0.0
100
AcDbLayout
  1
Model
 70
     1
 71
     0
 10
0.0
 20
0.0
 11
12.0
 21
9.0
 12
0.0
 22
0.0
 32
0.0
 14
0.0
 24
0.0
 34
0.0
 15
0.0
 25
0.0
 35
0.0
146
0.0
 13
0.0
 23
0.0
 33
0.0
 16
1.0
 26
0.0
 36
0.0
 17
0.0
 27
1.0
 37
0.0
 76
     0
330
70
  0
MATERIAL
  5
19
102
{ACAD_XDICTIONARY
360
1A
102
}
102
{ACAD_REACTORS
330
10
102
}
330
10
100
AcDbMaterial
  1
ByBlock
 72
     0
 43
0.0208333333333333
 43
0.0
 43
0.0
 43
0.0
 43
0.0
 43
0.0208333333333333
 43
0.0
 43
0.0
 43
0.0
 43
0.0
 43
1.0
 43
0.0
 43
0.0
 43
0.0
 43
0.0
 43
1.0
 77
     0
 47
0.0208333333333333
 47
0.0
 47
0.0
 47
0.0
 47
0.0
 47
0.0208333333333333
 47
0.0
 47
0.0
 47
0.0
 47
0.0
 47
1.0
 47
0.0
 47
0.0
 47
0.0
 47
0.0
 47
1.0
171
     0
 49
0.0208333333333333
 49
0.0
 49
0.0
 49
0.0
 49
0.0
 49
0.0208333333333333
 49
0.0
 49
0.0
 49
0.0
 49
0.0
 49
1.0
 49
0.0
 49
0.0
 49
0.0
 49
0.0
 49
1.0
175
     0
142
0.0208333333333333
142
0.0
142
0.0
142
0.0
142
0.0
142
0.0208333333333333
142
0.0
142
0.0
142
0.0
142
0.0
142
1.0
142
0.0
142
0.0
142
0.0
142
0.0
142
1.0
179
     0
144
0.0208333333333333
144
0.0
144
0.0
144
0.0
144
0.0
144
0.0208333333333333
144
0.0
144
0.0
144
0.0
144
0.0
144
1.0
144
0.0
144
0.0
144
0.0
144
0.0
144
1.0
147
0.0208333333333333
147
0.0
147
0.0
147
0.0
147
0.0
147
0.0208333333333333
147
0.0
147
0.0
147
0.0
147
0.0
147
1.0
147
0.0
147
0.0
147
0.0
147
0.0
147
1.0
  0
MATERIAL
  5
11
102
{ACAD_XDICTIONARY
360
12
102
}
102
{ACAD_REACTORS
330
10
102
}
330
10
100
AcDbMaterial
  1
ByLayer
 72
     0
 43
0.0208333333333333
 43
0.0
 43
0.0
 43
0.0
 43
0.0
 43
0.0208333333333333
 43
0.0
 43
0.0
 43
0.0
 43
0.0
 43
1.0
 43
0.0
 43
0.0
 43
0.0
 43
0.0
 43
1.0
 77
     0
 47
0.0208333333333333
 47
0.0
 47
0.0
 47
0.0
 47
0.0
 47
0.0208333333333333
 47
0.0
 47
0.0
 47
0.0
 47
0.0
 47
1.0
 47
0.0
 47
0.0
 47
0.0
 47
0.0
 47
1.0
171
     0
 49
0.0208333333333333
 49
0.0
 49
0.0
 49
0.0
 49
0.0
 49
0.0208333333333333
 49
0.0
 49
0.0
 49
0.0
 49
0.0
 49
1.0
 49
0.0
 49
0.0
 49
0.0
 49
0.0
 49
1.0
175
     0
142
0.0208333333333333
142
0.0
142
0.0
142
0.0
142
0.0
142
0.0208333333333333
142
0.0
142
0.0
142
0.0
142
0.0
142
1.0
142
0.0
142
0.0
142
0.0
142
0.0
142
1.0
179
     0
144
0.0208333333333333
144
0.0
144
0.0
144
0.0
144
0.0
144
0.0208333333333333
144
0.0
144
0.0
144
0.0
144
0.0
144
1.0
144
0.0
144
0.0
144
0.0
144
0.0
144
1.0
147
0.0208333333333333
147
0.0
147
0.0
147
0.0
147
0.0
147
0.0208333333333333
147
0.0
147
0.0
147
0.0
147
0.0
147
1.0
147
0.0
147
0.0
147
0.0
147
0.0
147
1.0
  0
MATERIAL
  5
21
102
{ACAD_XDICTIONARY
360
22
102
}
102
{ACAD_REACTORS
330
10
102
}
330
10
100
AcDbMaterial
  1
Global
 72
     0
 43
0.0208333333333333
 43
0.0
 43
0.0
 43
0.0
 43
0.0
 43
0.0208333333333333
 43
0.0
 43
0.0
 43
0.0
 43
0.0
 43
1.0
 43
0.0
 43
0.0
 43
0.0
 43
0.0
 43
1.0
 77
     0
 47
0.0208333333333333
 47
0.0
 47
0.0
 47
0.0
 47
0.0
 47
0.0208333333333333
 47
0.0
 47
0.0
 47
0.0
 47
0.0
 47
1.0
 47
0.0
 47
0.0
 47
0.0
 47
0.0
 47
1.0
171
     0
 49
0.0208333333333333
 49
0.0
 49
0.0
 49
0.0
 49
0.0
 49
0.0208333333333333
 49
0.0
 49
0.0
 49
0.0
 49
0.0
 49
1.0
 49
0.0
 49
0.0
 49
0.0
 49
0.0
 49
1.0
175
     0
142
0.0208333333333333
142
0.0
142
0.0
142
0.0
142
0.0
142
0.0208333333333333
142
0.0
142
0.0
142
0.0
142
0.0
142
1.0
142
0.0
142
0.0
142
0.0
142
0.0
142
1.0
179
     0
144
0.0208333333333333
144
0.0
144
0.0
144
0.0
144
0.0
144
0.0208333333333333
144
0.0
144
0.0
144
0.0
144
0.0
144
1.0
144
0.0
144
0.0
144
0.0
144
0.0
144
1.0
147
0.0208333333333333
147
0.0
147
0.0
147
0.0
147
0.0
147
0.0208333333333333
147
0.0
147
0.0
147
0.0
147
0.0
147
1.0
147
0.0
147
0.0
147
0.0
147
0.0
147
1.0
  0
MLEADERSTYLE
  5
67
102
{ACAD_REACTORS
330
66
102
}
330
66
100
AcDbMLeaderStyle
179
     2
170
     2
171
     1
172
     0
 90
        2
 40
0.0
 41
0.0
173
     1
 91
-1056964608
340
5B
 92
       -2
290
     1
 42
0.09
291
     1
 43
0.36
  3
Standard
 44
0.18
300

342
55
174
     1
178
     6
175
     1
176
     0
 93
-1056964608
 45
0.18
292
     0
297
     0
 46
0.18
 94
-1056964608
 47
1.0
 49
1.0
140
1.0
293
     1
141
0.0
294
     1
177
     0
142
1.0
295
     1
296
     0
143
0.125
271
     0
272
     9
273
     9
298
     1
  0
MLINESTYLE
  5
60
102
{ACAD_REACTORS
330
5F
102
}
330
5F
100
AcDbMlineStyle
  2
STANDARD
 70
     0
  3

 62
   256
 51
90.0
 52
90.0
 71
     2
 49
0.5
 62
   256
  6
BYLAYER
 49
-0.5
 62
   256
  6
BYLAYER
  0
ACDBPLACEHOLDER
  5
F
102
{ACAD_REACTORS
330
E
102
}
330
E
  0
SCALE
  5
43
102
{ACAD_REACTORS
330
42
102
}
330
42
100
AcDbScale
 70
     0
300
1:1
140
1.0
141
1.0
290
     1
  0
SCALE
  5
44
102
{ACAD_REACTORS
330
42
102
}
330
42
100
AcDbScale
 70
     0
300
1/128" = 1'-0"
140
0.0078125
141
12.0
290
     0
  0
SCALE
  5
45
102
{ACAD_REACTORS
330
42
102
}
330
42
100
AcDbScale
 70
     0
300
1/64" = 1'-0"
140
0.015625
141
12.0
290
     0
  0
SCALE
  5
46
102
{ACAD_REACTORS
330
42
102
}
330
42
100
AcDbScale
 70
     0
300
1/32" = 1'-0"
140
0.03125
141
12.0
290
     0
  0
SCALE
  5
47
102
{ACAD_REACTORS
330
42
102
}
330
42
100
AcDbScale
 70
     0
300
1/16" = 1'-0"
140
0.0625
141
12.0
290
     0
  0
SCALE
  5
48
102
{ACAD_REACTORS
330
42
102
}
330
42
100
AcDbScale
 70
     0
300
3/32" = 1'-0"
140
0.09375
141
12.0
290
     0
  0
SCALE
  5
49
102
{ACAD_REACTORS
330
42
102
}
330
42
100
AcDbScale
 70
     0
300
1/8" = 1'-0"
140
0.125
141
12.0
290
     0
  0
SCALE
  5
4A
102
{ACAD_REACTORS
330
42
102
}
330
42
100
AcDbScale
 70
     0
300
3/16" = 1'-0"
140
0.1875
141
12.0
290
     0
  0
SCALE
  5
4B
102
{ACAD_REACTORS
330
42
102
}
330
42
100
AcDbScale
 70
     0
300
1/4" = 1'-0"
140
0.25
141
12.0
290
     0
  0
SCALE
  5
4C
102
{ACAD_REACTORS
330
42
102
}
330
42
100
AcDbScale
 70
     0
300
3/8" = 1'-0"
140
0.375
141
12.0
290
     0
  0
SCALE
  5
4D
102
{ACAD_REACTORS
330
42
102
}
330
42
100
AcDbScale
 70
     0
300
1/2" = 1'-0"
140
0.5
141
12.0
290
     0
  0
SCALE
  5
4E
102
{ACAD_REACTORS
330
42
102
}
330
42
100
AcDbScale
 70
     0
300
3/4" = 1'-0"
140
0.75
141
12.0
290
     0
  0
SCALE
  5
4F
102
{ACAD_REACTORS
330
42
102
}
330
42
100
AcDbScale
 70
     0
300
1" = 1'-0"
140
1.0
141
12.0
290
     0
  0
SCALE
  5
50
102
{ACAD_REACTORS
330
42
102
}
330
42
100
AcDbScale
 70
     0
300
1-1/2" = 1'-0"
140
1.5
141
12.0
290
     0
  0
SCALE
  5
51
102
{ACAD_REACTORS
330
42
102
}
330
42
100
AcDbScale
 70
     0
300
3" = 1'-0"
140
3.0
141
12.0
290
     0
  0
SCALE
  5
52
102
{ACAD_REACTORS
330
42
102
}
330
42
100
AcDbScale
 70
     0
300
6" = 1'-0"
140
6.0
141
12.0
290
     0
  0
SCALE
  5
53
102
{ACAD_REACTORS
330
42
102
}
330
42
100
AcDbScale
 70
     0
300
1'-0" = 1'-0"
140
12.0
141
12.0
290
     0
  0
ACDBSECTIONVIEWSTYLE
  5
69
102
{ACAD_REACTORS
330
68
102
}
330
68
100
AcDbModelDocViewStyle
 70
     0
  3
Imperial24
290
     1
300
Imperial24
 90
        0
100
AcDbSectionViewStyle
 70
     0
 71
     0
 90
       78
 71
     1
340
55
 62
   256
 40
0.24
340
0
340
0
 62
   256
 40
0.24
300
I, O, Q, S, X, Z
 40
0.48
 90
        3
 40
0.18
 90
        1
 71
     2
340
5D
 90
       25
 62
   256
340
5D
 90
       50
 62
   256
 40
0.24
 40
0.0
 40
0.24
 71
     3
340
55
 62
   256
 40
0.24
 90
        1
 40
0.75
 90
        1
300
%<\AcVar ViewType \f "%tc1">% %<\AcVar ViewSectionStartId>%-%<\AcVar ViewSectionEndId>%\PSCALE %<\AcVar ViewScale \f "%sn">%
 71
     4
 62
   256
 62
   257
300
ANSI31
 40
1.0
 90
        0
290
     0
290
     0
 90
        6
 40
0.0
 40
1.570796326794896
 40
0.2617993877991494
 40
1.308996938995747
 40
-0.2617993877991494
 40
1.832595714594046
  0
TABLESTYLE
  5
65
102
{ACAD_XDICTIONARY
360
141
102
}
102
{ACAD_REACTORS
330
64
102
}
330
64
100
AcDbTableStyle
280
     0
  3
Standard
 70
     0
 71
     0
 40
0.06
 41
0.06
280
     0
281
     0
  7
Standard
140
0.18
170
     2
 62
     0
 63
     7
283
     0
 90
      512
 91
        0
  1

274
    -2
284
     1
 64
     0
275
    -2
285
     1
 65
     0
276
    -2
286
     1
 66
     0
277
    -2
287
     1
 67
     0
278
    -2
288
     1
 68
     0
279
    -2
289
     1
 69
     0
  7
Standard
140
0.25
170
     5
 62
     0
 63
     7
283
     0
 90
      512
 91
        0
  1

274
    -2
284
     1
 64
     0
275
    -2
285
     1
 65
     0
276
    -2
286
     1
 66
     0
277
    -2
287
     1
 67
     0
278
    -2
288
     1
 68
     0
279
    -2
289
     1
 69
     0
  7
Standard
140
0.18
170
     5
 62
     0
 63
     7
283
     0
 90
      512
 91
        0
  1

274
    -2
284
     1
 64
     0
275
    -2
285
     1
 65
     0
276
    -2
286
     1
 66
     0
277
    -2
287
     1
 67
     0
278
    -2
288
     1
 68
     0
279
    -2
289
     1
 69
     0
  0
VISUALSTYLE
  5
2F
102
{ACAD_REACTORS
330
29
102
}
330
29
100
AcDbVisualStyle
  2
2dWireframe
 70
     4
177
     3
291
     0
 70
    58
 90
        0
176
     1
 90
        2
176
     1
 90
        0
176
     1
 90
        0
176
     1
 40
0.6
176
     1
 40
30.0
176
     1
 62
     7
420
 16777215
176
     1
 90
        1
176
     1
 90
        4
176
     1
 62
     7
176
     1
 62
   257
176
     1
 90
        1
176
     1
 90
        1
176
     1
 40
1.0
176
     1
 90
        0
176
     1
 62
   257
176
     1
 40
1.0
176
     1
 90
        1
176
     1
 90
        6
176
     1
 90
        2
176
     1
 62
     7
176
     1
 90
        5
176
     1
 90
        0
176
     1
 90
        0
176
     1
290
     0
176
     1
 90
        1
176
     1
 40
0.0
176
     1
 90
        0
176
     1
290
     1
176
     1
290
     1
176
     1
290
     0
176
     1
290
     0
176
     1
290
     0
176
     1
290
     0
176
     1
290
     0
176
     1
290
     0
176
     1
290
     0
176
     1
 90
       50
176
     1
 40
0.0
176
     1
 40
1.0
176
     1
 90
        0
176
     1
 62
    18
420
        0
176
     1
 90
       50
176
     1
 90
        3
176
     1
 62
     5
420
      255
176
     1
290
     0
176
     1
 90
       50
176
     1
 90
       50
176
     1
 90
       50
176
     1
290
     0
176
     1
 90
       50
176
     1
 62
   256
176
     0
 40
1.0
176
     0
 90
        2
176
     1
  1
strokes_ogs.tif
176
     1
290
     0
176
     1
 40
1.0
176
     1
 40
1.0
176
     1
  0
VISUALSTYLE
  5
2E
102
{ACAD_REACTORS
330
29
102
}
330
29
100
AcDbVisualStyle
  2
Basic
 70
     7
177
     3
291
     1
 70
    58
 90
        1
176
     1
 90
        0
176
     1
 90
        1
176
     1
 90
        0
176
     1
 40
0.6
176
     1
 40
30.0
176
     1
 62
     7
420
 16777215
176
     1
 90
        0
176
     1
 90
        4
176
     1
 62
     7
176
     1
 62
   257
176
     1
 90
        1
176
     1
 90
        1
176
     1
 40
1.0
176
     1
 90
        8
176
     1
 62
     7
176
     1
 40
1.0
176
     1
 90
        1
176
     1
 90
        6
176
     1
 90
        2
176
     1
 62
     7
176
     1
 90
        5
176
     1
 90
        0
176
     1
 90
        0
176
     1
290
     0
176
     1
 90
        1
176
     1
 40
0.0
176
     1
 90
        0
176
     1
290
     0
176
     1
290
     1
176
     1
290
     1
176
     1
290
     0
176
     1
290
     0
176
     1
290
     0
176
     1
290
     0
176
     1
290
     0
176
     1
290
     0
176
     1
 90
       50
176
     1
 40
0.0
176
     1
 40
1.0
176
     1
 90
        0
176
     1
 62
    18
420
        0
176
     1
 90
       50
176
     1
 90
        3
176
     1
 62
     5
420
      255
176
     1
290
     0
176
     1
 90
       50
176
     1
 90
       50
176
     1
 90
       50
176
     1
290
     0
176
     1
 90
       50
176
     1
 62
   256
176
     0
 40
1.0
176
     0
 90
        2
176
     1
  1
strokes_ogs.tif
176
     1
290
     0
176
     1
 40
1.0
176
     1
 40
1.0
176
     1
  0
VISUALSTYLE
  5
35
102
{ACAD_REACTORS
330
29
102
}
330
29
100
AcDbVisualStyle
  2
Brighten
 70
    12
177
     3
291
     1
 70
    58
 90
        2
176
     1
 90
        2
176
     1
 90
        0
176
     1
 90
        0
176
     1
 40
0.6
176
     1
 40
30.0
176
     1
 62
     7
420
 16777215
176
     1
 90
        1
176
     1
 90
        4
176
     1
 62
     7
176
     1
 62
   257
176
     1
 90
        1
176
     1
 90
        1
176
     1
 40
1.0
176
     1
 90
        8
176
     1
 62
     7
176
     1
 40
1.0
176
     1
 90
        1
176
     1
 90
        6
176
     1
 90
        2
176
     1
 62
     7
176
     1
 90
        5
176
     1
 90
        0
176
     1
 90
        0
176
     1
290
     0
176
     1
 90
        1
176
     1
 40
50.0
176
     1
 90
        0
176
     1
290
     0
176
     1
290
     1
176
     1
290
     1
176
     1
290
     0
176
     1
290
     0
176
     1
290
     0
176
     1
290
     0
176
     1
290
     0
176
     1
290
     0
176
     1
 90
       50
176
     1
 40
0.0
176
     1
 40
1.0
176
     1
 90
        0
176
     1
 62
    18
420
        0
176
     1
 90
       50
176
     1
 90
        3
176
     1
 62
     5
420
      255
176
     1
290
     0
176
     1
 90
       50
176
     1
 90
       50
176
     1
 90
       50
176
     1
290
     0
176
     1
 90
       50
176
     1
 62
   256
176
     0
 40
1.0
176
     0
 90
        2
176
     1
  1
strokes_ogs.tif
176
     1
290
     0
176
     1
 40
1.0
176
     1
 40
1.0
176
     1
  0
VISUALSTYLE
  5
39
102
{ACAD_REACTORS
330
29
102
}
330
29
100
AcDbVisualStyle
  2
ColorChange
 70
    16
177
     3
291
     1
 70
    58
 90
        2
176
     1
 90
        2
176
     1
 90
        3
176
     1
 90
        0
176
     1
 40
0.6
176
     1
 40
30.0
176
     1
 62
     8
420
  8421504
176
     1
 90
        1
176
     1
 90
        4
176
     1
 62
     7
176
     1
 62
   257
176
     1
 90
        1
176
     1
 90
        1
176
     1
 40
1.0
176
     1
 90
        8
176
     1
 62
     8
420
  8421504
176
     1
 40
1.0
176
     1
 90
        1
176
     1
 90
        6
176
     1
 90
        2
176
     1
 62
     7
176
     1
 90
        5
176
     1
 90
        0
176
     1
 90
        0
176
     1
290
     0
176
     1
 90
        1
176
     1
 40
0.0
176
     1
 90
        0
176
     1
290
     0
176
     1
290
     1
176
     1
290
     1
176
     1
290
     0
176
     1
290
     0
176
     1
290
     0
176
     1
290
     0
176
     1
290
     0
176
     1
290
     0
176
     1
 90
       50
176
     1
 40
0.0
176
     1
 40
1.0
176
     1
 90
        0
176
     1
 62
    18
420
        0
176
     1
 90
       50
176
     1
 90
        3
176
     1
 62
     5
420
      255
176
     1
290
     0
176
     1
 90
       50
176
     1
 90
       50
176
     1
 90
       50
176
     1
290
     0
176
     1
 90
       50
176
     1
 62
   256
176
     0
 40
1.0
176
     0
 90
        2
176
     1
  1
strokes_ogs.tif
176
     1
290
     0
176
     1
 40
1.0
176
     1
 40
1.0
176
     1
  0
VISUALSTYLE
  5
32
102
{ACAD_REACTORS
330
29
102
}
330
29
100
AcDbVisualStyle
  2
Conceptual
 70
     9
177
     3
291
     0
 70
    58
 90
        3
176
     1
 90
        2
176
     1
 90
        0
176
     1
 90
        0
176
     1
 40
0.6
176
     1
 40
30.0
176
     1
 62
     7
420
 16777215
176
     1
 90
        2
176
     1
 90
        2
176
     1
 62
     7
176
     1
 62
   257
176
     1
 90
        1
176
     1
 90
        1
176
     1
 40
179.0
176
     1
 90
        8
176
     1
 62
     7
176
     1
 40
1.0
176
     1
 90
        1
176
     1
 90
        6
176
     1
 90
        2
176
     1
 62
     7
176
     1
 90
        3
176
     1
 90
        0
176
     1
 90
        0
176
     1
290
     0
176
     1
 90
        1
176
     1
 40
0.0
176
     1
 90
        0
176
     1
290
     0
176
     1
290
     1
176
     1
290
     1
176
     1
290
     0
176
     1
290
     0
176
     1
290
     0
176
     1
290
     0
176
     1
290
     0
176
     1
290
     0
176
     1
 90
       50
176
     1
 40
0.0
176
     1
 40
1.0
176
     1
 90
        0
176
     1
 62
    18
420
        0
176
     1
 90
       50
176
     1
 90
        3
176
     1
 62
     5
420
      255
176
     1
290
     0
176
     1
 90
       50
176
     1
 90
       50
176
     1
 90
       50
176
     1
290
     0
176
     1
 90
       50
176
     1
 62
   256
176
     0
 40
1.0
176
     0
 90
        2
176
     1
  1
strokes_ogs.tif
176
     1
290
     0
176
     1
 40
1.0
176
     1
 40
1.0
176
     1
  0
VISUALSTYLE
  5
34
102
{ACAD_REACTORS
330
29
102
}
330
29
100
AcDbVisualStyle
  2
Dim
 70
    11
177
     3
291
     1
 70
    58
 90
        2
176
     1
 90
        2
176
     1
 90
        0
176
     1
 90
        0
176
     1
 40
0.6
176
     1
 40
30.0
176
     1
 62
     7
420
 16777215
176
     1
 90
        1
176
     1
 90
        4
176
     1
 62
     7
176
     1
 62
   257
176
     1
 90
        1
176
     1
 90
        1
176
     1
 40
1.0
176
     1
 90
        8
176
     1
 62
     7
176
     1
 40
1.0
176
     1
 90
        1
176
     1
 90
        6
176
     1
 90
        2
176
     1
 62
     7
176
     1
 90
        5
176
     1
 90
        0
176
     1
 90
        0
176
     1
290
     0
176
     1
 90
        1
176
     1
 40
-50.0
176
     1
 90
        0
176
     1
290
     0
176
     1
290
     1
176
     1
290
     1
176
     1
290
     0
176
     1
290
     0
176
     1
290
     0
176
     1
290
     0
176
     1
290
     0
176
     1
290
     0
176
     1
 90
       50
176
     1
 40
0.0
176
     1
 40
1.0
176
     1
 90
        0
176
     1
 62
    18
420
        0
176
     1
 90
       50
176
     1
 90
        3
176
     1
 62
     5
420
      255
176
     1
290
     0
176
     1
 90
       50
176
     1
 90
       50
176
     1
 90
       50
176
     1
290
     0
176
     1
 90
       50
176
     1
 62
   256
176
     0
 40
1.0
176
     0
 90
        2
176
     1
  1
strokes_ogs.tif
176
     1
290
     0
176
     1
 40
1.0
176
     1
 40
1.0
176
     1
  0
VISUALSTYLE
  5
41
102
{ACAD_REACTORS
330
29
102
}
330
29
100
AcDbVisualStyle
  2
EdgeColorOff
 70
    22
177
     3
291
     1
 70
    58
 90
        2
176
     0
 90
        2
176
     0
 90
        0
176
     0
 90
        0
176
     0
 40
0.6
176
     0
 40
30.0
176
     0
 62
     7
420
 16777215
176
     0
 90
        1
176
     0
 90
        4
176
     0
 62
     7
176
     0
 62
   257
176
     0
 90
        1
176
     0
 90
        1
176
     0
 40
1.0
176
     0
 90
        8
176
     2
 62
     7
176
     0
 40
1.0
176
     0
 90
        1
176
     0
 90
        6
176
     0
 90
        2
176
     0
 62
     7
176
     0
 90
        5
176
     0
 90
        0
176
     0
 90
        0
176
     0
290
     0
176
     0
 90
        1
176
     0
 40
0.0
176
     0
 90
        0
176
     0
290
     0
176
     0
290
     1
176
     0
290
     1
176
     0
290
     0
176
     0
290
     0
176
     0
290
     0
176
     0
290
     0
176
     0
290
     0
176
     0
290
     0
176
     0
 90
       50
176
     0
 40
0.0
176
     0
 40
1.0
176
     0
 90
        0
176
     0
 62
    18
420
        0
176
     0
 90
       50
176
     0
 90
        3
176
     0
 62
     5
420
      255
176
     0
290
     0
176
     0
 90
       50
176
     0
 90
       50
176
     0
 90
       50
176
     0
290
     0
176
     0
 90
       50
176
     0
 62
   256
176
     0
 40
1.0
176
     0
 90
        2
176
     0
  1
strokes_ogs.tif
176
     0
290
     0
176
     0
 40
1.0
176
     0
 40
1.0
176
     0
  0
VISUALSTYLE
  5
38
102
{ACAD_REACTORS
330
29
102
}
330
29
100
AcDbVisualStyle
  2
Facepattern
 70
    15
177
     3
291
     1
 70
    58
 90
        2
176
     1
 90
        2
176
     1
 90
        0
176
     1
 90
        0
176
     1
 40
0.6
176
     1
 40
30.0
176
     1
 62
     7
420
 16777215
176
     1
 90
        1
176
     1
 90
        4
176
     1
 62
     7
176
     1
 62
   257
176
     1
 90
        1
176
     1
 90
        1
176
     1
 40
1.0
176
     1
 90
        8
176
     1
 62
     7
176
     1
 40
1.0
176
     1
 90
        1
176
     1
 90
        6
176
     1
 90
        2
176
     1
 62
     7
176
     1
 90
        5
176
     1
 90
        0
176
     1
 90
        0
176
     1
290
     0
176
     1
 90
        1
176
     1
 40
0.0
176
     1
 90
        0
176
     1
290
     0
176
     1
290
     1
176
     1
290
     1
176
     1
290
     0
176
     1
290
     0
176
     1
290
     0
176
     1
290
     0
176
     1
290
     0
176
     1
290
     0
176
     1
 90
       50
176
     1
 40
0.0
176
     1
 40
1.0
176
     1
 90
        0
176
     1
 62
    18
420
        0
176
     1
 90
       50
176
     1
 90
        3
176
     1
 62
     5
420
      255
176
     1
290
     0
176
     1
 90
       50
176
     1
 90
       50
176
     1
 90
       50
176
     1
290
     0
176
     1
 90
       50
176
     1
 62
   256
176
     0
 40
1.0
176
     0
 90
        2
176
     1
  1
strokes_ogs.tif
176
     1
290
     0
176
     1
 40
1.0
176
     1
 40
1.0
176
     1
  0
VISUALSTYLE
  5
2A
102
{ACAD_REACTORS
330
29
102
}
330
29
100
AcDbVisualStyle
  2
Flat
 70
     0
177
     3
291
     1
 70
    58
 90
        2
176
     1
 90
        1
176
     1
 90
        1
176
     1
 90
        2
176
     1
 40
0.6
176
     1
 40
30.0
176
     1
 62
     7
420
 16777215
176
     1
 90
        0
176
     1
 90
        0
176
     1
 62
     7
176
     1
 62
   257
176
     1
 90
        1
176
     1
 90
        1
176
     1
 40
1.0
176
     1
 90
        8
176
     1
 62
     7
176
     1
 40
1.0
176
     1
 90
        1
176
     1
 90
        6
176
     1
 90
        2
176
     1
 62
     7
176
     1
 90
        5
176
     1
 90
        0
176
     1
 90
        0
176
     1
290
     0
176
     1
 90
       13
176
     1
 40
0.0
176
     1
 90
        0
176
     1
290
     0
176
     1
290
     1
176
     1
290
     1
176
     1
290
     0
176
     1
290
     0
176
     1
290
     0
176
     1
290
     0
176
     1
290
     0
176
     1
290
     0
176
     1
 90
       50
176
     1
 40
0.0
176
     1
 40
1.0
176
     1
 90
        0
176
     1
 62
    18
420
        0
176
     1
 90
       50
176
     1
 90
        3
176
     1
 62
     5
420
      255
176
     1
290
     0
176
     1
 90
       50
176
     1
 90
       50
176
     1
 90
       50
176
     1
290
     0
176
     1
 90
       50
176
     1
 62
   256
176
     0
 40
1.0
176
     0
 90
        2
176
     1
  1
strokes_ogs.tif
176
     1
290
     0
176
     1
 40
1.0
176
     1
 40
1.0
176
     1
  0
VISUALSTYLE
  5
2B
102
{ACAD_REACTORS
330
29
102
}
330
29
100
AcDbVisualStyle
  2
FlatWithEdges
 70
     1
177
     3
291
     1
 70
    58
 90
        2
176
     1
 90
        1
176
     1
 90
        1
176
     1
 90
        2
176
     1
 40
0.6
176
     1
 40
30.0
176
     1
 62
     7
420
 16777215
176
     1
 90
        1
176
     1
 90
        0
176
     1
 62
     7
176
     1
 62
   257
176
     1
 90
        1
176
     1
 90
        1
176
     1
 40
1.0
176
     1
 90
        0
176
     1
 62
   257
176
     1
 40
1.0
176
     1
 90
        1
176
     1
 90
        6
176
     1
 90
        2
176
     1
 62
     7
176
     1
 90
        5
176
     1
 90
        0
176
     1
 90
        0
176
     1
290
     0
176
     1
 90
       13
176
     1
 40
0.0
176
     1
 90
        0
176
     1
290
     0
176
     1
290
     1
176
     1
290
     1
176
     1
290
     0
176
     1
290
     0
176
     1
290
     0
176
     1
290
     0
176
     1
290
     0
176
     1
290
     0
176
     1
 90
       50
176
     1
 40
0.0
176
     1
 40
1.0
176
     1
 90
        0
176
     1
 62
    18
420
        0
176
     1
 90
       50
176
     1
 90
        3
176
     1
 62
     5
420
      255
176
     1
290
     0
176
     1
 90
       50
176
     1
 90
       50
176
     1
 90
       50
176
     1
290
     0
176
     1
 90
       50
176
     1
 62
   256
176
     0
 40
1.0
176
     0
 90
        2
176
     1
  1
strokes_ogs.tif
176
     1
290
     0
176
     1
 40
1.0
176
     1
 40
1.0
176
     1
  0
VISUALSTYLE
  5
2C
102
{ACAD_REACTORS
330
29
102
}
330
29
100
AcDbVisualStyle
  2
Gouraud
 70
     2
177
     3
291
     1
 70
    58
 90
        2
176
     1
 90
        2
176
     1
 90
        1
176
     1
 90
        2
176
     1
 40
0.6
176
     1
 40
30.0
176
     1
 62
     7
420
 16777215
176
     1
 90
        0
176
     1
 90
        0
176
     1
 62
     7
176
     1
 62
   257
176
     1
 90
        1
176
     1
 90
        1
176
     1
 40
1.0
176
     1
 90
        0
176
     1
 62
     7
176
     1
 40
1.0
176
     1
 90
        1
176
     1
 90
        6
176
     1
 90
        2
176
     1
 62
     7
176
     1
 90
        5
176
     1
 90
        0
176
     1
 90
        0
176
     1
290
     0
176
     1
 90
       13
176
     1
 40
0.0
176
     1
 90
        0
176
     1
290
     0
176
     1
290
     1
176
     1
290
     1
176
     1
290
     0
176
     1
290
     0
176
     1
290
     0
176
     1
290
     0
176
     1
290
     0
176
     1
290
     0
176
     1
 90
       50
176
     1
 40
0.0
176
     1
 40
1.0
176
     1
 90
        0
176
     1
 62
    18
420
        0
176
     1
 90
       50
176
     1
 90
        3
176
     1
 62
     5
420
      255
176
     1
290
     0
176
     1
 90
       50
176
     1
 90
       50
176
     1
 90
       50
176
     1
290
     0
176
     1
 90
       50
176
     1
 62
   256
176
     0
 40
1.0
176
     0
 90
        2
176
     1
  1
strokes_ogs.tif
176
     1
290
     0
176
     1
 40
1.0
176
     1
 40
1.0
176
     1
  0
VISUALSTYLE
  5
2D
102
{ACAD_REACTORS
330
29
102
}
330
29
100
AcDbVisualStyle
  2
GouraudWithEdges
 70
     3
177
     3
291
     1
 70
    58
 90
        2
176
     1
 90
        2
176
     1
 90
        1
176
     1
 90
        2
176
     1
 40
0.6
176
     1
 40
30.0
176
     1
 62
     7
420
 16777215
176
     1
 90
        1
176
     1
 90
        0
176
     1
 62
     7
176
     1
 62
   257
176
     1
 90
        1
176
     1
 90
        1
176
     1
 40
1.0
176
     1
 90
        0
176
     1
 62
   257
176
     1
 40
1.0
176
     1
 90
        1
176
     1
 90
        6
176
     1
 90
        2
176
     1
 62
     7
176
     1
 90
        5
176
     1
 90
        0
176
     1
 90
        0
176
     1
290
     0
176
     1
 90
       13
176
     1
 40
0.0
176
     1
 90
        0
176
     1
290
     0
176
     1
290
     1
176
     1
290
     1
176
     1
290
     0
176
     1
290
     0
176
     1
290
     0
176
     1
290
     0
176
     1
290
     0
176
     1
290
     0
176
     1
 90
       50
176
     1
 40
0.0
176
     1
 40
1.0
176
     1
 90
        0
176
     1
 62
    18
420
        0
176
     1
 90
       50
176
     1
 90
        3
176
     1
 62
     5
420
      255
176
     1
290
     0
176
     1
 90
       50
176
     1
 90
       50
176
     1
 90
       50
176
     1
290
     0
176
     1
 90
       50
176
     1
 62
   256
176
     0
 40
1.0
176
     0
 90
        2
176
     1
  1
strokes_ogs.tif
176
     1
290
     0
176
     1
 40
1.0
176
     1
 40
1.0
176
     1
  0
VISUALSTYLE
  5
31
102
{ACAD_REACTORS
330
29
102
}
330
29
100
AcDbVisualStyle
  2
Hidden
 70
     6
177
     3
291
     0
 70
    58
 90
        1
176
     1
 90
        2
176
     1
 90
        2
176
     1
 90
        0
176
     1
 40
0.6
176
     1
 40
30.0
176
     1
 62
     7
420
 16777215
176
     1
 90
        2
176
     1
 90
        2
176
     1
 62
     7
176
     1
 62
   257
176
     1
 90
        2
176
     1
 90
        1
176
     1
 40
40.0
176
     1
 90
        0
176
     1
 62
   257
176
     1
 40
1.0
176
     1
 90
        1
176
     1
 90
        6
176
     1
 90
        2
176
     1
 62
     7
176
     1
 90
        3
176
     1
 90
        0
176
     1
 90
        0
176
     1
290
     0
176
     1
 90
        1
176
     1
 40
0.0
176
     1
 90
        0
176
     1
290
     0
176
     1
290
     1
176
     1
290
     1
176
     1
290
     0
176
     1
290
     0
176
     1
290
     0
176
     1
290
     0
176
     1
290
     0
176
     1
290
     0
176
     1
 90
       50
176
     1
 40
0.0
176
     1
 40
1.0
176
     1
 90
        0
176
     1
 62
    18
420
        0
176
     1
 90
       50
176
     1
 90
        3
176
     1
 62
     5
420
      255
176
     1
290
     0
176
     1
 90
       50
176
     1
 90
       50
176
     1
 90
       50
176
     1
290
     0
176
     1
 90
       50
176
     1
 62
   256
176
     0
 40
1.0
176
     0
 90
        2
176
     1
  1
strokes_ogs.tif
176
     1
290
     0
176
     1
 40
1.0
176
     1
 40
1.0
176
     1
  0
VISUALSTYLE
  5
3F
102
{ACAD_REACTORS
330
29
102
}
330
29
100
AcDbVisualStyle
  2
JitterOff
 70
    20
177
     3
291
     1
 70
    58
 90
        2
176
     0
 90
        2
176
     0
 90
        0
176
     0
 90
        0
176
     0
 40
0.6
176
     0
 40
30.0
176
     0
 62
     7
420
 16777215
176
     0
 90
        1
176
     0
 90
        4
176
     0
 62
     7
176
     0
 62
   257
176
     0
 90
        1
176
     0
 90
        1
176
     0
 40
1.0
176
     0
 90
       10
176
     2
 62
     7
176
     0
 40
1.0
176
     0
 90
        1
176
     0
 90
        6
176
     0
 90
        2
176
     0
 62
     7
176
     0
 90
        5
176
     0
 90
        0
176
     0
 90
        0
176
     0
290
     0
176
     0
 90
        1
176
     0
 40
0.0
176
     0
 90
        0
176
     0
290
     0
176
     0
290
     1
176
     0
290
     1
176
     0
290
     0
176
     0
290
     0
176
     0
290
     0
176
     0
290
     0
176
     0
290
     0
176
     0
290
     0
176
     0
 90
       50
176
     0
 40
0.0
176
     0
 40
1.0
176
     0
 90
        0
176
     0
 62
    18
420
        0
176
     0
 90
       50
176
     0
 90
        3
176
     0
 62
     5
420
      255
176
     0
290
     0
176
     0
 90
       50
176
     0
 90
       50
176
     0
 90
       50
176
     0
290
     0
176
     0
 90
       50
176
     0
 62
   256
176
     0
 40
1.0
176
     0
 90
        2
176
     0
  1
strokes_ogs.tif
176
     0
290
     0
176
     0
 40
1.0
176
     0
 40
1.0
176
     0
  0
VISUALSTYLE
  5
37
102
{ACAD_REACTORS
330
29
102
}
330
29
100
AcDbVisualStyle
  2
Linepattern
 70
    14
177
     3
291
     1
 70
    58
 90
        2
176
     1
 90
        2
176
     1
 90
        0
176
     1
 90
        0
176
     1
 40
0.6
176
     1
 40
30.0
176
     1
 62
     7
420
 16777215
176
     1
 90
        1
176
     1
 90
        4
176
     1
 62
     7
176
     1
 62
   257
176
     1
 90
        7
176
     1
 90
        7
176
     1
 40
1.0
176
     1
 90
        8
176
     1
 62
     7
176
     1
 40
1.0
176
     1
 90
        1
176
     1
 90
        6
176
     1
 90
        2
176
     1
 62
     7
176
     1
 90
        5
176
     1
 90
        0
176
     1
 90
        0
176
     1
290
     0
176
     1
 90
        1
176
     1
 40
0.0
176
     1
 90
        0
176
     1
290
     0
176
     1
290
     1
176
     1
290
     1
176
     1
290
     0
176
     1
290
     0
176
     1
290
     0
176
     1
290
     0
176
     1
290
     0
176
     1
290
     0
176
     1
 90
       50
176
     1
 40
0.0
176
     1
 40
1.0
176
     1
 90
        0
176
     1
 62
    18
420
        0
176
     1
 90
       50
176
     1
 90
        3
176
     1
 62
     5
420
      255
176
     1
290
     0
176
     1
 90
       50
176
     1
 90
       50
176
     1
 90
       50
176
     1
290
     0
176
     1
 90
       50
176
     1
 62
   256
176
     0
 40
1.0
176
     0
 90
        2
176
     1
  1
strokes_ogs.tif
176
     1
290
     0
176
     1
 40
1.0
176
     1
 40
1.0
176
     1
  0
VISUALSTYLE
  5
40
102
{ACAD_REACTORS
330
29
102
}
330
29
100
AcDbVisualStyle
  2
OverhangOff
 70
    21
177
     3
291
     1
 70
    58
 90
        2
176
     0
 90
        2
176
     0
 90
        0
176
     0
 90
        0
176
     0
 40
0.6
176
     0
 40
30.0
176
     0
 62
     7
420
 16777215
176
     0
 90
        1
176
     0
 90
        4
176
     0
 62
     7
176
     0
 62
   257
176
     0
 90
        1
176
     0
 90
        1
176
     0
 40
1.0
176
     0
 90
        9
176
     2
 62
     7
176
     0
 40
1.0
176
     0
 90
        1
176
     0
 90
        6
176
     0
 90
        2
176
     0
 62
     7
176
     0
 90
        5
176
     0
 90
        0
176
     0
 90
        0
176
     0
290
     0
176
     0
 90
        1
176
     0
 40
0.0
176
     0
 90
        0
176
     0
290
     0
176
     0
290
     1
176
     0
290
     1
176
     0
290
     0
176
     0
290
     0
176
     0
290
     0
176
     0
290
     0
176
     0
290
     0
176
     0
290
     0
176
     0
 90
       50
176
     0
 40
0.0
176
     0
 40
1.0
176
     0
 90
        0
176
     0
 62
    18
420
        0
176
     0
 90
       50
176
     0
 90
        3
176
     0
 62
     5
420
      255
176
     0
290
     0
176
     0
 90
       50
176
     0
 90
       50
176
     0
 90
       50
176
     0
290
     0
176
     0
 90
       50
176
     0
 62
   256
176
     0
 40
1.0
176
     0
 90
        2
176
     0
  1
strokes_ogs.tif
176
     0
290
     0
176
     0
 40
1.0
176
     0
 40
1.0
176
     0
  0
VISUALSTYLE
  5
33
102
{ACAD_REACTORS
330
29
102
}
330
29
100
AcDbVisualStyle
  2
Realistic
 70
     8
177
     3
291
     0
 70
    58
 90
        2
176
     1
 90
        3
176
     1
 90
        0
176
     1
 90
        2
176
     1
 40
0.6
176
     1
 40
30.0
176
     1
 62
     7
420
 16777215
176
     1
 90
        0
176
     1
 90
        0
176
     1
 62
     7
176
     1
 62
   257
176
     1
 90
        1
176
     1
 90
        1
176
     1
 40
1.0
176
     1
 90
        8
176
     1
 62
   257
176
     1
 40
1.0
176
     1
 90
        1
176
     1
 90
        6
176
     1
 90
        2
176
     1
 62
     7
176
     1
 90
        3
176
     1
 90
        0
176
     1
 90
        0
176
     1
290
     0
176
     1
 90
       13
176
     1
 40
0.0
176
     1
 90
        0
176
     1
290
     0
176
     1
290
     1
176
     1
290
     1
176
     1
290
     0
176
     1
290
     0
176
     1
290
     0
176
     1
290
     0
176
     1
290
     0
176
     1
290
     0
176
     1
 90
       50
176
     1
 40
0.0
176
     1
 40
1.0
176
     1
 90
        0
176
     1
 62
    18
420
        0
176
     1
 90
       50
176
     1
 90
        3
176
     1
 62
     5
420
      255
176
     1
290
     0
176
     1
 90
       50
176
     1
 90
       50
176
     1
 90
       50
176
     1
290
     0
176
     1
 90
       50
176
     1
 62
   256
176
     0
 40
1.0
176
     0
 90
        2
176
     1
  1
strokes_ogs.tif
176
     1
290
     0
176
     1
 40
1.0
176
     1
 40
1.0
176
     1
  0
VISUALSTYLE
  5
3E
102
{ACAD_REACTORS
330
29
102
}
330
29
100
AcDbVisualStyle
  2
Shaded
 70
    27
177
     3
291
     0
 70
    58
 90
        2
176
     1
 90
        2
176
     1
 90
        1
176
     1
 90
        2
176
     1
 40
0.6
176
     1
 40
30.0
176
     1
 62
     7
420
 16777215
176
     1
 90
        0
176
     1
 90
        4
176
     1
 62
     7
176
     1
 62
   257
176
     1
 90
        1
176
     1
 90
        1
176
     1
 40
1.0
176
     1
 90
        8
176
     1
 62
   257
176
     1
 40
1.0
176
     1
 90
        1
176
     1
 90
        6
176
     1
 90
        2
176
     1
 62
     8
420
  7895160
176
     1
 90
        3
176
     1
 90
        0
176
     1
 90
        0
176
     1
290
     0
176
     1
 90
        5
176
     1
 40
0.0
176
     1
 90
        0
176
     1
290
     0
176
     1
290
     1
176
     1
290
     1
176
     1
290
     0
176
     1
290
     0
176
     1
290
     0
176
     1
290
     0
176
     1
290
     0
176
     1
290
     0
176
     1
 90
       50
176
     1
 40
0.0
176
     1
 40
1.0
176
     1
 90
        0
176
     1
 62
    18
420
        0
176
     1
 90
       50
176
     1
 90
        3
176
     1
 62
     5
420
      255
176
     1
290
     0
176
     1
 90
       50
176
     1
 90
       50
176
     1
 90
       50
176
     1
290
     0
176
     1
 90
       50
176
     1
 62
   256
176
     0
 40
1.0
176
     0
 90
        2
176
     1
  1
strokes_ogs.tif
176
     1
290
     0
176
     1
 40
1.0
176
     1
 40
1.0
176
     1
  0
VISUALSTYLE
  5
3D
102
{ACAD_REACTORS
330
29
102
}
330
29
100
AcDbVisualStyle
  2
Shaded with edges
 70
    26
177
     3
291
     0
 70
    58
 90
        2
176
     1
 90
        2
176
     1
 90
        1
176
     1
 90
        2
176
     1
 40
0.6
176
     1
 40
30.0
176
     1
 62
     7
420
 16777215
176
     1
 90
        1
176
     1
 90
        2
176
     1
 62
     7
176
     1
 62
   257
176
     1
 90
        2
176
     1
 90
        1
176
     1
 40
1.0
176
     1
 90
        8
176
     1
 62
   257
176
     1
 40
1.0
176
     1
 90
        1
176
     1
 90
        6
176
     1
 90
        2
176
     1
 62
     7
176
     1
 90
        3
176
     1
 90
        0
176
     1
 90
        0
176
     1
290
     0
176
     1
 90
        5
176
     1
 40
0.0
176
     1
 90
        0
176
     1
290
     0
176
     1
290
     1
176
     1
290
     1
176
     1
290
     0
176
     1
290
     0
176
     1
290
     0
176
     1
290
     0
176
     1
290
     0
176
     1
290
     0
176
     1
 90
       50
176
     1
 40
0.0
176
     1
 40
1.0
176
     1
 90
        0
176
     1
 62
    18
420
        0
176
     1
 90
       50
176
     1
 90
        3
176
     1
 62
     5
420
      255
176
     1
290
     0
176
     1
 90
       50
176
     1
 90
       50
176
     1
 90
       50
176
     1
290
     0
176
     1
 90
       50
176
     1
 62
   256
176
     0
 40
1.0
176
     0
 90
        2
176
     1
  1
strokes_ogs.tif
176
     1
290
     0
176
     1
 40
1.0
176
     1
 40
1.0
176
     1
  0
VISUALSTYLE
  5
3A
102
{ACAD_REACTORS
330
29
102
}
330
29
100
AcDbVisualStyle
  2
Shades of Gray
 70
    23
177
     3
291
     0
 70
    58
 90
        2
176
     1
 90
        2
176
     1
 90
        3
176
     1
 90
        0
176
     1
 40
0.6
176
     1
 40
30.0
176
     1
 62
     7
420
 16777215
176
     1
 90
        2
176
     1
 90
        2
176
     1
 62
     7
176
     1
 62
     7
176
     1
 90
        1
176
     1
 90
        1
176
     1
 40
40.0
176
     1
 90
        8
176
     1
 62
     7
176
     1
 40
1.0
176
     1
 90
        1
176
     1
 90
        6
176
     1
 90
        2
176
     1
 62
     7
176
     1
 90
        3
176
     1
 90
        0
176
     1
 90
        0
176
     1
290
     0
176
     1
 90
        1
176
     1
 40
0.0
176
     1
 90
        0
176
     1
290
     0
176
     1
290
     1
176
     1
290
     1
176
     1
290
     0
176
     1
290
     0
176
     1
290
     0
176
     1
290
     0
176
     1
290
     0
176
     1
290
     0
176
     1
 90
       50
176
     1
 40
0.0
176
     1
 40
1.0
176
     1
 90
        0
176
     1
 62
    18
420
        0
176
     1
 90
       50
176
     1
 90
        3
176
     1
 62
     5
420
      255
176
     1
290
     0
176
     1
 90
       50
176
     1
 90
       50
176
     1
 90
       50
176
     1
290
     0
176
     1
 90
       50
176
     1
 62
   256
176
     0
 40
1.0
176
     0
 90
        2
176
     1
  1
strokes_ogs.tif
176
     1
290
     0
176
     1
 40
1.0
176
     1
 40
1.0
176
     1
  0
VISUALSTYLE
  5
3B
102
{ACAD_REACTORS
330
29
102
}
330
29
100
AcDbVisualStyle
  2
Sketchy
 70
    24
177
     3
291
     0
 70
    58
 90
        1
176
     1
 90
        2
176
     1
 90
        2
176
     1
 90
        0
176
     1
 40
0.6
176
     1
 40
30.0
176
     1
 62
     7
420
 16777215
176
     1
 90
        2
176
     1
 90
        2
176
     1
 62
     7
176
     1
 62
     7
176
     1
 90
        1
176
     1
 90
        1
176
     1
 40
40.0
176
     1
 90
       11
176
     1
 62
     7
176
     1
 40
1.0
176
     1
 90
        1
176
     1
 90
        6
176
     1
 90
        2
176
     1
 62
     7
176
     1
 90
        6
176
     1
 90
        0
176
     1
 90
        0
176
     1
290
     0
176
     1
 90
        1
176
     1
 40
0.0
176
     1
 90
        0
176
     1
290
     0
176
     1
290
     1
176
     1
290
     1
176
     1
290
     0
176
     1
290
     0
176
     1
290
     0
176
     1
290
     0
176
     1
290
     0
176
     1
290
     0
176
     1
 90
       50
176
     1
 40
0.0
176
     1
 40
1.0
176
     1
 90
        0
176
     1
 62
    18
420
        0
176
     1
 90
       50
176
     1
 90
        3
176
     1
 62
     5
420
      255
176
     1
290
     0
176
     1
 90
       50
176
     1
 90
       50
176
     1
 90
       50
176
     1
290
     0
176
     1
 90
       50
176
     1
 62
   256
176
     0
 40
1.0
176
     0
 90
        2
176
     1
  1
strokes_ogs.tif
176
     1
290
     0
176
     1
 40
1.0
176
     1
 40
1.0
176
     1
  0
VISUALSTYLE
  5
36
102
{ACAD_REACTORS
330
29
102
}
330
29
100
AcDbVisualStyle
  2
Thicken
 70
    13
177
     3
291
     1
 70
    58
 90
        2
176
     1
 90
        2
176
     1
 90
        0
176
     1
 90
        0
176
     1
 40
0.6
176
     1
 40
30.0
176
     1
 62
     7
420
 16777215
176
     1
 90
        1
176
     1
 90
        4
176
     1
 62
     7
176
     1
 62
   257
176
     1
 90
        1
176
     1
 90
        1
176
     1
 40
1.0
176
     1
 90
       12
176
     1
 62
     7
176
     1
 40
1.0
176
     1
 90
        1
176
     1
 90
        6
176
     1
 90
        2
176
     1
 62
     7
176
     1
 90
        5
176
     1
 90
        0
176
     1
 90
        0
176
     1
290
     0
176
     1
 90
        1
176
     1
 40
0.0
176
     1
 90
        0
176
     1
290
     0
176
     1
290
     1
176
     1
290
     1
176
     1
290
     0
176
     1
290
     0
176
     1
290
     0
176
     1
290
     0
176
     1
290
     0
176
     1
290
     0
176
     1
 90
       50
176
     1
 40
0.0
176
     1
 40
1.0
176
     1
 90
        0
176
     1
 62
    18
420
        0
176
     1
 90
       50
176
     1
 90
        3
176
     1
 62
     5
420
      255
176
     1
290
     0
176
     1
 90
       50
176
     1
 90
       50
176
     1
 90
       50
176
     1
290
     0
176
     1
 90
       50
176
     1
 62
   256
176
     0
 40
1.0
176
     0
 90
        2
176
     1
  1
strokes_ogs.tif
176
     1
290
     0
176
     1
 40
1.0
176
     1
 40
1.0
176
     1
  0
VISUALSTYLE
  5
30
102
{ACAD_REACTORS
330
29
102
}
330
29
100
AcDbVisualStyle
  2
Wireframe
 70
     5
177
     3
291
     0
 70
    58
 90
        0
176
     1
 90
        2
176
     1
 90
        0
176
     1
 90
        0
176
     1
 40
0.6
176
     1
 40
30.0
176
     1
 62
     7
420
 16777215
176
     1
 90
        1
176
     1
 90
        4
176
     1
 62
     7
176
     1
 62
   257
176
     1
 90
        1
176
     1
 90
        1
176
     1
 40
1.0
176
     1
 90
        0
176
     1
 62
   257
176
     1
 40
1.0
176
     1
 90
        1
176
     1
 90
        6
176
     1
 90
        2
176
     1
 62
     7
176
     1
 90
        3
176
     1
 90
        0
176
     1
 90
        0
176
     1
290
     0
176
     1
 90
        1
176
     1
 40
0.0
176
     1
 90
        0
176
     1
290
     0
176
     1
290
     1
176
     1
290
     1
176
     1
290
     0
176
     1
290
     0
176
     1
290
     0
176
     1
290
     0
176
     1
290
     0
176
     1
290
     0
176
     1
 90
       50
176
     1
 40
0.0
176
     1
 40
1.0
176
     1
 90
        0
176
     1
 62
    18
420
        0
176
     1
 90
       50
176
     1
 90
        3
176
     1
 62
     5
420
      255
176
     1
290
     0
176
     1
 90
       50
176
     1
 90
       50
176
     1
 90
       50
176
     1
290
     0
176
     1
 90
       50
176
     1
 62
   256
176
     0
 40
1.0
176
     0
 90
        2
176
     1
  1
strokes_ogs.tif
176
     1
290
     0
176
     1
 40
1.0
176
     1
 40
1.0
176
     1
  0
VISUALSTYLE
  5
3C
102
{ACAD_REACTORS
330
29
102
}
330
29
100
AcDbVisualStyle
  2
X-Ray
 70
    25
177
     3
291
     0
 70
    58
 90
        2
176
     1
 90
        2
176
     1
 90
        1
176
     1
 90
        1
176
     1
 40
0.5
176
     1
 40
30.0
176
     1
 62
     7
420
 16777215
176
     1
 90
        1
176
     1
 90
        0
176
     1
 62
     7
176
     1
 62
   257
176
     1
 90
        1
176
     1
 90
        1
176
     1
 40
1.0
176
     1
 90
        8
176
     1
 62
     7
176
     1
 40
1.0
176
     1
 90
        1
176
     1
 90
        6
176
     1
 90
        2
176
     1
 62
     7
176
     1
 90
        3
176
     1
 90
        0
176
     1
 90
        0
176
     1
290
     0
176
     1
 90
       13
176
     1
 40
0.0
176
     1
 90
        0
176
     1
290
     0
176
     1
290
     1
176
     1
290
     1
176
     1
290
     0
176
     1
290
     0
176
     1
290
     0
176
     1
290
     0
176
     1
290
     0
176
     1
290
     0
176
     1
 90
       50
176
     1
 40
0.0
176
     1
 40
1.0
176
     1
 90
        0
176
     1
 62
    18
420
        0
176
     1
 90
       50
176
     1
 90
        3
176
     1
 62
     5
420
      255
176
     1
290
     0
176
     1
 90
       50
176
     1
 90
       50
176
     1
 90
       50
176
     1
290
     0
176
     1
 90
       50
176
     1
 62
   256
176
     0
 40
1.0
176
     0
 90
        2
176
     1
  1
strokes_ogs.tif
176
     1
290
     0
176
     1
 40
1.0
176
     1
 40
1.0
176
     1
  0
DICTIONARYVAR
  5
80
102
{ACAD_REACTORS
330
7B
102
}
330
7B
100
DictionaryVariables
280
     0
  1
1:1
  0
DICTIONARYVAR
  5
7D
102
{ACAD_REACTORS
330
7B
102
}
330
7B
100
DictionaryVariables
280
     0
  1
STANDARD
  0
DICTIONARYVAR
  5
7C
102
{ACAD_REACTORS
330
7B
102
}
330
7B
100
DictionaryVariables
280
     0
  1
STANDARD
  0
DICTIONARYVAR
  5
7E
102
{ACAD_REACTORS
330
7B
102
}
330
7B
100
DictionaryVariables
280
     0
  1
Imperial24
  0
DICTIONARYVAR
  5
7F
102
{ACAD_REACTORS
330
7B
102
}
330
7B
100
DictionaryVariables
280
     0
  1
Imperial24
  0
XRECORD
  5
13D
102
{ACAD_REACTORS
330
137
102
}
330
137
100
AcDbXrecord
280
     1
  1
BUILDING_ID
  1
68001_HCMFP-Farrell Arena FEC-A25_Rotated
  1
FLOOR_ID
  1
314995
  0
XRECORD
  5
13C
102
{ACAD_REACTORS
330
137
102
}
330
137
100
AcDbXrecord
280
     1
  1
-2000220
  1
Grids
  1
-2000535
  1
Elevations
  1
-2000829
  1
Room Polylines
  1
-2006040
  1
Grid Heads
  0
XRECORD
  5
138
102
{ACAD_REACTORS
330
137
102
}
330
137
100
AcDbXrecord
280
     1
  1
0f5a72a0-b730-4b17-90e7-dad3b74ffd22
  0
XRECORD
  5
13B
102
{ACAD_REACTORS
330
137
102
}
330
137
100
AcDbXrecord
280
     1
  1
134756
  1
Elevation : 2.10 Building Elevations
  1
1952
  1
Grid : Grid(Arch)
  0
DICTIONARY
  5
1A
330
19
100
AcDbDictionary
280
     1
281
     1
  3
BUMPTILE
360
1C
  3
DIFFUSETILE
360
1B
  3
OPACITYTILE
360
1F
  3
REFLECTIONTILE
360
1E
  3
REFRACTIONTILE
360
20
  3
SPECULARTILE
360
1D
  0
DICTIONARY
  5
12
330
11
100
AcDbDictionary
280
     1
281
     1
  3
BUMPTILE
360
14
  3
DIFFUSETILE
360
13
  3
OPACITYTILE
360
17
  3
REFLECTIONTILE
360
16
  3
REFRACTIONTILE
360
18
  3
SPECULARTILE
360
15
  0
DICTIONARY
  5
22
330
21
100
AcDbDictionary
280
     1
281
     1
  3
BUMPTILE
360
24
  3
DIFFUSETILE
360
23
  3
OPACITYTILE
360
27
  3
REFLECTIONTILE
360
26
  3
REFRACTIONTILE
360
28
  3
SPECULARTILE
360
25
  0
DICTIONARY
  5
141
330
65
100
AcDbDictionary
280
     1
281
     1
  3
ACAD_ROUNDTRIP_2008_TABLESTYLE_CELLSTYLEMAP
360
142
  0
XRECORD
  5
1C
102
{ACAD_REACTORS
330
1A
102
}
330
1A
100
AcDbXrecord
280
     1
270
     1
271
     1
  0
XRECORD
  5
1B
102
{ACAD_REACTORS
330
1A
102
}
330
1A
100
AcDbXrecord
280
     1
270
     1
271
     1
  0
XRECORD
  5
1F
102
{ACAD_REACTORS
330
1A
102
}
330
1A
100
AcDbXrecord
280
     1
270
     1
271
     1
  0
XRECORD
  5
1E
102
{ACAD_REACTORS
330
1A
102
}
330
1A
100
AcDbXrecord
280
     1
270
     1
271
     1
  0
XRECORD
  5
20
102
{ACAD_REACTORS
330
1A
102
}
330
1A
100
AcDbXrecord
280
     1
270
     1
271
     1
  0
XRECORD
  5
1D
102
{ACAD_REACTORS
330
1A
102
}
330
1A
100
AcDbXrecord
280
     1
270
     1
271
     1
  0
XRECORD
  5
14
102
{ACAD_REACTORS
330
12
102
}
330
12
100
AcDbXrecord
280
     1
270
     1
271
     1
  0
XRECORD
  5
13
102
{ACAD_REACTORS
330
12
102
}
330
12
100
AcDbXrecord
280
     1
270
     1
271
     1
  0
XRECORD
  5
17
102
{ACAD_REACTORS
330
12
102
}
330
12
100
AcDbXrecord
280
     1
270
     1
271
     1
  0
XRECORD
  5
16
102
{ACAD_REACTORS
330
12
102
}
330
12
100
AcDbXrecord
280
     1
270
     1
271
     1
  0
XRECORD
  5
18
102
{ACAD_REACTORS
330
12
102
}
330
12
100
AcDbXrecord
280
     1
270
     1
271
     1
  0
XRECORD
  5
15
102
{ACAD_REACTORS
330
12
102
}
330
12
100
AcDbXrecord
280
     1
270
     1
271
     1
  0
XRECORD
  5
24
102
{ACAD_REACTORS
330
22
102
}
330
22
100
AcDbXrecord
280
     1
270
     1
271
     1
  0
XRECORD
  5
23
102
{ACAD_REACTORS
330
22
102
}
330
22
100
AcDbXrecord
280
     1
270
     1
271
     1
  0
XRECORD
  5
27
102
{ACAD_REACTORS
330
22
102
}
330
22
100
AcDbXrecord
280
     1
270
     1
271
     1
  0
XRECORD
  5
26
102
{ACAD_REACTORS
330
22
102
}
330
22
100
AcDbXrecord
280
     1
270
     1
271
     1
  0
XRECORD
  5
28
102
{ACAD_REACTORS
330
22
102
}
330
22
100
AcDbXrecord
280
     1
270
     1
271
     1
  0
XRECORD
  5
25
102
{ACAD_REACTORS
330
22
102
}
330
22
100
AcDbXrecord
280
     1
270
     1
271
     1
  0
CELLSTYLEMAP
  5
142
102
{ACAD_REACTORS
330
141
102
}
330
141
100
AcDbCellStyleMap
 90
        3
300
CELLSTYLE
  1
TABLEFORMAT_BEGIN
 90
        5
170
     1
 91
        0
 92
    32768
 62
   257
 93
        1
300
CONTENTFORMAT
  1
CONTENTFORMAT_BEGIN
 90
        0
 91
        0
 92
      512
 93
        0
300

 40
0.0
140
1.0
 94
        5
 62
     0
340
55
144
0.25
309
CONTENTFORMAT_END
171
     0
 94
        0
309
TABLEFORMAT_END
  1
CELLSTYLE_BEGIN
 90
        1
 91
        1
300
_TITLE
309
CELLSTYLE_END
300
CELLSTYLE
  1
TABLEFORMAT_BEGIN
 90
        5
170
     1
 91
        0
 92
        0
 62
   257
 93
        1
300
CONTENTFORMAT
  1
CONTENTFORMAT_BEGIN
 90
        0
 91
        0
 92
      512
 93
        0
300

 40
0.0
140
1.0
 94
        5
 62
     0
340
55
144
0.18
309
CONTENTFORMAT_END
171
     0
 94
        0
309
TABLEFORMAT_END
  1
CELLSTYLE_BEGIN
 90
        2
 91
        1
300
_HEADER
309
CELLSTYLE_END
300
CELLSTYLE
  1
TABLEFORMAT_BEGIN
 90
        5
170
     1
 91
        0
 92
        0
 62
   257
 93
        1
300
CONTENTFORMAT
  1
CONTENTFORMAT_BEGIN
 90
        0
 91
        0
 92
      512
 93
        0
300

 40
0.0
140
1.0
 94
        2
 62
     0
340
55
144
0.18
309
CONTENTFORMAT_END
171
     0
 94
        0
309
TABLEFORMAT_END
  1
CELLSTYLE_BEGIN
 90
        3
 91
        2
300
_DATA
309
CELLSTYLE_END
  0
ENDSEC
  0
EOF
