  0
SECTION
  2
HEADER
  9
$ACADVER
  1
AC1032
  9
$ACADMAINTVER
 90
      321
  9
$DWGCODEPAGE
  3
ANSI_1252
  9
$REQUIREDVERSIONS
160
                 0
  9
$INSBASE
 10
0.0
 20
0.0
 30
0.0
  9
$EXTMIN
 10
-846.8880231033718
 20
400.7402596294941
 30
0.0
  9
$EXTMAX
 10
638.111976896629
 20
1093.117430207408
 30
0.0
  9
$LIMMIN
 10
0.0
 20
0.0
  9
$LIMMAX
 10
12.0
 20
9.0
  9
$ORTHOMODE
 70
     0
  9
$REGENMODE
 70
     1
  9
$FILLMODE
 70
     1
  9
$QTEXTMODE
 70
     0
  9
$MIRRTEXT
 70
     0
  9
$LTSCALE
 40
1.0
  9
$ATTMODE
 70
     1
  9
$TEXTSIZE
 40
0.2
  9
$TRACEWID
 40
0.05
  9
$TEXTSTYLE
  7
Standard
  9
$CLAYER
  8
0
  9
$CELTYPE
  6
ByLayer
  9
$CECOLOR
 62
   256
  9
$CELTSCALE
 40
1.0
  9
$DISPSILH
 70
     0
  9
$DIMSCALE
 40
1.0
  9
$DIMASZ
 40
0.18
  9
$DIMEXO
 40
0.0625
  9
$DIMDLI
 40
0.38
  9
$DIMRND
 40
0.0
  9
$DIMDLE
 40
0.0
  9
$DIMEXE
 40
0.18
  9
$DIMTP
 40
0.0
  9
$DIMTM
 40
0.0
  9
$DIMTXT
 40
0.18
  9
$DIMCEN
 40
0.09
  9
$DIMTSZ
 40
0.0
  9
$DIMTOL
 70
     0
  9
$DIMLIM
 70
     0
  9
$DIMTIH
 70
     1
  9
$DIMTOH
 70
     1
  9
$DIMSE1
 70
     0
  9
$DIMSE2
 70
     0
  9
$DIMTAD
 70
     0
  9
$DIMZIN
 70
     0
  9
$DIMBLK
  1

  9
$DIMASO
 70
     1
  9
$DIMSHO
 70
     1
  9
$DIMPOST
  1

  9
$DIMAPOST
  1

  9
$DIMALT
 70
     0
  9
$DIMALTD
 70
     2
  9
$DIMALTF
 40
25.4
  9
$DIMLFAC
 40
1.0
  9
$DIMTOFL
 70
     0
  9
$DIMTVP
 40
0.0
  9
$DIMTIX
 70
     0
  9
$DIMSOXD
 70
     0
  9
$DIMSAH
 70
     0
  9
$DIMBLK1
  1

  9
$DIMBLK2
  1

  9
$DIMSTYLE
  2
Standard
  9
$DIMCLRD
 70
     0
  9
$DIMCLRE
 70
     0
  9
$DIMCLRT
 70
     0
  9
$DIMTFAC
 40
1.0
  9
$DIMGAP
 40
0.09
  9
$DIMJUST
 70
     0
  9
$DIMSD1
 70
     0
  9
$DIMSD2
 70
     0
  9
$DIMTOLJ
 70
     1
  9
$DIMTZIN
 70
     0
  9
$DIMALTZ
 70
     0
  9
$DIMALTTZ
 70
     0
  9
$DIMUPT
 70
     0
  9
$DIMDEC
 70
     4
  9
$DIMTDEC
 70
     4
  9
$DIMALTU
 70
     4
  9
$DIMALTTD
 70
     2
  9
$DIMTXSTY
  7
Standard
  9
$DIMAUNIT
 70
     0
  9
$DIMADEC
 70
     0
  9
$DIMALTRND
 40
0.0
  9
$DIMAZIN
 70
     0
  9
$DIMDSEP
 70
    46
  9
$DIMATFIT
 70
     3
  9
$DIMFRAC
 70
     0
  9
$DIMLDRBLK
  1

  9
$DIMLUNIT
 70
     4
  9
$DIMLWD
 70
    -2
  9
$DIMLWE
 70
    -2
  9
$DIMTMOVE
 70
     0
  9
$DIMFXL
 40
1.0
  9
$DIMFXLON
 70
     0
  9
$DIMJOGANG
 40
0.7853981633974483
  9
$DIMTFILL
 70
     0
  9
$DIMTFILLCLR
 70
     0
  9
$DIMARCSYM
 70
     0
  9
$DIMLTYPE
  6

  9
$DIMLTEX1
  6

  9
$DIMLTEX2
  6

  9
$DIMTXTDIRECTION
 70
     0
  9
$LUNITS
 70
     4
  9
$LUPREC
 70
     4
  9
$SKETCHINC
 40
0.1
  9
$FILLETRAD
 40
0.0
  9
$AUNITS
 70
     0
  9
$AUPREC
 70
     0
  9
$MENU
  1
.
  9
$ELEVATION
 40
0.0
  9
$PELEVATION
 40
0.0
  9
$THICKNESS
 40
0.0
  9
$LIMCHECK
 70
     0
  9
$CHAMFERA
 40
0.0
  9
$CHAMFERB
 40
0.0
  9
$CHAMFERC
 40
0.0
  9
$CHAMFERD
 40
0.0
  9
$SKPOLY
 70
     0
  9
$TDCREATE
 40
2461033.609444445
  9
$TDUCREATE
 40
2461033.859444444
  9
$TDUPDATE
 40
2461033.609444445
  9
$TDUUPDATE
 40
2461033.859444444
  9
$TDINDWG
 40
0.0000000000
  9
$TDUSRTIMER
 40
0.0000000000
  9
$USRTIMER
 70
     1
  9
$ANGBASE
 50
0.0
  9
$ANGDIR
 70
     0
  9
$PDMODE
 70
     0
  9
$PDSIZE
 40
0.0
  9
$PLINEWID
 40
0.0
  9
$SPLFRAME
 70
     0
  9
$SPLINETYPE
 70
     6
  9
$SPLINESEGS
 70
     8
  9
$HANDSEED
  5
275
  9
$SURFTAB1
 70
     6
  9
$SURFTAB2
 70
     6
  9
$SURFTYPE
 70
     6
  9
$SURFU
 70
     6
  9
$SURFV
 70
     6
  9
$UCSBASE
  2

  9
$UCSNAME
  2

  9
$UCSORG
 10
0.0
 20
0.0
 30
0.0
  9
$UCSXDIR
 10
1.0
 20
0.0
 30
0.0
  9
$UCSYDIR
 10
0.0
 20
1.0
 30
0.0
  9
$UCSORTHOREF
  2

  9
$UCSORTHOVIEW
 70
     0
  9
$UCSORGTOP
 10
0.0
 20
0.0
 30
0.0
  9
$UCSORGBOTTOM
 10
0.0
 20
0.0
 30
0.0
  9
$UCSORGLEFT
 10
0.0
 20
0.0
 30
0.0
  9
$UCSORGRIGHT
 10
0.0
 20
0.0
 30
0.0
  9
$UCSORGFRONT
 10
0.0
 20
0.0
 30
0.0
  9
$UCSORGBACK
 10
0.0
 20
0.0
 30
0.0
  9
$PUCSBASE
  2

  9
$PUCSNAME
  2

  9
$PUCSORG
 10
0.0
 20
0.0
 30
0.0
  9
$PUCSXDIR
 10
1.0
 20
0.0
 30
0.0
  9
$PUCSYDIR
 10
0.0
 20
1.0
 30
0.0
  9
$PUCSORTHOREF
  2

  9
$PUCSORTHOVIEW
 70
     0
  9
$PUCSORGTOP
 10
0.0
 20
0.0
 30
0.0
  9
$PUCSORGBOTTOM
 10
0.0
 20
0.0
 30
0.0
  9
$PUCSORGLEFT
 10
0.0
 20
0.0
 30
0.0
  9
$PUCSORGRIGHT
 10
0.0
 20
0.0
 30
0.0
  9
$PUCSORGFRONT
 10
0.0
 20
0.0
 30
0.0
  9
$PUCSORGBACK
 10
0.0
 20
0.0
 30
0.0
  9
$USERI1
 70
     0
  9
$USERI2
 70
     0
  9
$USERI3
 70
     0
  9
$USERI4
 70
     0
  9
$USERI5
 70
     0
  9
$USERR1
 40
0.0
  9
$USERR2
 40
0.0
  9
$USERR3
 40
0.0
  9
$USERR4
 40
0.0
  9
$USERR5
 40
0.0
  9
$WORLDVIEW
 70
     1
  9
$SHADEDGE
 70
     3
  9
$SHADEDIF
 70
    70
  9
$TILEMODE
 70
     1
  9
$MAXACTVP
 70
    64
  9
$PINSBASE
 10
0.0
 20
0.0
 30
0.0
  9
$PLIMCHECK
 70
     0
  9
$PEXTMIN
 10
1.000000000000000E+20
 20
1.000000000000000E+20
 30
1.000000000000000E+20
  9
$PEXTMAX
 10
-1.000000000000000E+20
 20
-1.000000000000000E+20
 30
-1.000000000000000E+20
  9
$PLIMMIN
 10
0.0
 20
0.0
  9
$PLIMMAX
 10
12.0
 20
9.0
  9
$UNITMODE
 70
     0
  9
$VISRETAIN
 70
     1
  9
$PLINEGEN
 70
     0
  9
$PSLTSCALE
 70
     0
  9
$TREEDEPTH
 70
  3020
  9
$CMLSTYLE
  2
Standard
  9
$CMLJUST
 70
     0
  9
$CMLSCALE
 40
1.0
  9
$PROXYGRAPHICS
 70
     1
  9
$MEASUREMENT
 70
     0
  9
$CELWEIGHT
370
    -1
  9
$ENDCAPS
280
     0
  9
$JOINSTYLE
280
     0
  9
$LWDISPLAY
290
     0
  9
$INSUNITS
 70
     1
  9
$HYPERLINKBASE
  1

  9
$STYLESHEET
  1

  9
$XEDIT
290
     1
  9
$CEPSNTYPE
380
     0
  9
$PSTYLEMODE
290
     1
  9
$FINGERPRINTGUID
  2
{10E593B3-E696-2E40-94C4-38C10ECEF51A}
  9
$VERSIONGUID
  2
{D97194BF-E1A2-894C-864E-7E70A570E831}
  9
$EXTNAMES
290
     1
  9
$PSVPSCALE
 40
0.0
  9
$OLESTARTUP
290
     0
  9
$SORTENTS
280
   127
  9
$INDEXCTL
280
     0
  9
$HIDETEXT
280
     1
  9
$XCLIPFRAME
280
     2
  9
$HALOGAP
280
     0
  9
$OBSCOLOR
 70
   257
  9
$OBSLTYPE
280
     0
  9
$INTERSECTIONDISPLAY
280
     0
  9
$INTERSECTIONCOLOR
 70
   257
  9
$DIMASSOC
280
     2
  9
$PROJECTNAME
  1

  9
$CAMERADISPLAY
290
     0
  9
$LENSLENGTH
 40
50.0
  9
$CAMERAHEIGHT
 40
0.0
  9
$STEPSPERSEC
 40
2.0
  9
$STEPSIZE
 40
6.0
  9
$3DDWFPREC
 40
2.0
  9
$PSOLWIDTH
 40
0.25
  9
$PSOLHEIGHT
 40
4.0
  9
$LOFTANG1
 40
1.570796326794896
  9
$LOFTANG2
 40
1.570796326794896
  9
$LOFTMAG1
 40
0.0
  9
$LOFTMAG2
 40
0.0
  9
$LOFTPARAM
 70
     7
  9
$LOFTNORMALS
280
     1
  9
$LATITUDE
 40
37.795
  9
$LONGITUDE
 40
-122.394
  9
$NORTHDIRECTION
 40
0.0
  9
$TIMEZONE
 70
 -8000
  9
$LIGHTGLYPHDISPLAY
280
     1
  9
$TILEMODELIGHTSYNCH
280
     1
  9
$CMATERIAL
347
11
  9
$SOLIDHIST
280
     0
  9
$SHOWHIST
280
     1
  9
$DWFFRAME
280
     2
  9
$DGNFRAME
280
     0
  9
$REALWORLDSCALE
290
     1
  9
$INTERFERECOLOR
 62
     1
  9
$INTERFEREOBJVS
345
33
  9
$INTERFEREVPVS
346
30
  9
$CSHADOW
280
     0
  9
$SHADOWPLANELOCATION
 40
0.0
  0
ENDSEC
  0
SECTION
  2
CLASSES
  0
CLASS
  1
ACDBDICTIONARYWDFLT
  2
AcDbDictionaryWithDefault
  3
ObjectDBX Classes
 90
        0
 91
        1
280
     0
281
     0
  0
CLASS
  1
MATERIAL
  2
AcDbMaterial
  3
ObjectDBX Classes
 90
     1153
 91
        3
280
     0
281
     0
  0
CLASS
  1
VISUALSTYLE
  2
AcDbVisualStyle
  3
ObjectDBX Classes
 90
     4095
 91
       24
280
     0
281
     0
  0
CLASS
  1
SCALE
  2
AcDbScale
  3
ObjectDBX Classes
 90
     1153
 91
       17
280
     0
281
     0
  0
CLASS
  1
TABLESTYLE
  2
AcDbTableStyle
  3
ObjectDBX Classes
 90
     4095
 91
        1
280
     0
281
     0
  0
CLASS
  1
MLEADERSTYLE
  2
AcDbMLeaderStyle
  3
ACDB_MLEADERSTYLE_CLASS
 90
     4095
 91
        1
280
     0
281
     0
  0
CLASS
  1
ACDBSECTIONVIEWSTYLE
  2
AcDbSectionViewStyle
  3
ObjectDBX Classes
 90
     1025
 91
        1
280
     0
281
     0
  0
CLASS
  1
ACDBDETAILVIEWSTYLE
  2
AcDbDetailViewStyle
  3
ObjectDBX Classes
 90
     1025
 91
        1
280
     0
281
     0
  0
CLASS
  1
RASTERVARIABLES
  2
AcDbRasterVariables
  3
ISM
 90
        0
 91
        1
280
     0
281
     0
  0
CLASS
  1
DICTIONARYVAR
  2
AcDbDictionaryVar
  3
ObjectDBX Classes
 90
        0
 91
        5
280
     0
281
     0
  0
CLASS
  1
CELLSTYLEMAP
  2
AcDbCellStyleMap
  3
ObjectDBX Classes
 90
     1152
 91
        2
280
     0
281
     0
  0
CLASS
  1
SORTENTSTABLE
  2
AcDbSortentsTable
  3
ObjectDBX Classes
 90
        0
 91
        1
280
     0
281
     0
  0
ENDSEC
  0
SECTION
  2
TABLES
  0
TABLE
  2
VPORT
  5
8
330
0
100
AcDbSymbolTable
 70
     1
  0
VPORT
  5
57
330
8
100
AcDbSymbolTableRecord
100
AcDbViewportTableRecord
  2
*Active
 70
     0
 10
0.0
 20
0.0
 11
1.0
 21
1.0
 12
-104.3880231033714
 22
746.9288449184513
 13
0.0
 23
0.0
 14
1.0
 24
1.0
 15
0.0
 25
0.0
 16
0.0
 26
0.0
 36
1.0
 17
0.0
 27
0.0
 37
0.0
 40
692.3771705779143
 41
2.144784754760904
 42
50.0
 43
0.0
 44
0.0
 50
0.0
 51
0.0
 71
     0
 72
  1000
 73
     1
 74
     1
 75
     0
 76
     0
 77
     0
 78
     0
281
     0
 65
     1
110
0.0
120
0.0
130
0.0
111
1.0
121
0.0
131
0.0
112
0.0
122
1.0
132
0.0
 79
     0
146
0.0
 60
     3
 61
     5
292
     1
282
     1
141
0.0
142
0.0
 63
   250
421
  3355443
  0
ENDTAB
  0
TABLE
  2
LTYPE
  5
5
330
0
100
AcDbSymbolTable
 70
     1
  0
LTYPE
  5
5B
330
5
100
AcDbSymbolTableRecord
100
AcDbLinetypeTableRecord
  2
ByBlock
 70
     0
  3

 72
    65
 73
     0
 40
0.0
  0
LTYPE
  5
5C
330
5
100
AcDbSymbolTableRecord
100
AcDbLinetypeTableRecord
  2
ByLayer
 70
     0
  3

 72
    65
 73
     0
 40
0.0
  0
LTYPE
  5
5D
330
5
100
AcDbSymbolTableRecord
100
AcDbLinetypeTableRecord
  2
Continuous
 70
     0
  3
Solid line
 72
    65
 73
     0
 40
0.0
  0
ENDTAB
  0
TABLE
  2
LAYER
  5
2
330
0
100
AcDbSymbolTable
 70
    10
  0
LAYER
  5
54
330
2
100
AcDbSymbolTableRecord
100
AcDbLayerTableRecord
  2
0
 70
     0
 62
     7
  6
Continuous
370
    -3
390
F
347
21
348
0
  0
LAYER
  5
84
330
2
100
AcDbSymbolTableRecord
100
AcDbLayerTableRecord
  2
I-WALL
 70
     0
 62
     2
  6
Continuous
370
    15
390
F
347
21
348
0
  0
LAYER
  5
85
330
2
100
AcDbSymbolTableRecord
100
AcDbLayerTableRecord
  2
A-GLAZ-CURT
 70
     0
 62
    52
  6
Continuous
370
     9
390
F
347
21
348
0
  0
LAYER
  5
86
330
2
100
AcDbSymbolTableRecord
100
AcDbLayerTableRecord
  2
A-GLAZ-CWMG
 70
     0
 62
    51
  6
Continuous
370
     9
390
F
347
21
348
0
  0
LAYER
  5
87
330
2
100
AcDbSymbolTableRecord
100
AcDbLayerTableRecord
  2
A-DOOR
 70
     0
 62
    31
  6
Continuous
370
    15
390
F
347
21
348
0
  0
LAYER
  5
88
330
2
100
AcDbSymbolTableRecord
100
AcDbLayerTableRecord
  2
S-STRS
 70
     0
 62
    31
  6
Continuous
370
     9
390
F
347
21
348
0
  0
LAYER
  5
89
330
2
100
AcDbSymbolTableRecord
100
AcDbLayerTableRecord
  2
A-FLOR-HRAL
 70
     0
 62
    11
  6
Continuous
370
     9
390
F
347
21
348
0
  0
LAYER
  5
1D2
330
2
100
AcDbSymbolTableRecord
100
AcDbLayerTableRecord
  2
A-DOOR-FRAM
 70
     0
 62
    31
  6
Continuous
370
    25
390
F
347
21
348
0
  0
LAYER
  5
264
330
2
100
AcDbSymbolTableRecord
100
AcDbLayerTableRecord
  2
A-AREA-BNDY
 70
     0
 62
    -1
  6
Continuous
370
     9
390
F
347
21
348
0
  0
ENDTAB
  0
TABLE
  2
STYLE
  5
3
330
0
100
AcDbSymbolTable
 70
     2
  0
STYLE
  5
55
330
3
100
AcDbSymbolTableRecord
100
AcDbTextStyleTableRecord
  2
Standard
 70
     0
 40
0.0
 41
1.0
 50
0.0
 71
     0
 42
0.2
  3
txt
  4

  0
STYLE
  5
5A
330
3
100
AcDbSymbolTableRecord
100
AcDbTextStyleTableRecord
  2
Annotative
 70
     0
 40
0.0
 41
1.0
 50
0.0
 71
     0
 42
0.2
  3
txt
  4

1001
AcadAnnotative
1000
AnnotativeData
1002
{
1070
     1
1070
     1
1002
}
  0
ENDTAB
  0
TABLE
  2
VIEW
  5
6
330
0
100
AcDbSymbolTable
 70
     0
  0
ENDTAB
  0
TABLE
  2
UCS
  5
7
330
0
100
AcDbSymbolTable
 70
     2
  0
UCS
  5
26A
330
7
100
AcDbSymbolTableRecord
100
AcDbUCSTableRecord
  2
REVIT60-Default Site
 70
     0
 10
0.0
 20
-0.0000000000020464
 30
-1200.0
 11
1.0
 21
0.0
 31
0.0
 12
0.0
 22
1.0
 32
0.0
 79
     0
146
0.0
  0
UCS
  5
26B
330
7
100
AcDbSymbolTableRecord
100
AcDbUCSTableRecord
  2
REVIT60-Internal
 70
     0
 10
0.0
 20
0.0
 30
0.0
 11
1.0
 21
0.0
 31
0.0
 12
0.0
 22
1.0
 32
0.0
 79
     0
146
0.0
  0
ENDTAB
  0
TABLE
  2
APPID
  5
9
330
0
100
AcDbSymbolTable
 70
     3
  0
APPID
  5
56
330
9
100
AcDbSymbolTableRecord
100
AcDbRegAppTableRecord
  2
ACAD
 70
     0
  0
APPID
  5
5E
330
9
100
AcDbSymbolTableRecord
100
AcDbRegAppTableRecord
  2
AcadAnnotative
 70
     0
  0
APPID
  5
78
330
9
100
AcDbSymbolTableRecord
100
AcDbRegAppTableRecord
  2
REVIT
 70
     0
  0
ENDTAB
  0
TABLE
  2
DIMSTYLE
  5
A
330
0
100
AcDbSymbolTable
 70
     2
100
AcDbDimStyleTable
 71
     0
  0
DIMSTYLE
105
58
330
A
100
AcDbSymbolTableRecord
100
AcDbDimStyleTableRecord
  2
Standard
 70
     0
340
55
  0
DIMSTYLE
105
59
330
A
100
AcDbSymbolTableRecord
100
AcDbDimStyleTableRecord
  2
Annotative
 70
     0
340
55
1001
AcadAnnotative
1000
AnnotativeData
1002
{
1070
     1
1070
     1
1002
}
  0
ENDTAB
  0
TABLE
  2
BLOCK_RECORD
  5
1
330
0
100
AcDbSymbolTable
 70
    14
  0
BLOCK_RECORD
  5
70
102
{ACAD_XDICTIONARY
360
270
102
}
330
1
100
AcDbSymbolTableRecord
100
AcDbBlockTableRecord
  2
*Model_Space
340
73
 70
     0
280
     1
281
     0
  0
BLOCK_RECORD
  5
6C
330
1
100
AcDbSymbolTableRecord
100
AcDbBlockTableRecord
  2
*Paper_Space
340
6F
 70
     0
280
     1
281
     0
  0
BLOCK_RECORD
  5
74
330
1
100
AcDbSymbolTableRecord
100
AcDbBlockTableRecord
  2
*Paper_Space0
340
77
 70
     0
280
     1
281
     0
  0
BLOCK_RECORD
  5
167
330
1
100
AcDbSymbolTableRecord
100
AcDbBlockTableRecord
  2
System Panel - zGlazed-5157346-LEVEL 3 - Map Export
340
0
102
{BLKREFS
331
16E
331
185
331
189
331
18D
331
191
331
195
102
}
 70
     0
280
     1
281
     0
  0
BLOCK_RECORD
  5
16F
330
1
100
AcDbSymbolTableRecord
100
AcDbBlockTableRecord
  2
Rectangular Mullion - 4 1_2_ x 2_ Rectangular_CE_-5157345-LEVEL 3 - Map Export
340
0
102
{BLKREFS
331
174
331
186
331
18A
331
18E
331
192
331
196
102
}
 70
     0
280
     1
281
     0
  0
BLOCK_RECORD
  5
175
330
1
100
AcDbSymbolTableRecord
100
AcDbBlockTableRecord
  2
Rectangular Mullion - 4 1_2_ x 2_ Rectangular_CE_-5157312-LEVEL 3 - Map Export
340
0
102
{BLKREFS
331
17C
331
187
331
18B
331
18F
331
193
331
197
102
}
 70
     0
280
     1
281
     0
  0
BLOCK_RECORD
  5
17D
330
1
100
AcDbSymbolTableRecord
100
AcDbBlockTableRecord
  2
Rectangular Mullion - 4 1_2_ x 2_ Rectangular_CE_-5157313-LEVEL 3 - Map Export
340
0
102
{BLKREFS
331
184
331
188
331
18C
331
190
331
194
331
198
102
}
 70
     0
280
     1
281
     0
  0
BLOCK_RECORD
  5
199
330
1
100
AcDbSymbolTableRecord
100
AcDbBlockTableRecord
  2
System Panel - zGlazed-5158016-LEVEL 3 - Map Export
340
0
102
{BLKREFS
331
1A0
331
1B7
331
1BB
331
1BF
331
1C3
331
1C7
102
}
 70
     0
280
     1
281
     0
  0
BLOCK_RECORD
  5
1A1
330
1
100
AcDbSymbolTableRecord
100
AcDbBlockTableRecord
  2
Rectangular Mullion - 4 1_2_ x 2_ Rectangular_CE_-5158015-LEVEL 3 - Map Export
340
0
102
{BLKREFS
331
1A6
331
1B8
331
1BC
331
1C0
331
1C4
331
1C8
102
}
 70
     0
280
     1
281
     0
  0
BLOCK_RECORD
  5
1A7
330
1
100
AcDbSymbolTableRecord
100
AcDbBlockTableRecord
  2
Rectangular Mullion - 4 1_2_ x 2_ Rectangular_CE_-5158017-LEVEL 3 - Map Export
340
0
102
{BLKREFS
331
1AE
331
1B9
331
1BD
331
1C1
331
1C5
331
1C9
102
}
 70
     0
280
     1
281
     0
  0
BLOCK_RECORD
  5
1AF
330
1
100
AcDbSymbolTableRecord
100
AcDbBlockTableRecord
  2
Rectangular Mullion - 4 1_2_ x 2_ Rectangular_CE_-5158018-LEVEL 3 - Map Export
340
0
102
{BLKREFS
331
1B6
331
1BA
331
1BE
331
1C2
331
1C6
331
1CA
102
}
 70
     0
280
     1
281
     0
  0
BLOCK_RECORD
  5
1CB
330
1
100
AcDbSymbolTableRecord
100
AcDbBlockTableRecord
  2
Door-Single_CE_ - HM Door-2_ HM Frame-5188854-LEVEL 3 - Map Export
340
0
102
{BLKREFS
331
1EB
102
}
 70
     0
280
     1
281
     0
  0
BLOCK_RECORD
  5
1EC
330
1
100
AcDbSymbolTableRecord
100
AcDbBlockTableRecord
  2
Door-Single_CE_ - HM Door-2_ HM Frame-5188851-LEVEL 3 - Map Export
340
0
102
{BLKREFS
331
20B
102
}
 70
     0
280
     1
281
     0
  0
BLOCK_RECORD
  5
217
330
1
100
AcDbSymbolTableRecord
100
AcDbBlockTableRecord
  2
Door-Single_CE_ - HM Door-2_ HM Frame-5188855-LEVEL 3 - Map Export
340
0
102
{BLKREFS
331
239
102
}
 70
     0
280
     1
281
     0
  0
BLOCK_RECORD
  5
254
330
1
100
AcDbSymbolTableRecord
100
AcDbBlockTableRecord
  2
Railing - Railing-5159730-LEVEL 3 - Map Export
340
0
102
{BLKREFS
331
25B
102
}
 70
     0
280
     1
281
     0
  0
BLOCK_RECORD
  5
25C
330
1
100
AcDbSymbolTableRecord
100
AcDbBlockTableRecord
  2
Railing - Railing-5159734-LEVEL 3 - Map Export
340
0
102
{BLKREFS
331
263
102
}
 70
     0
280
     1
281
     0
  0
ENDTAB
  0
ENDSEC
  0
SECTION
  2
BLOCKS
  0
BLOCK
  5
71
330
70
100
AcDbEntity
  8
0
100
AcDbBlockBegin
  2
*Model_Space
 70
     0
 10
0.0
 20
0.0
 30
0.0
  3
*Model_Space
  1

  0
ENDBLK
  5
72
330
70
100
AcDbEntity
  8
0
100
AcDbBlockEnd
  0
BLOCK
  5
6D
330
6C
100
AcDbEntity
 67
     1
  8
0
100
AcDbBlockBegin
  2
*Paper_Space
 70
     0
 10
0.0
 20
0.0
 30
0.0
  3
*Paper_Space
  1

  0
ENDBLK
  5
6E
330
6C
100
AcDbEntity
 67
     1
  8
0
100
AcDbBlockEnd
  0
BLOCK
  5
75
330
74
100
AcDbEntity
 67
     1
  8
0
100
AcDbBlockBegin
  2
*Paper_Space0
 70
     0
 10
0.0
 20
0.0
 30
0.0
  3
*Paper_Space0
  1

  0
ENDBLK
  5
76
330
74
100
AcDbEntity
 67
     1
  8
0
100
AcDbBlockEnd
  0
BLOCK
  5
16C
330
167
100
AcDbEntity
  8
0
100
AcDbBlockBegin
  2
System Panel - zGlazed-5157346-LEVEL 3 - Map Export
 70
     0
 10
0.0
 20
0.0
 30
0.0
  3
System Panel - zGlazed-5157346-LEVEL 3 - Map Export
  1

  0
LINE
  5
168
330
167
100
AcDbEntity
  8
A-GLAZ-CURT
370
    15
100
AcDbLine
 10
-16.00000000000002
 20
0.5000000000000568
 30
0.0
 11
16.00000000000002
 21
0.5000000000000568
 31
0.0
1001
REVIT
1002
{
1070
     1
1000
5157303
1002
}
1002
{
1070
     5
1000
645966
1002
}
  0
LINE
  5
169
330
167
100
AcDbEntity
  8
A-GLAZ-CURT
370
    15
100
AcDbLine
 10
16.00000000000002
 20
0.5000000000000568
 30
0.0
 11
16.00000000000002
 21
1.499999999999999
 31
0.0
1001
REVIT
1002
{
1070
     1
1000
5157303
1002
}
1002
{
1070
     5
1000
645966
1002
}
  0
LINE
  5
16A
330
167
100
AcDbEntity
  8
A-GLAZ-CURT
370
    15
100
AcDbLine
 10
16.00000000000002
 20
1.499999999999999
 30
0.0
 11
-16.00000000000002
 21
1.499999999999999
 31
0.0
1001
REVIT
1002
{
1070
     1
1000
5157303
1002
}
1002
{
1070
     5
1000
645966
1002
}
  0
LINE
  5
16B
330
167
100
AcDbEntity
  8
A-GLAZ-CURT
370
    15
100
AcDbLine
 10
-16.00000000000002
 20
1.499999999999999
 30
0.0
 11
-16.00000000000002
 21
0.5000000000000568
 31
0.0
1001
REVIT
1002
{
1070
     1
1000
5157303
1002
}
1002
{
1070
     5
1000
645966
1002
}
  0
ENDBLK
  5
16D
330
167
100
AcDbEntity
  8
0
100
AcDbBlockEnd
  0
BLOCK
  5
172
330
16F
100
AcDbEntity
  8
0
100
AcDbBlockBegin
  2
Rectangular Mullion - 4 1_2_ x 2_ Rectangular_CE_-5157345-LEVEL 3 - Map Export
 70
     0
 10
0.0
 20
0.0
 30
0.0
  3
Rectangular Mullion - 4 1_2_ x 2_ Rectangular_CE_-5157345-LEVEL 3 - Map Export
  1

  0
LINE
  5
170
330
16F
100
AcDbEntity
  8
A-GLAZ-CWMG
100
AcDbLine
 10
-414.8880231033706
 20
1044.990259629503
 30
0.0
 11
-446.8880231033706
 21
1044.990259629503
 31
0.0
1001
REVIT
1002
{
1070
     1
1000
5157306
1002
}
1002
{
1070
     5
1000
646104
1002
}
  0
LINE
  5
171
330
16F
100
AcDbEntity
  8
A-GLAZ-CWMG
100
AcDbLine
 10
-414.8880231033706
 20
1049.490259629503
 30
0.0
 11
-446.8880231033706
 21
1049.490259629503
 31
0.0
1001
REVIT
1002
{
1070
     1
1000
5157306
1002
}
1002
{
1070
     5
1000
646104
1002
}
  0
ENDBLK
  5
173
330
16F
100
AcDbEntity
  8
0
100
AcDbBlockEnd
  0
BLOCK
  5
17A
330
175
100
AcDbEntity
  8
0
100
AcDbBlockBegin
  2
Rectangular Mullion - 4 1_2_ x 2_ Rectangular_CE_-5157312-LEVEL 3 - Map Export
 70
     0
 10
0.0
 20
0.0
 30
0.0
  3
Rectangular Mullion - 4 1_2_ x 2_ Rectangular_CE_-5157312-LEVEL 3 - Map Export
  1

  0
LINE
  5
176
330
175
100
AcDbEntity
  8
A-GLAZ-CWMG
370
    25
100
AcDbLine
 10
-1.999999999999971
 20
2.249999999999999
 30
0.0
 11
0.0
 21
2.249999999999999
 31
0.0
1001
REVIT
1002
{
1070
     1
1000
5157307
1002
}
1002
{
1070
     5
1000
646104
1002
}
  0
LINE
  5
177
330
175
100
AcDbEntity
  8
A-GLAZ-CWMG
370
    25
100
AcDbLine
 10
0.0
 20
2.249999999999999
 30
0.0
 11
0.0
 21
-2.249999999999999
 31
0.0
1001
REVIT
1002
{
1070
     1
1000
5157307
1002
}
1002
{
1070
     5
1000
646104
1002
}
  0
LINE
  5
178
330
175
100
AcDbEntity
  8
A-GLAZ-CWMG
370
    25
100
AcDbLine
 10
0.0
 20
-2.249999999999999
 30
0.0
 11
-1.999999999999971
 21
-2.249999999999999
 31
0.0
1001
REVIT
1002
{
1070
     1
1000
5157307
1002
}
1002
{
1070
     5
1000
646104
1002
}
  0
LINE
  5
179
330
175
100
AcDbEntity
  8
A-GLAZ-CWMG
370
    25
100
AcDbLine
 10
-1.999999999999971
 20
-2.249999999999999
 30
0.0
 11
-1.999999999999971
 21
2.249999999999999
 31
0.0
1001
REVIT
1002
{
1070
     1
1000
5157307
1002
}
1002
{
1070
     5
1000
646104
1002
}
  0
ENDBLK
  5
17B
330
175
100
AcDbEntity
  8
0
100
AcDbBlockEnd
  0
BLOCK
  5
182
330
17D
100
AcDbEntity
  8
0
100
AcDbBlockBegin
  2
Rectangular Mullion - 4 1_2_ x 2_ Rectangular_CE_-5157313-LEVEL 3 - Map Export
 70
     0
 10
0.0
 20
0.0
 30
0.0
  3
Rectangular Mullion - 4 1_2_ x 2_ Rectangular_CE_-5157313-LEVEL 3 - Map Export
  1

  0
LINE
  5
17E
330
17D
100
AcDbEntity
  8
A-GLAZ-CWMG
370
    25
100
AcDbLine
 10
0.0
 20
2.249999999999999
 30
0.0
 11
-1.999999999999971
 21
2.249999999999999
 31
0.0
1001
REVIT
1002
{
1070
     1
1000
5157308
1002
}
1002
{
1070
     5
1000
646104
1002
}
  0
LINE
  5
17F
330
17D
100
AcDbEntity
  8
A-GLAZ-CWMG
370
    25
100
AcDbLine
 10
-1.999999999999971
 20
2.249999999999999
 30
0.0
 11
-1.999999999999971
 21
-2.249999999999999
 31
0.0
1001
REVIT
1002
{
1070
     1
1000
5157308
1002
}
1002
{
1070
     5
1000
646104
1002
}
  0
LINE
  5
180
330
17D
100
AcDbEntity
  8
A-GLAZ-CWMG
370
    25
100
AcDbLine
 10
-1.999999999999971
 20
-2.249999999999999
 30
0.0
 11
0.0
 21
-2.249999999999999
 31
0.0
1001
REVIT
1002
{
1070
     1
1000
5157308
1002
}
1002
{
1070
     5
1000
646104
1002
}
  0
LINE
  5
181
330
17D
100
AcDbEntity
  8
A-GLAZ-CWMG
370
    25
100
AcDbLine
 10
0.0
 20
-2.249999999999999
 30
0.0
 11
0.0
 21
2.249999999999999
 31
0.0
1001
REVIT
1002
{
1070
     1
1000
5157308
1002
}
1002
{
1070
     5
1000
646104
1002
}
  0
ENDBLK
  5
183
330
17D
100
AcDbEntity
  8
0
100
AcDbBlockEnd
  0
BLOCK
  5
19E
330
199
100
AcDbEntity
  8
0
100
AcDbBlockBegin
  2
System Panel - zGlazed-5158016-LEVEL 3 - Map Export
 70
     0
 10
0.0
 20
0.0
 30
0.0
  3
System Panel - zGlazed-5158016-LEVEL 3 - Map Export
  1

  0
LINE
  5
19A
330
199
100
AcDbEntity
  8
A-GLAZ-CURT
370
    15
100
AcDbLine
 10
-16.00000000000002
 20
-1.499999999999999
 30
0.0
 11
16.00000000000002
 21
-1.499999999999999
 31
0.0
1001
REVIT
1002
{
1070
     1
1000
5157979
1002
}
1002
{
1070
     5
1000
645966
1002
}
  0
LINE
  5
19B
330
199
100
AcDbEntity
  8
A-GLAZ-CURT
370
    15
100
AcDbLine
 10
16.00000000000002
 20
-1.499999999999999
 30
0.0
 11
16.00000000000002
 21
-0.4999999999999715
 31
0.0
1001
REVIT
1002
{
1070
     1
1000
5157979
1002
}
1002
{
1070
     5
1000
645966
1002
}
  0
LINE
  5
19C
330
199
100
AcDbEntity
  8
A-GLAZ-CURT
370
    15
100
AcDbLine
 10
16.00000000000002
 20
-0.4999999999999715
 30
0.0
 11
-16.00000000000002
 21
-0.4999999999999715
 31
0.0
1001
REVIT
1002
{
1070
     1
1000
5157979
1002
}
1002
{
1070
     5
1000
645966
1002
}
  0
LINE
  5
19D
330
199
100
AcDbEntity
  8
A-GLAZ-CURT
370
    15
100
AcDbLine
 10
-16.00000000000002
 20
-0.4999999999999715
 30
0.0
 11
-16.00000000000002
 21
-1.499999999999999
 31
0.0
1001
REVIT
1002
{
1070
     1
1000
5157979
1002
}
1002
{
1070
     5
1000
645966
1002
}
  0
ENDBLK
  5
19F
330
199
100
AcDbEntity
  8
0
100
AcDbBlockEnd
  0
BLOCK
  5
1A4
330
1A1
100
AcDbEntity
  8
0
100
AcDbBlockBegin
  2
Rectangular Mullion - 4 1_2_ x 2_ Rectangular_CE_-5158015-LEVEL 3 - Map Export
 70
     0
 10
0.0
 20
0.0
 30
0.0
  3
Rectangular Mullion - 4 1_2_ x 2_ Rectangular_CE_-5158015-LEVEL 3 - Map Export
  1

  0
LINE
  5
1A2
330
1A1
100
AcDbEntity
  8
A-GLAZ-CWMG
100
AcDbLine
 10
-414.8880231033726
 20
400.9902596294964
 30
0.0
 11
-446.8880231033726
 21
400.9902596294968
 31
0.0
1001
REVIT
1002
{
1070
     1
1000
5157981
1002
}
1002
{
1070
     5
1000
646104
1002
}
  0
LINE
  5
1A3
330
1A1
100
AcDbEntity
  8
A-GLAZ-CWMG
100
AcDbLine
 10
-414.8880231033726
 20
405.4902596294964
 30
0.0
 11
-446.8880231033726
 21
405.4902596294968
 31
0.0
1001
REVIT
1002
{
1070
     1
1000
5157981
1002
}
1002
{
1070
     5
1000
646104
1002
}
  0
ENDBLK
  5
1A5
330
1A1
100
AcDbEntity
  8
0
100
AcDbBlockEnd
  0
BLOCK
  5
1AC
330
1A7
100
AcDbEntity
  8
0
100
AcDbBlockBegin
  2
Rectangular Mullion - 4 1_2_ x 2_ Rectangular_CE_-5158017-LEVEL 3 - Map Export
 70
     0
 10
0.0
 20
0.0
 30
0.0
  3
Rectangular Mullion - 4 1_2_ x 2_ Rectangular_CE_-5158017-LEVEL 3 - Map Export
  1

  0
LINE
  5
1A8
330
1A7
100
AcDbEntity
  8
A-GLAZ-CWMG
370
    25
100
AcDbLine
 10
-1.999999999999971
 20
2.249999999999999
 30
0.0
 11
0.0
 21
2.249999999999999
 31
0.0
1001
REVIT
1002
{
1070
     1
1000
5157982
1002
}
1002
{
1070
     5
1000
646104
1002
}
  0
LINE
  5
1A9
330
1A7
100
AcDbEntity
  8
A-GLAZ-CWMG
370
    25
100
AcDbLine
 10
0.0
 20
2.249999999999999
 30
0.0
 11
0.0
 21
-2.249999999999999
 31
0.0
1001
REVIT
1002
{
1070
     1
1000
5157982
1002
}
1002
{
1070
     5
1000
646104
1002
}
  0
LINE
  5
1AA
330
1A7
100
AcDbEntity
  8
A-GLAZ-CWMG
370
    25
100
AcDbLine
 10
0.0
 20
-2.249999999999999
 30
0.0
 11
-1.999999999999971
 21
-2.249999999999999
 31
0.0
1001
REVIT
1002
{
1070
     1
1000
5157982
1002
}
1002
{
1070
     5
1000
646104
1002
}
  0
LINE
  5
1AB
330
1A7
100
AcDbEntity
  8
A-GLAZ-CWMG
370
    25
100
AcDbLine
 10
-1.999999999999971
 20
-2.249999999999999
 30
0.0
 11
-1.999999999999971
 21
2.249999999999999
 31
0.0
1001
REVIT
1002
{
1070
     1
1000
5157982
1002
}
1002
{
1070
     5
1000
646104
1002
}
  0
ENDBLK
  5
1AD
330
1A7
100
AcDbEntity
  8
0
100
AcDbBlockEnd
  0
BLOCK
  5
1B4
330
1AF
100
AcDbEntity
  8
0
100
AcDbBlockBegin
  2
Rectangular Mullion - 4 1_2_ x 2_ Rectangular_CE_-5158018-LEVEL 3 - Map Export
 70
     0
 10
0.0
 20
0.0
 30
0.0
  3
Rectangular Mullion - 4 1_2_ x 2_ Rectangular_CE_-5158018-LEVEL 3 - Map Export
  1

  0
LINE
  5
1B0
330
1AF
100
AcDbEntity
  8
A-GLAZ-CWMG
370
    25
100
AcDbLine
 10
0.0
 20
2.249999999999999
 30
0.0
 11
-1.999999999999971
 21
2.249999999999999
 31
0.0
1001
REVIT
1002
{
1070
     1
1000
5157983
1002
}
1002
{
1070
     5
1000
646104
1002
}
  0
LINE
  5
1B1
330
1AF
100
AcDbEntity
  8
A-GLAZ-CWMG
370
    25
100
AcDbLine
 10
-1.999999999999971
 20
2.249999999999999
 30
0.0
 11
-1.999999999999971
 21
-2.249999999999999
 31
0.0
1001
REVIT
1002
{
1070
     1
1000
5157983
1002
}
1002
{
1070
     5
1000
646104
1002
}
  0
LINE
  5
1B2
330
1AF
100
AcDbEntity
  8
A-GLAZ-CWMG
370
    25
100
AcDbLine
 10
-1.999999999999971
 20
-2.249999999999999
 30
0.0
 11
0.0
 21
-2.249999999999999
 31
0.0
1001
REVIT
1002
{
1070
     1
1000
5157983
1002
}
1002
{
1070
     5
1000
646104
1002
}
  0
LINE
  5
1B3
330
1AF
100
AcDbEntity
  8
A-GLAZ-CWMG
370
    25
100
AcDbLine
 10
0.0
 20
-2.249999999999999
 30
0.0
 11
0.0
 21
2.249999999999999
 31
0.0
1001
REVIT
1002
{
1070
     1
1000
5157983
1002
}
1002
{
1070
     5
1000
646104
1002
}
  0
ENDBLK
  5
1B5
330
1AF
100
AcDbEntity
  8
0
100
AcDbBlockEnd
  0
BLOCK
  5
1E9
330
1CB
100
AcDbEntity
  8
0
100
AcDbBlockBegin
  2
Door-Single_CE_ - HM Door-2_ HM Frame-5188854-LEVEL 3 - Map Export
 70
     0
 10
0.0
 20
0.0
 30
0.0
  3
Door-Single_CE_ - HM Door-2_ HM Frame-5188854-LEVEL 3 - Map Export
  1

  0
ARC
  5
1CC
330
1CB
100
AcDbEntity
  8
A-DOOR
370
     9
100
AcDbCircle
 10
18.0000000000032
 20
-2.999999999999463
 30
0.0
 40
36.0
100
AcDbArc
 50
179.5000000000001
 51
269.9999999999995
1001
REVIT
1002
{
1070
     1
1000
5158089
1002
}
1002
{
1070
     5
1000
4450563
1002
}
1002
{
1070
     3
1000
636535
1002
}
  0
LINE
  5
1CD
330
1CB
100
AcDbEntity
  8
A-DOOR
100
AcDbLine
 10
18.00000000000001
 20
-2.999999999999383
 30
0.0
 11
17.99999999999995
 21
-38.99999999999938
 31
0.0
1001
REVIT
1002
{
1070
     1
1000
5158089
1002
}
1002
{
1070
     5
1000
4450563
1002
}
1002
{
1070
     3
1000
-2000025
1002
}
  0
LINE
  5
1CE
330
1CB
100
AcDbEntity
  8
A-DOOR
100
AcDbLine
 10
17.99999999999995
 20
-38.99999999999938
 30
0.0
 11
16.24999999999995
 21
-38.99999999999938
 31
0.0
1001
REVIT
1002
{
1070
     1
1000
5158089
1002
}
1002
{
1070
     5
1000
4450563
1002
}
1002
{
1070
     3
1000
-2000025
1002
}
  0
LINE
  5
1CF
330
1CB
100
AcDbEntity
  8
A-DOOR
100
AcDbLine
 10
16.24999999999995
 20
-38.99999999999938
 30
0.0
 11
16.25000000000001
 21
-2.999999999999381
 31
0.0
1001
REVIT
1002
{
1070
     1
1000
5158089
1002
}
1002
{
1070
     5
1000
4450563
1002
}
1002
{
1070
     3
1000
-2000025
1002
}
  0
LINE
  5
1D0
330
1CB
100
AcDbEntity
  8
A-DOOR
100
AcDbLine
 10
16.25000000000001
 20
-2.99999999999938
 30
0.0
 11
18.00000000000001
 21
-2.999999999999383
 31
0.0
1001
REVIT
1002
{
1070
     1
1000
5158089
1002
}
1002
{
1070
     5
1000
4450563
1002
}
1002
{
1070
     3
1000
-2000025
1002
}
  0
ARC
  5
1D1
330
1CB
100
AcDbEntity
  8
A-DOOR
370
     9
100
AcDbCircle
 10
18.00000000000001
 20
-2.999999999999386
 30
0.0
 40
36.0
100
AcDbArc
 50
179.5000000000001
 51
269.9999999999995
1001
REVIT
1002
{
1070
     1
1000
5158089
1002
}
1002
{
1070
     5
1000
4450563
1002
}
1002
{
1070
     3
1000
636535
1002
}
  0
LINE
  5
1D3
330
1CB
100
AcDbEntity
  8
A-DOOR-FRAM
100
AcDbLine
 10
19.99999999999999
 20
3.000000000000066
 30
0.0
 11
20.00000000000001
 21
-2.999999999999918
 31
0.0
1001
REVIT
1002
{
1070
     1
1000
5158089
1002
}
1002
{
1070
     5
1000
4450563
1002
}
1002
{
1070
     3
1000
-2000029
1002
}
  0
LINE
  5
1D4
330
1CB
100
AcDbEntity
  8
A-DOOR-FRAM
100
AcDbLine
 10
18.00000000000006
 20
3.000000000000059
 30
0.0
 11
19.99999999999999
 21
3.000000000000066
 31
0.0
1001
REVIT
1002
{
1070
     1
1000
5158089
1002
}
1002
{
1070
     5
1000
4450563
1002
}
1002
{
1070
     3
1000
-2000029
1002
}
  0
LINE
  5
1D5
330
1CB
100
AcDbEntity
  8
A-DOOR-FRAM
100
AcDbLine
 10
18.00000000000007
 20
0.7499999999998814
 30
0.0
 11
18.00000000000006
 21
3.000000000000059
 31
0.0
1001
REVIT
1002
{
1070
     1
1000
5158089
1002
}
1002
{
1070
     5
1000
4450563
1002
}
1002
{
1070
     3
1000
-2000029
1002
}
  0
LINE
  5
1D6
330
1CB
100
AcDbEntity
  8
A-DOOR-FRAM
100
AcDbLine
 10
17.49999999999995
 20
0.74999999999988
 30
0.0
 11
18.00000000000007
 21
0.7499999999998814
 31
0.0
1001
REVIT
1002
{
1070
     1
1000
5158089
1002
}
1002
{
1070
     5
1000
4450563
1002
}
1002
{
1070
     3
1000
-2000029
1002
}
  0
LINE
  5
1D7
330
1CB
100
AcDbEntity
  8
A-DOOR-FRAM
100
AcDbLine
 10
17.49999999999995
 20
-1.250000000000172
 30
0.0
 11
17.49999999999995
 21
0.74999999999988
 31
0.0
1001
REVIT
1002
{
1070
     1
1000
5158089
1002
}
1002
{
1070
     5
1000
4450563
1002
}
1002
{
1070
     3
1000
-2000029
1002
}
  0
LINE
  5
1D8
330
1CB
100
AcDbEntity
  8
A-DOOR-FRAM
100
AcDbLine
 10
18.00000000000007
 20
-1.250000000000171
 30
0.0
 11
17.49999999999995
 21
-1.250000000000172
 31
0.0
1001
REVIT
1002
{
1070
     1
1000
5158089
1002
}
1002
{
1070
     5
1000
4450563
1002
}
1002
{
1070
     3
1000
-2000029
1002
}
  0
LINE
  5
1D9
330
1CB
100
AcDbEntity
  8
A-DOOR-FRAM
100
AcDbLine
 10
18.00000000000007
 20
-2.999999999999925
 30
0.0
 11
18.00000000000007
 21
-1.250000000000171
 31
0.0
1001
REVIT
1002
{
1070
     1
1000
5158089
1002
}
1002
{
1070
     5
1000
4450563
1002
}
1002
{
1070
     3
1000
-2000029
1002
}
  0
LINE
  5
1DA
330
1CB
100
AcDbEntity
  8
A-DOOR-FRAM
100
AcDbLine
 10
20.00000000000001
 20
-2.999999999999918
 30
0.0
 11
18.00000000000007
 21
-2.999999999999925
 31
0.0
1001
REVIT
1002
{
1070
     1
1000
5158089
1002
}
1002
{
1070
     5
1000
4450563
1002
}
1002
{
1070
     3
1000
-2000029
1002
}
  0
LINE
  5
1DB
330
1CB
100
AcDbEntity
  8
A-DOOR-FRAM
100
AcDbLine
 10
-17.99999999999988
 20
-1.250000000000291
 30
0.0
 11
-17.99999999999988
 21
-3.00000000000004
 31
0.0
1001
REVIT
1002
{
1070
     1
1000
5158089
1002
}
1002
{
1070
     5
1000
4450563
1002
}
1002
{
1070
     3
1000
-2000029
1002
}
  0
LINE
  5
1DC
330
1CB
100
AcDbEntity
  8
A-DOOR-FRAM
100
AcDbLine
 10
-17.4999999999999
 20
-1.250000000000289
 30
0.0
 11
-17.99999999999988
 21
-1.250000000000291
 31
0.0
1001
REVIT
1002
{
1070
     1
1000
5158089
1002
}
1002
{
1070
     5
1000
4450563
1002
}
1002
{
1070
     3
1000
-2000029
1002
}
  0
LINE
  5
1DD
330
1CB
100
AcDbEntity
  8
A-DOOR-FRAM
100
AcDbLine
 10
-17.49999999999991
 20
0.7499999999997672
 30
0.0
 11
-17.4999999999999
 21
-1.250000000000289
 31
0.0
1001
REVIT
1002
{
1070
     1
1000
5158089
1002
}
1002
{
1070
     5
1000
4450563
1002
}
1002
{
1070
     3
1000
-2000029
1002
}
  0
LINE
  5
1DE
330
1CB
100
AcDbEntity
  8
A-DOOR-FRAM
100
AcDbLine
 10
-17.99999999999989
 20
0.7499999999997674
 30
0.0
 11
-17.49999999999991
 21
0.7499999999997672
 31
0.0
1001
REVIT
1002
{
1070
     1
1000
5158089
1002
}
1002
{
1070
     5
1000
4450563
1002
}
1002
{
1070
     3
1000
-2000029
1002
}
  0
LINE
  5
1DF
330
1CB
100
AcDbEntity
  8
A-DOOR-FRAM
100
AcDbLine
 10
-17.9999999999999
 20
2.999999999999943
 30
0.0
 11
-17.99999999999989
 21
0.7499999999997674
 31
0.0
1001
REVIT
1002
{
1070
     1
1000
5158089
1002
}
1002
{
1070
     5
1000
4450563
1002
}
1002
{
1070
     3
1000
-2000029
1002
}
  0
LINE
  5
1E0
330
1CB
100
AcDbEntity
  8
A-DOOR-FRAM
100
AcDbLine
 10
-20.00000000000013
 20
2.999999999999936
 30
0.0
 11
-17.9999999999999
 21
2.999999999999943
 31
0.0
1001
REVIT
1002
{
1070
     1
1000
5158089
1002
}
1002
{
1070
     5
1000
4450563
1002
}
1002
{
1070
     3
1000
-2000029
1002
}
  0
LINE
  5
1E1
330
1CB
100
AcDbEntity
  8
A-DOOR-FRAM
100
AcDbLine
 10
-20.00000000000011
 20
-3.000000000000047
 30
0.0
 11
-20.00000000000013
 21
2.999999999999936
 31
0.0
1001
REVIT
1002
{
1070
     1
1000
5158089
1002
}
1002
{
1070
     5
1000
4450563
1002
}
1002
{
1070
     3
1000
-2000029
1002
}
  0
LINE
  5
1E2
330
1CB
100
AcDbEntity
  8
A-DOOR-FRAM
100
AcDbLine
 10
-17.99999999999988
 20
-3.00000000000004
 30
0.0
 11
-20.00000000000011
 21
-3.000000000000047
 31
0.0
1001
REVIT
1002
{
1070
     1
1000
5158089
1002
}
1002
{
1070
     5
1000
4450563
1002
}
1002
{
1070
     3
1000
-2000029
1002
}
  0
LINE
  5
1E3
330
1CB
100
AcDbEntity
  8
A-DOOR
370
    25
100
AcDbLine
 10
17.99999999999993
 20
-38.99999999999938
 30
0.0
 11
16.24999999999993
 21
-38.99999999999938
 31
0.0
1001
REVIT
1002
{
1070
     1
1000
5158089
1002
}
1002
{
1070
     5
1000
4450563
1002
}
  0
LINE
  5
1E4
330
1CB
100
AcDbEntity
  8
A-DOOR
370
    25
100
AcDbLine
 10
18.0
 20
-2.999999999999383
 30
0.0
 11
17.99999999999993
 21
-38.99999999999938
 31
0.0
1001
REVIT
1002
{
1070
     1
1000
5158089
1002
}
1002
{
1070
     5
1000
4450563
1002
}
  0
LINE
  5
1E5
330
1CB
100
AcDbEntity
  8
A-DOOR
370
    25
100
AcDbLine
 10
16.24999999999993
 20
-38.99999999999938
 30
0.0
 11
16.25
 21
-2.999999999999381
 31
0.0
1001
REVIT
1002
{
1070
     1
1000
5158089
1002
}
1002
{
1070
     5
1000
4450563
1002
}
  0
LINE
  5
1E6
330
1CB
100
AcDbEntity
  8
A-DOOR
370
    25
100
AcDbLine
 10
18.0
 20
-2.999999999999383
 30
0.0
 11
16.25
 21
-2.999999999999381
 31
0.0
1001
REVIT
1002
{
1070
     1
1000
5158089
1002
}
1002
{
1070
     5
1000
4450563
1002
}
  0
ARC
  5
1E7
330
1CB
100
AcDbEntity
  8
A-DOOR
370
     9
100
AcDbCircle
 10
18.0
 20
-2.999999999999386
 30
0.0
 40
36.0
100
AcDbArc
 50
179.5000000000028
 51
269.9999999999995
1001
REVIT
1002
{
1070
     1
1000
5158089
1002
}
1002
{
1070
     5
1000
4450563
1002
}
1002
{
1070
     3
1000
636535
1002
}
  0
ARC
  5
1E8
330
1CB
100
AcDbEntity
  8
A-DOOR
370
     9
100
AcDbCircle
 10
18.0
 20
-2.999999999999386
 30
0.0
 40
36.0
100
AcDbArc
 50
179.5000000000034
 51
269.9999999999995
1001
REVIT
1002
{
1070
     1
1000
5158089
1002
}
1002
{
1070
     5
1000
4450563
1002
}
1002
{
1070
     3
1000
636535
1002
}
  0
ENDBLK
  5
1EA
330
1CB
100
AcDbEntity
  8
0
100
AcDbBlockEnd
  0
BLOCK
  5
209
330
1EC
100
AcDbEntity
  8
0
100
AcDbBlockBegin
  2
Door-Single_CE_ - HM Door-2_ HM Frame-5188851-LEVEL 3 - Map Export
 70
     0
 10
0.0
 20
0.0
 30
0.0
  3
Door-Single_CE_ - HM Door-2_ HM Frame-5188851-LEVEL 3 - Map Export
  1

  0
ARC
  5
1ED
330
1EC
100
AcDbEntity
  8
A-DOOR
370
     9
100
AcDbCircle
 10
18.0000000000032
 20
2.999999999999463
 30
0.0
 40
36.0
100
AcDbArc
 50
90.00000000000012
 51
180.4999999999995
1001
REVIT
1002
{
1070
     1
1000
5158183
1002
}
1002
{
1070
     5
1000
4450563
1002
}
1002
{
1070
     3
1000
636535
1002
}
  0
LINE
  5
1EE
330
1EC
100
AcDbEntity
  8
A-DOOR
100
AcDbLine
 10
18.00000000000001
 20
2.999999999999383
 30
0.0
 11
17.99999999999995
 21
38.99999999999938
 31
0.0
1001
REVIT
1002
{
1070
     1
1000
5158183
1002
}
1002
{
1070
     5
1000
4450563
1002
}
1002
{
1070
     3
1000
-2000025
1002
}
  0
LINE
  5
1EF
330
1EC
100
AcDbEntity
  8
A-DOOR
100
AcDbLine
 10
17.99999999999995
 20
38.99999999999938
 30
0.0
 11
16.24999999999995
 21
38.99999999999938
 31
0.0
1001
REVIT
1002
{
1070
     1
1000
5158183
1002
}
1002
{
1070
     5
1000
4450563
1002
}
1002
{
1070
     3
1000
-2000025
1002
}
  0
LINE
  5
1F0
330
1EC
100
AcDbEntity
  8
A-DOOR
100
AcDbLine
 10
16.24999999999995
 20
38.99999999999938
 30
0.0
 11
16.25000000000001
 21
2.999999999999381
 31
0.0
1001
REVIT
1002
{
1070
     1
1000
5158183
1002
}
1002
{
1070
     5
1000
4450563
1002
}
1002
{
1070
     3
1000
-2000025
1002
}
  0
LINE
  5
1F1
330
1EC
100
AcDbEntity
  8
A-DOOR
100
AcDbLine
 10
16.25000000000001
 20
2.99999999999938
 30
0.0
 11
18.00000000000001
 21
2.999999999999383
 31
0.0
1001
REVIT
1002
{
1070
     1
1000
5158183
1002
}
1002
{
1070
     5
1000
4450563
1002
}
1002
{
1070
     3
1000
-2000025
1002
}
  0
ARC
  5
1F2
330
1EC
100
AcDbEntity
  8
A-DOOR
370
     9
100
AcDbCircle
 10
18.00000000000001
 20
2.999999999999386
 30
0.0
 40
36.0
100
AcDbArc
 50
90.00000000000012
 51
180.4999999999995
1001
REVIT
1002
{
1070
     1
1000
5158183
1002
}
1002
{
1070
     5
1000
4450563
1002
}
1002
{
1070
     3
1000
636535
1002
}
  0
LINE
  5
1F3
330
1EC
100
AcDbEntity
  8
A-DOOR-FRAM
100
AcDbLine
 10
20.00000000000001
 20
2.999999999999918
 30
0.0
 11
18.00000000000007
 21
2.999999999999925
 31
0.0
1001
REVIT
1002
{
1070
     1
1000
5158183
1002
}
1002
{
1070
     5
1000
4450563
1002
}
1002
{
1070
     3
1000
-2000029
1002
}
  0
LINE
  5
1F4
330
1EC
100
AcDbEntity
  8
A-DOOR-FRAM
100
AcDbLine
 10
18.00000000000007
 20
2.999999999999925
 30
0.0
 11
18.00000000000007
 21
1.250000000000171
 31
0.0
1001
REVIT
1002
{
1070
     1
1000
5158183
1002
}
1002
{
1070
     5
1000
4450563
1002
}
1002
{
1070
     3
1000
-2000029
1002
}
  0
LINE
  5
1F5
330
1EC
100
AcDbEntity
  8
A-DOOR-FRAM
100
AcDbLine
 10
18.00000000000007
 20
1.250000000000171
 30
0.0
 11
17.49999999999995
 21
1.250000000000172
 31
0.0
1001
REVIT
1002
{
1070
     1
1000
5158183
1002
}
1002
{
1070
     5
1000
4450563
1002
}
1002
{
1070
     3
1000
-2000029
1002
}
  0
LINE
  5
1F6
330
1EC
100
AcDbEntity
  8
A-DOOR-FRAM
100
AcDbLine
 10
17.49999999999995
 20
1.250000000000172
 30
0.0
 11
17.49999999999995
 21
-0.74999999999988
 31
0.0
1001
REVIT
1002
{
1070
     1
1000
5158183
1002
}
1002
{
1070
     5
1000
4450563
1002
}
1002
{
1070
     3
1000
-2000029
1002
}
  0
LINE
  5
1F7
330
1EC
100
AcDbEntity
  8
A-DOOR-FRAM
100
AcDbLine
 10
17.49999999999995
 20
-0.74999999999988
 30
0.0
 11
18.00000000000007
 21
-0.7499999999998814
 31
0.0
1001
REVIT
1002
{
1070
     1
1000
5158183
1002
}
1002
{
1070
     5
1000
4450563
1002
}
1002
{
1070
     3
1000
-2000029
1002
}
  0
LINE
  5
1F8
330
1EC
100
AcDbEntity
  8
A-DOOR-FRAM
100
AcDbLine
 10
18.00000000000007
 20
-0.7499999999998814
 30
0.0
 11
18.00000000000006
 21
-3.000000000000059
 31
0.0
1001
REVIT
1002
{
1070
     1
1000
5158183
1002
}
1002
{
1070
     5
1000
4450563
1002
}
1002
{
1070
     3
1000
-2000029
1002
}
  0
LINE
  5
1F9
330
1EC
100
AcDbEntity
  8
A-DOOR-FRAM
100
AcDbLine
 10
18.00000000000006
 20
-3.000000000000059
 30
0.0
 11
19.99999999999999
 21
-3.000000000000066
 31
0.0
1001
REVIT
1002
{
1070
     1
1000
5158183
1002
}
1002
{
1070
     5
1000
4450563
1002
}
1002
{
1070
     3
1000
-2000029
1002
}
  0
LINE
  5
1FA
330
1EC
100
AcDbEntity
  8
A-DOOR-FRAM
100
AcDbLine
 10
19.99999999999999
 20
-3.000000000000066
 30
0.0
 11
20.00000000000001
 21
2.999999999999918
 31
0.0
1001
REVIT
1002
{
1070
     1
1000
5158183
1002
}
1002
{
1070
     5
1000
4450563
1002
}
1002
{
1070
     3
1000
-2000029
1002
}
  0
LINE
  5
1FB
330
1EC
100
AcDbEntity
  8
A-DOOR-FRAM
100
AcDbLine
 10
-17.99999999999988
 20
3.00000000000004
 30
0.0
 11
-20.00000000000011
 21
3.000000000000047
 31
0.0
1001
REVIT
1002
{
1070
     1
1000
5158183
1002
}
1002
{
1070
     5
1000
4450563
1002
}
1002
{
1070
     3
1000
-2000029
1002
}
  0
LINE
  5
1FC
330
1EC
100
AcDbEntity
  8
A-DOOR-FRAM
100
AcDbLine
 10
-20.00000000000011
 20
3.000000000000047
 30
0.0
 11
-20.00000000000013
 21
-2.999999999999936
 31
0.0
1001
REVIT
1002
{
1070
     1
1000
5158183
1002
}
1002
{
1070
     5
1000
4450563
1002
}
1002
{
1070
     3
1000
-2000029
1002
}
  0
LINE
  5
1FD
330
1EC
100
AcDbEntity
  8
A-DOOR-FRAM
100
AcDbLine
 10
-20.00000000000013
 20
-2.999999999999936
 30
0.0
 11
-17.9999999999999
 21
-2.999999999999943
 31
0.0
1001
REVIT
1002
{
1070
     1
1000
5158183
1002
}
1002
{
1070
     5
1000
4450563
1002
}
1002
{
1070
     3
1000
-2000029
1002
}
  0
LINE
  5
1FE
330
1EC
100
AcDbEntity
  8
A-DOOR-FRAM
100
AcDbLine
 10
-17.9999999999999
 20
-2.999999999999943
 30
0.0
 11
-17.99999999999989
 21
-0.7499999999997674
 31
0.0
1001
REVIT
1002
{
1070
     1
1000
5158183
1002
}
1002
{
1070
     5
1000
4450563
1002
}
1002
{
1070
     3
1000
-2000029
1002
}
  0
LINE
  5
1FF
330
1EC
100
AcDbEntity
  8
A-DOOR-FRAM
100
AcDbLine
 10
-17.99999999999989
 20
-0.7499999999997674
 30
0.0
 11
-17.49999999999991
 21
-0.7499999999997672
 31
0.0
1001
REVIT
1002
{
1070
     1
1000
5158183
1002
}
1002
{
1070
     5
1000
4450563
1002
}
1002
{
1070
     3
1000
-2000029
1002
}
  0
LINE
  5
200
330
1EC
100
AcDbEntity
  8
A-DOOR-FRAM
100
AcDbLine
 10
-17.49999999999991
 20
-0.7499999999997672
 30
0.0
 11
-17.4999999999999
 21
1.250000000000289
 31
0.0
1001
REVIT
1002
{
1070
     1
1000
5158183
1002
}
1002
{
1070
     5
1000
4450563
1002
}
1002
{
1070
     3
1000
-2000029
1002
}
  0
LINE
  5
201
330
1EC
100
AcDbEntity
  8
A-DOOR-FRAM
100
AcDbLine
 10
-17.4999999999999
 20
1.250000000000289
 30
0.0
 11
-17.99999999999988
 21
1.250000000000291
 31
0.0
1001
REVIT
1002
{
1070
     1
1000
5158183
1002
}
1002
{
1070
     5
1000
4450563
1002
}
1002
{
1070
     3
1000
-2000029
1002
}
  0
LINE
  5
202
330
1EC
100
AcDbEntity
  8
A-DOOR-FRAM
100
AcDbLine
 10
-17.99999999999988
 20
1.250000000000291
 30
0.0
 11
-17.99999999999988
 21
3.00000000000004
 31
0.0
1001
REVIT
1002
{
1070
     1
1000
5158183
1002
}
1002
{
1070
     5
1000
4450563
1002
}
1002
{
1070
     3
1000
-2000029
1002
}
  0
LINE
  5
203
330
1EC
100
AcDbEntity
  8
A-DOOR
370
    25
100
AcDbLine
 10
17.99999999999993
 20
38.99999999999938
 30
0.0
 11
16.24999999999993
 21
38.99999999999938
 31
0.0
1001
REVIT
1002
{
1070
     1
1000
5158183
1002
}
1002
{
1070
     5
1000
4450563
1002
}
  0
LINE
  5
204
330
1EC
100
AcDbEntity
  8
A-DOOR
370
    25
100
AcDbLine
 10
18.0
 20
2.999999999999383
 30
0.0
 11
17.99999999999993
 21
38.99999999999938
 31
0.0
1001
REVIT
1002
{
1070
     1
1000
5158183
1002
}
1002
{
1070
     5
1000
4450563
1002
}
  0
LINE
  5
205
330
1EC
100
AcDbEntity
  8
A-DOOR
370
    25
100
AcDbLine
 10
16.24999999999993
 20
38.99999999999938
 30
0.0
 11
16.25
 21
2.999999999999381
 31
0.0
1001
REVIT
1002
{
1070
     1
1000
5158183
1002
}
1002
{
1070
     5
1000
4450563
1002
}
  0
LINE
  5
206
330
1EC
100
AcDbEntity
  8
A-DOOR
370
    25
100
AcDbLine
 10
18.0
 20
2.999999999999383
 30
0.0
 11
16.25
 21
2.999999999999381
 31
0.0
1001
REVIT
1002
{
1070
     1
1000
5158183
1002
}
1002
{
1070
     5
1000
4450563
1002
}
  0
ARC
  5
207
330
1EC
100
AcDbEntity
  8
A-DOOR
370
     9
100
AcDbCircle
 10
18.0
 20
2.999999999999386
 30
0.0
 40
36.0
100
AcDbArc
 50
90.00000000000012
 51
180.4999999999968
1001
REVIT
1002
{
1070
     1
1000
5158183
1002
}
1002
{
1070
     5
1000
4450563
1002
}
1002
{
1070
     3
1000
636535
1002
}
  0
ARC
  5
208
330
1EC
100
AcDbEntity
  8
A-DOOR
370
     9
100
AcDbCircle
 10
18.0
 20
2.999999999999386
 30
0.0
 40
36.0
100
AcDbArc
 50
90.00000000000012
 51
180.4999999999962
1001
REVIT
1002
{
1070
     1
1000
5158183
1002
}
1002
{
1070
     5
1000
4450563
1002
}
1002
{
1070
     3
1000
636535
1002
}
  0
ENDBLK
  5
20A
330
1EC
100
AcDbEntity
  8
0
100
AcDbBlockEnd
  0
BLOCK
  5
237
330
217
100
AcDbEntity
  8
0
100
AcDbBlockBegin
  2
Door-Single_CE_ - HM Door-2_ HM Frame-5188855-LEVEL 3 - Map Export
 70
     0
 10
0.0
 20
0.0
 30
0.0
  3
Door-Single_CE_ - HM Door-2_ HM Frame-5188855-LEVEL 3 - Map Export
  1

  0
ARC
  5
218
330
217
100
AcDbEntity
  8
A-DOOR
370
     9
100
AcDbCircle
 10
16.00000000000319
 20
-2.999999999999466
 30
0.0
 40
31.99999999999999
100
AcDbArc
 50
179.5
 51
263.940245073434
1001
REVIT
1002
{
1070
     1
1000
5158639
1002
}
1002
{
1070
     5
1000
4450563
1002
}
1002
{
1070
     3
1000
636535
1002
}
  0
ARC
  5
219
330
217
100
AcDbEntity
  8
A-DOOR
370
     9
100
AcDbCircle
 10
16.00000000000319
 20
-2.999999999999466
 30
0.0
 40
31.99999999999999
100
AcDbArc
 50
267.5335669888639
 51
270.0000000000053
1001
REVIT
1002
{
1070
     1
1000
5158639
1002
}
1002
{
1070
     5
1000
4450563
1002
}
1002
{
1070
     3
1000
636535
1002
}
  0
LINE
  5
21A
330
217
100
AcDbEntity
  8
A-DOOR
100
AcDbLine
 10
16.0
 20
-2.999999999999386
 30
0.0
 11
15.99999999999998
 21
-14.37717057790589
 31
0.0
1001
REVIT
1002
{
1070
     1
1000
5158639
1002
}
1002
{
1070
     5
1000
4450563
1002
}
1002
{
1070
     3
1000
-2000025
1002
}
  0
LINE
  5
21B
330
217
100
AcDbEntity
  8
A-DOOR
100
AcDbLine
 10
15.99999999999998
 20
-16.87698024917142
 30
0.0
 11
15.99999999999995
 21
-34.99999999999939
 31
0.0
1001
REVIT
1002
{
1070
     1
1000
5158639
1002
}
1002
{
1070
     5
1000
4450563
1002
}
1002
{
1070
     3
1000
-2000025
1002
}
  0
LINE
  5
21C
330
217
100
AcDbEntity
  8
A-DOOR
100
AcDbLine
 10
15.99999999999995
 20
-34.99999999999938
 30
0.0
 11
14.62721288591527
 21
-34.99999999999938
 31
0.0
1001
REVIT
1002
{
1070
     1
1000
5158639
1002
}
1002
{
1070
     5
1000
4450563
1002
}
1002
{
1070
     3
1000
-2000025
1002
}
  0
LINE
  5
21D
330
217
100
AcDbEntity
  8
A-DOOR
100
AcDbLine
 10
14.24999999999998
 20
-14.37717057790589
 30
0.0
 11
14.25
 21
-2.999999999999386
 31
0.0
1001
REVIT
1002
{
1070
     1
1000
5158639
1002
}
1002
{
1070
     5
1000
4450563
1002
}
1002
{
1070
     3
1000
-2000025
1002
}
  0
LINE
  5
21E
330
217
100
AcDbEntity
  8
A-DOOR
100
AcDbLine
 10
14.25
 20
-2.999999999999383
 30
0.0
 11
16.0
 21
-2.999999999999386
 31
0.0
1001
REVIT
1002
{
1070
     1
1000
5158639
1002
}
1002
{
1070
     5
1000
4450563
1002
}
1002
{
1070
     3
1000
-2000025
1002
}
  0
ARC
  5
21F
330
217
100
AcDbEntity
  8
A-DOOR
370
     9
100
AcDbCircle
 10
16.0
 20
-2.999999999999389
 30
0.0
 40
31.99999999999999
100
AcDbArc
 50
179.5000000000001
 51
263.9402450734396
1001
REVIT
1002
{
1070
     1
1000
5158639
1002
}
1002
{
1070
     5
1000
4450563
1002
}
1002
{
1070
     3
1000
636535
1002
}
  0
ARC
  5
220
330
217
100
AcDbEntity
  8
A-DOOR
370
     9
100
AcDbCircle
 10
16.0
 20
-2.999999999999389
 30
0.0
 40
31.99999999999999
100
AcDbArc
 50
267.5335669888694
 51
269.9999999999995
1001
REVIT
1002
{
1070
     1
1000
5158639
1002
}
1002
{
1070
     5
1000
4450563
1002
}
1002
{
1070
     3
1000
636535
1002
}
  0
LINE
  5
221
330
217
100
AcDbEntity
  8
A-DOOR-FRAM
100
AcDbLine
 10
18.00000000001515
 20
3.000000000000059
 30
0.0
 11
18.00000000001517
 21
-2.999999999999925
 31
0.0
1001
REVIT
1002
{
1070
     1
1000
5158639
1002
}
1002
{
1070
     5
1000
4450563
1002
}
1002
{
1070
     3
1000
-2000029
1002
}
  0
LINE
  5
222
330
217
100
AcDbEntity
  8
A-DOOR-FRAM
100
AcDbLine
 10
15.99999999999999
 20
3.000000000000053
 30
0.0
 11
18.00000000001515
 21
3.000000000000059
 31
0.0
1001
REVIT
1002
{
1070
     1
1000
5158639
1002
}
1002
{
1070
     5
1000
4450563
1002
}
1002
{
1070
     3
1000
-2000029
1002
}
  0
LINE
  5
223
330
217
100
AcDbEntity
  8
A-DOOR-FRAM
100
AcDbLine
 10
15.99999999999999
 20
0.7499999999998753
 30
0.0
 11
15.99999999999999
 21
3.000000000000053
 31
0.0
1001
REVIT
1002
{
1070
     1
1000
5158639
1002
}
1002
{
1070
     5
1000
4450563
1002
}
1002
{
1070
     3
1000
-2000029
1002
}
  0
LINE
  5
224
330
217
100
AcDbEntity
  8
A-DOOR-FRAM
100
AcDbLine
 10
15.5
 20
0.7499999999998738
 30
0.0
 11
15.99999999999999
 21
0.7499999999998753
 31
0.0
1001
REVIT
1002
{
1070
     1
1000
5158639
1002
}
1002
{
1070
     5
1000
4450563
1002
}
1002
{
1070
     3
1000
-2000029
1002
}
  0
LINE
  5
225
330
217
100
AcDbEntity
  8
A-DOOR-FRAM
100
AcDbLine
 10
15.50000000000001
 20
-1.250000000000178
 30
0.0
 11
15.5
 21
0.7499999999998737
 31
0.0
1001
REVIT
1002
{
1070
     1
1000
5158639
1002
}
1002
{
1070
     5
1000
4450563
1002
}
1002
{
1070
     3
1000
-2000029
1002
}
  0
LINE
  5
226
330
217
100
AcDbEntity
  8
A-DOOR-FRAM
100
AcDbLine
 10
16.0
 20
-1.250000000000177
 30
0.0
 11
15.50000000000001
 21
-1.250000000000178
 31
0.0
1001
REVIT
1002
{
1070
     1
1000
5158639
1002
}
1002
{
1070
     5
1000
4450563
1002
}
1002
{
1070
     3
1000
-2000029
1002
}
  0
LINE
  5
227
330
217
100
AcDbEntity
  8
A-DOOR-FRAM
100
AcDbLine
 10
16.0
 20
-2.999999999999931
 30
0.0
 11
16.0
 21
-1.250000000000177
 31
0.0
1001
REVIT
1002
{
1070
     1
1000
5158639
1002
}
1002
{
1070
     5
1000
4450563
1002
}
1002
{
1070
     3
1000
-2000029
1002
}
  0
LINE
  5
228
330
217
100
AcDbEntity
  8
A-DOOR-FRAM
100
AcDbLine
 10
18.00000000001517
 20
-2.999999999999924
 30
0.0
 11
16.0
 21
-2.999999999999931
 31
0.0
1001
REVIT
1002
{
1070
     1
1000
5158639
1002
}
1002
{
1070
     5
1000
4450563
1002
}
1002
{
1070
     3
1000
-2000029
1002
}
  0
LINE
  5
229
330
217
100
AcDbEntity
  8
A-DOOR-FRAM
100
AcDbLine
 10
-15.99999999999997
 20
-1.250000000000283
 30
0.0
 11
-15.99999999999997
 21
-3.000000000000034
 31
0.0
1001
REVIT
1002
{
1070
     1
1000
5158639
1002
}
1002
{
1070
     5
1000
4450563
1002
}
1002
{
1070
     3
1000
-2000029
1002
}
  0
LINE
  5
22A
330
217
100
AcDbEntity
  8
A-DOOR-FRAM
100
AcDbLine
 10
-15.49999999999998
 20
-1.250000000000282
 30
0.0
 11
-15.99999999999997
 21
-1.250000000000283
 31
0.0
1001
REVIT
1002
{
1070
     1
1000
5158639
1002
}
1002
{
1070
     5
1000
4450563
1002
}
1002
{
1070
     3
1000
-2000029
1002
}
  0
LINE
  5
22B
330
217
100
AcDbEntity
  8
A-DOOR-FRAM
100
AcDbLine
 10
-15.49999999999999
 20
0.7499999999997736
 30
0.0
 11
-15.49999999999998
 21
-1.250000000000282
 31
0.0
1001
REVIT
1002
{
1070
     1
1000
5158639
1002
}
1002
{
1070
     5
1000
4450563
1002
}
1002
{
1070
     3
1000
-2000029
1002
}
  0
LINE
  5
22C
330
217
100
AcDbEntity
  8
A-DOOR-FRAM
100
AcDbLine
 10
-15.99999999999998
 20
0.7499999999997735
 30
0.0
 11
-15.49999999999999
 21
0.7499999999997736
 31
0.0
1001
REVIT
1002
{
1070
     1
1000
5158639
1002
}
1002
{
1070
     5
1000
4450563
1002
}
1002
{
1070
     3
1000
-2000029
1002
}
  0
LINE
  5
22D
330
217
100
AcDbEntity
  8
A-DOOR-FRAM
100
AcDbLine
 10
-15.99999999999999
 20
2.999999999999949
 30
0.0
 11
-15.99999999999998
 21
0.7499999999997735
 31
0.0
1001
REVIT
1002
{
1070
     1
1000
5158639
1002
}
1002
{
1070
     5
1000
4450563
1002
}
1002
{
1070
     3
1000
-2000029
1002
}
  0
LINE
  5
22E
330
217
100
AcDbEntity
  8
A-DOOR-FRAM
100
AcDbLine
 10
-17.99999999998389
 20
2.999999999999943
 30
0.0
 11
-15.99999999999999
 21
2.999999999999949
 31
0.0
1001
REVIT
1002
{
1070
     1
1000
5158639
1002
}
1002
{
1070
     5
1000
4450563
1002
}
1002
{
1070
     3
1000
-2000029
1002
}
  0
LINE
  5
22F
330
217
100
AcDbEntity
  8
A-DOOR-FRAM
100
AcDbLine
 10
-17.99999999998387
 20
-3.00000000000004
 30
0.0
 11
-17.99999999998389
 21
2.999999999999943
 31
0.0
1001
REVIT
1002
{
1070
     1
1000
5158639
1002
}
1002
{
1070
     5
1000
4450563
1002
}
1002
{
1070
     3
1000
-2000029
1002
}
  0
LINE
  5
230
330
217
100
AcDbEntity
  8
A-DOOR-FRAM
100
AcDbLine
 10
-15.99999999999997
 20
-3.000000000000034
 30
0.0
 11
-17.99999999998387
 21
-3.00000000000004
 31
0.0
1001
REVIT
1002
{
1070
     1
1000
5158639
1002
}
1002
{
1070
     5
1000
4450563
1002
}
1002
{
1070
     3
1000
-2000029
1002
}
  0
LINE
  5
231
330
217
100
AcDbEntity
  8
A-DOOR
370
    25
100
AcDbLine
 10
15.99999999999995
 20
-34.99999999999938
 30
0.0
 11
14.24999999999995
 21
-34.99999999999938
 31
0.0
1001
REVIT
1002
{
1070
     1
1000
5158639
1002
}
1002
{
1070
     5
1000
4450563
1002
}
  0
LINE
  5
232
330
217
100
AcDbEntity
  8
A-DOOR
370
    25
100
AcDbLine
 10
16.0
 20
-2.999999999999386
 30
0.0
 11
15.99999999999995
 21
-34.99999999999938
 31
0.0
1001
REVIT
1002
{
1070
     1
1000
5158639
1002
}
1002
{
1070
     5
1000
4450563
1002
}
  0
LINE
  5
233
330
217
100
AcDbEntity
  8
A-DOOR
370
    25
100
AcDbLine
 10
14.24999999999995
 20
-34.99999999999938
 30
0.0
 11
14.25
 21
-2.999999999999381
 31
0.0
1001
REVIT
1002
{
1070
     1
1000
5158639
1002
}
1002
{
1070
     5
1000
4450563
1002
}
  0
LINE
  5
234
330
217
100
AcDbEntity
  8
A-DOOR
370
    25
100
AcDbLine
 10
16.0
 20
-2.999999999999386
 30
0.0
 11
14.25
 21
-2.999999999999383
 31
0.0
1001
REVIT
1002
{
1070
     1
1000
5158639
1002
}
1002
{
1070
     5
1000
4450563
1002
}
  0
ARC
  5
235
330
217
100
AcDbEntity
  8
A-DOOR
370
     9
100
AcDbCircle
 10
16.0
 20
-2.999999999999389
 30
0.0
 40
32.0
100
AcDbArc
 50
179.4696697037671
 51
269.9999999999996
1001
REVIT
1002
{
1070
     1
1000
5158639
1002
}
1002
{
1070
     5
1000
4450563
1002
}
1002
{
1070
     3
1000
636535
1002
}
  0
ARC
  5
236
330
217
100
AcDbEntity
  8
A-DOOR
370
     9
100
AcDbCircle
 10
16.0
 20
-2.999999999999389
 30
0.0
 40
32.0
100
AcDbArc
 50
179.4696697037667
 51
269.9999999999996
1001
REVIT
1002
{
1070
     1
1000
5158639
1002
}
1002
{
1070
     5
1000
4450563
1002
}
1002
{
1070
     3
1000
636535
1002
}
  0
ENDBLK
  5
238
330
217
100
AcDbEntity
  8
0
100
AcDbBlockEnd
  0
BLOCK
  5
259
330
254
100
AcDbEntity
  8
0
100
AcDbBlockBegin
  2
Railing - Railing-5159730-LEVEL 3 - Map Export
 70
     0
 10
0.0
 20
0.0
 30
0.0
  3
Railing - Railing-5159730-LEVEL 3 - Map Export
  1

  0
LINE
  5
255
330
254
100
AcDbEntity
  8
A-FLOR-HRAL
100
AcDbLine
 10
-230.1243017903054
 20
873.1174302074085
 30
0.0
 11
-232.1243017903053
 21
873.1174302074085
 31
0.0
1001
REVIT
1002
{
1070
     1
1000
5159729
1002
}
1002
{
1070
     5
1000
1969
1002
}
1002
{
1070
     3
1000
-2000128
1002
}
  0
LINE
  5
256
330
254
100
AcDbEntity
  8
A-FLOR-HRAL
100
AcDbLine
 10
-230.124301790305
 20
1093.117430207408
 30
0.0
 11
-230.1243017903054
 21
873.1174302074085
 31
0.0
1001
REVIT
1002
{
1070
     1
1000
5159729
1002
}
1002
{
1070
     5
1000
1969
1002
}
1002
{
1070
     3
1000
-2000128
1002
}
  0
LINE
  5
257
330
254
100
AcDbEntity
  8
A-FLOR-HRAL
100
AcDbLine
 10
-232.124301790305
 20
1093.117430207408
 30
0.0
 11
-230.124301790305
 21
1093.117430207408
 31
0.0
1001
REVIT
1002
{
1070
     1
1000
5159729
1002
}
1002
{
1070
     5
1000
1969
1002
}
1002
{
1070
     3
1000
-2000128
1002
}
  0
LINE
  5
258
330
254
100
AcDbEntity
  8
A-FLOR-HRAL
100
AcDbLine
 10
-232.124301790305
 20
1093.117430207408
 30
0.0
 11
-232.1243017903053
 21
873.1174302074085
 31
0.0
1001
REVIT
1002
{
1070
     1
1000
5159729
1002
}
1002
{
1070
     5
1000
1969
1002
}
1002
{
1070
     3
1000
-2000128
1002
}
  0
ENDBLK
  5
25A
330
254
100
AcDbEntity
  8
0
100
AcDbBlockEnd
  0
BLOCK
  5
261
330
25C
100
AcDbEntity
  8
0
100
AcDbBlockBegin
  2
Railing - Railing-5159734-LEVEL 3 - Map Export
 70
     0
 10
0.0
 20
0.0
 30
0.0
  3
Railing - Railing-5159734-LEVEL 3 - Map Export
  1

  0
LINE
  5
25D
330
25C
100
AcDbEntity
  8
A-FLOR-HRAL
100
AcDbLine
 10
-197.8880231033707
 20
873.1174302074085
 30
0.0
 11
-198.1243017903053
 21
873.1174302074085
 31
0.0
1001
REVIT
1002
{
1070
     1
1000
5159733
1002
}
1002
{
1070
     5
1000
1969
1002
}
1002
{
1070
     3
1000
-2000128
1002
}
  0
LINE
  5
25E
330
25C
100
AcDbEntity
  8
A-FLOR-HRAL
100
AcDbLine
 10
-196.124301790305
 20
1093.117430207408
 30
0.0
 11
-196.124301790305
 21
1049.740259629502
 31
0.0
1001
REVIT
1002
{
1070
     1
1000
5159733
1002
}
1002
{
1070
     5
1000
1969
1002
}
1002
{
1070
     3
1000
-2000128
1002
}
  0
LINE
  5
25F
330
25C
100
AcDbEntity
  8
A-FLOR-HRAL
100
AcDbLine
 10
-198.1243017903049
 20
1093.117430207408
 30
0.0
 11
-196.124301790305
 21
1093.117430207408
 31
0.0
1001
REVIT
1002
{
1070
     1
1000
5159733
1002
}
1002
{
1070
     5
1000
1969
1002
}
1002
{
1070
     3
1000
-2000128
1002
}
  0
LINE
  5
260
330
25C
100
AcDbEntity
  8
A-FLOR-HRAL
100
AcDbLine
 10
-198.1243017903049
 20
1093.117430207408
 30
0.0
 11
-198.1243017903053
 21
873.1174302074085
 31
0.0
1001
REVIT
1002
{
1070
     1
1000
5159733
1002
}
1002
{
1070
     5
1000
1969
1002
}
1002
{
1070
     3
1000
-2000128
1002
}
  0
ENDBLK
  5
262
330
25C
100
AcDbEntity
  8
0
100
AcDbBlockEnd
  0
ENDSEC
  0
SECTION
  2
ENTITIES
  0
LINE
  5
8B
330
70
100
AcDbEntity
  8
I-WALL
370
    40
100
AcDbLine
 10
-841.888023103371
 20
926.7402596295047
 30
0.0
 11
-666.8880231033711
 21
926.7402596295042
 31
0.0
1001
REVIT
1002
{
1070
     1
1000
5154943
1002
}
1002
{
1070
     5
1000
639165
1002
}
1002
{
1070
     2
1000
-2000011
1002
}
  0
LINE
  5
8C
330
70
100
AcDbEntity
  8
I-WALL
370
    40
100
AcDbLine
 10
-661.8880231033711
 20
926.740259629504
 30
0.0
 11
-452.8880231033705
 21
926.7402596295035
 31
0.0
1001
REVIT
1002
{
1070
     1
1000
5154943
1002
}
1002
{
1070
     5
1000
639165
1002
}
1002
{
1070
     2
1000
-2000011
1002
}
  0
LINE
  5
8E
330
70
100
AcDbEntity
  8
I-WALL
370
    40
100
AcDbLine
 10
-457.8880231033705
 20
931.7402596295035
 30
0.0
 11
-846.8880231033711
 21
931.7402596295048
 31
0.0
1001
REVIT
1002
{
1070
     1
1000
5154943
1002
}
1002
{
1070
     5
1000
639165
1002
}
1002
{
1070
     2
1000
-2000011
1002
}
  0
LINE
  5
90
330
70
100
AcDbEntity
  8
I-WALL
370
    40
100
AcDbLine
 10
-452.8880231033705
 20
926.7402596295035
 30
0.0
 11
-452.8880231033705
 21
1044.740259629503
 31
0.0
1001
REVIT
1002
{
1070
     1
1000
5155018
1002
}
1002
{
1070
     5
1000
639165
1002
}
1002
{
1070
     2
1000
-2000011
1002
}
  0
LINE
  5
91
330
70
100
AcDbEntity
  8
I-WALL
370
    40
100
AcDbLine
 10
-448.8880231033706
 20
1049.740259629503
 30
0.0
 11
-457.8880231033705
 21
1049.740259629503
 31
0.0
1001
REVIT
1002
{
1070
     1
1000
5155018
1002
}
1002
{
1070
     5
1000
639165
1002
}
1002
{
1070
     2
1000
-2000011
1002
}
  0
LINE
  5
92
330
70
100
AcDbEntity
  8
I-WALL
370
    40
100
AcDbLine
 10
-457.8880231033705
 20
1049.740259629503
 30
0.0
 11
-457.8880231033705
 21
931.7402596295035
 31
0.0
1001
REVIT
1002
{
1070
     1
1000
5155018
1002
}
1002
{
1070
     5
1000
639165
1002
}
1002
{
1070
     2
1000
-2000011
1002
}
  0
LINE
  5
93
330
70
100
AcDbEntity
  8
I-WALL
370
    40
100
AcDbLine
 10
-452.8880231033705
 20
1044.740259629503
 30
0.0
 11
-448.8880231033706
 21
1044.740259629503
 31
0.0
1001
REVIT
1002
{
1070
     1
1000
5155068
1002
}
1002
{
1070
     5
1000
639165
1002
}
1002
{
1070
     2
1000
-2000011
1002
}
  0
LINE
  5
94
330
70
100
AcDbEntity
  8
I-WALL
370
    40
100
AcDbLine
 10
-448.8880231033706
 20
1044.740259629503
 30
0.0
 11
-448.8880231033706
 21
1049.740259629503
 31
0.0
1001
REVIT
1002
{
1070
     1
1000
5155068
1002
}
1002
{
1070
     5
1000
639165
1002
}
1002
{
1070
     2
1000
-2000011
1002
}
  0
LINE
  5
96
330
70
100
AcDbEntity
  8
I-WALL
370
    40
100
AcDbLine
 10
-412.8880231033705
 20
1044.740259629503
 30
0.0
 11
-408.8880231033705
 21
1044.740259629503
 31
0.0
1001
REVIT
1002
{
1070
     1
1000
5155068
1002
}
1002
{
1070
     5
1000
639165
1002
}
1002
{
1070
     2
1000
-2000011
1002
}
  0
LINE
  5
98
330
70
100
AcDbEntity
  8
I-WALL
370
    40
100
AcDbLine
 10
-403.8880231033705
 20
1049.740259629503
 30
0.0
 11
-412.8880231033705
 21
1049.740259629503
 31
0.0
1001
REVIT
1002
{
1070
     1
1000
5155068
1002
}
1002
{
1070
     5
1000
639165
1002
}
1002
{
1070
     2
1000
-2000011
1002
}
  0
LINE
  5
99
330
70
100
AcDbEntity
  8
I-WALL
370
    40
100
AcDbLine
 10
-412.8880231033705
 20
1049.740259629503
 30
0.0
 11
-412.8880231033705
 21
1044.740259629503
 31
0.0
1001
REVIT
1002
{
1070
     1
1000
5155068
1002
}
1002
{
1070
     5
1000
639165
1002
}
1002
{
1070
     2
1000
-2000011
1002
}
  0
LINE
  5
9A
330
70
100
AcDbEntity
  8
I-WALL
370
    40
100
AcDbLine
 10
-408.8880231033705
 20
1044.740259629503
 30
0.0
 11
-408.8880231033707
 21
926.7402596295033
 31
0.0
1001
REVIT
1002
{
1070
     1
1000
5155116
1002
}
1002
{
1070
     5
1000
639165
1002
}
1002
{
1070
     2
1000
-2000011
1002
}
  0
LINE
  5
9C
330
70
100
AcDbEntity
  8
I-WALL
370
    40
100
AcDbLine
 10
-403.8880231033706
 20
931.7402596295034
 30
0.0
 11
-403.8880231033705
 21
1049.740259629503
 31
0.0
1001
REVIT
1002
{
1070
     1
1000
5155116
1002
}
1002
{
1070
     5
1000
639165
1002
}
1002
{
1070
     2
1000
-2000011
1002
}
  0
LINE
  5
9D
330
70
100
AcDbEntity
  8
I-WALL
370
    40
100
AcDbLine
 10
-408.8880231033707
 20
926.7402596295033
 30
0.0
 11
-324.8880231033707
 21
926.7402596295031
 31
0.0
1001
REVIT
1002
{
1070
     1
1000
5155356
1002
}
1002
{
1070
     5
1000
639165
1002
}
1002
{
1070
     2
1000
-2000011
1002
}
  0
LINE
  5
9F
330
70
100
AcDbEntity
  8
I-WALL
370
    40
100
AcDbLine
 10
-329.8880231033708
 20
931.7402596295032
 30
0.0
 11
-403.8880231033706
 21
931.7402596295034
 31
0.0
1001
REVIT
1002
{
1070
     1
1000
5155356
1002
}
1002
{
1070
     5
1000
639165
1002
}
1002
{
1070
     2
1000
-2000011
1002
}
  0
LINE
  5
A0
330
70
100
AcDbEntity
  8
I-WALL
370
    40
100
AcDbLine
 10
-324.8880231033707
 20
926.7402596295031
 30
0.0
 11
-324.8880231033705
 21
1044.740259629503
 31
0.0
1001
REVIT
1002
{
1070
     1
1000
5155428
1002
}
1002
{
1070
     5
1000
639165
1002
}
1002
{
1070
     2
1000
-2000011
1002
}
  0
LINE
  5
A1
330
70
100
AcDbEntity
  8
I-WALL
370
    40
100
AcDbLine
 10
-320.8880231033706
 20
1049.740259629503
 30
0.0
 11
-329.8880231033705
 21
1049.740259629503
 31
0.0
1001
REVIT
1002
{
1070
     1
1000
5155428
1002
}
1002
{
1070
     5
1000
639165
1002
}
1002
{
1070
     2
1000
-2000011
1002
}
  0
LINE
  5
A2
330
70
100
AcDbEntity
  8
I-WALL
370
    40
100
AcDbLine
 10
-329.8880231033705
 20
1049.740259629503
 30
0.0
 11
-329.8880231033707
 21
931.7402596295032
 31
0.0
1001
REVIT
1002
{
1070
     1
1000
5155428
1002
}
1002
{
1070
     5
1000
639165
1002
}
1002
{
1070
     2
1000
-2000011
1002
}
  0
LINE
  5
A3
330
70
100
AcDbEntity
  8
I-WALL
370
    40
100
AcDbLine
 10
-324.8880231033705
 20
1044.740259629503
 30
0.0
 11
-320.8880231033706
 21
1044.740259629503
 31
0.0
1001
REVIT
1002
{
1070
     1
1000
5155491
1002
}
1002
{
1070
     5
1000
639165
1002
}
1002
{
1070
     2
1000
-2000011
1002
}
  0
LINE
  5
A4
330
70
100
AcDbEntity
  8
I-WALL
370
    40
100
AcDbLine
 10
-320.8880231033706
 20
1044.740259629503
 30
0.0
 11
-320.8880231033706
 21
1049.740259629503
 31
0.0
1001
REVIT
1002
{
1070
     1
1000
5155491
1002
}
1002
{
1070
     5
1000
639165
1002
}
1002
{
1070
     2
1000
-2000011
1002
}
  0
LINE
  5
A6
330
70
100
AcDbEntity
  8
I-WALL
370
    40
100
AcDbLine
 10
-284.8880231033706
 20
1044.740259629503
 30
0.0
 11
-280.8880231033706
 21
1044.740259629503
 31
0.0
1001
REVIT
1002
{
1070
     1
1000
5155491
1002
}
1002
{
1070
     5
1000
639165
1002
}
1002
{
1070
     2
1000
-2000011
1002
}
  0
LINE
  5
A8
330
70
100
AcDbEntity
  8
I-WALL
370
    40
100
AcDbLine
 10
-275.8880231033706
 20
1049.740259629503
 30
0.0
 11
-284.8880231033706
 21
1049.740259629503
 31
0.0
1001
REVIT
1002
{
1070
     1
1000
5155491
1002
}
1002
{
1070
     5
1000
639165
1002
}
1002
{
1070
     2
1000
-2000011
1002
}
  0
LINE
  5
A9
330
70
100
AcDbEntity
  8
I-WALL
370
    40
100
AcDbLine
 10
-284.8880231033706
 20
1049.740259629503
 30
0.0
 11
-284.8880231033706
 21
1044.740259629503
 31
0.0
1001
REVIT
1002
{
1070
     1
1000
5155491
1002
}
1002
{
1070
     5
1000
639165
1002
}
1002
{
1070
     2
1000
-2000011
1002
}
  0
LINE
  5
AA
330
70
100
AcDbEntity
  8
I-WALL
370
    40
100
AcDbLine
 10
-280.8880231033706
 20
1044.740259629503
 30
0.0
 11
-280.8880231033707
 21
926.7402596295029
 31
0.0
1001
REVIT
1002
{
1070
     1
1000
5155571
1002
}
1002
{
1070
     5
1000
639165
1002
}
1002
{
1070
     2
1000
-2000011
1002
}
  0
LINE
  5
AC
330
70
100
AcDbEntity
  8
I-WALL
370
    40
100
AcDbLine
 10
-275.8880231033707
 20
931.740259629503
 30
0.0
 11
-275.8880231033706
 21
1049.740259629503
 31
0.0
1001
REVIT
1002
{
1070
     1
1000
5155571
1002
}
1002
{
1070
     5
1000
639165
1002
}
1002
{
1070
     2
1000
-2000011
1002
}
  0
LINE
  5
AD
330
70
100
AcDbEntity
  8
I-WALL
370
    40
100
AcDbLine
 10
-280.8880231033707
 20
926.7402596295029
 30
0.0
 11
-243.4704018674657
 21
926.7402596295029
 31
0.0
1001
REVIT
1002
{
1070
     1
1000
5155796
1002
}
1002
{
1070
     5
1000
639165
1002
}
1002
{
1070
     2
1000
-2000011
1002
}
  0
LINE
  5
AE
330
70
100
AcDbEntity
  8
I-WALL
370
    40
100
AcDbLine
 10
-243.4704018674657
 20
931.740259629503
 30
0.0
 11
-275.8880231033708
 21
931.740259629503
 31
0.0
1001
REVIT
1002
{
1070
     1
1000
5155796
1002
}
1002
{
1070
     5
1000
639165
1002
}
1002
{
1070
     2
1000
-2000011
1002
}
  0
LINE
  5
AF
330
70
100
AcDbEntity
  8
I-WALL
370
    40
100
AcDbLine
 10
-192.8880231033707
 20
856.2402596295024
 30
0.0
 11
-192.8880231033707
 21
1044.740259629502
 31
0.0
1001
REVIT
1002
{
1070
     1
1000
5155878
1002
}
1002
{
1070
     5
1000
639165
1002
}
1002
{
1070
     2
1000
-2000011
1002
}
  0
LINE
  5
B0
330
70
100
AcDbEntity
  8
I-WALL
370
    40
100
AcDbLine
 10
-188.8880231033707
 20
1049.740259629502
 30
0.0
 11
-197.8880231033707
 21
1049.740259629502
 31
0.0
1001
REVIT
1002
{
1070
     1
1000
5155878
1002
}
1002
{
1070
     5
1000
639165
1002
}
1002
{
1070
     2
1000
-2000011
1002
}
  0
LINE
  5
B1
330
70
100
AcDbEntity
  8
I-WALL
370
    40
100
AcDbLine
 10
-197.8880231033707
 20
1049.740259629502
 30
0.0
 11
-197.8880231033707
 21
861.2402596295023
 31
0.0
1001
REVIT
1002
{
1070
     1
1000
5155878
1002
}
1002
{
1070
     5
1000
639165
1002
}
1002
{
1070
     2
1000
-2000011
1002
}
  0
LINE
  5
B2
330
70
100
AcDbEntity
  8
I-WALL
370
    40
100
AcDbLine
 10
-199.49708890439
 20
856.2402596295024
 30
0.0
 11
-192.8880231033707
 21
856.2402596295024
 31
0.0
1001
REVIT
1002
{
1070
     1
1000
5155878
1002
}
1002
{
1070
     5
1000
639165
1002
}
1002
{
1070
     2
1000
-2000011
1002
}
  0
LINE
  5
B3
330
70
100
AcDbEntity
  8
I-WALL
370
    40
100
AcDbLine
 10
-192.8880231033707
 20
1044.740259629502
 30
0.0
 11
-188.8880231033707
 21
1044.740259629502
 31
0.0
1001
REVIT
1002
{
1070
     1
1000
5155879
1002
}
1002
{
1070
     5
1000
639165
1002
}
1002
{
1070
     2
1000
-2000011
1002
}
  0
LINE
  5
B4
330
70
100
AcDbEntity
  8
I-WALL
370
    40
100
AcDbLine
 10
-188.8880231033707
 20
1044.740259629502
 30
0.0
 11
-188.8880231033707
 21
1049.740259629502
 31
0.0
1001
REVIT
1002
{
1070
     1
1000
5155879
1002
}
1002
{
1070
     5
1000
639165
1002
}
1002
{
1070
     2
1000
-2000011
1002
}
  0
LINE
  5
B6
330
70
100
AcDbEntity
  8
I-WALL
370
    40
100
AcDbLine
 10
-152.8880231033707
 20
1044.740259629502
 30
0.0
 11
-148.8880231033707
 21
1044.740259629502
 31
0.0
1001
REVIT
1002
{
1070
     1
1000
5155879
1002
}
1002
{
1070
     5
1000
639165
1002
}
1002
{
1070
     2
1000
-2000011
1002
}
  0
LINE
  5
B8
330
70
100
AcDbEntity
  8
I-WALL
370
    40
100
AcDbLine
 10
-143.8880231033708
 20
1049.740259629502
 30
0.0
 11
-152.8880231033707
 21
1049.740259629502
 31
0.0
1001
REVIT
1002
{
1070
     1
1000
5155879
1002
}
1002
{
1070
     5
1000
639165
1002
}
1002
{
1070
     2
1000
-2000011
1002
}
  0
LINE
  5
B9
330
70
100
AcDbEntity
  8
I-WALL
370
    40
100
AcDbLine
 10
-152.8880231033707
 20
1049.740259629502
 30
0.0
 11
-152.8880231033707
 21
1044.740259629502
 31
0.0
1001
REVIT
1002
{
1070
     1
1000
5155879
1002
}
1002
{
1070
     5
1000
639165
1002
}
1002
{
1070
     2
1000
-2000011
1002
}
  0
LINE
  5
BA
330
70
100
AcDbEntity
  8
I-WALL
370
    40
100
AcDbLine
 10
-148.8880231033707
 20
1044.740259629502
 30
0.0
 11
-148.8880231033709
 21
926.7402596295024
 31
0.0
1001
REVIT
1002
{
1070
     1
1000
5155880
1002
}
1002
{
1070
     5
1000
639165
1002
}
1002
{
1070
     2
1000
-2000011
1002
}
  0
LINE
  5
BC
330
70
100
AcDbEntity
  8
I-WALL
370
    40
100
AcDbLine
 10
-143.8880231033709
 20
931.7402596295025
 30
0.0
 11
-143.8880231033708
 21
1049.740259629502
 31
0.0
1001
REVIT
1002
{
1070
     1
1000
5155880
1002
}
1002
{
1070
     5
1000
639165
1002
}
1002
{
1070
     2
1000
-2000011
1002
}
  0
LINE
  5
BD
330
70
100
AcDbEntity
  8
I-WALL
370
    40
100
AcDbLine
 10
-148.8880231033709
 20
926.7402596295024
 30
0.0
 11
-60.88802310337096
 21
926.7402596295024
 31
0.0
1001
REVIT
1002
{
1070
     1
1000
5155881
1002
}
1002
{
1070
     5
1000
639165
1002
}
1002
{
1070
     2
1000
-2000011
1002
}
  0
LINE
  5
BF
330
70
100
AcDbEntity
  8
I-WALL
370
    40
100
AcDbLine
 10
-65.88802310337094
 20
931.7402596295023
 30
0.0
 11
-143.8880231033709
 21
931.7402596295025
 31
0.0
1001
REVIT
1002
{
1070
     1
1000
5155881
1002
}
1002
{
1070
     5
1000
639165
1002
}
1002
{
1070
     2
1000
-2000011
1002
}
  0
LINE
  5
C0
330
70
100
AcDbEntity
  8
I-WALL
370
    40
100
AcDbLine
 10
-60.88802310337096
 20
926.7402596295024
 30
0.0
 11
-60.88802310337078
 21
1044.740259629502
 31
0.0
1001
REVIT
1002
{
1070
     1
1000
5155882
1002
}
1002
{
1070
     5
1000
639165
1002
}
1002
{
1070
     2
1000
-2000011
1002
}
  0
LINE
  5
C1
330
70
100
AcDbEntity
  8
I-WALL
370
    40
100
AcDbLine
 10
-56.88802310337081
 20
1049.740259629502
 30
0.0
 11
-65.88802310337077
 21
1049.740259629502
 31
0.0
1001
REVIT
1002
{
1070
     1
1000
5155882
1002
}
1002
{
1070
     5
1000
639165
1002
}
1002
{
1070
     2
1000
-2000011
1002
}
  0
LINE
  5
C2
330
70
100
AcDbEntity
  8
I-WALL
370
    40
100
AcDbLine
 10
-65.88802310337077
 20
1049.740259629502
 30
0.0
 11
-65.88802310337094
 21
931.7402596295023
 31
0.0
1001
REVIT
1002
{
1070
     1
1000
5155882
1002
}
1002
{
1070
     5
1000
639165
1002
}
1002
{
1070
     2
1000
-2000011
1002
}
  0
LINE
  5
C3
330
70
100
AcDbEntity
  8
I-WALL
370
    40
100
AcDbLine
 10
-60.88802310337078
 20
1044.740259629502
 30
0.0
 11
-56.88802310337081
 21
1044.740259629502
 31
0.0
1001
REVIT
1002
{
1070
     1
1000
5155883
1002
}
1002
{
1070
     5
1000
639165
1002
}
1002
{
1070
     2
1000
-2000011
1002
}
  0
LINE
  5
C4
330
70
100
AcDbEntity
  8
I-WALL
370
    40
100
AcDbLine
 10
-56.88802310337081
 20
1044.740259629502
 30
0.0
 11
-56.88802310337081
 21
1049.740259629502
 31
0.0
1001
REVIT
1002
{
1070
     1
1000
5155883
1002
}
1002
{
1070
     5
1000
639165
1002
}
1002
{
1070
     2
1000
-2000011
1002
}
  0
LINE
  5
C6
330
70
100
AcDbEntity
  8
I-WALL
370
    40
100
AcDbLine
 10
-20.88802310337078
 20
1044.740259629502
 30
0.0
 11
-16.88802310337076
 21
1044.740259629502
 31
0.0
1001
REVIT
1002
{
1070
     1
1000
5155883
1002
}
1002
{
1070
     5
1000
639165
1002
}
1002
{
1070
     2
1000
-2000011
1002
}
  0
LINE
  5
C8
330
70
100
AcDbEntity
  8
I-WALL
370
    40
100
AcDbLine
 10
-11.88802310337075
 20
1049.740259629502
 30
0.0
 11
-20.88802310337078
 21
1049.740259629502
 31
0.0
1001
REVIT
1002
{
1070
     1
1000
5155883
1002
}
1002
{
1070
     5
1000
639165
1002
}
1002
{
1070
     2
1000
-2000011
1002
}
  0
LINE
  5
C9
330
70
100
AcDbEntity
  8
I-WALL
370
    40
100
AcDbLine
 10
-20.88802310337078
 20
1049.740259629502
 30
0.0
 11
-20.88802310337078
 21
1044.740259629502
 31
0.0
1001
REVIT
1002
{
1070
     1
1000
5155883
1002
}
1002
{
1070
     5
1000
639165
1002
}
1002
{
1070
     2
1000
-2000011
1002
}
  0
LINE
  5
CA
330
70
100
AcDbEntity
  8
I-WALL
370
    40
100
AcDbLine
 10
-16.88802310337076
 20
1044.740259629502
 30
0.0
 11
-16.88802310337093
 21
926.7402596295021
 31
0.0
1001
REVIT
1002
{
1070
     1
1000
5155884
1002
}
1002
{
1070
     5
1000
639165
1002
}
1002
{
1070
     2
1000
-2000011
1002
}
  0
LINE
  5
CC
330
70
100
AcDbEntity
  8
I-WALL
370
    40
100
AcDbLine
 10
-11.88802310337092
 20
931.7402596295019
 30
0.0
 11
-11.88802310337075
 21
1049.740259629502
 31
0.0
1001
REVIT
1002
{
1070
     1
1000
5155884
1002
}
1002
{
1070
     5
1000
639165
1002
}
1002
{
1070
     2
1000
-2000011
1002
}
  0
LINE
  5
CD
330
70
100
AcDbEntity
  8
I-WALL
370
    40
100
AcDbLine
 10
71.11197689662926
 20
926.7402596295021
 30
0.0
 11
71.11197689662926
 21
1044.740259629501
 31
0.0
1001
REVIT
1002
{
1070
     1
1000
5156106
1002
}
1002
{
1070
     5
1000
639165
1002
}
1002
{
1070
     2
1000
-2000011
1002
}
  0
LINE
  5
CE
330
70
100
AcDbEntity
  8
I-WALL
370
    40
100
AcDbLine
 10
75.11197689662921
 20
1049.740259629502
 30
0.0
 11
66.11197689662926
 21
1049.740259629502
 31
0.0
1001
REVIT
1002
{
1070
     1
1000
5156106
1002
}
1002
{
1070
     5
1000
639165
1002
}
1002
{
1070
     2
1000
-2000011
1002
}
  0
LINE
  5
CF
330
70
100
AcDbEntity
  8
I-WALL
370
    40
100
AcDbLine
 10
66.11197689662926
 20
1049.740259629502
 30
0.0
 11
66.11197689662926
 21
931.7402596295019
 31
0.0
1001
REVIT
1002
{
1070
     1
1000
5156106
1002
}
1002
{
1070
     5
1000
639165
1002
}
1002
{
1070
     2
1000
-2000011
1002
}
  0
LINE
  5
D1
330
70
100
AcDbEntity
  8
I-WALL
370
    40
100
AcDbLine
 10
71.11197689662926
 20
1044.740259629501
 30
0.0
 11
75.11197689662921
 21
1044.740259629501
 31
0.0
1001
REVIT
1002
{
1070
     1
1000
5156107
1002
}
1002
{
1070
     5
1000
639165
1002
}
1002
{
1070
     2
1000
-2000011
1002
}
  0
LINE
  5
D2
330
70
100
AcDbEntity
  8
I-WALL
370
    40
100
AcDbLine
 10
75.11197689662921
 20
1044.740259629501
 30
0.0
 11
75.11197689662921
 21
1049.740259629502
 31
0.0
1001
REVIT
1002
{
1070
     1
1000
5156107
1002
}
1002
{
1070
     5
1000
639165
1002
}
1002
{
1070
     2
1000
-2000011
1002
}
  0
LINE
  5
D4
330
70
100
AcDbEntity
  8
I-WALL
370
    40
100
AcDbLine
 10
111.1119768966292
 20
1044.740259629501
 30
0.0
 11
115.1119768966292
 21
1044.740259629501
 31
0.0
1001
REVIT
1002
{
1070
     1
1000
5156107
1002
}
1002
{
1070
     5
1000
639165
1002
}
1002
{
1070
     2
1000
-2000011
1002
}
  0
LINE
  5
D6
330
70
100
AcDbEntity
  8
I-WALL
370
    40
100
AcDbLine
 10
120.1119768966292
 20
1049.740259629502
 30
0.0
 11
111.1119768966292
 21
1049.740259629502
 31
0.0
1001
REVIT
1002
{
1070
     1
1000
5156107
1002
}
1002
{
1070
     5
1000
639165
1002
}
1002
{
1070
     2
1000
-2000011
1002
}
  0
LINE
  5
D7
330
70
100
AcDbEntity
  8
I-WALL
370
    40
100
AcDbLine
 10
111.1119768966292
 20
1049.740259629502
 30
0.0
 11
111.1119768966292
 21
1044.740259629501
 31
0.0
1001
REVIT
1002
{
1070
     1
1000
5156107
1002
}
1002
{
1070
     5
1000
639165
1002
}
1002
{
1070
     2
1000
-2000011
1002
}
  0
LINE
  5
D8
330
70
100
AcDbEntity
  8
I-WALL
370
    40
100
AcDbLine
 10
115.1119768966292
 20
1044.740259629501
 30
0.0
 11
115.111976896629
 21
926.7402596295017
 31
0.0
1001
REVIT
1002
{
1070
     1
1000
5156108
1002
}
1002
{
1070
     5
1000
639165
1002
}
1002
{
1070
     2
1000
-2000011
1002
}
  0
LINE
  5
DA
330
70
100
AcDbEntity
  8
I-WALL
370
    40
100
AcDbLine
 10
120.111976896629
 20
931.7402596295016
 30
0.0
 11
120.1119768966292
 21
1049.740259629502
 31
0.0
1001
REVIT
1002
{
1070
     1
1000
5156108
1002
}
1002
{
1070
     5
1000
639165
1002
}
1002
{
1070
     2
1000
-2000011
1002
}
  0
LINE
  5
DB
330
70
100
AcDbEntity
  8
I-WALL
370
    40
100
AcDbLine
 10
115.111976896629
 20
926.7402596295017
 30
0.0
 11
199.111976896629
 21
926.7402596295013
 31
0.0
1001
REVIT
1002
{
1070
     1
1000
5156109
1002
}
1002
{
1070
     5
1000
639165
1002
}
1002
{
1070
     2
1000
-2000011
1002
}
  0
LINE
  5
DD
330
70
100
AcDbEntity
  8
I-WALL
370
    40
100
AcDbLine
 10
194.111976896629
 20
931.7402596295016
 30
0.0
 11
120.111976896629
 21
931.7402596295016
 31
0.0
1001
REVIT
1002
{
1070
     1
1000
5156109
1002
}
1002
{
1070
     5
1000
639165
1002
}
1002
{
1070
     2
1000
-2000011
1002
}
  0
LINE
  5
DE
330
70
100
AcDbEntity
  8
I-WALL
370
    40
100
AcDbLine
 10
199.111976896629
 20
926.7402596295013
 30
0.0
 11
199.1119768966292
 21
1044.740259629501
 31
0.0
1001
REVIT
1002
{
1070
     1
1000
5156110
1002
}
1002
{
1070
     5
1000
639165
1002
}
1002
{
1070
     2
1000
-2000011
1002
}
  0
LINE
  5
DF
330
70
100
AcDbEntity
  8
I-WALL
370
    40
100
AcDbLine
 10
203.1119768966291
 20
1049.740259629502
 30
0.0
 11
194.1119768966292
 21
1049.740259629502
 31
0.0
1001
REVIT
1002
{
1070
     1
1000
5156110
1002
}
1002
{
1070
     5
1000
639165
1002
}
1002
{
1070
     2
1000
-2000011
1002
}
  0
LINE
  5
E0
330
70
100
AcDbEntity
  8
I-WALL
370
    40
100
AcDbLine
 10
194.1119768966292
 20
1049.740259629502
 30
0.0
 11
194.111976896629
 21
931.7402596295016
 31
0.0
1001
REVIT
1002
{
1070
     1
1000
5156110
1002
}
1002
{
1070
     5
1000
639165
1002
}
1002
{
1070
     2
1000
-2000011
1002
}
  0
LINE
  5
E1
330
70
100
AcDbEntity
  8
I-WALL
370
    40
100
AcDbLine
 10
199.1119768966292
 20
1044.740259629501
 30
0.0
 11
203.1119768966291
 21
1044.740259629501
 31
0.0
1001
REVIT
1002
{
1070
     1
1000
5156111
1002
}
1002
{
1070
     5
1000
639165
1002
}
1002
{
1070
     2
1000
-2000011
1002
}
  0
LINE
  5
E2
330
70
100
AcDbEntity
  8
I-WALL
370
    40
100
AcDbLine
 10
203.1119768966291
 20
1044.740259629501
 30
0.0
 11
203.1119768966291
 21
1049.740259629502
 31
0.0
1001
REVIT
1002
{
1070
     1
1000
5156111
1002
}
1002
{
1070
     5
1000
639165
1002
}
1002
{
1070
     2
1000
-2000011
1002
}
  0
LINE
  5
E4
330
70
100
AcDbEntity
  8
I-WALL
370
    40
100
AcDbLine
 10
239.1119768966292
 20
1044.740259629501
 30
0.0
 11
243.1119768966292
 21
1044.740259629501
 31
0.0
1001
REVIT
1002
{
1070
     1
1000
5156111
1002
}
1002
{
1070
     5
1000
639165
1002
}
1002
{
1070
     2
1000
-2000011
1002
}
  0
LINE
  5
E6
330
70
100
AcDbEntity
  8
I-WALL
370
    40
100
AcDbLine
 10
248.1119768966292
 20
1049.740259629502
 30
0.0
 11
239.1119768966292
 21
1049.740259629502
 31
0.0
1001
REVIT
1002
{
1070
     1
1000
5156111
1002
}
1002
{
1070
     5
1000
639165
1002
}
1002
{
1070
     2
1000
-2000011
1002
}
  0
LINE
  5
E7
330
70
100
AcDbEntity
  8
I-WALL
370
    40
100
AcDbLine
 10
239.1119768966292
 20
1049.740259629502
 30
0.0
 11
239.1119768966292
 21
1044.740259629501
 31
0.0
1001
REVIT
1002
{
1070
     1
1000
5156111
1002
}
1002
{
1070
     5
1000
639165
1002
}
1002
{
1070
     2
1000
-2000011
1002
}
  0
LINE
  5
E8
330
70
100
AcDbEntity
  8
I-WALL
370
    40
100
AcDbLine
 10
243.1119768966292
 20
1044.740259629501
 30
0.0
 11
243.111976896629
 21
926.7402596295013
 31
0.0
1001
REVIT
1002
{
1070
     1
1000
5156112
1002
}
1002
{
1070
     5
1000
639165
1002
}
1002
{
1070
     2
1000
-2000011
1002
}
  0
LINE
  5
EA
330
70
100
AcDbEntity
  8
I-WALL
370
    40
100
AcDbLine
 10
248.1119768966291
 20
931.7402596295012
 30
0.0
 11
248.1119768966292
 21
1049.740259629502
 31
0.0
1001
REVIT
1002
{
1070
     1
1000
5156112
1002
}
1002
{
1070
     5
1000
639165
1002
}
1002
{
1070
     2
1000
-2000011
1002
}
  0
LINE
  5
EB
330
70
100
AcDbEntity
  8
I-WALL
370
    40
100
AcDbLine
 10
-16.88802310337093
 20
926.7402596295021
 30
0.0
 11
71.11197689662926
 21
926.7402596295021
 31
0.0
1001
REVIT
1002
{
1070
     1
1000
5156277
1002
}
1002
{
1070
     5
1000
639165
1002
}
1002
{
1070
     2
1000
-2000011
1002
}
  0
LINE
  5
EC
330
70
100
AcDbEntity
  8
I-WALL
370
    40
100
AcDbLine
 10
66.11197689662926
 20
931.7402596295019
 30
0.0
 11
-11.88802310337093
 21
931.7402596295023
 31
0.0
1001
REVIT
1002
{
1070
     1
1000
5156277
1002
}
1002
{
1070
     5
1000
639165
1002
}
1002
{
1070
     2
1000
-2000011
1002
}
  0
LINE
  5
ED
330
70
100
AcDbEntity
  8
I-WALL
370
    40
100
AcDbLine
 10
243.111976896629
 20
926.7402596295013
 30
0.0
 11
454.111976896629
 21
926.7402596295013
 31
0.0
1001
REVIT
1002
{
1070
     1
1000
5156447
1002
}
1002
{
1070
     5
1000
639165
1002
}
1002
{
1070
     2
1000
-2000011
1002
}
  0
LINE
  5
EE
330
70
100
AcDbEntity
  8
I-WALL
370
    40
100
AcDbLine
 10
459.111976896629
 20
926.7402596295013
 30
0.0
 11
633.1119768966289
 21
926.7402596295013
 31
0.0
1001
REVIT
1002
{
1070
     1
1000
5156447
1002
}
1002
{
1070
     5
1000
639165
1002
}
1002
{
1070
     2
1000
-2000011
1002
}
  0
LINE
  5
F0
330
70
100
AcDbEntity
  8
I-WALL
370
    40
100
AcDbLine
 10
638.111976896629
 20
931.7402596295012
 30
0.0
 11
248.1119768966291
 21
931.7402596295012
 31
0.0
1001
REVIT
1002
{
1070
     1
1000
5156447
1002
}
1002
{
1070
     5
1000
639165
1002
}
1002
{
1070
     2
1000
-2000011
1002
}
  0
LINE
  5
F1
330
70
100
AcDbEntity
  8
I-WALL
370
    40
100
AcDbLine
 10
633.1119768966289
 20
926.7402596295013
 30
0.0
 11
633.1119768966289
 21
523.740259629492
 31
0.0
1001
REVIT
1002
{
1070
     1
1000
5156528
1002
}
1002
{
1070
     5
1000
639165
1002
}
1002
{
1070
     2
1000
-2000011
1002
}
  0
LINE
  5
F3
330
70
100
AcDbEntity
  8
I-WALL
370
    40
100
AcDbLine
 10
638.111976896629
 20
518.7402596294921
 30
0.0
 11
638.111976896629
 21
931.7402596295012
 31
0.0
1001
REVIT
1002
{
1070
     1
1000
5156528
1002
}
1002
{
1070
     5
1000
639165
1002
}
1002
{
1070
     2
1000
-2000011
1002
}
  0
LINE
  5
F4
330
70
100
AcDbEntity
  8
I-WALL
370
    40
100
AcDbLine
 10
-846.8880231033718
 20
518.7402596294981
 30
0.0
 11
-457.8880231033718
 21
518.7402596294969
 31
0.0
1001
REVIT
1002
{
1070
     1
1000
5156750
1002
}
1002
{
1070
     5
1000
639165
1002
}
1002
{
1070
     2
1000
-2000011
1002
}
  0
LINE
  5
F6
330
70
100
AcDbEntity
  8
I-WALL
370
    40
100
AcDbLine
 10
-452.8880231033718
 20
523.7402596294968
 30
0.0
 11
-661.8880231033718
 21
523.7402596294974
 31
0.0
1001
REVIT
1002
{
1070
     1
1000
5156750
1002
}
1002
{
1070
     5
1000
639165
1002
}
1002
{
1070
     2
1000
-2000011
1002
}
  0
LINE
  5
F7
330
70
100
AcDbEntity
  8
I-WALL
370
    40
100
AcDbLine
 10
-666.8880231033718
 20
523.7402596294974
 30
0.0
 11
-841.8880231033719
 21
523.7402596294981
 31
0.0
1001
REVIT
1002
{
1070
     1
1000
5156750
1002
}
1002
{
1070
     5
1000
639165
1002
}
1002
{
1070
     2
1000
-2000011
1002
}
  0
LINE
  5
F9
330
70
100
AcDbEntity
  8
I-WALL
370
    40
100
AcDbLine
 10
-457.8880231033718
 20
518.7402596294969
 30
0.0
 11
-457.8880231033726
 21
400.7402596294968
 31
0.0
1001
REVIT
1002
{
1070
     1
1000
5156751
1002
}
1002
{
1070
     5
1000
639165
1002
}
1002
{
1070
     2
1000
-2000011
1002
}
  0
LINE
  5
FA
330
70
100
AcDbEntity
  8
I-WALL
370
    40
100
AcDbLine
 10
-457.8880231033726
 20
400.7402596294968
 30
0.0
 11
-448.8880231033727
 21
400.7402596294967
 31
0.0
1001
REVIT
1002
{
1070
     1
1000
5156751
1002
}
1002
{
1070
     5
1000
639165
1002
}
1002
{
1070
     2
1000
-2000011
1002
}
  0
LINE
  5
FB
330
70
100
AcDbEntity
  8
I-WALL
370
    40
100
AcDbLine
 10
-452.8880231033725
 20
405.7402596294967
 30
0.0
 11
-452.8880231033718
 21
523.7402596294968
 31
0.0
1001
REVIT
1002
{
1070
     1
1000
5156751
1002
}
1002
{
1070
     5
1000
639165
1002
}
1002
{
1070
     2
1000
-2000011
1002
}
  0
LINE
  5
FD
330
70
100
AcDbEntity
  8
I-WALL
370
    40
100
AcDbLine
 10
-448.8880231033727
 20
400.7402596294967
 30
0.0
 11
-448.8880231033725
 21
405.7402596294967
 31
0.0
1001
REVIT
1002
{
1070
     1
1000
5156752
1002
}
1002
{
1070
     5
1000
639165
1002
}
1002
{
1070
     2
1000
-2000011
1002
}
  0
LINE
  5
FE
330
70
100
AcDbEntity
  8
I-WALL
370
    40
100
AcDbLine
 10
-448.8880231033725
 20
405.7402596294967
 30
0.0
 11
-452.8880231033726
 21
405.7402596294967
 31
0.0
1001
REVIT
1002
{
1070
     1
1000
5156752
1002
}
1002
{
1070
     5
1000
639165
1002
}
1002
{
1070
     2
1000
-2000011
1002
}
  0
LINE
  5
FF
330
70
100
AcDbEntity
  8
I-WALL
370
    40
100
AcDbLine
 10
-412.8880231033726
 20
400.7402596294965
 30
0.0
 11
-403.8880231033727
 21
400.7402596294965
 31
0.0
1001
REVIT
1002
{
1070
     1
1000
5156752
1002
}
1002
{
1070
     5
1000
639165
1002
}
1002
{
1070
     2
1000
-2000011
1002
}
  0
LINE
  5
101
330
70
100
AcDbEntity
  8
I-WALL
370
    40
100
AcDbLine
 10
-408.8880231033727
 20
405.7402596294966
 30
0.0
 11
-412.8880231033726
 21
405.7402596294966
 31
0.0
1001
REVIT
1002
{
1070
     1
1000
5156752
1002
}
1002
{
1070
     5
1000
639165
1002
}
1002
{
1070
     2
1000
-2000011
1002
}
  0
LINE
  5
102
330
70
100
AcDbEntity
  8
I-WALL
370
    40
100
AcDbLine
 10
-412.8880231033726
 20
405.7402596294966
 30
0.0
 11
-412.8880231033726
 21
400.7402596294965
 31
0.0
1001
REVIT
1002
{
1070
     1
1000
5156752
1002
}
1002
{
1070
     5
1000
639165
1002
}
1002
{
1070
     2
1000
-2000011
1002
}
  0
LINE
  5
103
330
70
100
AcDbEntity
  8
I-WALL
370
    40
100
AcDbLine
 10
-403.8880231033727
 20
400.7402596294965
 30
0.0
 11
-403.8880231033721
 21
518.7402596294965
 31
0.0
1001
REVIT
1002
{
1070
     1
1000
5156753
1002
}
1002
{
1070
     5
1000
639165
1002
}
1002
{
1070
     2
1000
-2000011
1002
}
  0
LINE
  5
105
330
70
100
AcDbEntity
  8
I-WALL
370
    40
100
AcDbLine
 10
-408.8880231033721
 20
523.7402596294965
 30
0.0
 11
-408.8880231033727
 21
405.7402596294964
 31
0.0
1001
REVIT
1002
{
1070
     1
1000
5156753
1002
}
1002
{
1070
     5
1000
639165
1002
}
1002
{
1070
     2
1000
-2000011
1002
}
  0
LINE
  5
106
330
70
100
AcDbEntity
  8
I-WALL
370
    40
100
AcDbLine
 10
-403.8880231033721
 20
518.7402596294965
 30
0.0
 11
-329.8880231033721
 21
518.7402596294962
 31
0.0
1001
REVIT
1002
{
1070
     1
1000
5156754
1002
}
1002
{
1070
     5
1000
639165
1002
}
1002
{
1070
     2
1000
-2000011
1002
}
  0
LINE
  5
108
330
70
100
AcDbEntity
  8
I-WALL
370
    40
100
AcDbLine
 10
-324.8880231033721
 20
523.7402596294962
 30
0.0
 11
-408.8880231033721
 21
523.7402596294965
 31
0.0
1001
REVIT
1002
{
1070
     1
1000
5156754
1002
}
1002
{
1070
     5
1000
639165
1002
}
1002
{
1070
     2
1000
-2000011
1002
}
  0
LINE
  5
109
330
70
100
AcDbEntity
  8
I-WALL
370
    40
100
AcDbLine
 10
-329.8880231033721
 20
518.7402596294962
 30
0.0
 11
-329.8880231033728
 21
400.7402596294959
 31
0.0
1001
REVIT
1002
{
1070
     1
1000
5156755
1002
}
1002
{
1070
     5
1000
639165
1002
}
1002
{
1070
     2
1000
-2000011
1002
}
  0
LINE
  5
10A
330
70
100
AcDbEntity
  8
I-WALL
370
    40
100
AcDbLine
 10
-329.8880231033728
 20
400.7402596294959
 30
0.0
 11
-320.8880231033727
 21
400.7402596294959
 31
0.0
1001
REVIT
1002
{
1070
     1
1000
5156755
1002
}
1002
{
1070
     5
1000
639165
1002
}
1002
{
1070
     2
1000
-2000011
1002
}
  0
LINE
  5
10B
330
70
100
AcDbEntity
  8
I-WALL
370
    40
100
AcDbLine
 10
-324.8880231033727
 20
405.7402596294959
 30
0.0
 11
-324.8880231033721
 21
523.7402596294962
 31
0.0
1001
REVIT
1002
{
1070
     1
1000
5156755
1002
}
1002
{
1070
     5
1000
639165
1002
}
1002
{
1070
     2
1000
-2000011
1002
}
  0
LINE
  5
10D
330
70
100
AcDbEntity
  8
I-WALL
370
    40
100
AcDbLine
 10
-320.8880231033727
 20
400.7402596294959
 30
0.0
 11
-320.8880231033726
 21
405.7402596294958
 31
0.0
1001
REVIT
1002
{
1070
     1
1000
5156756
1002
}
1002
{
1070
     5
1000
639165
1002
}
1002
{
1070
     2
1000
-2000011
1002
}
  0
LINE
  5
10E
330
70
100
AcDbEntity
  8
I-WALL
370
    40
100
AcDbLine
 10
-320.8880231033726
 20
405.7402596294958
 30
0.0
 11
-324.8880231033727
 21
405.7402596294959
 31
0.0
1001
REVIT
1002
{
1070
     1
1000
5156756
1002
}
1002
{
1070
     5
1000
639165
1002
}
1002
{
1070
     2
1000
-2000011
1002
}
  0
LINE
  5
10F
330
70
100
AcDbEntity
  8
I-WALL
370
    40
100
AcDbLine
 10
-284.8880231033726
 20
400.7402596294957
 30
0.0
 11
-275.8880231033726
 21
400.7402596294956
 31
0.0
1001
REVIT
1002
{
1070
     1
1000
5156756
1002
}
1002
{
1070
     5
1000
639165
1002
}
1002
{
1070
     2
1000
-2000011
1002
}
  0
LINE
  5
111
330
70
100
AcDbEntity
  8
I-WALL
370
    40
100
AcDbLine
 10
-280.8880231033726
 20
405.7402596294957
 30
0.0
 11
-284.8880231033726
 21
405.7402596294957
 31
0.0
1001
REVIT
1002
{
1070
     1
1000
5156756
1002
}
1002
{
1070
     5
1000
639165
1002
}
1002
{
1070
     2
1000
-2000011
1002
}
  0
LINE
  5
112
330
70
100
AcDbEntity
  8
I-WALL
370
    40
100
AcDbLine
 10
-284.8880231033726
 20
405.7402596294957
 30
0.0
 11
-284.8880231033726
 21
400.7402596294957
 31
0.0
1001
REVIT
1002
{
1070
     1
1000
5156756
1002
}
1002
{
1070
     5
1000
639165
1002
}
1002
{
1070
     2
1000
-2000011
1002
}
  0
LINE
  5
113
330
70
100
AcDbEntity
  8
I-WALL
370
    40
100
AcDbLine
 10
-275.8880231033726
 20
400.7402596294956
 30
0.0
 11
-275.8880231033721
 21
518.7402596294961
 31
0.0
1001
REVIT
1002
{
1070
     1
1000
5156757
1002
}
1002
{
1070
     5
1000
639165
1002
}
1002
{
1070
     2
1000
-2000011
1002
}
  0
LINE
  5
115
330
70
100
AcDbEntity
  8
I-WALL
370
    40
100
AcDbLine
 10
-280.8880231033721
 20
523.7402596294961
 30
0.0
 11
-280.8880231033726
 21
405.7402596294956
 31
0.0
1001
REVIT
1002
{
1070
     1
1000
5156757
1002
}
1002
{
1070
     5
1000
639165
1002
}
1002
{
1070
     2
1000
-2000011
1002
}
  0
LINE
  5
116
330
70
100
AcDbEntity
  8
I-WALL
370
    40
100
AcDbLine
 10
-275.8880231033721
 20
518.7402596294961
 30
0.0
 11
-197.8880231033721
 21
518.7402596294955
 31
0.0
1001
REVIT
1002
{
1070
     1
1000
5156758
1002
}
1002
{
1070
     5
1000
639165
1002
}
1002
{
1070
     2
1000
-2000011
1002
}
  0
LINE
  5
117
330
70
100
AcDbEntity
  8
I-WALL
370
    40
100
AcDbLine
 10
-192.888023103372
 20
523.7402596294955
 30
0.0
 11
-280.8880231033721
 21
523.7402596294961
 31
0.0
1001
REVIT
1002
{
1070
     1
1000
5156758
1002
}
1002
{
1070
     5
1000
639165
1002
}
1002
{
1070
     2
1000
-2000011
1002
}
  0
LINE
  5
118
330
70
100
AcDbEntity
  8
I-WALL
370
    40
100
AcDbLine
 10
-197.8880231033721
 20
518.7402596294955
 30
0.0
 11
-197.8880231033728
 21
400.7402596294959
 31
0.0
1001
REVIT
1002
{
1070
     1
1000
5156759
1002
}
1002
{
1070
     5
1000
639165
1002
}
1002
{
1070
     2
1000
-2000011
1002
}
  0
LINE
  5
119
330
70
100
AcDbEntity
  8
I-WALL
370
    40
100
AcDbLine
 10
-197.8880231033728
 20
400.7402596294959
 30
0.0
 11
-188.8880231033729
 21
400.7402596294959
 31
0.0
1001
REVIT
1002
{
1070
     1
1000
5156759
1002
}
1002
{
1070
     5
1000
639165
1002
}
1002
{
1070
     2
1000
-2000011
1002
}
  0
LINE
  5
11A
330
70
100
AcDbEntity
  8
I-WALL
370
    40
100
AcDbLine
 10
-192.8880231033728
 20
405.7402596294959
 30
0.0
 11
-192.888023103372
 21
523.7402596294955
 31
0.0
1001
REVIT
1002
{
1070
     1
1000
5156759
1002
}
1002
{
1070
     5
1000
639165
1002
}
1002
{
1070
     2
1000
-2000011
1002
}
  0
LINE
  5
11D
330
70
100
AcDbEntity
  8
I-WALL
370
    40
100
AcDbLine
 10
-188.8880231033729
 20
400.7402596294959
 30
0.0
 11
-188.8880231033728
 21
405.7402596294958
 31
0.0
1001
REVIT
1002
{
1070
     1
1000
5156760
1002
}
1002
{
1070
     5
1000
639165
1002
}
1002
{
1070
     2
1000
-2000011
1002
}
  0
LINE
  5
11E
330
70
100
AcDbEntity
  8
I-WALL
370
    40
100
AcDbLine
 10
-188.8880231033728
 20
405.7402596294958
 30
0.0
 11
-192.8880231033728
 21
405.7402596294959
 31
0.0
1001
REVIT
1002
{
1070
     1
1000
5156760
1002
}
1002
{
1070
     5
1000
639165
1002
}
1002
{
1070
     2
1000
-2000011
1002
}
  0
LINE
  5
11F
330
70
100
AcDbEntity
  8
I-WALL
370
    40
100
AcDbLine
 10
-152.8880231033728
 20
400.7402596294957
 30
0.0
 11
-143.8880231033729
 21
400.7402596294956
 31
0.0
1001
REVIT
1002
{
1070
     1
1000
5156760
1002
}
1002
{
1070
     5
1000
639165
1002
}
1002
{
1070
     2
1000
-2000011
1002
}
  0
LINE
  5
121
330
70
100
AcDbEntity
  8
I-WALL
370
    40
100
AcDbLine
 10
-148.8880231033728
 20
405.7402596294957
 30
0.0
 11
-152.8880231033728
 21
405.7402596294957
 31
0.0
1001
REVIT
1002
{
1070
     1
1000
5156760
1002
}
1002
{
1070
     5
1000
639165
1002
}
1002
{
1070
     2
1000
-2000011
1002
}
  0
LINE
  5
122
330
70
100
AcDbEntity
  8
I-WALL
370
    40
100
AcDbLine
 10
-152.8880231033728
 20
405.7402596294957
 30
0.0
 11
-152.8880231033728
 21
400.7402596294957
 31
0.0
1001
REVIT
1002
{
1070
     1
1000
5156760
1002
}
1002
{
1070
     5
1000
639165
1002
}
1002
{
1070
     2
1000
-2000011
1002
}
  0
LINE
  5
123
330
70
100
AcDbEntity
  8
I-WALL
370
    40
100
AcDbLine
 10
-143.8880231033729
 20
400.7402596294956
 30
0.0
 11
-143.8880231033723
 21
518.7402596294957
 31
0.0
1001
REVIT
1002
{
1070
     1
1000
5156761
1002
}
1002
{
1070
     5
1000
639165
1002
}
1002
{
1070
     2
1000
-2000011
1002
}
  0
LINE
  5
125
330
70
100
AcDbEntity
  8
I-WALL
370
    40
100
AcDbLine
 10
-148.8880231033722
 20
523.7402596294957
 30
0.0
 11
-148.8880231033728
 21
405.7402596294956
 31
0.0
1001
REVIT
1002
{
1070
     1
1000
5156761
1002
}
1002
{
1070
     5
1000
639165
1002
}
1002
{
1070
     2
1000
-2000011
1002
}
  0
LINE
  5
126
330
70
100
AcDbEntity
  8
I-WALL
370
    40
100
AcDbLine
 10
-143.8880231033723
 20
518.7402596294957
 30
0.0
 11
-65.8880231033723
 21
518.7402596294954
 31
0.0
1001
REVIT
1002
{
1070
     1
1000
5156762
1002
}
1002
{
1070
     5
1000
639165
1002
}
1002
{
1070
     2
1000
-2000011
1002
}
  0
LINE
  5
128
330
70
100
AcDbEntity
  8
I-WALL
370
    40
100
AcDbLine
 10
-60.88802310337229
 20
523.7402596294954
 30
0.0
 11
-148.8880231033722
 21
523.7402596294957
 31
0.0
1001
REVIT
1002
{
1070
     1
1000
5156762
1002
}
1002
{
1070
     5
1000
639165
1002
}
1002
{
1070
     2
1000
-2000011
1002
}
  0
LINE
  5
129
330
70
100
AcDbEntity
  8
I-WALL
370
    40
100
AcDbLine
 10
-65.8880231033723
 20
518.7402596294954
 30
0.0
 11
-65.88802310337289
 21
400.7402596294951
 31
0.0
1001
REVIT
1002
{
1070
     1
1000
5156763
1002
}
1002
{
1070
     5
1000
639165
1002
}
1002
{
1070
     2
1000
-2000011
1002
}
  0
LINE
  5
12A
330
70
100
AcDbEntity
  8
I-WALL
370
    40
100
AcDbLine
 10
-65.88802310337289
 20
400.7402596294951
 30
0.0
 11
-56.8880231033729
 21
400.740259629495
 31
0.0
1001
REVIT
1002
{
1070
     1
1000
5156763
1002
}
1002
{
1070
     5
1000
639165
1002
}
1002
{
1070
     2
1000
-2000011
1002
}
  0
LINE
  5
12B
330
70
100
AcDbEntity
  8
I-WALL
370
    40
100
AcDbLine
 10
-60.88802310337286
 20
405.740259629495
 30
0.0
 11
-60.88802310337229
 21
523.7402596294954
 31
0.0
1001
REVIT
1002
{
1070
     1
1000
5156763
1002
}
1002
{
1070
     5
1000
639165
1002
}
1002
{
1070
     2
1000
-2000011
1002
}
  0
LINE
  5
12D
330
70
100
AcDbEntity
  8
I-WALL
370
    40
100
AcDbLine
 10
-56.8880231033729
 20
400.740259629495
 30
0.0
 11
-56.88802310337286
 21
405.740259629495
 31
0.0
1001
REVIT
1002
{
1070
     1
1000
5156764
1002
}
1002
{
1070
     5
1000
639165
1002
}
1002
{
1070
     2
1000
-2000011
1002
}
  0
LINE
  5
12E
330
70
100
AcDbEntity
  8
I-WALL
370
    40
100
AcDbLine
 10
-56.88802310337286
 20
405.740259629495
 30
0.0
 11
-60.88802310337286
 21
405.740259629495
 31
0.0
1001
REVIT
1002
{
1070
     1
1000
5156764
1002
}
1002
{
1070
     5
1000
639165
1002
}
1002
{
1070
     2
1000
-2000011
1002
}
  0
LINE
  5
12F
330
70
100
AcDbEntity
  8
I-WALL
370
    40
100
AcDbLine
 10
-20.88802310337288
 20
400.7402596294948
 30
0.0
 11
-11.88802310337287
 21
400.7402596294948
 31
0.0
1001
REVIT
1002
{
1070
     1
1000
5156764
1002
}
1002
{
1070
     5
1000
639165
1002
}
1002
{
1070
     2
1000
-2000011
1002
}
  0
LINE
  5
131
330
70
100
AcDbEntity
  8
I-WALL
370
    40
100
AcDbLine
 10
-16.88802310337284
 20
405.7402596294948
 30
0.0
 11
-20.88802310337285
 21
405.7402596294948
 31
0.0
1001
REVIT
1002
{
1070
     1
1000
5156764
1002
}
1002
{
1070
     5
1000
639165
1002
}
1002
{
1070
     2
1000
-2000011
1002
}
  0
LINE
  5
132
330
70
100
AcDbEntity
  8
I-WALL
370
    40
100
AcDbLine
 10
-20.88802310337285
 20
405.7402596294948
 30
0.0
 11
-20.88802310337288
 21
400.7402596294948
 31
0.0
1001
REVIT
1002
{
1070
     1
1000
5156764
1002
}
1002
{
1070
     5
1000
639165
1002
}
1002
{
1070
     2
1000
-2000011
1002
}
  0
LINE
  5
133
330
70
100
AcDbEntity
  8
I-WALL
370
    40
100
AcDbLine
 10
-11.88802310337287
 20
400.7402596294948
 30
0.0
 11
-11.88802310337228
 21
518.7402596294951
 31
0.0
1001
REVIT
1002
{
1070
     1
1000
5156765
1002
}
1002
{
1070
     5
1000
639165
1002
}
1002
{
1070
     2
1000
-2000011
1002
}
  0
LINE
  5
135
330
70
100
AcDbEntity
  8
I-WALL
370
    40
100
AcDbLine
 10
-16.88802310337226
 20
523.7402596294952
 30
0.0
 11
-16.88802310337284
 21
405.7402596294947
 31
0.0
1001
REVIT
1002
{
1070
     1
1000
5156765
1002
}
1002
{
1070
     5
1000
639165
1002
}
1002
{
1070
     2
1000
-2000011
1002
}
  0
LINE
  5
136
330
70
100
AcDbEntity
  8
I-WALL
370
    40
100
AcDbLine
 10
66.11197689662789
 20
518.7402596294949
 30
0.0
 11
66.11197689662713
 21
400.7402596294952
 31
0.0
1001
REVIT
1002
{
1070
     1
1000
5156766
1002
}
1002
{
1070
     5
1000
639165
1002
}
1002
{
1070
     2
1000
-2000011
1002
}
  0
LINE
  5
137
330
70
100
AcDbEntity
  8
I-WALL
370
    40
100
AcDbLine
 10
66.11197689662713
 20
400.7402596294952
 30
0.0
 11
75.11197689662712
 21
400.7402596294951
 31
0.0
1001
REVIT
1002
{
1070
     1
1000
5156766
1002
}
1002
{
1070
     5
1000
639165
1002
}
1002
{
1070
     2
1000
-2000011
1002
}
  0
LINE
  5
138
330
70
100
AcDbEntity
  8
I-WALL
370
    40
100
AcDbLine
 10
71.11197689662716
 20
405.7402596294953
 30
0.0
 11
71.11197689662792
 21
523.7402596294948
 31
0.0
1001
REVIT
1002
{
1070
     1
1000
5156766
1002
}
1002
{
1070
     5
1000
639165
1002
}
1002
{
1070
     2
1000
-2000011
1002
}
  0
LINE
  5
13B
330
70
100
AcDbEntity
  8
I-WALL
370
    40
100
AcDbLine
 10
75.11197689662712
 20
400.7402596294951
 30
0.0
 11
75.11197689662715
 21
405.7402596294951
 31
0.0
1001
REVIT
1002
{
1070
     1
1000
5156767
1002
}
1002
{
1070
     5
1000
639165
1002
}
1002
{
1070
     2
1000
-2000011
1002
}
  0
LINE
  5
13C
330
70
100
AcDbEntity
  8
I-WALL
370
    40
100
AcDbLine
 10
75.11197689662715
 20
405.7402596294951
 30
0.0
 11
71.11197689662716
 21
405.7402596294952
 31
0.0
1001
REVIT
1002
{
1070
     1
1000
5156767
1002
}
1002
{
1070
     5
1000
639165
1002
}
1002
{
1070
     2
1000
-2000011
1002
}
  0
LINE
  5
13D
330
70
100
AcDbEntity
  8
I-WALL
370
    40
100
AcDbLine
 10
111.1119768966271
 20
400.740259629495
 30
0.0
 11
120.111976896627
 21
400.740259629495
 31
0.0
1001
REVIT
1002
{
1070
     1
1000
5156767
1002
}
1002
{
1070
     5
1000
639165
1002
}
1002
{
1070
     2
1000
-2000011
1002
}
  0
LINE
  5
13F
330
70
100
AcDbEntity
  8
I-WALL
370
    40
100
AcDbLine
 10
115.1119768966271
 20
405.7402596294949
 30
0.0
 11
111.1119768966272
 21
405.740259629495
 31
0.0
1001
REVIT
1002
{
1070
     1
1000
5156767
1002
}
1002
{
1070
     5
1000
639165
1002
}
1002
{
1070
     2
1000
-2000011
1002
}
  0
LINE
  5
140
330
70
100
AcDbEntity
  8
I-WALL
370
    40
100
AcDbLine
 10
111.1119768966272
 20
405.740259629495
 30
0.0
 11
111.1119768966271
 21
400.740259629495
 31
0.0
1001
REVIT
1002
{
1070
     1
1000
5156767
1002
}
1002
{
1070
     5
1000
639165
1002
}
1002
{
1070
     2
1000
-2000011
1002
}
  0
LINE
  5
141
330
70
100
AcDbEntity
  8
I-WALL
370
    40
100
AcDbLine
 10
120.111976896627
 20
400.740259629495
 30
0.0
 11
120.1119768966276
 21
518.740259629495
 31
0.0
1001
REVIT
1002
{
1070
     1
1000
5156768
1002
}
1002
{
1070
     5
1000
639165
1002
}
1002
{
1070
     2
1000
-2000011
1002
}
  0
LINE
  5
143
330
70
100
AcDbEntity
  8
I-WALL
370
    40
100
AcDbLine
 10
115.1119768966277
 20
523.740259629495
 30
0.0
 11
115.1119768966271
 21
405.7402596294949
 31
0.0
1001
REVIT
1002
{
1070
     1
1000
5156768
1002
}
1002
{
1070
     5
1000
639165
1002
}
1002
{
1070
     2
1000
-2000011
1002
}
  0
LINE
  5
144
330
70
100
AcDbEntity
  8
I-WALL
370
    40
100
AcDbLine
 10
120.1119768966276
 20
518.740259629495
 30
0.0
 11
194.1119768966276
 21
518.7402596294947
 31
0.0
1001
REVIT
1002
{
1070
     1
1000
5156769
1002
}
1002
{
1070
     5
1000
639165
1002
}
1002
{
1070
     2
1000
-2000011
1002
}
  0
LINE
  5
146
330
70
100
AcDbEntity
  8
I-WALL
370
    40
100
AcDbLine
 10
199.1119768966276
 20
523.7402596294947
 30
0.0
 11
115.1119768966277
 21
523.740259629495
 31
0.0
1001
REVIT
1002
{
1070
     1
1000
5156769
1002
}
1002
{
1070
     5
1000
639165
1002
}
1002
{
1070
     2
1000
-2000011
1002
}
  0
LINE
  5
147
330
70
100
AcDbEntity
  8
I-WALL
370
    40
100
AcDbLine
 10
194.1119768966276
 20
518.7402596294947
 30
0.0
 11
194.111976896627
 21
400.7402596294944
 31
0.0
1001
REVIT
1002
{
1070
     1
1000
5156770
1002
}
1002
{
1070
     5
1000
639165
1002
}
1002
{
1070
     2
1000
-2000011
1002
}
  0
LINE
  5
148
330
70
100
AcDbEntity
  8
I-WALL
370
    40
100
AcDbLine
 10
194.111976896627
 20
400.7402596294944
 30
0.0
 11
203.1119768966271
 21
400.7402596294943
 31
0.0
1001
REVIT
1002
{
1070
     1
1000
5156770
1002
}
1002
{
1070
     5
1000
639165
1002
}
1002
{
1070
     2
1000
-2000011
1002
}
  0
LINE
  5
149
330
70
100
AcDbEntity
  8
I-WALL
370
    40
100
AcDbLine
 10
199.1119768966271
 20
405.7402596294943
 30
0.0
 11
199.1119768966276
 21
523.7402596294947
 31
0.0
1001
REVIT
1002
{
1070
     1
1000
5156770
1002
}
1002
{
1070
     5
1000
639165
1002
}
1002
{
1070
     2
1000
-2000011
1002
}
  0
LINE
  5
14B
330
70
100
AcDbEntity
  8
I-WALL
370
    40
100
AcDbLine
 10
203.1119768966271
 20
400.7402596294943
 30
0.0
 11
203.1119768966271
 21
405.7402596294943
 31
0.0
1001
REVIT
1002
{
1070
     1
1000
5156771
1002
}
1002
{
1070
     5
1000
639165
1002
}
1002
{
1070
     2
1000
-2000011
1002
}
  0
LINE
  5
14C
330
70
100
AcDbEntity
  8
I-WALL
370
    40
100
AcDbLine
 10
203.1119768966271
 20
405.7402596294943
 30
0.0
 11
199.1119768966271
 21
405.7402596294943
 31
0.0
1001
REVIT
1002
{
1070
     1
1000
5156771
1002
}
1002
{
1070
     5
1000
639165
1002
}
1002
{
1070
     2
1000
-2000011
1002
}
  0
LINE
  5
14D
330
70
100
AcDbEntity
  8
I-WALL
370
    40
100
AcDbLine
 10
239.1119768966271
 20
400.7402596294942
 30
0.0
 11
248.1119768966271
 21
400.7402596294941
 31
0.0
1001
REVIT
1002
{
1070
     1
1000
5156771
1002
}
1002
{
1070
     5
1000
639165
1002
}
1002
{
1070
     2
1000
-2000011
1002
}
  0
LINE
  5
14F
330
70
100
AcDbEntity
  8
I-WALL
370
    40
100
AcDbLine
 10
243.1119768966271
 20
405.7402596294942
 30
0.0
 11
239.1119768966272
 21
405.7402596294942
 31
0.0
1001
REVIT
1002
{
1070
     1
1000
5156771
1002
}
1002
{
1070
     5
1000
639165
1002
}
1002
{
1070
     2
1000
-2000011
1002
}
  0
LINE
  5
150
330
70
100
AcDbEntity
  8
I-WALL
370
    40
100
AcDbLine
 10
239.1119768966272
 20
405.7402596294942
 30
0.0
 11
239.1119768966271
 21
400.7402596294942
 31
0.0
1001
REVIT
1002
{
1070
     1
1000
5156771
1002
}
1002
{
1070
     5
1000
639165
1002
}
1002
{
1070
     2
1000
-2000011
1002
}
  0
LINE
  5
151
330
70
100
AcDbEntity
  8
I-WALL
370
    40
100
AcDbLine
 10
248.1119768966271
 20
400.7402596294941
 30
0.0
 11
248.1119768966277
 21
518.7402596294945
 31
0.0
1001
REVIT
1002
{
1070
     1
1000
5156772
1002
}
1002
{
1070
     5
1000
639165
1002
}
1002
{
1070
     2
1000
-2000011
1002
}
  0
LINE
  5
153
330
70
100
AcDbEntity
  8
I-WALL
370
    40
100
AcDbLine
 10
243.1119768966277
 20
523.7402596294945
 30
0.0
 11
243.1119768966271
 21
405.740259629494
 31
0.0
1001
REVIT
1002
{
1070
     1
1000
5156772
1002
}
1002
{
1070
     5
1000
639165
1002
}
1002
{
1070
     2
1000
-2000011
1002
}
  0
LINE
  5
154
330
70
100
AcDbEntity
  8
I-WALL
370
    40
100
AcDbLine
 10
-11.88802310337228
 20
518.7402596294951
 30
0.0
 11
66.11197689662787
 21
518.7402596294949
 31
0.0
1001
REVIT
1002
{
1070
     1
1000
5156773
1002
}
1002
{
1070
     5
1000
639165
1002
}
1002
{
1070
     2
1000
-2000011
1002
}
  0
LINE
  5
155
330
70
100
AcDbEntity
  8
I-WALL
370
    40
100
AcDbLine
 10
71.11197689662792
 20
523.7402596294948
 30
0.0
 11
-16.88802310337226
 21
523.7402596294952
 31
0.0
1001
REVIT
1002
{
1070
     1
1000
5156773
1002
}
1002
{
1070
     5
1000
639165
1002
}
1002
{
1070
     2
1000
-2000011
1002
}
  0
LINE
  5
156
330
70
100
AcDbEntity
  8
I-WALL
370
    40
100
AcDbLine
 10
248.1119768966277
 20
518.7402596294945
 30
0.0
 11
638.111976896629
 21
518.7402596294921
 31
0.0
1001
REVIT
1002
{
1070
     1
1000
5156774
1002
}
1002
{
1070
     5
1000
639165
1002
}
1002
{
1070
     2
1000
-2000011
1002
}
  0
LINE
  5
157
330
70
100
AcDbEntity
  8
I-WALL
370
    40
100
AcDbLine
 10
633.1119768966289
 20
523.740259629492
 30
0.0
 11
459.1119768966284
 21
523.7402596294931
 31
0.0
1001
REVIT
1002
{
1070
     1
1000
5156774
1002
}
1002
{
1070
     5
1000
639165
1002
}
1002
{
1070
     2
1000
-2000011
1002
}
  0
LINE
  5
158
330
70
100
AcDbEntity
  8
I-WALL
370
    40
100
AcDbLine
 10
454.1119768966283
 20
523.7402596294932
 30
0.0
 11
243.1119768966277
 21
523.7402596294945
 31
0.0
1001
REVIT
1002
{
1070
     1
1000
5156774
1002
}
1002
{
1070
     5
1000
639165
1002
}
1002
{
1070
     2
1000
-2000011
1002
}
  0
LINE
  5
159
330
70
100
AcDbEntity
  8
I-WALL
370
    40
100
AcDbLine
 10
-841.8880231033718
 20
523.7402596294981
 30
0.0
 11
-841.888023103371
 21
926.7402596295047
 31
0.0
1001
REVIT
1002
{
1070
     1
1000
5157015
1002
}
1002
{
1070
     5
1000
639165
1002
}
1002
{
1070
     2
1000
-2000011
1002
}
  0
LINE
  5
15A
330
70
100
AcDbEntity
  8
I-WALL
370
    40
100
AcDbLine
 10
-846.8880231033711
 20
931.7402596295048
 30
0.0
 11
-846.8880231033718
 21
518.7402596294981
 31
0.0
1001
REVIT
1002
{
1070
     1
1000
5157015
1002
}
1002
{
1070
     5
1000
639165
1002
}
1002
{
1070
     2
1000
-2000011
1002
}
  0
LINE
  5
15B
330
70
100
AcDbEntity
  8
I-WALL
370
    40
100
AcDbLine
 10
-666.888023103371
 20
926.7402596295042
 30
0.0
 11
-666.8880231033711
 21
817.7402596295191
 31
0.0
1001
REVIT
1002
{
1070
     1
1000
5157119
1002
}
1002
{
1070
     5
1000
639165
1002
}
1002
{
1070
     2
1000
-2000011
1002
}
  0
LINE
  5
15C
330
70
100
AcDbEntity
  8
I-WALL
370
    40
100
AcDbLine
 10
-666.8880231033711
 20
817.7402596295191
 30
0.0
 11
-661.8880231033713
 21
817.7402596295191
 31
0.0
1001
REVIT
1002
{
1070
     1
1000
5157119
1002
}
1002
{
1070
     5
1000
639165
1002
}
1002
{
1070
     2
1000
-2000011
1002
}
  0
LINE
  5
15D
330
70
100
AcDbEntity
  8
I-WALL
370
    40
100
AcDbLine
 10
-661.8880231033713
 20
817.7402596295191
 30
0.0
 11
-661.8880231033711
 21
926.740259629504
 31
0.0
1001
REVIT
1002
{
1070
     1
1000
5157119
1002
}
1002
{
1070
     5
1000
639165
1002
}
1002
{
1070
     2
1000
-2000011
1002
}
  0
LINE
  5
15E
330
70
100
AcDbEntity
  8
I-WALL
370
    40
100
AcDbLine
 10
-666.8880231033713
 20
777.7402596295189
 30
0.0
 11
-666.8880231033718
 21
523.7402596294974
 31
0.0
1001
REVIT
1002
{
1070
     1
1000
5157119
1002
}
1002
{
1070
     5
1000
639165
1002
}
1002
{
1070
     2
1000
-2000011
1002
}
  0
LINE
  5
15F
330
70
100
AcDbEntity
  8
I-WALL
370
    40
100
AcDbLine
 10
-661.8880231033718
 20
523.7402596294974
 30
0.0
 11
-661.8880231033713
 21
777.7402596295189
 31
0.0
1001
REVIT
1002
{
1070
     1
1000
5157119
1002
}
1002
{
1070
     5
1000
639165
1002
}
1002
{
1070
     2
1000
-2000011
1002
}
  0
LINE
  5
160
330
70
100
AcDbEntity
  8
I-WALL
370
    40
100
AcDbLine
 10
-661.8880231033713
 20
777.7402596295189
 30
0.0
 11
-666.8880231033713
 21
777.7402596295189
 31
0.0
1001
REVIT
1002
{
1070
     1
1000
5157119
1002
}
1002
{
1070
     5
1000
639165
1002
}
1002
{
1070
     2
1000
-2000011
1002
}
  0
LINE
  5
161
330
70
100
AcDbEntity
  8
I-WALL
370
    40
100
AcDbLine
 10
454.111976896629
 20
926.7402596295013
 30
0.0
 11
454.1119768966288
 21
815.7402596295163
 31
0.0
1001
REVIT
1002
{
1070
     1
1000
5157210
1002
}
1002
{
1070
     5
1000
639165
1002
}
1002
{
1070
     2
1000
-2000011
1002
}
  0
LINE
  5
162
330
70
100
AcDbEntity
  8
I-WALL
370
    40
100
AcDbLine
 10
454.1119768966288
 20
815.7402596295163
 30
0.0
 11
459.1119768966288
 21
815.7402596295163
 31
0.0
1001
REVIT
1002
{
1070
     1
1000
5157210
1002
}
1002
{
1070
     5
1000
639165
1002
}
1002
{
1070
     2
1000
-2000011
1002
}
  0
LINE
  5
163
330
70
100
AcDbEntity
  8
I-WALL
370
    40
100
AcDbLine
 10
459.1119768966288
 20
815.7402596295163
 30
0.0
 11
459.111976896629
 21
926.7402596295013
 31
0.0
1001
REVIT
1002
{
1070
     1
1000
5157210
1002
}
1002
{
1070
     5
1000
639165
1002
}
1002
{
1070
     2
1000
-2000011
1002
}
  0
LINE
  5
164
330
70
100
AcDbEntity
  8
I-WALL
370
    40
100
AcDbLine
 10
454.1119768966288
 20
775.7402596295162
 30
0.0
 11
454.1119768966283
 21
523.7402596294932
 31
0.0
1001
REVIT
1002
{
1070
     1
1000
5157210
1002
}
1002
{
1070
     5
1000
639165
1002
}
1002
{
1070
     2
1000
-2000011
1002
}
  0
LINE
  5
165
330
70
100
AcDbEntity
  8
I-WALL
370
    40
100
AcDbLine
 10
459.1119768966283
 20
523.7402596294931
 30
0.0
 11
459.1119768966287
 21
775.7402596295162
 31
0.0
1001
REVIT
1002
{
1070
     1
1000
5157210
1002
}
1002
{
1070
     5
1000
639165
1002
}
1002
{
1070
     2
1000
-2000011
1002
}
  0
LINE
  5
166
330
70
100
AcDbEntity
  8
I-WALL
370
    40
100
AcDbLine
 10
459.1119768966287
 20
775.7402596295162
 30
0.0
 11
454.1119768966288
 21
775.7402596295162
 31
0.0
1001
REVIT
1002
{
1070
     1
1000
5157210
1002
}
1002
{
1070
     5
1000
639165
1002
}
1002
{
1070
     2
1000
-2000011
1002
}
  0
INSERT
  5
16E
330
70
100
AcDbEntity
  8
A-GLAZ-CURT
100
AcDbBlockReference
  2
System Panel - zGlazed-5157346-LEVEL 3 - Map Export
 10
-430.8880231033706
 20
1047.240259629503
 30
0.0
1001
REVIT
1002
{
1070
     1
1000
5157303
1002
}
1002
{
1070
     5
1000
645966
1002
}
1002
{
1070
     2
1000
-2000170
1002
}
  0
INSERT
  5
174
330
70
100
AcDbEntity
  8
A-GLAZ-CWMG
100
AcDbBlockReference
  2
Rectangular Mullion - 4 1_2_ x 2_ Rectangular_CE_-5157345-LEVEL 3 - Map Export
 10
0.0
 20
0.0
 30
0.0
1001
REVIT
1002
{
1070
     1
1000
5157306
1002
}
1002
{
1070
     5
1000
646104
1002
}
1002
{
1070
     2
1000
-2000171
1002
}
  0
INSERT
  5
17C
330
70
100
AcDbEntity
  8
A-GLAZ-CWMG
100
AcDbBlockReference
  2
Rectangular Mullion - 4 1_2_ x 2_ Rectangular_CE_-5157312-LEVEL 3 - Map Export
 10
412.8880231033705
 20
1047.240259629503
 30
0.0
 50
180.0
210
0.0
220
0.0
230
-1.0
1001
REVIT
1002
{
1070
     1
1000
5157307
1002
}
1002
{
1070
     5
1000
646104
1002
}
1002
{
1070
     2
1000
-2000171
1002
}
  0
INSERT
  5
184
330
70
100
AcDbEntity
  8
A-GLAZ-CWMG
100
AcDbBlockReference
  2
Rectangular Mullion - 4 1_2_ x 2_ Rectangular_CE_-5157313-LEVEL 3 - Map Export
 10
-448.8880231033706
 20
1047.240259629503
 30
0.0
 50
180.0
1001
REVIT
1002
{
1070
     1
1000
5157308
1002
}
1002
{
1070
     5
1000
646104
1002
}
1002
{
1070
     2
1000
-2000171
1002
}
  0
INSERT
  5
185
330
70
100
AcDbEntity
  8
A-GLAZ-CURT
100
AcDbBlockReference
  2
System Panel - zGlazed-5157346-LEVEL 3 - Map Export
 10
-302.8880231033706
 20
1047.240259629503
 30
0.0
1001
REVIT
1002
{
1070
     1
1000
5157459
1002
}
1002
{
1070
     5
1000
645966
1002
}
1002
{
1070
     2
1000
-2000170
1002
}
  0
INSERT
  5
186
330
70
100
AcDbEntity
  8
A-GLAZ-CWMG
100
AcDbBlockReference
  2
Rectangular Mullion - 4 1_2_ x 2_ Rectangular_CE_-5157345-LEVEL 3 - Map Export
 10
128.0000000000001
 20
0.0
 30
0.0
1001
REVIT
1002
{
1070
     1
1000
5157461
1002
}
1002
{
1070
     5
1000
646104
1002
}
1002
{
1070
     2
1000
-2000171
1002
}
  0
INSERT
  5
187
330
70
100
AcDbEntity
  8
A-GLAZ-CWMG
100
AcDbBlockReference
  2
Rectangular Mullion - 4 1_2_ x 2_ Rectangular_CE_-5157312-LEVEL 3 - Map Export
 10
284.8880231033706
 20
1047.240259629503
 30
0.0
 50
180.0
210
0.0
220
0.0
230
-1.0
1001
REVIT
1002
{
1070
     1
1000
5157462
1002
}
1002
{
1070
     5
1000
646104
1002
}
1002
{
1070
     2
1000
-2000171
1002
}
  0
INSERT
  5
188
330
70
100
AcDbEntity
  8
A-GLAZ-CWMG
100
AcDbBlockReference
  2
Rectangular Mullion - 4 1_2_ x 2_ Rectangular_CE_-5157313-LEVEL 3 - Map Export
 10
-320.8880231033706
 20
1047.240259629503
 30
0.0
 50
180.0
1001
REVIT
1002
{
1070
     1
1000
5157463
1002
}
1002
{
1070
     5
1000
646104
1002
}
1002
{
1070
     2
1000
-2000171
1002
}
  0
INSERT
  5
189
330
70
100
AcDbEntity
  8
A-GLAZ-CURT
100
AcDbBlockReference
  2
System Panel - zGlazed-5157346-LEVEL 3 - Map Export
 10
-170.8880231033707
 20
1047.240259629503
 30
0.0
1001
REVIT
1002
{
1070
     1
1000
5157475
1002
}
1002
{
1070
     5
1000
645966
1002
}
1002
{
1070
     2
1000
-2000170
1002
}
  0
INSERT
  5
18A
330
70
100
AcDbEntity
  8
A-GLAZ-CWMG
100
AcDbBlockReference
  2
Rectangular Mullion - 4 1_2_ x 2_ Rectangular_CE_-5157345-LEVEL 3 - Map Export
 10
260.0
 20
0.0
 30
0.0
1001
REVIT
1002
{
1070
     1
1000
5157477
1002
}
1002
{
1070
     5
1000
646104
1002
}
1002
{
1070
     2
1000
-2000171
1002
}
  0
INSERT
  5
18B
330
70
100
AcDbEntity
  8
A-GLAZ-CWMG
100
AcDbBlockReference
  2
Rectangular Mullion - 4 1_2_ x 2_ Rectangular_CE_-5157312-LEVEL 3 - Map Export
 10
152.8880231033707
 20
1047.240259629503
 30
0.0
 50
180.0
210
0.0
220
0.0
230
-1.0
1001
REVIT
1002
{
1070
     1
1000
5157478
1002
}
1002
{
1070
     5
1000
646104
1002
}
1002
{
1070
     2
1000
-2000171
1002
}
  0
INSERT
  5
18C
330
70
100
AcDbEntity
  8
A-GLAZ-CWMG
100
AcDbBlockReference
  2
Rectangular Mullion - 4 1_2_ x 2_ Rectangular_CE_-5157313-LEVEL 3 - Map Export
 10
-188.8880231033707
 20
1047.240259629503
 30
0.0
 50
180.0
1001
REVIT
1002
{
1070
     1
1000
5157479
1002
}
1002
{
1070
     5
1000
646104
1002
}
1002
{
1070
     2
1000
-2000171
1002
}
  0
INSERT
  5
18D
330
70
100
AcDbEntity
  8
A-GLAZ-CURT
100
AcDbBlockReference
  2
System Panel - zGlazed-5157346-LEVEL 3 - Map Export
 10
-38.88802310337079
 20
1047.240259629502
 30
0.0
1001
REVIT
1002
{
1070
     1
1000
5157489
1002
}
1002
{
1070
     5
1000
645966
1002
}
1002
{
1070
     2
1000
-2000170
1002
}
  0
INSERT
  5
18E
330
70
100
AcDbEntity
  8
A-GLAZ-CWMG
100
AcDbBlockReference
  2
Rectangular Mullion - 4 1_2_ x 2_ Rectangular_CE_-5157345-LEVEL 3 - Map Export
 10
391.9999999999999
 20
0.0
 30
0.0
1001
REVIT
1002
{
1070
     1
1000
5157491
1002
}
1002
{
1070
     5
1000
646104
1002
}
1002
{
1070
     2
1000
-2000171
1002
}
  0
INSERT
  5
18F
330
70
100
AcDbEntity
  8
A-GLAZ-CWMG
100
AcDbBlockReference
  2
Rectangular Mullion - 4 1_2_ x 2_ Rectangular_CE_-5157312-LEVEL 3 - Map Export
 10
20.88802310337078
 20
1047.240259629502
 30
0.0
 50
180.0
210
0.0
220
0.0
230
-1.0
1001
REVIT
1002
{
1070
     1
1000
5157492
1002
}
1002
{
1070
     5
1000
646104
1002
}
1002
{
1070
     2
1000
-2000171
1002
}
  0
INSERT
  5
190
330
70
100
AcDbEntity
  8
A-GLAZ-CWMG
100
AcDbBlockReference
  2
Rectangular Mullion - 4 1_2_ x 2_ Rectangular_CE_-5157313-LEVEL 3 - Map Export
 10
-56.88802310337081
 20
1047.240259629502
 30
0.0
 50
180.0
1001
REVIT
1002
{
1070
     1
1000
5157493
1002
}
1002
{
1070
     5
1000
646104
1002
}
1002
{
1070
     2
1000
-2000171
1002
}
  0
INSERT
  5
191
330
70
100
AcDbEntity
  8
A-GLAZ-CURT
100
AcDbBlockReference
  2
System Panel - zGlazed-5157346-LEVEL 3 - Map Export
 10
93.11197689662924
 20
1047.240259629502
 30
0.0
1001
REVIT
1002
{
1070
     1
1000
5157503
1002
}
1002
{
1070
     5
1000
645966
1002
}
1002
{
1070
     2
1000
-2000170
1002
}
  0
INSERT
  5
192
330
70
100
AcDbEntity
  8
A-GLAZ-CWMG
100
AcDbBlockReference
  2
Rectangular Mullion - 4 1_2_ x 2_ Rectangular_CE_-5157345-LEVEL 3 - Map Export
 10
523.9999999999999
 20
0.0
 30
0.0
1001
REVIT
1002
{
1070
     1
1000
5157505
1002
}
1002
{
1070
     5
1000
646104
1002
}
1002
{
1070
     2
1000
-2000171
1002
}
  0
INSERT
  5
193
330
70
100
AcDbEntity
  8
A-GLAZ-CWMG
100
AcDbBlockReference
  2
Rectangular Mullion - 4 1_2_ x 2_ Rectangular_CE_-5157312-LEVEL 3 - Map Export
 10
-111.1119768966292
 20
1047.240259629502
 30
0.0
 50
180.0
210
0.0
220
0.0
230
-1.0
1001
REVIT
1002
{
1070
     1
1000
5157506
1002
}
1002
{
1070
     5
1000
646104
1002
}
1002
{
1070
     2
1000
-2000171
1002
}
  0
INSERT
  5
194
330
70
100
AcDbEntity
  8
A-GLAZ-CWMG
100
AcDbBlockReference
  2
Rectangular Mullion - 4 1_2_ x 2_ Rectangular_CE_-5157313-LEVEL 3 - Map Export
 10
75.11197689662921
 20
1047.240259629502
 30
0.0
 50
180.0
1001
REVIT
1002
{
1070
     1
1000
5157507
1002
}
1002
{
1070
     5
1000
646104
1002
}
1002
{
1070
     2
1000
-2000171
1002
}
  0
INSERT
  5
195
330
70
100
AcDbEntity
  8
A-GLAZ-CURT
100
AcDbBlockReference
  2
System Panel - zGlazed-5157346-LEVEL 3 - Map Export
 10
221.1119768966292
 20
1047.240259629501
 30
0.0
1001
REVIT
1002
{
1070
     1
1000
5157772
1002
}
1002
{
1070
     5
1000
645966
1002
}
1002
{
1070
     2
1000
-2000170
1002
}
  0
INSERT
  5
196
330
70
100
AcDbEntity
  8
A-GLAZ-CWMG
100
AcDbBlockReference
  2
Rectangular Mullion - 4 1_2_ x 2_ Rectangular_CE_-5157345-LEVEL 3 - Map Export
 10
651.9999999999998
 20
0.0
 30
0.0
1001
REVIT
1002
{
1070
     1
1000
5157774
1002
}
1002
{
1070
     5
1000
646104
1002
}
1002
{
1070
     2
1000
-2000171
1002
}
  0
INSERT
  5
197
330
70
100
AcDbEntity
  8
A-GLAZ-CWMG
100
AcDbBlockReference
  2
Rectangular Mullion - 4 1_2_ x 2_ Rectangular_CE_-5157312-LEVEL 3 - Map Export
 10
-239.1119768966292
 20
1047.240259629501
 30
0.0
 50
180.0
210
0.0
220
0.0
230
-1.0
1001
REVIT
1002
{
1070
     1
1000
5157775
1002
}
1002
{
1070
     5
1000
646104
1002
}
1002
{
1070
     2
1000
-2000171
1002
}
  0
INSERT
  5
198
330
70
100
AcDbEntity
  8
A-GLAZ-CWMG
100
AcDbBlockReference
  2
Rectangular Mullion - 4 1_2_ x 2_ Rectangular_CE_-5157313-LEVEL 3 - Map Export
 10
203.1119768966291
 20
1047.240259629501
 30
0.0
 50
180.0
1001
REVIT
1002
{
1070
     1
1000
5157776
1002
}
1002
{
1070
     5
1000
646104
1002
}
1002
{
1070
     2
1000
-2000171
1002
}
  0
INSERT
  5
1A0
330
70
100
AcDbEntity
  8
A-GLAZ-CURT
100
AcDbBlockReference
  2
System Panel - zGlazed-5158016-LEVEL 3 - Map Export
 10
-430.8880231033726
 20
403.2402596294966
 30
0.0
1001
REVIT
1002
{
1070
     1
1000
5157979
1002
}
1002
{
1070
     5
1000
645966
1002
}
1002
{
1070
     2
1000
-2000170
1002
}
  0
INSERT
  5
1A6
330
70
100
AcDbEntity
  8
A-GLAZ-CWMG
100
AcDbBlockReference
  2
Rectangular Mullion - 4 1_2_ x 2_ Rectangular_CE_-5158015-LEVEL 3 - Map Export
 10
0.0
 20
0.0
 30
0.0
1001
REVIT
1002
{
1070
     1
1000
5157981
1002
}
1002
{
1070
     5
1000
646104
1002
}
1002
{
1070
     2
1000
-2000171
1002
}
  0
INSERT
  5
1AE
330
70
100
AcDbEntity
  8
A-GLAZ-CWMG
100
AcDbBlockReference
  2
Rectangular Mullion - 4 1_2_ x 2_ Rectangular_CE_-5158017-LEVEL 3 - Map Export
 10
412.8880231033726
 20
403.2402596294964
 30
0.0
 50
180.0
210
0.0
220
0.0
230
-1.0
1001
REVIT
1002
{
1070
     1
1000
5157982
1002
}
1002
{
1070
     5
1000
646104
1002
}
1002
{
1070
     2
1000
-2000171
1002
}
  0
INSERT
  5
1B6
330
70
100
AcDbEntity
  8
A-GLAZ-CWMG
100
AcDbBlockReference
  2
Rectangular Mullion - 4 1_2_ x 2_ Rectangular_CE_-5158018-LEVEL 3 - Map Export
 10
-448.8880231033727
 20
403.2402596294968
 30
0.0
 50
180.0
1001
REVIT
1002
{
1070
     1
1000
5157983
1002
}
1002
{
1070
     5
1000
646104
1002
}
1002
{
1070
     2
1000
-2000171
1002
}
  0
INSERT
  5
1B7
330
70
100
AcDbEntity
  8
A-GLAZ-CURT
100
AcDbBlockReference
  2
System Panel - zGlazed-5158016-LEVEL 3 - Map Export
 10
-302.8880231033726
 20
403.2402596294962
 30
0.0
1001
REVIT
1002
{
1070
     1
1000
5157985
1002
}
1002
{
1070
     5
1000
645966
1002
}
1002
{
1070
     2
1000
-2000170
1002
}
  0
INSERT
  5
1B8
330
70
100
AcDbEntity
  8
A-GLAZ-CWMG
100
AcDbBlockReference
  2
Rectangular Mullion - 4 1_2_ x 2_ Rectangular_CE_-5158015-LEVEL 3 - Map Export
 10
128.0000000000001
 20
0.0
 30
0.0
1001
REVIT
1002
{
1070
     1
1000
5157987
1002
}
1002
{
1070
     5
1000
646104
1002
}
1002
{
1070
     2
1000
-2000171
1002
}
  0
INSERT
  5
1B9
330
70
100
AcDbEntity
  8
A-GLAZ-CWMG
100
AcDbBlockReference
  2
Rectangular Mullion - 4 1_2_ x 2_ Rectangular_CE_-5158017-LEVEL 3 - Map Export
 10
284.8880231033726
 20
403.240259629496
 30
0.0
 50
180.0
210
0.0
220
0.0
230
-1.0
1001
REVIT
1002
{
1070
     1
1000
5157988
1002
}
1002
{
1070
     5
1000
646104
1002
}
1002
{
1070
     2
1000
-2000171
1002
}
  0
INSERT
  5
1BA
330
70
100
AcDbEntity
  8
A-GLAZ-CWMG
100
AcDbBlockReference
  2
Rectangular Mullion - 4 1_2_ x 2_ Rectangular_CE_-5158018-LEVEL 3 - Map Export
 10
-320.8880231033727
 20
403.2402596294963
 30
0.0
 50
180.0
1001
REVIT
1002
{
1070
     1
1000
5157989
1002
}
1002
{
1070
     5
1000
646104
1002
}
1002
{
1070
     2
1000
-2000171
1002
}
  0
INSERT
  5
1BB
330
70
100
AcDbEntity
  8
A-GLAZ-CURT
100
AcDbBlockReference
  2
System Panel - zGlazed-5158016-LEVEL 3 - Map Export
 10
-170.8880231033728
 20
403.2402596294958
 30
0.0
1001
REVIT
1002
{
1070
     1
1000
5157991
1002
}
1002
{
1070
     5
1000
645966
1002
}
1002
{
1070
     2
1000
-2000170
1002
}
  0
INSERT
  5
1BC
330
70
100
AcDbEntity
  8
A-GLAZ-CWMG
100
AcDbBlockReference
  2
Rectangular Mullion - 4 1_2_ x 2_ Rectangular_CE_-5158015-LEVEL 3 - Map Export
 10
260.0
 20
0.0
 30
0.0
1001
REVIT
1002
{
1070
     1
1000
5157993
1002
}
1002
{
1070
     5
1000
646104
1002
}
1002
{
1070
     2
1000
-2000171
1002
}
  0
INSERT
  5
1BD
330
70
100
AcDbEntity
  8
A-GLAZ-CWMG
100
AcDbBlockReference
  2
Rectangular Mullion - 4 1_2_ x 2_ Rectangular_CE_-5158017-LEVEL 3 - Map Export
 10
152.8880231033728
 20
403.2402596294956
 30
0.0
 50
180.0
210
0.0
220
0.0
230
-1.0
1001
REVIT
1002
{
1070
     1
1000
5157994
1002
}
1002
{
1070
     5
1000
646104
1002
}
1002
{
1070
     2
1000
-2000171
1002
}
  0
INSERT
  5
1BE
330
70
100
AcDbEntity
  8
A-GLAZ-CWMG
100
AcDbBlockReference
  2
Rectangular Mullion - 4 1_2_ x 2_ Rectangular_CE_-5158018-LEVEL 3 - Map Export
 10
-188.8880231033728
 20
403.2402596294959
 30
0.0
 50
180.0
1001
REVIT
1002
{
1070
     1
1000
5157995
1002
}
1002
{
1070
     5
1000
646104
1002
}
1002
{
1070
     2
1000
-2000171
1002
}
  0
INSERT
  5
1BF
330
70
100
AcDbEntity
  8
A-GLAZ-CURT
100
AcDbBlockReference
  2
System Panel - zGlazed-5158016-LEVEL 3 - Map Export
 10
-38.88802310337286
 20
403.2402596294955
 30
0.0
1001
REVIT
1002
{
1070
     1
1000
5157997
1002
}
1002
{
1070
     5
1000
645966
1002
}
1002
{
1070
     2
1000
-2000170
1002
}
  0
INSERT
  5
1C0
330
70
100
AcDbEntity
  8
A-GLAZ-CWMG
100
AcDbBlockReference
  2
Rectangular Mullion - 4 1_2_ x 2_ Rectangular_CE_-5158015-LEVEL 3 - Map Export
 10
391.9999999999999
 20
0.0
 30
0.0
1001
REVIT
1002
{
1070
     1
1000
5157999
1002
}
1002
{
1070
     5
1000
646104
1002
}
1002
{
1070
     2
1000
-2000171
1002
}
  0
INSERT
  5
1C1
330
70
100
AcDbEntity
  8
A-GLAZ-CWMG
100
AcDbBlockReference
  2
Rectangular Mullion - 4 1_2_ x 2_ Rectangular_CE_-5158017-LEVEL 3 - Map Export
 10
20.88802310337286
 20
403.2402596294953
 30
0.0
 50
180.0
210
0.0
220
0.0
230
-1.0
1001
REVIT
1002
{
1070
     1
1000
5158000
1002
}
1002
{
1070
     5
1000
646104
1002
}
1002
{
1070
     2
1000
-2000171
1002
}
  0
INSERT
  5
1C2
330
70
100
AcDbEntity
  8
A-GLAZ-CWMG
100
AcDbBlockReference
  2
Rectangular Mullion - 4 1_2_ x 2_ Rectangular_CE_-5158018-LEVEL 3 - Map Export
 10
-56.88802310337288
 20
403.2402596294955
 30
0.0
 50
180.0
1001
REVIT
1002
{
1070
     1
1000
5158001
1002
}
1002
{
1070
     5
1000
646104
1002
}
1002
{
1070
     2
1000
-2000171
1002
}
  0
INSERT
  5
1C3
330
70
100
AcDbEntity
  8
A-GLAZ-CURT
100
AcDbBlockReference
  2
System Panel - zGlazed-5158016-LEVEL 3 - Map Export
 10
93.11197689662716
 20
403.2402596294951
 30
0.0
1001
REVIT
1002
{
1070
     1
1000
5158003
1002
}
1002
{
1070
     5
1000
645966
1002
}
1002
{
1070
     2
1000
-2000170
1002
}
  0
INSERT
  5
1C4
330
70
100
AcDbEntity
  8
A-GLAZ-CWMG
100
AcDbBlockReference
  2
Rectangular Mullion - 4 1_2_ x 2_ Rectangular_CE_-5158015-LEVEL 3 - Map Export
 10
523.9999999999999
 20
0.0
 30
0.0
1001
REVIT
1002
{
1070
     1
1000
5158005
1002
}
1002
{
1070
     5
1000
646104
1002
}
1002
{
1070
     2
1000
-2000171
1002
}
  0
INSERT
  5
1C5
330
70
100
AcDbEntity
  8
A-GLAZ-CWMG
100
AcDbBlockReference
  2
Rectangular Mullion - 4 1_2_ x 2_ Rectangular_CE_-5158017-LEVEL 3 - Map Export
 10
-111.1119768966271
 20
403.2402596294949
 30
0.0
 50
180.0
210
0.0
220
0.0
230
-1.0
1001
REVIT
1002
{
1070
     1
1000
5158006
1002
}
1002
{
1070
     5
1000
646104
1002
}
1002
{
1070
     2
1000
-2000171
1002
}
  0
INSERT
  5
1C6
330
70
100
AcDbEntity
  8
A-GLAZ-CWMG
100
AcDbBlockReference
  2
Rectangular Mullion - 4 1_2_ x 2_ Rectangular_CE_-5158018-LEVEL 3 - Map Export
 10
75.11197689662714
 20
403.2402596294952
 30
0.0
 50
180.0
1001
REVIT
1002
{
1070
     1
1000
5158007
1002
}
1002
{
1070
     5
1000
646104
1002
}
1002
{
1070
     2
1000
-2000171
1002
}
  0
INSERT
  5
1C7
330
70
100
AcDbEntity
  8
A-GLAZ-CURT
100
AcDbBlockReference
  2
System Panel - zGlazed-5158016-LEVEL 3 - Map Export
 10
221.1119768966271
 20
403.2402596294946
 30
0.0
1001
REVIT
1002
{
1070
     1
1000
5158009
1002
}
1002
{
1070
     5
1000
645966
1002
}
1002
{
1070
     2
1000
-2000170
1002
}
  0
INSERT
  5
1C8
330
70
100
AcDbEntity
  8
A-GLAZ-CWMG
100
AcDbBlockReference
  2
Rectangular Mullion - 4 1_2_ x 2_ Rectangular_CE_-5158015-LEVEL 3 - Map Export
 10
651.9999999999998
 20
0.0
 30
0.0
1001
REVIT
1002
{
1070
     1
1000
5158011
1002
}
1002
{
1070
     5
1000
646104
1002
}
1002
{
1070
     2
1000
-2000171
1002
}
  0
INSERT
  5
1C9
330
70
100
AcDbEntity
  8
A-GLAZ-CWMG
100
AcDbBlockReference
  2
Rectangular Mullion - 4 1_2_ x 2_ Rectangular_CE_-5158017-LEVEL 3 - Map Export
 10
-239.1119768966271
 20
403.2402596294944
 30
0.0
 50
180.0
210
0.0
220
0.0
230
-1.0
1001
REVIT
1002
{
1070
     1
1000
5158012
1002
}
1002
{
1070
     5
1000
646104
1002
}
1002
{
1070
     2
1000
-2000171
1002
}
  0
INSERT
  5
1CA
330
70
100
AcDbEntity
  8
A-GLAZ-CWMG
100
AcDbBlockReference
  2
Rectangular Mullion - 4 1_2_ x 2_ Rectangular_CE_-5158018-LEVEL 3 - Map Export
 10
203.1119768966271
 20
403.2402596294947
 30
0.0
 50
180.0
1001
REVIT
1002
{
1070
     1
1000
5158013
1002
}
1002
{
1070
     5
1000
646104
1002
}
1002
{
1070
     2
1000
-2000171
1002
}
  0
INSERT
  5
1EB
330
70
100
AcDbEntity
  8
A-DOOR
370
     9
100
AcDbBlockReference
  2
Door-Single_CE_ - HM Door-2_ HM Frame-5188854-LEVEL 3 - Map Export
 10
-664.3880231033714
 20
797.740259629519
 30
0.0
 50
269.9999999999999
1001
REVIT
1002
{
1070
     1
1000
5158089
1002
}
1002
{
1070
     5
1000
4450563
1002
}
1002
{
1070
     2
1000
-2000023
1002
}
1002
{
1070
     3
1000
636535
1002
}
  0
INSERT
  5
20B
330
70
100
AcDbEntity
  8
A-DOOR
370
     9
100
AcDbBlockReference
  2
Door-Single_CE_ - HM Door-2_ HM Frame-5188851-LEVEL 3 - Map Export
 10
456.6119768966288
 20
795.7402596295162
 30
0.0
 50
269.9999999999999
1001
REVIT
1002
{
1070
     1
1000
5158183
1002
}
1002
{
1070
     5
1000
4450563
1002
}
1002
{
1070
     2
1000
-2000023
1002
}
1002
{
1070
     3
1000
636535
1002
}
  0
LINE
  5
20C
330
70
100
AcDbEntity
  8
I-WALL
370
    40
100
AcDbLine
 10
-243.4704018674656
 20
1024.481802141016
 30
0.0
 11
-243.4704018674657
 21
931.740259629503
 31
0.0
1001
REVIT
1002
{
1070
     1
1000
5158547
1002
}
1002
{
1070
     5
1000
639165
1002
}
1002
{
1070
     2
1000
-2000011
1002
}
  0
LINE
  5
20D
330
70
100
AcDbEntity
  8
I-WALL
370
    40
100
AcDbLine
 10
-243.4704018674657
 20
926.7402596295029
 30
0.0
 11
-243.4704018674658
 21
856.2402596295024
 31
0.0
1001
REVIT
1002
{
1070
     1
1000
5158547
1002
}
1002
{
1070
     5
1000
639165
1002
}
1002
{
1070
     2
1000
-2000011
1002
}
  0
LINE
  5
20E
330
70
100
AcDbEntity
  8
I-WALL
370
    40
100
AcDbLine
 10
-243.4704018674658
 20
856.2402596295024
 30
0.0
 11
-235.4970889043899
 21
856.2402596295024
 31
0.0
1001
REVIT
1002
{
1070
     1
1000
5158547
1002
}
1002
{
1070
     5
1000
639165
1002
}
1002
{
1070
     2
1000
-2000011
1002
}
  0
LINE
  5
20F
330
70
100
AcDbEntity
  8
I-WALL
370
    40
100
AcDbLine
 10
-238.4704018674658
 20
861.2402596295025
 30
0.0
 11
-238.4704018674655
 21
1024.481802141016
 31
0.0
1001
REVIT
1002
{
1070
     1
1000
5158547
1002
}
1002
{
1070
     5
1000
639165
1002
}
1002
{
1070
     2
1000
-2000011
1002
}
  0
LINE
  5
210
330
70
100
AcDbEntity
  8
I-WALL
370
    40
100
AcDbLine
 10
-238.4704018674655
 20
1024.481802141016
 30
0.0
 11
-243.4704018674656
 21
1024.481802141016
 31
0.0
1001
REVIT
1002
{
1070
     1
1000
5158547
1002
}
1002
{
1070
     5
1000
639165
1002
}
1002
{
1070
     2
1000
-2000011
1002
}
  0
LINE
  5
212
330
70
100
AcDbEntity
  8
I-WALL
370
    40
100
AcDbLine
 10
-235.4970889043899
 20
856.2402596295024
 30
0.0
 11
-235.4970889043899
 21
861.2402596295025
 31
0.0
1001
REVIT
1002
{
1070
     1
1000
5158588
1002
}
1002
{
1070
     5
1000
639165
1002
}
1002
{
1070
     2
1000
-2000011
1002
}
  0
LINE
  5
213
330
70
100
AcDbEntity
  8
I-WALL
370
    40
100
AcDbLine
 10
-235.4970889043899
 20
861.2402596295025
 30
0.0
 11
-238.4704018674658
 21
861.2402596295025
 31
0.0
1001
REVIT
1002
{
1070
     1
1000
5158588
1002
}
1002
{
1070
     5
1000
639165
1002
}
1002
{
1070
     2
1000
-2000011
1002
}
  0
LINE
  5
215
330
70
100
AcDbEntity
  8
I-WALL
370
    40
100
AcDbLine
 10
-197.8880231033707
 20
861.2402596295023
 30
0.0
 11
-199.49708890439
 21
861.2402596295023
 31
0.0
1001
REVIT
1002
{
1070
     1
1000
5158588
1002
}
1002
{
1070
     5
1000
639165
1002
}
1002
{
1070
     2
1000
-2000011
1002
}
  0
LINE
  5
216
330
70
100
AcDbEntity
  8
I-WALL
370
    40
100
AcDbLine
 10
-199.49708890439
 20
861.2402596295023
 30
0.0
 11
-199.49708890439
 21
856.2402596295024
 31
0.0
1001
REVIT
1002
{
1070
     1
1000
5158588
1002
}
1002
{
1070
     5
1000
639165
1002
}
1002
{
1070
     2
1000
-2000011
1002
}
  0
INSERT
  5
239
330
70
100
AcDbEntity
  8
A-DOOR
370
     9
100
AcDbBlockReference
  2
Door-Single_CE_ - HM Door-2_ HM Frame-5188855-LEVEL 3 - Map Export
 10
-217.49708890439
 20
858.7402596295026
 30
0.0
 50
180.0
1001
REVIT
1002
{
1070
     1
1000
5158639
1002
}
1002
{
1070
     5
1000
4450563
1002
}
1002
{
1070
     2
1000
-2000023
1002
}
1002
{
1070
     3
1000
636535
1002
}
  0
LINE
  5
23A
330
70
100
AcDbEntity
  8
S-STRS
100
AcDbLine
 10
-234.1243017903053
 20
873.1174302074085
 30
0.0
 11
-232.1243017903053
 21
873.1174302074085
 31
0.0
1001
REVIT
1002
{
1070
     1
1000
5159395
1002
}
1002
{
1070
     5
1000
44989
1002
}
1002
{
1070
     2
1000
-2000120
1002
}
1002
{
1070
     3
1000
-2000952
1002
}
  0
LINE
  5
23B
330
70
100
AcDbEntity
  8
S-STRS
100
AcDbLine
 10
-232.124301790305
 20
1093.117430207408
 30
0.0
 11
-234.124301790305
 21
1093.117430207408
 31
0.0
1001
REVIT
1002
{
1070
     1
1000
5159395
1002
}
1002
{
1070
     5
1000
44989
1002
}
1002
{
1070
     2
1000
-2000120
1002
}
1002
{
1070
     3
1000
-2000952
1002
}
  0
LINE
  5
23C
330
70
100
AcDbEntity
  8
S-STRS
100
AcDbLine
 10
-234.124301790305
 20
1093.117430207408
 30
0.0
 11
-234.1243017903053
 21
873.1174302074085
 31
0.0
1001
REVIT
1002
{
1070
     1
1000
5159395
1002
}
1002
{
1070
     5
1000
44989
1002
}
1002
{
1070
     2
1000
-2000120
1002
}
1002
{
1070
     3
1000
-2000952
1002
}
  0
LINE
  5
23D
330
70
100
AcDbEntity
  8
S-STRS
100
AcDbLine
 10
-194.1243017903049
 20
1093.117430207408
 30
0.0
 11
-196.124301790305
 21
1093.117430207408
 31
0.0
1001
REVIT
1002
{
1070
     1
1000
5159395
1002
}
1002
{
1070
     5
1000
44989
1002
}
1002
{
1070
     2
1000
-2000120
1002
}
1002
{
1070
     3
1000
-2000952
1002
}
  0
LINE
  5
23E
330
70
100
AcDbEntity
  8
S-STRS
100
AcDbLine
 10
-194.1243017903049
 20
1093.117430207408
 30
0.0
 11
-194.124301790305
 21
1049.740259629502
 31
0.0
1001
REVIT
1002
{
1070
     1
1000
5159395
1002
}
1002
{
1070
     5
1000
44989
1002
}
1002
{
1070
     2
1000
-2000120
1002
}
1002
{
1070
     3
1000
-2000952
1002
}
  0
LINE
  5
23F
330
70
100
AcDbEntity
  8
S-STRS
100
AcDbLine
 10
-198.1243017903052
 20
873.1174302074085
 30
0.0
 11
-230.1243017903053
 21
873.1174302074085
 31
0.0
1001
REVIT
1002
{
1070
     1
1000
5159395
1002
}
1002
{
1070
     5
1000
44989
1002
}
1002
{
1070
     2
1000
-2000120
1002
}
1002
{
1070
     3
1000
-2000934
1002
}
  0
LINE
  5
240
330
70
100
AcDbEntity
  8
S-STRS
100
AcDbLine
 10
-198.1243017903048
 20
1093.117430207408
 30
0.0
 11
-230.124301790305
 21
1093.117430207408
 31
0.0
1001
REVIT
1002
{
1070
     1
1000
5159395
1002
}
1002
{
1070
     5
1000
44989
1002
}
1002
{
1070
     2
1000
-2000120
1002
}
1002
{
1070
     3
1000
-2000934
1002
}
  0
LINE
  5
241
330
70
100
AcDbEntity
  8
S-STRS
100
AcDbLine
 10
-198.1243017903052
 20
884.1174302074085
 30
0.0
 11
-230.1243017903053
 21
884.1174302074085
 31
0.0
1001
REVIT
1002
{
1070
     1
1000
5159395
1002
}
1002
{
1070
     5
1000
44989
1002
}
1002
{
1070
     2
1000
-2000120
1002
}
1002
{
1070
     3
1000
-2000932
1002
}
  0
LINE
  5
242
330
70
100
AcDbEntity
  8
S-STRS
100
AcDbLine
 10
-198.1243017903052
 20
895.1174302074084
 30
0.0
 11
-230.1243017903053
 21
895.1174302074084
 31
0.0
1001
REVIT
1002
{
1070
     1
1000
5159395
1002
}
1002
{
1070
     5
1000
44989
1002
}
1002
{
1070
     2
1000
-2000120
1002
}
1002
{
1070
     3
1000
-2000932
1002
}
  0
LINE
  5
243
330
70
100
AcDbEntity
  8
S-STRS
100
AcDbLine
 10
-198.1243017903053
 20
906.1174302074086
 30
0.0
 11
-230.1243017903053
 21
906.1174302074086
 31
0.0
1001
REVIT
1002
{
1070
     1
1000
5159395
1002
}
1002
{
1070
     5
1000
44989
1002
}
1002
{
1070
     2
1000
-2000120
1002
}
1002
{
1070
     3
1000
-2000932
1002
}
  0
LINE
  5
244
330
70
100
AcDbEntity
  8
S-STRS
100
AcDbLine
 10
-198.1243017903053
 20
917.1174302074085
 30
0.0
 11
-230.1243017903053
 21
917.1174302074085
 31
0.0
1001
REVIT
1002
{
1070
     1
1000
5159395
1002
}
1002
{
1070
     5
1000
44989
1002
}
1002
{
1070
     2
1000
-2000120
1002
}
1002
{
1070
     3
1000
-2000932
1002
}
  0
LINE
  5
245
330
70
100
AcDbEntity
  8
S-STRS
100
AcDbLine
 10
-198.1243017903052
 20
928.1174302074084
 30
0.0
 11
-230.1243017903052
 21
928.1174302074084
 31
0.0
1001
REVIT
1002
{
1070
     1
1000
5159395
1002
}
1002
{
1070
     5
1000
44989
1002
}
1002
{
1070
     2
1000
-2000120
1002
}
1002
{
1070
     3
1000
-2000932
1002
}
  0
LINE
  5
246
330
70
100
AcDbEntity
  8
S-STRS
100
AcDbLine
 10
-198.1243017903051
 20
939.1174302074086
 30
0.0
 11
-230.124301790305
 21
939.1174302074086
 31
0.0
1001
REVIT
1002
{
1070
     1
1000
5159395
1002
}
1002
{
1070
     5
1000
44989
1002
}
1002
{
1070
     2
1000
-2000120
1002
}
1002
{
1070
     3
1000
-2000932
1002
}
  0
LINE
  5
247
330
70
100
AcDbEntity
  8
S-STRS
100
AcDbLine
 10
-198.124301790305
 20
950.1174302074085
 30
0.0
 11
-230.1243017903052
 21
950.1174302074085
 31
0.0
1001
REVIT
1002
{
1070
     1
1000
5159395
1002
}
1002
{
1070
     5
1000
44989
1002
}
1002
{
1070
     2
1000
-2000120
1002
}
1002
{
1070
     3
1000
-2000932
1002
}
  0
LINE
  5
248
330
70
100
AcDbEntity
  8
S-STRS
100
AcDbLine
 10
-198.124301790305
 20
961.1174302074084
 30
0.0
 11
-230.1243017903052
 21
961.1174302074084
 31
0.0
1001
REVIT
1002
{
1070
     1
1000
5159395
1002
}
1002
{
1070
     5
1000
44989
1002
}
1002
{
1070
     2
1000
-2000120
1002
}
1002
{
1070
     3
1000
-2000932
1002
}
  0
LINE
  5
249
330
70
100
AcDbEntity
  8
S-STRS
100
AcDbLine
 10
-198.124301790305
 20
972.1174302074086
 30
0.0
 11
-230.1243017903052
 21
972.1174302074086
 31
0.0
1001
REVIT
1002
{
1070
     1
1000
5159395
1002
}
1002
{
1070
     5
1000
44989
1002
}
1002
{
1070
     2
1000
-2000120
1002
}
1002
{
1070
     3
1000
-2000932
1002
}
  0
LINE
  5
24A
330
70
100
AcDbEntity
  8
S-STRS
100
AcDbLine
 10
-198.1243017903052
 20
983.1174302074085
 30
0.0
 11
-230.1243017903051
 21
983.1174302074085
 31
0.0
1001
REVIT
1002
{
1070
     1
1000
5159395
1002
}
1002
{
1070
     5
1000
44989
1002
}
1002
{
1070
     2
1000
-2000120
1002
}
1002
{
1070
     3
1000
-2000932
1002
}
  0
LINE
  5
24B
330
70
100
AcDbEntity
  8
S-STRS
100
AcDbLine
 10
-198.1243017903052
 20
994.1174302074085
 30
0.0
 11
-230.1243017903051
 21
994.1174302074085
 31
0.0
1001
REVIT
1002
{
1070
     1
1000
5159395
1002
}
1002
{
1070
     5
1000
44989
1002
}
1002
{
1070
     2
1000
-2000120
1002
}
1002
{
1070
     3
1000
-2000932
1002
}
  0
LINE
  5
24C
330
70
100
AcDbEntity
  8
S-STRS
100
AcDbLine
 10
-198.1243017903051
 20
1005.117430207408
 30
0.0
 11
-230.1243017903051
 21
1005.117430207408
 31
0.0
1001
REVIT
1002
{
1070
     1
1000
5159395
1002
}
1002
{
1070
     5
1000
44989
1002
}
1002
{
1070
     2
1000
-2000120
1002
}
1002
{
1070
     3
1000
-2000932
1002
}
  0
LINE
  5
24D
330
70
100
AcDbEntity
  8
S-STRS
100
AcDbLine
 10
-198.1243017903051
 20
1016.117430207408
 30
0.0
 11
-230.1243017903051
 21
1016.117430207408
 31
0.0
1001
REVIT
1002
{
1070
     1
1000
5159395
1002
}
1002
{
1070
     5
1000
44989
1002
}
1002
{
1070
     2
1000
-2000120
1002
}
1002
{
1070
     3
1000
-2000932
1002
}
  0
LINE
  5
24E
330
70
100
AcDbEntity
  8
S-STRS
100
AcDbLine
 10
-198.1243017903051
 20
1027.117430207408
 30
0.0
 11
-230.1243017903051
 21
1027.117430207408
 31
0.0
1001
REVIT
1002
{
1070
     1
1000
5159395
1002
}
1002
{
1070
     5
1000
44989
1002
}
1002
{
1070
     2
1000
-2000120
1002
}
1002
{
1070
     3
1000
-2000932
1002
}
  0
LINE
  5
24F
330
70
100
AcDbEntity
  8
S-STRS
100
AcDbLine
 10
-198.1243017903049
 20
1038.117430207408
 30
0.0
 11
-230.1243017903049
 21
1038.117430207408
 31
0.0
1001
REVIT
1002
{
1070
     1
1000
5159395
1002
}
1002
{
1070
     5
1000
44989
1002
}
1002
{
1070
     2
1000
-2000120
1002
}
1002
{
1070
     3
1000
-2000932
1002
}
  0
LINE
  5
250
330
70
100
AcDbEntity
  8
S-STRS
100
AcDbLine
 10
-198.1243017903049
 20
1049.117430207408
 30
0.0
 11
-230.1243017903049
 21
1049.117430207408
 31
0.0
1001
REVIT
1002
{
1070
     1
1000
5159395
1002
}
1002
{
1070
     5
1000
44989
1002
}
1002
{
1070
     2
1000
-2000120
1002
}
1002
{
1070
     3
1000
-2000932
1002
}
  0
LINE
  5
251
330
70
100
AcDbEntity
  8
S-STRS
100
AcDbLine
 10
-198.1243017903048
 20
1060.117430207408
 30
0.0
 11
-230.1243017903049
 21
1060.117430207408
 31
0.0
1001
REVIT
1002
{
1070
     1
1000
5159395
1002
}
1002
{
1070
     5
1000
44989
1002
}
1002
{
1070
     2
1000
-2000120
1002
}
1002
{
1070
     3
1000
-2000932
1002
}
  0
LINE
  5
252
330
70
100
AcDbEntity
  8
S-STRS
100
AcDbLine
 10
-198.1243017903048
 20
1071.117430207408
 30
0.0
 11
-230.1243017903049
 21
1071.117430207408
 31
0.0
1001
REVIT
1002
{
1070
     1
1000
5159395
1002
}
1002
{
1070
     5
1000
44989
1002
}
1002
{
1070
     2
1000
-2000120
1002
}
1002
{
1070
     3
1000
-2000932
1002
}
  0
LINE
  5
253
330
70
100
AcDbEntity
  8
S-STRS
100
AcDbLine
 10
-198.1243017903048
 20
1082.117430207408
 30
0.0
 11
-230.124301790305
 21
1082.117430207408
 31
0.0
1001
REVIT
1002
{
1070
     1
1000
5159395
1002
}
1002
{
1070
     5
1000
44989
1002
}
1002
{
1070
     2
1000
-2000120
1002
}
1002
{
1070
     3
1000
-2000932
1002
}
  0
INSERT
  5
25B
330
70
100
AcDbEntity
  8
A-FLOR-HRAL
100
AcDbBlockReference
  2
Railing - Railing-5159730-LEVEL 3 - Map Export
 10
0.0
 20
0.0
 30
0.0
1001
REVIT
1002
{
1070
     1
1000
5159729
1002
}
1002
{
1070
     5
1000
1969
1002
}
1002
{
1070
     2
1000
-2000126
1002
}
1002
{
1070
     3
1000
-2000128
1002
}
  0
INSERT
  5
263
330
70
100
AcDbEntity
  8
A-FLOR-HRAL
100
AcDbBlockReference
  2
Railing - Railing-5159734-LEVEL 3 - Map Export
 10
0.0
 20
0.0
 30
0.0
1001
REVIT
1002
{
1070
     1
1000
5159733
1002
}
1002
{
1070
     5
1000
1969
1002
}
1002
{
1070
     2
1000
-2000126
1002
}
1002
{
1070
     3
1000
-2000128
1002
}
  0
LWPOLYLINE
  5
265
330
70
100
AcDbEntity
  8
A-AREA-BNDY
100
AcDbPolyline
 90
        4
 70
   129
 43
0.0
 10
-666.8880231033718
 20
926.7402596295054
 10
-841.8880231033721
 20
926.7402596295058
 10
-841.8880231033728
 20
523.7402596294988
 10
-666.8880231033725
 20
523.7402596294981
1001
REVIT
1002
{
1070
     1
1000
5159105
1002
}
1002
{
1070
     2
1000
-2000829
1002
}
1002
{
1070
   101
1000
STORAGE
1002
}
1002
{
1070
   102
1000
301
1002
}
1002
{
1070
   103
1000

1002
}
1002
{
1070
   104
1000

1002
}
1002
{
1070
   105
1000

1002
}
  0
LWPOLYLINE
  5
266
330
70
100
AcDbEntity
  8
A-AREA-BNDY
100
AcDbPolyline
 90
        4
 70
   129
 43
0.0
 10
633.1119768966296
 20
926.7402596295024
 10
459.1119768966296
 20
926.7402596295024
 10
459.1119768966289
 20
523.7402596294937
 10
633.1119768966296
 20
523.7402596294926
1001
REVIT
1002
{
1070
     1
1000
5159106
1002
}
1002
{
1070
     2
1000
-2000829
1002
}
1002
{
1070
   101
1000
STORAGE
1002
}
1002
{
1070
   102
1000
302
1002
}
1002
{
1070
   103
1000

1002
}
1002
{
1070
   104
1000

1002
}
1002
{
1070
   105
1000

1002
}
  0
LWPOLYLINE
  5
267
330
70
100
AcDbEntity
  8
A-AREA-BNDY
100
AcDbPolyline
 90
       54
 70
   129
 43
0.0
 10
-452.8880231033709
 20
926.7402596295047
 10
-661.8880231033716
 20
926.7402596295054
 10
-661.8880231033723
 20
523.7402596294981
 10
-452.8880231033722
 20
523.7402596294974
 10
-452.8880231033729
 20
405.7402596294972
 10
-408.8880231033731
 20
405.740259629497
 10
-408.8880231033725
 20
523.7402596294972
 10
-324.8880231033724
 20
523.7402596294969
 10
-324.8880231033729
 20
405.7402596294966
 10
-280.8880231033729
 20
405.7402596294962
 10
-280.8880231033723
 20
523.7402596294965
 10
-192.8880231033721
 20
523.7402596294962
 10
-192.8880231033729
 20
405.7402596294966
 10
-148.8880231033729
 20
405.7402596294962
 10
-148.8880231033723
 20
523.7402596294962
 10
-60.88802310337229
 20
523.740259629496
 10
-60.88802310337279
 20
405.7402596294955
 10
-16.88802310337274
 20
405.7402596294951
 10
-16.88802310337223
 20
523.7402596294957
 10
71.11197689662803
 20
523.7402596294954
 10
71.11197689662735
 20
405.7402596294958
 10
115.1119768966272
 20
405.7402596294953
 10
115.1119768966279
 20
523.7402596294956
 10
199.1119768966279
 20
523.7402596294953
 10
199.1119768966272
 20
405.7402596294948
 10
243.1119768966274
 20
405.7402596294947
 10
243.111976896628
 20
523.740259629495
 10
454.1119768966287
 20
523.7402596294937
 10
454.1119768966294
 20
926.7402596295024
 10
243.1119768966294
 20
926.7402596295024
 10
243.1119768966297
 20
1044.740259629503
 10
199.1119768966296
 20
1044.740259629503
 10
199.1119768966292
 20
926.7402596295026
 10
115.1119768966293
 20
926.7402596295028
 10
115.1119768966294
 20
1044.740259629503
 10
71.1119768966294
 20
1044.740259629503
 10
71.1119768966294
 20
926.7402596295031
 10
-16.88802310337086
 20
926.7402596295033
 10
-16.88802310337069
 20
1044.740259629503
 10
-60.88802310337075
 20
1044.740259629503
 10
-60.88802310337092
 20
926.7402596295035
 10
-148.888023103371
 20
926.7402596295037
 10
-148.8880231033708
 20
1044.740259629503
 10
-192.8880231033709
 20
1044.740259629503
 10
-192.8880231033709
 20
856.2402596295033
 10
-243.470401867466
 20
856.2402596295035
 10
-243.470401867466
 20
926.7402596295042
 10
-280.8880231033708
 20
926.7402596295042
 10
-280.8880231033707
 20
1044.740259629505
 10
-324.8880231033709
 20
1044.740259629505
 10
-324.8880231033711
 20
926.7402596295044
 10
-408.8880231033711
 20
926.7402596295044
 10
-408.888023103371
 20
1044.740259629505
 10
-452.8880231033709
 20
1044.740259629505
1001
REVIT
1002
{
1070
     1
1000
5159107
1002
}
1002
{
1070
     2
1000
-2000829
1002
}
1002
{
1070
   101
1000
STORAGE
1002
}
1002
{
1070
   102
1000
300
1002
}
1002
{
1070
   103
1000

1002
}
1002
{
1070
   104
1000

1002
}
1002
{
1070
   105
1000

1002
}
  0
ENDSEC
  0
SECTION
  2
OBJECTS
  0
DICTIONARY
  5
C
330
0
100
AcDbDictionary
281
     1
  3
ACAD_CIP_PREVIOUS_PRODUCT_INFO
350
79
  3
ACAD_COLOR
350
63
  3
ACAD_DETAILVIEWSTYLE
350
6A
  3
ACAD_GROUP
350
D
  3
ACAD_IMAGE_VARS
350
7A
  3
ACAD_LAYOUT
350
62
  3
ACAD_MATERIAL
350
10
  3
ACAD_MLEADERSTYLE
350
66
  3
ACAD_MLINESTYLE
350
5F
  3
ACAD_PLOTSETTINGS
350
61
  3
ACAD_PLOTSTYLENAME
350
E
  3
ACAD_SCALELIST
350
42
  3
ACAD_SECTIONVIEWSTYLE
350
68
  3
ACAD_TABLESTYLE
350
64
  3
ACAD_VISUALSTYLE
350
29
  3
ACDB_RECOMPOSE_DATA
350
274
  3
AcDbVariableDictionary
350
7B
  3
REVIT_DICTIONARY
350
268
  0
DICTIONARY
  5
270
330
70
100
AcDbDictionary
280
     1
281
     1
  3
ACAD_SORTENTS
360
271
  0
XRECORD
  5
79
102
{ACAD_REACTORS
330
C
102
}
330
C
100
AcDbXrecord
280
     1
300
RVT
300
2025
300
RVT2025
  0
DICTIONARY
  5
63
102
{ACAD_REACTORS
330
C
102
}
330
C
100
AcDbDictionary
281
     1
  0
DICTIONARY
  5
6A
102
{ACAD_REACTORS
330
C
102
}
330
C
100
AcDbDictionary
281
     1
  3
Imperial24
350
6B
  0
DICTIONARY
  5
D
102
{ACAD_REACTORS
330
C
102
}
330
C
100
AcDbDictionary
281
     1
  0
RASTERVARIABLES
  5
7A
102
{ACAD_REACTORS
330
C
102
}
330
C
100
AcDbRasterVariables
 90
        0
 70
     0
 71
     1
 72
     5
  0
DICTIONARY
  5
62
102
{ACAD_REACTORS
330
C
102
}
330
C
100
AcDbDictionary
281
     1
  3
Layout1
350
6F
  3
Layout2
350
77
  3
Model
350
73
  0
DICTIONARY
  5
10
102
{ACAD_REACTORS
330
C
102
}
330
C
100
AcDbDictionary
281
     1
  3
ByBlock
350
19
  3
ByLayer
350
11
  3
Global
350
21
  0
DICTIONARY
  5
66
102
{ACAD_REACTORS
330
C
102
}
330
C
100
AcDbDictionary
281
     1
  3
Standard
350
67
  0
DICTIONARY
  5
5F
102
{ACAD_REACTORS
330
C
102
}
330
C
100
AcDbDictionary
281
     1
  3
Standard
350
60
  0
DICTIONARY
  5
61
102
{ACAD_REACTORS
330
C
102
}
330
C
100
AcDbDictionary
281
     1
  0
ACDBDICTIONARYWDFLT
  5
E
102
{ACAD_REACTORS
330
C
102
}
330
C
100
AcDbDictionary
281
     1
  3
Normal
350
F
100
AcDbDictionaryWithDefault
340
F
  0
DICTIONARY
  5
42
102
{ACAD_REACTORS
330
C
102
}
330
C
100
AcDbDictionary
281
     1
  3
A0
350
43
  3
A1
350
44
  3
A2
350
45
  3
A3
350
46
  3
A4
350
47
  3
A5
350
48
  3
A6
350
49
  3
A7
350
4A
  3
A8
350
4B
  3
A9
350
4C
  3
B0
350
4D
  3
B1
350
4E
  3
B2
350
4F
  3
B3
350
50
  3
B4
350
51
  3
B5
350
52
  3
B6
350
53
  0
DICTIONARY
  5
68
102
{ACAD_REACTORS
330
C
102
}
330
C
100
AcDbDictionary
281
     1
  3
Imperial24
350
69
  0
DICTIONARY
  5
64
102
{ACAD_REACTORS
330
C
102
}
330
C
100
AcDbDictionary
281
     1
  3
Standard
350
65
  0
DICTIONARY
  5
29
102
{ACAD_REACTORS
330
C
102
}
330
C
100
AcDbDictionary
281
     1
  3
2dWireframe
350
2F
  3
Basic
350
2E
  3
Brighten
350
35
  3
ColorChange
350
39
  3
Conceptual
350
32
  3
Dim
350
34
  3
EdgeColorOff
350
41
  3
Facepattern
350
38
  3
Flat
350
2A
  3
FlatWithEdges
350
2B
  3
Gouraud
350
2C
  3
GouraudWithEdges
350
2D
  3
Hidden
350
31
  3
JitterOff
350
3F
  3
Linepattern
350
37
  3
OverhangOff
350
40
  3
Realistic
350
33
  3
Shaded
350
3E
  3
Shaded with edges
350
3D
  3
Shades of Gray
350
3A
  3
Sketchy
350
3B
  3
Thicken
350
36
  3
Wireframe
350
30
  3
X-Ray
350
3C
  0
XRECORD
  5
274
102
{ACAD_REACTORS
330
C
102
}
330
C
100
AcDbXrecord
280
     1
 90
        1
330
65
  0
DICTIONARY
  5
7B
102
{ACAD_REACTORS
330
C
102
}
330
C
100
AcDbDictionary
281
     1
  3
CANNOSCALE
350
80
  3
CMLEADERSTYLE
350
7D
  3
CTABLESTYLE
350
7C
  3
CVIEWDETAILSTYLE
350
7E
  3
CVIEWSECTIONSTYLE
350
7F
  0
DICTIONARY
  5
268
102
{ACAD_REACTORS
330
C
102
}
330
C
100
AcDbDictionary
281
     1
  3
DRAWING_TOOL
350
26F
  3
REVIT_CATEGORY_MAPPING
350
26D
  3
REVIT_GET_SITE
350
269
  3
REVIT_SUB_CATEGORY_MAPPING
350
26E
  3
REVIT_TYPE_MAPPING
350
26C
  0
SORTENTSTABLE
  5
271
102
{ACAD_REACTORS
330
270
102
}
330
270
100
AcDbSortentsTable
330
70
  0
ACDBDETAILVIEWSTYLE
  5
6B
102
{ACAD_REACTORS
330
6A
102
}
330
6A
100
AcDbModelDocViewStyle
 70
     0
  3
Imperial24
290
     1
300
Imperial24
 90
        0
100
AcDbDetailViewStyle
 70
     0
 71
     0
 90
        3
 71
     1
340
55
 62
   256
 40
0.24
340
0
 62
   256
 40
0.24
300

 40
0.36
280
     3
 71
     2
340
5D
 90
       25
 62
   256
 71
     3
340
55
 62
   256
 40
0.24
 90
        1
 40
0.75
 90
        1
300
%<\AcVar ViewType \f "%tc1">% %<\AcVar ViewDetailId>%\PSCALE %<\AcVar ViewScale \f "%sn">%
 71
     4
340
5D
 90
       25
 62
   256
340
5D
 90
       25
 62
   256
280
     0
  0
LAYOUT
  5
6F
102
{ACAD_REACTORS
330
62
102
}
330
62
100
AcDbPlotSettings
  1

  2

  4

  6

 40
0.0
 41
0.0
 42
0.0
 43
0.0
 44
0.0
 45
0.0
 46
0.0
 47
0.0
 48
0.0
 49
0.0
140
0.0
141
0.0
142
1.0
143
1.0
 70
   688
 72
     0
 73
     0
 74
     5
  7

 75
    16
147
1.0
 76
     0
 77
     2
 78
   300
148
0.0
149
0.0
100
AcDbLayout
  1
Layout1
 70
     1
 71
     1
 10
0.0
 20
0.0
 11
12.0
 21
9.0
 12
0.0
 22
0.0
 32
0.0
 14
0.0
 24
0.0
 34
0.0
 15
0.0
 25
0.0
 35
0.0
146
0.0
 13
0.0
 23
0.0
 33
0.0
 16
1.0
 26
0.0
 36
0.0
 17
0.0
 27
1.0
 37
0.0
 76
     0
330
6C
  0
LAYOUT
  5
77
102
{ACAD_REACTORS
330
62
102
}
330
62
100
AcDbPlotSettings
  1

  2

  4

  6

 40
0.0
 41
0.0
 42
0.0
 43
0.0
 44
0.0
 45
0.0
 46
0.0
 47
0.0
 48
0.0
 49
0.0
140
0.0
141
0.0
142
1.0
143
1.0
 70
   688
 72
     0
 73
     0
 74
     5
  7

 75
    16
147
1.0
 76
     0
 77
     2
 78
   300
148
0.0
149
0.0
100
AcDbLayout
  1
Layout2
 70
     1
 71
     2
 10
0.0
 20
0.0
 11
12.0
 21
9.0
 12
0.0
 22
0.0
 32
0.0
 14
0.0
 24
0.0
 34
0.0
 15
0.0
 25
0.0
 35
0.0
146
0.0
 13
0.0
 23
0.0
 33
0.0
 16
1.0
 26
0.0
 36
0.0
 17
0.0
 27
1.0
 37
0.0
 76
     0
330
74
  0
LAYOUT
  5
73
102
{ACAD_REACTORS
330
62
102
}
330
62
100
AcDbPlotSettings
  1

  2

  4

  6

 40
0.0
 41
0.0
 42
0.0
 43
0.0
 44
0.0
 45
0.0
 46
0.0
 47
0.0
 48
0.0
 49
0.0
140
0.0
141
0.0
142
1.0
143
1.0
 70
  1712
 72
     0
 73
     0
 74
     0
  7

 75
     0
147
1.0
 76
     0
 77
     2
 78
   300
148
0.0
149
0.0
100
AcDbLayout
  1
Model
 70
     1
 71
     0
 10
0.0
 20
0.0
 11
12.0
 21
9.0
 12
0.0
 22
0.0
 32
0.0
 14
0.0
 24
0.0
 34
0.0
 15
0.0
 25
0.0
 35
0.0
146
0.0
 13
0.0
 23
0.0
 33
0.0
 16
1.0
 26
0.0
 36
0.0
 17
0.0
 27
1.0
 37
0.0
 76
     0
330
70
  0
MATERIAL
  5
19
102
{ACAD_XDICTIONARY
360
1A
102
}
102
{ACAD_REACTORS
330
10
102
}
330
10
100
AcDbMaterial
  1
ByBlock
 72
     0
 43
0.0208333333333333
 43
0.0
 43
0.0
 43
0.0
 43
0.0
 43
0.0208333333333333
 43
0.0
 43
0.0
 43
0.0
 43
0.0
 43
1.0
 43
0.0
 43
0.0
 43
0.0
 43
0.0
 43
1.0
 77
     0
 47
0.0208333333333333
 47
0.0
 47
0.0
 47
0.0
 47
0.0
 47
0.0208333333333333
 47
0.0
 47
0.0
 47
0.0
 47
0.0
 47
1.0
 47
0.0
 47
0.0
 47
0.0
 47
0.0
 47
1.0
171
     0
 49
0.0208333333333333
 49
0.0
 49
0.0
 49
0.0
 49
0.0
 49
0.0208333333333333
 49
0.0
 49
0.0
 49
0.0
 49
0.0
 49
1.0
 49
0.0
 49
0.0
 49
0.0
 49
0.0
 49
1.0
175
     0
142
0.0208333333333333
142
0.0
142
0.0
142
0.0
142
0.0
142
0.0208333333333333
142
0.0
142
0.0
142
0.0
142
0.0
142
1.0
142
0.0
142
0.0
142
0.0
142
0.0
142
1.0
179
     0
144
0.0208333333333333
144
0.0
144
0.0
144
0.0
144
0.0
144
0.0208333333333333
144
0.0
144
0.0
144
0.0
144
0.0
144
1.0
144
0.0
144
0.0
144
0.0
144
0.0
144
1.0
147
0.0208333333333333
147
0.0
147
0.0
147
0.0
147
0.0
147
0.0208333333333333
147
0.0
147
0.0
147
0.0
147
0.0
147
1.0
147
0.0
147
0.0
147
0.0
147
0.0
147
1.0
  0
MATERIAL
  5
11
102
{ACAD_XDICTIONARY
360
12
102
}
102
{ACAD_REACTORS
330
10
102
}
330
10
100
AcDbMaterial
  1
ByLayer
 72
     0
 43
0.0208333333333333
 43
0.0
 43
0.0
 43
0.0
 43
0.0
 43
0.0208333333333333
 43
0.0
 43
0.0
 43
0.0
 43
0.0
 43
1.0
 43
0.0
 43
0.0
 43
0.0
 43
0.0
 43
1.0
 77
     0
 47
0.0208333333333333
 47
0.0
 47
0.0
 47
0.0
 47
0.0
 47
0.0208333333333333
 47
0.0
 47
0.0
 47
0.0
 47
0.0
 47
1.0
 47
0.0
 47
0.0
 47
0.0
 47
0.0
 47
1.0
171
     0
 49
0.0208333333333333
 49
0.0
 49
0.0
 49
0.0
 49
0.0
 49
0.0208333333333333
 49
0.0
 49
0.0
 49
0.0
 49
0.0
 49
1.0
 49
0.0
 49
0.0
 49
0.0
 49
0.0
 49
1.0
175
     0
142
0.0208333333333333
142
0.0
142
0.0
142
0.0
142
0.0
142
0.0208333333333333
142
0.0
142
0.0
142
0.0
142
0.0
142
1.0
142
0.0
142
0.0
142
0.0
142
0.0
142
1.0
179
     0
144
0.0208333333333333
144
0.0
144
0.0
144
0.0
144
0.0
144
0.0208333333333333
144
0.0
144
0.0
144
0.0
144
0.0
144
1.0
144
0.0
144
0.0
144
0.0
144
0.0
144
1.0
147
0.0208333333333333
147
0.0
147
0.0
147
0.0
147
0.0
147
0.0208333333333333
147
0.0
147
0.0
147
0.0
147
0.0
147
1.0
147
0.0
147
0.0
147
0.0
147
0.0
147
1.0
  0
MATERIAL
  5
21
102
{ACAD_XDICTIONARY
360
22
102
}
102
{ACAD_REACTORS
330
10
102
}
330
10
100
AcDbMaterial
  1
Global
 72
     0
 43
0.0208333333333333
 43
0.0
 43
0.0
 43
0.0
 43
0.0
 43
0.0208333333333333
 43
0.0
 43
0.0
 43
0.0
 43
0.0
 43
1.0
 43
0.0
 43
0.0
 43
0.0
 43
0.0
 43
1.0
 77
     0
 47
0.0208333333333333
 47
0.0
 47
0.0
 47
0.0
 47
0.0
 47
0.0208333333333333
 47
0.0
 47
0.0
 47
0.0
 47
0.0
 47
1.0
 47
0.0
 47
0.0
 47
0.0
 47
0.0
 47
1.0
171
     0
 49
0.0208333333333333
 49
0.0
 49
0.0
 49
0.0
 49
0.0
 49
0.0208333333333333
 49
0.0
 49
0.0
 49
0.0
 49
0.0
 49
1.0
 49
0.0
 49
0.0
 49
0.0
 49
0.0
 49
1.0
175
     0
142
0.0208333333333333
142
0.0
142
0.0
142
0.0
142
0.0
142
0.0208333333333333
142
0.0
142
0.0
142
0.0
142
0.0
142
1.0
142
0.0
142
0.0
142
0.0
142
0.0
142
1.0
179
     0
144
0.0208333333333333
144
0.0
144
0.0
144
0.0
144
0.0
144
0.0208333333333333
144
0.0
144
0.0
144
0.0
144
0.0
144
1.0
144
0.0
144
0.0
144
0.0
144
0.0
144
1.0
147
0.0208333333333333
147
0.0
147
0.0
147
0.0
147
0.0
147
0.0208333333333333
147
0.0
147
0.0
147
0.0
147
0.0
147
1.0
147
0.0
147
0.0
147
0.0
147
0.0
147
1.0
  0
MLEADERSTYLE
  5
67
102
{ACAD_REACTORS
330
66
102
}
330
66
100
AcDbMLeaderStyle
179
     2
170
     2
171
     1
172
     0
 90
        2
 40
0.0
 41
0.0
173
     1
 91
-1056964608
340
5B
 92
       -2
290
     1
 42
0.09
291
     1
 43
0.36
  3
Standard
 44
0.18
300

342
55
174
     1
178
     6
175
     1
176
     0
 93
-1056964608
 45
0.18
292
     0
297
     0
 46
0.18
 94
-1056964608
 47
1.0
 49
1.0
140
1.0
293
     1
141
0.0
294
     1
177
     0
142
1.0
295
     1
296
     0
143
0.125
271
     0
272
     9
273
     9
298
     1
  0
MLINESTYLE
  5
60
102
{ACAD_REACTORS
330
5F
102
}
330
5F
100
AcDbMlineStyle
  2
STANDARD
 70
     0
  3

 62
   256
 51
90.0
 52
90.0
 71
     2
 49
0.5
 62
   256
  6
BYLAYER
 49
-0.5
 62
   256
  6
BYLAYER
  0
ACDBPLACEHOLDER
  5
F
102
{ACAD_REACTORS
330
E
102
}
330
E
  0
SCALE
  5
43
102
{ACAD_REACTORS
330
42
102
}
330
42
100
AcDbScale
 70
     0
300
1:1
140
1.0
141
1.0
290
     1
  0
SCALE
  5
44
102
{ACAD_REACTORS
330
42
102
}
330
42
100
AcDbScale
 70
     0
300
1/128" = 1'-0"
140
0.0078125
141
12.0
290
     0
  0
SCALE
  5
45
102
{ACAD_REACTORS
330
42
102
}
330
42
100
AcDbScale
 70
     0
300
1/64" = 1'-0"
140
0.015625
141
12.0
290
     0
  0
SCALE
  5
46
102
{ACAD_REACTORS
330
42
102
}
330
42
100
AcDbScale
 70
     0
300
1/32" = 1'-0"
140
0.03125
141
12.0
290
     0
  0
SCALE
  5
47
102
{ACAD_REACTORS
330
42
102
}
330
42
100
AcDbScale
 70
     0
300
1/16" = 1'-0"
140
0.0625
141
12.0
290
     0
  0
SCALE
  5
48
102
{ACAD_REACTORS
330
42
102
}
330
42
100
AcDbScale
 70
     0
300
3/32" = 1'-0"
140
0.09375
141
12.0
290
     0
  0
SCALE
  5
49
102
{ACAD_REACTORS
330
42
102
}
330
42
100
AcDbScale
 70
     0
300
1/8" = 1'-0"
140
0.125
141
12.0
290
     0
  0
SCALE
  5
4A
102
{ACAD_REACTORS
330
42
102
}
330
42
100
AcDbScale
 70
     0
300
3/16" = 1'-0"
140
0.1875
141
12.0
290
     0
  0
SCALE
  5
4B
102
{ACAD_REACTORS
330
42
102
}
330
42
100
AcDbScale
 70
     0
300
1/4" = 1'-0"
140
0.25
141
12.0
290
     0
  0
SCALE
  5
4C
102
{ACAD_REACTORS
330
42
102
}
330
42
100
AcDbScale
 70
     0
300
3/8" = 1'-0"
140
0.375
141
12.0
290
     0
  0
SCALE
  5
4D
102
{ACAD_REACTORS
330
42
102
}
330
42
100
AcDbScale
 70
     0
300
1/2" = 1'-0"
140
0.5
141
12.0
290
     0
  0
SCALE
  5
4E
102
{ACAD_REACTORS
330
42
102
}
330
42
100
AcDbScale
 70
     0
300
3/4" = 1'-0"
140
0.75
141
12.0
290
     0
  0
SCALE
  5
4F
102
{ACAD_REACTORS
330
42
102
}
330
42
100
AcDbScale
 70
     0
300
1" = 1'-0"
140
1.0
141
12.0
290
     0
  0
SCALE
  5
50
102
{ACAD_REACTORS
330
42
102
}
330
42
100
AcDbScale
 70
     0
300
1-1/2" = 1'-0"
140
1.5
141
12.0
290
     0
  0
SCALE
  5
51
102
{ACAD_REACTORS
330
42
102
}
330
42
100
AcDbScale
 70
     0
300
3" = 1'-0"
140
3.0
141
12.0
290
     0
  0
SCALE
  5
52
102
{ACAD_REACTORS
330
42
102
}
330
42
100
AcDbScale
 70
     0
300
6" = 1'-0"
140
6.0
141
12.0
290
     0
  0
SCALE
  5
53
102
{ACAD_REACTORS
330
42
102
}
330
42
100
AcDbScale
 70
     0
300
1'-0" = 1'-0"
140
12.0
141
12.0
290
     0
  0
ACDBSECTIONVIEWSTYLE
  5
69
102
{ACAD_REACTORS
330
68
102
}
330
68
100
AcDbModelDocViewStyle
 70
     0
  3
Imperial24
290
     1
300
Imperial24
 90
        0
100
AcDbSectionViewStyle
 70
     0
 71
     0
 90
       78
 71
     1
340
55
 62
   256
 40
0.24
340
0
340
0
 62
   256
 40
0.24
300
I, O, Q, S, X, Z
 40
0.48
 90
        3
 40
0.18
 90
        1
 71
     2
340
5D
 90
       25
 62
   256
340
5D
 90
       50
 62
   256
 40
0.24
 40
0.0
 40
0.24
 71
     3
340
55
 62
   256
 40
0.24
 90
        1
 40
0.75
 90
        1
300
%<\AcVar ViewType \f "%tc1">% %<\AcVar ViewSectionStartId>%-%<\AcVar ViewSectionEndId>%\PSCALE %<\AcVar ViewScale \f "%sn">%
 71
     4
 62
   256
 62
   257
300
ANSI31
 40
1.0
 90
        0
290
     0
290
     0
 90
        6
 40
0.0
 40
1.570796326794896
 40
0.2617993877991494
 40
1.308996938995747
 40
-0.2617993877991494
 40
1.832595714594046
  0
TABLESTYLE
  5
65
102
{ACAD_XDICTIONARY
360
272
102
}
102
{ACAD_REACTORS
330
64
102
}
330
64
100
AcDbTableStyle
280
     0
  3
Standard
 70
     0
 71
     0
 40
0.06
 41
0.06
280
     0
281
     0
  7
Standard
140
0.18
170
     2
 62
     0
 63
     7
283
     0
 90
      512
 91
        0
  1

274
    -2
284
     1
 64
     0
275
    -2
285
     1
 65
     0
276
    -2
286
     1
 66
     0
277
    -2
287
     1
 67
     0
278
    -2
288
     1
 68
     0
279
    -2
289
     1
 69
     0
  7
Standard
140
0.25
170
     5
 62
     0
 63
     7
283
     0
 90
      512
 91
        0
  1

274
    -2
284
     1
 64
     0
275
    -2
285
     1
 65
     0
276
    -2
286
     1
 66
     0
277
    -2
287
     1
 67
     0
278
    -2
288
     1
 68
     0
279
    -2
289
     1
 69
     0
  7
Standard
140
0.18
170
     5
 62
     0
 63
     7
283
     0
 90
      512
 91
        0
  1

274
    -2
284
     1
 64
     0
275
    -2
285
     1
 65
     0
276
    -2
286
     1
 66
     0
277
    -2
287
     1
 67
     0
278
    -2
288
     1
 68
     0
279
    -2
289
     1
 69
     0
  0
VISUALSTYLE
  5
2F
102
{ACAD_REACTORS
330
29
102
}
330
29
100
AcDbVisualStyle
  2
2dWireframe
 70
     4
177
     3
291
     0
 70
    58
 90
        0
176
     1
 90
        2
176
     1
 90
        0
176
     1
 90
        0
176
     1
 40
0.6
176
     1
 40
30.0
176
     1
 62
     7
420
 16777215
176
     1
 90
        1
176
     1
 90
        4
176
     1
 62
     7
176
     1
 62
   257
176
     1
 90
        1
176
     1
 90
        1
176
     1
 40
1.0
176
     1
 90
        0
176
     1
 62
   257
176
     1
 40
1.0
176
     1
 90
        1
176
     1
 90
        6
176
     1
 90
        2
176
     1
 62
     7
176
     1
 90
        5
176
     1
 90
        0
176
     1
 90
        0
176
     1
290
     0
176
     1
 90
        1
176
     1
 40
0.0
176
     1
 90
        0
176
     1
290
     1
176
     1
290
     1
176
     1
290
     0
176
     1
290
     0
176
     1
290
     0
176
     1
290
     0
176
     1
290
     0
176
     1
290
     0
176
     1
290
     0
176
     1
 90
       50
176
     1
 40
0.0
176
     1
 40
1.0
176
     1
 90
        0
176
     1
 62
    18
420
        0
176
     1
 90
       50
176
     1
 90
        3
176
     1
 62
     5
420
      255
176
     1
290
     0
176
     1
 90
       50
176
     1
 90
       50
176
     1
 90
       50
176
     1
290
     0
176
     1
 90
       50
176
     1
 62
   256
176
     0
 40
1.0
176
     0
 90
        2
176
     1
  1
strokes_ogs.tif
176
     1
290
     0
176
     1
 40
1.0
176
     1
 40
1.0
176
     1
  0
VISUALSTYLE
  5
2E
102
{ACAD_REACTORS
330
29
102
}
330
29
100
AcDbVisualStyle
  2
Basic
 70
     7
177
     3
291
     1
 70
    58
 90
        1
176
     1
 90
        0
176
     1
 90
        1
176
     1
 90
        0
176
     1
 40
0.6
176
     1
 40
30.0
176
     1
 62
     7
420
 16777215
176
     1
 90
        0
176
     1
 90
        4
176
     1
 62
     7
176
     1
 62
   257
176
     1
 90
        1
176
     1
 90
        1
176
     1
 40
1.0
176
     1
 90
        8
176
     1
 62
     7
176
     1
 40
1.0
176
     1
 90
        1
176
     1
 90
        6
176
     1
 90
        2
176
     1
 62
     7
176
     1
 90
        5
176
     1
 90
        0
176
     1
 90
        0
176
     1
290
     0
176
     1
 90
        1
176
     1
 40
0.0
176
     1
 90
        0
176
     1
290
     0
176
     1
290
     1
176
     1
290
     1
176
     1
290
     0
176
     1
290
     0
176
     1
290
     0
176
     1
290
     0
176
     1
290
     0
176
     1
290
     0
176
     1
 90
       50
176
     1
 40
0.0
176
     1
 40
1.0
176
     1
 90
        0
176
     1
 62
    18
420
        0
176
     1
 90
       50
176
     1
 90
        3
176
     1
 62
     5
420
      255
176
     1
290
     0
176
     1
 90
       50
176
     1
 90
       50
176
     1
 90
       50
176
     1
290
     0
176
     1
 90
       50
176
     1
 62
   256
176
     0
 40
1.0
176
     0
 90
        2
176
     1
  1
strokes_ogs.tif
176
     1
290
     0
176
     1
 40
1.0
176
     1
 40
1.0
176
     1
  0
VISUALSTYLE
  5
35
102
{ACAD_REACTORS
330
29
102
}
330
29
100
AcDbVisualStyle
  2
Brighten
 70
    12
177
     3
291
     1
 70
    58
 90
        2
176
     1
 90
        2
176
     1
 90
        0
176
     1
 90
        0
176
     1
 40
0.6
176
     1
 40
30.0
176
     1
 62
     7
420
 16777215
176
     1
 90
        1
176
     1
 90
        4
176
     1
 62
     7
176
     1
 62
   257
176
     1
 90
        1
176
     1
 90
        1
176
     1
 40
1.0
176
     1
 90
        8
176
     1
 62
     7
176
     1
 40
1.0
176
     1
 90
        1
176
     1
 90
        6
176
     1
 90
        2
176
     1
 62
     7
176
     1
 90
        5
176
     1
 90
        0
176
     1
 90
        0
176
     1
290
     0
176
     1
 90
        1
176
     1
 40
50.0
176
     1
 90
        0
176
     1
290
     0
176
     1
290
     1
176
     1
290
     1
176
     1
290
     0
176
     1
290
     0
176
     1
290
     0
176
     1
290
     0
176
     1
290
     0
176
     1
290
     0
176
     1
 90
       50
176
     1
 40
0.0
176
     1
 40
1.0
176
     1
 90
        0
176
     1
 62
    18
420
        0
176
     1
 90
       50
176
     1
 90
        3
176
     1
 62
     5
420
      255
176
     1
290
     0
176
     1
 90
       50
176
     1
 90
       50
176
     1
 90
       50
176
     1
290
     0
176
     1
 90
       50
176
     1
 62
   256
176
     0
 40
1.0
176
     0
 90
        2
176
     1
  1
strokes_ogs.tif
176
     1
290
     0
176
     1
 40
1.0
176
     1
 40
1.0
176
     1
  0
VISUALSTYLE
  5
39
102
{ACAD_REACTORS
330
29
102
}
330
29
100
AcDbVisualStyle
  2
ColorChange
 70
    16
177
     3
291
     1
 70
    58
 90
        2
176
     1
 90
        2
176
     1
 90
        3
176
     1
 90
        0
176
     1
 40
0.6
176
     1
 40
30.0
176
     1
 62
     8
420
  8421504
176
     1
 90
        1
176
     1
 90
        4
176
     1
 62
     7
176
     1
 62
   257
176
     1
 90
        1
176
     1
 90
        1
176
     1
 40
1.0
176
     1
 90
        8
176
     1
 62
     8
420
  8421504
176
     1
 40
1.0
176
     1
 90
        1
176
     1
 90
        6
176
     1
 90
        2
176
     1
 62
     7
176
     1
 90
        5
176
     1
 90
        0
176
     1
 90
        0
176
     1
290
     0
176
     1
 90
        1
176
     1
 40
0.0
176
     1
 90
        0
176
     1
290
     0
176
     1
290
     1
176
     1
290
     1
176
     1
290
     0
176
     1
290
     0
176
     1
290
     0
176
     1
290
     0
176
     1
290
     0
176
     1
290
     0
176
     1
 90
       50
176
     1
 40
0.0
176
     1
 40
1.0
176
     1
 90
        0
176
     1
 62
    18
420
        0
176
     1
 90
       50
176
     1
 90
        3
176
     1
 62
     5
420
      255
176
     1
290
     0
176
     1
 90
       50
176
     1
 90
       50
176
     1
 90
       50
176
     1
290
     0
176
     1
 90
       50
176
     1
 62
   256
176
     0
 40
1.0
176
     0
 90
        2
176
     1
  1
strokes_ogs.tif
176
     1
290
     0
176
     1
 40
1.0
176
     1
 40
1.0
176
     1
  0
VISUALSTYLE
  5
32
102
{ACAD_REACTORS
330
29
102
}
330
29
100
AcDbVisualStyle
  2
Conceptual
 70
     9
177
     3
291
     0
 70
    58
 90
        3
176
     1
 90
        2
176
     1
 90
        0
176
     1
 90
        0
176
     1
 40
0.6
176
     1
 40
30.0
176
     1
 62
     7
420
 16777215
176
     1
 90
        2
176
     1
 90
        2
176
     1
 62
     7
176
     1
 62
   257
176
     1
 90
        1
176
     1
 90
        1
176
     1
 40
179.0
176
     1
 90
        8
176
     1
 62
     7
176
     1
 40
1.0
176
     1
 90
        1
176
     1
 90
        6
176
     1
 90
        2
176
     1
 62
     7
176
     1
 90
        3
176
     1
 90
        0
176
     1
 90
        0
176
     1
290
     0
176
     1
 90
        1
176
     1
 40
0.0
176
     1
 90
        0
176
     1
290
     0
176
     1
290
     1
176
     1
290
     1
176
     1
290
     0
176
     1
290
     0
176
     1
290
     0
176
     1
290
     0
176
     1
290
     0
176
     1
290
     0
176
     1
 90
       50
176
     1
 40
0.0
176
     1
 40
1.0
176
     1
 90
        0
176
     1
 62
    18
420
        0
176
     1
 90
       50
176
     1
 90
        3
176
     1
 62
     5
420
      255
176
     1
290
     0
176
     1
 90
       50
176
     1
 90
       50
176
     1
 90
       50
176
     1
290
     0
176
     1
 90
       50
176
     1
 62
   256
176
     0
 40
1.0
176
     0
 90
        2
176
     1
  1
strokes_ogs.tif
176
     1
290
     0
176
     1
 40
1.0
176
     1
 40
1.0
176
     1
  0
VISUALSTYLE
  5
34
102
{ACAD_REACTORS
330
29
102
}
330
29
100
AcDbVisualStyle
  2
Dim
 70
    11
177
     3
291
     1
 70
    58
 90
        2
176
     1
 90
        2
176
     1
 90
        0
176
     1
 90
        0
176
     1
 40
0.6
176
     1
 40
30.0
176
     1
 62
     7
420
 16777215
176
     1
 90
        1
176
     1
 90
        4
176
     1
 62
     7
176
     1
 62
   257
176
     1
 90
        1
176
     1
 90
        1
176
     1
 40
1.0
176
     1
 90
        8
176
     1
 62
     7
176
     1
 40
1.0
176
     1
 90
        1
176
     1
 90
        6
176
     1
 90
        2
176
     1
 62
     7
176
     1
 90
        5
176
     1
 90
        0
176
     1
 90
        0
176
     1
290
     0
176
     1
 90
        1
176
     1
 40
-50.0
176
     1
 90
        0
176
     1
290
     0
176
     1
290
     1
176
     1
290
     1
176
     1
290
     0
176
     1
290
     0
176
     1
290
     0
176
     1
290
     0
176
     1
290
     0
176
     1
290
     0
176
     1
 90
       50
176
     1
 40
0.0
176
     1
 40
1.0
176
     1
 90
        0
176
     1
 62
    18
420
        0
176
     1
 90
       50
176
     1
 90
        3
176
     1
 62
     5
420
      255
176
     1
290
     0
176
     1
 90
       50
176
     1
 90
       50
176
     1
 90
       50
176
     1
290
     0
176
     1
 90
       50
176
     1
 62
   256
176
     0
 40
1.0
176
     0
 90
        2
176
     1
  1
strokes_ogs.tif
176
     1
290
     0
176
     1
 40
1.0
176
     1
 40
1.0
176
     1
  0
VISUALSTYLE
  5
41
102
{ACAD_REACTORS
330
29
102
}
330
29
100
AcDbVisualStyle
  2
EdgeColorOff
 70
    22
177
     3
291
     1
 70
    58
 90
        2
176
     0
 90
        2
176
     0
 90
        0
176
     0
 90
        0
176
     0
 40
0.6
176
     0
 40
30.0
176
     0
 62
     7
420
 16777215
176
     0
 90
        1
176
     0
 90
        4
176
     0
 62
     7
176
     0
 62
   257
176
     0
 90
        1
176
     0
 90
        1
176
     0
 40
1.0
176
     0
 90
        8
176
     2
 62
     7
176
     0
 40
1.0
176
     0
 90
        1
176
     0
 90
        6
176
     0
 90
        2
176
     0
 62
     7
176
     0
 90
        5
176
     0
 90
        0
176
     0
 90
        0
176
     0
290
     0
176
     0
 90
        1
176
     0
 40
0.0
176
     0
 90
        0
176
     0
290
     0
176
     0
290
     1
176
     0
290
     1
176
     0
290
     0
176
     0
290
     0
176
     0
290
     0
176
     0
290
     0
176
     0
290
     0
176
     0
290
     0
176
     0
 90
       50
176
     0
 40
0.0
176
     0
 40
1.0
176
     0
 90
        0
176
     0
 62
    18
420
        0
176
     0
 90
       50
176
     0
 90
        3
176
     0
 62
     5
420
      255
176
     0
290
     0
176
     0
 90
       50
176
     0
 90
       50
176
     0
 90
       50
176
     0
290
     0
176
     0
 90
       50
176
     0
 62
   256
176
     0
 40
1.0
176
     0
 90
        2
176
     0
  1
strokes_ogs.tif
176
     0
290
     0
176
     0
 40
1.0
176
     0
 40
1.0
176
     0
  0
VISUALSTYLE
  5
38
102
{ACAD_REACTORS
330
29
102
}
330
29
100
AcDbVisualStyle
  2
Facepattern
 70
    15
177
     3
291
     1
 70
    58
 90
        2
176
     1
 90
        2
176
     1
 90
        0
176
     1
 90
        0
176
     1
 40
0.6
176
     1
 40
30.0
176
     1
 62
     7
420
 16777215
176
     1
 90
        1
176
     1
 90
        4
176
     1
 62
     7
176
     1
 62
   257
176
     1
 90
        1
176
     1
 90
        1
176
     1
 40
1.0
176
     1
 90
        8
176
     1
 62
     7
176
     1
 40
1.0
176
     1
 90
        1
176
     1
 90
        6
176
     1
 90
        2
176
     1
 62
     7
176
     1
 90
        5
176
     1
 90
        0
176
     1
 90
        0
176
     1
290
     0
176
     1
 90
        1
176
     1
 40
0.0
176
     1
 90
        0
176
     1
290
     0
176
     1
290
     1
176
     1
290
     1
176
     1
290
     0
176
     1
290
     0
176
     1
290
     0
176
     1
290
     0
176
     1
290
     0
176
     1
290
     0
176
     1
 90
       50
176
     1
 40
0.0
176
     1
 40
1.0
176
     1
 90
        0
176
     1
 62
    18
420
        0
176
     1
 90
       50
176
     1
 90
        3
176
     1
 62
     5
420
      255
176
     1
290
     0
176
     1
 90
       50
176
     1
 90
       50
176
     1
 90
       50
176
     1
290
     0
176
     1
 90
       50
176
     1
 62
   256
176
     0
 40
1.0
176
     0
 90
        2
176
     1
  1
strokes_ogs.tif
176
     1
290
     0
176
     1
 40
1.0
176
     1
 40
1.0
176
     1
  0
VISUALSTYLE
  5
2A
102
{ACAD_REACTORS
330
29
102
}
330
29
100
AcDbVisualStyle
  2
Flat
 70
     0
177
     3
291
     1
 70
    58
 90
        2
176
     1
 90
        1
176
     1
 90
        1
176
     1
 90
        2
176
     1
 40
0.6
176
     1
 40
30.0
176
     1
 62
     7
420
 16777215
176
     1
 90
        0
176
     1
 90
        0
176
     1
 62
     7
176
     1
 62
   257
176
     1
 90
        1
176
     1
 90
        1
176
     1
 40
1.0
176
     1
 90
        8
176
     1
 62
     7
176
     1
 40
1.0
176
     1
 90
        1
176
     1
 90
        6
176
     1
 90
        2
176
     1
 62
     7
176
     1
 90
        5
176
     1
 90
        0
176
     1
 90
        0
176
     1
290
     0
176
     1
 90
       13
176
     1
 40
0.0
176
     1
 90
        0
176
     1
290
     0
176
     1
290
     1
176
     1
290
     1
176
     1
290
     0
176
     1
290
     0
176
     1
290
     0
176
     1
290
     0
176
     1
290
     0
176
     1
290
     0
176
     1
 90
       50
176
     1
 40
0.0
176
     1
 40
1.0
176
     1
 90
        0
176
     1
 62
    18
420
        0
176
     1
 90
       50
176
     1
 90
        3
176
     1
 62
     5
420
      255
176
     1
290
     0
176
     1
 90
       50
176
     1
 90
       50
176
     1
 90
       50
176
     1
290
     0
176
     1
 90
       50
176
     1
 62
   256
176
     0
 40
1.0
176
     0
 90
        2
176
     1
  1
strokes_ogs.tif
176
     1
290
     0
176
     1
 40
1.0
176
     1
 40
1.0
176
     1
  0
VISUALSTYLE
  5
2B
102
{ACAD_REACTORS
330
29
102
}
330
29
100
AcDbVisualStyle
  2
FlatWithEdges
 70
     1
177
     3
291
     1
 70
    58
 90
        2
176
     1
 90
        1
176
     1
 90
        1
176
     1
 90
        2
176
     1
 40
0.6
176
     1
 40
30.0
176
     1
 62
     7
420
 16777215
176
     1
 90
        1
176
     1
 90
        0
176
     1
 62
     7
176
     1
 62
   257
176
     1
 90
        1
176
     1
 90
        1
176
     1
 40
1.0
176
     1
 90
        0
176
     1
 62
   257
176
     1
 40
1.0
176
     1
 90
        1
176
     1
 90
        6
176
     1
 90
        2
176
     1
 62
     7
176
     1
 90
        5
176
     1
 90
        0
176
     1
 90
        0
176
     1
290
     0
176
     1
 90
       13
176
     1
 40
0.0
176
     1
 90
        0
176
     1
290
     0
176
     1
290
     1
176
     1
290
     1
176
     1
290
     0
176
     1
290
     0
176
     1
290
     0
176
     1
290
     0
176
     1
290
     0
176
     1
290
     0
176
     1
 90
       50
176
     1
 40
0.0
176
     1
 40
1.0
176
     1
 90
        0
176
     1
 62
    18
420
        0
176
     1
 90
       50
176
     1
 90
        3
176
     1
 62
     5
420
      255
176
     1
290
     0
176
     1
 90
       50
176
     1
 90
       50
176
     1
 90
       50
176
     1
290
     0
176
     1
 90
       50
176
     1
 62
   256
176
     0
 40
1.0
176
     0
 90
        2
176
     1
  1
strokes_ogs.tif
176
     1
290
     0
176
     1
 40
1.0
176
     1
 40
1.0
176
     1
  0
VISUALSTYLE
  5
2C
102
{ACAD_REACTORS
330
29
102
}
330
29
100
AcDbVisualStyle
  2
Gouraud
 70
     2
177
     3
291
     1
 70
    58
 90
        2
176
     1
 90
        2
176
     1
 90
        1
176
     1
 90
        2
176
     1
 40
0.6
176
     1
 40
30.0
176
     1
 62
     7
420
 16777215
176
     1
 90
        0
176
     1
 90
        0
176
     1
 62
     7
176
     1
 62
   257
176
     1
 90
        1
176
     1
 90
        1
176
     1
 40
1.0
176
     1
 90
        0
176
     1
 62
     7
176
     1
 40
1.0
176
     1
 90
        1
176
     1
 90
        6
176
     1
 90
        2
176
     1
 62
     7
176
     1
 90
        5
176
     1
 90
        0
176
     1
 90
        0
176
     1
290
     0
176
     1
 90
       13
176
     1
 40
0.0
176
     1
 90
        0
176
     1
290
     0
176
     1
290
     1
176
     1
290
     1
176
     1
290
     0
176
     1
290
     0
176
     1
290
     0
176
     1
290
     0
176
     1
290
     0
176
     1
290
     0
176
     1
 90
       50
176
     1
 40
0.0
176
     1
 40
1.0
176
     1
 90
        0
176
     1
 62
    18
420
        0
176
     1
 90
       50
176
     1
 90
        3
176
     1
 62
     5
420
      255
176
     1
290
     0
176
     1
 90
       50
176
     1
 90
       50
176
     1
 90
       50
176
     1
290
     0
176
     1
 90
       50
176
     1
 62
   256
176
     0
 40
1.0
176
     0
 90
        2
176
     1
  1
strokes_ogs.tif
176
     1
290
     0
176
     1
 40
1.0
176
     1
 40
1.0
176
     1
  0
VISUALSTYLE
  5
2D
102
{ACAD_REACTORS
330
29
102
}
330
29
100
AcDbVisualStyle
  2
GouraudWithEdges
 70
     3
177
     3
291
     1
 70
    58
 90
        2
176
     1
 90
        2
176
     1
 90
        1
176
     1
 90
        2
176
     1
 40
0.6
176
     1
 40
30.0
176
     1
 62
     7
420
 16777215
176
     1
 90
        1
176
     1
 90
        0
176
     1
 62
     7
176
     1
 62
   257
176
     1
 90
        1
176
     1
 90
        1
176
     1
 40
1.0
176
     1
 90
        0
176
     1
 62
   257
176
     1
 40
1.0
176
     1
 90
        1
176
     1
 90
        6
176
     1
 90
        2
176
     1
 62
     7
176
     1
 90
        5
176
     1
 90
        0
176
     1
 90
        0
176
     1
290
     0
176
     1
 90
       13
176
     1
 40
0.0
176
     1
 90
        0
176
     1
290
     0
176
     1
290
     1
176
     1
290
     1
176
     1
290
     0
176
     1
290
     0
176
     1
290
     0
176
     1
290
     0
176
     1
290
     0
176
     1
290
     0
176
     1
 90
       50
176
     1
 40
0.0
176
     1
 40
1.0
176
     1
 90
        0
176
     1
 62
    18
420
        0
176
     1
 90
       50
176
     1
 90
        3
176
     1
 62
     5
420
      255
176
     1
290
     0
176
     1
 90
       50
176
     1
 90
       50
176
     1
 90
       50
176
     1
290
     0
176
     1
 90
       50
176
     1
 62
   256
176
     0
 40
1.0
176
     0
 90
        2
176
     1
  1
strokes_ogs.tif
176
     1
290
     0
176
     1
 40
1.0
176
     1
 40
1.0
176
     1
  0
VISUALSTYLE
  5
31
102
{ACAD_REACTORS
330
29
102
}
330
29
100
AcDbVisualStyle
  2
Hidden
 70
     6
177
     3
291
     0
 70
    58
 90
        1
176
     1
 90
        2
176
     1
 90
        2
176
     1
 90
        0
176
     1
 40
0.6
176
     1
 40
30.0
176
     1
 62
     7
420
 16777215
176
     1
 90
        2
176
     1
 90
        2
176
     1
 62
     7
176
     1
 62
   257
176
     1
 90
        2
176
     1
 90
        1
176
     1
 40
40.0
176
     1
 90
        0
176
     1
 62
   257
176
     1
 40
1.0
176
     1
 90
        1
176
     1
 90
        6
176
     1
 90
        2
176
     1
 62
     7
176
     1
 90
        3
176
     1
 90
        0
176
     1
 90
        0
176
     1
290
     0
176
     1
 90
        1
176
     1
 40
0.0
176
     1
 90
        0
176
     1
290
     0
176
     1
290
     1
176
     1
290
     1
176
     1
290
     0
176
     1
290
     0
176
     1
290
     0
176
     1
290
     0
176
     1
290
     0
176
     1
290
     0
176
     1
 90
       50
176
     1
 40
0.0
176
     1
 40
1.0
176
     1
 90
        0
176
     1
 62
    18
420
        0
176
     1
 90
       50
176
     1
 90
        3
176
     1
 62
     5
420
      255
176
     1
290
     0
176
     1
 90
       50
176
     1
 90
       50
176
     1
 90
       50
176
     1
290
     0
176
     1
 90
       50
176
     1
 62
   256
176
     0
 40
1.0
176
     0
 90
        2
176
     1
  1
strokes_ogs.tif
176
     1
290
     0
176
     1
 40
1.0
176
     1
 40
1.0
176
     1
  0
VISUALSTYLE
  5
3F
102
{ACAD_REACTORS
330
29
102
}
330
29
100
AcDbVisualStyle
  2
JitterOff
 70
    20
177
     3
291
     1
 70
    58
 90
        2
176
     0
 90
        2
176
     0
 90
        0
176
     0
 90
        0
176
     0
 40
0.6
176
     0
 40
30.0
176
     0
 62
     7
420
 16777215
176
     0
 90
        1
176
     0
 90
        4
176
     0
 62
     7
176
     0
 62
   257
176
     0
 90
        1
176
     0
 90
        1
176
     0
 40
1.0
176
     0
 90
       10
176
     2
 62
     7
176
     0
 40
1.0
176
     0
 90
        1
176
     0
 90
        6
176
     0
 90
        2
176
     0
 62
     7
176
     0
 90
        5
176
     0
 90
        0
176
     0
 90
        0
176
     0
290
     0
176
     0
 90
        1
176
     0
 40
0.0
176
     0
 90
        0
176
     0
290
     0
176
     0
290
     1
176
     0
290
     1
176
     0
290
     0
176
     0
290
     0
176
     0
290
     0
176
     0
290
     0
176
     0
290
     0
176
     0
290
     0
176
     0
 90
       50
176
     0
 40
0.0
176
     0
 40
1.0
176
     0
 90
        0
176
     0
 62
    18
420
        0
176
     0
 90
       50
176
     0
 90
        3
176
     0
 62
     5
420
      255
176
     0
290
     0
176
     0
 90
       50
176
     0
 90
       50
176
     0
 90
       50
176
     0
290
     0
176
     0
 90
       50
176
     0
 62
   256
176
     0
 40
1.0
176
     0
 90
        2
176
     0
  1
strokes_ogs.tif
176
     0
290
     0
176
     0
 40
1.0
176
     0
 40
1.0
176
     0
  0
VISUALSTYLE
  5
37
102
{ACAD_REACTORS
330
29
102
}
330
29
100
AcDbVisualStyle
  2
Linepattern
 70
    14
177
     3
291
     1
 70
    58
 90
        2
176
     1
 90
        2
176
     1
 90
        0
176
     1
 90
        0
176
     1
 40
0.6
176
     1
 40
30.0
176
     1
 62
     7
420
 16777215
176
     1
 90
        1
176
     1
 90
        4
176
     1
 62
     7
176
     1
 62
   257
176
     1
 90
        7
176
     1
 90
        7
176
     1
 40
1.0
176
     1
 90
        8
176
     1
 62
     7
176
     1
 40
1.0
176
     1
 90
        1
176
     1
 90
        6
176
     1
 90
        2
176
     1
 62
     7
176
     1
 90
        5
176
     1
 90
        0
176
     1
 90
        0
176
     1
290
     0
176
     1
 90
        1
176
     1
 40
0.0
176
     1
 90
        0
176
     1
290
     0
176
     1
290
     1
176
     1
290
     1
176
     1
290
     0
176
     1
290
     0
176
     1
290
     0
176
     1
290
     0
176
     1
290
     0
176
     1
290
     0
176
     1
 90
       50
176
     1
 40
0.0
176
     1
 40
1.0
176
     1
 90
        0
176
     1
 62
    18
420
        0
176
     1
 90
       50
176
     1
 90
        3
176
     1
 62
     5
420
      255
176
     1
290
     0
176
     1
 90
       50
176
     1
 90
       50
176
     1
 90
       50
176
     1
290
     0
176
     1
 90
       50
176
     1
 62
   256
176
     0
 40
1.0
176
     0
 90
        2
176
     1
  1
strokes_ogs.tif
176
     1
290
     0
176
     1
 40
1.0
176
     1
 40
1.0
176
     1
  0
VISUALSTYLE
  5
40
102
{ACAD_REACTORS
330
29
102
}
330
29
100
AcDbVisualStyle
  2
OverhangOff
 70
    21
177
     3
291
     1
 70
    58
 90
        2
176
     0
 90
        2
176
     0
 90
        0
176
     0
 90
        0
176
     0
 40
0.6
176
     0
 40
30.0
176
     0
 62
     7
420
 16777215
176
     0
 90
        1
176
     0
 90
        4
176
     0
 62
     7
176
     0
 62
   257
176
     0
 90
        1
176
     0
 90
        1
176
     0
 40
1.0
176
     0
 90
        9
176
     2
 62
     7
176
     0
 40
1.0
176
     0
 90
        1
176
     0
 90
        6
176
     0
 90
        2
176
     0
 62
     7
176
     0
 90
        5
176
     0
 90
        0
176
     0
 90
        0
176
     0
290
     0
176
     0
 90
        1
176
     0
 40
0.0
176
     0
 90
        0
176
     0
290
     0
176
     0
290
     1
176
     0
290
     1
176
     0
290
     0
176
     0
290
     0
176
     0
290
     0
176
     0
290
     0
176
     0
290
     0
176
     0
290
     0
176
     0
 90
       50
176
     0
 40
0.0
176
     0
 40
1.0
176
     0
 90
        0
176
     0
 62
    18
420
        0
176
     0
 90
       50
176
     0
 90
        3
176
     0
 62
     5
420
      255
176
     0
290
     0
176
     0
 90
       50
176
     0
 90
       50
176
     0
 90
       50
176
     0
290
     0
176
     0
 90
       50
176
     0
 62
   256
176
     0
 40
1.0
176
     0
 90
        2
176
     0
  1
strokes_ogs.tif
176
     0
290
     0
176
     0
 40
1.0
176
     0
 40
1.0
176
     0
  0
VISUALSTYLE
  5
33
102
{ACAD_REACTORS
330
29
102
}
330
29
100
AcDbVisualStyle
  2
Realistic
 70
     8
177
     3
291
     0
 70
    58
 90
        2
176
     1
 90
        3
176
     1
 90
        0
176
     1
 90
        2
176
     1
 40
0.6
176
     1
 40
30.0
176
     1
 62
     7
420
 16777215
176
     1
 90
        0
176
     1
 90
        0
176
     1
 62
     7
176
     1
 62
   257
176
     1
 90
        1
176
     1
 90
        1
176
     1
 40
1.0
176
     1
 90
        8
176
     1
 62
   257
176
     1
 40
1.0
176
     1
 90
        1
176
     1
 90
        6
176
     1
 90
        2
176
     1
 62
     7
176
     1
 90
        3
176
     1
 90
        0
176
     1
 90
        0
176
     1
290
     0
176
     1
 90
       13
176
     1
 40
0.0
176
     1
 90
        0
176
     1
290
     0
176
     1
290
     1
176
     1
290
     1
176
     1
290
     0
176
     1
290
     0
176
     1
290
     0
176
     1
290
     0
176
     1
290
     0
176
     1
290
     0
176
     1
 90
       50
176
     1
 40
0.0
176
     1
 40
1.0
176
     1
 90
        0
176
     1
 62
    18
420
        0
176
     1
 90
       50
176
     1
 90
        3
176
     1
 62
     5
420
      255
176
     1
290
     0
176
     1
 90
       50
176
     1
 90
       50
176
     1
 90
       50
176
     1
290
     0
176
     1
 90
       50
176
     1
 62
   256
176
     0
 40
1.0
176
     0
 90
        2
176
     1
  1
strokes_ogs.tif
176
     1
290
     0
176
     1
 40
1.0
176
     1
 40
1.0
176
     1
  0
VISUALSTYLE
  5
3E
102
{ACAD_REACTORS
330
29
102
}
330
29
100
AcDbVisualStyle
  2
Shaded
 70
    27
177
     3
291
     0
 70
    58
 90
        2
176
     1
 90
        2
176
     1
 90
        1
176
     1
 90
        2
176
     1
 40
0.6
176
     1
 40
30.0
176
     1
 62
     7
420
 16777215
176
     1
 90
        0
176
     1
 90
        4
176
     1
 62
     7
176
     1
 62
   257
176
     1
 90
        1
176
     1
 90
        1
176
     1
 40
1.0
176
     1
 90
        8
176
     1
 62
   257
176
     1
 40
1.0
176
     1
 90
        1
176
     1
 90
        6
176
     1
 90
        2
176
     1
 62
     8
420
  7895160
176
     1
 90
        3
176
     1
 90
        0
176
     1
 90
        0
176
     1
290
     0
176
     1
 90
        5
176
     1
 40
0.0
176
     1
 90
        0
176
     1
290
     0
176
     1
290
     1
176
     1
290
     1
176
     1
290
     0
176
     1
290
     0
176
     1
290
     0
176
     1
290
     0
176
     1
290
     0
176
     1
290
     0
176
     1
 90
       50
176
     1
 40
0.0
176
     1
 40
1.0
176
     1
 90
        0
176
     1
 62
    18
420
        0
176
     1
 90
       50
176
     1
 90
        3
176
     1
 62
     5
420
      255
176
     1
290
     0
176
     1
 90
       50
176
     1
 90
       50
176
     1
 90
       50
176
     1
290
     0
176
     1
 90
       50
176
     1
 62
   256
176
     0
 40
1.0
176
     0
 90
        2
176
     1
  1
strokes_ogs.tif
176
     1
290
     0
176
     1
 40
1.0
176
     1
 40
1.0
176
     1
  0
VISUALSTYLE
  5
3D
102
{ACAD_REACTORS
330
29
102
}
330
29
100
AcDbVisualStyle
  2
Shaded with edges
 70
    26
177
     3
291
     0
 70
    58
 90
        2
176
     1
 90
        2
176
     1
 90
        1
176
     1
 90
        2
176
     1
 40
0.6
176
     1
 40
30.0
176
     1
 62
     7
420
 16777215
176
     1
 90
        1
176
     1
 90
        2
176
     1
 62
     7
176
     1
 62
   257
176
     1
 90
        2
176
     1
 90
        1
176
     1
 40
1.0
176
     1
 90
        8
176
     1
 62
   257
176
     1
 40
1.0
176
     1
 90
        1
176
     1
 90
        6
176
     1
 90
        2
176
     1
 62
     7
176
     1
 90
        3
176
     1
 90
        0
176
     1
 90
        0
176
     1
290
     0
176
     1
 90
        5
176
     1
 40
0.0
176
     1
 90
        0
176
     1
290
     0
176
     1
290
     1
176
     1
290
     1
176
     1
290
     0
176
     1
290
     0
176
     1
290
     0
176
     1
290
     0
176
     1
290
     0
176
     1
290
     0
176
     1
 90
       50
176
     1
 40
0.0
176
     1
 40
1.0
176
     1
 90
        0
176
     1
 62
    18
420
        0
176
     1
 90
       50
176
     1
 90
        3
176
     1
 62
     5
420
      255
176
     1
290
     0
176
     1
 90
       50
176
     1
 90
       50
176
     1
 90
       50
176
     1
290
     0
176
     1
 90
       50
176
     1
 62
   256
176
     0
 40
1.0
176
     0
 90
        2
176
     1
  1
strokes_ogs.tif
176
     1
290
     0
176
     1
 40
1.0
176
     1
 40
1.0
176
     1
  0
VISUALSTYLE
  5
3A
102
{ACAD_REACTORS
330
29
102
}
330
29
100
AcDbVisualStyle
  2
Shades of Gray
 70
    23
177
     3
291
     0
 70
    58
 90
        2
176
     1
 90
        2
176
     1
 90
        3
176
     1
 90
        0
176
     1
 40
0.6
176
     1
 40
30.0
176
     1
 62
     7
420
 16777215
176
     1
 90
        2
176
     1
 90
        2
176
     1
 62
     7
176
     1
 62
     7
176
     1
 90
        1
176
     1
 90
        1
176
     1
 40
40.0
176
     1
 90
        8
176
     1
 62
     7
176
     1
 40
1.0
176
     1
 90
        1
176
     1
 90
        6
176
     1
 90
        2
176
     1
 62
     7
176
     1
 90
        3
176
     1
 90
        0
176
     1
 90
        0
176
     1
290
     0
176
     1
 90
        1
176
     1
 40
0.0
176
     1
 90
        0
176
     1
290
     0
176
     1
290
     1
176
     1
290
     1
176
     1
290
     0
176
     1
290
     0
176
     1
290
     0
176
     1
290
     0
176
     1
290
     0
176
     1
290
     0
176
     1
 90
       50
176
     1
 40
0.0
176
     1
 40
1.0
176
     1
 90
        0
176
     1
 62
    18
420
        0
176
     1
 90
       50
176
     1
 90
        3
176
     1
 62
     5
420
      255
176
     1
290
     0
176
     1
 90
       50
176
     1
 90
       50
176
     1
 90
       50
176
     1
290
     0
176
     1
 90
       50
176
     1
 62
   256
176
     0
 40
1.0
176
     0
 90
        2
176
     1
  1
strokes_ogs.tif
176
     1
290
     0
176
     1
 40
1.0
176
     1
 40
1.0
176
     1
  0
VISUALSTYLE
  5
3B
102
{ACAD_REACTORS
330
29
102
}
330
29
100
AcDbVisualStyle
  2
Sketchy
 70
    24
177
     3
291
     0
 70
    58
 90
        1
176
     1
 90
        2
176
     1
 90
        2
176
     1
 90
        0
176
     1
 40
0.6
176
     1
 40
30.0
176
     1
 62
     7
420
 16777215
176
     1
 90
        2
176
     1
 90
        2
176
     1
 62
     7
176
     1
 62
     7
176
     1
 90
        1
176
     1
 90
        1
176
     1
 40
40.0
176
     1
 90
       11
176
     1
 62
     7
176
     1
 40
1.0
176
     1
 90
        1
176
     1
 90
        6
176
     1
 90
        2
176
     1
 62
     7
176
     1
 90
        6
176
     1
 90
        0
176
     1
 90
        0
176
     1
290
     0
176
     1
 90
        1
176
     1
 40
0.0
176
     1
 90
        0
176
     1
290
     0
176
     1
290
     1
176
     1
290
     1
176
     1
290
     0
176
     1
290
     0
176
     1
290
     0
176
     1
290
     0
176
     1
290
     0
176
     1
290
     0
176
     1
 90
       50
176
     1
 40
0.0
176
     1
 40
1.0
176
     1
 90
        0
176
     1
 62
    18
420
        0
176
     1
 90
       50
176
     1
 90
        3
176
     1
 62
     5
420
      255
176
     1
290
     0
176
     1
 90
       50
176
     1
 90
       50
176
     1
 90
       50
176
     1
290
     0
176
     1
 90
       50
176
     1
 62
   256
176
     0
 40
1.0
176
     0
 90
        2
176
     1
  1
strokes_ogs.tif
176
     1
290
     0
176
     1
 40
1.0
176
     1
 40
1.0
176
     1
  0
VISUALSTYLE
  5
36
102
{ACAD_REACTORS
330
29
102
}
330
29
100
AcDbVisualStyle
  2
Thicken
 70
    13
177
     3
291
     1
 70
    58
 90
        2
176
     1
 90
        2
176
     1
 90
        0
176
     1
 90
        0
176
     1
 40
0.6
176
     1
 40
30.0
176
     1
 62
     7
420
 16777215
176
     1
 90
        1
176
     1
 90
        4
176
     1
 62
     7
176
     1
 62
   257
176
     1
 90
        1
176
     1
 90
        1
176
     1
 40
1.0
176
     1
 90
       12
176
     1
 62
     7
176
     1
 40
1.0
176
     1
 90
        1
176
     1
 90
        6
176
     1
 90
        2
176
     1
 62
     7
176
     1
 90
        5
176
     1
 90
        0
176
     1
 90
        0
176
     1
290
     0
176
     1
 90
        1
176
     1
 40
0.0
176
     1
 90
        0
176
     1
290
     0
176
     1
290
     1
176
     1
290
     1
176
     1
290
     0
176
     1
290
     0
176
     1
290
     0
176
     1
290
     0
176
     1
290
     0
176
     1
290
     0
176
     1
 90
       50
176
     1
 40
0.0
176
     1
 40
1.0
176
     1
 90
        0
176
     1
 62
    18
420
        0
176
     1
 90
       50
176
     1
 90
        3
176
     1
 62
     5
420
      255
176
     1
290
     0
176
     1
 90
       50
176
     1
 90
       50
176
     1
 90
       50
176
     1
290
     0
176
     1
 90
       50
176
     1
 62
   256
176
     0
 40
1.0
176
     0
 90
        2
176
     1
  1
strokes_ogs.tif
176
     1
290
     0
176
     1
 40
1.0
176
     1
 40
1.0
176
     1
  0
VISUALSTYLE
  5
30
102
{ACAD_REACTORS
330
29
102
}
330
29
100
AcDbVisualStyle
  2
Wireframe
 70
     5
177
     3
291
     0
 70
    58
 90
        0
176
     1
 90
        2
176
     1
 90
        0
176
     1
 90
        0
176
     1
 40
0.6
176
     1
 40
30.0
176
     1
 62
     7
420
 16777215
176
     1
 90
        1
176
     1
 90
        4
176
     1
 62
     7
176
     1
 62
   257
176
     1
 90
        1
176
     1
 90
        1
176
     1
 40
1.0
176
     1
 90
        0
176
     1
 62
   257
176
     1
 40
1.0
176
     1
 90
        1
176
     1
 90
        6
176
     1
 90
        2
176
     1
 62
     7
176
     1
 90
        3
176
     1
 90
        0
176
     1
 90
        0
176
     1
290
     0
176
     1
 90
        1
176
     1
 40
0.0
176
     1
 90
        0
176
     1
290
     0
176
     1
290
     1
176
     1
290
     1
176
     1
290
     0
176
     1
290
     0
176
     1
290
     0
176
     1
290
     0
176
     1
290
     0
176
     1
290
     0
176
     1
 90
       50
176
     1
 40
0.0
176
     1
 40
1.0
176
     1
 90
        0
176
     1
 62
    18
420
        0
176
     1
 90
       50
176
     1
 90
        3
176
     1
 62
     5
420
      255
176
     1
290
     0
176
     1
 90
       50
176
     1
 90
       50
176
     1
 90
       50
176
     1
290
     0
176
     1
 90
       50
176
     1
 62
   256
176
     0
 40
1.0
176
     0
 90
        2
176
     1
  1
strokes_ogs.tif
176
     1
290
     0
176
     1
 40
1.0
176
     1
 40
1.0
176
     1
  0
VISUALSTYLE
  5
3C
102
{ACAD_REACTORS
330
29
102
}
330
29
100
AcDbVisualStyle
  2
X-Ray
 70
    25
177
     3
291
     0
 70
    58
 90
        2
176
     1
 90
        2
176
     1
 90
        1
176
     1
 90
        1
176
     1
 40
0.5
176
     1
 40
30.0
176
     1
 62
     7
420
 16777215
176
     1
 90
        1
176
     1
 90
        0
176
     1
 62
     7
176
     1
 62
   257
176
     1
 90
        1
176
     1
 90
        1
176
     1
 40
1.0
176
     1
 90
        8
176
     1
 62
     7
176
     1
 40
1.0
176
     1
 90
        1
176
     1
 90
        6
176
     1
 90
        2
176
     1
 62
     7
176
     1
 90
        3
176
     1
 90
        0
176
     1
 90
        0
176
     1
290
     0
176
     1
 90
       13
176
     1
 40
0.0
176
     1
 90
        0
176
     1
290
     0
176
     1
290
     1
176
     1
290
     1
176
     1
290
     0
176
     1
290
     0
176
     1
290
     0
176
     1
290
     0
176
     1
290
     0
176
     1
290
     0
176
     1
 90
       50
176
     1
 40
0.0
176
     1
 40
1.0
176
     1
 90
        0
176
     1
 62
    18
420
        0
176
     1
 90
       50
176
     1
 90
        3
176
     1
 62
     5
420
      255
176
     1
290
     0
176
     1
 90
       50
176
     1
 90
       50
176
     1
 90
       50
176
     1
290
     0
176
     1
 90
       50
176
     1
 62
   256
176
     0
 40
1.0
176
     0
 90
        2
176
     1
  1
strokes_ogs.tif
176
     1
290
     0
176
     1
 40
1.0
176
     1
 40
1.0
176
     1
  0
DICTIONARYVAR
  5
80
102
{ACAD_REACTORS
330
7B
102
}
330
7B
100
DictionaryVariables
280
     0
  1
1:1
  0
DICTIONARYVAR
  5
7D
102
{ACAD_REACTORS
330
7B
102
}
330
7B
100
DictionaryVariables
280
     0
  1
STANDARD
  0
DICTIONARYVAR
  5
7C
102
{ACAD_REACTORS
330
7B
102
}
330
7B
100
DictionaryVariables
280
     0
  1
STANDARD
  0
DICTIONARYVAR
  5
7E
102
{ACAD_REACTORS
330
7B
102
}
330
7B
100
DictionaryVariables
280
     0
  1
Imperial24
  0
DICTIONARYVAR
  5
7F
102
{ACAD_REACTORS
330
7B
102
}
330
7B
100
DictionaryVariables
280
     0
  1
Imperial24
  0
XRECORD
  5
26F
102
{ACAD_REACTORS
330
268
102
}
330
268
100
AcDbXrecord
280
     1
  1
BUILDING_ID
  1
686001_HCMFP_PerkinsLibrary_A25_2
  1
FLOOR_ID
  1
5190002
  0
XRECORD
  5
26D
102
{ACAD_REACTORS
330
268
102
}
330
268
100
AcDbXrecord
280
     1
  1
-2000011
  1
Walls
  1
-2000023
  1
Doors
  1
-2000120
  1
Stairs
  1
-2000126
  1
Railings
  1
-2000170
  1
Curtain Panels
  1
-2000171
  1
Curtain Wall Mullions
  1
-2000829
  1
Room Polylines
  0
XRECORD
  5
269
102
{ACAD_REACTORS
330
268
102
}
330
268
100
AcDbXrecord
280
     1
  1
1c49a13f-87cc-4c65-af54-9b3f3942aaa7
  0
XRECORD
  5
26E
102
{ACAD_REACTORS
330
268
102
}
330
268
100
AcDbXrecord
280
     1
  1
-2000025
  1
Panel
  1
-2000029
  1
Frame/Mullion
  1
-2000128
  1
Rails
  1
-2000932
  1
Nosing Lines
  1
-2000934
  1
Outlines
  1
-2000952
  1
Supports
  1
636535
  1
Plan Swing
  0
XRECORD
  5
26C
102
{ACAD_REACTORS
330
268
102
}
330
268
100
AcDbXrecord
280
     1
  1
1969
  1
Railing : Railing 1
  1
4450563
  1
Door-Single(CE) : HM Door-2" HM Frame
  1
44989
  1
Assembled Stair : 7" max riser 11" tread
  1
639165
  1
Basic Wall : *Generic - 5" : *Generic - 5"
  1
645966
  1
System Panel : zGlazed
  1
646104
  1
Rectangular Mullion : 4 1/2" x 2" Rectangular(CE)
  0
DICTIONARY
  5
1A
330
19
100
AcDbDictionary
280
     1
281
     1
  3
BUMPTILE
360
1C
  3
DIFFUSETILE
360
1B
  3
OPACITYTILE
360
1F
  3
REFLECTIONTILE
360
1E
  3
REFRACTIONTILE
360
20
  3
SPECULARTILE
360
1D
  0
DICTIONARY
  5
12
330
11
100
AcDbDictionary
280
     1
281
     1
  3
BUMPTILE
360
14
  3
DIFFUSETILE
360
13
  3
OPACITYTILE
360
17
  3
REFLECTIONTILE
360
16
  3
REFRACTIONTILE
360
18
  3
SPECULARTILE
360
15
  0
DICTIONARY
  5
22
330
21
100
AcDbDictionary
280
     1
281
     1
  3
BUMPTILE
360
24
  3
DIFFUSETILE
360
23
  3
OPACITYTILE
360
27
  3
REFLECTIONTILE
360
26
  3
REFRACTIONTILE
360
28
  3
SPECULARTILE
360
25
  0
DICTIONARY
  5
272
330
65
100
AcDbDictionary
280
     1
281
     1
  3
ACAD_ROUNDTRIP_2008_TABLESTYLE_CELLSTYLEMAP
360
273
  0
XRECORD
  5
1C
102
{ACAD_REACTORS
330
1A
102
}
330
1A
100
AcDbXrecord
280
     1
270
     1
271
     1
  0
XRECORD
  5
1B
102
{ACAD_REACTORS
330
1A
102
}
330
1A
100
AcDbXrecord
280
     1
270
     1
271
     1
  0
XRECORD
  5
1F
102
{ACAD_REACTORS
330
1A
102
}
330
1A
100
AcDbXrecord
280
     1
270
     1
271
     1
  0
XRECORD
  5
1E
102
{ACAD_REACTORS
330
1A
102
}
330
1A
100
AcDbXrecord
280
     1
270
     1
271
     1
  0
XRECORD
  5
20
102
{ACAD_REACTORS
330
1A
102
}
330
1A
100
AcDbXrecord
280
     1
270
     1
271
     1
  0
XRECORD
  5
1D
102
{ACAD_REACTORS
330
1A
102
}
330
1A
100
AcDbXrecord
280
     1
270
     1
271
     1
  0
XRECORD
  5
14
102
{ACAD_REACTORS
330
12
102
}
330
12
100
AcDbXrecord
280
     1
270
     1
271
     1
  0
XRECORD
  5
13
102
{ACAD_REACTORS
330
12
102
}
330
12
100
AcDbXrecord
280
     1
270
     1
271
     1
  0
XRECORD
  5
17
102
{ACAD_REACTORS
330
12
102
}
330
12
100
AcDbXrecord
280
     1
270
     1
271
     1
  0
XRECORD
  5
16
102
{ACAD_REACTORS
330
12
102
}
330
12
100
AcDbXrecord
280
     1
270
     1
271
     1
  0
XRECORD
  5
18
102
{ACAD_REACTORS
330
12
102
}
330
12
100
AcDbXrecord
280
     1
270
     1
271
     1
  0
XRECORD
  5
15
102
{ACAD_REACTORS
330
12
102
}
330
12
100
AcDbXrecord
280
     1
270
     1
271
     1
  0
XRECORD
  5
24
102
{ACAD_REACTORS
330
22
102
}
330
22
100
AcDbXrecord
280
     1
270
     1
271
     1
  0
XRECORD
  5
23
102
{ACAD_REACTORS
330
22
102
}
330
22
100
AcDbXrecord
280
     1
270
     1
271
     1
  0
XRECORD
  5
27
102
{ACAD_REACTORS
330
22
102
}
330
22
100
AcDbXrecord
280
     1
270
     1
271
     1
  0
XRECORD
  5
26
102
{ACAD_REACTORS
330
22
102
}
330
22
100
AcDbXrecord
280
     1
270
     1
271
     1
  0
XRECORD
  5
28
102
{ACAD_REACTORS
330
22
102
}
330
22
100
AcDbXrecord
280
     1
270
     1
271
     1
  0
XRECORD
  5
25
102
{ACAD_REACTORS
330
22
102
}
330
22
100
AcDbXrecord
280
     1
270
     1
271
     1
  0
CELLSTYLEMAP
  5
273
102
{ACAD_REACTORS
330
272
102
}
330
272
100
AcDbCellStyleMap
 90
        3
300
CELLSTYLE
  1
TABLEFORMAT_BEGIN
 90
        5
170
     1
 91
        0
 92
    32768
 62
   257
 93
        1
300
CONTENTFORMAT
  1
CONTENTFORMAT_BEGIN
 90
        0
 91
        0
 92
      512
 93
        0
300

 40
0.0
140
1.0
 94
        5
 62
     0
340
55
144
0.25
309
CONTENTFORMAT_END
171
     0
 94
        0
309
TABLEFORMAT_END
  1
CELLSTYLE_BEGIN
 90
        1
 91
        1
300
_TITLE
309
CELLSTYLE_END
300
CELLSTYLE
  1
TABLEFORMAT_BEGIN
 90
        5
170
     1
 91
        0
 92
        0
 62
   257
 93
        1
300
CONTENTFORMAT
  1
CONTENTFORMAT_BEGIN
 90
        0
 91
        0
 92
      512
 93
        0
300

 40
0.0
140
1.0
 94
        5
 62
     0
340
55
144
0.18
309
CONTENTFORMAT_END
171
     0
 94
        0
309
TABLEFORMAT_END
  1
CELLSTYLE_BEGIN
 90
        2
 91
        1
300
_HEADER
309
CELLSTYLE_END
300
CELLSTYLE
  1
TABLEFORMAT_BEGIN
 90
        5
170
     1
 91
        0
 92
        0
 62
   257
 93
        1
300
CONTENTFORMAT
  1
CONTENTFORMAT_BEGIN
 90
        0
 91
        0
 92
      512
 93
        0
300

 40
0.0
140
1.0
 94
        2
 62
     0
340
55
144
0.18
309
CONTENTFORMAT_END
171
     0
 94
        0
309
TABLEFORMAT_END
  1
CELLSTYLE_BEGIN
 90
        3
 91
        2
300
_DATA
309
CELLSTYLE_END
  0
ENDSEC
  0
EOF
