  0
SECTION
  2
HEADER
  9
$ACADVER
  1
AC1032
  9
$ACADMAINTVER
 90
      321
  9
$DWGCODEPAGE
  3
ANSI_1252
  9
$REQUIREDVERSIONS
160
                 0
  9
$INSBASE
 10
0.0
 20
0.0
 30
0.0
  9
$EXTMIN
 10
-1042.429244811242
 20
-1063.902171494699
 30
0.0
  9
$EXTMAX
 10
-485.9292448112456
 20
128.0978285053012
 30
0.0
  9
$LIMMIN
 10
0.0
 20
0.0
  9
$LIMMAX
 10
12.0
 20
9.0
  9
$ORTHOMODE
 70
     0
  9
$REGENMODE
 70
     1
  9
$FILLMODE
 70
     1
  9
$QTEXTMODE
 70
     0
  9
$MIRRTEXT
 70
     0
  9
$LTSCALE
 40
1.0
  9
$ATTMODE
 70
     1
  9
$TEXTSIZE
 40
0.2
  9
$TRACEWID
 40
0.05
  9
$TEXTSTYLE
  7
Standard
  9
$CLAYER
  8
0
  9
$CELTYPE
  6
ByLayer
  9
$CECOLOR
 62
   256
  9
$CELTSCALE
 40
1.0
  9
$DISPSILH
 70
     0
  9
$DIMSCALE
 40
1.0
  9
$DIMASZ
 40
0.18
  9
$DIMEXO
 40
0.0625
  9
$DIMDLI
 40
0.38
  9
$DIMRND
 40
0.0
  9
$DIMDLE
 40
0.0
  9
$DIMEXE
 40
0.18
  9
$DIMTP
 40
0.0
  9
$DIMTM
 40
0.0
  9
$DIMTXT
 40
0.18
  9
$DIMCEN
 40
0.09
  9
$DIMTSZ
 40
0.0
  9
$DIMTOL
 70
     0
  9
$DIMLIM
 70
     0
  9
$DIMTIH
 70
     1
  9
$DIMTOH
 70
     1
  9
$DIMSE1
 70
     0
  9
$DIMSE2
 70
     0
  9
$DIMTAD
 70
     0
  9
$DIMZIN
 70
     0
  9
$DIMBLK
  1

  9
$DIMASO
 70
     1
  9
$DIMSHO
 70
     1
  9
$DIMPOST
  1

  9
$DIMAPOST
  1

  9
$DIMALT
 70
     0
  9
$DIMALTD
 70
     2
  9
$DIMALTF
 40
25.4
  9
$DIMLFAC
 40
1.0
  9
$DIMTOFL
 70
     0
  9
$DIMTVP
 40
0.0
  9
$DIMTIX
 70
     0
  9
$DIMSOXD
 70
     0
  9
$DIMSAH
 70
     0
  9
$DIMBLK1
  1

  9
$DIMBLK2
  1

  9
$DIMSTYLE
  2
Standard
  9
$DIMCLRD
 70
     0
  9
$DIMCLRE
 70
     0
  9
$DIMCLRT
 70
     0
  9
$DIMTFAC
 40
1.0
  9
$DIMGAP
 40
0.09
  9
$DIMJUST
 70
     0
  9
$DIMSD1
 70
     0
  9
$DIMSD2
 70
     0
  9
$DIMTOLJ
 70
     1
  9
$DIMTZIN
 70
     0
  9
$DIMALTZ
 70
     0
  9
$DIMALTTZ
 70
     0
  9
$DIMUPT
 70
     0
  9
$DIMDEC
 70
     4
  9
$DIMTDEC
 70
     4
  9
$DIMALTU
 70
     4
  9
$DIMALTTD
 70
     2
  9
$DIMTXSTY
  7
Standard
  9
$DIMAUNIT
 70
     0
  9
$DIMADEC
 70
     0
  9
$DIMALTRND
 40
0.0
  9
$DIMAZIN
 70
     0
  9
$DIMDSEP
 70
    46
  9
$DIMATFIT
 70
     3
  9
$DIMFRAC
 70
     0
  9
$DIMLDRBLK
  1

  9
$DIMLUNIT
 70
     4
  9
$DIMLWD
 70
    -2
  9
$DIMLWE
 70
    -2
  9
$DIMTMOVE
 70
     0
  9
$DIMFXL
 40
1.0
  9
$DIMFXLON
 70
     0
  9
$DIMJOGANG
 40
0.7853981633974483
  9
$DIMTFILL
 70
     0
  9
$DIMTFILLCLR
 70
     0
  9
$DIMARCSYM
 70
     0
  9
$DIMLTYPE
  6

  9
$DIMLTEX1
  6

  9
$DIMLTEX2
  6

  9
$DIMTXTDIRECTION
 70
     0
  9
$LUNITS
 70
     4
  9
$LUPREC
 70
     4
  9
$SKETCHINC
 40
0.1
  9
$FILLETRAD
 40
0.0
  9
$AUNITS
 70
     0
  9
$AUPREC
 70
     0
  9
$MENU
  1
.
  9
$ELEVATION
 40
0.0
  9
$PELEVATION
 40
0.0
  9
$THICKNESS
 40
0.0
  9
$LIMCHECK
 70
     0
  9
$CHAMFERA
 40
0.0
  9
$CHAMFERB
 40
0.0
  9
$CHAMFERC
 40
0.0
  9
$CHAMFERD
 40
0.0
  9
$SKPOLY
 70
     0
  9
$TDCREATE
 40
2461071.435428241
  9
$TDUCREATE
 40
2461071.685428241
  9
$TDUPDATE
 40
2461071.435428241
  9
$TDUUPDATE
 40
2461071.685428241
  9
$TDINDWG
 40
0.0000000000
  9
$TDUSRTIMER
 40
0.0000000000
  9
$USRTIMER
 70
     1
  9
$ANGBASE
 50
0.0
  9
$ANGDIR
 70
     0
  9
$PDMODE
 70
     0
  9
$PDSIZE
 40
0.0
  9
$PLINEWID
 40
0.0
  9
$SPLFRAME
 70
     0
  9
$SPLINETYPE
 70
     6
  9
$SPLINESEGS
 70
     8
  9
$HANDSEED
  5
1BA
  9
$SURFTAB1
 70
     6
  9
$SURFTAB2
 70
     6
  9
$SURFTYPE
 70
     6
  9
$SURFU
 70
     6
  9
$SURFV
 70
     6
  9
$UCSBASE
  2

  9
$UCSNAME
  2

  9
$UCSORG
 10
0.0
 20
0.0
 30
0.0
  9
$UCSXDIR
 10
1.0
 20
0.0
 30
0.0
  9
$UCSYDIR
 10
0.0
 20
1.0
 30
0.0
  9
$UCSORTHOREF
  2

  9
$UCSORTHOVIEW
 70
     0
  9
$UCSORGTOP
 10
0.0
 20
0.0
 30
0.0
  9
$UCSORGBOTTOM
 10
0.0
 20
0.0
 30
0.0
  9
$UCSORGLEFT
 10
0.0
 20
0.0
 30
0.0
  9
$UCSORGRIGHT
 10
0.0
 20
0.0
 30
0.0
  9
$UCSORGFRONT
 10
0.0
 20
0.0
 30
0.0
  9
$UCSORGBACK
 10
0.0
 20
0.0
 30
0.0
  9
$PUCSBASE
  2

  9
$PUCSNAME
  2

  9
$PUCSORG
 10
0.0
 20
0.0
 30
0.0
  9
$PUCSXDIR
 10
1.0
 20
0.0
 30
0.0
  9
$PUCSYDIR
 10
0.0
 20
1.0
 30
0.0
  9
$PUCSORTHOREF
  2

  9
$PUCSORTHOVIEW
 70
     0
  9
$PUCSORGTOP
 10
0.0
 20
0.0
 30
0.0
  9
$PUCSORGBOTTOM
 10
0.0
 20
0.0
 30
0.0
  9
$PUCSORGLEFT
 10
0.0
 20
0.0
 30
0.0
  9
$PUCSORGRIGHT
 10
0.0
 20
0.0
 30
0.0
  9
$PUCSORGFRONT
 10
0.0
 20
0.0
 30
0.0
  9
$PUCSORGBACK
 10
0.0
 20
0.0
 30
0.0
  9
$USERI1
 70
     0
  9
$USERI2
 70
     0
  9
$USERI3
 70
     0
  9
$USERI4
 70
     0
  9
$USERI5
 70
     0
  9
$USERR1
 40
0.0
  9
$USERR2
 40
0.0
  9
$USERR3
 40
0.0
  9
$USERR4
 40
0.0
  9
$USERR5
 40
0.0
  9
$WORLDVIEW
 70
     1
  9
$SHADEDGE
 70
     3
  9
$SHADEDIF
 70
    70
  9
$TILEMODE
 70
     1
  9
$MAXACTVP
 70
    64
  9
$PINSBASE
 10
0.0
 20
0.0
 30
0.0
  9
$PLIMCHECK
 70
     0
  9
$PEXTMIN
 10
1.000000000000000E+20
 20
1.000000000000000E+20
 30
1.000000000000000E+20
  9
$PEXTMAX
 10
-1.000000000000000E+20
 20
-1.000000000000000E+20
 30
-1.000000000000000E+20
  9
$PLIMMIN
 10
0.0
 20
0.0
  9
$PLIMMAX
 10
12.0
 20
9.0
  9
$UNITMODE
 70
     0
  9
$VISRETAIN
 70
     1
  9
$PLINEGEN
 70
     0
  9
$PSLTSCALE
 70
     0
  9
$TREEDEPTH
 70
  3020
  9
$CMLSTYLE
  2
Standard
  9
$CMLJUST
 70
     0
  9
$CMLSCALE
 40
1.0
  9
$PROXYGRAPHICS
 70
     1
  9
$MEASUREMENT
 70
     0
  9
$CELWEIGHT
370
    -1
  9
$ENDCAPS
280
     0
  9
$JOINSTYLE
280
     0
  9
$LWDISPLAY
290
     0
  9
$INSUNITS
 70
     1
  9
$HYPERLINKBASE
  1

  9
$STYLESHEET
  1

  9
$XEDIT
290
     1
  9
$CEPSNTYPE
380
     0
  9
$PSTYLEMODE
290
     1
  9
$FINGERPRINTGUID
  2
{0CB3DE28-D402-CF43-AC61-1D7933902791}
  9
$VERSIONGUID
  2
{365A9712-72EF-2348-A6E8-5012E009AFDA}
  9
$EXTNAMES
290
     1
  9
$PSVPSCALE
 40
0.0
  9
$OLESTARTUP
290
     0
  9
$SORTENTS
280
   127
  9
$INDEXCTL
280
     0
  9
$HIDETEXT
280
     1
  9
$XCLIPFRAME
280
     2
  9
$HALOGAP
280
     0
  9
$OBSCOLOR
 70
   257
  9
$OBSLTYPE
280
     0
  9
$INTERSECTIONDISPLAY
280
     0
  9
$INTERSECTIONCOLOR
 70
   257
  9
$DIMASSOC
280
     2
  9
$PROJECTNAME
  1

  9
$CAMERADISPLAY
290
     0
  9
$LENSLENGTH
 40
50.0
  9
$CAMERAHEIGHT
 40
0.0
  9
$STEPSPERSEC
 40
2.0
  9
$STEPSIZE
 40
6.0
  9
$3DDWFPREC
 40
2.0
  9
$PSOLWIDTH
 40
0.25
  9
$PSOLHEIGHT
 40
4.0
  9
$LOFTANG1
 40
1.570796326794896
  9
$LOFTANG2
 40
1.570796326794896
  9
$LOFTMAG1
 40
0.0
  9
$LOFTMAG2
 40
0.0
  9
$LOFTPARAM
 70
     7
  9
$LOFTNORMALS
280
     1
  9
$LATITUDE
 40
37.795
  9
$LONGITUDE
 40
-122.394
  9
$NORTHDIRECTION
 40
0.0
  9
$TIMEZONE
 70
 -8000
  9
$LIGHTGLYPHDISPLAY
280
     1
  9
$TILEMODELIGHTSYNCH
280
     1
  9
$CMATERIAL
347
11
  9
$SOLIDHIST
280
     0
  9
$SHOWHIST
280
     1
  9
$DWFFRAME
280
     2
  9
$DGNFRAME
280
     0
  9
$REALWORLDSCALE
290
     1
  9
$INTERFERECOLOR
 62
     1
  9
$INTERFEREOBJVS
345
33
  9
$INTERFEREVPVS
346
30
  9
$CSHADOW
280
     0
  9
$SHADOWPLANELOCATION
 40
0.0
  0
ENDSEC
  0
SECTION
  2
CLASSES
  0
CLASS
  1
ACDBDICTIONARYWDFLT
  2
AcDbDictionaryWithDefault
  3
ObjectDBX Classes
 90
        0
 91
        1
280
     0
281
     0
  0
CLASS
  1
MATERIAL
  2
AcDbMaterial
  3
ObjectDBX Classes
 90
     1153
 91
        3
280
     0
281
     0
  0
CLASS
  1
VISUALSTYLE
  2
AcDbVisualStyle
  3
ObjectDBX Classes
 90
     4095
 91
       24
280
     0
281
     0
  0
CLASS
  1
SCALE
  2
AcDbScale
  3
ObjectDBX Classes
 90
     1153
 91
       17
280
     0
281
     0
  0
CLASS
  1
TABLESTYLE
  2
AcDbTableStyle
  3
ObjectDBX Classes
 90
     4095
 91
        1
280
     0
281
     0
  0
CLASS
  1
MLEADERSTYLE
  2
AcDbMLeaderStyle
  3
ACDB_MLEADERSTYLE_CLASS
 90
     4095
 91
        1
280
     0
281
     0
  0
CLASS
  1
ACDBSECTIONVIEWSTYLE
  2
AcDbSectionViewStyle
  3
ObjectDBX Classes
 90
     1025
 91
        1
280
     0
281
     0
  0
CLASS
  1
ACDBDETAILVIEWSTYLE
  2
AcDbDetailViewStyle
  3
ObjectDBX Classes
 90
     1025
 91
        1
280
     0
281
     0
  0
CLASS
  1
RASTERVARIABLES
  2
AcDbRasterVariables
  3
ISM
 90
        0
 91
        1
280
     0
281
     0
  0
CLASS
  1
DICTIONARYVAR
  2
AcDbDictionaryVar
  3
ObjectDBX Classes
 90
        0
 91
        5
280
     0
281
     0
  0
CLASS
  1
CELLSTYLEMAP
  2
AcDbCellStyleMap
  3
ObjectDBX Classes
 90
     1152
 91
        2
280
     0
281
     0
  0
CLASS
  1
SORTENTSTABLE
  2
AcDbSortentsTable
  3
ObjectDBX Classes
 90
        0
 91
        1
280
     0
281
     0
  0
ENDSEC
  0
SECTION
  2
TABLES
  0
TABLE
  2
VPORT
  5
8
330
0
100
AcDbSymbolTable
 70
     1
  0
VPORT
  5
57
330
8
100
AcDbSymbolTableRecord
100
AcDbViewportTableRecord
  2
*Active
 70
     0
 10
0.0
 20
0.0
 11
1.0
 21
1.0
 12
-764.1792448112438
 22
-467.9021714946991
 13
0.0
 23
0.0
 14
1.0
 24
1.0
 15
0.0
 25
0.0
 16
0.0
 26
0.0
 36
1.0
 17
0.0
 27
0.0
 37
0.0
 40
1192.000000000001
 41
0.4668624161073795
 42
50.0
 43
0.0
 44
0.0
 50
0.0
 51
0.0
 71
     0
 72
  1000
 73
     1
 74
     1
 75
     0
 76
     0
 77
     0
 78
     0
281
     0
 65
     1
110
0.0
120
0.0
130
0.0
111
1.0
121
0.0
131
0.0
112
0.0
122
1.0
132
0.0
 79
     0
146
0.0
 60
     3
 61
     5
292
     1
282
     1
141
0.0
142
0.0
 63
   250
421
  3355443
  0
ENDTAB
  0
TABLE
  2
LTYPE
  5
5
330
0
100
AcDbSymbolTable
 70
     1
  0
LTYPE
  5
5B
330
5
100
AcDbSymbolTableRecord
100
AcDbLinetypeTableRecord
  2
ByBlock
 70
     0
  3

 72
    65
 73
     0
 40
0.0
  0
LTYPE
  5
5C
330
5
100
AcDbSymbolTableRecord
100
AcDbLinetypeTableRecord
  2
ByLayer
 70
     0
  3

 72
    65
 73
     0
 40
0.0
  0
LTYPE
  5
5D
330
5
100
AcDbSymbolTableRecord
100
AcDbLinetypeTableRecord
  2
Continuous
 70
     0
  3
Solid line
 72
    65
 73
     0
 40
0.0
  0
ENDTAB
  0
TABLE
  2
LAYER
  5
2
330
0
100
AcDbSymbolTable
 70
     9
  0
LAYER
  5
54
330
2
100
AcDbSymbolTableRecord
100
AcDbLayerTableRecord
  2
0
 70
     0
 62
     7
  6
Continuous
370
    -3
390
F
347
21
348
0
  0
LAYER
  5
84
330
2
100
AcDbSymbolTableRecord
100
AcDbLayerTableRecord
  2
A-WALL
 70
     0
 62
   113
  6
Continuous
370
    15
390
F
347
21
348
0
  0
LAYER
  5
85
330
2
100
AcDbSymbolTableRecord
100
AcDbLayerTableRecord
  2
I-WALL
 70
     0
 62
     2
  6
Continuous
370
    15
390
F
347
21
348
0
  0
LAYER
  5
86
330
2
100
AcDbSymbolTableRecord
100
AcDbLayerTableRecord
  2
A-DOOR
 70
     0
 62
    31
  6
Continuous
370
    15
390
F
347
21
348
0
  0
LAYER
  5
87
330
2
100
AcDbSymbolTableRecord
100
AcDbLayerTableRecord
  2
S-STRS
 70
     0
 62
    31
  6
Continuous
370
     9
390
F
347
21
348
0
  0
LAYER
  5
88
330
2
100
AcDbSymbolTableRecord
100
AcDbLayerTableRecord
  2
A-FLOR-HRAL
 70
     0
 62
    11
  6
Continuous
370
     9
390
F
347
21
348
0
  0
LAYER
  5
104
330
2
100
AcDbSymbolTableRecord
100
AcDbLayerTableRecord
  2
A-DOOR-FRAM
 70
     0
 62
    31
  6
Continuous
370
    25
390
F
347
21
348
0
  0
LAYER
  5
1A6
330
2
100
AcDbSymbolTableRecord
100
AcDbLayerTableRecord
  2
A-AREA-BNDY
 70
     0
 62
    -1
  6
Continuous
370
     9
390
F
347
21
348
0
  0
ENDTAB
  0
TABLE
  2
STYLE
  5
3
330
0
100
AcDbSymbolTable
 70
     2
  0
STYLE
  5
55
330
3
100
AcDbSymbolTableRecord
100
AcDbTextStyleTableRecord
  2
Standard
 70
     0
 40
0.0
 41
1.0
 50
0.0
 71
     0
 42
0.2
  3
txt
  4

  0
STYLE
  5
5A
330
3
100
AcDbSymbolTableRecord
100
AcDbTextStyleTableRecord
  2
Annotative
 70
     0
 40
0.0
 41
1.0
 50
0.0
 71
     0
 42
0.2
  3
txt
  4

1001
AcadAnnotative
1000
AnnotativeData
1002
{
1070
     1
1070
     1
1002
}
  0
ENDTAB
  0
TABLE
  2
VIEW
  5
6
330
0
100
AcDbSymbolTable
 70
     0
  0
ENDTAB
  0
TABLE
  2
UCS
  5
7
330
0
100
AcDbSymbolTable
 70
     2
  0
UCS
  5
1AF
330
7
100
AcDbSymbolTableRecord
100
AcDbUCSTableRecord
  2
REVIT60-Internal
 70
     0
 10
0.0
 20
0.0
 30
0.0
 11
0.0000000000000018
 21
1.0
 31
0.0
 12
-1.0
 22
0.0000000000000018
 32
0.0
 79
     0
146
0.0
  0
UCS
  5
1B0
330
7
100
AcDbSymbolTableRecord
100
AcDbUCSTableRecord
  2
REVIT60-Default Site
 70
     0
 10
0.0000000000020464
 20
0.0
 30
-1200.0
 11
0.0000000000000018
 21
1.0
 31
0.0
 12
-1.0
 22
0.0000000000000018
 32
0.0
 79
     0
146
0.0
  0
ENDTAB
  0
TABLE
  2
APPID
  5
9
330
0
100
AcDbSymbolTable
 70
     3
  0
APPID
  5
56
330
9
100
AcDbSymbolTableRecord
100
AcDbRegAppTableRecord
  2
ACAD
 70
     0
  0
APPID
  5
5E
330
9
100
AcDbSymbolTableRecord
100
AcDbRegAppTableRecord
  2
AcadAnnotative
 70
     0
  0
APPID
  5
78
330
9
100
AcDbSymbolTableRecord
100
AcDbRegAppTableRecord
  2
REVIT
 70
     0
  0
ENDTAB
  0
TABLE
  2
DIMSTYLE
  5
A
330
0
100
AcDbSymbolTable
 70
     2
100
AcDbDimStyleTable
 71
     0
  0
DIMSTYLE
105
58
330
A
100
AcDbSymbolTableRecord
100
AcDbDimStyleTableRecord
  2
Standard
 70
     0
340
55
  0
DIMSTYLE
105
59
330
A
100
AcDbSymbolTableRecord
100
AcDbDimStyleTableRecord
  2
Annotative
 70
     0
340
55
1001
AcadAnnotative
1000
AnnotativeData
1002
{
1070
     1
1070
     1
1002
}
  0
ENDTAB
  0
TABLE
  2
BLOCK_RECORD
  5
1
330
0
100
AcDbSymbolTable
 70
     7
  0
BLOCK_RECORD
  5
70
102
{ACAD_XDICTIONARY
360
1B5
102
}
330
1
100
AcDbSymbolTableRecord
100
AcDbBlockTableRecord
  2
*Model_Space
340
73
 70
     0
280
     1
281
     0
  0
BLOCK_RECORD
  5
6C
330
1
100
AcDbSymbolTableRecord
100
AcDbBlockTableRecord
  2
*Paper_Space
340
6F
 70
     0
280
     1
281
     0
  0
BLOCK_RECORD
  5
74
330
1
100
AcDbSymbolTableRecord
100
AcDbBlockTableRecord
  2
*Paper_Space0
340
77
 70
     0
280
     1
281
     0
  0
BLOCK_RECORD
  5
FD
330
1
100
AcDbSymbolTableRecord
100
AcDbBlockTableRecord
  2
Door-Single_CE_ - HM Door-2_ HM Frame-5129110-BASEMENT Map Export
340
0
102
{BLKREFS
331
11D
331
1A0
102
}
 70
     0
280
     1
281
     0
  0
BLOCK_RECORD
  5
11E
330
1
100
AcDbSymbolTableRecord
100
AcDbBlockTableRecord
  2
Door-Single_CE_ - HM Door-2_ HM Frame-5129471-BASEMENT Map Export
340
0
102
{BLKREFS
331
13D
102
}
 70
     0
280
     1
281
     0
  0
BLOCK_RECORD
  5
13E
330
1
100
AcDbSymbolTableRecord
100
AcDbBlockTableRecord
  2
Door-Single_CE_ - HM Door-2_ HM Frame-5129600-BASEMENT Map Export
340
0
102
{BLKREFS
331
15D
102
}
 70
     0
280
     1
281
     0
  0
BLOCK_RECORD
  5
167
330
1
100
AcDbSymbolTableRecord
100
AcDbBlockTableRecord
  2
Railing - Railing-5130007-BASEMENT Map Export
340
0
102
{BLKREFS
331
16E
102
}
 70
     0
280
     1
281
     0
  0
BLOCK_RECORD
  5
16F
330
1
100
AcDbSymbolTableRecord
100
AcDbBlockTableRecord
  2
Railing - Railing-5130011-BASEMENT Map Export
340
0
102
{BLKREFS
331
176
102
}
 70
     0
280
     1
281
     0
  0
BLOCK_RECORD
  5
177
330
1
100
AcDbSymbolTableRecord
100
AcDbBlockTableRecord
  2
Door-Single_CE_ - HM Door-2_ HM Frame-5198375-BASEMENT Map Export
340
0
102
{BLKREFS
331
196
102
}
 70
     0
280
     1
281
     0
  0
ENDTAB
  0
ENDSEC
  0
SECTION
  2
BLOCKS
  0
BLOCK
  5
71
330
70
100
AcDbEntity
  8
0
100
AcDbBlockBegin
  2
*Model_Space
 70
     0
 10
0.0
 20
0.0
 30
0.0
  3
*Model_Space
  1

  0
ENDBLK
  5
72
330
70
100
AcDbEntity
  8
0
100
AcDbBlockEnd
  0
BLOCK
  5
6D
330
6C
100
AcDbEntity
 67
     1
  8
0
100
AcDbBlockBegin
  2
*Paper_Space
 70
     0
 10
0.0
 20
0.0
 30
0.0
  3
*Paper_Space
  1

  0
ENDBLK
  5
6E
330
6C
100
AcDbEntity
 67
     1
  8
0
100
AcDbBlockEnd
  0
BLOCK
  5
75
330
74
100
AcDbEntity
 67
     1
  8
0
100
AcDbBlockBegin
  2
*Paper_Space0
 70
     0
 10
0.0
 20
0.0
 30
0.0
  3
*Paper_Space0
  1

  0
ENDBLK
  5
76
330
74
100
AcDbEntity
 67
     1
  8
0
100
AcDbBlockEnd
  0
BLOCK
  5
11B
330
FD
100
AcDbEntity
  8
0
100
AcDbBlockBegin
  2
Door-Single_CE_ - HM Door-2_ HM Frame-5129110-BASEMENT Map Export
 70
     0
 10
0.0
 20
0.0
 30
0.0
  3
Door-Single_CE_ - HM Door-2_ HM Frame-5129110-BASEMENT Map Export
  1

  0
ARC
  5
FE
330
FD
100
AcDbEntity
  8
A-DOOR
370
     9
100
AcDbCircle
 10
18.0000000000032
 20
-2.999999999999463
 30
0.0
 40
36.0
100
AcDbArc
 50
179.5000000000001
 51
269.9999999999995
1001
REVIT
1002
{
1070
     1
1000
5129026
1002
}
1002
{
1070
     5
1000
4450563
1002
}
1002
{
1070
     3
1000
636535
1002
}
  0
LINE
  5
FF
330
FD
100
AcDbEntity
  8
A-DOOR
100
AcDbLine
 10
18.00000000000001
 20
-2.999999999999383
 30
0.0
 11
17.99999999999995
 21
-38.99999999999938
 31
0.0
1001
REVIT
1002
{
1070
     1
1000
5129026
1002
}
1002
{
1070
     5
1000
4450563
1002
}
1002
{
1070
     3
1000
-2000025
1002
}
  0
LINE
  5
100
330
FD
100
AcDbEntity
  8
A-DOOR
100
AcDbLine
 10
17.99999999999995
 20
-38.99999999999938
 30
0.0
 11
16.24999999999995
 21
-38.99999999999938
 31
0.0
1001
REVIT
1002
{
1070
     1
1000
5129026
1002
}
1002
{
1070
     5
1000
4450563
1002
}
1002
{
1070
     3
1000
-2000025
1002
}
  0
LINE
  5
101
330
FD
100
AcDbEntity
  8
A-DOOR
100
AcDbLine
 10
16.24999999999995
 20
-38.99999999999938
 30
0.0
 11
16.25000000000001
 21
-2.999999999999381
 31
0.0
1001
REVIT
1002
{
1070
     1
1000
5129026
1002
}
1002
{
1070
     5
1000
4450563
1002
}
1002
{
1070
     3
1000
-2000025
1002
}
  0
LINE
  5
102
330
FD
100
AcDbEntity
  8
A-DOOR
100
AcDbLine
 10
16.25000000000001
 20
-2.99999999999938
 30
0.0
 11
18.00000000000001
 21
-2.999999999999383
 31
0.0
1001
REVIT
1002
{
1070
     1
1000
5129026
1002
}
1002
{
1070
     5
1000
4450563
1002
}
1002
{
1070
     3
1000
-2000025
1002
}
  0
ARC
  5
103
330
FD
100
AcDbEntity
  8
A-DOOR
370
     9
100
AcDbCircle
 10
18.00000000000001
 20
-2.999999999999386
 30
0.0
 40
36.0
100
AcDbArc
 50
179.5000000000001
 51
269.9999999999995
1001
REVIT
1002
{
1070
     1
1000
5129026
1002
}
1002
{
1070
     5
1000
4450563
1002
}
1002
{
1070
     3
1000
636535
1002
}
  0
LINE
  5
105
330
FD
100
AcDbEntity
  8
A-DOOR-FRAM
100
AcDbLine
 10
19.99999999999999
 20
3.000000000000066
 30
0.0
 11
20.00000000000001
 21
-2.999999999999918
 31
0.0
1001
REVIT
1002
{
1070
     1
1000
5129026
1002
}
1002
{
1070
     5
1000
4450563
1002
}
1002
{
1070
     3
1000
-2000029
1002
}
  0
LINE
  5
106
330
FD
100
AcDbEntity
  8
A-DOOR-FRAM
100
AcDbLine
 10
18.00000000000006
 20
3.000000000000059
 30
0.0
 11
19.99999999999999
 21
3.000000000000066
 31
0.0
1001
REVIT
1002
{
1070
     1
1000
5129026
1002
}
1002
{
1070
     5
1000
4450563
1002
}
1002
{
1070
     3
1000
-2000029
1002
}
  0
LINE
  5
107
330
FD
100
AcDbEntity
  8
A-DOOR-FRAM
100
AcDbLine
 10
18.00000000000007
 20
0.7499999999998814
 30
0.0
 11
18.00000000000006
 21
3.000000000000059
 31
0.0
1001
REVIT
1002
{
1070
     1
1000
5129026
1002
}
1002
{
1070
     5
1000
4450563
1002
}
1002
{
1070
     3
1000
-2000029
1002
}
  0
LINE
  5
108
330
FD
100
AcDbEntity
  8
A-DOOR-FRAM
100
AcDbLine
 10
17.49999999999995
 20
0.74999999999988
 30
0.0
 11
18.00000000000007
 21
0.7499999999998814
 31
0.0
1001
REVIT
1002
{
1070
     1
1000
5129026
1002
}
1002
{
1070
     5
1000
4450563
1002
}
1002
{
1070
     3
1000
-2000029
1002
}
  0
LINE
  5
109
330
FD
100
AcDbEntity
  8
A-DOOR-FRAM
100
AcDbLine
 10
17.49999999999995
 20
-1.250000000000172
 30
0.0
 11
17.49999999999995
 21
0.74999999999988
 31
0.0
1001
REVIT
1002
{
1070
     1
1000
5129026
1002
}
1002
{
1070
     5
1000
4450563
1002
}
1002
{
1070
     3
1000
-2000029
1002
}
  0
LINE
  5
10A
330
FD
100
AcDbEntity
  8
A-DOOR-FRAM
100
AcDbLine
 10
18.00000000000007
 20
-1.250000000000171
 30
0.0
 11
17.49999999999995
 21
-1.250000000000172
 31
0.0
1001
REVIT
1002
{
1070
     1
1000
5129026
1002
}
1002
{
1070
     5
1000
4450563
1002
}
1002
{
1070
     3
1000
-2000029
1002
}
  0
LINE
  5
10B
330
FD
100
AcDbEntity
  8
A-DOOR-FRAM
100
AcDbLine
 10
18.00000000000007
 20
-2.999999999999925
 30
0.0
 11
18.00000000000007
 21
-1.250000000000171
 31
0.0
1001
REVIT
1002
{
1070
     1
1000
5129026
1002
}
1002
{
1070
     5
1000
4450563
1002
}
1002
{
1070
     3
1000
-2000029
1002
}
  0
LINE
  5
10C
330
FD
100
AcDbEntity
  8
A-DOOR-FRAM
100
AcDbLine
 10
20.00000000000001
 20
-2.999999999999918
 30
0.0
 11
18.00000000000007
 21
-2.999999999999925
 31
0.0
1001
REVIT
1002
{
1070
     1
1000
5129026
1002
}
1002
{
1070
     5
1000
4450563
1002
}
1002
{
1070
     3
1000
-2000029
1002
}
  0
LINE
  5
10D
330
FD
100
AcDbEntity
  8
A-DOOR-FRAM
100
AcDbLine
 10
-17.99999999999988
 20
-1.250000000000291
 30
0.0
 11
-17.99999999999988
 21
-3.00000000000004
 31
0.0
1001
REVIT
1002
{
1070
     1
1000
5129026
1002
}
1002
{
1070
     5
1000
4450563
1002
}
1002
{
1070
     3
1000
-2000029
1002
}
  0
LINE
  5
10E
330
FD
100
AcDbEntity
  8
A-DOOR-FRAM
100
AcDbLine
 10
-17.4999999999999
 20
-1.250000000000289
 30
0.0
 11
-17.99999999999988
 21
-1.250000000000291
 31
0.0
1001
REVIT
1002
{
1070
     1
1000
5129026
1002
}
1002
{
1070
     5
1000
4450563
1002
}
1002
{
1070
     3
1000
-2000029
1002
}
  0
LINE
  5
10F
330
FD
100
AcDbEntity
  8
A-DOOR-FRAM
100
AcDbLine
 10
-17.49999999999991
 20
0.7499999999997672
 30
0.0
 11
-17.4999999999999
 21
-1.250000000000289
 31
0.0
1001
REVIT
1002
{
1070
     1
1000
5129026
1002
}
1002
{
1070
     5
1000
4450563
1002
}
1002
{
1070
     3
1000
-2000029
1002
}
  0
LINE
  5
110
330
FD
100
AcDbEntity
  8
A-DOOR-FRAM
100
AcDbLine
 10
-17.99999999999989
 20
0.7499999999997674
 30
0.0
 11
-17.49999999999991
 21
0.7499999999997672
 31
0.0
1001
REVIT
1002
{
1070
     1
1000
5129026
1002
}
1002
{
1070
     5
1000
4450563
1002
}
1002
{
1070
     3
1000
-2000029
1002
}
  0
LINE
  5
111
330
FD
100
AcDbEntity
  8
A-DOOR-FRAM
100
AcDbLine
 10
-17.9999999999999
 20
2.999999999999943
 30
0.0
 11
-17.99999999999989
 21
0.7499999999997674
 31
0.0
1001
REVIT
1002
{
1070
     1
1000
5129026
1002
}
1002
{
1070
     5
1000
4450563
1002
}
1002
{
1070
     3
1000
-2000029
1002
}
  0
LINE
  5
112
330
FD
100
AcDbEntity
  8
A-DOOR-FRAM
100
AcDbLine
 10
-20.00000000000013
 20
2.999999999999936
 30
0.0
 11
-17.9999999999999
 21
2.999999999999943
 31
0.0
1001
REVIT
1002
{
1070
     1
1000
5129026
1002
}
1002
{
1070
     5
1000
4450563
1002
}
1002
{
1070
     3
1000
-2000029
1002
}
  0
LINE
  5
113
330
FD
100
AcDbEntity
  8
A-DOOR-FRAM
100
AcDbLine
 10
-20.00000000000011
 20
-3.000000000000047
 30
0.0
 11
-20.00000000000013
 21
2.999999999999936
 31
0.0
1001
REVIT
1002
{
1070
     1
1000
5129026
1002
}
1002
{
1070
     5
1000
4450563
1002
}
1002
{
1070
     3
1000
-2000029
1002
}
  0
LINE
  5
114
330
FD
100
AcDbEntity
  8
A-DOOR-FRAM
100
AcDbLine
 10
-17.99999999999988
 20
-3.00000000000004
 30
0.0
 11
-20.00000000000011
 21
-3.000000000000047
 31
0.0
1001
REVIT
1002
{
1070
     1
1000
5129026
1002
}
1002
{
1070
     5
1000
4450563
1002
}
1002
{
1070
     3
1000
-2000029
1002
}
  0
LINE
  5
115
330
FD
100
AcDbEntity
  8
A-DOOR
370
    25
100
AcDbLine
 10
17.99999999999993
 20
-38.99999999999938
 30
0.0
 11
16.24999999999993
 21
-38.99999999999938
 31
0.0
1001
REVIT
1002
{
1070
     1
1000
5129026
1002
}
1002
{
1070
     5
1000
4450563
1002
}
  0
LINE
  5
116
330
FD
100
AcDbEntity
  8
A-DOOR
370
    25
100
AcDbLine
 10
18.0
 20
-2.999999999999383
 30
0.0
 11
17.99999999999993
 21
-38.99999999999938
 31
0.0
1001
REVIT
1002
{
1070
     1
1000
5129026
1002
}
1002
{
1070
     5
1000
4450563
1002
}
  0
LINE
  5
117
330
FD
100
AcDbEntity
  8
A-DOOR
370
    25
100
AcDbLine
 10
16.24999999999993
 20
-38.99999999999938
 30
0.0
 11
16.25
 21
-2.999999999999381
 31
0.0
1001
REVIT
1002
{
1070
     1
1000
5129026
1002
}
1002
{
1070
     5
1000
4450563
1002
}
  0
LINE
  5
118
330
FD
100
AcDbEntity
  8
A-DOOR
370
    25
100
AcDbLine
 10
18.0
 20
-2.999999999999383
 30
0.0
 11
16.25
 21
-2.999999999999381
 31
0.0
1001
REVIT
1002
{
1070
     1
1000
5129026
1002
}
1002
{
1070
     5
1000
4450563
1002
}
  0
ARC
  5
119
330
FD
100
AcDbEntity
  8
A-DOOR
370
     9
100
AcDbCircle
 10
18.0
 20
-2.999999999999386
 30
0.0
 40
36.0
100
AcDbArc
 50
179.5000000000028
 51
269.9999999999995
1001
REVIT
1002
{
1070
     1
1000
5129026
1002
}
1002
{
1070
     5
1000
4450563
1002
}
1002
{
1070
     3
1000
636535
1002
}
  0
ARC
  5
11A
330
FD
100
AcDbEntity
  8
A-DOOR
370
     9
100
AcDbCircle
 10
18.0
 20
-2.999999999999386
 30
0.0
 40
36.0
100
AcDbArc
 50
179.5000000000034
 51
269.9999999999995
1001
REVIT
1002
{
1070
     1
1000
5129026
1002
}
1002
{
1070
     5
1000
4450563
1002
}
1002
{
1070
     3
1000
636535
1002
}
  0
ENDBLK
  5
11C
330
FD
100
AcDbEntity
  8
0
100
AcDbBlockEnd
  0
BLOCK
  5
13B
330
11E
100
AcDbEntity
  8
0
100
AcDbBlockBegin
  2
Door-Single_CE_ - HM Door-2_ HM Frame-5129471-BASEMENT Map Export
 70
     0
 10
0.0
 20
0.0
 30
0.0
  3
Door-Single_CE_ - HM Door-2_ HM Frame-5129471-BASEMENT Map Export
  1

  0
ARC
  5
11F
330
11E
100
AcDbEntity
  8
A-DOOR
370
     9
100
AcDbCircle
 10
15.0000000000032
 20
2.999999999999467
 30
0.0
 40
30.0
100
AcDbArc
 50
89.99999999999401
 51
180.4999999999995
1001
REVIT
1002
{
1070
     1
1000
5129124
1002
}
1002
{
1070
     5
1000
4450563
1002
}
1002
{
1070
     3
1000
636535
1002
}
  0
LINE
  5
120
330
11E
100
AcDbEntity
  8
A-DOOR
100
AcDbLine
 10
15.00000000000001
 20
2.999999999999388
 30
0.0
 11
14.99999999999996
 21
32.99999999999938
 31
0.0
1001
REVIT
1002
{
1070
     1
1000
5129124
1002
}
1002
{
1070
     5
1000
4450563
1002
}
1002
{
1070
     3
1000
-2000025
1002
}
  0
LINE
  5
121
330
11E
100
AcDbEntity
  8
A-DOOR
100
AcDbLine
 10
14.99999999999996
 20
32.99999999999939
 30
0.0
 11
13.24999999999996
 21
32.99999999999938
 31
0.0
1001
REVIT
1002
{
1070
     1
1000
5129124
1002
}
1002
{
1070
     5
1000
4450563
1002
}
1002
{
1070
     3
1000
-2000025
1002
}
  0
LINE
  5
122
330
11E
100
AcDbEntity
  8
A-DOOR
100
AcDbLine
 10
13.24999999999996
 20
32.99999999999938
 30
0.0
 11
13.25000000000001
 21
2.999999999999386
 31
0.0
1001
REVIT
1002
{
1070
     1
1000
5129124
1002
}
1002
{
1070
     5
1000
4450563
1002
}
1002
{
1070
     3
1000
-2000025
1002
}
  0
LINE
  5
123
330
11E
100
AcDbEntity
  8
A-DOOR
100
AcDbLine
 10
13.25000000000001
 20
2.999999999999385
 30
0.0
 11
15.00000000000001
 21
2.999999999999388
 31
0.0
1001
REVIT
1002
{
1070
     1
1000
5129124
1002
}
1002
{
1070
     5
1000
4450563
1002
}
1002
{
1070
     3
1000
-2000025
1002
}
  0
ARC
  5
124
330
11E
100
AcDbEntity
  8
A-DOOR
370
     9
100
AcDbCircle
 10
15.00000000000001
 20
2.999999999999391
 30
0.0
 40
30.0
100
AcDbArc
 50
90.00000000000012
 51
180.4999999999995
1001
REVIT
1002
{
1070
     1
1000
5129124
1002
}
1002
{
1070
     5
1000
4450563
1002
}
1002
{
1070
     3
1000
636535
1002
}
  0
LINE
  5
125
330
11E
100
AcDbEntity
  8
A-DOOR-FRAM
100
AcDbLine
 10
-14.99999999999997
 20
3.000000000000031
 30
0.0
 11
-16.99999999998387
 21
3.000000000000038
 31
0.0
1001
REVIT
1002
{
1070
     1
1000
5129124
1002
}
1002
{
1070
     5
1000
4450563
1002
}
1002
{
1070
     3
1000
-2000029
1002
}
  0
LINE
  5
126
330
11E
100
AcDbEntity
  8
A-DOOR-FRAM
100
AcDbLine
 10
-16.99999999998387
 20
3.000000000000038
 30
0.0
 11
-16.99999999998389
 21
-2.999999999999946
 31
0.0
1001
REVIT
1002
{
1070
     1
1000
5129124
1002
}
1002
{
1070
     5
1000
4450563
1002
}
1002
{
1070
     3
1000
-2000029
1002
}
  0
LINE
  5
127
330
11E
100
AcDbEntity
  8
A-DOOR-FRAM
100
AcDbLine
 10
-16.99999999998389
 20
-2.999999999999946
 30
0.0
 11
-14.99999999999999
 21
-2.999999999999952
 31
0.0
1001
REVIT
1002
{
1070
     1
1000
5129124
1002
}
1002
{
1070
     5
1000
4450563
1002
}
1002
{
1070
     3
1000
-2000029
1002
}
  0
LINE
  5
128
330
11E
100
AcDbEntity
  8
A-DOOR-FRAM
100
AcDbLine
 10
-14.99999999999999
 20
-2.999999999999952
 30
0.0
 11
-14.99999999999998
 21
-0.7499999999997775
 31
0.0
1001
REVIT
1002
{
1070
     1
1000
5129124
1002
}
1002
{
1070
     5
1000
4450563
1002
}
1002
{
1070
     3
1000
-2000029
1002
}
  0
LINE
  5
129
330
11E
100
AcDbEntity
  8
A-DOOR-FRAM
100
AcDbLine
 10
-14.99999999999998
 20
-0.7499999999997775
 30
0.0
 11
-14.5
 21
-0.7499999999997773
 31
0.0
1001
REVIT
1002
{
1070
     1
1000
5129124
1002
}
1002
{
1070
     5
1000
4450563
1002
}
1002
{
1070
     3
1000
-2000029
1002
}
  0
LINE
  5
12A
330
11E
100
AcDbEntity
  8
A-DOOR-FRAM
100
AcDbLine
 10
-14.5
 20
-0.7499999999997773
 30
0.0
 11
-14.5
 21
1.250000000000278
 31
0.0
1001
REVIT
1002
{
1070
     1
1000
5129124
1002
}
1002
{
1070
     5
1000
4450563
1002
}
1002
{
1070
     3
1000
-2000029
1002
}
  0
LINE
  5
12B
330
11E
100
AcDbEntity
  8
A-DOOR-FRAM
100
AcDbLine
 10
-14.5
 20
1.250000000000278
 30
0.0
 11
-14.99999999999998
 21
1.25000000000028
 31
0.0
1001
REVIT
1002
{
1070
     1
1000
5129124
1002
}
1002
{
1070
     5
1000
4450563
1002
}
1002
{
1070
     3
1000
-2000029
1002
}
  0
LINE
  5
12C
330
11E
100
AcDbEntity
  8
A-DOOR-FRAM
100
AcDbLine
 10
-14.99999999999998
 20
1.25000000000028
 30
0.0
 11
-14.99999999999997
 21
3.000000000000031
 31
0.0
1001
REVIT
1002
{
1070
     1
1000
5129124
1002
}
1002
{
1070
     5
1000
4450563
1002
}
1002
{
1070
     3
1000
-2000029
1002
}
  0
LINE
  5
12D
330
11E
100
AcDbEntity
  8
A-DOOR-FRAM
100
AcDbLine
 10
17.00000000001517
 20
2.999999999999928
 30
0.0
 11
15.00000000000002
 21
2.999999999999935
 31
0.0
1001
REVIT
1002
{
1070
     1
1000
5129124
1002
}
1002
{
1070
     5
1000
4450563
1002
}
1002
{
1070
     3
1000
-2000029
1002
}
  0
LINE
  5
12E
330
11E
100
AcDbEntity
  8
A-DOOR-FRAM
100
AcDbLine
 10
15.00000000000002
 20
2.999999999999935
 30
0.0
 11
15.00000000000001
 21
1.25000000000018
 31
0.0
1001
REVIT
1002
{
1070
     1
1000
5129124
1002
}
1002
{
1070
     5
1000
4450563
1002
}
1002
{
1070
     3
1000
-2000029
1002
}
  0
LINE
  5
12F
330
11E
100
AcDbEntity
  8
A-DOOR-FRAM
100
AcDbLine
 10
15.00000000000001
 20
1.25000000000018
 30
0.0
 11
14.50000000000002
 21
1.250000000000182
 31
0.0
1001
REVIT
1002
{
1070
     1
1000
5129124
1002
}
1002
{
1070
     5
1000
4450563
1002
}
1002
{
1070
     3
1000
-2000029
1002
}
  0
LINE
  5
130
330
11E
100
AcDbEntity
  8
A-DOOR-FRAM
100
AcDbLine
 10
14.50000000000002
 20
1.250000000000182
 30
0.0
 11
14.50000000000001
 21
-0.7499999999998705
 31
0.0
1001
REVIT
1002
{
1070
     1
1000
5129124
1002
}
1002
{
1070
     5
1000
4450563
1002
}
1002
{
1070
     3
1000
-2000029
1002
}
  0
LINE
  5
131
330
11E
100
AcDbEntity
  8
A-DOOR-FRAM
100
AcDbLine
 10
14.50000000000001
 20
-0.7499999999998707
 30
0.0
 11
15.00000000000001
 21
-0.7499999999998721
 31
0.0
1001
REVIT
1002
{
1070
     1
1000
5129124
1002
}
1002
{
1070
     5
1000
4450563
1002
}
1002
{
1070
     3
1000
-2000029
1002
}
  0
LINE
  5
132
330
11E
100
AcDbEntity
  8
A-DOOR-FRAM
100
AcDbLine
 10
15.00000000000001
 20
-0.7499999999998721
 30
0.0
 11
15.0
 21
-3.00000000000005
 31
0.0
1001
REVIT
1002
{
1070
     1
1000
5129124
1002
}
1002
{
1070
     5
1000
4450563
1002
}
1002
{
1070
     3
1000
-2000029
1002
}
  0
LINE
  5
133
330
11E
100
AcDbEntity
  8
A-DOOR-FRAM
100
AcDbLine
 10
15.0
 20
-3.00000000000005
 30
0.0
 11
17.00000000001515
 21
-3.000000000000055
 31
0.0
1001
REVIT
1002
{
1070
     1
1000
5129124
1002
}
1002
{
1070
     5
1000
4450563
1002
}
1002
{
1070
     3
1000
-2000029
1002
}
  0
LINE
  5
134
330
11E
100
AcDbEntity
  8
A-DOOR-FRAM
100
AcDbLine
 10
17.00000000001515
 20
-3.000000000000055
 30
0.0
 11
17.00000000001517
 21
2.999999999999928
 31
0.0
1001
REVIT
1002
{
1070
     1
1000
5129124
1002
}
1002
{
1070
     5
1000
4450563
1002
}
1002
{
1070
     3
1000
-2000029
1002
}
  0
LINE
  5
135
330
11E
100
AcDbEntity
  8
A-DOOR
370
    25
100
AcDbLine
 10
14.99999999999996
 20
32.99999999999938
 30
0.0
 11
13.24999999999996
 21
32.99999999999938
 31
0.0
1001
REVIT
1002
{
1070
     1
1000
5129124
1002
}
1002
{
1070
     5
1000
4450563
1002
}
  0
LINE
  5
136
330
11E
100
AcDbEntity
  8
A-DOOR
370
    25
100
AcDbLine
 10
15.00000000000001
 20
2.999999999999389
 30
0.0
 11
14.99999999999996
 21
32.99999999999939
 31
0.0
1001
REVIT
1002
{
1070
     1
1000
5129124
1002
}
1002
{
1070
     5
1000
4450563
1002
}
  0
LINE
  5
137
330
11E
100
AcDbEntity
  8
A-DOOR
370
    25
100
AcDbLine
 10
13.24999999999996
 20
32.99999999999938
 30
0.0
 11
13.25000000000001
 21
2.999999999999386
 31
0.0
1001
REVIT
1002
{
1070
     1
1000
5129124
1002
}
1002
{
1070
     5
1000
4450563
1002
}
  0
LINE
  5
138
330
11E
100
AcDbEntity
  8
A-DOOR
370
    25
100
AcDbLine
 10
15.00000000000001
 20
2.999999999999389
 30
0.0
 11
13.25000000000001
 21
2.999999999999386
 31
0.0
1001
REVIT
1002
{
1070
     1
1000
5129124
1002
}
1002
{
1070
     5
1000
4450563
1002
}
  0
ARC
  5
139
330
11E
100
AcDbEntity
  8
A-DOOR
370
     9
100
AcDbCircle
 10
15.00000000000001
 20
2.999999999999392
 30
0.0
 40
30.0
100
AcDbArc
 50
90.00000000000012
 51
180.5477229050929
1001
REVIT
1002
{
1070
     1
1000
5129124
1002
}
1002
{
1070
     5
1000
4450563
1002
}
1002
{
1070
     3
1000
636535
1002
}
  0
ARC
  5
13A
330
11E
100
AcDbEntity
  8
A-DOOR
370
     9
100
AcDbCircle
 10
15.00000000000001
 20
2.999999999999392
 30
0.0
 40
29.99999999999999
100
AcDbArc
 50
90.00000000000012
 51
180.5477229050921
1001
REVIT
1002
{
1070
     1
1000
5129124
1002
}
1002
{
1070
     5
1000
4450563
1002
}
1002
{
1070
     3
1000
636535
1002
}
  0
ENDBLK
  5
13C
330
11E
100
AcDbEntity
  8
0
100
AcDbBlockEnd
  0
BLOCK
  5
15B
330
13E
100
AcDbEntity
  8
0
100
AcDbBlockBegin
  2
Door-Single_CE_ - HM Door-2_ HM Frame-5129600-BASEMENT Map Export
 70
     0
 10
0.0
 20
0.0
 30
0.0
  3
Door-Single_CE_ - HM Door-2_ HM Frame-5129600-BASEMENT Map Export
  1

  0
ARC
  5
13F
330
13E
100
AcDbEntity
  8
A-DOOR
370
     9
100
AcDbCircle
 10
18.0000000000032
 20
2.999999999999463
 30
0.0
 40
36.0
100
AcDbArc
 50
90.00000000000012
 51
180.4999999999995
1001
REVIT
1002
{
1070
     1
1000
5129515
1002
}
1002
{
1070
     5
1000
4450563
1002
}
1002
{
1070
     3
1000
636535
1002
}
  0
LINE
  5
140
330
13E
100
AcDbEntity
  8
A-DOOR
100
AcDbLine
 10
18.00000000000001
 20
2.999999999999383
 30
0.0
 11
17.99999999999995
 21
38.99999999999938
 31
0.0
1001
REVIT
1002
{
1070
     1
1000
5129515
1002
}
1002
{
1070
     5
1000
4450563
1002
}
1002
{
1070
     3
1000
-2000025
1002
}
  0
LINE
  5
141
330
13E
100
AcDbEntity
  8
A-DOOR
100
AcDbLine
 10
17.99999999999995
 20
38.99999999999938
 30
0.0
 11
16.24999999999995
 21
38.99999999999938
 31
0.0
1001
REVIT
1002
{
1070
     1
1000
5129515
1002
}
1002
{
1070
     5
1000
4450563
1002
}
1002
{
1070
     3
1000
-2000025
1002
}
  0
LINE
  5
142
330
13E
100
AcDbEntity
  8
A-DOOR
100
AcDbLine
 10
16.24999999999995
 20
38.99999999999938
 30
0.0
 11
16.25000000000001
 21
2.999999999999381
 31
0.0
1001
REVIT
1002
{
1070
     1
1000
5129515
1002
}
1002
{
1070
     5
1000
4450563
1002
}
1002
{
1070
     3
1000
-2000025
1002
}
  0
LINE
  5
143
330
13E
100
AcDbEntity
  8
A-DOOR
100
AcDbLine
 10
16.25000000000001
 20
2.99999999999938
 30
0.0
 11
18.00000000000001
 21
2.999999999999383
 31
0.0
1001
REVIT
1002
{
1070
     1
1000
5129515
1002
}
1002
{
1070
     5
1000
4450563
1002
}
1002
{
1070
     3
1000
-2000025
1002
}
  0
ARC
  5
144
330
13E
100
AcDbEntity
  8
A-DOOR
370
     9
100
AcDbCircle
 10
18.00000000000001
 20
2.999999999999386
 30
0.0
 40
36.0
100
AcDbArc
 50
90.00000000000012
 51
180.4999999999995
1001
REVIT
1002
{
1070
     1
1000
5129515
1002
}
1002
{
1070
     5
1000
4450563
1002
}
1002
{
1070
     3
1000
636535
1002
}
  0
LINE
  5
145
330
13E
100
AcDbEntity
  8
A-DOOR-FRAM
100
AcDbLine
 10
20.00000000000001
 20
2.999999999999918
 30
0.0
 11
18.00000000000007
 21
2.999999999999925
 31
0.0
1001
REVIT
1002
{
1070
     1
1000
5129515
1002
}
1002
{
1070
     5
1000
4450563
1002
}
1002
{
1070
     3
1000
-2000029
1002
}
  0
LINE
  5
146
330
13E
100
AcDbEntity
  8
A-DOOR-FRAM
100
AcDbLine
 10
18.00000000000007
 20
2.999999999999925
 30
0.0
 11
18.00000000000007
 21
1.250000000000171
 31
0.0
1001
REVIT
1002
{
1070
     1
1000
5129515
1002
}
1002
{
1070
     5
1000
4450563
1002
}
1002
{
1070
     3
1000
-2000029
1002
}
  0
LINE
  5
147
330
13E
100
AcDbEntity
  8
A-DOOR-FRAM
100
AcDbLine
 10
18.00000000000007
 20
1.250000000000171
 30
0.0
 11
17.49999999999995
 21
1.250000000000172
 31
0.0
1001
REVIT
1002
{
1070
     1
1000
5129515
1002
}
1002
{
1070
     5
1000
4450563
1002
}
1002
{
1070
     3
1000
-2000029
1002
}
  0
LINE
  5
148
330
13E
100
AcDbEntity
  8
A-DOOR-FRAM
100
AcDbLine
 10
17.49999999999995
 20
1.250000000000172
 30
0.0
 11
17.49999999999995
 21
-0.74999999999988
 31
0.0
1001
REVIT
1002
{
1070
     1
1000
5129515
1002
}
1002
{
1070
     5
1000
4450563
1002
}
1002
{
1070
     3
1000
-2000029
1002
}
  0
LINE
  5
149
330
13E
100
AcDbEntity
  8
A-DOOR-FRAM
100
AcDbLine
 10
17.49999999999995
 20
-0.74999999999988
 30
0.0
 11
18.00000000000007
 21
-0.7499999999998814
 31
0.0
1001
REVIT
1002
{
1070
     1
1000
5129515
1002
}
1002
{
1070
     5
1000
4450563
1002
}
1002
{
1070
     3
1000
-2000029
1002
}
  0
LINE
  5
14A
330
13E
100
AcDbEntity
  8
A-DOOR-FRAM
100
AcDbLine
 10
18.00000000000007
 20
-0.7499999999998814
 30
0.0
 11
18.00000000000006
 21
-3.000000000000059
 31
0.0
1001
REVIT
1002
{
1070
     1
1000
5129515
1002
}
1002
{
1070
     5
1000
4450563
1002
}
1002
{
1070
     3
1000
-2000029
1002
}
  0
LINE
  5
14B
330
13E
100
AcDbEntity
  8
A-DOOR-FRAM
100
AcDbLine
 10
18.00000000000006
 20
-3.000000000000059
 30
0.0
 11
19.99999999999999
 21
-3.000000000000066
 31
0.0
1001
REVIT
1002
{
1070
     1
1000
5129515
1002
}
1002
{
1070
     5
1000
4450563
1002
}
1002
{
1070
     3
1000
-2000029
1002
}
  0
LINE
  5
14C
330
13E
100
AcDbEntity
  8
A-DOOR-FRAM
100
AcDbLine
 10
19.99999999999999
 20
-3.000000000000066
 30
0.0
 11
20.00000000000001
 21
2.999999999999918
 31
0.0
1001
REVIT
1002
{
1070
     1
1000
5129515
1002
}
1002
{
1070
     5
1000
4450563
1002
}
1002
{
1070
     3
1000
-2000029
1002
}
  0
LINE
  5
14D
330
13E
100
AcDbEntity
  8
A-DOOR-FRAM
100
AcDbLine
 10
-17.99999999999988
 20
3.00000000000004
 30
0.0
 11
-20.00000000000011
 21
3.000000000000047
 31
0.0
1001
REVIT
1002
{
1070
     1
1000
5129515
1002
}
1002
{
1070
     5
1000
4450563
1002
}
1002
{
1070
     3
1000
-2000029
1002
}
  0
LINE
  5
14E
330
13E
100
AcDbEntity
  8
A-DOOR-FRAM
100
AcDbLine
 10
-20.00000000000011
 20
3.000000000000047
 30
0.0
 11
-20.00000000000013
 21
-2.999999999999936
 31
0.0
1001
REVIT
1002
{
1070
     1
1000
5129515
1002
}
1002
{
1070
     5
1000
4450563
1002
}
1002
{
1070
     3
1000
-2000029
1002
}
  0
LINE
  5
14F
330
13E
100
AcDbEntity
  8
A-DOOR-FRAM
100
AcDbLine
 10
-20.00000000000013
 20
-2.999999999999936
 30
0.0
 11
-17.9999999999999
 21
-2.999999999999943
 31
0.0
1001
REVIT
1002
{
1070
     1
1000
5129515
1002
}
1002
{
1070
     5
1000
4450563
1002
}
1002
{
1070
     3
1000
-2000029
1002
}
  0
LINE
  5
150
330
13E
100
AcDbEntity
  8
A-DOOR-FRAM
100
AcDbLine
 10
-17.9999999999999
 20
-2.999999999999943
 30
0.0
 11
-17.99999999999989
 21
-0.7499999999997674
 31
0.0
1001
REVIT
1002
{
1070
     1
1000
5129515
1002
}
1002
{
1070
     5
1000
4450563
1002
}
1002
{
1070
     3
1000
-2000029
1002
}
  0
LINE
  5
151
330
13E
100
AcDbEntity
  8
A-DOOR-FRAM
100
AcDbLine
 10
-17.99999999999989
 20
-0.7499999999997674
 30
0.0
 11
-17.49999999999991
 21
-0.7499999999997672
 31
0.0
1001
REVIT
1002
{
1070
     1
1000
5129515
1002
}
1002
{
1070
     5
1000
4450563
1002
}
1002
{
1070
     3
1000
-2000029
1002
}
  0
LINE
  5
152
330
13E
100
AcDbEntity
  8
A-DOOR-FRAM
100
AcDbLine
 10
-17.49999999999991
 20
-0.7499999999997672
 30
0.0
 11
-17.4999999999999
 21
1.250000000000289
 31
0.0
1001
REVIT
1002
{
1070
     1
1000
5129515
1002
}
1002
{
1070
     5
1000
4450563
1002
}
1002
{
1070
     3
1000
-2000029
1002
}
  0
LINE
  5
153
330
13E
100
AcDbEntity
  8
A-DOOR-FRAM
100
AcDbLine
 10
-17.4999999999999
 20
1.250000000000289
 30
0.0
 11
-17.99999999999988
 21
1.250000000000291
 31
0.0
1001
REVIT
1002
{
1070
     1
1000
5129515
1002
}
1002
{
1070
     5
1000
4450563
1002
}
1002
{
1070
     3
1000
-2000029
1002
}
  0
LINE
  5
154
330
13E
100
AcDbEntity
  8
A-DOOR-FRAM
100
AcDbLine
 10
-17.99999999999988
 20
1.250000000000291
 30
0.0
 11
-17.99999999999988
 21
3.00000000000004
 31
0.0
1001
REVIT
1002
{
1070
     1
1000
5129515
1002
}
1002
{
1070
     5
1000
4450563
1002
}
1002
{
1070
     3
1000
-2000029
1002
}
  0
LINE
  5
155
330
13E
100
AcDbEntity
  8
A-DOOR
370
    25
100
AcDbLine
 10
17.99999999999993
 20
38.99999999999938
 30
0.0
 11
16.24999999999993
 21
38.99999999999938
 31
0.0
1001
REVIT
1002
{
1070
     1
1000
5129515
1002
}
1002
{
1070
     5
1000
4450563
1002
}
  0
LINE
  5
156
330
13E
100
AcDbEntity
  8
A-DOOR
370
    25
100
AcDbLine
 10
18.0
 20
2.999999999999383
 30
0.0
 11
17.99999999999993
 21
38.99999999999938
 31
0.0
1001
REVIT
1002
{
1070
     1
1000
5129515
1002
}
1002
{
1070
     5
1000
4450563
1002
}
  0
LINE
  5
157
330
13E
100
AcDbEntity
  8
A-DOOR
370
    25
100
AcDbLine
 10
16.24999999999993
 20
38.99999999999938
 30
0.0
 11
16.25
 21
2.999999999999381
 31
0.0
1001
REVIT
1002
{
1070
     1
1000
5129515
1002
}
1002
{
1070
     5
1000
4450563
1002
}
  0
LINE
  5
158
330
13E
100
AcDbEntity
  8
A-DOOR
370
    25
100
AcDbLine
 10
18.0
 20
2.999999999999383
 30
0.0
 11
16.25
 21
2.999999999999381
 31
0.0
1001
REVIT
1002
{
1070
     1
1000
5129515
1002
}
1002
{
1070
     5
1000
4450563
1002
}
  0
ARC
  5
159
330
13E
100
AcDbEntity
  8
A-DOOR
370
     9
100
AcDbCircle
 10
18.0
 20
2.999999999999386
 30
0.0
 40
36.0
100
AcDbArc
 50
90.00000000000012
 51
180.4999999999968
1001
REVIT
1002
{
1070
     1
1000
5129515
1002
}
1002
{
1070
     5
1000
4450563
1002
}
1002
{
1070
     3
1000
636535
1002
}
  0
ARC
  5
15A
330
13E
100
AcDbEntity
  8
A-DOOR
370
     9
100
AcDbCircle
 10
18.0
 20
2.999999999999386
 30
0.0
 40
36.0
100
AcDbArc
 50
90.00000000000012
 51
180.4999999999962
1001
REVIT
1002
{
1070
     1
1000
5129515
1002
}
1002
{
1070
     5
1000
4450563
1002
}
1002
{
1070
     3
1000
636535
1002
}
  0
ENDBLK
  5
15C
330
13E
100
AcDbEntity
  8
0
100
AcDbBlockEnd
  0
BLOCK
  5
16C
330
167
100
AcDbEntity
  8
0
100
AcDbBlockBegin
  2
Railing - Railing-5130007-BASEMENT Map Export
 70
     0
 10
0.0
 20
0.0
 30
0.0
  3
Railing - Railing-5130007-BASEMENT Map Export
  1

  0
LINE
  5
168
330
167
100
AcDbEntity
  8
A-FLOR-HRAL
100
AcDbLine
 10
-799.429244811245
 20
-856.4021714946983
 30
0.0
 11
-801.4292448112449
 21
-856.4021714946983
 31
0.0
1001
REVIT
1002
{
1070
     1
1000
5130006
1002
}
1002
{
1070
     5
1000
1969
1002
}
1002
{
1070
     3
1000
-2000128
1002
}
  0
LINE
  5
169
330
167
100
AcDbEntity
  8
A-FLOR-HRAL
100
AcDbLine
 10
-799.4292448112449
 20
-823.4021714946985
 30
0.0
 11
-799.429244811245
 21
-856.4021714946983
 31
0.0
1001
REVIT
1002
{
1070
     1
1000
5130006
1002
}
1002
{
1070
     5
1000
1969
1002
}
1002
{
1070
     3
1000
-2000128
1002
}
  0
LINE
  5
16A
330
167
100
AcDbEntity
  8
A-FLOR-HRAL
100
AcDbLine
 10
-801.4292448112449
 20
-823.4021714946985
 30
0.0
 11
-799.4292448112449
 21
-823.4021714946985
 31
0.0
1001
REVIT
1002
{
1070
     1
1000
5130006
1002
}
1002
{
1070
     5
1000
1969
1002
}
1002
{
1070
     3
1000
-2000128
1002
}
  0
LINE
  5
16B
330
167
100
AcDbEntity
  8
A-FLOR-HRAL
100
AcDbLine
 10
-801.4292448112449
 20
-823.4021714946985
 30
0.0
 11
-801.4292448112449
 21
-856.4021714946983
 31
0.0
1001
REVIT
1002
{
1070
     1
1000
5130006
1002
}
1002
{
1070
     5
1000
1969
1002
}
1002
{
1070
     3
1000
-2000128
1002
}
  0
ENDBLK
  5
16D
330
167
100
AcDbEntity
  8
0
100
AcDbBlockEnd
  0
BLOCK
  5
174
330
16F
100
AcDbEntity
  8
0
100
AcDbBlockBegin
  2
Railing - Railing-5130011-BASEMENT Map Export
 70
     0
 10
0.0
 20
0.0
 30
0.0
  3
Railing - Railing-5130011-BASEMENT Map Export
  1

  0
LINE
  5
170
330
16F
100
AcDbEntity
  8
A-FLOR-HRAL
100
AcDbLine
 10
-755.4292448112449
 20
-856.4021714946987
 30
0.0
 11
-757.429244811245
 21
-856.4021714946987
 31
0.0
1001
REVIT
1002
{
1070
     1
1000
5130010
1002
}
1002
{
1070
     5
1000
1969
1002
}
1002
{
1070
     3
1000
-2000128
1002
}
  0
LINE
  5
171
330
16F
100
AcDbEntity
  8
A-FLOR-HRAL
100
AcDbLine
 10
-755.4292448112447
 20
-823.4021714946985
 30
0.0
 11
-755.4292448112449
 21
-856.4021714946987
 31
0.0
1001
REVIT
1002
{
1070
     1
1000
5130010
1002
}
1002
{
1070
     5
1000
1969
1002
}
1002
{
1070
     3
1000
-2000128
1002
}
  0
LINE
  5
172
330
16F
100
AcDbEntity
  8
A-FLOR-HRAL
100
AcDbLine
 10
-757.4292448112449
 20
-823.4021714946985
 30
0.0
 11
-755.4292448112447
 21
-823.4021714946985
 31
0.0
1001
REVIT
1002
{
1070
     1
1000
5130010
1002
}
1002
{
1070
     5
1000
1969
1002
}
1002
{
1070
     3
1000
-2000128
1002
}
  0
LINE
  5
173
330
16F
100
AcDbEntity
  8
A-FLOR-HRAL
100
AcDbLine
 10
-757.4292448112449
 20
-823.4021714946985
 30
0.0
 11
-757.429244811245
 21
-856.4021714946987
 31
0.0
1001
REVIT
1002
{
1070
     1
1000
5130010
1002
}
1002
{
1070
     5
1000
1969
1002
}
1002
{
1070
     3
1000
-2000128
1002
}
  0
ENDBLK
  5
175
330
16F
100
AcDbEntity
  8
0
100
AcDbBlockEnd
  0
BLOCK
  5
194
330
177
100
AcDbEntity
  8
0
100
AcDbBlockBegin
  2
Door-Single_CE_ - HM Door-2_ HM Frame-5198375-BASEMENT Map Export
 70
     0
 10
0.0
 20
0.0
 30
0.0
  3
Door-Single_CE_ - HM Door-2_ HM Frame-5198375-BASEMENT Map Export
  1

  0
ARC
  5
178
330
177
100
AcDbEntity
  8
A-DOOR
370
     9
100
AcDbCircle
 10
18.00000000000321
 20
5.999999999999463
 30
0.0
 40
36.0
100
AcDbArc
 50
90.00000000000012
 51
180.4999999999995
1001
REVIT
1002
{
1070
     1
1000
5198334
1002
}
1002
{
1070
     5
1000
4450563
1002
}
1002
{
1070
     3
1000
636535
1002
}
  0
LINE
  5
179
330
177
100
AcDbEntity
  8
A-DOOR
100
AcDbLine
 10
18.00000000000002
 20
5.999999999999383
 30
0.0
 11
17.99999999999996
 21
41.99999999999938
 31
0.0
1001
REVIT
1002
{
1070
     1
1000
5198334
1002
}
1002
{
1070
     5
1000
4450563
1002
}
1002
{
1070
     3
1000
-2000025
1002
}
  0
LINE
  5
17A
330
177
100
AcDbEntity
  8
A-DOOR
100
AcDbLine
 10
17.99999999999996
 20
41.99999999999938
 30
0.0
 11
16.24999999999996
 21
41.99999999999938
 31
0.0
1001
REVIT
1002
{
1070
     1
1000
5198334
1002
}
1002
{
1070
     5
1000
4450563
1002
}
1002
{
1070
     3
1000
-2000025
1002
}
  0
LINE
  5
17B
330
177
100
AcDbEntity
  8
A-DOOR
100
AcDbLine
 10
16.24999999999996
 20
41.99999999999938
 30
0.0
 11
16.25000000000002
 21
5.99999999999938
 31
0.0
1001
REVIT
1002
{
1070
     1
1000
5198334
1002
}
1002
{
1070
     5
1000
4450563
1002
}
1002
{
1070
     3
1000
-2000025
1002
}
  0
LINE
  5
17C
330
177
100
AcDbEntity
  8
A-DOOR
100
AcDbLine
 10
16.25000000000002
 20
5.99999999999938
 30
0.0
 11
18.00000000000002
 21
5.999999999999383
 31
0.0
1001
REVIT
1002
{
1070
     1
1000
5198334
1002
}
1002
{
1070
     5
1000
4450563
1002
}
1002
{
1070
     3
1000
-2000025
1002
}
  0
ARC
  5
17D
330
177
100
AcDbEntity
  8
A-DOOR
370
     9
100
AcDbCircle
 10
18.00000000000002
 20
5.999999999999387
 30
0.0
 40
36.0
100
AcDbArc
 50
90.00000000000012
 51
180.4999999999995
1001
REVIT
1002
{
1070
     1
1000
5198334
1002
}
1002
{
1070
     5
1000
4450563
1002
}
1002
{
1070
     3
1000
636535
1002
}
  0
LINE
  5
17E
330
177
100
AcDbEntity
  8
A-DOOR-FRAM
100
AcDbLine
 10
-17.99999999999986
 20
6.000000000000039
 30
0.0
 11
-20.0000000000001
 21
6.000000000000047
 31
0.0
1001
REVIT
1002
{
1070
     1
1000
5198334
1002
}
1002
{
1070
     5
1000
4450563
1002
}
1002
{
1070
     3
1000
-2000029
1002
}
  0
LINE
  5
17F
330
177
100
AcDbEntity
  8
A-DOOR-FRAM
100
AcDbLine
 10
-20.0000000000001
 20
6.000000000000047
 30
0.0
 11
-20.00000000000014
 21
-5.999999999999937
 31
0.0
1001
REVIT
1002
{
1070
     1
1000
5198334
1002
}
1002
{
1070
     5
1000
4450563
1002
}
1002
{
1070
     3
1000
-2000029
1002
}
  0
LINE
  5
180
330
177
100
AcDbEntity
  8
A-DOOR-FRAM
100
AcDbLine
 10
-20.00000000000014
 20
-5.999999999999938
 30
0.0
 11
-17.9999999999999
 21
-5.999999999999944
 31
0.0
1001
REVIT
1002
{
1070
     1
1000
5198334
1002
}
1002
{
1070
     5
1000
4450563
1002
}
1002
{
1070
     3
1000
-2000029
1002
}
  0
LINE
  5
181
330
177
100
AcDbEntity
  8
A-DOOR-FRAM
100
AcDbLine
 10
-17.9999999999999
 20
-5.999999999999944
 30
0.0
 11
-17.99999999999988
 21
2.250000000000197
 31
0.0
1001
REVIT
1002
{
1070
     1
1000
5198334
1002
}
1002
{
1070
     5
1000
4450563
1002
}
1002
{
1070
     3
1000
-2000029
1002
}
  0
LINE
  5
182
330
177
100
AcDbEntity
  8
A-DOOR-FRAM
100
AcDbLine
 10
-17.99999999999988
 20
2.250000000000196
 30
0.0
 11
-17.49999999999991
 21
2.250000000000215
 31
0.0
1001
REVIT
1002
{
1070
     1
1000
5198334
1002
}
1002
{
1070
     5
1000
4450563
1002
}
1002
{
1070
     3
1000
-2000029
1002
}
  0
LINE
  5
183
330
177
100
AcDbEntity
  8
A-DOOR-FRAM
100
AcDbLine
 10
-17.49999999999991
 20
2.250000000000215
 30
0.0
 11
-17.49999999999989
 21
4.25000000000025
 31
0.0
1001
REVIT
1002
{
1070
     1
1000
5198334
1002
}
1002
{
1070
     5
1000
4450563
1002
}
1002
{
1070
     3
1000
-2000029
1002
}
  0
LINE
  5
184
330
177
100
AcDbEntity
  8
A-DOOR-FRAM
100
AcDbLine
 10
-17.49999999999989
 20
4.25000000000025
 30
0.0
 11
-17.99999999999987
 21
4.250000000000252
 31
0.0
1001
REVIT
1002
{
1070
     1
1000
5198334
1002
}
1002
{
1070
     5
1000
4450563
1002
}
1002
{
1070
     3
1000
-2000029
1002
}
  0
LINE
  5
185
330
177
100
AcDbEntity
  8
A-DOOR-FRAM
100
AcDbLine
 10
-17.99999999999987
 20
4.250000000000252
 30
0.0
 11
-17.99999999999986
 21
6.000000000000039
 31
0.0
1001
REVIT
1002
{
1070
     1
1000
5198334
1002
}
1002
{
1070
     5
1000
4450563
1002
}
1002
{
1070
     3
1000
-2000029
1002
}
  0
LINE
  5
186
330
177
100
AcDbEntity
  8
A-DOOR-FRAM
100
AcDbLine
 10
20.00000000000002
 20
5.999999999999918
 30
0.0
 11
18.00000000000009
 21
5.999999999999924
 31
0.0
1001
REVIT
1002
{
1070
     1
1000
5198334
1002
}
1002
{
1070
     5
1000
4450563
1002
}
1002
{
1070
     3
1000
-2000029
1002
}
  0
LINE
  5
187
330
177
100
AcDbEntity
  8
A-DOOR-FRAM
100
AcDbLine
 10
18.00000000000009
 20
5.999999999999924
 30
0.0
 11
18.00000000000009
 21
4.250000000000156
 31
0.0
1001
REVIT
1002
{
1070
     1
1000
5198334
1002
}
1002
{
1070
     5
1000
4450563
1002
}
1002
{
1070
     3
1000
-2000029
1002
}
  0
LINE
  5
188
330
177
100
AcDbEntity
  8
A-DOOR-FRAM
100
AcDbLine
 10
18.00000000000009
 20
4.250000000000156
 30
0.0
 11
17.49999999999997
 21
4.250000000000157
 31
0.0
1001
REVIT
1002
{
1070
     1
1000
5198334
1002
}
1002
{
1070
     5
1000
4450563
1002
}
1002
{
1070
     3
1000
-2000029
1002
}
  0
LINE
  5
189
330
177
100
AcDbEntity
  8
A-DOOR-FRAM
100
AcDbLine
 10
17.49999999999997
 20
4.250000000000157
 30
0.0
 11
17.49999999999996
 21
2.250000000000101
 31
0.0
1001
REVIT
1002
{
1070
     1
1000
5198334
1002
}
1002
{
1070
     5
1000
4450563
1002
}
1002
{
1070
     3
1000
-2000029
1002
}
  0
LINE
  5
18A
330
177
100
AcDbEntity
  8
A-DOOR-FRAM
100
AcDbLine
 10
17.49999999999996
 20
2.250000000000101
 30
0.0
 11
18.00000000000007
 21
2.2500000000001
 31
0.0
1001
REVIT
1002
{
1070
     1
1000
5198334
1002
}
1002
{
1070
     5
1000
4450563
1002
}
1002
{
1070
     3
1000
-2000029
1002
}
  0
LINE
  5
18B
330
177
100
AcDbEntity
  8
A-DOOR-FRAM
100
AcDbLine
 10
18.00000000000007
 20
2.2500000000001
 30
0.0
 11
18.00000000000005
 21
-6.000000000000061
 31
0.0
1001
REVIT
1002
{
1070
     1
1000
5198334
1002
}
1002
{
1070
     5
1000
4450563
1002
}
1002
{
1070
     3
1000
-2000029
1002
}
  0
LINE
  5
18C
330
177
100
AcDbEntity
  8
A-DOOR-FRAM
100
AcDbLine
 10
18.00000000000005
 20
-6.000000000000061
 30
0.0
 11
19.99999999999998
 21
-6.000000000000066
 31
0.0
1001
REVIT
1002
{
1070
     1
1000
5198334
1002
}
1002
{
1070
     5
1000
4450563
1002
}
1002
{
1070
     3
1000
-2000029
1002
}
  0
LINE
  5
18D
330
177
100
AcDbEntity
  8
A-DOOR-FRAM
100
AcDbLine
 10
19.99999999999998
 20
-6.000000000000066
 30
0.0
 11
20.00000000000002
 21
5.999999999999918
 31
0.0
1001
REVIT
1002
{
1070
     1
1000
5198334
1002
}
1002
{
1070
     5
1000
4450563
1002
}
1002
{
1070
     3
1000
-2000029
1002
}
  0
LINE
  5
18E
330
177
100
AcDbEntity
  8
A-DOOR
370
    25
100
AcDbLine
 10
17.99999999999996
 20
41.99999999999938
 30
0.0
 11
16.24999999999996
 21
41.99999999999938
 31
0.0
1001
REVIT
1002
{
1070
     1
1000
5198334
1002
}
1002
{
1070
     5
1000
4450563
1002
}
  0
LINE
  5
18F
330
177
100
AcDbEntity
  8
A-DOOR
370
    25
100
AcDbLine
 10
18.00000000000002
 20
5.999999999999383
 30
0.0
 11
17.99999999999996
 21
41.99999999999938
 31
0.0
1001
REVIT
1002
{
1070
     1
1000
5198334
1002
}
1002
{
1070
     5
1000
4450563
1002
}
  0
LINE
  5
190
330
177
100
AcDbEntity
  8
A-DOOR
370
    25
100
AcDbLine
 10
16.24999999999996
 20
41.99999999999938
 30
0.0
 11
16.25000000000002
 21
5.99999999999938
 31
0.0
1001
REVIT
1002
{
1070
     1
1000
5198334
1002
}
1002
{
1070
     5
1000
4450563
1002
}
  0
LINE
  5
191
330
177
100
AcDbEntity
  8
A-DOOR
370
    25
100
AcDbLine
 10
18.00000000000002
 20
5.999999999999383
 30
0.0
 11
16.25000000000002
 21
5.99999999999938
 31
0.0
1001
REVIT
1002
{
1070
     1
1000
5198334
1002
}
1002
{
1070
     5
1000
4450563
1002
}
  0
ARC
  5
192
330
177
100
AcDbEntity
  8
A-DOOR
370
     9
100
AcDbCircle
 10
18.00000000000002
 20
5.999999999999386
 30
0.0
 40
36.0
100
AcDbArc
 50
90.00000000000012
 51
180.4999999999968
1001
REVIT
1002
{
1070
     1
1000
5198334
1002
}
1002
{
1070
     5
1000
4450563
1002
}
1002
{
1070
     3
1000
636535
1002
}
  0
ARC
  5
193
330
177
100
AcDbEntity
  8
A-DOOR
370
     9
100
AcDbCircle
 10
18.00000000000002
 20
5.999999999999386
 30
0.0
 40
36.0
100
AcDbArc
 50
90.00000000000012
 51
180.4999999999962
1001
REVIT
1002
{
1070
     1
1000
5198334
1002
}
1002
{
1070
     5
1000
4450563
1002
}
1002
{
1070
     3
1000
636535
1002
}
  0
ENDBLK
  5
195
330
177
100
AcDbEntity
  8
0
100
AcDbBlockEnd
  0
ENDSEC
  0
SECTION
  2
ENTITIES
  0
LINE
  5
8A
330
70
100
AcDbEntity
  8
A-WALL
370
    40
100
AcDbLine
 10
-994.9292448112462
 20
-1052.902171494698
 30
0.0
 11
-994.9292448112446
 21
-746.6521714946987
 31
0.0
1001
REVIT
1002
{
1070
     1
1000
5121650
1002
}
1002
{
1070
     5
1000
5124534
1002
}
1002
{
1070
     2
1000
-2000011
1002
}
  0
LINE
  5
8B
330
70
100
AcDbEntity
  8
A-WALL
370
    40
100
AcDbLine
 10
-994.9292448112444
 20
-734.6521714946986
 30
0.0
 11
-994.9292448112439
 21
-583.4021714946985
 31
0.0
1001
REVIT
1002
{
1070
     1
1000
5121650
1002
}
1002
{
1070
     5
1000
5124534
1002
}
1002
{
1070
     2
1000
-2000011
1002
}
  0
LINE
  5
8C
330
70
100
AcDbEntity
  8
A-WALL
370
    40
100
AcDbLine
 10
-994.9292448112439
 20
-568.4021714946986
 30
0.0
 11
-994.9292448112428
 21
-417.1521714946987
 31
0.0
1001
REVIT
1002
{
1070
     1
1000
5121650
1002
}
1002
{
1070
     5
1000
5124534
1002
}
1002
{
1070
     2
1000
-2000011
1002
}
  0
LINE
  5
8D
330
70
100
AcDbEntity
  8
A-WALL
370
    40
100
AcDbLine
 10
-994.9292448112428
 20
-405.1521714946987
 30
0.0
 11
-994.9292448112425
 21
-308.652171494714
 31
0.0
1001
REVIT
1002
{
1070
     1
1000
5121650
1002
}
1002
{
1070
     5
1000
5124534
1002
}
1002
{
1070
     2
1000
-2000011
1002
}
  0
LINE
  5
8E
330
70
100
AcDbEntity
  8
A-WALL
370
    40
100
AcDbLine
 10
-994.9292448112425
 20
-308.652171494714
 30
0.0
 11
-1005.929244811242
 21
-308.652171494714
 31
0.0
1001
REVIT
1002
{
1070
     1
1000
5121650
1002
}
1002
{
1070
     5
1000
5124534
1002
}
1002
{
1070
     2
1000
-2000011
1002
}
  0
LINE
  5
8F
330
70
100
AcDbEntity
  8
A-WALL
370
    40
100
AcDbLine
 10
-1005.929244811242
 20
-308.652171494714
 30
0.0
 11
-1005.929244811246
 21
-1063.902171494698
 31
0.0
1001
REVIT
1002
{
1070
     1
1000
5121650
1002
}
1002
{
1070
     5
1000
5124534
1002
}
1002
{
1070
     2
1000
-2000011
1002
}
  0
LINE
  5
91
330
70
100
AcDbEntity
  8
A-WALL
370
    40
100
AcDbLine
 10
-994.9292448112421
 20
-268.652171494714
 30
0.0
 11
-994.9292448112412
 21
-70.90217149469862
 31
0.0
1001
REVIT
1002
{
1070
     1
1000
5121650
1002
}
1002
{
1070
     5
1000
5124534
1002
}
1002
{
1070
     2
1000
-2000011
1002
}
  0
LINE
  5
92
330
70
100
AcDbEntity
  8
A-WALL
370
    40
100
AcDbLine
 10
-994.9292448112412
 20
-65.90217149469861
 30
0.0
 11
-994.9292448112403
 21
117.0978285053011
 31
0.0
1001
REVIT
1002
{
1070
     1
1000
5121650
1002
}
1002
{
1070
     5
1000
5124534
1002
}
1002
{
1070
     2
1000
-2000011
1002
}
  0
LINE
  5
94
330
70
100
AcDbEntity
  8
A-WALL
370
    40
100
AcDbLine
 10
-1005.92924481124
 20
128.0978285053012
 30
0.0
 11
-1005.929244811242
 21
-268.652171494714
 31
0.0
1001
REVIT
1002
{
1070
     1
1000
5121650
1002
}
1002
{
1070
     5
1000
5124534
1002
}
1002
{
1070
     2
1000
-2000011
1002
}
  0
LINE
  5
95
330
70
100
AcDbEntity
  8
A-WALL
370
    40
100
AcDbLine
 10
-1005.929244811242
 20
-268.652171494714
 30
0.0
 11
-994.9292448112421
 21
-268.652171494714
 31
0.0
1001
REVIT
1002
{
1070
     1
1000
5121650
1002
}
1002
{
1070
     5
1000
5124534
1002
}
1002
{
1070
     2
1000
-2000011
1002
}
  0
LINE
  5
96
330
70
100
AcDbEntity
  8
A-WALL
370
    40
100
AcDbLine
 10
-994.9292448112402
 20
117.0978285053011
 30
0.0
 11
-858.9292448112402
 21
117.0978285053009
 31
0.0
1001
REVIT
1002
{
1070
     1
1000
5121789
1002
}
1002
{
1070
     5
1000
5124534
1002
}
1002
{
1070
     2
1000
-2000011
1002
}
  0
LINE
  5
97
330
70
100
AcDbEntity
  8
A-WALL
370
    40
100
AcDbLine
 10
-853.9292448112401
 20
117.0978285053009
 30
0.0
 11
-544.9292448112402
 21
117.0978285053004
 31
0.0
1001
REVIT
1002
{
1070
     1
1000
5121789
1002
}
1002
{
1070
     5
1000
5124534
1002
}
1002
{
1070
     2
1000
-2000011
1002
}
  0
LINE
  5
99
330
70
100
AcDbEntity
  8
A-WALL
370
    40
100
AcDbLine
 10
-533.9292448112403
 20
128.0978285053003
 30
0.0
 11
-1005.92924481124
 21
128.0978285053012
 31
0.0
1001
REVIT
1002
{
1070
     1
1000
5121789
1002
}
1002
{
1070
     5
1000
5124534
1002
}
1002
{
1070
     2
1000
-2000011
1002
}
  0
LINE
  5
9A
330
70
100
AcDbEntity
  8
A-WALL
370
    40
100
AcDbLine
 10
-544.9292448112402
 20
117.0978285053003
 30
0.0
 11
-544.929244811241
 21
-308.9021714946995
 31
0.0
1001
REVIT
1002
{
1070
     1
1000
5121922
1002
}
1002
{
1070
     5
1000
5124534
1002
}
1002
{
1070
     2
1000
-2000011
1002
}
  0
LINE
  5
9B
330
70
100
AcDbEntity
  8
A-WALL
370
    40
100
AcDbLine
 10
-544.929244811241
 20
-313.9021714946996
 30
0.0
 11
-544.9292448112413
 21
-400.9021714946995
 31
0.0
1001
REVIT
1002
{
1070
     1
1000
5121922
1002
}
1002
{
1070
     5
1000
5124534
1002
}
1002
{
1070
     2
1000
-2000011
1002
}
  0
LINE
  5
9C
330
70
100
AcDbEntity
  8
A-WALL
370
    40
100
AcDbLine
 10
-544.9292448112413
 20
-415.9021714946995
 30
0.0
 11
-544.9292448112415
 21
-568.4021714946994
 31
0.0
1001
REVIT
1002
{
1070
     1
1000
5121922
1002
}
1002
{
1070
     5
1000
5124534
1002
}
1002
{
1070
     2
1000
-2000011
1002
}
  0
LINE
  5
9E
330
70
100
AcDbEntity
  8
A-WALL
370
    40
100
AcDbLine
 10
-533.9292448112415
 20
-583.4021714946995
 30
0.0
 11
-533.9292448112403
 21
128.0978285053003
 31
0.0
1001
REVIT
1002
{
1070
     1
1000
5121922
1002
}
1002
{
1070
     5
1000
5124534
1002
}
1002
{
1070
     2
1000
-2000011
1002
}
  0
LINE
  5
9F
330
70
100
AcDbEntity
  8
A-WALL
370
    40
100
AcDbLine
 10
-544.9292448112415
 20
-568.4021714946996
 30
0.0
 11
-573.2622892939826
 21
-568.4021714946994
 31
0.0
1001
REVIT
1002
{
1070
     1
1000
5122136
1002
}
1002
{
1070
     5
1000
5123281
1002
}
1002
{
1070
     2
1000
-2000011
1002
}
  0
LINE
  5
A1
330
70
100
AcDbEntity
  8
A-WALL
370
    40
100
AcDbLine
 10
-569.9292448112442
 20
-583.4021714946994
 30
0.0
 11
-533.9292448112415
 21
-583.4021714946995
 31
0.0
1001
REVIT
1002
{
1070
     1
1000
5122136
1002
}
1002
{
1070
     5
1000
5123281
1002
}
1002
{
1070
     2
1000
-2000011
1002
}
  0
LINE
  5
A2
330
70
100
AcDbEntity
  8
A-WALL
370
    40
100
AcDbLine
 10
-580.929244811244
 20
-574.8773516011689
 30
0.0
 11
-580.9292448112446
 21
-883.9021714946992
 31
0.0
1001
REVIT
1002
{
1070
     1
1000
5122260
1002
}
1002
{
1070
     5
1000
5124534
1002
}
1002
{
1070
     2
1000
-2000011
1002
}
  0
LINE
  5
A3
330
70
100
AcDbEntity
  8
A-WALL
370
    40
100
AcDbLine
 10
-580.9292448112447
 20
-888.9021714946995
 30
0.0
 11
-580.9292448112447
 21
-909.4021714946991
 31
0.0
1001
REVIT
1002
{
1070
     1
1000
5122260
1002
}
1002
{
1070
     5
1000
5124534
1002
}
1002
{
1070
     2
1000
-2000011
1002
}
  0
LINE
  5
A4
330
70
100
AcDbEntity
  8
A-WALL
370
    40
100
AcDbLine
 10
-580.9292448112447
 20
-914.4021714946992
 30
0.0
 11
-580.9292448112447
 21
-914.9021714946997
 31
0.0
1001
REVIT
1002
{
1070
     1
1000
5122260
1002
}
1002
{
1070
     5
1000
5124534
1002
}
1002
{
1070
     2
1000
-2000011
1002
}
  0
LINE
  5
A6
330
70
100
AcDbEntity
  8
A-WALL
370
    40
100
AcDbLine
 10
-569.9292448112447
 20
-903.9021714946995
 30
0.0
 11
-569.9292448112445
 21
-751.4021714946993
 31
0.0
1001
REVIT
1002
{
1070
     1
1000
5122260
1002
}
1002
{
1070
     5
1000
5124534
1002
}
1002
{
1070
     2
1000
-2000011
1002
}
  0
LINE
  5
A7
330
70
100
AcDbEntity
  8
A-WALL
370
    40
100
AcDbLine
 10
-569.9292448112445
 20
-736.4021714946993
 30
0.0
 11
-569.9292448112442
 21
-583.4021714946994
 31
0.0
1001
REVIT
1002
{
1070
     1
1000
5122260
1002
}
1002
{
1070
     5
1000
5124534
1002
}
1002
{
1070
     2
1000
-2000011
1002
}
  0
LINE
  5
A8
330
70
100
AcDbEntity
  8
A-WALL
370
    40
100
AcDbLine
 10
-580.9292448112447
 20
-914.9021714946997
 30
0.0
 11
-496.9292448112456
 21
-914.9021714946998
 31
0.0
1001
REVIT
1002
{
1070
     1
1000
5122387
1002
}
1002
{
1070
     5
1000
5124534
1002
}
1002
{
1070
     2
1000
-2000011
1002
}
  0
LINE
  5
AA
330
70
100
AcDbEntity
  8
A-WALL
370
    40
100
AcDbLine
 10
-485.9292448112456
 20
-903.9021714946997
 30
0.0
 11
-569.9292448112447
 21
-903.9021714946995
 31
0.0
1001
REVIT
1002
{
1070
     1
1000
5122387
1002
}
1002
{
1070
     5
1000
5124534
1002
}
1002
{
1070
     2
1000
-2000011
1002
}
  0
LINE
  5
AB
330
70
100
AcDbEntity
  8
A-WALL
370
    40
100
AcDbLine
 10
-496.9292448112456
 20
-914.9021714946998
 30
0.0
 11
-496.9292448112463
 21
-1052.902171494699
 31
0.0
1001
REVIT
1002
{
1070
     1
1000
5122449
1002
}
1002
{
1070
     5
1000
5124534
1002
}
1002
{
1070
     2
1000
-2000011
1002
}
  0
LINE
  5
AD
330
70
100
AcDbEntity
  8
A-WALL
370
    40
100
AcDbLine
 10
-485.9292448112464
 20
-1063.902171494699
 30
0.0
 11
-485.9292448112456
 21
-903.9021714946997
 31
0.0
1001
REVIT
1002
{
1070
     1
1000
5122449
1002
}
1002
{
1070
     5
1000
5124534
1002
}
1002
{
1070
     2
1000
-2000011
1002
}
  0
LINE
  5
AE
330
70
100
AcDbEntity
  8
A-WALL
370
    40
100
AcDbLine
 10
-496.9292448112463
 20
-1052.902171494699
 30
0.0
 11
-614.9292448112425
 21
-1052.902171494699
 31
0.0
1001
REVIT
1002
{
1070
     1
1000
5122572
1002
}
1002
{
1070
     5
1000
5124534
1002
}
1002
{
1070
     2
1000
-2000011
1002
}
  0
LINE
  5
AF
330
70
100
AcDbEntity
  8
A-WALL
370
    40
100
AcDbLine
 10
-619.9292448112423
 20
-1052.902171494699
 30
0.0
 11
-733.9292448112464
 21
-1052.902171494699
 31
0.0
1001
REVIT
1002
{
1070
     1
1000
5122572
1002
}
1002
{
1070
     5
1000
5124534
1002
}
1002
{
1070
     2
1000
-2000011
1002
}
  0
LINE
  5
B0
330
70
100
AcDbEntity
  8
A-WALL
370
    40
100
AcDbLine
 10
-741.9292448112464
 20
-1052.902171494699
 30
0.0
 11
-797.9292448112463
 21
-1052.902171494699
 31
0.0
1001
REVIT
1002
{
1070
     1
1000
5122572
1002
}
1002
{
1070
     5
1000
5124534
1002
}
1002
{
1070
     2
1000
-2000011
1002
}
  0
LINE
  5
B1
330
70
100
AcDbEntity
  8
A-WALL
370
    40
100
AcDbLine
 10
-805.9292448112463
 20
-1052.902171494699
 30
0.0
 11
-994.9292448112462
 21
-1052.902171494698
 31
0.0
1001
REVIT
1002
{
1070
     1
1000
5122572
1002
}
1002
{
1070
     5
1000
5124534
1002
}
1002
{
1070
     2
1000
-2000011
1002
}
  0
LINE
  5
B2
330
70
100
AcDbEntity
  8
A-WALL
370
    40
100
AcDbLine
 10
-1005.929244811246
 20
-1063.902171494698
 30
0.0
 11
-485.9292448112464
 21
-1063.902171494699
 31
0.0
1001
REVIT
1002
{
1070
     1
1000
5122572
1002
}
1002
{
1070
     5
1000
5124534
1002
}
1002
{
1070
     2
1000
-2000011
1002
}
  0
LINE
  5
B3
330
70
100
AcDbEntity
  8
A-WALL
370
    40
100
AcDbLine
 10
-994.9292448112446
 20
-746.6521714946987
 30
0.0
 11
-958.9292448112438
 21
-746.6521714946988
 31
0.0
1001
REVIT
1002
{
1070
     1
1000
5122727
1002
}
1002
{
1070
     5
1000
639164
1002
}
1002
{
1070
     2
1000
-2000011
1002
}
  0
LINE
  5
B5
330
70
100
AcDbEntity
  8
A-WALL
370
    40
100
AcDbLine
 10
-968.9292448112436
 20
-734.6521714946987
 30
0.0
 11
-994.9292448112444
 21
-734.6521714946987
 31
0.0
1001
REVIT
1002
{
1070
     1
1000
5122727
1002
}
1002
{
1070
     5
1000
639164
1002
}
1002
{
1070
     2
1000
-2000011
1002
}
  0
LINE
  5
B6
330
70
100
AcDbEntity
  8
A-WALL
370
    40
100
AcDbLine
 10
-958.9292448112438
 20
-746.6521714946988
 30
0.0
 11
-958.9292448112431
 21
-405.1521714946988
 31
0.0
1001
REVIT
1002
{
1070
     1
1000
5122779
1002
}
1002
{
1070
     5
1000
5121484
1002
}
1002
{
1070
     2
1000
-2000011
1002
}
  0
LINE
  5
B8
330
70
100
AcDbEntity
  8
A-WALL
370
    40
100
AcDbLine
 10
-968.929244811243
 20
-417.1521714946988
 30
0.0
 11
-968.9292448112432
 21
-568.4021714946986
 31
0.0
1001
REVIT
1002
{
1070
     1
1000
5122779
1002
}
1002
{
1070
     5
1000
5121484
1002
}
1002
{
1070
     2
1000
-2000011
1002
}
  0
LINE
  5
B9
330
70
100
AcDbEntity
  8
A-WALL
370
    40
100
AcDbLine
 10
-968.9292448112434
 20
-583.4021714946986
 30
0.0
 11
-968.9292448112437
 21
-734.6521714946987
 31
0.0
1001
REVIT
1002
{
1070
     1
1000
5122779
1002
}
1002
{
1070
     5
1000
5121484
1002
}
1002
{
1070
     2
1000
-2000011
1002
}
  0
LINE
  5
BA
330
70
100
AcDbEntity
  8
A-WALL
370
    40
100
AcDbLine
 10
-958.9292448112431
 20
-405.1521714946988
 30
0.0
 11
-994.9292448112428
 21
-405.1521714946987
 31
0.0
1001
REVIT
1002
{
1070
     1
1000
5122811
1002
}
1002
{
1070
     5
1000
639164
1002
}
1002
{
1070
     2
1000
-2000011
1002
}
  0
LINE
  5
BB
330
70
100
AcDbEntity
  8
A-WALL
370
    40
100
AcDbLine
 10
-994.9292448112428
 20
-417.1521714946987
 30
0.0
 11
-968.9292448112432
 21
-417.1521714946988
 31
0.0
1001
REVIT
1002
{
1070
     1
1000
5122811
1002
}
1002
{
1070
     5
1000
639164
1002
}
1002
{
1070
     2
1000
-2000011
1002
}
  0
LINE
  5
BC
330
70
100
AcDbEntity
  8
A-WALL
370
    40
100
AcDbLine
 10
-544.9292448112412
 20
-400.9021714946995
 30
0.0
 11
-644.9292448112412
 21
-400.9021714946991
 31
0.0
1001
REVIT
1002
{
1070
     1
1000
5122951
1002
}
1002
{
1070
     5
1000
5123281
1002
}
1002
{
1070
     2
1000
-2000011
1002
}
  0
LINE
  5
BE
330
70
100
AcDbEntity
  8
A-WALL
370
    40
100
AcDbLine
 10
-634.9292448112412
 20
-415.9021714946992
 30
0.0
 11
-544.9292448112412
 21
-415.9021714946995
 31
0.0
1001
REVIT
1002
{
1070
     1
1000
5122951
1002
}
1002
{
1070
     5
1000
5123281
1002
}
1002
{
1070
     2
1000
-2000011
1002
}
  0
LINE
  5
BF
330
70
100
AcDbEntity
  8
A-WALL
370
    40
100
AcDbLine
 10
-644.9292448112412
 20
-405.902171494699
 30
0.0
 11
-644.9292448112414
 21
-510.8773516011713
 31
0.0
1001
REVIT
1002
{
1070
     1
1000
5122998
1002
}
1002
{
1070
     5
1000
5121484
1002
}
1002
{
1070
     2
1000
-2000011
1002
}
  0
LINE
  5
C1
330
70
100
AcDbEntity
  8
A-WALL
370
    40
100
AcDbLine
 10
-634.9292448112414
 20
-506.7352159774404
 30
0.0
 11
-634.9292448112412
 21
-415.9021714946992
 31
0.0
1001
REVIT
1002
{
1070
     1
1000
5122998
1002
}
1002
{
1070
     5
1000
5121484
1002
}
1002
{
1070
     2
1000
-2000011
1002
}
  0
LINE
  5
C2
330
70
100
AcDbEntity
  8
A-WALL
370
    40
100
AcDbLine
 10
-644.9292448112414
 20
-510.8773516011713
 30
0.0
 11
-580.9292448112442
 21
-574.8773516011689
 31
0.0
1001
REVIT
1002
{
1070
     1
1000
5123047
1002
}
1002
{
1070
     5
1000
5121484
1002
}
1002
{
1070
     2
1000
-2000011
1002
}
  0
LINE
  5
C3
330
70
100
AcDbEntity
  8
A-WALL
370
    40
100
AcDbLine
 10
-573.2622892939826
 20
-568.4021714946996
 30
0.0
 11
-634.9292448112414
 21
-506.7352159774404
 31
0.0
1001
REVIT
1002
{
1070
     1
1000
5123047
1002
}
1002
{
1070
     5
1000
5121484
1002
}
1002
{
1070
     2
1000
-2000011
1002
}
  0
LINE
  5
C4
330
70
100
AcDbEntity
  8
A-WALL
370
    40
100
AcDbLine
 10
-569.9292448112445
 20
-751.4021714946993
 30
0.0
 11
-533.929244811242
 21
-751.4021714946996
 31
0.0
1001
REVIT
1002
{
1070
     1
1000
5123228
1002
}
1002
{
1070
     5
1000
5123281
1002
}
1002
{
1070
     2
1000
-2000011
1002
}
  0
LINE
  5
C5
330
70
100
AcDbEntity
  8
A-WALL
370
    40
100
AcDbLine
 10
-533.929244811242
 20
-751.4021714946996
 30
0.0
 11
-533.9292448112419
 21
-736.4021714946995
 31
0.0
1001
REVIT
1002
{
1070
     1
1000
5123228
1002
}
1002
{
1070
     5
1000
5123281
1002
}
1002
{
1070
     2
1000
-2000011
1002
}
  0
LINE
  5
C6
330
70
100
AcDbEntity
  8
A-WALL
370
    40
100
AcDbLine
 10
-533.9292448112419
 20
-736.4021714946995
 30
0.0
 11
-569.9292448112443
 21
-736.4021714946993
 31
0.0
1001
REVIT
1002
{
1070
     1
1000
5123228
1002
}
1002
{
1070
     5
1000
5123281
1002
}
1002
{
1070
     2
1000
-2000011
1002
}
  0
LINE
  5
C7
330
70
100
AcDbEntity
  8
A-WALL
370
    40
100
AcDbLine
 10
-994.9292448112439
 20
-583.4021714946985
 30
0.0
 11
-968.9292448112434
 21
-583.4021714946986
 31
0.0
1001
REVIT
1002
{
1070
     1
1000
5123961
1002
}
1002
{
1070
     5
1000
5123281
1002
}
1002
{
1070
     2
1000
-2000011
1002
}
  0
LINE
  5
C8
330
70
100
AcDbEntity
  8
A-WALL
370
    40
100
AcDbLine
 10
-968.9292448112434
 20
-568.4021714946986
 30
0.0
 11
-994.9292448112435
 21
-568.4021714946986
 31
0.0
1001
REVIT
1002
{
1070
     1
1000
5123961
1002
}
1002
{
1070
     5
1000
5123281
1002
}
1002
{
1070
     2
1000
-2000011
1002
}
  0
LINE
  5
C9
330
70
100
AcDbEntity
  8
A-WALL
370
    40
100
AcDbLine
 10
-797.9292448112463
 20
-1052.902171494699
 30
0.0
 11
-797.929244811246
 21
-1002.902171494699
 31
0.0
1001
REVIT
1002
{
1070
     1
1000
5124344
1002
}
1002
{
1070
     5
1000
639163
1002
}
1002
{
1070
     2
1000
-2000011
1002
}
  0
LINE
  5
CB
330
70
100
AcDbEntity
  8
A-WALL
370
    40
100
AcDbLine
 10
-805.929244811246
 20
-994.902171494699
 30
0.0
 11
-805.9292448112463
 21
-1052.902171494699
 31
0.0
1001
REVIT
1002
{
1070
     1
1000
5124344
1002
}
1002
{
1070
     5
1000
639163
1002
}
1002
{
1070
     2
1000
-2000011
1002
}
  0
LINE
  5
CC
330
70
100
AcDbEntity
  8
A-WALL
370
    40
100
AcDbLine
 10
-797.929244811246
 20
-1002.902171494699
 30
0.0
 11
-741.9292448112461
 21
-1002.902171494699
 31
0.0
1001
REVIT
1002
{
1070
     1
1000
5124399
1002
}
1002
{
1070
     5
1000
639163
1002
}
1002
{
1070
     2
1000
-2000011
1002
}
  0
LINE
  5
CE
330
70
100
AcDbEntity
  8
A-WALL
370
    40
100
AcDbLine
 10
-738.9292448112462
 20
-994.9021714946992
 30
0.0
 11
-805.929244811246
 21
-994.902171494699
 31
0.0
1001
REVIT
1002
{
1070
     1
1000
5124399
1002
}
1002
{
1070
     5
1000
639163
1002
}
1002
{
1070
     2
1000
-2000011
1002
}
  0
LINE
  5
CF
330
70
100
AcDbEntity
  8
A-WALL
370
    40
100
AcDbLine
 10
-741.9292448112461
 20
-1002.902171494699
 30
0.0
 11
-741.9292448112464
 21
-1052.902171494699
 31
0.0
1001
REVIT
1002
{
1070
     1
1000
5124443
1002
}
1002
{
1070
     5
1000
639163
1002
}
1002
{
1070
     2
1000
-2000011
1002
}
  0
LINE
  5
D0
330
70
100
AcDbEntity
  8
A-WALL
370
    40
100
AcDbLine
 10
-733.9292448112464
 20
-1052.902171494699
 30
0.0
 11
-733.9292448112461
 21
-994.9021714946992
 31
0.0
1001
REVIT
1002
{
1070
     1
1000
5124443
1002
}
1002
{
1070
     5
1000
639163
1002
}
1002
{
1070
     2
1000
-2000011
1002
}
  0
LINE
  5
D1
330
70
100
AcDbEntity
  8
I-WALL
370
    40
100
AcDbLine
 10
-803.4292448112454
 20
-909.4021714946986
 30
0.0
 11
-803.4292448112427
 21
-405.9021714946986
 31
0.0
1001
REVIT
1002
{
1070
     1
1000
5124964
1002
}
1002
{
1070
     5
1000
639165
1002
}
1002
{
1070
     2
1000
-2000011
1002
}
  0
LINE
  5
D2
330
70
100
AcDbEntity
  8
I-WALL
370
    40
100
AcDbLine
 10
-808.4292448112426
 20
-382.9021714946835
 30
0.0
 11
-808.4292448112455
 21
-914.4021714946985
 31
0.0
1001
REVIT
1002
{
1070
     1
1000
5124964
1002
}
1002
{
1070
     5
1000
639165
1002
}
1002
{
1070
     2
1000
-2000011
1002
}
  0
LINE
  5
D3
330
70
100
AcDbEntity
  8
I-WALL
370
    40
100
AcDbLine
 10
-808.4292448112455
 20
-914.4021714946985
 30
0.0
 11
-800.4292448112307
 21
-914.4021714946985
 31
0.0
1001
REVIT
1002
{
1070
     1
1000
5124964
1002
}
1002
{
1070
     5
1000
639165
1002
}
1002
{
1070
     2
1000
-2000011
1002
}
  0
LINE
  5
D4
330
70
100
AcDbEntity
  8
I-WALL
370
    40
100
AcDbLine
 10
-803.4292448112427
 20
-405.9021714946985
 30
0.0
 11
-644.9292448112412
 21
-405.902171494699
 31
0.0
1001
REVIT
1002
{
1070
     1
1000
5125021
1002
}
1002
{
1070
     5
1000
639165
1002
}
1002
{
1070
     2
1000
-2000011
1002
}
  0
LINE
  5
D5
330
70
100
AcDbEntity
  8
I-WALL
370
    40
100
AcDbLine
 10
-644.9292448112412
 20
-400.9021714946991
 30
0.0
 11
-803.4292448112427
 21
-400.9021714946986
 31
0.0
1001
REVIT
1002
{
1070
     1
1000
5125021
1002
}
1002
{
1070
     5
1000
639165
1002
}
1002
{
1070
     2
1000
-2000011
1002
}
  0
LINE
  5
D6
330
70
100
AcDbEntity
  8
I-WALL
370
    40
100
AcDbLine
 10
-696.5542448112452
 20
-909.4021714946988
 30
0.0
 11
-696.5542448112451
 21
-888.9021714946991
 31
0.0
1001
REVIT
1002
{
1070
     1
1000
5125328
1002
}
1002
{
1070
     5
1000
639165
1002
}
1002
{
1070
     2
1000
-2000011
1002
}
  0
LINE
  5
D8
330
70
100
AcDbEntity
  8
I-WALL
370
    40
100
AcDbLine
 10
-701.5542448112451
 20
-883.9021714946991
 30
0.0
 11
-701.5542448112451
 21
-909.4021714946988
 31
0.0
1001
REVIT
1002
{
1070
     1
1000
5125328
1002
}
1002
{
1070
     5
1000
639165
1002
}
1002
{
1070
     2
1000
-2000011
1002
}
  0
LINE
  5
D9
330
70
100
AcDbEntity
  8
I-WALL
370
    40
100
AcDbLine
 10
-696.5542448112451
 20
-888.9021714946991
 30
0.0
 11
-580.9292448112446
 21
-888.9021714946995
 31
0.0
1001
REVIT
1002
{
1070
     1
1000
5125391
1002
}
1002
{
1070
     5
1000
639165
1002
}
1002
{
1070
     2
1000
-2000011
1002
}
  0
LINE
  5
DA
330
70
100
AcDbEntity
  8
I-WALL
370
    40
100
AcDbLine
 10
-580.9292448112446
 20
-883.9021714946992
 30
0.0
 11
-701.5542448112451
 21
-883.9021714946991
 31
0.0
1001
REVIT
1002
{
1070
     1
1000
5125391
1002
}
1002
{
1070
     5
1000
639165
1002
}
1002
{
1070
     2
1000
-2000011
1002
}
  0
LINE
  5
DB
330
70
100
AcDbEntity
  8
I-WALL
370
    40
100
AcDbLine
 10
-614.9292448112425
 20
-1052.902171494699
 30
0.0
 11
-614.9292448112421
 21
-971.1521714946991
 31
0.0
1001
REVIT
1002
{
1070
     1
1000
5125509
1002
}
1002
{
1070
     5
1000
639165
1002
}
1002
{
1070
     2
1000
-2000011
1002
}
  0
LINE
  5
DC
330
70
100
AcDbEntity
  8
I-WALL
370
    40
100
AcDbLine
 10
-619.929244811242
 20
-971.1521714946989
 30
0.0
 11
-619.9292448112423
 21
-1052.902171494699
 31
0.0
1001
REVIT
1002
{
1070
     1
1000
5125509
1002
}
1002
{
1070
     5
1000
639165
1002
}
1002
{
1070
     2
1000
-2000011
1002
}
  0
LINE
  5
DD
330
70
100
AcDbEntity
  8
I-WALL
370
    40
100
AcDbLine
 10
-598.80524306124
 20
-1002.583024630238
 30
0.0
 11
-542.8052430612401
 21
-1002.583024630238
 31
0.0
1001
REVIT
1002
{
1070
     1
1000
5125593
1002
}
1002
{
1070
     5
1000
639165
1002
}
1002
{
1070
     2
1000
-2000011
1002
}
  0
LINE
  5
DF
330
70
100
AcDbEntity
  8
I-WALL
370
    40
100
AcDbLine
 10
-547.80524306124
 20
-997.5830246302383
 30
0.0
 11
-598.80524306124
 21
-997.5830246302379
 31
0.0
1001
REVIT
1002
{
1070
     1
1000
5125593
1002
}
1002
{
1070
     5
1000
639165
1002
}
1002
{
1070
     2
1000
-2000011
1002
}
  0
LINE
  5
E0
330
70
100
AcDbEntity
  8
I-WALL
370
    40
100
AcDbLine
 10
-598.80524306124
 20
-997.5830246302379
 30
0.0
 11
-598.80524306124
 21
-1002.583024630238
 31
0.0
1001
REVIT
1002
{
1070
     1
1000
5125593
1002
}
1002
{
1070
     5
1000
639165
1002
}
1002
{
1070
     2
1000
-2000011
1002
}
  0
LINE
  5
E1
330
70
100
AcDbEntity
  8
I-WALL
370
    40
100
AcDbLine
 10
-542.8052430612401
 20
-1002.583024630238
 30
0.0
 11
-542.80524306124
 21
-966.1521714946992
 31
0.0
1001
REVIT
1002
{
1070
     1
1000
5125649
1002
}
1002
{
1070
     5
1000
639165
1002
}
1002
{
1070
     2
1000
-2000011
1002
}
  0
LINE
  5
E3
330
70
100
AcDbEntity
  8
I-WALL
370
    40
100
AcDbLine
 10
-547.80524306124
 20
-971.1521714946993
 30
0.0
 11
-547.8052430612401
 21
-997.5830246302383
 31
0.0
1001
REVIT
1002
{
1070
     1
1000
5125649
1002
}
1002
{
1070
     5
1000
639165
1002
}
1002
{
1070
     2
1000
-2000011
1002
}
  0
LINE
  5
E4
330
70
100
AcDbEntity
  8
I-WALL
370
    40
100
AcDbLine
 10
-542.80524306124
 20
-966.1521714946992
 30
0.0
 11
-683.9292448112423
 21
-966.1521714946989
 31
0.0
1001
REVIT
1002
{
1070
     1
1000
5125775
1002
}
1002
{
1070
     5
1000
639165
1002
}
1002
{
1070
     2
1000
-2000011
1002
}
  0
LINE
  5
E5
330
70
100
AcDbEntity
  8
I-WALL
370
    40
100
AcDbLine
 10
-688.9292448112423
 20
-966.1521714946987
 30
0.0
 11
-690.9292448112425
 21
-966.1521714946987
 31
0.0
1001
REVIT
1002
{
1070
     1
1000
5125775
1002
}
1002
{
1070
     5
1000
639165
1002
}
1002
{
1070
     2
1000
-2000011
1002
}
  0
LINE
  5
E6
330
70
100
AcDbEntity
  8
I-WALL
370
    40
100
AcDbLine
 10
-690.9292448112425
 20
-966.1521714946987
 30
0.0
 11
-690.9292448112425
 21
-971.1521714946988
 31
0.0
1001
REVIT
1002
{
1070
     1
1000
5125775
1002
}
1002
{
1070
     5
1000
639165
1002
}
1002
{
1070
     2
1000
-2000011
1002
}
  0
LINE
  5
E7
330
70
100
AcDbEntity
  8
I-WALL
370
    40
100
AcDbLine
 10
-690.9292448112425
 20
-971.1521714946988
 30
0.0
 11
-619.929244811242
 21
-971.1521714946989
 31
0.0
1001
REVIT
1002
{
1070
     1
1000
5125775
1002
}
1002
{
1070
     5
1000
639165
1002
}
1002
{
1070
     2
1000
-2000011
1002
}
  0
LINE
  5
E8
330
70
100
AcDbEntity
  8
I-WALL
370
    40
100
AcDbLine
 10
-614.9292448112421
 20
-971.1521714946989
 30
0.0
 11
-547.80524306124
 21
-971.1521714946993
 31
0.0
1001
REVIT
1002
{
1070
     1
1000
5125775
1002
}
1002
{
1070
     5
1000
639165
1002
}
1002
{
1070
     2
1000
-2000011
1002
}
  0
LINE
  5
E9
330
70
100
AcDbEntity
  8
I-WALL
370
    40
100
AcDbLine
 10
-724.9292448112414
 20
-966.1521714946985
 30
0.0
 11
-738.929244811246
 21
-966.1521714946985
 31
0.0
1001
REVIT
1002
{
1070
     1
1000
5125775
1002
}
1002
{
1070
     5
1000
639165
1002
}
1002
{
1070
     2
1000
-2000011
1002
}
  0
LINE
  5
EB
330
70
100
AcDbEntity
  8
I-WALL
370
    40
100
AcDbLine
 10
-733.9292448112461
 20
-971.1521714946986
 30
0.0
 11
-724.9292448112414
 21
-971.1521714946986
 31
0.0
1001
REVIT
1002
{
1070
     1
1000
5125775
1002
}
1002
{
1070
     5
1000
639165
1002
}
1002
{
1070
     2
1000
-2000011
1002
}
  0
LINE
  5
EC
330
70
100
AcDbEntity
  8
I-WALL
370
    40
100
AcDbLine
 10
-724.9292448112414
 20
-971.1521714946986
 30
0.0
 11
-724.9292448112414
 21
-966.1521714946985
 31
0.0
1001
REVIT
1002
{
1070
     1
1000
5125775
1002
}
1002
{
1070
     5
1000
639165
1002
}
1002
{
1070
     2
1000
-2000011
1002
}
  0
LINE
  5
ED
330
70
100
AcDbEntity
  8
I-WALL
370
    40
100
AcDbLine
 10
-738.929244811246
 20
-966.1521714946985
 30
0.0
 11
-738.9292448112462
 21
-994.9021714946992
 31
0.0
1001
REVIT
1002
{
1070
     1
1000
5125824
1002
}
1002
{
1070
     5
1000
639165
1002
}
1002
{
1070
     2
1000
-2000011
1002
}
  0
LINE
  5
EE
330
70
100
AcDbEntity
  8
I-WALL
370
    40
100
AcDbLine
 10
-733.9292448112462
 20
-994.9021714946992
 30
0.0
 11
-733.9292448112461
 21
-971.1521714946986
 31
0.0
1001
REVIT
1002
{
1070
     1
1000
5125824
1002
}
1002
{
1070
     5
1000
639165
1002
}
1002
{
1070
     2
1000
-2000011
1002
}
  0
LINE
  5
EF
330
70
100
AcDbEntity
  8
I-WALL
370
    40
100
AcDbLine
 10
-683.9292448112423
 20
-966.1521714946987
 30
0.0
 11
-683.9292448112423
 21
-960.1521714946843
 31
0.0
1001
REVIT
1002
{
1070
     1
1000
5125978
1002
}
1002
{
1070
     5
1000
639165
1002
}
1002
{
1070
     2
1000
-2000011
1002
}
  0
LINE
  5
F0
330
70
100
AcDbEntity
  8
I-WALL
370
    40
100
AcDbLine
 10
-683.9292448112423
 20
-960.1521714946843
 30
0.0
 11
-688.9292448112423
 21
-960.1521714946843
 31
0.0
1001
REVIT
1002
{
1070
     1
1000
5125978
1002
}
1002
{
1070
     5
1000
639165
1002
}
1002
{
1070
     2
1000
-2000011
1002
}
  0
LINE
  5
F1
330
70
100
AcDbEntity
  8
I-WALL
370
    40
100
AcDbLine
 10
-688.9292448112423
 20
-960.1521714946843
 30
0.0
 11
-688.9292448112423
 21
-966.1521714946987
 31
0.0
1001
REVIT
1002
{
1070
     1
1000
5125978
1002
}
1002
{
1070
     5
1000
639165
1002
}
1002
{
1070
     2
1000
-2000011
1002
}
  0
LINE
  5
F2
330
70
100
AcDbEntity
  8
I-WALL
370
    40
100
AcDbLine
 10
-683.9292448112421
 20
-920.152171494684
 30
0.0
 11
-683.9292448112421
 21
-914.4021714946989
 31
0.0
1001
REVIT
1002
{
1070
     1
1000
5125978
1002
}
1002
{
1070
     5
1000
639165
1002
}
1002
{
1070
     2
1000
-2000011
1002
}
  0
LINE
  5
F3
330
70
100
AcDbEntity
  8
I-WALL
370
    40
100
AcDbLine
 10
-688.929244811242
 20
-914.4021714946989
 30
0.0
 11
-688.929244811242
 21
-920.152171494684
 31
0.0
1001
REVIT
1002
{
1070
     1
1000
5125978
1002
}
1002
{
1070
     5
1000
639165
1002
}
1002
{
1070
     2
1000
-2000011
1002
}
  0
LINE
  5
F4
330
70
100
AcDbEntity
  8
I-WALL
370
    40
100
AcDbLine
 10
-688.929244811242
 20
-920.152171494684
 30
0.0
 11
-683.9292448112421
 21
-920.152171494684
 31
0.0
1001
REVIT
1002
{
1070
     1
1000
5125978
1002
}
1002
{
1070
     5
1000
639165
1002
}
1002
{
1070
     2
1000
-2000011
1002
}
  0
LINE
  5
F5
330
70
100
AcDbEntity
  8
I-WALL
370
    40
100
AcDbLine
 10
-580.9292448112447
 20
-909.4021714946991
 30
0.0
 11
-696.5542448112452
 21
-909.4021714946988
 31
0.0
1001
REVIT
1002
{
1070
     1
1000
5126287
1002
}
1002
{
1070
     5
1000
639165
1002
}
1002
{
1070
     2
1000
-2000011
1002
}
  0
LINE
  5
F6
330
70
100
AcDbEntity
  8
I-WALL
370
    40
100
AcDbLine
 10
-701.5542448112451
 20
-909.4021714946986
 30
0.0
 11
-760.4292448112305
 21
-909.4021714946986
 31
0.0
1001
REVIT
1002
{
1070
     1
1000
5126287
1002
}
1002
{
1070
     5
1000
639165
1002
}
1002
{
1070
     2
1000
-2000011
1002
}
  0
LINE
  5
F7
330
70
100
AcDbEntity
  8
I-WALL
370
    40
100
AcDbLine
 10
-760.4292448112305
 20
-909.4021714946986
 30
0.0
 11
-760.4292448112305
 21
-914.4021714946985
 31
0.0
1001
REVIT
1002
{
1070
     1
1000
5126287
1002
}
1002
{
1070
     5
1000
639165
1002
}
1002
{
1070
     2
1000
-2000011
1002
}
  0
LINE
  5
F8
330
70
100
AcDbEntity
  8
I-WALL
370
    40
100
AcDbLine
 10
-760.4292448112305
 20
-914.4021714946985
 30
0.0
 11
-688.929244811242
 21
-914.4021714946989
 31
0.0
1001
REVIT
1002
{
1070
     1
1000
5126287
1002
}
1002
{
1070
     5
1000
639165
1002
}
1002
{
1070
     2
1000
-2000011
1002
}
  0
LINE
  5
F9
330
70
100
AcDbEntity
  8
I-WALL
370
    40
100
AcDbLine
 10
-683.9292448112421
 20
-914.4021714946989
 30
0.0
 11
-580.9292448112447
 21
-914.4021714946992
 31
0.0
1001
REVIT
1002
{
1070
     1
1000
5126287
1002
}
1002
{
1070
     5
1000
639165
1002
}
1002
{
1070
     2
1000
-2000011
1002
}
  0
LINE
  5
FA
330
70
100
AcDbEntity
  8
I-WALL
370
    40
100
AcDbLine
 10
-800.4292448112307
 20
-909.4021714946986
 30
0.0
 11
-803.4292448112454
 21
-909.4021714946986
 31
0.0
1001
REVIT
1002
{
1070
     1
1000
5126287
1002
}
1002
{
1070
     5
1000
639165
1002
}
1002
{
1070
     2
1000
-2000011
1002
}
  0
LINE
  5
FC
330
70
100
AcDbEntity
  8
I-WALL
370
    40
100
AcDbLine
 10
-800.4292448112307
 20
-914.4021714946985
 30
0.0
 11
-800.4292448112307
 21
-909.4021714946986
 31
0.0
1001
REVIT
1002
{
1070
     1
1000
5126287
1002
}
1002
{
1070
     5
1000
639165
1002
}
1002
{
1070
     2
1000
-2000011
1002
}
  0
INSERT
  5
11D
330
70
100
AcDbEntity
  8
A-DOOR
370
     9
100
AcDbBlockReference
  2
Door-Single_CE_ - HM Door-2_ HM Frame-5129110-BASEMENT Map Export
 10
-780.4292448112305
 20
-911.9021714946985
 30
0.0
 50
180.0
1001
REVIT
1002
{
1070
     1
1000
5129026
1002
}
1002
{
1070
     5
1000
4450563
1002
}
1002
{
1070
     2
1000
-2000023
1002
}
1002
{
1070
     3
1000
636535
1002
}
  0
INSERT
  5
13D
330
70
100
AcDbEntity
  8
A-DOOR
370
     9
100
AcDbBlockReference
  2
Door-Single_CE_ - HM Door-2_ HM Frame-5129471-BASEMENT Map Export
 10
-707.9292448112266
 20
-968.6521714946989
 30
0.0
 50
180.0
1001
REVIT
1002
{
1070
     1
1000
5129124
1002
}
1002
{
1070
     5
1000
4450563
1002
}
1002
{
1070
     2
1000
-2000023
1002
}
1002
{
1070
     3
1000
636535
1002
}
  0
INSERT
  5
15D
330
70
100
AcDbEntity
  8
A-DOOR
370
     9
100
AcDbBlockReference
  2
Door-Single_CE_ - HM Door-2_ HM Frame-5129600-BASEMENT Map Export
 10
-686.4292448112421
 20
-940.1521714946841
 30
0.0
 50
269.9999999999997
1001
REVIT
1002
{
1070
     1
1000
5129515
1002
}
1002
{
1070
     5
1000
4450563
1002
}
1002
{
1070
     2
1000
-2000023
1002
}
1002
{
1070
     3
1000
636535
1002
}
  0
LINE
  5
15E
330
70
100
AcDbEntity
  8
S-STRS
100
AcDbLine
 10
-803.429244811245
 20
-856.4021714946983
 30
0.0
 11
-801.4292448112449
 21
-856.4021714946983
 31
0.0
1001
REVIT
1002
{
1070
     1
1000
5129738
1002
}
1002
{
1070
     5
1000
44989
1002
}
1002
{
1070
     2
1000
-2000120
1002
}
1002
{
1070
     3
1000
-2000952
1002
}
  0
LINE
  5
15F
330
70
100
AcDbEntity
  8
S-STRS
100
AcDbLine
 10
-801.4292448112449
 20
-823.4021714946983
 30
0.0
 11
-803.4292448112449
 21
-823.4021714946983
 31
0.0
1001
REVIT
1002
{
1070
     1
1000
5129738
1002
}
1002
{
1070
     5
1000
44989
1002
}
1002
{
1070
     2
1000
-2000120
1002
}
1002
{
1070
     3
1000
-2000952
1002
}
  0
LINE
  5
160
330
70
100
AcDbEntity
  8
S-STRS
100
AcDbLine
 10
-755.4292448112449
 20
-856.4021714946987
 30
0.0
 11
-753.429244811245
 21
-856.4021714946987
 31
0.0
1001
REVIT
1002
{
1070
     1
1000
5129738
1002
}
1002
{
1070
     5
1000
44989
1002
}
1002
{
1070
     2
1000
-2000120
1002
}
1002
{
1070
     3
1000
-2000952
1002
}
  0
LINE
  5
161
330
70
100
AcDbEntity
  8
S-STRS
100
AcDbLine
 10
-753.4292448112449
 20
-823.4021714946987
 30
0.0
 11
-755.4292448112448
 21
-823.4021714946987
 31
0.0
1001
REVIT
1002
{
1070
     1
1000
5129738
1002
}
1002
{
1070
     5
1000
44989
1002
}
1002
{
1070
     2
1000
-2000120
1002
}
1002
{
1070
     3
1000
-2000952
1002
}
  0
LINE
  5
162
330
70
100
AcDbEntity
  8
S-STRS
100
AcDbLine
 10
-753.4292448112449
 20
-823.4021714946987
 30
0.0
 11
-753.429244811245
 21
-856.4021714946987
 31
0.0
1001
REVIT
1002
{
1070
     1
1000
5129738
1002
}
1002
{
1070
     5
1000
44989
1002
}
1002
{
1070
     2
1000
-2000120
1002
}
1002
{
1070
     3
1000
-2000952
1002
}
  0
LINE
  5
163
330
70
100
AcDbEntity
  8
S-STRS
100
AcDbLine
 10
-757.4292448112449
 20
-856.4021714946985
 30
0.0
 11
-799.4292448112449
 21
-856.4021714946985
 31
0.0
1001
REVIT
1002
{
1070
     1
1000
5129738
1002
}
1002
{
1070
     5
1000
44989
1002
}
1002
{
1070
     2
1000
-2000120
1002
}
1002
{
1070
     3
1000
-2000934
1002
}
  0
LINE
  5
164
330
70
100
AcDbEntity
  8
S-STRS
100
AcDbLine
 10
-757.4292448112449
 20
-823.4021714946985
 30
0.0
 11
-799.4292448112449
 21
-823.4021714946985
 31
0.0
1001
REVIT
1002
{
1070
     1
1000
5129738
1002
}
1002
{
1070
     5
1000
44989
1002
}
1002
{
1070
     2
1000
-2000120
1002
}
1002
{
1070
     3
1000
-2000934
1002
}
  0
LINE
  5
165
330
70
100
AcDbEntity
  8
S-STRS
100
AcDbLine
 10
-757.4292448112449
 20
-845.4021714946987
 30
0.0
 11
-799.4292448112449
 21
-845.402171494698
 31
0.0
1001
REVIT
1002
{
1070
     1
1000
5129738
1002
}
1002
{
1070
     5
1000
44989
1002
}
1002
{
1070
     2
1000
-2000120
1002
}
1002
{
1070
     3
1000
-2000932
1002
}
  0
LINE
  5
166
330
70
100
AcDbEntity
  8
S-STRS
100
AcDbLine
 10
-757.4292448112449
 20
-834.4021714946986
 30
0.0
 11
-799.4292448112449
 21
-834.4021714946986
 31
0.0
1001
REVIT
1002
{
1070
     1
1000
5129738
1002
}
1002
{
1070
     5
1000
44989
1002
}
1002
{
1070
     2
1000
-2000120
1002
}
1002
{
1070
     3
1000
-2000932
1002
}
  0
INSERT
  5
16E
330
70
100
AcDbEntity
  8
A-FLOR-HRAL
100
AcDbBlockReference
  2
Railing - Railing-5130007-BASEMENT Map Export
 10
0.0
 20
0.0
 30
0.0
1001
REVIT
1002
{
1070
     1
1000
5130006
1002
}
1002
{
1070
     5
1000
1969
1002
}
1002
{
1070
     2
1000
-2000126
1002
}
1002
{
1070
     3
1000
-2000128
1002
}
  0
INSERT
  5
176
330
70
100
AcDbEntity
  8
A-FLOR-HRAL
100
AcDbBlockReference
  2
Railing - Railing-5130011-BASEMENT Map Export
 10
0.0
 20
0.0
 30
0.0
1001
REVIT
1002
{
1070
     1
1000
5130010
1002
}
1002
{
1070
     5
1000
1969
1002
}
1002
{
1070
     2
1000
-2000126
1002
}
1002
{
1070
     3
1000
-2000128
1002
}
  0
INSERT
  5
196
330
70
100
AcDbEntity
  8
A-DOOR
370
     9
100
AcDbBlockReference
  2
Door-Single_CE_ - HM Door-2_ HM Frame-5198375-BASEMENT Map Export
 10
-1000.429244811242
 20
-288.6521714947139
 30
0.0
 50
89.99999999999969
1001
REVIT
1002
{
1070
     1
1000
5198334
1002
}
1002
{
1070
     5
1000
4450563
1002
}
1002
{
1070
     2
1000
-2000023
1002
}
1002
{
1070
     3
1000
636535
1002
}
  0
LINE
  5
197
330
70
100
AcDbEntity
  8
I-WALL
370
    40
100
AcDbLine
 10
-803.4292448112427
 20
-400.9021714946986
 30
0.0
 11
-803.4292448112427
 21
-382.9021714946835
 31
0.0
1001
REVIT
1002
{
1070
     1
1000
5198436
1002
}
1002
{
1070
     5
1000
639165
1002
}
1002
{
1070
     2
1000
-2000011
1002
}
  0
LINE
  5
198
330
70
100
AcDbEntity
  8
I-WALL
370
    40
100
AcDbLine
 10
-803.4292448112427
 20
-382.9021714946835
 30
0.0
 11
-808.4292448112426
 21
-382.9021714946835
 31
0.0
1001
REVIT
1002
{
1070
     1
1000
5198436
1002
}
1002
{
1070
     5
1000
639165
1002
}
1002
{
1070
     2
1000
-2000011
1002
}
  0
LINE
  5
19A
330
70
100
AcDbEntity
  8
I-WALL
370
    40
100
AcDbLine
 10
-803.4292448112424
 20
-342.9021714946836
 30
0.0
 11
-803.4292448112424
 21
-313.9021714946987
 31
0.0
1001
REVIT
1002
{
1070
     1
1000
5198436
1002
}
1002
{
1070
     5
1000
639165
1002
}
1002
{
1070
     2
1000
-2000011
1002
}
  0
LINE
  5
19C
330
70
100
AcDbEntity
  8
I-WALL
370
    40
100
AcDbLine
 10
-808.4292448112423
 20
-308.9021714946986
 30
0.0
 11
-808.4292448112426
 21
-342.9021714946836
 31
0.0
1001
REVIT
1002
{
1070
     1
1000
5198436
1002
}
1002
{
1070
     5
1000
639165
1002
}
1002
{
1070
     2
1000
-2000011
1002
}
  0
LINE
  5
19D
330
70
100
AcDbEntity
  8
I-WALL
370
    40
100
AcDbLine
 10
-808.4292448112426
 20
-342.9021714946836
 30
0.0
 11
-803.4292448112424
 21
-342.9021714946836
 31
0.0
1001
REVIT
1002
{
1070
     1
1000
5198436
1002
}
1002
{
1070
     5
1000
639165
1002
}
1002
{
1070
     2
1000
-2000011
1002
}
  0
LINE
  5
19E
330
70
100
AcDbEntity
  8
I-WALL
370
    40
100
AcDbLine
 10
-803.4292448112424
 20
-313.9021714946987
 30
0.0
 11
-544.929244811241
 21
-313.9021714946995
 31
0.0
1001
REVIT
1002
{
1070
     1
1000
5198499
1002
}
1002
{
1070
     5
1000
639165
1002
}
1002
{
1070
     2
1000
-2000011
1002
}
  0
LINE
  5
19F
330
70
100
AcDbEntity
  8
I-WALL
370
    40
100
AcDbLine
 10
-544.929244811241
 20
-308.9021714946995
 30
0.0
 11
-808.4292448112423
 21
-308.9021714946986
 31
0.0
1001
REVIT
1002
{
1070
     1
1000
5198499
1002
}
1002
{
1070
     5
1000
639165
1002
}
1002
{
1070
     2
1000
-2000011
1002
}
  0
INSERT
  5
1A0
330
70
100
AcDbEntity
  8
A-DOOR
370
     9
100
AcDbBlockReference
  2
Door-Single_CE_ - HM Door-2_ HM Frame-5129110-BASEMENT Map Export
 10
-805.9292448112429
 20
-362.9021714946836
 30
0.0
 50
269.9999999999997
1001
REVIT
1002
{
1070
     1
1000
5198552
1002
}
1002
{
1070
     5
1000
4450563
1002
}
1002
{
1070
     2
1000
-2000023
1002
}
1002
{
1070
     3
1000
636535
1002
}
  0
LINE
  5
1A1
330
70
100
AcDbEntity
  8
I-WALL
370
    40
100
AcDbLine
 10
-994.929244811241
 20
-70.90217149469857
 30
0.0
 11
-853.929244811241
 21
-70.90217149469904
 31
0.0
1001
REVIT
1002
{
1070
     1
1000
5198702
1002
}
1002
{
1070
     5
1000
639165
1002
}
1002
{
1070
     2
1000
-2000011
1002
}
  0
LINE
  5
1A3
330
70
100
AcDbEntity
  8
I-WALL
370
    40
100
AcDbLine
 10
-858.9292448112411
 20
-65.90217149469904
 30
0.0
 11
-994.929244811241
 21
-65.90217149469856
 31
0.0
1001
REVIT
1002
{
1070
     1
1000
5198702
1002
}
1002
{
1070
     5
1000
639165
1002
}
1002
{
1070
     2
1000
-2000011
1002
}
  0
LINE
  5
1A4
330
70
100
AcDbEntity
  8
I-WALL
370
    40
100
AcDbLine
 10
-853.929244811241
 20
-70.90217149469904
 30
0.0
 11
-853.9292448112401
 21
117.0978285053009
 31
0.0
1001
REVIT
1002
{
1070
     1
1000
5198771
1002
}
1002
{
1070
     5
1000
639165
1002
}
1002
{
1070
     2
1000
-2000011
1002
}
  0
LINE
  5
1A5
330
70
100
AcDbEntity
  8
I-WALL
370
    40
100
AcDbLine
 10
-858.9292448112402
 20
117.0978285053009
 30
0.0
 11
-858.9292448112411
 21
-65.90217149469904
 31
0.0
1001
REVIT
1002
{
1070
     1
1000
5198771
1002
}
1002
{
1070
     5
1000
639165
1002
}
1002
{
1070
     2
1000
-2000011
1002
}
  0
LWPOLYLINE
  5
1A7
330
70
100
AcDbEntity
  8
A-AREA-BNDY
100
AcDbPolyline
 90
        7
 70
   129
 43
0.0
 10
-733.9292448112472
 20
-1052.9021714947
 10
-619.929244811243
 20
-1052.9021714947
 10
-619.9292448112426
 20
-971.1521714947002
 10
-686.429244811243
 20
-971.1521714947
 10
-733.9292448112469
 20
-971.1521714946997
 10
-733.929244811247
 20
-994.8393655011603
 10
-733.9292448112469
 20
-998.9021714947
1001
REVIT
1002
{
1070
     1
1000
5162644
1002
}
1002
{
1070
     2
1000
-2000829
1002
}
1002
{
1070
   101
1000
STORAGE
1002
}
1002
{
1070
   102
1000
02
1002
}
1002
{
1070
   103
1000

1002
}
1002
{
1070
   104
1000

1002
}
1002
{
1070
   105
1000

1002
}
  0
LWPOLYLINE
  5
1A8
330
70
100
AcDbEntity
  8
A-AREA-BNDY
100
AcDbPolyline
 90
       21
 70
   129
 43
0.0
 10
-994.9292448112458
 20
-746.6521714946995
 10
-994.9292448112476
 20
-1052.9021714947
 10
-805.9292448112472
 20
-1052.9021714947
 10
-805.9292448112469
 20
-994.9021714947003
 10
-738.9292448112471
 20
-994.9021714947004
 10
-738.929244811247
 20
-966.1521714946999
 10
-688.929244811243
 20
-966.1521714946999
 10
-688.9292448112427
 20
-914.4021714947001
 10
-699.0542448112458
 20
-914.4021714947001
 10
-808.4292448112464
 20
-914.4021714946996
 10
-808.4292448112437
 20
-403.4021714946989
 10
-808.4292448112432
 20
-308.902171494699
 10
-544.9292448112418
 20
-308.9021714946999
 10
-544.929244811241
 20
117.0978285053004
 10
-853.9292448112414
 20
117.097828505301
 10
-853.9292448112421
 20
-70.90217149469913
 10
-994.9292448112425
 20
-70.90217149469866
 10
-994.9292448112442
 20
-405.1521714946991
 10
-958.9292448112439
 20
-405.1521714946992
 10
-958.9292448112445
 20
-575.9021714946993
 10
-958.9292448112448
 20
-746.6521714946996
1001
REVIT
1002
{
1070
     1
1000
5162645
1002
}
1002
{
1070
     2
1000
-2000829
1002
}
1002
{
1070
   101
1000
STORAGE
1002
}
1002
{
1070
   102
1000
01
1002
}
1002
{
1070
   103
1000

1002
}
1002
{
1070
   104
1000

1002
}
1002
{
1070
   105
1000

1002
}
  0
LWPOLYLINE
  5
1A9
330
70
100
AcDbEntity
  8
A-AREA-BNDY
100
AcDbPolyline
 90
        9
 70
   129
 43
0.0
 10
-580.9292448112451
 20
-743.9021714947
 10
-580.9292448112447
 20
-574.8773516011696
 10
-644.929244811242
 20
-510.877351601172
 10
-644.9292448112418
 20
-405.9021714946997
 10
-803.4292448112438
 20
-405.9021714946991
 10
-803.4292448112465
 20
-909.4021714946999
 10
-701.5542448112459
 20
-909.4021714947
 10
-701.5542448112459
 20
-883.9021714947
 10
-580.9292448112453
 20
-883.9021714947003
1001
REVIT
1002
{
1070
     1
1000
5162647
1002
}
1002
{
1070
     2
1000
-2000829
1002
}
1002
{
1070
   101
1000
MECH
1002
}
1002
{
1070
   102
1000
03
1002
}
1002
{
1070
   103
1000

1002
}
1002
{
1070
   104
1000

1002
}
1002
{
1070
   105
1000

1002
}
  0
LWPOLYLINE
  5
1AA
330
70
100
AcDbEntity
  8
A-AREA-BNDY
100
AcDbPolyline
 90
       16
 70
   129
 43
0.0
 10
-496.9292448112462
 20
-914.9021714947007
 10
-575.4292448112454
 20
-914.9021714947005
 10
-575.4292448112454
 20
-914.4021714947003
 10
-580.9920508047854
 20
-914.4021714947003
 10
-683.9292448112428
 20
-914.4021714947001
 10
-683.9292448112429
 20
-966.1521714946999
 10
-617.4292448112425
 20
-966.1521714947003
 10
-542.8052430612405
 20
-966.1521714947006
 10
-542.8052430612406
 20
-1002.583024630239
 10
-598.8052430612407
 20
-1002.583024630239
 10
-598.8052430612407
 20
-997.5830246302392
 10
-547.8052430612406
 20
-997.5830246302392
 10
-547.8052430612406
 20
-971.1521714947004
 10
-614.9292448112426
 20
-971.1521714947002
 10
-614.929244811243
 20
-1052.9021714947
 10
-496.929244811247
 20
-1052.9021714947
1001
REVIT
1002
{
1070
     1
1000
5190536
1002
}
1002
{
1070
     2
1000
-2000829
1002
}
1002
{
1070
   101
1000
STAIR
1002
}
1002
{
1070
   102
1000
0ST1
1002
}
1002
{
1070
   103
1000

1002
}
1002
{
1070
   104
1000

1002
}
1002
{
1070
   105
1000

1002
}
  0
LWPOLYLINE
  5
1AB
330
70
100
AcDbEntity
  8
A-AREA-BNDY
100
AcDbPolyline
 90
        6
 70
   129
 43
0.0
 10
-544.9292448112418
 20
-400.9021714946999
 10
-544.9292448112418
 20
-313.9021714946998
 10
-803.4292448112434
 20
-313.902171494699
 10
-803.4292448112438
 20
-400.902171494699
 10
-645.9532448112419
 20
-400.9021714946995
 10
-639.929244811242
 20
-400.9021714946996
1001
REVIT
1002
{
1070
     1
1000
5198628
1002
}
1002
{
1070
     2
1000
-2000829
1002
}
1002
{
1070
   101
1000
SERVER
1002
}
1002
{
1070
   102
1000
06
1002
}
1002
{
1070
   103
1000

1002
}
1002
{
1070
   104
1000

1002
}
1002
{
1070
   105
1000

1002
}
  0
LWPOLYLINE
  5
1AC
330
70
100
AcDbEntity
  8
A-AREA-BNDY
100
AcDbPolyline
 90
        4
 70
   129
 43
0.0
 10
-994.9292448112414
 20
117.0978285053013
 10
-994.9292448112425
 20
-65.90217149469864
 10
-858.929244811242
 20
-65.90217149469911
 10
-858.9292448112413
 20
117.097828505301
1001
REVIT
1002
{
1070
     1
1000
5198848
1002
}
1002
{
1070
     2
1000
-2000829
1002
}
1002
{
1070
   101
1000
STORAGE
1002
}
1002
{
1070
   102
1000
05
1002
}
1002
{
1070
   103
1000

1002
}
1002
{
1070
   104
1000

1002
}
1002
{
1070
   105
1000

1002
}
  0
ENDSEC
  0
SECTION
  2
OBJECTS
  0
DICTIONARY
  5
C
330
0
100
AcDbDictionary
281
     1
  3
ACAD_CIP_PREVIOUS_PRODUCT_INFO
350
79
  3
ACAD_COLOR
350
63
  3
ACAD_DETAILVIEWSTYLE
350
6A
  3
ACAD_GROUP
350
D
  3
ACAD_IMAGE_VARS
350
7A
  3
ACAD_LAYOUT
350
62
  3
ACAD_MATERIAL
350
10
  3
ACAD_MLEADERSTYLE
350
66
  3
ACAD_MLINESTYLE
350
5F
  3
ACAD_PLOTSETTINGS
350
61
  3
ACAD_PLOTSTYLENAME
350
E
  3
ACAD_SCALELIST
350
42
  3
ACAD_SECTIONVIEWSTYLE
350
68
  3
ACAD_TABLESTYLE
350
64
  3
ACAD_VISUALSTYLE
350
29
  3
ACDB_RECOMPOSE_DATA
350
1B9
  3
AcDbVariableDictionary
350
7B
  3
REVIT_DICTIONARY
350
1AD
  0
DICTIONARY
  5
1B5
330
70
100
AcDbDictionary
280
     1
281
     1
  3
ACAD_SORTENTS
360
1B6
  0
XRECORD
  5
79
102
{ACAD_REACTORS
330
C
102
}
330
C
100
AcDbXrecord
280
     1
300
RVT
300
2025
300
RVT2025
  0
DICTIONARY
  5
63
102
{ACAD_REACTORS
330
C
102
}
330
C
100
AcDbDictionary
281
     1
  0
DICTIONARY
  5
6A
102
{ACAD_REACTORS
330
C
102
}
330
C
100
AcDbDictionary
281
     1
  3
Imperial24
350
6B
  0
DICTIONARY
  5
D
102
{ACAD_REACTORS
330
C
102
}
330
C
100
AcDbDictionary
281
     1
  0
RASTERVARIABLES
  5
7A
102
{ACAD_REACTORS
330
C
102
}
330
C
100
AcDbRasterVariables
 90
        0
 70
     0
 71
     1
 72
     5
  0
DICTIONARY
  5
62
102
{ACAD_REACTORS
330
C
102
}
330
C
100
AcDbDictionary
281
     1
  3
Layout1
350
6F
  3
Layout2
350
77
  3
Model
350
73
  0
DICTIONARY
  5
10
102
{ACAD_REACTORS
330
C
102
}
330
C
100
AcDbDictionary
281
     1
  3
ByBlock
350
19
  3
ByLayer
350
11
  3
Global
350
21
  0
DICTIONARY
  5
66
102
{ACAD_REACTORS
330
C
102
}
330
C
100
AcDbDictionary
281
     1
  3
Standard
350
67
  0
DICTIONARY
  5
5F
102
{ACAD_REACTORS
330
C
102
}
330
C
100
AcDbDictionary
281
     1
  3
Standard
350
60
  0
DICTIONARY
  5
61
102
{ACAD_REACTORS
330
C
102
}
330
C
100
AcDbDictionary
281
     1
  0
ACDBDICTIONARYWDFLT
  5
E
102
{ACAD_REACTORS
330
C
102
}
330
C
100
AcDbDictionary
281
     1
  3
Normal
350
F
100
AcDbDictionaryWithDefault
340
F
  0
DICTIONARY
  5
42
102
{ACAD_REACTORS
330
C
102
}
330
C
100
AcDbDictionary
281
     1
  3
A0
350
43
  3
A1
350
44
  3
A2
350
45
  3
A3
350
46
  3
A4
350
47
  3
A5
350
48
  3
A6
350
49
  3
A7
350
4A
  3
A8
350
4B
  3
A9
350
4C
  3
B0
350
4D
  3
B1
350
4E
  3
B2
350
4F
  3
B3
350
50
  3
B4
350
51
  3
B5
350
52
  3
B6
350
53
  0
DICTIONARY
  5
68
102
{ACAD_REACTORS
330
C
102
}
330
C
100
AcDbDictionary
281
     1
  3
Imperial24
350
69
  0
DICTIONARY
  5
64
102
{ACAD_REACTORS
330
C
102
}
330
C
100
AcDbDictionary
281
     1
  3
Standard
350
65
  0
DICTIONARY
  5
29
102
{ACAD_REACTORS
330
C
102
}
330
C
100
AcDbDictionary
281
     1
  3
2dWireframe
350
2F
  3
Basic
350
2E
  3
Brighten
350
35
  3
ColorChange
350
39
  3
Conceptual
350
32
  3
Dim
350
34
  3
EdgeColorOff
350
41
  3
Facepattern
350
38
  3
Flat
350
2A
  3
FlatWithEdges
350
2B
  3
Gouraud
350
2C
  3
GouraudWithEdges
350
2D
  3
Hidden
350
31
  3
JitterOff
350
3F
  3
Linepattern
350
37
  3
OverhangOff
350
40
  3
Realistic
350
33
  3
Shaded
350
3E
  3
Shaded with edges
350
3D
  3
Shades of Gray
350
3A
  3
Sketchy
350
3B
  3
Thicken
350
36
  3
Wireframe
350
30
  3
X-Ray
350
3C
  0
XRECORD
  5
1B9
102
{ACAD_REACTORS
330
C
102
}
330
C
100
AcDbXrecord
280
     1
 90
        1
330
65
  0
DICTIONARY
  5
7B
102
{ACAD_REACTORS
330
C
102
}
330
C
100
AcDbDictionary
281
     1
  3
CANNOSCALE
350
80
  3
CMLEADERSTYLE
350
7D
  3
CTABLESTYLE
350
7C
  3
CVIEWDETAILSTYLE
350
7E
  3
CVIEWSECTIONSTYLE
350
7F
  0
DICTIONARY
  5
1AD
102
{ACAD_REACTORS
330
C
102
}
330
C
100
AcDbDictionary
281
     1
  3
DRAWING_TOOL
350
1B4
  3
REVIT_CATEGORY_MAPPING
350
1B2
  3
REVIT_GET_SITE
350
1AE
  3
REVIT_SUB_CATEGORY_MAPPING
350
1B3
  3
REVIT_TYPE_MAPPING
350
1B1
  0
SORTENTSTABLE
  5
1B6
102
{ACAD_REACTORS
330
1B5
102
}
330
1B5
100
AcDbSortentsTable
330
70
  0
ACDBDETAILVIEWSTYLE
  5
6B
102
{ACAD_REACTORS
330
6A
102
}
330
6A
100
AcDbModelDocViewStyle
 70
     0
  3
Imperial24
290
     1
300
Imperial24
 90
        0
100
AcDbDetailViewStyle
 70
     0
 71
     0
 90
        3
 71
     1
340
55
 62
   256
 40
0.24
340
0
 62
   256
 40
0.24
300

 40
0.36
280
     3
 71
     2
340
5D
 90
       25
 62
   256
 71
     3
340
55
 62
   256
 40
0.24
 90
        1
 40
0.75
 90
        1
300
%<\AcVar ViewType \f "%tc1">% %<\AcVar ViewDetailId>%\PSCALE %<\AcVar ViewScale \f "%sn">%
 71
     4
340
5D
 90
       25
 62
   256
340
5D
 90
       25
 62
   256
280
     0
  0
LAYOUT
  5
6F
102
{ACAD_REACTORS
330
62
102
}
330
62
100
AcDbPlotSettings
  1

  2

  4

  6

 40
0.0
 41
0.0
 42
0.0
 43
0.0
 44
0.0
 45
0.0
 46
0.0
 47
0.0
 48
0.0
 49
0.0
140
0.0
141
0.0
142
1.0
143
1.0
 70
   688
 72
     0
 73
     0
 74
     5
  7

 75
    16
147
1.0
 76
     0
 77
     2
 78
   300
148
0.0
149
0.0
100
AcDbLayout
  1
Layout1
 70
     1
 71
     1
 10
0.0
 20
0.0
 11
12.0
 21
9.0
 12
0.0
 22
0.0
 32
0.0
 14
0.0
 24
0.0
 34
0.0
 15
0.0
 25
0.0
 35
0.0
146
0.0
 13
0.0
 23
0.0
 33
0.0
 16
1.0
 26
0.0
 36
0.0
 17
0.0
 27
1.0
 37
0.0
 76
     0
330
6C
  0
LAYOUT
  5
77
102
{ACAD_REACTORS
330
62
102
}
330
62
100
AcDbPlotSettings
  1

  2

  4

  6

 40
0.0
 41
0.0
 42
0.0
 43
0.0
 44
0.0
 45
0.0
 46
0.0
 47
0.0
 48
0.0
 49
0.0
140
0.0
141
0.0
142
1.0
143
1.0
 70
   688
 72
     0
 73
     0
 74
     5
  7

 75
    16
147
1.0
 76
     0
 77
     2
 78
   300
148
0.0
149
0.0
100
AcDbLayout
  1
Layout2
 70
     1
 71
     2
 10
0.0
 20
0.0
 11
12.0
 21
9.0
 12
0.0
 22
0.0
 32
0.0
 14
0.0
 24
0.0
 34
0.0
 15
0.0
 25
0.0
 35
0.0
146
0.0
 13
0.0
 23
0.0
 33
0.0
 16
1.0
 26
0.0
 36
0.0
 17
0.0
 27
1.0
 37
0.0
 76
     0
330
74
  0
LAYOUT
  5
73
102
{ACAD_REACTORS
330
62
102
}
330
62
100
AcDbPlotSettings
  1

  2

  4

  6

 40
0.0
 41
0.0
 42
0.0
 43
0.0
 44
0.0
 45
0.0
 46
0.0
 47
0.0
 48
0.0
 49
0.0
140
0.0
141
0.0
142
1.0
143
1.0
 70
  1712
 72
     0
 73
     0
 74
     0
  7

 75
     0
147
1.0
 76
     0
 77
     2
 78
   300
148
0.0
149
0.0
100
AcDbLayout
  1
Model
 70
     1
 71
     0
 10
0.0
 20
0.0
 11
12.0
 21
9.0
 12
0.0
 22
0.0
 32
0.0
 14
0.0
 24
0.0
 34
0.0
 15
0.0
 25
0.0
 35
0.0
146
0.0
 13
0.0
 23
0.0
 33
0.0
 16
1.0
 26
0.0
 36
0.0
 17
0.0
 27
1.0
 37
0.0
 76
     0
330
70
  0
MATERIAL
  5
19
102
{ACAD_XDICTIONARY
360
1A
102
}
102
{ACAD_REACTORS
330
10
102
}
330
10
100
AcDbMaterial
  1
ByBlock
 72
     0
 43
0.0208333333333333
 43
0.0
 43
0.0
 43
0.0
 43
0.0
 43
0.0208333333333333
 43
0.0
 43
0.0
 43
0.0
 43
0.0
 43
1.0
 43
0.0
 43
0.0
 43
0.0
 43
0.0
 43
1.0
 77
     0
 47
0.0208333333333333
 47
0.0
 47
0.0
 47
0.0
 47
0.0
 47
0.0208333333333333
 47
0.0
 47
0.0
 47
0.0
 47
0.0
 47
1.0
 47
0.0
 47
0.0
 47
0.0
 47
0.0
 47
1.0
171
     0
 49
0.0208333333333333
 49
0.0
 49
0.0
 49
0.0
 49
0.0
 49
0.0208333333333333
 49
0.0
 49
0.0
 49
0.0
 49
0.0
 49
1.0
 49
0.0
 49
0.0
 49
0.0
 49
0.0
 49
1.0
175
     0
142
0.0208333333333333
142
0.0
142
0.0
142
0.0
142
0.0
142
0.0208333333333333
142
0.0
142
0.0
142
0.0
142
0.0
142
1.0
142
0.0
142
0.0
142
0.0
142
0.0
142
1.0
179
     0
144
0.0208333333333333
144
0.0
144
0.0
144
0.0
144
0.0
144
0.0208333333333333
144
0.0
144
0.0
144
0.0
144
0.0
144
1.0
144
0.0
144
0.0
144
0.0
144
0.0
144
1.0
147
0.0208333333333333
147
0.0
147
0.0
147
0.0
147
0.0
147
0.0208333333333333
147
0.0
147
0.0
147
0.0
147
0.0
147
1.0
147
0.0
147
0.0
147
0.0
147
0.0
147
1.0
  0
MATERIAL
  5
11
102
{ACAD_XDICTIONARY
360
12
102
}
102
{ACAD_REACTORS
330
10
102
}
330
10
100
AcDbMaterial
  1
ByLayer
 72
     0
 43
0.0208333333333333
 43
0.0
 43
0.0
 43
0.0
 43
0.0
 43
0.0208333333333333
 43
0.0
 43
0.0
 43
0.0
 43
0.0
 43
1.0
 43
0.0
 43
0.0
 43
0.0
 43
0.0
 43
1.0
 77
     0
 47
0.0208333333333333
 47
0.0
 47
0.0
 47
0.0
 47
0.0
 47
0.0208333333333333
 47
0.0
 47
0.0
 47
0.0
 47
0.0
 47
1.0
 47
0.0
 47
0.0
 47
0.0
 47
0.0
 47
1.0
171
     0
 49
0.0208333333333333
 49
0.0
 49
0.0
 49
0.0
 49
0.0
 49
0.0208333333333333
 49
0.0
 49
0.0
 49
0.0
 49
0.0
 49
1.0
 49
0.0
 49
0.0
 49
0.0
 49
0.0
 49
1.0
175
     0
142
0.0208333333333333
142
0.0
142
0.0
142
0.0
142
0.0
142
0.0208333333333333
142
0.0
142
0.0
142
0.0
142
0.0
142
1.0
142
0.0
142
0.0
142
0.0
142
0.0
142
1.0
179
     0
144
0.0208333333333333
144
0.0
144
0.0
144
0.0
144
0.0
144
0.0208333333333333
144
0.0
144
0.0
144
0.0
144
0.0
144
1.0
144
0.0
144
0.0
144
0.0
144
0.0
144
1.0
147
0.0208333333333333
147
0.0
147
0.0
147
0.0
147
0.0
147
0.0208333333333333
147
0.0
147
0.0
147
0.0
147
0.0
147
1.0
147
0.0
147
0.0
147
0.0
147
0.0
147
1.0
  0
MATERIAL
  5
21
102
{ACAD_XDICTIONARY
360
22
102
}
102
{ACAD_REACTORS
330
10
102
}
330
10
100
AcDbMaterial
  1
Global
 72
     0
 43
0.0208333333333333
 43
0.0
 43
0.0
 43
0.0
 43
0.0
 43
0.0208333333333333
 43
0.0
 43
0.0
 43
0.0
 43
0.0
 43
1.0
 43
0.0
 43
0.0
 43
0.0
 43
0.0
 43
1.0
 77
     0
 47
0.0208333333333333
 47
0.0
 47
0.0
 47
0.0
 47
0.0
 47
0.0208333333333333
 47
0.0
 47
0.0
 47
0.0
 47
0.0
 47
1.0
 47
0.0
 47
0.0
 47
0.0
 47
0.0
 47
1.0
171
     0
 49
0.0208333333333333
 49
0.0
 49
0.0
 49
0.0
 49
0.0
 49
0.0208333333333333
 49
0.0
 49
0.0
 49
0.0
 49
0.0
 49
1.0
 49
0.0
 49
0.0
 49
0.0
 49
0.0
 49
1.0
175
     0
142
0.0208333333333333
142
0.0
142
0.0
142
0.0
142
0.0
142
0.0208333333333333
142
0.0
142
0.0
142
0.0
142
0.0
142
1.0
142
0.0
142
0.0
142
0.0
142
0.0
142
1.0
179
     0
144
0.0208333333333333
144
0.0
144
0.0
144
0.0
144
0.0
144
0.0208333333333333
144
0.0
144
0.0
144
0.0
144
0.0
144
1.0
144
0.0
144
0.0
144
0.0
144
0.0
144
1.0
147
0.0208333333333333
147
0.0
147
0.0
147
0.0
147
0.0
147
0.0208333333333333
147
0.0
147
0.0
147
0.0
147
0.0
147
1.0
147
0.0
147
0.0
147
0.0
147
0.0
147
1.0
  0
MLEADERSTYLE
  5
67
102
{ACAD_REACTORS
330
66
102
}
330
66
100
AcDbMLeaderStyle
179
     2
170
     2
171
     1
172
     0
 90
        2
 40
0.0
 41
0.0
173
     1
 91
-1056964608
340
5B
 92
       -2
290
     1
 42
0.09
291
     1
 43
0.36
  3
Standard
 44
0.18
300

342
55
174
     1
178
     6
175
     1
176
     0
 93
-1056964608
 45
0.18
292
     0
297
     0
 46
0.18
 94
-1056964608
 47
1.0
 49
1.0
140
1.0
293
     1
141
0.0
294
     1
177
     0
142
1.0
295
     1
296
     0
143
0.125
271
     0
272
     9
273
     9
298
     1
  0
MLINESTYLE
  5
60
102
{ACAD_REACTORS
330
5F
102
}
330
5F
100
AcDbMlineStyle
  2
STANDARD
 70
     0
  3

 62
   256
 51
90.0
 52
90.0
 71
     2
 49
0.5
 62
   256
  6
BYLAYER
 49
-0.5
 62
   256
  6
BYLAYER
  0
ACDBPLACEHOLDER
  5
F
102
{ACAD_REACTORS
330
E
102
}
330
E
  0
SCALE
  5
43
102
{ACAD_REACTORS
330
42
102
}
330
42
100
AcDbScale
 70
     0
300
1:1
140
1.0
141
1.0
290
     1
  0
SCALE
  5
44
102
{ACAD_REACTORS
330
42
102
}
330
42
100
AcDbScale
 70
     0
300
1/128" = 1'-0"
140
0.0078125
141
12.0
290
     0
  0
SCALE
  5
45
102
{ACAD_REACTORS
330
42
102
}
330
42
100
AcDbScale
 70
     0
300
1/64" = 1'-0"
140
0.015625
141
12.0
290
     0
  0
SCALE
  5
46
102
{ACAD_REACTORS
330
42
102
}
330
42
100
AcDbScale
 70
     0
300
1/32" = 1'-0"
140
0.03125
141
12.0
290
     0
  0
SCALE
  5
47
102
{ACAD_REACTORS
330
42
102
}
330
42
100
AcDbScale
 70
     0
300
1/16" = 1'-0"
140
0.0625
141
12.0
290
     0
  0
SCALE
  5
48
102
{ACAD_REACTORS
330
42
102
}
330
42
100
AcDbScale
 70
     0
300
3/32" = 1'-0"
140
0.09375
141
12.0
290
     0
  0
SCALE
  5
49
102
{ACAD_REACTORS
330
42
102
}
330
42
100
AcDbScale
 70
     0
300
1/8" = 1'-0"
140
0.125
141
12.0
290
     0
  0
SCALE
  5
4A
102
{ACAD_REACTORS
330
42
102
}
330
42
100
AcDbScale
 70
     0
300
3/16" = 1'-0"
140
0.1875
141
12.0
290
     0
  0
SCALE
  5
4B
102
{ACAD_REACTORS
330
42
102
}
330
42
100
AcDbScale
 70
     0
300
1/4" = 1'-0"
140
0.25
141
12.0
290
     0
  0
SCALE
  5
4C
102
{ACAD_REACTORS
330
42
102
}
330
42
100
AcDbScale
 70
     0
300
3/8" = 1'-0"
140
0.375
141
12.0
290
     0
  0
SCALE
  5
4D
102
{ACAD_REACTORS
330
42
102
}
330
42
100
AcDbScale
 70
     0
300
1/2" = 1'-0"
140
0.5
141
12.0
290
     0
  0
SCALE
  5
4E
102
{ACAD_REACTORS
330
42
102
}
330
42
100
AcDbScale
 70
     0
300
3/4" = 1'-0"
140
0.75
141
12.0
290
     0
  0
SCALE
  5
4F
102
{ACAD_REACTORS
330
42
102
}
330
42
100
AcDbScale
 70
     0
300
1" = 1'-0"
140
1.0
141
12.0
290
     0
  0
SCALE
  5
50
102
{ACAD_REACTORS
330
42
102
}
330
42
100
AcDbScale
 70
     0
300
1-1/2" = 1'-0"
140
1.5
141
12.0
290
     0
  0
SCALE
  5
51
102
{ACAD_REACTORS
330
42
102
}
330
42
100
AcDbScale
 70
     0
300
3" = 1'-0"
140
3.0
141
12.0
290
     0
  0
SCALE
  5
52
102
{ACAD_REACTORS
330
42
102
}
330
42
100
AcDbScale
 70
     0
300
6" = 1'-0"
140
6.0
141
12.0
290
     0
  0
SCALE
  5
53
102
{ACAD_REACTORS
330
42
102
}
330
42
100
AcDbScale
 70
     0
300
1'-0" = 1'-0"
140
12.0
141
12.0
290
     0
  0
ACDBSECTIONVIEWSTYLE
  5
69
102
{ACAD_REACTORS
330
68
102
}
330
68
100
AcDbModelDocViewStyle
 70
     0
  3
Imperial24
290
     1
300
Imperial24
 90
        0
100
AcDbSectionViewStyle
 70
     0
 71
     0
 90
       78
 71
     1
340
55
 62
   256
 40
0.24
340
0
340
0
 62
   256
 40
0.24
300
I, O, Q, S, X, Z
 40
0.48
 90
        3
 40
0.18
 90
        1
 71
     2
340
5D
 90
       25
 62
   256
340
5D
 90
       50
 62
   256
 40
0.24
 40
0.0
 40
0.24
 71
     3
340
55
 62
   256
 40
0.24
 90
        1
 40
0.75
 90
        1
300
%<\AcVar ViewType \f "%tc1">% %<\AcVar ViewSectionStartId>%-%<\AcVar ViewSectionEndId>%\PSCALE %<\AcVar ViewScale \f "%sn">%
 71
     4
 62
   256
 62
   257
300
ANSI31
 40
1.0
 90
        0
290
     0
290
     0
 90
        6
 40
0.0
 40
1.570796326794896
 40
0.2617993877991494
 40
1.308996938995747
 40
-0.2617993877991494
 40
1.832595714594046
  0
TABLESTYLE
  5
65
102
{ACAD_XDICTIONARY
360
1B7
102
}
102
{ACAD_REACTORS
330
64
102
}
330
64
100
AcDbTableStyle
280
     0
  3
Standard
 70
     0
 71
     0
 40
0.06
 41
0.06
280
     0
281
     0
  7
Standard
140
0.18
170
     2
 62
     0
 63
     7
283
     0
 90
      512
 91
        0
  1

274
    -2
284
     1
 64
     0
275
    -2
285
     1
 65
     0
276
    -2
286
     1
 66
     0
277
    -2
287
     1
 67
     0
278
    -2
288
     1
 68
     0
279
    -2
289
     1
 69
     0
  7
Standard
140
0.25
170
     5
 62
     0
 63
     7
283
     0
 90
      512
 91
        0
  1

274
    -2
284
     1
 64
     0
275
    -2
285
     1
 65
     0
276
    -2
286
     1
 66
     0
277
    -2
287
     1
 67
     0
278
    -2
288
     1
 68
     0
279
    -2
289
     1
 69
     0
  7
Standard
140
0.18
170
     5
 62
     0
 63
     7
283
     0
 90
      512
 91
        0
  1

274
    -2
284
     1
 64
     0
275
    -2
285
     1
 65
     0
276
    -2
286
     1
 66
     0
277
    -2
287
     1
 67
     0
278
    -2
288
     1
 68
     0
279
    -2
289
     1
 69
     0
  0
VISUALSTYLE
  5
2F
102
{ACAD_REACTORS
330
29
102
}
330
29
100
AcDbVisualStyle
  2
2dWireframe
 70
     4
177
     3
291
     0
 70
    58
 90
        0
176
     1
 90
        2
176
     1
 90
        0
176
     1
 90
        0
176
     1
 40
0.6
176
     1
 40
30.0
176
     1
 62
     7
420
 16777215
176
     1
 90
        1
176
     1
 90
        4
176
     1
 62
     7
176
     1
 62
   257
176
     1
 90
        1
176
     1
 90
        1
176
     1
 40
1.0
176
     1
 90
        0
176
     1
 62
   257
176
     1
 40
1.0
176
     1
 90
        1
176
     1
 90
        6
176
     1
 90
        2
176
     1
 62
     7
176
     1
 90
        5
176
     1
 90
        0
176
     1
 90
        0
176
     1
290
     0
176
     1
 90
        1
176
     1
 40
0.0
176
     1
 90
        0
176
     1
290
     1
176
     1
290
     1
176
     1
290
     0
176
     1
290
     0
176
     1
290
     0
176
     1
290
     0
176
     1
290
     0
176
     1
290
     0
176
     1
290
     0
176
     1
 90
       50
176
     1
 40
0.0
176
     1
 40
1.0
176
     1
 90
        0
176
     1
 62
    18
420
        0
176
     1
 90
       50
176
     1
 90
        3
176
     1
 62
     5
420
      255
176
     1
290
     0
176
     1
 90
       50
176
     1
 90
       50
176
     1
 90
       50
176
     1
290
     0
176
     1
 90
       50
176
     1
 62
   256
176
     0
 40
1.0
176
     0
 90
        2
176
     1
  1
strokes_ogs.tif
176
     1
290
     0
176
     1
 40
1.0
176
     1
 40
1.0
176
     1
  0
VISUALSTYLE
  5
2E
102
{ACAD_REACTORS
330
29
102
}
330
29
100
AcDbVisualStyle
  2
Basic
 70
     7
177
     3
291
     1
 70
    58
 90
        1
176
     1
 90
        0
176
     1
 90
        1
176
     1
 90
        0
176
     1
 40
0.6
176
     1
 40
30.0
176
     1
 62
     7
420
 16777215
176
     1
 90
        0
176
     1
 90
        4
176
     1
 62
     7
176
     1
 62
   257
176
     1
 90
        1
176
     1
 90
        1
176
     1
 40
1.0
176
     1
 90
        8
176
     1
 62
     7
176
     1
 40
1.0
176
     1
 90
        1
176
     1
 90
        6
176
     1
 90
        2
176
     1
 62
     7
176
     1
 90
        5
176
     1
 90
        0
176
     1
 90
        0
176
     1
290
     0
176
     1
 90
        1
176
     1
 40
0.0
176
     1
 90
        0
176
     1
290
     0
176
     1
290
     1
176
     1
290
     1
176
     1
290
     0
176
     1
290
     0
176
     1
290
     0
176
     1
290
     0
176
     1
290
     0
176
     1
290
     0
176
     1
 90
       50
176
     1
 40
0.0
176
     1
 40
1.0
176
     1
 90
        0
176
     1
 62
    18
420
        0
176
     1
 90
       50
176
     1
 90
        3
176
     1
 62
     5
420
      255
176
     1
290
     0
176
     1
 90
       50
176
     1
 90
       50
176
     1
 90
       50
176
     1
290
     0
176
     1
 90
       50
176
     1
 62
   256
176
     0
 40
1.0
176
     0
 90
        2
176
     1
  1
strokes_ogs.tif
176
     1
290
     0
176
     1
 40
1.0
176
     1
 40
1.0
176
     1
  0
VISUALSTYLE
  5
35
102
{ACAD_REACTORS
330
29
102
}
330
29
100
AcDbVisualStyle
  2
Brighten
 70
    12
177
     3
291
     1
 70
    58
 90
        2
176
     1
 90
        2
176
     1
 90
        0
176
     1
 90
        0
176
     1
 40
0.6
176
     1
 40
30.0
176
     1
 62
     7
420
 16777215
176
     1
 90
        1
176
     1
 90
        4
176
     1
 62
     7
176
     1
 62
   257
176
     1
 90
        1
176
     1
 90
        1
176
     1
 40
1.0
176
     1
 90
        8
176
     1
 62
     7
176
     1
 40
1.0
176
     1
 90
        1
176
     1
 90
        6
176
     1
 90
        2
176
     1
 62
     7
176
     1
 90
        5
176
     1
 90
        0
176
     1
 90
        0
176
     1
290
     0
176
     1
 90
        1
176
     1
 40
50.0
176
     1
 90
        0
176
     1
290
     0
176
     1
290
     1
176
     1
290
     1
176
     1
290
     0
176
     1
290
     0
176
     1
290
     0
176
     1
290
     0
176
     1
290
     0
176
     1
290
     0
176
     1
 90
       50
176
     1
 40
0.0
176
     1
 40
1.0
176
     1
 90
        0
176
     1
 62
    18
420
        0
176
     1
 90
       50
176
     1
 90
        3
176
     1
 62
     5
420
      255
176
     1
290
     0
176
     1
 90
       50
176
     1
 90
       50
176
     1
 90
       50
176
     1
290
     0
176
     1
 90
       50
176
     1
 62
   256
176
     0
 40
1.0
176
     0
 90
        2
176
     1
  1
strokes_ogs.tif
176
     1
290
     0
176
     1
 40
1.0
176
     1
 40
1.0
176
     1
  0
VISUALSTYLE
  5
39
102
{ACAD_REACTORS
330
29
102
}
330
29
100
AcDbVisualStyle
  2
ColorChange
 70
    16
177
     3
291
     1
 70
    58
 90
        2
176
     1
 90
        2
176
     1
 90
        3
176
     1
 90
        0
176
     1
 40
0.6
176
     1
 40
30.0
176
     1
 62
     8
420
  8421504
176
     1
 90
        1
176
     1
 90
        4
176
     1
 62
     7
176
     1
 62
   257
176
     1
 90
        1
176
     1
 90
        1
176
     1
 40
1.0
176
     1
 90
        8
176
     1
 62
     8
420
  8421504
176
     1
 40
1.0
176
     1
 90
        1
176
     1
 90
        6
176
     1
 90
        2
176
     1
 62
     7
176
     1
 90
        5
176
     1
 90
        0
176
     1
 90
        0
176
     1
290
     0
176
     1
 90
        1
176
     1
 40
0.0
176
     1
 90
        0
176
     1
290
     0
176
     1
290
     1
176
     1
290
     1
176
     1
290
     0
176
     1
290
     0
176
     1
290
     0
176
     1
290
     0
176
     1
290
     0
176
     1
290
     0
176
     1
 90
       50
176
     1
 40
0.0
176
     1
 40
1.0
176
     1
 90
        0
176
     1
 62
    18
420
        0
176
     1
 90
       50
176
     1
 90
        3
176
     1
 62
     5
420
      255
176
     1
290
     0
176
     1
 90
       50
176
     1
 90
       50
176
     1
 90
       50
176
     1
290
     0
176
     1
 90
       50
176
     1
 62
   256
176
     0
 40
1.0
176
     0
 90
        2
176
     1
  1
strokes_ogs.tif
176
     1
290
     0
176
     1
 40
1.0
176
     1
 40
1.0
176
     1
  0
VISUALSTYLE
  5
32
102
{ACAD_REACTORS
330
29
102
}
330
29
100
AcDbVisualStyle
  2
Conceptual
 70
     9
177
     3
291
     0
 70
    58
 90
        3
176
     1
 90
        2
176
     1
 90
        0
176
     1
 90
        0
176
     1
 40
0.6
176
     1
 40
30.0
176
     1
 62
     7
420
 16777215
176
     1
 90
        2
176
     1
 90
        2
176
     1
 62
     7
176
     1
 62
   257
176
     1
 90
        1
176
     1
 90
        1
176
     1
 40
179.0
176
     1
 90
        8
176
     1
 62
     7
176
     1
 40
1.0
176
     1
 90
        1
176
     1
 90
        6
176
     1
 90
        2
176
     1
 62
     7
176
     1
 90
        3
176
     1
 90
        0
176
     1
 90
        0
176
     1
290
     0
176
     1
 90
        1
176
     1
 40
0.0
176
     1
 90
        0
176
     1
290
     0
176
     1
290
     1
176
     1
290
     1
176
     1
290
     0
176
     1
290
     0
176
     1
290
     0
176
     1
290
     0
176
     1
290
     0
176
     1
290
     0
176
     1
 90
       50
176
     1
 40
0.0
176
     1
 40
1.0
176
     1
 90
        0
176
     1
 62
    18
420
        0
176
     1
 90
       50
176
     1
 90
        3
176
     1
 62
     5
420
      255
176
     1
290
     0
176
     1
 90
       50
176
     1
 90
       50
176
     1
 90
       50
176
     1
290
     0
176
     1
 90
       50
176
     1
 62
   256
176
     0
 40
1.0
176
     0
 90
        2
176
     1
  1
strokes_ogs.tif
176
     1
290
     0
176
     1
 40
1.0
176
     1
 40
1.0
176
     1
  0
VISUALSTYLE
  5
34
102
{ACAD_REACTORS
330
29
102
}
330
29
100
AcDbVisualStyle
  2
Dim
 70
    11
177
     3
291
     1
 70
    58
 90
        2
176
     1
 90
        2
176
     1
 90
        0
176
     1
 90
        0
176
     1
 40
0.6
176
     1
 40
30.0
176
     1
 62
     7
420
 16777215
176
     1
 90
        1
176
     1
 90
        4
176
     1
 62
     7
176
     1
 62
   257
176
     1
 90
        1
176
     1
 90
        1
176
     1
 40
1.0
176
     1
 90
        8
176
     1
 62
     7
176
     1
 40
1.0
176
     1
 90
        1
176
     1
 90
        6
176
     1
 90
        2
176
     1
 62
     7
176
     1
 90
        5
176
     1
 90
        0
176
     1
 90
        0
176
     1
290
     0
176
     1
 90
        1
176
     1
 40
-50.0
176
     1
 90
        0
176
     1
290
     0
176
     1
290
     1
176
     1
290
     1
176
     1
290
     0
176
     1
290
     0
176
     1
290
     0
176
     1
290
     0
176
     1
290
     0
176
     1
290
     0
176
     1
 90
       50
176
     1
 40
0.0
176
     1
 40
1.0
176
     1
 90
        0
176
     1
 62
    18
420
        0
176
     1
 90
       50
176
     1
 90
        3
176
     1
 62
     5
420
      255
176
     1
290
     0
176
     1
 90
       50
176
     1
 90
       50
176
     1
 90
       50
176
     1
290
     0
176
     1
 90
       50
176
     1
 62
   256
176
     0
 40
1.0
176
     0
 90
        2
176
     1
  1
strokes_ogs.tif
176
     1
290
     0
176
     1
 40
1.0
176
     1
 40
1.0
176
     1
  0
VISUALSTYLE
  5
41
102
{ACAD_REACTORS
330
29
102
}
330
29
100
AcDbVisualStyle
  2
EdgeColorOff
 70
    22
177
     3
291
     1
 70
    58
 90
        2
176
     0
 90
        2
176
     0
 90
        0
176
     0
 90
        0
176
     0
 40
0.6
176
     0
 40
30.0
176
     0
 62
     7
420
 16777215
176
     0
 90
        1
176
     0
 90
        4
176
     0
 62
     7
176
     0
 62
   257
176
     0
 90
        1
176
     0
 90
        1
176
     0
 40
1.0
176
     0
 90
        8
176
     2
 62
     7
176
     0
 40
1.0
176
     0
 90
        1
176
     0
 90
        6
176
     0
 90
        2
176
     0
 62
     7
176
     0
 90
        5
176
     0
 90
        0
176
     0
 90
        0
176
     0
290
     0
176
     0
 90
        1
176
     0
 40
0.0
176
     0
 90
        0
176
     0
290
     0
176
     0
290
     1
176
     0
290
     1
176
     0
290
     0
176
     0
290
     0
176
     0
290
     0
176
     0
290
     0
176
     0
290
     0
176
     0
290
     0
176
     0
 90
       50
176
     0
 40
0.0
176
     0
 40
1.0
176
     0
 90
        0
176
     0
 62
    18
420
        0
176
     0
 90
       50
176
     0
 90
        3
176
     0
 62
     5
420
      255
176
     0
290
     0
176
     0
 90
       50
176
     0
 90
       50
176
     0
 90
       50
176
     0
290
     0
176
     0
 90
       50
176
     0
 62
   256
176
     0
 40
1.0
176
     0
 90
        2
176
     0
  1
strokes_ogs.tif
176
     0
290
     0
176
     0
 40
1.0
176
     0
 40
1.0
176
     0
  0
VISUALSTYLE
  5
38
102
{ACAD_REACTORS
330
29
102
}
330
29
100
AcDbVisualStyle
  2
Facepattern
 70
    15
177
     3
291
     1
 70
    58
 90
        2
176
     1
 90
        2
176
     1
 90
        0
176
     1
 90
        0
176
     1
 40
0.6
176
     1
 40
30.0
176
     1
 62
     7
420
 16777215
176
     1
 90
        1
176
     1
 90
        4
176
     1
 62
     7
176
     1
 62
   257
176
     1
 90
        1
176
     1
 90
        1
176
     1
 40
1.0
176
     1
 90
        8
176
     1
 62
     7
176
     1
 40
1.0
176
     1
 90
        1
176
     1
 90
        6
176
     1
 90
        2
176
     1
 62
     7
176
     1
 90
        5
176
     1
 90
        0
176
     1
 90
        0
176
     1
290
     0
176
     1
 90
        1
176
     1
 40
0.0
176
     1
 90
        0
176
     1
290
     0
176
     1
290
     1
176
     1
290
     1
176
     1
290
     0
176
     1
290
     0
176
     1
290
     0
176
     1
290
     0
176
     1
290
     0
176
     1
290
     0
176
     1
 90
       50
176
     1
 40
0.0
176
     1
 40
1.0
176
     1
 90
        0
176
     1
 62
    18
420
        0
176
     1
 90
       50
176
     1
 90
        3
176
     1
 62
     5
420
      255
176
     1
290
     0
176
     1
 90
       50
176
     1
 90
       50
176
     1
 90
       50
176
     1
290
     0
176
     1
 90
       50
176
     1
 62
   256
176
     0
 40
1.0
176
     0
 90
        2
176
     1
  1
strokes_ogs.tif
176
     1
290
     0
176
     1
 40
1.0
176
     1
 40
1.0
176
     1
  0
VISUALSTYLE
  5
2A
102
{ACAD_REACTORS
330
29
102
}
330
29
100
AcDbVisualStyle
  2
Flat
 70
     0
177
     3
291
     1
 70
    58
 90
        2
176
     1
 90
        1
176
     1
 90
        1
176
     1
 90
        2
176
     1
 40
0.6
176
     1
 40
30.0
176
     1
 62
     7
420
 16777215
176
     1
 90
        0
176
     1
 90
        0
176
     1
 62
     7
176
     1
 62
   257
176
     1
 90
        1
176
     1
 90
        1
176
     1
 40
1.0
176
     1
 90
        8
176
     1
 62
     7
176
     1
 40
1.0
176
     1
 90
        1
176
     1
 90
        6
176
     1
 90
        2
176
     1
 62
     7
176
     1
 90
        5
176
     1
 90
        0
176
     1
 90
        0
176
     1
290
     0
176
     1
 90
       13
176
     1
 40
0.0
176
     1
 90
        0
176
     1
290
     0
176
     1
290
     1
176
     1
290
     1
176
     1
290
     0
176
     1
290
     0
176
     1
290
     0
176
     1
290
     0
176
     1
290
     0
176
     1
290
     0
176
     1
 90
       50
176
     1
 40
0.0
176
     1
 40
1.0
176
     1
 90
        0
176
     1
 62
    18
420
        0
176
     1
 90
       50
176
     1
 90
        3
176
     1
 62
     5
420
      255
176
     1
290
     0
176
     1
 90
       50
176
     1
 90
       50
176
     1
 90
       50
176
     1
290
     0
176
     1
 90
       50
176
     1
 62
   256
176
     0
 40
1.0
176
     0
 90
        2
176
     1
  1
strokes_ogs.tif
176
     1
290
     0
176
     1
 40
1.0
176
     1
 40
1.0
176
     1
  0
VISUALSTYLE
  5
2B
102
{ACAD_REACTORS
330
29
102
}
330
29
100
AcDbVisualStyle
  2
FlatWithEdges
 70
     1
177
     3
291
     1
 70
    58
 90
        2
176
     1
 90
        1
176
     1
 90
        1
176
     1
 90
        2
176
     1
 40
0.6
176
     1
 40
30.0
176
     1
 62
     7
420
 16777215
176
     1
 90
        1
176
     1
 90
        0
176
     1
 62
     7
176
     1
 62
   257
176
     1
 90
        1
176
     1
 90
        1
176
     1
 40
1.0
176
     1
 90
        0
176
     1
 62
   257
176
     1
 40
1.0
176
     1
 90
        1
176
     1
 90
        6
176
     1
 90
        2
176
     1
 62
     7
176
     1
 90
        5
176
     1
 90
        0
176
     1
 90
        0
176
     1
290
     0
176
     1
 90
       13
176
     1
 40
0.0
176
     1
 90
        0
176
     1
290
     0
176
     1
290
     1
176
     1
290
     1
176
     1
290
     0
176
     1
290
     0
176
     1
290
     0
176
     1
290
     0
176
     1
290
     0
176
     1
290
     0
176
     1
 90
       50
176
     1
 40
0.0
176
     1
 40
1.0
176
     1
 90
        0
176
     1
 62
    18
420
        0
176
     1
 90
       50
176
     1
 90
        3
176
     1
 62
     5
420
      255
176
     1
290
     0
176
     1
 90
       50
176
     1
 90
       50
176
     1
 90
       50
176
     1
290
     0
176
     1
 90
       50
176
     1
 62
   256
176
     0
 40
1.0
176
     0
 90
        2
176
     1
  1
strokes_ogs.tif
176
     1
290
     0
176
     1
 40
1.0
176
     1
 40
1.0
176
     1
  0
VISUALSTYLE
  5
2C
102
{ACAD_REACTORS
330
29
102
}
330
29
100
AcDbVisualStyle
  2
Gouraud
 70
     2
177
     3
291
     1
 70
    58
 90
        2
176
     1
 90
        2
176
     1
 90
        1
176
     1
 90
        2
176
     1
 40
0.6
176
     1
 40
30.0
176
     1
 62
     7
420
 16777215
176
     1
 90
        0
176
     1
 90
        0
176
     1
 62
     7
176
     1
 62
   257
176
     1
 90
        1
176
     1
 90
        1
176
     1
 40
1.0
176
     1
 90
        0
176
     1
 62
     7
176
     1
 40
1.0
176
     1
 90
        1
176
     1
 90
        6
176
     1
 90
        2
176
     1
 62
     7
176
     1
 90
        5
176
     1
 90
        0
176
     1
 90
        0
176
     1
290
     0
176
     1
 90
       13
176
     1
 40
0.0
176
     1
 90
        0
176
     1
290
     0
176
     1
290
     1
176
     1
290
     1
176
     1
290
     0
176
     1
290
     0
176
     1
290
     0
176
     1
290
     0
176
     1
290
     0
176
     1
290
     0
176
     1
 90
       50
176
     1
 40
0.0
176
     1
 40
1.0
176
     1
 90
        0
176
     1
 62
    18
420
        0
176
     1
 90
       50
176
     1
 90
        3
176
     1
 62
     5
420
      255
176
     1
290
     0
176
     1
 90
       50
176
     1
 90
       50
176
     1
 90
       50
176
     1
290
     0
176
     1
 90
       50
176
     1
 62
   256
176
     0
 40
1.0
176
     0
 90
        2
176
     1
  1
strokes_ogs.tif
176
     1
290
     0
176
     1
 40
1.0
176
     1
 40
1.0
176
     1
  0
VISUALSTYLE
  5
2D
102
{ACAD_REACTORS
330
29
102
}
330
29
100
AcDbVisualStyle
  2
GouraudWithEdges
 70
     3
177
     3
291
     1
 70
    58
 90
        2
176
     1
 90
        2
176
     1
 90
        1
176
     1
 90
        2
176
     1
 40
0.6
176
     1
 40
30.0
176
     1
 62
     7
420
 16777215
176
     1
 90
        1
176
     1
 90
        0
176
     1
 62
     7
176
     1
 62
   257
176
     1
 90
        1
176
     1
 90
        1
176
     1
 40
1.0
176
     1
 90
        0
176
     1
 62
   257
176
     1
 40
1.0
176
     1
 90
        1
176
     1
 90
        6
176
     1
 90
        2
176
     1
 62
     7
176
     1
 90
        5
176
     1
 90
        0
176
     1
 90
        0
176
     1
290
     0
176
     1
 90
       13
176
     1
 40
0.0
176
     1
 90
        0
176
     1
290
     0
176
     1
290
     1
176
     1
290
     1
176
     1
290
     0
176
     1
290
     0
176
     1
290
     0
176
     1
290
     0
176
     1
290
     0
176
     1
290
     0
176
     1
 90
       50
176
     1
 40
0.0
176
     1
 40
1.0
176
     1
 90
        0
176
     1
 62
    18
420
        0
176
     1
 90
       50
176
     1
 90
        3
176
     1
 62
     5
420
      255
176
     1
290
     0
176
     1
 90
       50
176
     1
 90
       50
176
     1
 90
       50
176
     1
290
     0
176
     1
 90
       50
176
     1
 62
   256
176
     0
 40
1.0
176
     0
 90
        2
176
     1
  1
strokes_ogs.tif
176
     1
290
     0
176
     1
 40
1.0
176
     1
 40
1.0
176
     1
  0
VISUALSTYLE
  5
31
102
{ACAD_REACTORS
330
29
102
}
330
29
100
AcDbVisualStyle
  2
Hidden
 70
     6
177
     3
291
     0
 70
    58
 90
        1
176
     1
 90
        2
176
     1
 90
        2
176
     1
 90
        0
176
     1
 40
0.6
176
     1
 40
30.0
176
     1
 62
     7
420
 16777215
176
     1
 90
        2
176
     1
 90
        2
176
     1
 62
     7
176
     1
 62
   257
176
     1
 90
        2
176
     1
 90
        1
176
     1
 40
40.0
176
     1
 90
        0
176
     1
 62
   257
176
     1
 40
1.0
176
     1
 90
        1
176
     1
 90
        6
176
     1
 90
        2
176
     1
 62
     7
176
     1
 90
        3
176
     1
 90
        0
176
     1
 90
        0
176
     1
290
     0
176
     1
 90
        1
176
     1
 40
0.0
176
     1
 90
        0
176
     1
290
     0
176
     1
290
     1
176
     1
290
     1
176
     1
290
     0
176
     1
290
     0
176
     1
290
     0
176
     1
290
     0
176
     1
290
     0
176
     1
290
     0
176
     1
 90
       50
176
     1
 40
0.0
176
     1
 40
1.0
176
     1
 90
        0
176
     1
 62
    18
420
        0
176
     1
 90
       50
176
     1
 90
        3
176
     1
 62
     5
420
      255
176
     1
290
     0
176
     1
 90
       50
176
     1
 90
       50
176
     1
 90
       50
176
     1
290
     0
176
     1
 90
       50
176
     1
 62
   256
176
     0
 40
1.0
176
     0
 90
        2
176
     1
  1
strokes_ogs.tif
176
     1
290
     0
176
     1
 40
1.0
176
     1
 40
1.0
176
     1
  0
VISUALSTYLE
  5
3F
102
{ACAD_REACTORS
330
29
102
}
330
29
100
AcDbVisualStyle
  2
JitterOff
 70
    20
177
     3
291
     1
 70
    58
 90
        2
176
     0
 90
        2
176
     0
 90
        0
176
     0
 90
        0
176
     0
 40
0.6
176
     0
 40
30.0
176
     0
 62
     7
420
 16777215
176
     0
 90
        1
176
     0
 90
        4
176
     0
 62
     7
176
     0
 62
   257
176
     0
 90
        1
176
     0
 90
        1
176
     0
 40
1.0
176
     0
 90
       10
176
     2
 62
     7
176
     0
 40
1.0
176
     0
 90
        1
176
     0
 90
        6
176
     0
 90
        2
176
     0
 62
     7
176
     0
 90
        5
176
     0
 90
        0
176
     0
 90
        0
176
     0
290
     0
176
     0
 90
        1
176
     0
 40
0.0
176
     0
 90
        0
176
     0
290
     0
176
     0
290
     1
176
     0
290
     1
176
     0
290
     0
176
     0
290
     0
176
     0
290
     0
176
     0
290
     0
176
     0
290
     0
176
     0
290
     0
176
     0
 90
       50
176
     0
 40
0.0
176
     0
 40
1.0
176
     0
 90
        0
176
     0
 62
    18
420
        0
176
     0
 90
       50
176
     0
 90
        3
176
     0
 62
     5
420
      255
176
     0
290
     0
176
     0
 90
       50
176
     0
 90
       50
176
     0
 90
       50
176
     0
290
     0
176
     0
 90
       50
176
     0
 62
   256
176
     0
 40
1.0
176
     0
 90
        2
176
     0
  1
strokes_ogs.tif
176
     0
290
     0
176
     0
 40
1.0
176
     0
 40
1.0
176
     0
  0
VISUALSTYLE
  5
37
102
{ACAD_REACTORS
330
29
102
}
330
29
100
AcDbVisualStyle
  2
Linepattern
 70
    14
177
     3
291
     1
 70
    58
 90
        2
176
     1
 90
        2
176
     1
 90
        0
176
     1
 90
        0
176
     1
 40
0.6
176
     1
 40
30.0
176
     1
 62
     7
420
 16777215
176
     1
 90
        1
176
     1
 90
        4
176
     1
 62
     7
176
     1
 62
   257
176
     1
 90
        7
176
     1
 90
        7
176
     1
 40
1.0
176
     1
 90
        8
176
     1
 62
     7
176
     1
 40
1.0
176
     1
 90
        1
176
     1
 90
        6
176
     1
 90
        2
176
     1
 62
     7
176
     1
 90
        5
176
     1
 90
        0
176
     1
 90
        0
176
     1
290
     0
176
     1
 90
        1
176
     1
 40
0.0
176
     1
 90
        0
176
     1
290
     0
176
     1
290
     1
176
     1
290
     1
176
     1
290
     0
176
     1
290
     0
176
     1
290
     0
176
     1
290
     0
176
     1
290
     0
176
     1
290
     0
176
     1
 90
       50
176
     1
 40
0.0
176
     1
 40
1.0
176
     1
 90
        0
176
     1
 62
    18
420
        0
176
     1
 90
       50
176
     1
 90
        3
176
     1
 62
     5
420
      255
176
     1
290
     0
176
     1
 90
       50
176
     1
 90
       50
176
     1
 90
       50
176
     1
290
     0
176
     1
 90
       50
176
     1
 62
   256
176
     0
 40
1.0
176
     0
 90
        2
176
     1
  1
strokes_ogs.tif
176
     1
290
     0
176
     1
 40
1.0
176
     1
 40
1.0
176
     1
  0
VISUALSTYLE
  5
40
102
{ACAD_REACTORS
330
29
102
}
330
29
100
AcDbVisualStyle
  2
OverhangOff
 70
    21
177
     3
291
     1
 70
    58
 90
        2
176
     0
 90
        2
176
     0
 90
        0
176
     0
 90
        0
176
     0
 40
0.6
176
     0
 40
30.0
176
     0
 62
     7
420
 16777215
176
     0
 90
        1
176
     0
 90
        4
176
     0
 62
     7
176
     0
 62
   257
176
     0
 90
        1
176
     0
 90
        1
176
     0
 40
1.0
176
     0
 90
        9
176
     2
 62
     7
176
     0
 40
1.0
176
     0
 90
        1
176
     0
 90
        6
176
     0
 90
        2
176
     0
 62
     7
176
     0
 90
        5
176
     0
 90
        0
176
     0
 90
        0
176
     0
290
     0
176
     0
 90
        1
176
     0
 40
0.0
176
     0
 90
        0
176
     0
290
     0
176
     0
290
     1
176
     0
290
     1
176
     0
290
     0
176
     0
290
     0
176
     0
290
     0
176
     0
290
     0
176
     0
290
     0
176
     0
290
     0
176
     0
 90
       50
176
     0
 40
0.0
176
     0
 40
1.0
176
     0
 90
        0
176
     0
 62
    18
420
        0
176
     0
 90
       50
176
     0
 90
        3
176
     0
 62
     5
420
      255
176
     0
290
     0
176
     0
 90
       50
176
     0
 90
       50
176
     0
 90
       50
176
     0
290
     0
176
     0
 90
       50
176
     0
 62
   256
176
     0
 40
1.0
176
     0
 90
        2
176
     0
  1
strokes_ogs.tif
176
     0
290
     0
176
     0
 40
1.0
176
     0
 40
1.0
176
     0
  0
VISUALSTYLE
  5
33
102
{ACAD_REACTORS
330
29
102
}
330
29
100
AcDbVisualStyle
  2
Realistic
 70
     8
177
     3
291
     0
 70
    58
 90
        2
176
     1
 90
        3
176
     1
 90
        0
176
     1
 90
        2
176
     1
 40
0.6
176
     1
 40
30.0
176
     1
 62
     7
420
 16777215
176
     1
 90
        0
176
     1
 90
        0
176
     1
 62
     7
176
     1
 62
   257
176
     1
 90
        1
176
     1
 90
        1
176
     1
 40
1.0
176
     1
 90
        8
176
     1
 62
   257
176
     1
 40
1.0
176
     1
 90
        1
176
     1
 90
        6
176
     1
 90
        2
176
     1
 62
     7
176
     1
 90
        3
176
     1
 90
        0
176
     1
 90
        0
176
     1
290
     0
176
     1
 90
       13
176
     1
 40
0.0
176
     1
 90
        0
176
     1
290
     0
176
     1
290
     1
176
     1
290
     1
176
     1
290
     0
176
     1
290
     0
176
     1
290
     0
176
     1
290
     0
176
     1
290
     0
176
     1
290
     0
176
     1
 90
       50
176
     1
 40
0.0
176
     1
 40
1.0
176
     1
 90
        0
176
     1
 62
    18
420
        0
176
     1
 90
       50
176
     1
 90
        3
176
     1
 62
     5
420
      255
176
     1
290
     0
176
     1
 90
       50
176
     1
 90
       50
176
     1
 90
       50
176
     1
290
     0
176
     1
 90
       50
176
     1
 62
   256
176
     0
 40
1.0
176
     0
 90
        2
176
     1
  1
strokes_ogs.tif
176
     1
290
     0
176
     1
 40
1.0
176
     1
 40
1.0
176
     1
  0
VISUALSTYLE
  5
3E
102
{ACAD_REACTORS
330
29
102
}
330
29
100
AcDbVisualStyle
  2
Shaded
 70
    27
177
     3
291
     0
 70
    58
 90
        2
176
     1
 90
        2
176
     1
 90
        1
176
     1
 90
        2
176
     1
 40
0.6
176
     1
 40
30.0
176
     1
 62
     7
420
 16777215
176
     1
 90
        0
176
     1
 90
        4
176
     1
 62
     7
176
     1
 62
   257
176
     1
 90
        1
176
     1
 90
        1
176
     1
 40
1.0
176
     1
 90
        8
176
     1
 62
   257
176
     1
 40
1.0
176
     1
 90
        1
176
     1
 90
        6
176
     1
 90
        2
176
     1
 62
     8
420
  7895160
176
     1
 90
        3
176
     1
 90
        0
176
     1
 90
        0
176
     1
290
     0
176
     1
 90
        5
176
     1
 40
0.0
176
     1
 90
        0
176
     1
290
     0
176
     1
290
     1
176
     1
290
     1
176
     1
290
     0
176
     1
290
     0
176
     1
290
     0
176
     1
290
     0
176
     1
290
     0
176
     1
290
     0
176
     1
 90
       50
176
     1
 40
0.0
176
     1
 40
1.0
176
     1
 90
        0
176
     1
 62
    18
420
        0
176
     1
 90
       50
176
     1
 90
        3
176
     1
 62
     5
420
      255
176
     1
290
     0
176
     1
 90
       50
176
     1
 90
       50
176
     1
 90
       50
176
     1
290
     0
176
     1
 90
       50
176
     1
 62
   256
176
     0
 40
1.0
176
     0
 90
        2
176
     1
  1
strokes_ogs.tif
176
     1
290
     0
176
     1
 40
1.0
176
     1
 40
1.0
176
     1
  0
VISUALSTYLE
  5
3D
102
{ACAD_REACTORS
330
29
102
}
330
29
100
AcDbVisualStyle
  2
Shaded with edges
 70
    26
177
     3
291
     0
 70
    58
 90
        2
176
     1
 90
        2
176
     1
 90
        1
176
     1
 90
        2
176
     1
 40
0.6
176
     1
 40
30.0
176
     1
 62
     7
420
 16777215
176
     1
 90
        1
176
     1
 90
        2
176
     1
 62
     7
176
     1
 62
   257
176
     1
 90
        2
176
     1
 90
        1
176
     1
 40
1.0
176
     1
 90
        8
176
     1
 62
   257
176
     1
 40
1.0
176
     1
 90
        1
176
     1
 90
        6
176
     1
 90
        2
176
     1
 62
     7
176
     1
 90
        3
176
     1
 90
        0
176
     1
 90
        0
176
     1
290
     0
176
     1
 90
        5
176
     1
 40
0.0
176
     1
 90
        0
176
     1
290
     0
176
     1
290
     1
176
     1
290
     1
176
     1
290
     0
176
     1
290
     0
176
     1
290
     0
176
     1
290
     0
176
     1
290
     0
176
     1
290
     0
176
     1
 90
       50
176
     1
 40
0.0
176
     1
 40
1.0
176
     1
 90
        0
176
     1
 62
    18
420
        0
176
     1
 90
       50
176
     1
 90
        3
176
     1
 62
     5
420
      255
176
     1
290
     0
176
     1
 90
       50
176
     1
 90
       50
176
     1
 90
       50
176
     1
290
     0
176
     1
 90
       50
176
     1
 62
   256
176
     0
 40
1.0
176
     0
 90
        2
176
     1
  1
strokes_ogs.tif
176
     1
290
     0
176
     1
 40
1.0
176
     1
 40
1.0
176
     1
  0
VISUALSTYLE
  5
3A
102
{ACAD_REACTORS
330
29
102
}
330
29
100
AcDbVisualStyle
  2
Shades of Gray
 70
    23
177
     3
291
     0
 70
    58
 90
        2
176
     1
 90
        2
176
     1
 90
        3
176
     1
 90
        0
176
     1
 40
0.6
176
     1
 40
30.0
176
     1
 62
     7
420
 16777215
176
     1
 90
        2
176
     1
 90
        2
176
     1
 62
     7
176
     1
 62
     7
176
     1
 90
        1
176
     1
 90
        1
176
     1
 40
40.0
176
     1
 90
        8
176
     1
 62
     7
176
     1
 40
1.0
176
     1
 90
        1
176
     1
 90
        6
176
     1
 90
        2
176
     1
 62
     7
176
     1
 90
        3
176
     1
 90
        0
176
     1
 90
        0
176
     1
290
     0
176
     1
 90
        1
176
     1
 40
0.0
176
     1
 90
        0
176
     1
290
     0
176
     1
290
     1
176
     1
290
     1
176
     1
290
     0
176
     1
290
     0
176
     1
290
     0
176
     1
290
     0
176
     1
290
     0
176
     1
290
     0
176
     1
 90
       50
176
     1
 40
0.0
176
     1
 40
1.0
176
     1
 90
        0
176
     1
 62
    18
420
        0
176
     1
 90
       50
176
     1
 90
        3
176
     1
 62
     5
420
      255
176
     1
290
     0
176
     1
 90
       50
176
     1
 90
       50
176
     1
 90
       50
176
     1
290
     0
176
     1
 90
       50
176
     1
 62
   256
176
     0
 40
1.0
176
     0
 90
        2
176
     1
  1
strokes_ogs.tif
176
     1
290
     0
176
     1
 40
1.0
176
     1
 40
1.0
176
     1
  0
VISUALSTYLE
  5
3B
102
{ACAD_REACTORS
330
29
102
}
330
29
100
AcDbVisualStyle
  2
Sketchy
 70
    24
177
     3
291
     0
 70
    58
 90
        1
176
     1
 90
        2
176
     1
 90
        2
176
     1
 90
        0
176
     1
 40
0.6
176
     1
 40
30.0
176
     1
 62
     7
420
 16777215
176
     1
 90
        2
176
     1
 90
        2
176
     1
 62
     7
176
     1
 62
     7
176
     1
 90
        1
176
     1
 90
        1
176
     1
 40
40.0
176
     1
 90
       11
176
     1
 62
     7
176
     1
 40
1.0
176
     1
 90
        1
176
     1
 90
        6
176
     1
 90
        2
176
     1
 62
     7
176
     1
 90
        6
176
     1
 90
        0
176
     1
 90
        0
176
     1
290
     0
176
     1
 90
        1
176
     1
 40
0.0
176
     1
 90
        0
176
     1
290
     0
176
     1
290
     1
176
     1
290
     1
176
     1
290
     0
176
     1
290
     0
176
     1
290
     0
176
     1
290
     0
176
     1
290
     0
176
     1
290
     0
176
     1
 90
       50
176
     1
 40
0.0
176
     1
 40
1.0
176
     1
 90
        0
176
     1
 62
    18
420
        0
176
     1
 90
       50
176
     1
 90
        3
176
     1
 62
     5
420
      255
176
     1
290
     0
176
     1
 90
       50
176
     1
 90
       50
176
     1
 90
       50
176
     1
290
     0
176
     1
 90
       50
176
     1
 62
   256
176
     0
 40
1.0
176
     0
 90
        2
176
     1
  1
strokes_ogs.tif
176
     1
290
     0
176
     1
 40
1.0
176
     1
 40
1.0
176
     1
  0
VISUALSTYLE
  5
36
102
{ACAD_REACTORS
330
29
102
}
330
29
100
AcDbVisualStyle
  2
Thicken
 70
    13
177
     3
291
     1
 70
    58
 90
        2
176
     1
 90
        2
176
     1
 90
        0
176
     1
 90
        0
176
     1
 40
0.6
176
     1
 40
30.0
176
     1
 62
     7
420
 16777215
176
     1
 90
        1
176
     1
 90
        4
176
     1
 62
     7
176
     1
 62
   257
176
     1
 90
        1
176
     1
 90
        1
176
     1
 40
1.0
176
     1
 90
       12
176
     1
 62
     7
176
     1
 40
1.0
176
     1
 90
        1
176
     1
 90
        6
176
     1
 90
        2
176
     1
 62
     7
176
     1
 90
        5
176
     1
 90
        0
176
     1
 90
        0
176
     1
290
     0
176
     1
 90
        1
176
     1
 40
0.0
176
     1
 90
        0
176
     1
290
     0
176
     1
290
     1
176
     1
290
     1
176
     1
290
     0
176
     1
290
     0
176
     1
290
     0
176
     1
290
     0
176
     1
290
     0
176
     1
290
     0
176
     1
 90
       50
176
     1
 40
0.0
176
     1
 40
1.0
176
     1
 90
        0
176
     1
 62
    18
420
        0
176
     1
 90
       50
176
     1
 90
        3
176
     1
 62
     5
420
      255
176
     1
290
     0
176
     1
 90
       50
176
     1
 90
       50
176
     1
 90
       50
176
     1
290
     0
176
     1
 90
       50
176
     1
 62
   256
176
     0
 40
1.0
176
     0
 90
        2
176
     1
  1
strokes_ogs.tif
176
     1
290
     0
176
     1
 40
1.0
176
     1
 40
1.0
176
     1
  0
VISUALSTYLE
  5
30
102
{ACAD_REACTORS
330
29
102
}
330
29
100
AcDbVisualStyle
  2
Wireframe
 70
     5
177
     3
291
     0
 70
    58
 90
        0
176
     1
 90
        2
176
     1
 90
        0
176
     1
 90
        0
176
     1
 40
0.6
176
     1
 40
30.0
176
     1
 62
     7
420
 16777215
176
     1
 90
        1
176
     1
 90
        4
176
     1
 62
     7
176
     1
 62
   257
176
     1
 90
        1
176
     1
 90
        1
176
     1
 40
1.0
176
     1
 90
        0
176
     1
 62
   257
176
     1
 40
1.0
176
     1
 90
        1
176
     1
 90
        6
176
     1
 90
        2
176
     1
 62
     7
176
     1
 90
        3
176
     1
 90
        0
176
     1
 90
        0
176
     1
290
     0
176
     1
 90
        1
176
     1
 40
0.0
176
     1
 90
        0
176
     1
290
     0
176
     1
290
     1
176
     1
290
     1
176
     1
290
     0
176
     1
290
     0
176
     1
290
     0
176
     1
290
     0
176
     1
290
     0
176
     1
290
     0
176
     1
 90
       50
176
     1
 40
0.0
176
     1
 40
1.0
176
     1
 90
        0
176
     1
 62
    18
420
        0
176
     1
 90
       50
176
     1
 90
        3
176
     1
 62
     5
420
      255
176
     1
290
     0
176
     1
 90
       50
176
     1
 90
       50
176
     1
 90
       50
176
     1
290
     0
176
     1
 90
       50
176
     1
 62
   256
176
     0
 40
1.0
176
     0
 90
        2
176
     1
  1
strokes_ogs.tif
176
     1
290
     0
176
     1
 40
1.0
176
     1
 40
1.0
176
     1
  0
VISUALSTYLE
  5
3C
102
{ACAD_REACTORS
330
29
102
}
330
29
100
AcDbVisualStyle
  2
X-Ray
 70
    25
177
     3
291
     0
 70
    58
 90
        2
176
     1
 90
        2
176
     1
 90
        1
176
     1
 90
        1
176
     1
 40
0.5
176
     1
 40
30.0
176
     1
 62
     7
420
 16777215
176
     1
 90
        1
176
     1
 90
        0
176
     1
 62
     7
176
     1
 62
   257
176
     1
 90
        1
176
     1
 90
        1
176
     1
 40
1.0
176
     1
 90
        8
176
     1
 62
     7
176
     1
 40
1.0
176
     1
 90
        1
176
     1
 90
        6
176
     1
 90
        2
176
     1
 62
     7
176
     1
 90
        3
176
     1
 90
        0
176
     1
 90
        0
176
     1
290
     0
176
     1
 90
       13
176
     1
 40
0.0
176
     1
 90
        0
176
     1
290
     0
176
     1
290
     1
176
     1
290
     1
176
     1
290
     0
176
     1
290
     0
176
     1
290
     0
176
     1
290
     0
176
     1
290
     0
176
     1
290
     0
176
     1
 90
       50
176
     1
 40
0.0
176
     1
 40
1.0
176
     1
 90
        0
176
     1
 62
    18
420
        0
176
     1
 90
       50
176
     1
 90
        3
176
     1
 62
     5
420
      255
176
     1
290
     0
176
     1
 90
       50
176
     1
 90
       50
176
     1
 90
       50
176
     1
290
     0
176
     1
 90
       50
176
     1
 62
   256
176
     0
 40
1.0
176
     0
 90
        2
176
     1
  1
strokes_ogs.tif
176
     1
290
     0
176
     1
 40
1.0
176
     1
 40
1.0
176
     1
  0
DICTIONARYVAR
  5
80
102
{ACAD_REACTORS
330
7B
102
}
330
7B
100
DictionaryVariables
280
     0
  1
1:1
  0
DICTIONARYVAR
  5
7D
102
{ACAD_REACTORS
330
7B
102
}
330
7B
100
DictionaryVariables
280
     0
  1
STANDARD
  0
DICTIONARYVAR
  5
7C
102
{ACAD_REACTORS
330
7B
102
}
330
7B
100
DictionaryVariables
280
     0
  1
STANDARD
  0
DICTIONARYVAR
  5
7E
102
{ACAD_REACTORS
330
7B
102
}
330
7B
100
DictionaryVariables
280
     0
  1
Imperial24
  0
DICTIONARYVAR
  5
7F
102
{ACAD_REACTORS
330
7B
102
}
330
7B
100
DictionaryVariables
280
     0
  1
Imperial24
  0
XRECORD
  5
1B4
102
{ACAD_REACTORS
330
1AD
102
}
330
1AD
100
AcDbXrecord
280
     1
  1
BUILDING_ID
  1
686001_HCMFP_BabcockHall_A25_Rotated
  1
FLOOR_ID
  1
5209362
  0
XRECORD
  5
1B2
102
{ACAD_REACTORS
330
1AD
102
}
330
1AD
100
AcDbXrecord
280
     1
  1
-2000011
  1
Walls
  1
-2000023
  1
Doors
  1
-2000120
  1
Stairs
  1
-2000126
  1
Railings
  1
-2000829
  1
Room Polylines
  0
XRECORD
  5
1AE
102
{ACAD_REACTORS
330
1AD
102
}
330
1AD
100
AcDbXrecord
280
     1
  1
04f646b0-3c2a-46d6-b6c0-df979156c012
  0
XRECORD
  5
1B3
102
{ACAD_REACTORS
330
1AD
102
}
330
1AD
100
AcDbXrecord
280
     1
  1
-2000025
  1
Panel
  1
-2000029
  1
Frame/Mullion
  1
-2000128
  1
Rails
  1
-2000932
  1
Nosing Lines
  1
-2000934
  1
Outlines
  1
-2000952
  1
Supports
  1
636535
  1
Plan Swing
  0
XRECORD
  5
1B1
102
{ACAD_REACTORS
330
1AD
102
}
330
1AD
100
AcDbXrecord
280
     1
  1
1969
  1
Railing : Railing 1
  1
4450563
  1
Door-Single(CE) : HM Door-2" HM Frame
  1
44989
  1
Assembled Stair : 7" max riser 11" tread
  1
5121484
  1
Basic Wall : *Generic - 10" : *Generic - 10"
  1
5123281
  1
Basic Wall : *Generic - 15" : *Generic - 15"
  1
5124534
  1
Basic Wall : *Generic - 11" : *Generic - 11"
  1
639163
  1
Basic Wall : *Generic - 8" : *Generic - 8"
  1
639164
  1
Basic Wall : *Generic - 12" : *Generic - 12"
  1
639165
  1
Basic Wall : *Generic - 5" : *Generic - 5"
  0
DICTIONARY
  5
1A
330
19
100
AcDbDictionary
280
     1
281
     1
  3
BUMPTILE
360
1C
  3
DIFFUSETILE
360
1B
  3
OPACITYTILE
360
1F
  3
REFLECTIONTILE
360
1E
  3
REFRACTIONTILE
360
20
  3
SPECULARTILE
360
1D
  0
DICTIONARY
  5
12
330
11
100
AcDbDictionary
280
     1
281
     1
  3
BUMPTILE
360
14
  3
DIFFUSETILE
360
13
  3
OPACITYTILE
360
17
  3
REFLECTIONTILE
360
16
  3
REFRACTIONTILE
360
18
  3
SPECULARTILE
360
15
  0
DICTIONARY
  5
22
330
21
100
AcDbDictionary
280
     1
281
     1
  3
BUMPTILE
360
24
  3
DIFFUSETILE
360
23
  3
OPACITYTILE
360
27
  3
REFLECTIONTILE
360
26
  3
REFRACTIONTILE
360
28
  3
SPECULARTILE
360
25
  0
DICTIONARY
  5
1B7
330
65
100
AcDbDictionary
280
     1
281
     1
  3
ACAD_ROUNDTRIP_2008_TABLESTYLE_CELLSTYLEMAP
360
1B8
  0
XRECORD
  5
1C
102
{ACAD_REACTORS
330
1A
102
}
330
1A
100
AcDbXrecord
280
     1
270
     1
271
     1
  0
XRECORD
  5
1B
102
{ACAD_REACTORS
330
1A
102
}
330
1A
100
AcDbXrecord
280
     1
270
     1
271
     1
  0
XRECORD
  5
1F
102
{ACAD_REACTORS
330
1A
102
}
330
1A
100
AcDbXrecord
280
     1
270
     1
271
     1
  0
XRECORD
  5
1E
102
{ACAD_REACTORS
330
1A
102
}
330
1A
100
AcDbXrecord
280
     1
270
     1
271
     1
  0
XRECORD
  5
20
102
{ACAD_REACTORS
330
1A
102
}
330
1A
100
AcDbXrecord
280
     1
270
     1
271
     1
  0
XRECORD
  5
1D
102
{ACAD_REACTORS
330
1A
102
}
330
1A
100
AcDbXrecord
280
     1
270
     1
271
     1
  0
XRECORD
  5
14
102
{ACAD_REACTORS
330
12
102
}
330
12
100
AcDbXrecord
280
     1
270
     1
271
     1
  0
XRECORD
  5
13
102
{ACAD_REACTORS
330
12
102
}
330
12
100
AcDbXrecord
280
     1
270
     1
271
     1
  0
XRECORD
  5
17
102
{ACAD_REACTORS
330
12
102
}
330
12
100
AcDbXrecord
280
     1
270
     1
271
     1
  0
XRECORD
  5
16
102
{ACAD_REACTORS
330
12
102
}
330
12
100
AcDbXrecord
280
     1
270
     1
271
     1
  0
XRECORD
  5
18
102
{ACAD_REACTORS
330
12
102
}
330
12
100
AcDbXrecord
280
     1
270
     1
271
     1
  0
XRECORD
  5
15
102
{ACAD_REACTORS
330
12
102
}
330
12
100
AcDbXrecord
280
     1
270
     1
271
     1
  0
XRECORD
  5
24
102
{ACAD_REACTORS
330
22
102
}
330
22
100
AcDbXrecord
280
     1
270
     1
271
     1
  0
XRECORD
  5
23
102
{ACAD_REACTORS
330
22
102
}
330
22
100
AcDbXrecord
280
     1
270
     1
271
     1
  0
XRECORD
  5
27
102
{ACAD_REACTORS
330
22
102
}
330
22
100
AcDbXrecord
280
     1
270
     1
271
     1
  0
XRECORD
  5
26
102
{ACAD_REACTORS
330
22
102
}
330
22
100
AcDbXrecord
280
     1
270
     1
271
     1
  0
XRECORD
  5
28
102
{ACAD_REACTORS
330
22
102
}
330
22
100
AcDbXrecord
280
     1
270
     1
271
     1
  0
XRECORD
  5
25
102
{ACAD_REACTORS
330
22
102
}
330
22
100
AcDbXrecord
280
     1
270
     1
271
     1
  0
CELLSTYLEMAP
  5
1B8
102
{ACAD_REACTORS
330
1B7
102
}
330
1B7
100
AcDbCellStyleMap
 90
        3
300
CELLSTYLE
  1
TABLEFORMAT_BEGIN
 90
        5
170
     1
 91
        0
 92
    32768
 62
   257
 93
        1
300
CONTENTFORMAT
  1
CONTENTFORMAT_BEGIN
 90
        0
 91
        0
 92
      512
 93
        0
300

 40
0.0
140
1.0
 94
        5
 62
     0
340
55
144
0.25
309
CONTENTFORMAT_END
171
     0
 94
        0
309
TABLEFORMAT_END
  1
CELLSTYLE_BEGIN
 90
        1
 91
        1
300
_TITLE
309
CELLSTYLE_END
300
CELLSTYLE
  1
TABLEFORMAT_BEGIN
 90
        5
170
     1
 91
        0
 92
        0
 62
   257
 93
        1
300
CONTENTFORMAT
  1
CONTENTFORMAT_BEGIN
 90
        0
 91
        0
 92
      512
 93
        0
300

 40
0.0
140
1.0
 94
        5
 62
     0
340
55
144
0.18
309
CONTENTFORMAT_END
171
     0
 94
        0
309
TABLEFORMAT_END
  1
CELLSTYLE_BEGIN
 90
        2
 91
        1
300
_HEADER
309
CELLSTYLE_END
300
CELLSTYLE
  1
TABLEFORMAT_BEGIN
 90
        5
170
     1
 91
        0
 92
        0
 62
   257
 93
        1
300
CONTENTFORMAT
  1
CONTENTFORMAT_BEGIN
 90
        0
 91
        0
 92
      512
 93
        0
300

 40
0.0
140
1.0
 94
        2
 62
     0
340
55
144
0.18
309
CONTENTFORMAT_END
171
     0
 94
        0
309
TABLEFORMAT_END
  1
CELLSTYLE_BEGIN
 90
        3
 91
        2
300
_DATA
309
CELLSTYLE_END
  0
ENDSEC
  0
EOF
