  0
SECTION
  2
HEADER
  9
$ACADVER
  1
AC1032
  9
$ACADMAINTVER
 90
      321
  9
$DWGCODEPAGE
  3
ANSI_1252
  9
$REQUIREDVERSIONS
160
                 0
  9
$INSBASE
 10
0.0
 20
0.0
 30
0.0
  9
$EXTMIN
 10
343.1726992363485
 20
44.33584313135543
 30
0.0
  9
$EXTMAX
 10
1063.17269923635
 20
874.3358431313559
 30
0.0
  9
$LIMMIN
 10
0.0
 20
0.0
  9
$LIMMAX
 10
12.0
 20
9.0
  9
$ORTHOMODE
 70
     0
  9
$REGENMODE
 70
     1
  9
$FILLMODE
 70
     1
  9
$QTEXTMODE
 70
     0
  9
$MIRRTEXT
 70
     0
  9
$LTSCALE
 40
1.0
  9
$ATTMODE
 70
     1
  9
$TEXTSIZE
 40
0.2
  9
$TRACEWID
 40
0.05
  9
$TEXTSTYLE
  7
Standard
  9
$CLAYER
  8
0
  9
$CELTYPE
  6
ByLayer
  9
$CECOLOR
 62
   256
  9
$CELTSCALE
 40
1.0
  9
$DISPSILH
 70
     0
  9
$DIMSCALE
 40
1.0
  9
$DIMASZ
 40
0.18
  9
$DIMEXO
 40
0.0625
  9
$DIMDLI
 40
0.38
  9
$DIMRND
 40
0.0
  9
$DIMDLE
 40
0.0
  9
$DIMEXE
 40
0.18
  9
$DIMTP
 40
0.0
  9
$DIMTM
 40
0.0
  9
$DIMTXT
 40
0.18
  9
$DIMCEN
 40
0.09
  9
$DIMTSZ
 40
0.0
  9
$DIMTOL
 70
     0
  9
$DIMLIM
 70
     0
  9
$DIMTIH
 70
     1
  9
$DIMTOH
 70
     1
  9
$DIMSE1
 70
     0
  9
$DIMSE2
 70
     0
  9
$DIMTAD
 70
     0
  9
$DIMZIN
 70
     0
  9
$DIMBLK
  1

  9
$DIMASO
 70
     1
  9
$DIMSHO
 70
     1
  9
$DIMPOST
  1

  9
$DIMAPOST
  1

  9
$DIMALT
 70
     0
  9
$DIMALTD
 70
     2
  9
$DIMALTF
 40
25.4
  9
$DIMLFAC
 40
1.0
  9
$DIMTOFL
 70
     0
  9
$DIMTVP
 40
0.0
  9
$DIMTIX
 70
     0
  9
$DIMSOXD
 70
     0
  9
$DIMSAH
 70
     0
  9
$DIMBLK1
  1

  9
$DIMBLK2
  1

  9
$DIMSTYLE
  2
Standard
  9
$DIMCLRD
 70
     0
  9
$DIMCLRE
 70
     0
  9
$DIMCLRT
 70
     0
  9
$DIMTFAC
 40
1.0
  9
$DIMGAP
 40
0.09
  9
$DIMJUST
 70
     0
  9
$DIMSD1
 70
     0
  9
$DIMSD2
 70
     0
  9
$DIMTOLJ
 70
     1
  9
$DIMTZIN
 70
     0
  9
$DIMALTZ
 70
     0
  9
$DIMALTTZ
 70
     0
  9
$DIMUPT
 70
     0
  9
$DIMDEC
 70
     4
  9
$DIMTDEC
 70
     4
  9
$DIMALTU
 70
     4
  9
$DIMALTTD
 70
     2
  9
$DIMTXSTY
  7
Standard
  9
$DIMAUNIT
 70
     0
  9
$DIMADEC
 70
     0
  9
$DIMALTRND
 40
0.0
  9
$DIMAZIN
 70
     0
  9
$DIMDSEP
 70
    46
  9
$DIMATFIT
 70
     3
  9
$DIMFRAC
 70
     0
  9
$DIMLDRBLK
  1

  9
$DIMLUNIT
 70
     4
  9
$DIMLWD
 70
    -2
  9
$DIMLWE
 70
    -2
  9
$DIMTMOVE
 70
     0
  9
$DIMFXL
 40
1.0
  9
$DIMFXLON
 70
     0
  9
$DIMJOGANG
 40
0.7853981633974483
  9
$DIMTFILL
 70
     0
  9
$DIMTFILLCLR
 70
     0
  9
$DIMARCSYM
 70
     0
  9
$DIMLTYPE
  6

  9
$DIMLTEX1
  6

  9
$DIMLTEX2
  6

  9
$DIMTXTDIRECTION
 70
     0
  9
$LUNITS
 70
     4
  9
$LUPREC
 70
     4
  9
$SKETCHINC
 40
0.1
  9
$FILLETRAD
 40
0.0
  9
$AUNITS
 70
     0
  9
$AUPREC
 70
     0
  9
$MENU
  1
.
  9
$ELEVATION
 40
0.0
  9
$PELEVATION
 40
0.0
  9
$THICKNESS
 40
0.0
  9
$LIMCHECK
 70
     0
  9
$CHAMFERA
 40
0.0
  9
$CHAMFERB
 40
0.0
  9
$CHAMFERC
 40
0.0
  9
$CHAMFERD
 40
0.0
  9
$SKPOLY
 70
     0
  9
$TDCREATE
 40
2461074.328113426
  9
$TDUCREATE
 40
2461074.578113426
  9
$TDUPDATE
 40
2461074.328113426
  9
$TDUUPDATE
 40
2461074.578113426
  9
$TDINDWG
 40
0.0000115741
  9
$TDUSRTIMER
 40
0.0000115741
  9
$USRTIMER
 70
     1
  9
$ANGBASE
 50
0.0
  9
$ANGDIR
 70
     0
  9
$PDMODE
 70
     0
  9
$PDSIZE
 40
0.0
  9
$PLINEWID
 40
0.0
  9
$SPLFRAME
 70
     0
  9
$SPLINETYPE
 70
     6
  9
$SPLINESEGS
 70
     8
  9
$HANDSEED
  5
1C4
  9
$SURFTAB1
 70
     6
  9
$SURFTAB2
 70
     6
  9
$SURFTYPE
 70
     6
  9
$SURFU
 70
     6
  9
$SURFV
 70
     6
  9
$UCSBASE
  2

  9
$UCSNAME
  2

  9
$UCSORG
 10
0.0
 20
0.0
 30
0.0
  9
$UCSXDIR
 10
1.0
 20
0.0
 30
0.0
  9
$UCSYDIR
 10
0.0
 20
1.0
 30
0.0
  9
$UCSORTHOREF
  2

  9
$UCSORTHOVIEW
 70
     0
  9
$UCSORGTOP
 10
0.0
 20
0.0
 30
0.0
  9
$UCSORGBOTTOM
 10
0.0
 20
0.0
 30
0.0
  9
$UCSORGLEFT
 10
0.0
 20
0.0
 30
0.0
  9
$UCSORGRIGHT
 10
0.0
 20
0.0
 30
0.0
  9
$UCSORGFRONT
 10
0.0
 20
0.0
 30
0.0
  9
$UCSORGBACK
 10
0.0
 20
0.0
 30
0.0
  9
$PUCSBASE
  2

  9
$PUCSNAME
  2

  9
$PUCSORG
 10
0.0
 20
0.0
 30
0.0
  9
$PUCSXDIR
 10
1.0
 20
0.0
 30
0.0
  9
$PUCSYDIR
 10
0.0
 20
1.0
 30
0.0
  9
$PUCSORTHOREF
  2

  9
$PUCSORTHOVIEW
 70
     0
  9
$PUCSORGTOP
 10
0.0
 20
0.0
 30
0.0
  9
$PUCSORGBOTTOM
 10
0.0
 20
0.0
 30
0.0
  9
$PUCSORGLEFT
 10
0.0
 20
0.0
 30
0.0
  9
$PUCSORGRIGHT
 10
0.0
 20
0.0
 30
0.0
  9
$PUCSORGFRONT
 10
0.0
 20
0.0
 30
0.0
  9
$PUCSORGBACK
 10
0.0
 20
0.0
 30
0.0
  9
$USERI1
 70
     0
  9
$USERI2
 70
     0
  9
$USERI3
 70
     0
  9
$USERI4
 70
     0
  9
$USERI5
 70
     0
  9
$USERR1
 40
0.0
  9
$USERR2
 40
0.0
  9
$USERR3
 40
0.0
  9
$USERR4
 40
0.0
  9
$USERR5
 40
0.0
  9
$WORLDVIEW
 70
     1
  9
$SHADEDGE
 70
     3
  9
$SHADEDIF
 70
    70
  9
$TILEMODE
 70
     1
  9
$MAXACTVP
 70
    64
  9
$PINSBASE
 10
0.0
 20
0.0
 30
0.0
  9
$PLIMCHECK
 70
     0
  9
$PEXTMIN
 10
1.000000000000000E+20
 20
1.000000000000000E+20
 30
1.000000000000000E+20
  9
$PEXTMAX
 10
-1.000000000000000E+20
 20
-1.000000000000000E+20
 30
-1.000000000000000E+20
  9
$PLIMMIN
 10
0.0
 20
0.0
  9
$PLIMMAX
 10
12.0
 20
9.0
  9
$UNITMODE
 70
     0
  9
$VISRETAIN
 70
     1
  9
$PLINEGEN
 70
     0
  9
$PSLTSCALE
 70
     0
  9
$TREEDEPTH
 70
  3020
  9
$CMLSTYLE
  2
Standard
  9
$CMLJUST
 70
     0
  9
$CMLSCALE
 40
1.0
  9
$PROXYGRAPHICS
 70
     1
  9
$MEASUREMENT
 70
     0
  9
$CELWEIGHT
370
    -1
  9
$ENDCAPS
280
     0
  9
$JOINSTYLE
280
     0
  9
$LWDISPLAY
290
     0
  9
$INSUNITS
 70
     1
  9
$HYPERLINKBASE
  1

  9
$STYLESHEET
  1

  9
$XEDIT
290
     1
  9
$CEPSNTYPE
380
     0
  9
$PSTYLEMODE
290
     1
  9
$FINGERPRINTGUID
  2
{531B007F-197C-E941-AB9F-8ACE0D293E56}
  9
$VERSIONGUID
  2
{0D874139-AA90-DB4F-AF27-E6F5EC5866DF}
  9
$EXTNAMES
290
     1
  9
$PSVPSCALE
 40
0.0
  9
$OLESTARTUP
290
     0
  9
$SORTENTS
280
   127
  9
$INDEXCTL
280
     0
  9
$HIDETEXT
280
     1
  9
$XCLIPFRAME
280
     2
  9
$HALOGAP
280
     0
  9
$OBSCOLOR
 70
   257
  9
$OBSLTYPE
280
     0
  9
$INTERSECTIONDISPLAY
280
     0
  9
$INTERSECTIONCOLOR
 70
   257
  9
$DIMASSOC
280
     2
  9
$PROJECTNAME
  1

  9
$CAMERADISPLAY
290
     0
  9
$LENSLENGTH
 40
50.0
  9
$CAMERAHEIGHT
 40
0.0
  9
$STEPSPERSEC
 40
2.0
  9
$STEPSIZE
 40
6.0
  9
$3DDWFPREC
 40
2.0
  9
$PSOLWIDTH
 40
0.25
  9
$PSOLHEIGHT
 40
4.0
  9
$LOFTANG1
 40
1.570796326794896
  9
$LOFTANG2
 40
1.570796326794896
  9
$LOFTMAG1
 40
0.0
  9
$LOFTMAG2
 40
0.0
  9
$LOFTPARAM
 70
     7
  9
$LOFTNORMALS
280
     1
  9
$LATITUDE
 40
37.795
  9
$LONGITUDE
 40
-122.394
  9
$NORTHDIRECTION
 40
0.0
  9
$TIMEZONE
 70
 -8000
  9
$LIGHTGLYPHDISPLAY
280
     1
  9
$TILEMODELIGHTSYNCH
280
     1
  9
$CMATERIAL
347
11
  9
$SOLIDHIST
280
     0
  9
$SHOWHIST
280
     1
  9
$DWFFRAME
280
     2
  9
$DGNFRAME
280
     0
  9
$REALWORLDSCALE
290
     1
  9
$INTERFERECOLOR
 62
     1
  9
$INTERFEREOBJVS
345
33
  9
$INTERFEREVPVS
346
30
  9
$CSHADOW
280
     0
  9
$SHADOWPLANELOCATION
 40
0.0
  0
ENDSEC
  0
SECTION
  2
CLASSES
  0
CLASS
  1
ACDBDICTIONARYWDFLT
  2
AcDbDictionaryWithDefault
  3
ObjectDBX Classes
 90
        0
 91
        1
280
     0
281
     0
  0
CLASS
  1
MATERIAL
  2
AcDbMaterial
  3
ObjectDBX Classes
 90
     1153
 91
        3
280
     0
281
     0
  0
CLASS
  1
VISUALSTYLE
  2
AcDbVisualStyle
  3
ObjectDBX Classes
 90
     4095
 91
       24
280
     0
281
     0
  0
CLASS
  1
SCALE
  2
AcDbScale
  3
ObjectDBX Classes
 90
     1153
 91
       17
280
     0
281
     0
  0
CLASS
  1
TABLESTYLE
  2
AcDbTableStyle
  3
ObjectDBX Classes
 90
     4095
 91
        1
280
     0
281
     0
  0
CLASS
  1
MLEADERSTYLE
  2
AcDbMLeaderStyle
  3
ACDB_MLEADERSTYLE_CLASS
 90
     4095
 91
        1
280
     0
281
     0
  0
CLASS
  1
ACDBSECTIONVIEWSTYLE
  2
AcDbSectionViewStyle
  3
ObjectDBX Classes
 90
     1025
 91
        1
280
     0
281
     0
  0
CLASS
  1
ACDBDETAILVIEWSTYLE
  2
AcDbDetailViewStyle
  3
ObjectDBX Classes
 90
     1025
 91
        1
280
     0
281
     0
  0
CLASS
  1
RASTERVARIABLES
  2
AcDbRasterVariables
  3
ISM
 90
        0
 91
        1
280
     0
281
     0
  0
CLASS
  1
DICTIONARYVAR
  2
AcDbDictionaryVar
  3
ObjectDBX Classes
 90
        0
 91
        5
280
     0
281
     0
  0
CLASS
  1
CELLSTYLEMAP
  2
AcDbCellStyleMap
  3
ObjectDBX Classes
 90
     1152
 91
        2
280
     0
281
     0
  0
CLASS
  1
SORTENTSTABLE
  2
AcDbSortentsTable
  3
ObjectDBX Classes
 90
        0
 91
        1
280
     0
281
     0
  0
ENDSEC
  0
SECTION
  2
TABLES
  0
TABLE
  2
VPORT
  5
8
330
0
100
AcDbSymbolTable
 70
     1
  0
VPORT
  5
57
330
8
100
AcDbSymbolTableRecord
100
AcDbViewportTableRecord
  2
*Active
 70
     0
 10
0.0
 20
0.0
 11
1.0
 21
1.0
 12
703.1726992363494
 22
459.3358431313557
 13
0.0
 23
0.0
 14
1.0
 24
1.0
 15
0.0
 25
0.0
 16
0.0
 26
0.0
 36
1.0
 17
0.0
 27
0.0
 37
0.0
 40
830.0000000000006
 41
0.8674698795180738
 42
50.0
 43
0.0
 44
0.0
 50
0.0
 51
0.0
 71
     0
 72
  1000
 73
     1
 74
     1
 75
     0
 76
     0
 77
     0
 78
     0
281
     0
 65
     1
110
0.0
120
0.0
130
0.0
111
1.0
121
0.0
131
0.0
112
0.0
122
1.0
132
0.0
 79
     0
146
0.0
 60
     3
 61
     5
292
     1
282
     1
141
0.0
142
0.0
 63
   250
421
  3355443
  0
ENDTAB
  0
TABLE
  2
LTYPE
  5
5
330
0
100
AcDbSymbolTable
 70
     1
  0
LTYPE
  5
5B
330
5
100
AcDbSymbolTableRecord
100
AcDbLinetypeTableRecord
  2
ByBlock
 70
     0
  3

 72
    65
 73
     0
 40
0.0
  0
LTYPE
  5
5C
330
5
100
AcDbSymbolTableRecord
100
AcDbLinetypeTableRecord
  2
ByLayer
 70
     0
  3

 72
    65
 73
     0
 40
0.0
  0
LTYPE
  5
5D
330
5
100
AcDbSymbolTableRecord
100
AcDbLinetypeTableRecord
  2
Continuous
 70
     0
  3
Solid line
 72
    65
 73
     0
 40
0.0
  0
ENDTAB
  0
TABLE
  2
LAYER
  5
2
330
0
100
AcDbSymbolTable
 70
     9
  0
LAYER
  5
54
330
2
100
AcDbSymbolTableRecord
100
AcDbLayerTableRecord
  2
0
 70
     0
 62
     7
  6
Continuous
370
    -3
390
F
347
21
348
0
  0
LAYER
  5
84
330
2
100
AcDbSymbolTableRecord
100
AcDbLayerTableRecord
  2
A-WALL
 70
     0
 62
   113
  6
Continuous
370
    15
390
F
347
21
348
0
  0
LAYER
  5
85
330
2
100
AcDbSymbolTableRecord
100
AcDbLayerTableRecord
  2
I-WALL
 70
     0
 62
     2
  6
Continuous
370
    15
390
F
347
21
348
0
  0
LAYER
  5
86
330
2
100
AcDbSymbolTableRecord
100
AcDbLayerTableRecord
  2
S-STRS
 70
     0
 62
    31
  6
Continuous
370
     9
390
F
347
21
348
0
  0
LAYER
  5
87
330
2
100
AcDbSymbolTableRecord
100
AcDbLayerTableRecord
  2
A-FLOR-HRAL
 70
     0
 62
    11
  6
Continuous
370
     9
390
F
347
21
348
0
  0
LAYER
  5
88
330
2
100
AcDbSymbolTableRecord
100
AcDbLayerTableRecord
  2
A-GLAZ-CURT
 70
     0
 62
    52
  6
Continuous
370
     9
390
F
347
21
348
0
  0
LAYER
  5
89
330
2
100
AcDbSymbolTableRecord
100
AcDbLayerTableRecord
  2
A-GLAZ-CWMG
 70
     0
 62
    51
  6
Continuous
370
     9
390
F
347
21
348
0
  0
LAYER
  5
1B4
330
2
100
AcDbSymbolTableRecord
100
AcDbLayerTableRecord
  2
A-AREA-BNDY
 70
     0
 62
    -1
  6
Continuous
370
     9
390
F
347
21
348
0
  0
ENDTAB
  0
TABLE
  2
STYLE
  5
3
330
0
100
AcDbSymbolTable
 70
     2
  0
STYLE
  5
55
330
3
100
AcDbSymbolTableRecord
100
AcDbTextStyleTableRecord
  2
Standard
 70
     0
 40
0.0
 41
1.0
 50
0.0
 71
     0
 42
0.2
  3
txt
  4

  0
STYLE
  5
5A
330
3
100
AcDbSymbolTableRecord
100
AcDbTextStyleTableRecord
  2
Annotative
 70
     0
 40
0.0
 41
1.0
 50
0.0
 71
     0
 42
0.2
  3
txt
  4

1001
AcadAnnotative
1000
AnnotativeData
1002
{
1070
     1
1070
     1
1002
}
  0
ENDTAB
  0
TABLE
  2
VIEW
  5
6
330
0
100
AcDbSymbolTable
 70
     0
  0
ENDTAB
  0
TABLE
  2
UCS
  5
7
330
0
100
AcDbSymbolTable
 70
     2
  0
UCS
  5
1B9
330
7
100
AcDbSymbolTableRecord
100
AcDbUCSTableRecord
  2
REVIT60-Internal
 70
     0
 10
0.0
 20
0.0
 30
0.0
 11
0.0000000000000018
 21
-1.0
 31
0.0
 12
1.0
 22
0.0000000000000018
 32
0.0
 79
     0
146
0.0
  0
UCS
  5
1BA
330
7
100
AcDbSymbolTableRecord
100
AcDbUCSTableRecord
  2
REVIT60-Default Site
 70
     0
 10
-0.0000000000020464
 20
0.0
 30
-1200.0
 11
0.0000000000000018
 21
-1.0
 31
0.0
 12
1.0
 22
0.0000000000000018
 32
0.0
 79
     0
146
0.0
  0
ENDTAB
  0
TABLE
  2
APPID
  5
9
330
0
100
AcDbSymbolTable
 70
     3
  0
APPID
  5
56
330
9
100
AcDbSymbolTableRecord
100
AcDbRegAppTableRecord
  2
ACAD
 70
     0
  0
APPID
  5
5E
330
9
100
AcDbSymbolTableRecord
100
AcDbRegAppTableRecord
  2
AcadAnnotative
 70
     0
  0
APPID
  5
78
330
9
100
AcDbSymbolTableRecord
100
AcDbRegAppTableRecord
  2
REVIT
 70
     0
  0
ENDTAB
  0
TABLE
  2
DIMSTYLE
  5
A
330
0
100
AcDbSymbolTable
 70
     2
100
AcDbDimStyleTable
 71
     0
  0
DIMSTYLE
105
58
330
A
100
AcDbSymbolTableRecord
100
AcDbDimStyleTableRecord
  2
Standard
 70
     0
340
55
  0
DIMSTYLE
105
59
330
A
100
AcDbSymbolTableRecord
100
AcDbDimStyleTableRecord
  2
Annotative
 70
     0
340
55
1001
AcadAnnotative
1000
AnnotativeData
1002
{
1070
     1
1070
     1
1002
}
  0
ENDTAB
  0
TABLE
  2
BLOCK_RECORD
  5
1
330
0
100
AcDbSymbolTable
 70
    13
  0
BLOCK_RECORD
  5
70
102
{ACAD_XDICTIONARY
360
1BF
102
}
330
1
100
AcDbSymbolTableRecord
100
AcDbBlockTableRecord
  2
*Model_Space
340
73
 70
     0
280
     1
281
     0
  0
BLOCK_RECORD
  5
6C
330
1
100
AcDbSymbolTableRecord
100
AcDbBlockTableRecord
  2
*Paper_Space
340
6F
 70
     0
280
     1
281
     0
  0
BLOCK_RECORD
  5
74
330
1
100
AcDbSymbolTableRecord
100
AcDbBlockTableRecord
  2
*Paper_Space0
340
77
 70
     0
280
     1
281
     0
  0
BLOCK_RECORD
  5
11A
330
1
100
AcDbSymbolTableRecord
100
AcDbBlockTableRecord
  2
Railing - Railing-5170913-LEVEL 3 Map Export
340
0
102
{BLKREFS
331
129
102
}
 70
     0
280
     1
281
     0
  0
BLOCK_RECORD
  5
12A
330
1
100
AcDbSymbolTableRecord
100
AcDbBlockTableRecord
  2
Railing - Railing-5170917-LEVEL 3 Map Export
340
0
102
{BLKREFS
331
136
102
}
 70
     0
280
     1
281
     0
  0
BLOCK_RECORD
  5
137
330
1
100
AcDbSymbolTableRecord
100
AcDbBlockTableRecord
  2
System Panel - zGlazed-5171080-LEVEL 3 Map Export
340
0
102
{BLKREFS
331
13E
102
}
 70
     0
280
     1
281
     0
  0
BLOCK_RECORD
  5
13F
330
1
100
AcDbSymbolTableRecord
100
AcDbBlockTableRecord
  2
Rectangular Mullion - 4 1_2_ x 2_ Rectangular_CE_-5171079-LEVEL 3 Map Export
340
0
102
{BLKREFS
331
144
102
}
 70
     0
280
     1
281
     0
  0
BLOCK_RECORD
  5
145
330
1
100
AcDbSymbolTableRecord
100
AcDbBlockTableRecord
  2
Rectangular Mullion - 4 1_2_ x 2_ Rectangular_CE_-5171081-LEVEL 3 Map Export
340
0
102
{BLKREFS
331
14C
102
}
 70
     0
280
     1
281
     0
  0
BLOCK_RECORD
  5
14D
330
1
100
AcDbSymbolTableRecord
100
AcDbBlockTableRecord
  2
Rectangular Mullion - 4 1_2_ x 2_ Rectangular_CE_-5171082-LEVEL 3 Map Export
340
0
102
{BLKREFS
331
154
102
}
 70
     0
280
     1
281
     0
  0
BLOCK_RECORD
  5
155
330
1
100
AcDbSymbolTableRecord
100
AcDbBlockTableRecord
  2
System Panel - zGlazed-5173075-LEVEL 3 Map Export
340
0
102
{BLKREFS
331
15C
331
173
102
}
 70
     0
280
     1
281
     0
  0
BLOCK_RECORD
  5
15D
330
1
100
AcDbSymbolTableRecord
100
AcDbBlockTableRecord
  2
Rectangular Mullion - 6_ x 2_ Rectangular_CE_-5173074-LEVEL 3 Map Export
340
0
102
{BLKREFS
331
162
331
174
102
}
 70
     0
280
     1
281
     0
  0
BLOCK_RECORD
  5
163
330
1
100
AcDbSymbolTableRecord
100
AcDbBlockTableRecord
  2
Rectangular Mullion - 6_ x 2_ Rectangular_CE_-5173056-LEVEL 3 Map Export
340
0
102
{BLKREFS
331
16A
331
175
102
}
 70
     0
280
     1
281
     0
  0
BLOCK_RECORD
  5
16B
330
1
100
AcDbSymbolTableRecord
100
AcDbBlockTableRecord
  2
Rectangular Mullion - 6_ x 2_ Rectangular_CE_-5173057-LEVEL 3 Map Export
340
0
102
{BLKREFS
331
172
331
176
102
}
 70
     0
280
     1
281
     0
  0
BLOCK_RECORD
  5
196
330
1
100
AcDbSymbolTableRecord
100
AcDbBlockTableRecord
  2
Railing - Railing-5175240-LEVEL 3 Map Export
340
0
102
{BLKREFS
331
1A5
102
}
 70
     0
280
     1
281
     0
  0
BLOCK_RECORD
  5
1A6
330
1
100
AcDbSymbolTableRecord
100
AcDbBlockTableRecord
  2
Railing - Railing-5175244-LEVEL 3 Map Export
340
0
102
{BLKREFS
331
1B3
102
}
 70
     0
280
     1
281
     0
  0
ENDTAB
  0
ENDSEC
  0
SECTION
  2
BLOCKS
  0
BLOCK
  5
71
330
70
100
AcDbEntity
  8
0
100
AcDbBlockBegin
  2
*Model_Space
 70
     0
 10
0.0
 20
0.0
 30
0.0
  3
*Model_Space
  1

  0
ENDBLK
  5
72
330
70
100
AcDbEntity
  8
0
100
AcDbBlockEnd
  0
BLOCK
  5
6D
330
6C
100
AcDbEntity
 67
     1
  8
0
100
AcDbBlockBegin
  2
*Paper_Space
 70
     0
 10
0.0
 20
0.0
 30
0.0
  3
*Paper_Space
  1

  0
ENDBLK
  5
6E
330
6C
100
AcDbEntity
 67
     1
  8
0
100
AcDbBlockEnd
  0
BLOCK
  5
75
330
74
100
AcDbEntity
 67
     1
  8
0
100
AcDbBlockBegin
  2
*Paper_Space0
 70
     0
 10
0.0
 20
0.0
 30
0.0
  3
*Paper_Space0
  1

  0
ENDBLK
  5
76
330
74
100
AcDbEntity
 67
     1
  8
0
100
AcDbBlockEnd
  0
BLOCK
  5
127
330
11A
100
AcDbEntity
  8
0
100
AcDbBlockBegin
  2
Railing - Railing-5170913-LEVEL 3 Map Export
 70
     0
 10
0.0
 20
0.0
 30
0.0
  3
Railing - Railing-5170913-LEVEL 3 Map Export
  1

  0
LINE
  5
11B
330
11A
100
AcDbEntity
  8
A-FLOR-HRAL
100
AcDbLine
 10
493.1726992363484
 20
319.8393942461346
 30
0.0
 11
495.1726992363484
 21
319.8393942461346
 31
0.0
1001
REVIT
1002
{
1070
     1
1000
5170912
1002
}
1002
{
1070
     5
1000
1969
1002
}
1002
{
1070
     3
1000
-2000128
1002
}
  0
LINE
  5
11C
330
11A
100
AcDbEntity
  8
A-FLOR-HRAL
100
AcDbLine
 10
493.172699236348
 20
209.8393942461348
 30
0.0
 11
493.1726992363484
 21
319.8393942461346
 31
0.0
1001
REVIT
1002
{
1070
     1
1000
5170912
1002
}
1002
{
1070
     5
1000
1969
1002
}
1002
{
1070
     3
1000
-2000128
1002
}
  0
LINE
  5
11D
330
11A
100
AcDbEntity
  8
A-FLOR-HRAL
100
AcDbLine
 10
493.1726992363477
 20
175.8393942461347
 30
0.0
 11
493.172699236348
 21
209.8393942461346
 31
0.0
1001
REVIT
1002
{
1070
     1
1000
5170912
1002
}
1002
{
1070
     5
1000
1969
1002
}
1002
{
1070
     3
1000
-2000128
1002
}
  0
LINE
  5
11E
330
11A
100
AcDbEntity
  8
A-FLOR-HRAL
100
AcDbLine
 10
397.1726992363486
 20
175.8393942461352
 30
0.0
 11
493.1726992363477
 21
175.8393942461347
 31
0.0
1001
REVIT
1002
{
1070
     1
1000
5170912
1002
}
1002
{
1070
     5
1000
1969
1002
}
1002
{
1070
     3
1000
-2000128
1002
}
  0
LINE
  5
11F
330
11A
100
AcDbEntity
  8
A-FLOR-HRAL
100
AcDbLine
 10
397.1726992363486
 20
209.839394246135
 30
0.0
 11
397.1726992363486
 21
175.8393942461352
 31
0.0
1001
REVIT
1002
{
1070
     1
1000
5170912
1002
}
1002
{
1070
     5
1000
1969
1002
}
1002
{
1070
     3
1000
-2000128
1002
}
  0
LINE
  5
120
330
11A
100
AcDbEntity
  8
A-FLOR-HRAL
100
AcDbLine
 10
397.1726992363488
 20
308.8393942461349
 30
0.0
 11
397.1726992363486
 21
209.839394246135
 31
0.0
1001
REVIT
1002
{
1070
     1
1000
5170912
1002
}
1002
{
1070
     5
1000
1969
1002
}
1002
{
1070
     3
1000
-2000128
1002
}
  0
LINE
  5
121
330
11A
100
AcDbEntity
  8
A-FLOR-HRAL
100
AcDbLine
 10
395.1726992363487
 20
308.8393942461349
 30
0.0
 11
397.1726992363488
 21
308.8393942461349
 31
0.0
1001
REVIT
1002
{
1070
     1
1000
5170912
1002
}
1002
{
1070
     5
1000
1969
1002
}
1002
{
1070
     3
1000
-2000128
1002
}
  0
LINE
  5
122
330
11A
100
AcDbEntity
  8
A-FLOR-HRAL
100
AcDbLine
 10
495.1726992363481
 20
209.8393942461348
 30
0.0
 11
495.1726992363484
 21
319.8393942461346
 31
0.0
1001
REVIT
1002
{
1070
     1
1000
5170912
1002
}
1002
{
1070
     5
1000
1969
1002
}
1002
{
1070
     3
1000
-2000128
1002
}
  0
LINE
  5
123
330
11A
100
AcDbEntity
  8
A-FLOR-HRAL
100
AcDbLine
 10
495.1726992363478
 20
173.8393942461347
 30
0.0
 11
495.1726992363481
 21
209.8393942461346
 31
0.0
1001
REVIT
1002
{
1070
     1
1000
5170912
1002
}
1002
{
1070
     5
1000
1969
1002
}
1002
{
1070
     3
1000
-2000128
1002
}
  0
LINE
  5
124
330
11A
100
AcDbEntity
  8
A-FLOR-HRAL
100
AcDbLine
 10
395.1726992363485
 20
173.8393942461352
 30
0.0
 11
495.1726992363478
 21
173.8393942461347
 31
0.0
1001
REVIT
1002
{
1070
     1
1000
5170912
1002
}
1002
{
1070
     5
1000
1969
1002
}
1002
{
1070
     3
1000
-2000128
1002
}
  0
LINE
  5
125
330
11A
100
AcDbEntity
  8
A-FLOR-HRAL
100
AcDbLine
 10
395.1726992363485
 20
209.839394246135
 30
0.0
 11
395.1726992363485
 21
173.8393942461352
 31
0.0
1001
REVIT
1002
{
1070
     1
1000
5170912
1002
}
1002
{
1070
     5
1000
1969
1002
}
1002
{
1070
     3
1000
-2000128
1002
}
  0
LINE
  5
126
330
11A
100
AcDbEntity
  8
A-FLOR-HRAL
100
AcDbLine
 10
395.1726992363487
 20
308.8393942461349
 30
0.0
 11
395.1726992363485
 21
209.839394246135
 31
0.0
1001
REVIT
1002
{
1070
     1
1000
5170912
1002
}
1002
{
1070
     5
1000
1969
1002
}
1002
{
1070
     3
1000
-2000128
1002
}
  0
ENDBLK
  5
128
330
11A
100
AcDbEntity
  8
0
100
AcDbBlockEnd
  0
BLOCK
  5
134
330
12A
100
AcDbEntity
  8
0
100
AcDbBlockBegin
  2
Railing - Railing-5170917-LEVEL 3 Map Export
 70
     0
 10
0.0
 20
0.0
 30
0.0
  3
Railing - Railing-5170917-LEVEL 3 Map Export
  1

  0
LINE
  5
12B
330
12A
100
AcDbEntity
  8
A-FLOR-HRAL
100
AcDbLine
 10
459.1726992363485
 20
319.8393942461349
 30
0.0
 11
461.1726992363485
 21
319.8393942461349
 31
0.0
1001
REVIT
1002
{
1070
     1
1000
5170916
1002
}
1002
{
1070
     5
1000
1969
1002
}
1002
{
1070
     3
1000
-2000128
1002
}
  0
LINE
  5
12C
330
12A
100
AcDbEntity
  8
A-FLOR-HRAL
100
AcDbLine
 10
459.172699236348
 20
209.8393942461349
 30
0.0
 11
459.1726992363485
 21
319.8393942461349
 31
0.0
1001
REVIT
1002
{
1070
     1
1000
5170916
1002
}
1002
{
1070
     5
1000
1969
1002
}
1002
{
1070
     3
1000
-2000128
1002
}
  0
LINE
  5
12D
330
12A
100
AcDbEntity
  8
A-FLOR-HRAL
100
AcDbLine
 10
431.1726992363485
 20
209.839394246135
 30
0.0
 11
459.172699236348
 21
209.8393942461349
 31
0.0
1001
REVIT
1002
{
1070
     1
1000
5170916
1002
}
1002
{
1070
     5
1000
1969
1002
}
1002
{
1070
     3
1000
-2000128
1002
}
  0
LINE
  5
12E
330
12A
100
AcDbEntity
  8
A-FLOR-HRAL
100
AcDbLine
 10
431.1726992363487
 20
308.8393942461349
 30
0.0
 11
431.1726992363485
 21
209.839394246135
 31
0.0
1001
REVIT
1002
{
1070
     1
1000
5170916
1002
}
1002
{
1070
     5
1000
1969
1002
}
1002
{
1070
     3
1000
-2000128
1002
}
  0
LINE
  5
12F
330
12A
100
AcDbEntity
  8
A-FLOR-HRAL
100
AcDbLine
 10
429.1726992363486
 20
308.8393942461349
 30
0.0
 11
431.1726992363487
 21
308.8393942461349
 31
0.0
1001
REVIT
1002
{
1070
     1
1000
5170916
1002
}
1002
{
1070
     5
1000
1969
1002
}
1002
{
1070
     3
1000
-2000128
1002
}
  0
LINE
  5
130
330
12A
100
AcDbEntity
  8
A-FLOR-HRAL
100
AcDbLine
 10
461.1726992363481
 20
207.8393942461349
 30
0.0
 11
461.1726992363485
 21
319.8393942461349
 31
0.0
1001
REVIT
1002
{
1070
     1
1000
5170916
1002
}
1002
{
1070
     5
1000
1969
1002
}
1002
{
1070
     3
1000
-2000128
1002
}
  0
LINE
  5
131
330
12A
100
AcDbEntity
  8
A-FLOR-HRAL
100
AcDbLine
 10
429.1726992363485
 20
207.839394246135
 30
0.0
 11
461.1726992363481
 21
207.8393942461349
 31
0.0
1001
REVIT
1002
{
1070
     1
1000
5170916
1002
}
1002
{
1070
     5
1000
1969
1002
}
1002
{
1070
     3
1000
-2000128
1002
}
  0
LINE
  5
132
330
12A
100
AcDbEntity
  8
A-FLOR-HRAL
100
AcDbLine
 10
429.1726992363485
 20
209.839394246135
 30
0.0
 11
429.1726992363485
 21
207.839394246135
 31
0.0
1001
REVIT
1002
{
1070
     1
1000
5170916
1002
}
1002
{
1070
     5
1000
1969
1002
}
1002
{
1070
     3
1000
-2000128
1002
}
  0
LINE
  5
133
330
12A
100
AcDbEntity
  8
A-FLOR-HRAL
100
AcDbLine
 10
429.1726992363486
 20
308.8393942461349
 30
0.0
 11
429.1726992363485
 21
209.839394246135
 31
0.0
1001
REVIT
1002
{
1070
     1
1000
5170916
1002
}
1002
{
1070
     5
1000
1969
1002
}
1002
{
1070
     3
1000
-2000128
1002
}
  0
ENDBLK
  5
135
330
12A
100
AcDbEntity
  8
0
100
AcDbBlockEnd
  0
BLOCK
  5
13C
330
137
100
AcDbEntity
  8
0
100
AcDbBlockBegin
  2
System Panel - zGlazed-5171080-LEVEL 3 Map Export
 70
     0
 10
0.0
 20
0.0
 30
0.0
  3
System Panel - zGlazed-5171080-LEVEL 3 Map Export
  1

  0
LINE
  5
138
330
137
100
AcDbEntity
  8
A-GLAZ-CURT
370
    15
100
AcDbLine
 10
-24.00000000000008
 20
0.4999999999999715
 30
0.0
 11
24.0
 21
0.4999999999999715
 31
0.0
1001
REVIT
1002
{
1070
     1
1000
5171072
1002
}
1002
{
1070
     5
1000
645966
1002
}
  0
LINE
  5
139
330
137
100
AcDbEntity
  8
A-GLAZ-CURT
370
    15
100
AcDbLine
 10
24.0
 20
0.4999999999999715
 30
0.0
 11
24.0
 21
1.499999999999999
 31
0.0
1001
REVIT
1002
{
1070
     1
1000
5171072
1002
}
1002
{
1070
     5
1000
645966
1002
}
  0
LINE
  5
13A
330
137
100
AcDbEntity
  8
A-GLAZ-CURT
370
    15
100
AcDbLine
 10
24.0
 20
1.499999999999999
 30
0.0
 11
-24.00000000000008
 21
1.499999999999999
 31
0.0
1001
REVIT
1002
{
1070
     1
1000
5171072
1002
}
1002
{
1070
     5
1000
645966
1002
}
  0
LINE
  5
13B
330
137
100
AcDbEntity
  8
A-GLAZ-CURT
370
    15
100
AcDbLine
 10
-24.00000000000008
 20
1.499999999999999
 30
0.0
 11
-24.00000000000008
 21
0.4999999999999715
 31
0.0
1001
REVIT
1002
{
1070
     1
1000
5171072
1002
}
1002
{
1070
     5
1000
645966
1002
}
  0
ENDBLK
  5
13D
330
137
100
AcDbEntity
  8
0
100
AcDbBlockEnd
  0
BLOCK
  5
142
330
13F
100
AcDbEntity
  8
0
100
AcDbBlockBegin
  2
Rectangular Mullion - 4 1_2_ x 2_ Rectangular_CE_-5171079-LEVEL 3 Map Export
 70
     0
 10
0.0
 20
0.0
 30
0.0
  3
Rectangular Mullion - 4 1_2_ x 2_ Rectangular_CE_-5171079-LEVEL 3 Map Export
  1

  0
LINE
  5
140
330
13F
100
AcDbEntity
  8
A-GLAZ-CWMG
100
AcDbLine
 10
503.4226992363485
 20
437.3358431313567
 30
0.0
 11
503.4226992363484
 21
485.3358431313568
 31
0.0
1001
REVIT
1002
{
1070
     1
1000
5171075
1002
}
1002
{
1070
     5
1000
646104
1002
}
  0
LINE
  5
141
330
13F
100
AcDbEntity
  8
A-GLAZ-CWMG
100
AcDbLine
 10
507.9226992363484
 20
437.3358431313567
 30
0.0
 11
507.9226992363484
 21
485.3358431313568
 31
0.0
1001
REVIT
1002
{
1070
     1
1000
5171075
1002
}
1002
{
1070
     5
1000
646104
1002
}
  0
ENDBLK
  5
143
330
13F
100
AcDbEntity
  8
0
100
AcDbBlockEnd
  0
BLOCK
  5
14A
330
145
100
AcDbEntity
  8
0
100
AcDbBlockBegin
  2
Rectangular Mullion - 4 1_2_ x 2_ Rectangular_CE_-5171081-LEVEL 3 Map Export
 70
     0
 10
0.0
 20
0.0
 30
0.0
  3
Rectangular Mullion - 4 1_2_ x 2_ Rectangular_CE_-5171081-LEVEL 3 Map Export
  1

  0
LINE
  5
146
330
145
100
AcDbEntity
  8
A-GLAZ-CWMG
370
    25
100
AcDbLine
 10
-1.999999999999971
 20
2.249999999999999
 30
0.0
 11
0.0
 21
2.249999999999999
 31
0.0
1001
REVIT
1002
{
1070
     1
1000
5171076
1002
}
1002
{
1070
     5
1000
646104
1002
}
  0
LINE
  5
147
330
145
100
AcDbEntity
  8
A-GLAZ-CWMG
370
    25
100
AcDbLine
 10
0.0
 20
2.249999999999999
 30
0.0
 11
0.0
 21
-2.249999999999999
 31
0.0
1001
REVIT
1002
{
1070
     1
1000
5171076
1002
}
1002
{
1070
     5
1000
646104
1002
}
  0
LINE
  5
148
330
145
100
AcDbEntity
  8
A-GLAZ-CWMG
370
    25
100
AcDbLine
 10
0.0
 20
-2.249999999999999
 30
0.0
 11
-1.999999999999971
 21
-2.249999999999999
 31
0.0
1001
REVIT
1002
{
1070
     1
1000
5171076
1002
}
1002
{
1070
     5
1000
646104
1002
}
  0
LINE
  5
149
330
145
100
AcDbEntity
  8
A-GLAZ-CWMG
370
    25
100
AcDbLine
 10
-1.999999999999971
 20
-2.249999999999999
 30
0.0
 11
-1.999999999999971
 21
2.249999999999999
 31
0.0
1001
REVIT
1002
{
1070
     1
1000
5171076
1002
}
1002
{
1070
     5
1000
646104
1002
}
  0
ENDBLK
  5
14B
330
145
100
AcDbEntity
  8
0
100
AcDbBlockEnd
  0
BLOCK
  5
152
330
14D
100
AcDbEntity
  8
0
100
AcDbBlockBegin
  2
Rectangular Mullion - 4 1_2_ x 2_ Rectangular_CE_-5171082-LEVEL 3 Map Export
 70
     0
 10
0.0
 20
0.0
 30
0.0
  3
Rectangular Mullion - 4 1_2_ x 2_ Rectangular_CE_-5171082-LEVEL 3 Map Export
  1

  0
LINE
  5
14E
330
14D
100
AcDbEntity
  8
A-GLAZ-CWMG
370
    25
100
AcDbLine
 10
0.0
 20
2.249999999999999
 30
0.0
 11
-1.999999999999971
 21
2.249999999999999
 31
0.0
1001
REVIT
1002
{
1070
     1
1000
5171077
1002
}
1002
{
1070
     5
1000
646104
1002
}
  0
LINE
  5
14F
330
14D
100
AcDbEntity
  8
A-GLAZ-CWMG
370
    25
100
AcDbLine
 10
-1.999999999999971
 20
2.249999999999999
 30
0.0
 11
-1.999999999999971
 21
-2.249999999999999
 31
0.0
1001
REVIT
1002
{
1070
     1
1000
5171077
1002
}
1002
{
1070
     5
1000
646104
1002
}
  0
LINE
  5
150
330
14D
100
AcDbEntity
  8
A-GLAZ-CWMG
370
    25
100
AcDbLine
 10
-1.999999999999971
 20
-2.249999999999999
 30
0.0
 11
0.0
 21
-2.249999999999999
 31
0.0
1001
REVIT
1002
{
1070
     1
1000
5171077
1002
}
1002
{
1070
     5
1000
646104
1002
}
  0
LINE
  5
151
330
14D
100
AcDbEntity
  8
A-GLAZ-CWMG
370
    25
100
AcDbLine
 10
0.0
 20
-2.249999999999999
 30
0.0
 11
0.0
 21
2.249999999999999
 31
0.0
1001
REVIT
1002
{
1070
     1
1000
5171077
1002
}
1002
{
1070
     5
1000
646104
1002
}
  0
ENDBLK
  5
153
330
14D
100
AcDbEntity
  8
0
100
AcDbBlockEnd
  0
BLOCK
  5
15A
330
155
100
AcDbEntity
  8
0
100
AcDbBlockBegin
  2
System Panel - zGlazed-5173075-LEVEL 3 Map Export
 70
     0
 10
0.0
 20
0.0
 30
0.0
  3
System Panel - zGlazed-5173075-LEVEL 3 Map Export
  1

  0
LINE
  5
156
330
155
100
AcDbEntity
  8
A-GLAZ-CURT
370
    15
100
AcDbLine
 10
-13.99999999999997
 20
0.5000000000000142
 30
0.0
 11
13.99999999999997
 21
0.5000000000000142
 31
0.0
1001
REVIT
1002
{
1070
     1
1000
5174778
1002
}
1002
{
1070
     5
1000
645966
1002
}
  0
LINE
  5
157
330
155
100
AcDbEntity
  8
A-GLAZ-CURT
370
    15
100
AcDbLine
 10
13.99999999999997
 20
0.5000000000000142
 30
0.0
 11
13.99999999999997
 21
1.499999999999999
 31
0.0
1001
REVIT
1002
{
1070
     1
1000
5174778
1002
}
1002
{
1070
     5
1000
645966
1002
}
  0
LINE
  5
158
330
155
100
AcDbEntity
  8
A-GLAZ-CURT
370
    15
100
AcDbLine
 10
13.99999999999997
 20
1.499999999999999
 30
0.0
 11
-13.99999999999997
 21
1.499999999999999
 31
0.0
1001
REVIT
1002
{
1070
     1
1000
5174778
1002
}
1002
{
1070
     5
1000
645966
1002
}
  0
LINE
  5
159
330
155
100
AcDbEntity
  8
A-GLAZ-CURT
370
    15
100
AcDbLine
 10
-13.99999999999997
 20
1.499999999999999
 30
0.0
 11
-13.99999999999997
 21
0.5000000000000142
 31
0.0
1001
REVIT
1002
{
1070
     1
1000
5174778
1002
}
1002
{
1070
     5
1000
645966
1002
}
  0
ENDBLK
  5
15B
330
155
100
AcDbEntity
  8
0
100
AcDbBlockEnd
  0
BLOCK
  5
160
330
15D
100
AcDbEntity
  8
0
100
AcDbBlockBegin
  2
Rectangular Mullion - 6_ x 2_ Rectangular_CE_-5173074-LEVEL 3 Map Export
 70
     0
 10
0.0
 20
0.0
 30
0.0
  3
Rectangular Mullion - 6_ x 2_ Rectangular_CE_-5173074-LEVEL 3 Map Export
  1

  0
LINE
  5
15E
330
15D
100
AcDbEntity
  8
A-GLAZ-CWMG
100
AcDbLine
 10
354.9226992363485
 20
445.8393942461348
 30
0.0
 11
354.9226992363484
 21
417.8393942461347
 31
0.0
1001
REVIT
1002
{
1070
     1
1000
5174780
1002
}
1002
{
1070
     5
1000
646107
1002
}
  0
LINE
  5
15F
330
15D
100
AcDbEntity
  8
A-GLAZ-CWMG
100
AcDbLine
 10
348.9226992363485
 20
445.8393942461348
 30
0.0
 11
348.9226992363484
 21
417.8393942461347
 31
0.0
1001
REVIT
1002
{
1070
     1
1000
5174780
1002
}
1002
{
1070
     5
1000
646107
1002
}
  0
ENDBLK
  5
161
330
15D
100
AcDbEntity
  8
0
100
AcDbBlockEnd
  0
BLOCK
  5
168
330
163
100
AcDbEntity
  8
0
100
AcDbBlockBegin
  2
Rectangular Mullion - 6_ x 2_ Rectangular_CE_-5173056-LEVEL 3 Map Export
 70
     0
 10
0.0
 20
0.0
 30
0.0
  3
Rectangular Mullion - 6_ x 2_ Rectangular_CE_-5173056-LEVEL 3 Map Export
  1

  0
LINE
  5
164
330
163
100
AcDbEntity
  8
A-GLAZ-CWMG
370
    25
100
AcDbLine
 10
-1.999999999999971
 20
3.749999999999999
 30
0.0
 11
0.0
 21
3.749999999999999
 31
0.0
1001
REVIT
1002
{
1070
     1
1000
5174781
1002
}
1002
{
1070
     5
1000
646107
1002
}
  0
LINE
  5
165
330
163
100
AcDbEntity
  8
A-GLAZ-CWMG
370
    25
100
AcDbLine
 10
0.0
 20
3.749999999999999
 30
0.0
 11
0.0
 21
-2.249999999999999
 31
0.0
1001
REVIT
1002
{
1070
     1
1000
5174781
1002
}
1002
{
1070
     5
1000
646107
1002
}
  0
LINE
  5
166
330
163
100
AcDbEntity
  8
A-GLAZ-CWMG
370
    25
100
AcDbLine
 10
0.0
 20
-2.249999999999999
 30
0.0
 11
-1.999999999999971
 21
-2.249999999999999
 31
0.0
1001
REVIT
1002
{
1070
     1
1000
5174781
1002
}
1002
{
1070
     5
1000
646107
1002
}
  0
LINE
  5
167
330
163
100
AcDbEntity
  8
A-GLAZ-CWMG
370
    25
100
AcDbLine
 10
-1.999999999999971
 20
-2.249999999999999
 30
0.0
 11
-1.999999999999971
 21
3.749999999999999
 31
0.0
1001
REVIT
1002
{
1070
     1
1000
5174781
1002
}
1002
{
1070
     5
1000
646107
1002
}
  0
ENDBLK
  5
169
330
163
100
AcDbEntity
  8
0
100
AcDbBlockEnd
  0
BLOCK
  5
170
330
16B
100
AcDbEntity
  8
0
100
AcDbBlockBegin
  2
Rectangular Mullion - 6_ x 2_ Rectangular_CE_-5173057-LEVEL 3 Map Export
 70
     0
 10
0.0
 20
0.0
 30
0.0
  3
Rectangular Mullion - 6_ x 2_ Rectangular_CE_-5173057-LEVEL 3 Map Export
  1

  0
LINE
  5
16C
330
16B
100
AcDbEntity
  8
A-GLAZ-CWMG
370
    25
100
AcDbLine
 10
0.0
 20
3.749999999999999
 30
0.0
 11
-1.999999999999971
 21
3.749999999999999
 31
0.0
1001
REVIT
1002
{
1070
     1
1000
5174782
1002
}
1002
{
1070
     5
1000
646107
1002
}
  0
LINE
  5
16D
330
16B
100
AcDbEntity
  8
A-GLAZ-CWMG
370
    25
100
AcDbLine
 10
-1.999999999999971
 20
3.749999999999999
 30
0.0
 11
-1.999999999999971
 21
-2.249999999999999
 31
0.0
1001
REVIT
1002
{
1070
     1
1000
5174782
1002
}
1002
{
1070
     5
1000
646107
1002
}
  0
LINE
  5
16E
330
16B
100
AcDbEntity
  8
A-GLAZ-CWMG
370
    25
100
AcDbLine
 10
-1.999999999999971
 20
-2.249999999999999
 30
0.0
 11
0.0
 21
-2.249999999999999
 31
0.0
1001
REVIT
1002
{
1070
     1
1000
5174782
1002
}
1002
{
1070
     5
1000
646107
1002
}
  0
LINE
  5
16F
330
16B
100
AcDbEntity
  8
A-GLAZ-CWMG
370
    25
100
AcDbLine
 10
0.0
 20
-2.249999999999999
 30
0.0
 11
0.0
 21
3.749999999999999
 31
0.0
1001
REVIT
1002
{
1070
     1
1000
5174782
1002
}
1002
{
1070
     5
1000
646107
1002
}
  0
ENDBLK
  5
171
330
16B
100
AcDbEntity
  8
0
100
AcDbBlockEnd
  0
BLOCK
  5
1A3
330
196
100
AcDbEntity
  8
0
100
AcDbBlockBegin
  2
Railing - Railing-5175240-LEVEL 3 Map Export
 70
     0
 10
0.0
 20
0.0
 30
0.0
  3
Railing - Railing-5175240-LEVEL 3 Map Export
  1

  0
LINE
  5
197
330
196
100
AcDbEntity
  8
A-FLOR-HRAL
100
AcDbLine
 10
1043.172699236349
 20
324.3358431313569
 30
0.0
 11
1045.172699236349
 21
324.3358431313569
 31
0.0
1001
REVIT
1002
{
1070
     1
1000
5175239
1002
}
1002
{
1070
     5
1000
1969
1002
}
1002
{
1070
     3
1000
-2000128
1002
}
  0
LINE
  5
198
330
196
100
AcDbEntity
  8
A-FLOR-HRAL
100
AcDbLine
 10
1043.172699236349
 20
203.3358431313569
 30
0.0
 11
1043.172699236349
 21
324.3358431313569
 31
0.0
1001
REVIT
1002
{
1070
     1
1000
5175239
1002
}
1002
{
1070
     5
1000
1969
1002
}
1002
{
1070
     3
1000
-2000128
1002
}
  0
LINE
  5
199
330
196
100
AcDbEntity
  8
A-FLOR-HRAL
100
AcDbLine
 10
1043.172699236349
 20
169.3358431313569
 30
0.0
 11
1043.172699236349
 21
203.3358431313569
 31
0.0
1001
REVIT
1002
{
1070
     1
1000
5175239
1002
}
1002
{
1070
     5
1000
1969
1002
}
1002
{
1070
     3
1000
-2000128
1002
}
  0
LINE
  5
19A
330
196
100
AcDbEntity
  8
A-FLOR-HRAL
100
AcDbLine
 10
942.172699236349
 20
169.3358431313567
 30
0.0
 11
1043.172699236349
 21
169.3358431313569
 31
0.0
1001
REVIT
1002
{
1070
     1
1000
5175239
1002
}
1002
{
1070
     5
1000
1969
1002
}
1002
{
1070
     3
1000
-2000128
1002
}
  0
LINE
  5
19B
330
196
100
AcDbEntity
  8
A-FLOR-HRAL
100
AcDbLine
 10
942.172699236349
 20
205.3358431313558
 30
0.0
 11
942.172699236349
 21
169.3358431313567
 31
0.0
1001
REVIT
1002
{
1070
     1
1000
5175239
1002
}
1002
{
1070
     5
1000
1969
1002
}
1002
{
1070
     3
1000
-2000128
1002
}
  0
LINE
  5
19C
330
196
100
AcDbEntity
  8
A-FLOR-HRAL
100
AcDbLine
 10
942.1726992363492
 20
293.3358431313558
 30
0.0
 11
942.172699236349
 21
205.3358431313558
 31
0.0
1001
REVIT
1002
{
1070
     1
1000
5175239
1002
}
1002
{
1070
     5
1000
1969
1002
}
1002
{
1070
     3
1000
-2000128
1002
}
  0
LINE
  5
19D
330
196
100
AcDbEntity
  8
A-FLOR-HRAL
100
AcDbLine
 10
940.1726992363492
 20
293.3358431313558
 30
0.0
 11
942.1726992363492
 21
293.3358431313558
 31
0.0
1001
REVIT
1002
{
1070
     1
1000
5175239
1002
}
1002
{
1070
     5
1000
1969
1002
}
1002
{
1070
     3
1000
-2000128
1002
}
  0
LINE
  5
19E
330
196
100
AcDbEntity
  8
A-FLOR-HRAL
100
AcDbLine
 10
1045.172699236349
 20
203.3358431313569
 30
0.0
 11
1045.172699236349
 21
324.3358431313569
 31
0.0
1001
REVIT
1002
{
1070
     1
1000
5175239
1002
}
1002
{
1070
     5
1000
1969
1002
}
1002
{
1070
     3
1000
-2000128
1002
}
  0
LINE
  5
19F
330
196
100
AcDbEntity
  8
A-FLOR-HRAL
100
AcDbLine
 10
1045.172699236349
 20
167.3358431313569
 30
0.0
 11
1045.172699236349
 21
203.3358431313569
 31
0.0
1001
REVIT
1002
{
1070
     1
1000
5175239
1002
}
1002
{
1070
     5
1000
1969
1002
}
1002
{
1070
     3
1000
-2000128
1002
}
  0
LINE
  5
1A0
330
196
100
AcDbEntity
  8
A-FLOR-HRAL
100
AcDbLine
 10
940.172699236349
 20
167.3358431313567
 30
0.0
 11
1045.172699236349
 21
167.3358431313569
 31
0.0
1001
REVIT
1002
{
1070
     1
1000
5175239
1002
}
1002
{
1070
     5
1000
1969
1002
}
1002
{
1070
     3
1000
-2000128
1002
}
  0
LINE
  5
1A1
330
196
100
AcDbEntity
  8
A-FLOR-HRAL
100
AcDbLine
 10
940.172699236349
 20
205.3358431313558
 30
0.0
 11
940.172699236349
 21
167.3358431313567
 31
0.0
1001
REVIT
1002
{
1070
     1
1000
5175239
1002
}
1002
{
1070
     5
1000
1969
1002
}
1002
{
1070
     3
1000
-2000128
1002
}
  0
LINE
  5
1A2
330
196
100
AcDbEntity
  8
A-FLOR-HRAL
100
AcDbLine
 10
940.1726992363492
 20
293.3358431313558
 30
0.0
 11
940.172699236349
 21
205.3358431313558
 31
0.0
1001
REVIT
1002
{
1070
     1
1000
5175239
1002
}
1002
{
1070
     5
1000
1969
1002
}
1002
{
1070
     3
1000
-2000128
1002
}
  0
ENDBLK
  5
1A4
330
196
100
AcDbEntity
  8
0
100
AcDbBlockEnd
  0
BLOCK
  5
1B1
330
1A6
100
AcDbEntity
  8
0
100
AcDbBlockBegin
  2
Railing - Railing-5175244-LEVEL 3 Map Export
 70
     0
 10
0.0
 20
0.0
 30
0.0
  3
Railing - Railing-5175244-LEVEL 3 Map Export
  1

  0
LINE
  5
1A7
330
1A6
100
AcDbEntity
  8
A-FLOR-HRAL
100
AcDbLine
 10
1009.172699236349
 20
324.3358431313569
 30
0.0
 11
1011.172699236349
 21
324.3358431313569
 31
0.0
1001
REVIT
1002
{
1070
     1
1000
5175243
1002
}
1002
{
1070
     5
1000
1969
1002
}
1002
{
1070
     3
1000
-2000128
1002
}
  0
LINE
  5
1A8
330
1A6
100
AcDbEntity
  8
A-FLOR-HRAL
100
AcDbLine
 10
1009.172699236349
 20
203.3358431313569
 30
0.0
 11
1009.172699236349
 21
324.3358431313569
 31
0.0
1001
REVIT
1002
{
1070
     1
1000
5175243
1002
}
1002
{
1070
     5
1000
1969
1002
}
1002
{
1070
     3
1000
-2000128
1002
}
  0
LINE
  5
1A9
330
1A6
100
AcDbEntity
  8
A-FLOR-HRAL
100
AcDbLine
 10
976.172699236349
 20
203.3358431313568
 30
0.0
 11
1009.172699236349
 21
203.3358431313569
 31
0.0
1001
REVIT
1002
{
1070
     1
1000
5175243
1002
}
1002
{
1070
     5
1000
1969
1002
}
1002
{
1070
     3
1000
-2000128
1002
}
  0
LINE
  5
1AA
330
1A6
100
AcDbEntity
  8
A-FLOR-HRAL
100
AcDbLine
 10
976.172699236349
 20
205.3358431313558
 30
0.0
 11
976.172699236349
 21
203.3358431313568
 31
0.0
1001
REVIT
1002
{
1070
     1
1000
5175243
1002
}
1002
{
1070
     5
1000
1969
1002
}
1002
{
1070
     3
1000
-2000128
1002
}
  0
LINE
  5
1AB
330
1A6
100
AcDbEntity
  8
A-FLOR-HRAL
100
AcDbLine
 10
976.1726992363493
 20
293.3358431313558
 30
0.0
 11
976.172699236349
 21
205.3358431313558
 31
0.0
1001
REVIT
1002
{
1070
     1
1000
5175243
1002
}
1002
{
1070
     5
1000
1969
1002
}
1002
{
1070
     3
1000
-2000128
1002
}
  0
LINE
  5
1AC
330
1A6
100
AcDbEntity
  8
A-FLOR-HRAL
100
AcDbLine
 10
974.1726992363494
 20
293.3358431313558
 30
0.0
 11
976.1726992363493
 21
293.3358431313558
 31
0.0
1001
REVIT
1002
{
1070
     1
1000
5175243
1002
}
1002
{
1070
     5
1000
1969
1002
}
1002
{
1070
     3
1000
-2000128
1002
}
  0
LINE
  5
1AD
330
1A6
100
AcDbEntity
  8
A-FLOR-HRAL
100
AcDbLine
 10
1011.172699236349
 20
201.3358431313569
 30
0.0
 11
1011.172699236349
 21
324.3358431313569
 31
0.0
1001
REVIT
1002
{
1070
     1
1000
5175243
1002
}
1002
{
1070
     5
1000
1969
1002
}
1002
{
1070
     3
1000
-2000128
1002
}
  0
LINE
  5
1AE
330
1A6
100
AcDbEntity
  8
A-FLOR-HRAL
100
AcDbLine
 10
974.1726992363492
 20
201.3358431313569
 30
0.0
 11
1011.172699236349
 21
201.3358431313569
 31
0.0
1001
REVIT
1002
{
1070
     1
1000
5175243
1002
}
1002
{
1070
     5
1000
1969
1002
}
1002
{
1070
     3
1000
-2000128
1002
}
  0
LINE
  5
1AF
330
1A6
100
AcDbEntity
  8
A-FLOR-HRAL
100
AcDbLine
 10
974.1726992363492
 20
205.3358431313558
 30
0.0
 11
974.1726992363492
 21
201.3358431313569
 31
0.0
1001
REVIT
1002
{
1070
     1
1000
5175243
1002
}
1002
{
1070
     5
1000
1969
1002
}
1002
{
1070
     3
1000
-2000128
1002
}
  0
LINE
  5
1B0
330
1A6
100
AcDbEntity
  8
A-FLOR-HRAL
100
AcDbLine
 10
974.1726992363494
 20
293.3358431313558
 30
0.0
 11
974.1726992363492
 21
205.3358431313558
 31
0.0
1001
REVIT
1002
{
1070
     1
1000
5175243
1002
}
1002
{
1070
     5
1000
1969
1002
}
1002
{
1070
     3
1000
-2000128
1002
}
  0
ENDBLK
  5
1B2
330
1A6
100
AcDbEntity
  8
0
100
AcDbBlockEnd
  0
ENDSEC
  0
SECTION
  2
ENTITIES
  0
LINE
  5
8B
330
70
100
AcDbEntity
  8
A-WALL
370
    40
100
AcDbLine
 10
1047.17269923635
 20
748.3358431313576
 30
0.0
 11
1047.172699236349
 21
156.3358431313569
 31
0.0
1001
REVIT
1002
{
1070
     1
1000
5142987
1002
}
1002
{
1070
     5
1000
5142885
1002
}
1002
{
1070
     2
1000
-2000011
1002
}
  0
LINE
  5
8D
330
70
100
AcDbEntity
  8
A-WALL
370
    40
100
AcDbLine
 10
1063.172699236349
 20
140.335843131357
 30
0.0
 11
1063.17269923635
 21
764.3358431313576
 31
0.0
1001
REVIT
1002
{
1070
     1
1000
5142987
1002
}
1002
{
1070
     5
1000
5142885
1002
}
1002
{
1070
     2
1000
-2000011
1002
}
  0
LINE
  5
8F
330
70
100
AcDbEntity
  8
A-WALL
370
    40
100
AcDbLine
 10
1047.172699236349
 20
156.3358431313569
 30
0.0
 11
926.1726992363495
 21
156.3358431313567
 31
0.0
1001
REVIT
1002
{
1070
     1
1000
5143022
1002
}
1002
{
1070
     5
1000
5142885
1002
}
1002
{
1070
     2
1000
-2000011
1002
}
  0
LINE
  5
91
330
70
100
AcDbEntity
  8
A-WALL
370
    40
100
AcDbLine
 10
942.1726992363495
 20
140.3358431313567
 30
0.0
 11
1063.172699236349
 21
140.335843131357
 31
0.0
1001
REVIT
1002
{
1070
     1
1000
5143022
1002
}
1002
{
1070
     5
1000
5142885
1002
}
1002
{
1070
     2
1000
-2000011
1002
}
  0
LINE
  5
92
330
70
100
AcDbEntity
  8
A-WALL
370
    40
100
AcDbLine
 10
926.1726992363495
 20
156.3358431313567
 30
0.0
 11
926.1726992363497
 21
76.335843131356
 31
0.0
1001
REVIT
1002
{
1070
     1
1000
5143045
1002
}
1002
{
1070
     5
1000
5142885
1002
}
1002
{
1070
     2
1000
-2000011
1002
}
  0
LINE
  5
94
330
70
100
AcDbEntity
  8
A-WALL
370
    40
100
AcDbLine
 10
942.1726992363497
 20
60.33584313135604
 30
0.0
 11
942.1726992363497
 21
140.3358431313567
 31
0.0
1001
REVIT
1002
{
1070
     1
1000
5143045
1002
}
1002
{
1070
     5
1000
5142885
1002
}
1002
{
1070
     2
1000
-2000011
1002
}
  0
LINE
  5
95
330
70
100
AcDbEntity
  8
A-WALL
370
    40
100
AcDbLine
 10
926.1726992363497
 20
76.335843131356
 30
0.0
 11
772.3490937325805
 21
76.33584313135575
 31
0.0
1001
REVIT
1002
{
1070
     1
1000
5143072
1002
}
1002
{
1070
     5
1000
5142885
1002
}
1002
{
1070
     2
1000
-2000011
1002
}
  0
LINE
  5
96
330
70
100
AcDbEntity
  8
A-WALL
370
    40
100
AcDbLine
 10
788.3490937325803
 20
60.33584313135578
 30
0.0
 11
942.1726992363497
 21
60.33584313135604
 31
0.0
1001
REVIT
1002
{
1070
     1
1000
5143072
1002
}
1002
{
1070
     5
1000
5142885
1002
}
1002
{
1070
     2
1000
-2000011
1002
}
  0
LINE
  5
97
330
70
100
AcDbEntity
  8
A-WALL
370
    40
100
AcDbLine
 10
772.3490937325805
 20
76.33584313135575
 30
0.0
 11
772.3490937325805
 21
60.33584313135574
 31
0.0
1001
REVIT
1002
{
1070
     1
1000
5143089
1002
}
1002
{
1070
     5
1000
5142885
1002
}
1002
{
1070
     2
1000
-2000011
1002
}
  0
LINE
  5
99
330
70
100
AcDbEntity
  8
A-WALL
370
    40
100
AcDbLine
 10
788.3490937325803
 20
44.33584313135576
 30
0.0
 11
788.3490937325803
 21
60.33584313135578
 31
0.0
1001
REVIT
1002
{
1070
     1
1000
5143089
1002
}
1002
{
1070
     5
1000
5142885
1002
}
1002
{
1070
     2
1000
-2000011
1002
}
  0
LINE
  5
9B
330
70
100
AcDbEntity
  8
A-WALL
370
    40
100
AcDbLine
 10
772.3490937325805
 20
60.33584313135574
 30
0.0
 11
612.3490937325803
 21
60.33584313135546
 31
0.0
1001
REVIT
1002
{
1070
     1
1000
5143147
1002
}
1002
{
1070
     5
1000
5142885
1002
}
1002
{
1070
     2
1000
-2000011
1002
}
  0
LINE
  5
9C
330
70
100
AcDbEntity
  8
A-WALL
370
    40
100
AcDbLine
 10
596.3490937325803
 20
44.33584313135543
 30
0.0
 11
788.3490937325803
 21
44.33584313135576
 31
0.0
1001
REVIT
1002
{
1070
     1
1000
5143147
1002
}
1002
{
1070
     5
1000
5142885
1002
}
1002
{
1070
     2
1000
-2000011
1002
}
  0
LINE
  5
9D
330
70
100
AcDbEntity
  8
A-WALL
370
    40
100
AcDbLine
 10
612.3490937325803
 20
76.33584313135597
 30
0.0
 11
513.1726992363492
 21
76.33584313135596
 31
0.0
1001
REVIT
1002
{
1070
     1
1000
5143229
1002
}
1002
{
1070
     5
1000
5142885
1002
}
1002
{
1070
     2
1000
-2000011
1002
}
  0
LINE
  5
9F
330
70
100
AcDbEntity
  8
A-WALL
370
    40
100
AcDbLine
 10
497.1726992363492
 20
60.33584313135595
 30
0.0
 11
596.3490937325803
 21
60.33584313135597
 31
0.0
1001
REVIT
1002
{
1070
     1
1000
5143229
1002
}
1002
{
1070
     5
1000
5142885
1002
}
1002
{
1070
     2
1000
-2000011
1002
}
  0
LINE
  5
A2
330
70
100
AcDbEntity
  8
A-WALL
370
    40
100
AcDbLine
 10
497.172699236349
 20
140.3358431313565
 30
0.0
 11
497.1726992363492
 21
60.33584313135595
 31
0.0
1001
REVIT
1002
{
1070
     1
1000
5143286
1002
}
1002
{
1070
     5
1000
5142885
1002
}
1002
{
1070
     2
1000
-2000011
1002
}
  0
LINE
  5
A3
330
70
100
AcDbEntity
  8
A-WALL
370
    40
100
AcDbLine
 10
501.172699236349
 20
156.3358431313565
 30
0.0
 11
393.1726992363489
 21
156.3358431313565
 31
0.0
1001
REVIT
1002
{
1070
     1
1000
5143317
1002
}
1002
{
1070
     5
1000
5142885
1002
}
1002
{
1070
     2
1000
-2000011
1002
}
  0
LINE
  5
A5
330
70
100
AcDbEntity
  8
A-WALL
370
    40
100
AcDbLine
 10
377.1726992363489
 20
140.3358431313565
 30
0.0
 11
497.172699236349
 21
140.3358431313565
 31
0.0
1001
REVIT
1002
{
1070
     1
1000
5143317
1002
}
1002
{
1070
     5
1000
5142885
1002
}
1002
{
1070
     2
1000
-2000011
1002
}
  0
LINE
  5
A6
330
70
100
AcDbEntity
  8
A-WALL
370
    40
100
AcDbLine
 10
393.1726992363489
 20
156.3358431313565
 30
0.0
 11
393.1726992363492
 21
360.3358431313566
 31
0.0
1001
REVIT
1002
{
1070
     1
1000
5143383
1002
}
1002
{
1070
     5
1000
5142885
1002
}
1002
{
1070
     2
1000
-2000011
1002
}
  0
LINE
  5
A8
330
70
100
AcDbEntity
  8
A-WALL
370
    40
100
AcDbLine
 10
377.1726992363492
 20
356.3358431313566
 30
0.0
 11
377.1726992363489
 21
140.3358431313565
 31
0.0
1001
REVIT
1002
{
1070
     1
1000
5143383
1002
}
1002
{
1070
     5
1000
5142885
1002
}
1002
{
1070
     2
1000
-2000011
1002
}
  0
LINE
  5
AB
330
70
100
AcDbEntity
  8
A-WALL
370
    40
100
AcDbLine
 10
343.1726992363485
 20
356.3358431313566
 30
0.0
 11
377.1726992363493
 21
356.3358431313565
 31
0.0
1001
REVIT
1002
{
1070
     1
1000
5143414
1002
}
1002
{
1070
     5
1000
5142885
1002
}
1002
{
1070
     2
1000
-2000011
1002
}
  0
LINE
  5
AC
330
70
100
AcDbEntity
  8
A-WALL
370
    40
100
AcDbLine
 10
359.1726992363486
 20
372.3358431313565
 30
0.0
 11
359.1726992363486
 21
415.8393942461348
 31
0.0
1001
REVIT
1002
{
1070
     1
1000
5143439
1002
}
1002
{
1070
     5
1000
5142885
1002
}
1002
{
1070
     2
1000
-2000011
1002
}
  0
LINE
  5
AD
330
70
100
AcDbEntity
  8
A-WALL
370
    40
100
AcDbLine
 10
359.1726992363486
 20
415.8393942461348
 30
0.0
 11
343.1726992363487
 21
415.8393942461348
 31
0.0
1001
REVIT
1002
{
1070
     1
1000
5143439
1002
}
1002
{
1070
     5
1000
5142885
1002
}
1002
{
1070
     2
1000
-2000011
1002
}
  0
LINE
  5
AE
330
70
100
AcDbEntity
  8
A-WALL
370
    40
100
AcDbLine
 10
343.1726992363487
 20
415.8393942461348
 30
0.0
 11
343.1726992363485
 21
356.3358431313566
 31
0.0
1001
REVIT
1002
{
1070
     1
1000
5143439
1002
}
1002
{
1070
     5
1000
5142885
1002
}
1002
{
1070
     2
1000
-2000011
1002
}
  0
LINE
  5
AF
330
70
100
AcDbEntity
  8
A-WALL
370
    40
100
AcDbLine
 10
359.1726992363488
 20
447.8393942461348
 30
0.0
 11
359.1726992363488
 21
458.3358431313566
 31
0.0
1001
REVIT
1002
{
1070
     1
1000
5143439
1002
}
1002
{
1070
     5
1000
5142885
1002
}
1002
{
1070
     2
1000
-2000011
1002
}
  0
LINE
  5
B0
330
70
100
AcDbEntity
  8
A-WALL
370
    40
100
AcDbLine
 10
359.1726992363488
 20
458.3358431313566
 30
0.0
 11
343.1726992363488
 21
458.3358431313566
 31
0.0
1001
REVIT
1002
{
1070
     1
1000
5143439
1002
}
1002
{
1070
     5
1000
5142885
1002
}
1002
{
1070
     2
1000
-2000011
1002
}
  0
LINE
  5
B1
330
70
100
AcDbEntity
  8
A-WALL
370
    40
100
AcDbLine
 10
343.1726992363488
 20
458.3358431313566
 30
0.0
 11
343.1726992363488
 21
447.8393942461348
 31
0.0
1001
REVIT
1002
{
1070
     1
1000
5143439
1002
}
1002
{
1070
     5
1000
5142885
1002
}
1002
{
1070
     2
1000
-2000011
1002
}
  0
LINE
  5
B2
330
70
100
AcDbEntity
  8
A-WALL
370
    40
100
AcDbLine
 10
343.1726992363488
 20
447.8393942461348
 30
0.0
 11
359.1726992363488
 21
447.8393942461348
 31
0.0
1001
REVIT
1002
{
1070
     1
1000
5143439
1002
}
1002
{
1070
     5
1000
5142885
1002
}
1002
{
1070
     2
1000
-2000011
1002
}
  0
LINE
  5
B3
330
70
100
AcDbEntity
  8
A-WALL
370
    40
100
AcDbLine
 10
359.1726992363488
 20
490.3358431313567
 30
0.0
 11
359.172699236349
 21
532.3358431313566
 31
0.0
1001
REVIT
1002
{
1070
     1
1000
5143439
1002
}
1002
{
1070
     5
1000
5142885
1002
}
1002
{
1070
     2
1000
-2000011
1002
}
  0
LINE
  5
B4
330
70
100
AcDbEntity
  8
A-WALL
370
    40
100
AcDbLine
 10
343.172699236349
 20
548.3358431313564
 30
0.0
 11
343.1726992363488
 21
490.3358431313567
 31
0.0
1001
REVIT
1002
{
1070
     1
1000
5143439
1002
}
1002
{
1070
     5
1000
5142885
1002
}
1002
{
1070
     2
1000
-2000011
1002
}
  0
LINE
  5
B5
330
70
100
AcDbEntity
  8
A-WALL
370
    40
100
AcDbLine
 10
343.1726992363488
 20
490.3358431313567
 30
0.0
 11
359.1726992363488
 21
490.3358431313567
 31
0.0
1001
REVIT
1002
{
1070
     1
1000
5143439
1002
}
1002
{
1070
     5
1000
5142885
1002
}
1002
{
1070
     2
1000
-2000011
1002
}
  0
LINE
  5
B6
330
70
100
AcDbEntity
  8
A-WALL
100
AcDbLine
 10
359.1726992363488
 20
490.3358431313567
 30
0.0
 11
359.1726992363488
 21
458.3358431313566
 31
0.0
1001
REVIT
1002
{
1070
     1
1000
5143439
1002
}
1002
{
1070
     5
1000
5142885
1002
}
1002
{
1070
     2
1000
-2000011
1002
}
  0
LINE
  5
B7
330
70
100
AcDbEntity
  8
A-WALL
100
AcDbLine
 10
359.1726992363488
 20
447.8393942461348
 30
0.0
 11
359.1726992363486
 21
415.8393942461348
 31
0.0
1001
REVIT
1002
{
1070
     1
1000
5143439
1002
}
1002
{
1070
     5
1000
5142885
1002
}
1002
{
1070
     2
1000
-2000011
1002
}
  0
LINE
  5
B8
330
70
100
AcDbEntity
  8
A-WALL
100
AcDbLine
 10
343.1726992363487
 20
415.8393942461348
 30
0.0
 11
343.1726992363488
 21
447.8393942461348
 31
0.0
1001
REVIT
1002
{
1070
     1
1000
5143439
1002
}
1002
{
1070
     5
1000
5142885
1002
}
1002
{
1070
     2
1000
-2000011
1002
}
  0
LINE
  5
B9
330
70
100
AcDbEntity
  8
A-WALL
100
AcDbLine
 10
343.1726992363488
 20
458.3358431313566
 30
0.0
 11
343.1726992363488
 21
490.3358431313567
 31
0.0
1001
REVIT
1002
{
1070
     1
1000
5143439
1002
}
1002
{
1070
     5
1000
5142885
1002
}
1002
{
1070
     2
1000
-2000011
1002
}
  0
LINE
  5
BA
330
70
100
AcDbEntity
  8
A-WALL
370
    40
100
AcDbLine
 10
392.1726992363487
 20
538.3358431313563
 30
0.0
 11
392.172699236349
 21
748.3358431313563
 31
0.0
1001
REVIT
1002
{
1070
     1
1000
5143550
1002
}
1002
{
1070
     5
1000
5142885
1002
}
1002
{
1070
     2
1000
-2000011
1002
}
  0
LINE
  5
BC
330
70
100
AcDbEntity
  8
A-WALL
370
    40
100
AcDbLine
 10
376.172699236349
 20
764.3358431313564
 30
0.0
 11
376.1726992363488
 21
548.3358431313566
 31
0.0
1001
REVIT
1002
{
1070
     1
1000
5143550
1002
}
1002
{
1070
     5
1000
5142885
1002
}
1002
{
1070
     2
1000
-2000011
1002
}
  0
LINE
  5
BD
330
70
100
AcDbEntity
  8
A-WALL
370
    40
100
AcDbLine
 10
392.172699236349
 20
748.3358431313563
 30
0.0
 11
508.172699236349
 21
748.3358431313564
 31
0.0
1001
REVIT
1002
{
1070
     1
1000
5143578
1002
}
1002
{
1070
     5
1000
5142885
1002
}
1002
{
1070
     2
1000
-2000011
1002
}
  0
LINE
  5
BF
330
70
100
AcDbEntity
  8
A-WALL
370
    40
100
AcDbLine
 10
492.1726992363489
 20
764.3358431313564
 30
0.0
 11
376.172699236349
 21
764.3358431313564
 31
0.0
1001
REVIT
1002
{
1070
     1
1000
5143578
1002
}
1002
{
1070
     5
1000
5142885
1002
}
1002
{
1070
     2
1000
-2000011
1002
}
  0
LINE
  5
C0
330
70
100
AcDbEntity
  8
A-WALL
370
    40
100
AcDbLine
 10
508.172699236349
 20
748.3358431313564
 30
0.0
 11
508.1726992363488
 21
842.3358431313559
 31
0.0
1001
REVIT
1002
{
1070
     1
1000
5143631
1002
}
1002
{
1070
     5
1000
5142885
1002
}
1002
{
1070
     2
1000
-2000011
1002
}
  0
LINE
  5
C2
330
70
100
AcDbEntity
  8
A-WALL
370
    40
100
AcDbLine
 10
492.1726992363487
 20
858.3358431313559
 30
0.0
 11
492.1726992363489
 21
764.3358431313564
 31
0.0
1001
REVIT
1002
{
1070
     1
1000
5143631
1002
}
1002
{
1070
     5
1000
5142885
1002
}
1002
{
1070
     2
1000
-2000011
1002
}
  0
LINE
  5
C3
330
70
100
AcDbEntity
  8
A-WALL
370
    40
100
AcDbLine
 10
508.1726992363488
 20
842.3358431313559
 30
0.0
 11
612.3490937325808
 21
842.3358431313559
 31
0.0
1001
REVIT
1002
{
1070
     1
1000
5143713
1002
}
1002
{
1070
     5
1000
5142885
1002
}
1002
{
1070
     2
1000
-2000011
1002
}
  0
LINE
  5
C4
330
70
100
AcDbEntity
  8
A-WALL
370
    40
100
AcDbLine
 10
596.3490937325808
 20
858.3358431313559
 30
0.0
 11
492.1726992363487
 21
858.3358431313559
 31
0.0
1001
REVIT
1002
{
1070
     1
1000
5143713
1002
}
1002
{
1070
     5
1000
5142885
1002
}
1002
{
1070
     2
1000
-2000011
1002
}
  0
LINE
  5
C5
330
70
100
AcDbEntity
  8
A-WALL
370
    40
100
AcDbLine
 10
612.3490937325808
 20
842.3358431313559
 30
0.0
 11
612.3490937325808
 21
858.3358431313559
 31
0.0
1001
REVIT
1002
{
1070
     1
1000
5143753
1002
}
1002
{
1070
     5
1000
5142885
1002
}
1002
{
1070
     2
1000
-2000011
1002
}
  0
LINE
  5
C7
330
70
100
AcDbEntity
  8
A-WALL
370
    40
100
AcDbLine
 10
596.3490937325808
 20
874.3358431313559
 30
0.0
 11
596.3490937325808
 21
858.3358431313559
 31
0.0
1001
REVIT
1002
{
1070
     1
1000
5143753
1002
}
1002
{
1070
     5
1000
5142885
1002
}
1002
{
1070
     2
1000
-2000011
1002
}
  0
LINE
  5
C9
330
70
100
AcDbEntity
  8
A-WALL
370
    40
100
AcDbLine
 10
612.3490937325808
 20
858.3358431313559
 30
0.0
 11
772.3490937325808
 21
858.3358431313559
 31
0.0
1001
REVIT
1002
{
1070
     1
1000
5143826
1002
}
1002
{
1070
     5
1000
5142885
1002
}
1002
{
1070
     2
1000
-2000011
1002
}
  0
LINE
  5
CD
330
70
100
AcDbEntity
  8
A-WALL
370
    40
100
AcDbLine
 10
942.1726992363486
 20
858.3358431313566
 30
0.0
 11
788.3490937325807
 21
858.3358431313566
 31
0.0
1001
REVIT
1002
{
1070
     1
1000
5143933
1002
}
1002
{
1070
     5
1000
5142885
1002
}
1002
{
1070
     2
1000
-2000011
1002
}
  0
LINE
  5
CE
330
70
100
AcDbEntity
  8
A-WALL
370
    40
100
AcDbLine
 10
926.1726992363488
 20
842.3358431313566
 30
0.0
 11
926.1726992363485
 21
748.3358431313574
 31
0.0
1001
REVIT
1002
{
1070
     1
1000
5143999
1002
}
1002
{
1070
     5
1000
5142885
1002
}
1002
{
1070
     2
1000
-2000011
1002
}
  0
LINE
  5
D0
330
70
100
AcDbEntity
  8
A-WALL
370
    40
100
AcDbLine
 10
942.1726992363485
 20
764.3358431313575
 30
0.0
 11
942.1726992363486
 21
858.3358431313566
 31
0.0
1001
REVIT
1002
{
1070
     1
1000
5143999
1002
}
1002
{
1070
     5
1000
5142885
1002
}
1002
{
1070
     2
1000
-2000011
1002
}
  0
LINE
  5
D1
330
70
100
AcDbEntity
  8
A-WALL
370
    40
100
AcDbLine
 10
926.1726992363485
 20
748.3358431313574
 30
0.0
 11
1047.17269923635
 21
748.3358431313575
 31
0.0
1001
REVIT
1002
{
1070
     1
1000
5144045
1002
}
1002
{
1070
     5
1000
5142885
1002
}
1002
{
1070
     2
1000
-2000011
1002
}
  0
LINE
  5
D2
330
70
100
AcDbEntity
  8
A-WALL
370
    40
100
AcDbLine
 10
1063.17269923635
 20
764.3358431313576
 30
0.0
 11
942.1726992363485
 21
764.3358431313575
 31
0.0
1001
REVIT
1002
{
1070
     1
1000
5144045
1002
}
1002
{
1070
     5
1000
5142885
1002
}
1002
{
1070
     2
1000
-2000011
1002
}
  0
LINE
  5
D3
330
70
100
AcDbEntity
  8
A-WALL
370
    40
100
AcDbLine
 10
596.3490937325805
 20
60.33584313135597
 30
0.0
 11
596.3490937325803
 21
44.33584313135543
 31
0.0
1001
REVIT
1002
{
1070
     1
1000
5144328
1002
}
1002
{
1070
     5
1000
5142885
1002
}
1002
{
1070
     2
1000
-2000011
1002
}
  0
LINE
  5
D5
330
70
100
AcDbEntity
  8
A-WALL
370
    40
100
AcDbLine
 10
612.3490937325803
 20
60.33584313135546
 30
0.0
 11
612.3490937325803
 21
76.33584313135597
 31
0.0
1001
REVIT
1002
{
1070
     1
1000
5144328
1002
}
1002
{
1070
     5
1000
5142885
1002
}
1002
{
1070
     2
1000
-2000011
1002
}
  0
LINE
  5
D7
330
70
100
AcDbEntity
  8
A-WALL
370
    40
100
AcDbLine
 10
376.1726992363487
 20
548.3358431313564
 30
0.0
 11
343.172699236349
 21
548.3358431313564
 31
0.0
1001
REVIT
1002
{
1070
     1
1000
5144911
1002
}
1002
{
1070
     5
1000
5142885
1002
}
1002
{
1070
     2
1000
-2000011
1002
}
  0
LINE
  5
D9
330
70
100
AcDbEntity
  8
A-WALL
370
    40
100
AcDbLine
 10
359.172699236349
 20
532.3358431313564
 30
0.0
 11
392.1726992363487
 21
532.3358431313566
 31
0.0
1001
REVIT
1002
{
1070
     1
1000
5144911
1002
}
1002
{
1070
     5
1000
5142885
1002
}
1002
{
1070
     2
1000
-2000011
1002
}
  0
LINE
  5
DA
330
70
100
AcDbEntity
  8
A-WALL
370
    40
100
AcDbLine
 10
392.1726992363487
 20
532.3358431313566
 30
0.0
 11
392.1726992363487
 21
533.3358431313564
 31
0.0
1001
REVIT
1002
{
1070
     1
1000
5144911
1002
}
1002
{
1070
     5
1000
5142885
1002
}
1002
{
1070
     2
1000
-2000011
1002
}
  0
LINE
  5
DC
330
70
100
AcDbEntity
  8
A-WALL
370
    40
100
AcDbLine
 10
772.3490937325808
 20
858.3358431313559
 30
0.0
 11
772.3490937325808
 21
842.3358431313566
 31
0.0
1001
REVIT
1002
{
1070
     1
1000
5145268
1002
}
1002
{
1070
     5
1000
5142885
1002
}
1002
{
1070
     2
1000
-2000011
1002
}
  0
LINE
  5
DD
330
70
100
AcDbEntity
  8
A-WALL
370
    40
100
AcDbLine
 10
772.3490937325808
 20
842.3358431313566
 30
0.0
 11
926.1726992363488
 21
842.3358431313566
 31
0.0
1001
REVIT
1002
{
1070
     1
1000
5145268
1002
}
1002
{
1070
     5
1000
5142885
1002
}
1002
{
1070
     2
1000
-2000011
1002
}
  0
LINE
  5
DE
330
70
100
AcDbEntity
  8
A-WALL
370
    40
100
AcDbLine
 10
788.3490937325807
 20
858.3358431313566
 30
0.0
 11
788.3490937325807
 21
874.3358431313559
 31
0.0
1001
REVIT
1002
{
1070
     1
1000
5145268
1002
}
1002
{
1070
     5
1000
5142885
1002
}
1002
{
1070
     2
1000
-2000011
1002
}
  0
LINE
  5
E1
330
70
100
AcDbEntity
  8
A-WALL
370
    40
100
AcDbLine
 10
788.3490937325807
 20
874.3358431313559
 30
0.0
 11
596.3490937325808
 21
874.3358431313559
 31
0.0
1001
REVIT
1002
{
1070
     1
1000
5155873
1002
}
1002
{
1070
     5
1000
5142885
1002
}
1002
{
1070
     2
1000
-2000011
1002
}
  0
LINE
  5
E4
330
70
100
AcDbEntity
  8
I-WALL
370
    40
100
AcDbLine
 10
508.1726992363484
 20
406.3358431313559
 30
0.0
 11
508.1726992363484
 21
435.3358431313568
 31
0.0
1001
REVIT
1002
{
1070
     1
1000
5163186
1002
}
1002
{
1070
     5
1000
639165
1002
}
1002
{
1070
     2
1000
-2000011
1002
}
  0
LINE
  5
E5
330
70
100
AcDbEntity
  8
I-WALL
370
    40
100
AcDbLine
 10
508.1726992363484
 20
435.3358431313568
 30
0.0
 11
503.1726992363484
 21
435.3358431313568
 31
0.0
1001
REVIT
1002
{
1070
     1
1000
5163186
1002
}
1002
{
1070
     5
1000
639165
1002
}
1002
{
1070
     2
1000
-2000011
1002
}
  0
LINE
  5
E6
330
70
100
AcDbEntity
  8
I-WALL
370
    40
100
AcDbLine
 10
503.1726992363484
 20
435.3358431313568
 30
0.0
 11
503.1726992363484
 21
406.3358431313559
 31
0.0
1001
REVIT
1002
{
1070
     1
1000
5163186
1002
}
1002
{
1070
     5
1000
639165
1002
}
1002
{
1070
     2
1000
-2000011
1002
}
  0
LINE
  5
E7
330
70
100
AcDbEntity
  8
I-WALL
370
    40
100
AcDbLine
 10
508.1726992363485
 20
487.3358431313568
 30
0.0
 11
508.1726992363485
 21
538.3358431313564
 31
0.0
1001
REVIT
1002
{
1070
     1
1000
5163186
1002
}
1002
{
1070
     5
1000
639165
1002
}
1002
{
1070
     2
1000
-2000011
1002
}
  0
LINE
  5
E9
330
70
100
AcDbEntity
  8
I-WALL
370
    40
100
AcDbLine
 10
503.1726992363485
 20
533.3358431313564
 30
0.0
 11
503.1726992363485
 21
487.3358431313568
 31
0.0
1001
REVIT
1002
{
1070
     1
1000
5163186
1002
}
1002
{
1070
     5
1000
639165
1002
}
1002
{
1070
     2
1000
-2000011
1002
}
  0
LINE
  5
EA
330
70
100
AcDbEntity
  8
I-WALL
370
    40
100
AcDbLine
 10
503.1726992363485
 20
487.3358431313568
 30
0.0
 11
508.1726992363485
 21
487.3358431313568
 31
0.0
1001
REVIT
1002
{
1070
     1
1000
5163186
1002
}
1002
{
1070
     5
1000
639165
1002
}
1002
{
1070
     2
1000
-2000011
1002
}
  0
LINE
  5
EB
330
70
100
AcDbEntity
  8
I-WALL
370
    40
100
AcDbLine
 10
508.1726992363485
 20
538.3358431313564
 30
0.0
 11
392.1726992363487
 21
538.3358431313563
 31
0.0
1001
REVIT
1002
{
1070
     1
1000
5163189
1002
}
1002
{
1070
     5
1000
639165
1002
}
1002
{
1070
     2
1000
-2000011
1002
}
  0
LINE
  5
EC
330
70
100
AcDbEntity
  8
I-WALL
370
    40
100
AcDbLine
 10
392.1726992363487
 20
533.3358431313564
 30
0.0
 11
503.1726992363485
 21
533.3358431313564
 31
0.0
1001
REVIT
1002
{
1070
     1
1000
5163189
1002
}
1002
{
1070
     5
1000
639165
1002
}
1002
{
1070
     2
1000
-2000011
1002
}
  0
LINE
  5
ED
330
70
100
AcDbEntity
  8
A-WALL
370
    40
100
AcDbLine
 10
393.1726992363492
 20
360.3358431313565
 30
0.0
 11
501.1726992363485
 21
360.3358431313565
 31
0.0
1001
REVIT
1002
{
1070
     1
1000
5163190
1002
}
1002
{
1070
     5
1000
639164
1002
}
1002
{
1070
     2
1000
-2000011
1002
}
  0
LINE
  5
EE
330
70
100
AcDbEntity
  8
A-WALL
370
    40
100
AcDbLine
 10
501.1726992363485
 20
372.3358431313565
 30
0.0
 11
482.1726992363486
 21
372.3358431313565
 31
0.0
1001
REVIT
1002
{
1070
     1
1000
5163190
1002
}
1002
{
1070
     5
1000
639164
1002
}
1002
{
1070
     2
1000
-2000011
1002
}
  0
LINE
  5
EF
330
70
100
AcDbEntity
  8
A-WALL
370
    40
100
AcDbLine
 10
477.1726992363486
 20
372.3358431313565
 30
0.0
 11
359.1726992363486
 21
372.3358431313566
 31
0.0
1001
REVIT
1002
{
1070
     1
1000
5163190
1002
}
1002
{
1070
     5
1000
639164
1002
}
1002
{
1070
     2
1000
-2000011
1002
}
  0
LINE
  5
F0
330
70
100
AcDbEntity
  8
A-WALL
370
    40
100
AcDbLine
 10
501.1726992363485
 20
406.3358431313559
 30
0.0
 11
501.1726992363485
 21
395.3358431313557
 31
0.0
1001
REVIT
1002
{
1070
     1
1000
5163191
1002
}
1002
{
1070
     5
1000
639164
1002
}
1002
{
1070
     2
1000
-2000011
1002
}
  0
LINE
  5
F1
330
70
100
AcDbEntity
  8
A-WALL
370
    40
100
AcDbLine
 10
501.1726992363485
 20
390.3358431313558
 30
0.0
 11
501.1726992363485
 21
372.3358431313565
 31
0.0
1001
REVIT
1002
{
1070
     1
1000
5163191
1002
}
1002
{
1070
     5
1000
639164
1002
}
1002
{
1070
     2
1000
-2000011
1002
}
  0
LINE
  5
F2
330
70
100
AcDbEntity
  8
A-WALL
370
    40
100
AcDbLine
 10
501.1726992363486
 20
360.3358431313566
 30
0.0
 11
501.172699236349
 21
156.3358431313565
 31
0.0
1001
REVIT
1002
{
1070
     1
1000
5163191
1002
}
1002
{
1070
     5
1000
639164
1002
}
1002
{
1070
     2
1000
-2000011
1002
}
  0
LINE
  5
F3
330
70
100
AcDbEntity
  8
A-WALL
370
    40
100
AcDbLine
 10
513.1726992363492
 20
76.33584313135596
 30
0.0
 11
513.1726992363485
 21
406.3358431313559
 31
0.0
1001
REVIT
1002
{
1070
     1
1000
5163191
1002
}
1002
{
1070
     5
1000
639164
1002
}
1002
{
1070
     2
1000
-2000011
1002
}
  0
LINE
  5
F4
330
70
100
AcDbEntity
  8
A-WALL
370
    40
100
AcDbLine
 10
513.1726992363485
 20
406.3358431313559
 30
0.0
 11
508.1726992363484
 21
406.3358431313559
 31
0.0
1001
REVIT
1002
{
1070
     1
1000
5163191
1002
}
1002
{
1070
     5
1000
639164
1002
}
1002
{
1070
     2
1000
-2000011
1002
}
  0
LINE
  5
F5
330
70
100
AcDbEntity
  8
A-WALL
370
    40
100
AcDbLine
 10
503.1726992363484
 20
406.3358431313559
 30
0.0
 11
501.1726992363485
 21
406.3358431313559
 31
0.0
1001
REVIT
1002
{
1070
     1
1000
5163191
1002
}
1002
{
1070
     5
1000
639164
1002
}
1002
{
1070
     2
1000
-2000011
1002
}
  0
LINE
  5
F6
330
70
100
AcDbEntity
  8
I-WALL
370
    40
100
AcDbLine
 10
501.1726992363485
 20
395.3358431313557
 30
0.0
 11
477.1726992363485
 21
395.3358431313557
 31
0.0
1001
REVIT
1002
{
1070
     1
1000
5163192
1002
}
1002
{
1070
     5
1000
639165
1002
}
1002
{
1070
     2
1000
-2000011
1002
}
  0
LINE
  5
F8
330
70
100
AcDbEntity
  8
I-WALL
370
    40
100
AcDbLine
 10
482.1726992363485
 20
390.3358431313558
 30
0.0
 11
501.1726992363485
 21
390.3358431313558
 31
0.0
1001
REVIT
1002
{
1070
     1
1000
5163192
1002
}
1002
{
1070
     5
1000
639165
1002
}
1002
{
1070
     2
1000
-2000011
1002
}
  0
LINE
  5
F9
330
70
100
AcDbEntity
  8
I-WALL
370
    40
100
AcDbLine
 10
477.1726992363485
 20
395.3358431313557
 30
0.0
 11
477.1726992363485
 21
372.3358431313565
 31
0.0
1001
REVIT
1002
{
1070
     1
1000
5163193
1002
}
1002
{
1070
     5
1000
639165
1002
}
1002
{
1070
     2
1000
-2000011
1002
}
  0
LINE
  5
FA
330
70
100
AcDbEntity
  8
I-WALL
370
    40
100
AcDbLine
 10
482.1726992363485
 20
372.3358431313565
 30
0.0
 11
482.1726992363485
 21
390.3358431313558
 31
0.0
1001
REVIT
1002
{
1070
     1
1000
5163193
1002
}
1002
{
1070
     5
1000
639165
1002
}
1002
{
1070
     2
1000
-2000011
1002
}
  0
LINE
  5
FB
330
70
100
AcDbEntity
  8
S-STRS
100
AcDbLine
 10
497.1726992363485
 20
319.8393942461347
 30
0.0
 11
495.1726992363484
 21
319.8393942461347
 31
0.0
1001
REVIT
1002
{
1070
     1
1000
5170671
1002
}
1002
{
1070
     5
1000
44989
1002
}
1002
{
1070
     2
1000
-2000120
1002
}
1002
{
1070
     3
1000
-2000952
1002
}
  0
LINE
  5
FC
330
70
100
AcDbEntity
  8
S-STRS
100
AcDbLine
 10
497.172699236348
 20
201.1520845748695
 30
0.0
 11
497.1726992363485
 21
319.8393942461347
 31
0.0
1001
REVIT
1002
{
1070
     1
1000
5170671
1002
}
1002
{
1070
     5
1000
44989
1002
}
1002
{
1070
     2
1000
-2000120
1002
}
1002
{
1070
     3
1000
-2000952
1002
}
  0
LINE
  5
FD
330
70
100
AcDbEntity
  8
S-STRS
100
AcDbLine
 10
459.1726992363485
 20
319.8393942461348
 30
0.0
 11
457.1726992363485
 21
319.8393942461348
 31
0.0
1001
REVIT
1002
{
1070
     1
1000
5170671
1002
}
1002
{
1070
     5
1000
44989
1002
}
1002
{
1070
     2
1000
-2000120
1002
}
1002
{
1070
     3
1000
-2000952
1002
}
  0
LINE
  5
FE
330
70
100
AcDbEntity
  8
S-STRS
100
AcDbLine
 10
457.1726992363481
 20
211.8393942461349
 30
0.0
 11
457.1726992363485
 21
319.8393942461348
 31
0.0
1001
REVIT
1002
{
1070
     1
1000
5170671
1002
}
1002
{
1070
     5
1000
44989
1002
}
1002
{
1070
     2
1000
-2000120
1002
}
1002
{
1070
     3
1000
-2000952
1002
}
  0
LINE
  5
FF
330
70
100
AcDbEntity
  8
S-STRS
100
AcDbLine
 10
497.1726992363477
 20
171.8393942461347
 30
0.0
 11
497.1726992363479
 21
201.1520845748695
 31
0.0
1001
REVIT
1002
{
1070
     1
1000
5170671
1002
}
1002
{
1070
     5
1000
44989
1002
}
1002
{
1070
     2
1000
-2000120
1002
}
1002
{
1070
     3
1000
-2000952
1002
}
  0
LINE
  5
100
330
70
100
AcDbEntity
  8
S-STRS
100
AcDbLine
 10
393.1726992363486
 20
171.8393942461352
 30
0.0
 11
497.1726992363477
 21
171.8393942461347
 31
0.0
1001
REVIT
1002
{
1070
     1
1000
5170671
1002
}
1002
{
1070
     5
1000
44989
1002
}
1002
{
1070
     2
1000
-2000120
1002
}
1002
{
1070
     3
1000
-2000952
1002
}
  0
LINE
  5
101
330
70
100
AcDbEntity
  8
S-STRS
100
AcDbLine
 10
457.1726992363482
 20
211.8393942461349
 30
0.0
 11
433.1726992363485
 21
211.839394246135
 31
0.0
1001
REVIT
1002
{
1070
     1
1000
5170671
1002
}
1002
{
1070
     5
1000
44989
1002
}
1002
{
1070
     2
1000
-2000120
1002
}
1002
{
1070
     3
1000
-2000952
1002
}
  0
LINE
  5
102
330
70
100
AcDbEntity
  8
S-STRS
100
AcDbLine
 10
395.1726992363487
 20
308.839394246135
 30
0.0
 11
393.1726992363488
 21
308.839394246135
 31
0.0
1001
REVIT
1002
{
1070
     1
1000
5170671
1002
}
1002
{
1070
     5
1000
44989
1002
}
1002
{
1070
     2
1000
-2000120
1002
}
1002
{
1070
     3
1000
-2000952
1002
}
  0
LINE
  5
103
330
70
100
AcDbEntity
  8
S-STRS
100
AcDbLine
 10
433.1726992363487
 20
308.8393942461349
 30
0.0
 11
431.1726992363487
 21
308.8393942461349
 31
0.0
1001
REVIT
1002
{
1070
     1
1000
5170671
1002
}
1002
{
1070
     5
1000
44989
1002
}
1002
{
1070
     2
1000
-2000120
1002
}
1002
{
1070
     3
1000
-2000952
1002
}
  0
LINE
  5
104
330
70
100
AcDbEntity
  8
S-STRS
100
AcDbLine
 10
433.1726992363487
 20
308.8393942461349
 30
0.0
 11
433.1726992363485
 21
211.839394246135
 31
0.0
1001
REVIT
1002
{
1070
     1
1000
5170671
1002
}
1002
{
1070
     5
1000
44989
1002
}
1002
{
1070
     2
1000
-2000120
1002
}
1002
{
1070
     3
1000
-2000952
1002
}
  0
LINE
  5
105
330
70
100
AcDbEntity
  8
S-STRS
100
AcDbLine
 10
461.1726992363485
 20
319.8393942461349
 30
0.0
 11
493.1726992363485
 21
319.8393942461346
 31
0.0
1001
REVIT
1002
{
1070
     1
1000
5170671
1002
}
1002
{
1070
     5
1000
44989
1002
}
1002
{
1070
     2
1000
-2000120
1002
}
1002
{
1070
     3
1000
-2000934
1002
}
  0
LINE
  5
106
330
70
100
AcDbEntity
  8
S-STRS
100
AcDbLine
 10
461.1726992363481
 20
209.8393942461348
 30
0.0
 11
493.172699236348
 21
209.8393942461348
 31
0.0
1001
REVIT
1002
{
1070
     1
1000
5170671
1002
}
1002
{
1070
     5
1000
44989
1002
}
1002
{
1070
     2
1000
-2000120
1002
}
1002
{
1070
     3
1000
-2000934
1002
}
  0
LINE
  5
107
330
70
100
AcDbEntity
  8
S-STRS
100
AcDbLine
 10
429.1726992363485
 20
209.839394246135
 30
0.0
 11
397.1726992363486
 21
209.839394246135
 31
0.0
1001
REVIT
1002
{
1070
     1
1000
5170671
1002
}
1002
{
1070
     5
1000
44989
1002
}
1002
{
1070
     2
1000
-2000120
1002
}
1002
{
1070
     3
1000
-2000934
1002
}
  0
LINE
  5
108
330
70
100
AcDbEntity
  8
S-STRS
100
AcDbLine
 10
429.1726992363487
 20
308.8393942461349
 30
0.0
 11
397.1726992363488
 21
308.8393942461349
 31
0.0
1001
REVIT
1002
{
1070
     1
1000
5170671
1002
}
1002
{
1070
     5
1000
44989
1002
}
1002
{
1070
     2
1000
-2000120
1002
}
1002
{
1070
     3
1000
-2000934
1002
}
  0
LINE
  5
109
330
70
100
AcDbEntity
  8
S-STRS
100
AcDbLine
 10
461.1726992363485
 20
308.8393942461348
 30
0.0
 11
493.1726992363484
 21
308.8393942461348
 31
0.0
1001
REVIT
1002
{
1070
     1
1000
5170671
1002
}
1002
{
1070
     5
1000
44989
1002
}
1002
{
1070
     2
1000
-2000120
1002
}
1002
{
1070
     3
1000
-2000932
1002
}
  0
LINE
  5
10A
330
70
100
AcDbEntity
  8
S-STRS
100
AcDbLine
 10
461.1726992363484
 20
297.8393942461348
 30
0.0
 11
493.1726992363484
 21
297.8393942461348
 31
0.0
1001
REVIT
1002
{
1070
     1
1000
5170671
1002
}
1002
{
1070
     5
1000
44989
1002
}
1002
{
1070
     2
1000
-2000120
1002
}
1002
{
1070
     3
1000
-2000932
1002
}
  0
LINE
  5
10B
330
70
100
AcDbEntity
  8
S-STRS
100
AcDbLine
 10
461.1726992363484
 20
286.8393942461349
 30
0.0
 11
493.1726992363484
 21
286.8393942461347
 31
0.0
1001
REVIT
1002
{
1070
     1
1000
5170671
1002
}
1002
{
1070
     5
1000
44989
1002
}
1002
{
1070
     2
1000
-2000120
1002
}
1002
{
1070
     3
1000
-2000932
1002
}
  0
LINE
  5
10C
330
70
100
AcDbEntity
  8
S-STRS
100
AcDbLine
 10
461.1726992363483
 20
275.8393942461347
 30
0.0
 11
493.1726992363482
 21
275.8393942461347
 31
0.0
1001
REVIT
1002
{
1070
     1
1000
5170671
1002
}
1002
{
1070
     5
1000
44989
1002
}
1002
{
1070
     2
1000
-2000120
1002
}
1002
{
1070
     3
1000
-2000932
1002
}
  0
LINE
  5
10D
330
70
100
AcDbEntity
  8
S-STRS
100
AcDbLine
 10
461.1726992363483
 20
264.8393942461349
 30
0.0
 11
493.1726992363482
 21
264.8393942461346
 31
0.0
1001
REVIT
1002
{
1070
     1
1000
5170671
1002
}
1002
{
1070
     5
1000
44989
1002
}
1002
{
1070
     2
1000
-2000120
1002
}
1002
{
1070
     3
1000
-2000932
1002
}
  0
LINE
  5
10E
330
70
100
AcDbEntity
  8
S-STRS
100
AcDbLine
 10
461.1726992363482
 20
253.8393942461348
 30
0.0
 11
493.1726992363482
 21
253.8393942461348
 31
0.0
1001
REVIT
1002
{
1070
     1
1000
5170671
1002
}
1002
{
1070
     5
1000
44989
1002
}
1002
{
1070
     2
1000
-2000120
1002
}
1002
{
1070
     3
1000
-2000932
1002
}
  0
LINE
  5
10F
330
70
100
AcDbEntity
  8
S-STRS
100
AcDbLine
 10
461.1726992363482
 20
242.8393942461349
 30
0.0
 11
493.1726992363482
 21
242.8393942461346
 31
0.0
1001
REVIT
1002
{
1070
     1
1000
5170671
1002
}
1002
{
1070
     5
1000
44989
1002
}
1002
{
1070
     2
1000
-2000120
1002
}
1002
{
1070
     3
1000
-2000932
1002
}
  0
LINE
  5
110
330
70
100
AcDbEntity
  8
S-STRS
100
AcDbLine
 10
461.1726992363482
 20
231.8393942461348
 30
0.0
 11
493.172699236348
 21
231.8393942461348
 31
0.0
1001
REVIT
1002
{
1070
     1
1000
5170671
1002
}
1002
{
1070
     5
1000
44989
1002
}
1002
{
1070
     2
1000
-2000120
1002
}
1002
{
1070
     3
1000
-2000932
1002
}
  0
LINE
  5
111
330
70
100
AcDbEntity
  8
S-STRS
100
AcDbLine
 10
461.1726992363482
 20
220.8393942461349
 30
0.0
 11
493.172699236348
 21
220.8393942461347
 31
0.0
1001
REVIT
1002
{
1070
     1
1000
5170671
1002
}
1002
{
1070
     5
1000
44989
1002
}
1002
{
1070
     2
1000
-2000120
1002
}
1002
{
1070
     3
1000
-2000932
1002
}
  0
LINE
  5
112
330
70
100
AcDbEntity
  8
S-STRS
100
AcDbLine
 10
429.1726992363485
 20
220.8393942461349
 30
0.0
 11
397.1726992363486
 21
220.8393942461349
 31
0.0
1001
REVIT
1002
{
1070
     1
1000
5170671
1002
}
1002
{
1070
     5
1000
44989
1002
}
1002
{
1070
     2
1000
-2000120
1002
}
1002
{
1070
     3
1000
-2000932
1002
}
  0
LINE
  5
113
330
70
100
AcDbEntity
  8
S-STRS
100
AcDbLine
 10
429.1726992363486
 20
231.8393942461348
 30
0.0
 11
397.1726992363487
 21
231.8393942461351
 31
0.0
1001
REVIT
1002
{
1070
     1
1000
5170671
1002
}
1002
{
1070
     5
1000
44989
1002
}
1002
{
1070
     2
1000
-2000120
1002
}
1002
{
1070
     3
1000
-2000932
1002
}
  0
LINE
  5
114
330
70
100
AcDbEntity
  8
S-STRS
100
AcDbLine
 10
429.1726992363486
 20
242.839394246135
 30
0.0
 11
397.1726992363487
 21
242.839394246135
 31
0.0
1001
REVIT
1002
{
1070
     1
1000
5170671
1002
}
1002
{
1070
     5
1000
44989
1002
}
1002
{
1070
     2
1000
-2000120
1002
}
1002
{
1070
     3
1000
-2000932
1002
}
  0
LINE
  5
115
330
70
100
AcDbEntity
  8
S-STRS
100
AcDbLine
 10
429.1726992363486
 20
253.8393942461349
 30
0.0
 11
397.1726992363487
 21
253.8393942461349
 31
0.0
1001
REVIT
1002
{
1070
     1
1000
5170671
1002
}
1002
{
1070
     5
1000
44989
1002
}
1002
{
1070
     2
1000
-2000120
1002
}
1002
{
1070
     3
1000
-2000932
1002
}
  0
LINE
  5
116
330
70
100
AcDbEntity
  8
S-STRS
100
AcDbLine
 10
429.1726992363486
 20
264.8393942461349
 30
0.0
 11
397.1726992363487
 21
264.8393942461349
 31
0.0
1001
REVIT
1002
{
1070
     1
1000
5170671
1002
}
1002
{
1070
     5
1000
44989
1002
}
1002
{
1070
     2
1000
-2000120
1002
}
1002
{
1070
     3
1000
-2000932
1002
}
  0
LINE
  5
117
330
70
100
AcDbEntity
  8
S-STRS
100
AcDbLine
 10
429.1726992363486
 20
275.8393942461349
 30
0.0
 11
397.1726992363487
 21
275.8393942461349
 31
0.0
1001
REVIT
1002
{
1070
     1
1000
5170671
1002
}
1002
{
1070
     5
1000
44989
1002
}
1002
{
1070
     2
1000
-2000120
1002
}
1002
{
1070
     3
1000
-2000932
1002
}
  0
LINE
  5
118
330
70
100
AcDbEntity
  8
S-STRS
100
AcDbLine
 10
429.1726992363486
 20
286.8393942461348
 30
0.0
 11
397.1726992363488
 21
286.8393942461351
 31
0.0
1001
REVIT
1002
{
1070
     1
1000
5170671
1002
}
1002
{
1070
     5
1000
44989
1002
}
1002
{
1070
     2
1000
-2000120
1002
}
1002
{
1070
     3
1000
-2000932
1002
}
  0
LINE
  5
119
330
70
100
AcDbEntity
  8
S-STRS
100
AcDbLine
 10
429.1726992363487
 20
297.839394246135
 30
0.0
 11
397.1726992363488
 21
297.839394246135
 31
0.0
1001
REVIT
1002
{
1070
     1
1000
5170671
1002
}
1002
{
1070
     5
1000
44989
1002
}
1002
{
1070
     2
1000
-2000120
1002
}
1002
{
1070
     3
1000
-2000932
1002
}
  0
INSERT
  5
129
330
70
100
AcDbEntity
  8
A-FLOR-HRAL
100
AcDbBlockReference
  2
Railing - Railing-5170913-LEVEL 3 Map Export
 10
0.0
 20
0.0
 30
0.0
1001
REVIT
1002
{
1070
     1
1000
5170912
1002
}
1002
{
1070
     5
1000
1969
1002
}
1002
{
1070
     2
1000
-2000126
1002
}
1002
{
1070
     3
1000
-2000128
1002
}
  0
INSERT
  5
136
330
70
100
AcDbEntity
  8
A-FLOR-HRAL
100
AcDbBlockReference
  2
Railing - Railing-5170917-LEVEL 3 Map Export
 10
0.0
 20
0.0
 30
0.0
1001
REVIT
1002
{
1070
     1
1000
5170916
1002
}
1002
{
1070
     5
1000
1969
1002
}
1002
{
1070
     2
1000
-2000126
1002
}
1002
{
1070
     3
1000
-2000128
1002
}
  0
INSERT
  5
13E
330
70
100
AcDbEntity
  8
A-GLAZ-CURT
100
AcDbBlockReference
  2
System Panel - zGlazed-5171080-LEVEL 3 Map Export
 10
505.6726992363484
 20
461.3358431313568
 30
0.0
 50
270.0000000000001
1001
REVIT
1002
{
1070
     1
1000
5171072
1002
}
1002
{
1070
     5
1000
645966
1002
}
1002
{
1070
     2
1000
-2000170
1002
}
  0
INSERT
  5
144
330
70
100
AcDbEntity
  8
A-GLAZ-CWMG
100
AcDbBlockReference
  2
Rectangular Mullion - 4 1_2_ x 2_ Rectangular_CE_-5171079-LEVEL 3 Map Export
 10
0.0
 20
0.0
 30
0.0
1001
REVIT
1002
{
1070
     1
1000
5171075
1002
}
1002
{
1070
     5
1000
646104
1002
}
1002
{
1070
     2
1000
-2000171
1002
}
  0
INSERT
  5
14C
330
70
100
AcDbEntity
  8
A-GLAZ-CWMG
100
AcDbBlockReference
  2
Rectangular Mullion - 4 1_2_ x 2_ Rectangular_CE_-5171081-LEVEL 3 Map Export
 10
-505.6726992363484
 20
435.3358431313568
 30
0.0
 50
269.9999999999999
210
0.0
220
0.0
230
-1.0
1001
REVIT
1002
{
1070
     1
1000
5171076
1002
}
1002
{
1070
     5
1000
646104
1002
}
1002
{
1070
     2
1000
-2000171
1002
}
  0
INSERT
  5
154
330
70
100
AcDbEntity
  8
A-GLAZ-CWMG
100
AcDbBlockReference
  2
Rectangular Mullion - 4 1_2_ x 2_ Rectangular_CE_-5171082-LEVEL 3 Map Export
 10
505.6726992363484
 20
487.3358431313568
 30
0.0
 50
90.0000000000001
1001
REVIT
1002
{
1070
     1
1000
5171077
1002
}
1002
{
1070
     5
1000
646104
1002
}
1002
{
1070
     2
1000
-2000171
1002
}
  0
INSERT
  5
15C
330
70
100
AcDbEntity
  8
A-GLAZ-CURT
100
AcDbBlockReference
  2
System Panel - zGlazed-5173075-LEVEL 3 Map Export
 10
351.1726992363484
 20
431.8393942461348
 30
0.0
 50
89.99999999999992
1001
REVIT
1002
{
1070
     1
1000
5174778
1002
}
1002
{
1070
     5
1000
645966
1002
}
1002
{
1070
     2
1000
-2000170
1002
}
  0
INSERT
  5
162
330
70
100
AcDbEntity
  8
A-GLAZ-CWMG
100
AcDbBlockReference
  2
Rectangular Mullion - 6_ x 2_ Rectangular_CE_-5173074-LEVEL 3 Map Export
 10
0.0
 20
0.0
 30
0.0
1001
REVIT
1002
{
1070
     1
1000
5174780
1002
}
1002
{
1070
     5
1000
646107
1002
}
1002
{
1070
     2
1000
-2000171
1002
}
  0
INSERT
  5
16A
330
70
100
AcDbEntity
  8
A-GLAZ-CWMG
100
AcDbBlockReference
  2
Rectangular Mullion - 6_ x 2_ Rectangular_CE_-5173056-LEVEL 3 Map Export
 10
-351.1726992363485
 20
447.8393942461348
 30
0.0
 50
90.00000000000007
210
0.0
220
0.0
230
-1.0
1001
REVIT
1002
{
1070
     1
1000
5174781
1002
}
1002
{
1070
     5
1000
646107
1002
}
1002
{
1070
     2
1000
-2000171
1002
}
  0
INSERT
  5
172
330
70
100
AcDbEntity
  8
A-GLAZ-CWMG
100
AcDbBlockReference
  2
Rectangular Mullion - 6_ x 2_ Rectangular_CE_-5173057-LEVEL 3 Map Export
 10
351.1726992363484
 20
415.8393942461348
 30
0.0
 50
269.9999999999999
1001
REVIT
1002
{
1070
     1
1000
5174782
1002
}
1002
{
1070
     5
1000
646107
1002
}
1002
{
1070
     2
1000
-2000171
1002
}
  0
INSERT
  5
173
330
70
100
AcDbEntity
  8
A-GLAZ-CURT
100
AcDbBlockReference
  2
System Panel - zGlazed-5173075-LEVEL 3 Map Export
 10
351.1726992363485
 20
474.3358431313566
 30
0.0
 50
89.99999999999992
1001
REVIT
1002
{
1070
     1
1000
5174784
1002
}
1002
{
1070
     5
1000
645966
1002
}
1002
{
1070
     2
1000
-2000170
1002
}
  0
INSERT
  5
174
330
70
100
AcDbEntity
  8
A-GLAZ-CWMG
100
AcDbBlockReference
  2
Rectangular Mullion - 6_ x 2_ Rectangular_CE_-5173074-LEVEL 3 Map Export
 10
0.0
 20
42.49644888522186
 30
0.0
1001
REVIT
1002
{
1070
     1
1000
5174786
1002
}
1002
{
1070
     5
1000
646107
1002
}
1002
{
1070
     2
1000
-2000171
1002
}
  0
INSERT
  5
175
330
70
100
AcDbEntity
  8
A-GLAZ-CWMG
100
AcDbBlockReference
  2
Rectangular Mullion - 6_ x 2_ Rectangular_CE_-5173056-LEVEL 3 Map Export
 10
-351.1726992363485
 20
490.3358431313567
 30
0.0
 50
90.00000000000007
210
0.0
220
0.0
230
-1.0
1001
REVIT
1002
{
1070
     1
1000
5174787
1002
}
1002
{
1070
     5
1000
646107
1002
}
1002
{
1070
     2
1000
-2000171
1002
}
  0
INSERT
  5
176
330
70
100
AcDbEntity
  8
A-GLAZ-CWMG
100
AcDbBlockReference
  2
Rectangular Mullion - 6_ x 2_ Rectangular_CE_-5173057-LEVEL 3 Map Export
 10
351.1726992363485
 20
458.3358431313566
 30
0.0
 50
269.9999999999999
1001
REVIT
1002
{
1070
     1
1000
5174788
1002
}
1002
{
1070
     5
1000
646107
1002
}
1002
{
1070
     2
1000
-2000171
1002
}
  0
LINE
  5
177
330
70
100
AcDbEntity
  8
S-STRS
100
AcDbLine
 10
1047.172699236349
 20
324.3358431313569
 30
0.0
 11
1045.172699236349
 21
324.3358431313569
 31
0.0
1001
REVIT
1002
{
1070
     1
1000
5174978
1002
}
1002
{
1070
     5
1000
44989
1002
}
1002
{
1070
     2
1000
-2000120
1002
}
1002
{
1070
     3
1000
-2000952
1002
}
  0
LINE
  5
178
330
70
100
AcDbEntity
  8
S-STRS
100
AcDbLine
 10
1009.172699236349
 20
324.3358431313569
 30
0.0
 11
1007.172699236349
 21
324.3358431313569
 31
0.0
1001
REVIT
1002
{
1070
     1
1000
5174978
1002
}
1002
{
1070
     5
1000
44989
1002
}
1002
{
1070
     2
1000
-2000120
1002
}
1002
{
1070
     3
1000
-2000952
1002
}
  0
LINE
  5
179
330
70
100
AcDbEntity
  8
S-STRS
100
AcDbLine
 10
1007.172699236349
 20
205.3358431313569
 30
0.0
 11
1007.172699236349
 21
324.3358431313569
 31
0.0
1001
REVIT
1002
{
1070
     1
1000
5174978
1002
}
1002
{
1070
     5
1000
44989
1002
}
1002
{
1070
     2
1000
-2000120
1002
}
1002
{
1070
     3
1000
-2000952
1002
}
  0
LINE
  5
17A
330
70
100
AcDbEntity
  8
S-STRS
100
AcDbLine
 10
938.1726992363491
 20
165.3358431313567
 30
0.0
 11
1047.172699236349
 21
165.3358431313569
 31
0.0
1001
REVIT
1002
{
1070
     1
1000
5174978
1002
}
1002
{
1070
     5
1000
44989
1002
}
1002
{
1070
     2
1000
-2000120
1002
}
1002
{
1070
     3
1000
-2000952
1002
}
  0
LINE
  5
17B
330
70
100
AcDbEntity
  8
S-STRS
100
AcDbLine
 10
938.1726992363491
 20
203.023152802621
 30
0.0
 11
938.1726992363491
 21
165.3358431313567
 31
0.0
1001
REVIT
1002
{
1070
     1
1000
5174978
1002
}
1002
{
1070
     5
1000
44989
1002
}
1002
{
1070
     2
1000
-2000120
1002
}
1002
{
1070
     3
1000
-2000952
1002
}
  0
LINE
  5
17C
330
70
100
AcDbEntity
  8
S-STRS
100
AcDbLine
 10
1007.172699236349
 20
205.3358431313569
 30
0.0
 11
978.1726992363491
 21
205.3358431313569
 31
0.0
1001
REVIT
1002
{
1070
     1
1000
5174978
1002
}
1002
{
1070
     5
1000
44989
1002
}
1002
{
1070
     2
1000
-2000120
1002
}
1002
{
1070
     3
1000
-2000952
1002
}
  0
LINE
  5
17D
330
70
100
AcDbEntity
  8
S-STRS
100
AcDbLine
 10
940.1726992363492
 20
293.3358431313559
 30
0.0
 11
938.1726992363493
 21
293.3358431313559
 31
0.0
1001
REVIT
1002
{
1070
     1
1000
5174978
1002
}
1002
{
1070
     5
1000
44989
1002
}
1002
{
1070
     2
1000
-2000120
1002
}
1002
{
1070
     3
1000
-2000952
1002
}
  0
LINE
  5
17E
330
70
100
AcDbEntity
  8
S-STRS
100
AcDbLine
 10
938.1726992363493
 20
293.3358431313559
 30
0.0
 11
938.1726992363491
 21
203.023152802621
 31
0.0
1001
REVIT
1002
{
1070
     1
1000
5174978
1002
}
1002
{
1070
     5
1000
44989
1002
}
1002
{
1070
     2
1000
-2000120
1002
}
1002
{
1070
     3
1000
-2000952
1002
}
  0
LINE
  5
17F
330
70
100
AcDbEntity
  8
S-STRS
100
AcDbLine
 10
978.1726992363493
 20
293.3358431313558
 30
0.0
 11
976.1726992363493
 21
293.3358431313558
 31
0.0
1001
REVIT
1002
{
1070
     1
1000
5174978
1002
}
1002
{
1070
     5
1000
44989
1002
}
1002
{
1070
     2
1000
-2000120
1002
}
1002
{
1070
     3
1000
-2000952
1002
}
  0
LINE
  5
180
330
70
100
AcDbEntity
  8
S-STRS
100
AcDbLine
 10
978.1726992363493
 20
293.3358431313558
 30
0.0
 11
978.1726992363491
 21
205.3358431313568
 31
0.0
1001
REVIT
1002
{
1070
     1
1000
5174978
1002
}
1002
{
1070
     5
1000
44989
1002
}
1002
{
1070
     2
1000
-2000120
1002
}
1002
{
1070
     3
1000
-2000952
1002
}
  0
LINE
  5
181
330
70
100
AcDbEntity
  8
S-STRS
100
AcDbLine
 10
1011.172699236349
 20
324.3358431313569
 30
0.0
 11
1043.172699236349
 21
324.3358431313569
 31
0.0
1001
REVIT
1002
{
1070
     1
1000
5174978
1002
}
1002
{
1070
     5
1000
44989
1002
}
1002
{
1070
     2
1000
-2000120
1002
}
1002
{
1070
     3
1000
-2000934
1002
}
  0
LINE
  5
182
330
70
100
AcDbEntity
  8
S-STRS
100
AcDbLine
 10
1011.172699236349
 20
203.3358431313569
 30
0.0
 11
1043.172699236349
 21
203.3358431313569
 31
0.0
1001
REVIT
1002
{
1070
     1
1000
5174978
1002
}
1002
{
1070
     5
1000
44989
1002
}
1002
{
1070
     2
1000
-2000120
1002
}
1002
{
1070
     3
1000
-2000934
1002
}
  0
LINE
  5
183
330
70
100
AcDbEntity
  8
S-STRS
100
AcDbLine
 10
974.1726992363492
 20
205.3358431313558
 30
0.0
 11
942.172699236349
 21
205.3358431313558
 31
0.0
1001
REVIT
1002
{
1070
     1
1000
5174978
1002
}
1002
{
1070
     5
1000
44989
1002
}
1002
{
1070
     2
1000
-2000120
1002
}
1002
{
1070
     3
1000
-2000934
1002
}
  0
LINE
  5
184
330
70
100
AcDbEntity
  8
S-STRS
100
AcDbLine
 10
974.1726992363496
 20
293.3358431313558
 30
0.0
 11
942.1726992363492
 21
293.3358431313558
 31
0.0
1001
REVIT
1002
{
1070
     1
1000
5174978
1002
}
1002
{
1070
     5
1000
44989
1002
}
1002
{
1070
     2
1000
-2000120
1002
}
1002
{
1070
     3
1000
-2000934
1002
}
  0
LINE
  5
185
330
70
100
AcDbEntity
  8
S-STRS
100
AcDbLine
 10
1011.172699236349
 20
313.3358431313569
 30
0.0
 11
1043.172699236349
 21
313.3358431313569
 31
0.0
1001
REVIT
1002
{
1070
     1
1000
5174978
1002
}
1002
{
1070
     5
1000
44989
1002
}
1002
{
1070
     2
1000
-2000120
1002
}
1002
{
1070
     3
1000
-2000932
1002
}
  0
LINE
  5
186
330
70
100
AcDbEntity
  8
S-STRS
100
AcDbLine
 10
1011.172699236349
 20
302.3358431313571
 30
0.0
 11
1043.172699236349
 21
302.3358431313566
 31
0.0
1001
REVIT
1002
{
1070
     1
1000
5174978
1002
}
1002
{
1070
     5
1000
44989
1002
}
1002
{
1070
     2
1000
-2000120
1002
}
1002
{
1070
     3
1000
-2000932
1002
}
  0
LINE
  5
187
330
70
100
AcDbEntity
  8
S-STRS
100
AcDbLine
 10
1011.172699236349
 20
291.3358431313569
 30
0.0
 11
1043.172699236349
 21
291.3358431313569
 31
0.0
1001
REVIT
1002
{
1070
     1
1000
5174978
1002
}
1002
{
1070
     5
1000
44989
1002
}
1002
{
1070
     2
1000
-2000120
1002
}
1002
{
1070
     3
1000
-2000932
1002
}
  0
LINE
  5
188
330
70
100
AcDbEntity
  8
S-STRS
100
AcDbLine
 10
1011.172699236349
 20
280.3358431313569
 30
0.0
 11
1043.172699236349
 21
280.3358431313569
 31
0.0
1001
REVIT
1002
{
1070
     1
1000
5174978
1002
}
1002
{
1070
     5
1000
44989
1002
}
1002
{
1070
     2
1000
-2000120
1002
}
1002
{
1070
     3
1000
-2000932
1002
}
  0
LINE
  5
189
330
70
100
AcDbEntity
  8
S-STRS
100
AcDbLine
 10
1011.172699236349
 20
269.3358431313569
 30
0.0
 11
1043.172699236349
 21
269.3358431313569
 31
0.0
1001
REVIT
1002
{
1070
     1
1000
5174978
1002
}
1002
{
1070
     5
1000
44989
1002
}
1002
{
1070
     2
1000
-2000120
1002
}
1002
{
1070
     3
1000
-2000932
1002
}
  0
LINE
  5
18A
330
70
100
AcDbEntity
  8
S-STRS
100
AcDbLine
 10
1011.172699236349
 20
258.3358431313569
 30
0.0
 11
1043.172699236349
 21
258.3358431313569
 31
0.0
1001
REVIT
1002
{
1070
     1
1000
5174978
1002
}
1002
{
1070
     5
1000
44989
1002
}
1002
{
1070
     2
1000
-2000120
1002
}
1002
{
1070
     3
1000
-2000932
1002
}
  0
LINE
  5
18B
330
70
100
AcDbEntity
  8
S-STRS
100
AcDbLine
 10
1011.172699236349
 20
247.3358431313569
 30
0.0
 11
1043.172699236349
 21
247.3358431313569
 31
0.0
1001
REVIT
1002
{
1070
     1
1000
5174978
1002
}
1002
{
1070
     5
1000
44989
1002
}
1002
{
1070
     2
1000
-2000120
1002
}
1002
{
1070
     3
1000
-2000932
1002
}
  0
LINE
  5
18C
330
70
100
AcDbEntity
  8
S-STRS
100
AcDbLine
 10
1011.172699236349
 20
236.3358431313572
 30
0.0
 11
1043.172699236349
 21
236.3358431313566
 31
0.0
1001
REVIT
1002
{
1070
     1
1000
5174978
1002
}
1002
{
1070
     5
1000
44989
1002
}
1002
{
1070
     2
1000
-2000120
1002
}
1002
{
1070
     3
1000
-2000932
1002
}
  0
LINE
  5
18D
330
70
100
AcDbEntity
  8
S-STRS
100
AcDbLine
 10
1011.172699236349
 20
225.3358431313569
 30
0.0
 11
1043.172699236349
 21
225.3358431313569
 31
0.0
1001
REVIT
1002
{
1070
     1
1000
5174978
1002
}
1002
{
1070
     5
1000
44989
1002
}
1002
{
1070
     2
1000
-2000120
1002
}
1002
{
1070
     3
1000
-2000932
1002
}
  0
LINE
  5
18E
330
70
100
AcDbEntity
  8
S-STRS
100
AcDbLine
 10
1011.172699236349
 20
214.3358431313569
 30
0.0
 11
1043.172699236349
 21
214.3358431313569
 31
0.0
1001
REVIT
1002
{
1070
     1
1000
5174978
1002
}
1002
{
1070
     5
1000
44989
1002
}
1002
{
1070
     2
1000
-2000120
1002
}
1002
{
1070
     3
1000
-2000932
1002
}
  0
LINE
  5
18F
330
70
100
AcDbEntity
  8
S-STRS
100
AcDbLine
 10
974.1726992363492
 20
216.3358431313559
 30
0.0
 11
942.172699236349
 21
216.3358431313559
 31
0.0
1001
REVIT
1002
{
1070
     1
1000
5174978
1002
}
1002
{
1070
     5
1000
44989
1002
}
1002
{
1070
     2
1000
-2000120
1002
}
1002
{
1070
     3
1000
-2000932
1002
}
  0
LINE
  5
190
330
70
100
AcDbEntity
  8
S-STRS
100
AcDbLine
 10
974.1726992363492
 20
227.3358431313559
 30
0.0
 11
942.172699236349
 21
227.3358431313559
 31
0.0
1001
REVIT
1002
{
1070
     1
1000
5174978
1002
}
1002
{
1070
     5
1000
44989
1002
}
1002
{
1070
     2
1000
-2000120
1002
}
1002
{
1070
     3
1000
-2000932
1002
}
  0
LINE
  5
191
330
70
100
AcDbEntity
  8
S-STRS
100
AcDbLine
 10
974.1726992363494
 20
238.3358431313558
 30
0.0
 11
942.1726992363492
 21
238.3358431313558
 31
0.0
1001
REVIT
1002
{
1070
     1
1000
5174978
1002
}
1002
{
1070
     5
1000
44989
1002
}
1002
{
1070
     2
1000
-2000120
1002
}
1002
{
1070
     3
1000
-2000932
1002
}
  0
LINE
  5
192
330
70
100
AcDbEntity
  8
S-STRS
100
AcDbLine
 10
974.1726992363494
 20
249.3358431313556
 30
0.0
 11
942.1726992363492
 21
249.3358431313561
 31
0.0
1001
REVIT
1002
{
1070
     1
1000
5174978
1002
}
1002
{
1070
     5
1000
44989
1002
}
1002
{
1070
     2
1000
-2000120
1002
}
1002
{
1070
     3
1000
-2000932
1002
}
  0
LINE
  5
193
330
70
100
AcDbEntity
  8
S-STRS
100
AcDbLine
 10
974.1726992363494
 20
260.3358431313558
 30
0.0
 11
942.1726992363492
 21
260.3358431313558
 31
0.0
1001
REVIT
1002
{
1070
     1
1000
5174978
1002
}
1002
{
1070
     5
1000
44989
1002
}
1002
{
1070
     2
1000
-2000120
1002
}
1002
{
1070
     3
1000
-2000932
1002
}
  0
LINE
  5
194
330
70
100
AcDbEntity
  8
S-STRS
100
AcDbLine
 10
974.1726992363494
 20
271.3358431313559
 30
0.0
 11
942.1726992363492
 21
271.3358431313559
 31
0.0
1001
REVIT
1002
{
1070
     1
1000
5174978
1002
}
1002
{
1070
     5
1000
44989
1002
}
1002
{
1070
     2
1000
-2000120
1002
}
1002
{
1070
     3
1000
-2000932
1002
}
  0
LINE
  5
195
330
70
100
AcDbEntity
  8
S-STRS
100
AcDbLine
 10
974.1726992363496
 20
282.3358431313558
 30
0.0
 11
942.1726992363492
 21
282.3358431313558
 31
0.0
1001
REVIT
1002
{
1070
     1
1000
5174978
1002
}
1002
{
1070
     5
1000
44989
1002
}
1002
{
1070
     2
1000
-2000120
1002
}
1002
{
1070
     3
1000
-2000932
1002
}
  0
INSERT
  5
1A5
330
70
100
AcDbEntity
  8
A-FLOR-HRAL
100
AcDbBlockReference
  2
Railing - Railing-5175240-LEVEL 3 Map Export
 10
0.0
 20
0.0
 30
0.0
1001
REVIT
1002
{
1070
     1
1000
5175239
1002
}
1002
{
1070
     5
1000
1969
1002
}
1002
{
1070
     2
1000
-2000126
1002
}
1002
{
1070
     3
1000
-2000128
1002
}
  0
INSERT
  5
1B3
330
70
100
AcDbEntity
  8
A-FLOR-HRAL
100
AcDbBlockReference
  2
Railing - Railing-5175244-LEVEL 3 Map Export
 10
0.0
 20
0.0
 30
0.0
1001
REVIT
1002
{
1070
     1
1000
5175243
1002
}
1002
{
1070
     5
1000
1969
1002
}
1002
{
1070
     2
1000
-2000126
1002
}
1002
{
1070
     3
1000
-2000128
1002
}
  0
LWPOLYLINE
  5
1B5
330
70
100
AcDbEntity
  8
A-AREA-BNDY
100
AcDbPolyline
 90
        5
 70
   129
 43
0.0
 10
501.1726992363493
 20
156.3358431313566
 10
501.1726992363489
 20
360.3358431313569
 10
479.6726992363488
 20
360.3358431313569
 10
393.1726992363495
 20
360.3358431313569
 10
393.1726992363491
 20
156.3358431313566
1001
REVIT
1002
{
1070
     1
1000
5163228
1002
}
1002
{
1070
     2
1000
-2000829
1002
}
1002
{
1070
   101
1000
STAIRWELL
1002
}
1002
{
1070
   102
1000
3ST1
1002
}
1002
{
1070
   103
1000

1002
}
1002
{
1070
   104
1000

1002
}
1002
{
1070
   105
1000

1002
}
  0
LWPOLYLINE
  5
1B6
330
70
100
AcDbEntity
  8
A-AREA-BNDY
100
AcDbPolyline
 90
       12
 70
   129
 43
0.0
 10
359.1726992363488
 20
372.335843131357
 10
385.1726992363494
 20
372.3358431313569
 10
477.1726992363487
 20
372.3358431313569
 10
477.1726992363489
 20
395.3358431313562
 10
501.1726992363489
 20
395.3358431313562
 10
501.1726992363489
 20
406.3358431313562
 10
503.1726992363488
 20
406.3358431313564
 10
503.1726992363489
 20
533.335843131357
 10
390.1966992363491
 20
533.3358431313569
 10
384.172699236349
 20
533.3358431313569
 10
384.172699236349
 20
532.335843131357
 10
359.1726992363492
 20
532.335843131357
1001
REVIT
1002
{
1070
     1
1000
5163236
1002
}
1002
{
1070
     2
1000
-2000829
1002
}
1002
{
1070
   101
1000
STUDY ROOM
1002
}
1002
{
1070
   102
1000
300
1002
}
1002
{
1070
   103
1000

1002
}
1002
{
1070
   104
1000

1002
}
1002
{
1070
   105
1000

1002
}
  0
ENDSEC
  0
SECTION
  2
OBJECTS
  0
DICTIONARY
  5
C
330
0
100
AcDbDictionary
281
     1
  3
ACAD_CIP_PREVIOUS_PRODUCT_INFO
350
79
  3
ACAD_COLOR
350
63
  3
ACAD_DETAILVIEWSTYLE
350
6A
  3
ACAD_GROUP
350
D
  3
ACAD_IMAGE_VARS
350
7A
  3
ACAD_LAYOUT
350
62
  3
ACAD_MATERIAL
350
10
  3
ACAD_MLEADERSTYLE
350
66
  3
ACAD_MLINESTYLE
350
5F
  3
ACAD_PLOTSETTINGS
350
61
  3
ACAD_PLOTSTYLENAME
350
E
  3
ACAD_SCALELIST
350
42
  3
ACAD_SECTIONVIEWSTYLE
350
68
  3
ACAD_TABLESTYLE
350
64
  3
ACAD_VISUALSTYLE
350
29
  3
ACDB_RECOMPOSE_DATA
350
1C3
  3
AcDbVariableDictionary
350
7B
  3
REVIT_DICTIONARY
350
1B7
  0
DICTIONARY
  5
1BF
330
70
100
AcDbDictionary
280
     1
281
     1
  3
ACAD_SORTENTS
360
1C0
  0
XRECORD
  5
79
102
{ACAD_REACTORS
330
C
102
}
330
C
100
AcDbXrecord
280
     1
300
RVT
300
2025
300
RVT2025
  0
DICTIONARY
  5
63
102
{ACAD_REACTORS
330
C
102
}
330
C
100
AcDbDictionary
281
     1
  0
DICTIONARY
  5
6A
102
{ACAD_REACTORS
330
C
102
}
330
C
100
AcDbDictionary
281
     1
  3
Imperial24
350
6B
  0
DICTIONARY
  5
D
102
{ACAD_REACTORS
330
C
102
}
330
C
100
AcDbDictionary
281
     1
  0
RASTERVARIABLES
  5
7A
102
{ACAD_REACTORS
330
C
102
}
330
C
100
AcDbRasterVariables
 90
        0
 70
     0
 71
     1
 72
     5
  0
DICTIONARY
  5
62
102
{ACAD_REACTORS
330
C
102
}
330
C
100
AcDbDictionary
281
     1
  3
Layout1
350
6F
  3
Layout2
350
77
  3
Model
350
73
  0
DICTIONARY
  5
10
102
{ACAD_REACTORS
330
C
102
}
330
C
100
AcDbDictionary
281
     1
  3
ByBlock
350
19
  3
ByLayer
350
11
  3
Global
350
21
  0
DICTIONARY
  5
66
102
{ACAD_REACTORS
330
C
102
}
330
C
100
AcDbDictionary
281
     1
  3
Standard
350
67
  0
DICTIONARY
  5
5F
102
{ACAD_REACTORS
330
C
102
}
330
C
100
AcDbDictionary
281
     1
  3
Standard
350
60
  0
DICTIONARY
  5
61
102
{ACAD_REACTORS
330
C
102
}
330
C
100
AcDbDictionary
281
     1
  0
ACDBDICTIONARYWDFLT
  5
E
102
{ACAD_REACTORS
330
C
102
}
330
C
100
AcDbDictionary
281
     1
  3
Normal
350
F
100
AcDbDictionaryWithDefault
340
F
  0
DICTIONARY
  5
42
102
{ACAD_REACTORS
330
C
102
}
330
C
100
AcDbDictionary
281
     1
  3
A0
350
43
  3
A1
350
44
  3
A2
350
45
  3
A3
350
46
  3
A4
350
47
  3
A5
350
48
  3
A6
350
49
  3
A7
350
4A
  3
A8
350
4B
  3
A9
350
4C
  3
B0
350
4D
  3
B1
350
4E
  3
B2
350
4F
  3
B3
350
50
  3
B4
350
51
  3
B5
350
52
  3
B6
350
53
  0
DICTIONARY
  5
68
102
{ACAD_REACTORS
330
C
102
}
330
C
100
AcDbDictionary
281
     1
  3
Imperial24
350
69
  0
DICTIONARY
  5
64
102
{ACAD_REACTORS
330
C
102
}
330
C
100
AcDbDictionary
281
     1
  3
Standard
350
65
  0
DICTIONARY
  5
29
102
{ACAD_REACTORS
330
C
102
}
330
C
100
AcDbDictionary
281
     1
  3
2dWireframe
350
2F
  3
Basic
350
2E
  3
Brighten
350
35
  3
ColorChange
350
39
  3
Conceptual
350
32
  3
Dim
350
34
  3
EdgeColorOff
350
41
  3
Facepattern
350
38
  3
Flat
350
2A
  3
FlatWithEdges
350
2B
  3
Gouraud
350
2C
  3
GouraudWithEdges
350
2D
  3
Hidden
350
31
  3
JitterOff
350
3F
  3
Linepattern
350
37
  3
OverhangOff
350
40
  3
Realistic
350
33
  3
Shaded
350
3E
  3
Shaded with edges
350
3D
  3
Shades of Gray
350
3A
  3
Sketchy
350
3B
  3
Thicken
350
36
  3
Wireframe
350
30
  3
X-Ray
350
3C
  0
XRECORD
  5
1C3
102
{ACAD_REACTORS
330
C
102
}
330
C
100
AcDbXrecord
280
     1
 90
        1
330
65
  0
DICTIONARY
  5
7B
102
{ACAD_REACTORS
330
C
102
}
330
C
100
AcDbDictionary
281
     1
  3
CANNOSCALE
350
80
  3
CMLEADERSTYLE
350
7D
  3
CTABLESTYLE
350
7C
  3
CVIEWDETAILSTYLE
350
7E
  3
CVIEWSECTIONSTYLE
350
7F
  0
DICTIONARY
  5
1B7
102
{ACAD_REACTORS
330
C
102
}
330
C
100
AcDbDictionary
281
     1
  3
DRAWING_TOOL
350
1BE
  3
REVIT_CATEGORY_MAPPING
350
1BC
  3
REVIT_GET_SITE
350
1B8
  3
REVIT_SUB_CATEGORY_MAPPING
350
1BD
  3
REVIT_TYPE_MAPPING
350
1BB
  0
SORTENTSTABLE
  5
1C0
102
{ACAD_REACTORS
330
1BF
102
}
330
1BF
100
AcDbSortentsTable
330
70
  0
ACDBDETAILVIEWSTYLE
  5
6B
102
{ACAD_REACTORS
330
6A
102
}
330
6A
100
AcDbModelDocViewStyle
 70
     0
  3
Imperial24
290
     1
300
Imperial24
 90
        0
100
AcDbDetailViewStyle
 70
     0
 71
     0
 90
        3
 71
     1
340
55
 62
   256
 40
0.24
340
0
 62
   256
 40
0.24
300

 40
0.36
280
     3
 71
     2
340
5D
 90
       25
 62
   256
 71
     3
340
55
 62
   256
 40
0.24
 90
        1
 40
0.75
 90
        1
300
%<\AcVar ViewType \f "%tc1">% %<\AcVar ViewDetailId>%\PSCALE %<\AcVar ViewScale \f "%sn">%
 71
     4
340
5D
 90
       25
 62
   256
340
5D
 90
       25
 62
   256
280
     0
  0
LAYOUT
  5
6F
102
{ACAD_REACTORS
330
62
102
}
330
62
100
AcDbPlotSettings
  1

  2

  4

  6

 40
0.0
 41
0.0
 42
0.0
 43
0.0
 44
0.0
 45
0.0
 46
0.0
 47
0.0
 48
0.0
 49
0.0
140
0.0
141
0.0
142
1.0
143
1.0
 70
   688
 72
     0
 73
     0
 74
     5
  7

 75
    16
147
1.0
 76
     0
 77
     2
 78
   300
148
0.0
149
0.0
100
AcDbLayout
  1
Layout1
 70
     1
 71
     1
 10
0.0
 20
0.0
 11
12.0
 21
9.0
 12
0.0
 22
0.0
 32
0.0
 14
0.0
 24
0.0
 34
0.0
 15
0.0
 25
0.0
 35
0.0
146
0.0
 13
0.0
 23
0.0
 33
0.0
 16
1.0
 26
0.0
 36
0.0
 17
0.0
 27
1.0
 37
0.0
 76
     0
330
6C
  0
LAYOUT
  5
77
102
{ACAD_REACTORS
330
62
102
}
330
62
100
AcDbPlotSettings
  1

  2

  4

  6

 40
0.0
 41
0.0
 42
0.0
 43
0.0
 44
0.0
 45
0.0
 46
0.0
 47
0.0
 48
0.0
 49
0.0
140
0.0
141
0.0
142
1.0
143
1.0
 70
   688
 72
     0
 73
     0
 74
     5
  7

 75
    16
147
1.0
 76
     0
 77
     2
 78
   300
148
0.0
149
0.0
100
AcDbLayout
  1
Layout2
 70
     1
 71
     2
 10
0.0
 20
0.0
 11
12.0
 21
9.0
 12
0.0
 22
0.0
 32
0.0
 14
0.0
 24
0.0
 34
0.0
 15
0.0
 25
0.0
 35
0.0
146
0.0
 13
0.0
 23
0.0
 33
0.0
 16
1.0
 26
0.0
 36
0.0
 17
0.0
 27
1.0
 37
0.0
 76
     0
330
74
  0
LAYOUT
  5
73
102
{ACAD_REACTORS
330
62
102
}
330
62
100
AcDbPlotSettings
  1

  2

  4

  6

 40
0.0
 41
0.0
 42
0.0
 43
0.0
 44
0.0
 45
0.0
 46
0.0
 47
0.0
 48
0.0
 49
0.0
140
0.0
141
0.0
142
1.0
143
1.0
 70
  1712
 72
     0
 73
     0
 74
     0
  7

 75
     0
147
1.0
 76
     0
 77
     2
 78
   300
148
0.0
149
0.0
100
AcDbLayout
  1
Model
 70
     1
 71
     0
 10
0.0
 20
0.0
 11
12.0
 21
9.0
 12
0.0
 22
0.0
 32
0.0
 14
0.0
 24
0.0
 34
0.0
 15
0.0
 25
0.0
 35
0.0
146
0.0
 13
0.0
 23
0.0
 33
0.0
 16
1.0
 26
0.0
 36
0.0
 17
0.0
 27
1.0
 37
0.0
 76
     0
330
70
  0
MATERIAL
  5
19
102
{ACAD_XDICTIONARY
360
1A
102
}
102
{ACAD_REACTORS
330
10
102
}
330
10
100
AcDbMaterial
  1
ByBlock
 72
     0
 43
0.0208333333333333
 43
0.0
 43
0.0
 43
0.0
 43
0.0
 43
0.0208333333333333
 43
0.0
 43
0.0
 43
0.0
 43
0.0
 43
1.0
 43
0.0
 43
0.0
 43
0.0
 43
0.0
 43
1.0
 77
     0
 47
0.0208333333333333
 47
0.0
 47
0.0
 47
0.0
 47
0.0
 47
0.0208333333333333
 47
0.0
 47
0.0
 47
0.0
 47
0.0
 47
1.0
 47
0.0
 47
0.0
 47
0.0
 47
0.0
 47
1.0
171
     0
 49
0.0208333333333333
 49
0.0
 49
0.0
 49
0.0
 49
0.0
 49
0.0208333333333333
 49
0.0
 49
0.0
 49
0.0
 49
0.0
 49
1.0
 49
0.0
 49
0.0
 49
0.0
 49
0.0
 49
1.0
175
     0
142
0.0208333333333333
142
0.0
142
0.0
142
0.0
142
0.0
142
0.0208333333333333
142
0.0
142
0.0
142
0.0
142
0.0
142
1.0
142
0.0
142
0.0
142
0.0
142
0.0
142
1.0
179
     0
144
0.0208333333333333
144
0.0
144
0.0
144
0.0
144
0.0
144
0.0208333333333333
144
0.0
144
0.0
144
0.0
144
0.0
144
1.0
144
0.0
144
0.0
144
0.0
144
0.0
144
1.0
147
0.0208333333333333
147
0.0
147
0.0
147
0.0
147
0.0
147
0.0208333333333333
147
0.0
147
0.0
147
0.0
147
0.0
147
1.0
147
0.0
147
0.0
147
0.0
147
0.0
147
1.0
  0
MATERIAL
  5
11
102
{ACAD_XDICTIONARY
360
12
102
}
102
{ACAD_REACTORS
330
10
102
}
330
10
100
AcDbMaterial
  1
ByLayer
 72
     0
 43
0.0208333333333333
 43
0.0
 43
0.0
 43
0.0
 43
0.0
 43
0.0208333333333333
 43
0.0
 43
0.0
 43
0.0
 43
0.0
 43
1.0
 43
0.0
 43
0.0
 43
0.0
 43
0.0
 43
1.0
 77
     0
 47
0.0208333333333333
 47
0.0
 47
0.0
 47
0.0
 47
0.0
 47
0.0208333333333333
 47
0.0
 47
0.0
 47
0.0
 47
0.0
 47
1.0
 47
0.0
 47
0.0
 47
0.0
 47
0.0
 47
1.0
171
     0
 49
0.0208333333333333
 49
0.0
 49
0.0
 49
0.0
 49
0.0
 49
0.0208333333333333
 49
0.0
 49
0.0
 49
0.0
 49
0.0
 49
1.0
 49
0.0
 49
0.0
 49
0.0
 49
0.0
 49
1.0
175
     0
142
0.0208333333333333
142
0.0
142
0.0
142
0.0
142
0.0
142
0.0208333333333333
142
0.0
142
0.0
142
0.0
142
0.0
142
1.0
142
0.0
142
0.0
142
0.0
142
0.0
142
1.0
179
     0
144
0.0208333333333333
144
0.0
144
0.0
144
0.0
144
0.0
144
0.0208333333333333
144
0.0
144
0.0
144
0.0
144
0.0
144
1.0
144
0.0
144
0.0
144
0.0
144
0.0
144
1.0
147
0.0208333333333333
147
0.0
147
0.0
147
0.0
147
0.0
147
0.0208333333333333
147
0.0
147
0.0
147
0.0
147
0.0
147
1.0
147
0.0
147
0.0
147
0.0
147
0.0
147
1.0
  0
MATERIAL
  5
21
102
{ACAD_XDICTIONARY
360
22
102
}
102
{ACAD_REACTORS
330
10
102
}
330
10
100
AcDbMaterial
  1
Global
 72
     0
 43
0.0208333333333333
 43
0.0
 43
0.0
 43
0.0
 43
0.0
 43
0.0208333333333333
 43
0.0
 43
0.0
 43
0.0
 43
0.0
 43
1.0
 43
0.0
 43
0.0
 43
0.0
 43
0.0
 43
1.0
 77
     0
 47
0.0208333333333333
 47
0.0
 47
0.0
 47
0.0
 47
0.0
 47
0.0208333333333333
 47
0.0
 47
0.0
 47
0.0
 47
0.0
 47
1.0
 47
0.0
 47
0.0
 47
0.0
 47
0.0
 47
1.0
171
     0
 49
0.0208333333333333
 49
0.0
 49
0.0
 49
0.0
 49
0.0
 49
0.0208333333333333
 49
0.0
 49
0.0
 49
0.0
 49
0.0
 49
1.0
 49
0.0
 49
0.0
 49
0.0
 49
0.0
 49
1.0
175
     0
142
0.0208333333333333
142
0.0
142
0.0
142
0.0
142
0.0
142
0.0208333333333333
142
0.0
142
0.0
142
0.0
142
0.0
142
1.0
142
0.0
142
0.0
142
0.0
142
0.0
142
1.0
179
     0
144
0.0208333333333333
144
0.0
144
0.0
144
0.0
144
0.0
144
0.0208333333333333
144
0.0
144
0.0
144
0.0
144
0.0
144
1.0
144
0.0
144
0.0
144
0.0
144
0.0
144
1.0
147
0.0208333333333333
147
0.0
147
0.0
147
0.0
147
0.0
147
0.0208333333333333
147
0.0
147
0.0
147
0.0
147
0.0
147
1.0
147
0.0
147
0.0
147
0.0
147
0.0
147
1.0
  0
MLEADERSTYLE
  5
67
102
{ACAD_REACTORS
330
66
102
}
330
66
100
AcDbMLeaderStyle
179
     2
170
     2
171
     1
172
     0
 90
        2
 40
0.0
 41
0.0
173
     1
 91
-1056964608
340
5B
 92
       -2
290
     1
 42
0.09
291
     1
 43
0.36
  3
Standard
 44
0.18
300

342
55
174
     1
178
     6
175
     1
176
     0
 93
-1056964608
 45
0.18
292
     0
297
     0
 46
0.18
 94
-1056964608
 47
1.0
 49
1.0
140
1.0
293
     1
141
0.0
294
     1
177
     0
142
1.0
295
     1
296
     0
143
0.125
271
     0
272
     9
273
     9
298
     1
  0
MLINESTYLE
  5
60
102
{ACAD_REACTORS
330
5F
102
}
330
5F
100
AcDbMlineStyle
  2
STANDARD
 70
     0
  3

 62
   256
 51
90.0
 52
90.0
 71
     2
 49
0.5
 62
   256
  6
BYLAYER
 49
-0.5
 62
   256
  6
BYLAYER
  0
ACDBPLACEHOLDER
  5
F
102
{ACAD_REACTORS
330
E
102
}
330
E
  0
SCALE
  5
43
102
{ACAD_REACTORS
330
42
102
}
330
42
100
AcDbScale
 70
     0
300
1:1
140
1.0
141
1.0
290
     1
  0
SCALE
  5
44
102
{ACAD_REACTORS
330
42
102
}
330
42
100
AcDbScale
 70
     0
300
1/128" = 1'-0"
140
0.0078125
141
12.0
290
     0
  0
SCALE
  5
45
102
{ACAD_REACTORS
330
42
102
}
330
42
100
AcDbScale
 70
     0
300
1/64" = 1'-0"
140
0.015625
141
12.0
290
     0
  0
SCALE
  5
46
102
{ACAD_REACTORS
330
42
102
}
330
42
100
AcDbScale
 70
     0
300
1/32" = 1'-0"
140
0.03125
141
12.0
290
     0
  0
SCALE
  5
47
102
{ACAD_REACTORS
330
42
102
}
330
42
100
AcDbScale
 70
     0
300
1/16" = 1'-0"
140
0.0625
141
12.0
290
     0
  0
SCALE
  5
48
102
{ACAD_REACTORS
330
42
102
}
330
42
100
AcDbScale
 70
     0
300
3/32" = 1'-0"
140
0.09375
141
12.0
290
     0
  0
SCALE
  5
49
102
{ACAD_REACTORS
330
42
102
}
330
42
100
AcDbScale
 70
     0
300
1/8" = 1'-0"
140
0.125
141
12.0
290
     0
  0
SCALE
  5
4A
102
{ACAD_REACTORS
330
42
102
}
330
42
100
AcDbScale
 70
     0
300
3/16" = 1'-0"
140
0.1875
141
12.0
290
     0
  0
SCALE
  5
4B
102
{ACAD_REACTORS
330
42
102
}
330
42
100
AcDbScale
 70
     0
300
1/4" = 1'-0"
140
0.25
141
12.0
290
     0
  0
SCALE
  5
4C
102
{ACAD_REACTORS
330
42
102
}
330
42
100
AcDbScale
 70
     0
300
3/8" = 1'-0"
140
0.375
141
12.0
290
     0
  0
SCALE
  5
4D
102
{ACAD_REACTORS
330
42
102
}
330
42
100
AcDbScale
 70
     0
300
1/2" = 1'-0"
140
0.5
141
12.0
290
     0
  0
SCALE
  5
4E
102
{ACAD_REACTORS
330
42
102
}
330
42
100
AcDbScale
 70
     0
300
3/4" = 1'-0"
140
0.75
141
12.0
290
     0
  0
SCALE
  5
4F
102
{ACAD_REACTORS
330
42
102
}
330
42
100
AcDbScale
 70
     0
300
1" = 1'-0"
140
1.0
141
12.0
290
     0
  0
SCALE
  5
50
102
{ACAD_REACTORS
330
42
102
}
330
42
100
AcDbScale
 70
     0
300
1-1/2" = 1'-0"
140
1.5
141
12.0
290
     0
  0
SCALE
  5
51
102
{ACAD_REACTORS
330
42
102
}
330
42
100
AcDbScale
 70
     0
300
3" = 1'-0"
140
3.0
141
12.0
290
     0
  0
SCALE
  5
52
102
{ACAD_REACTORS
330
42
102
}
330
42
100
AcDbScale
 70
     0
300
6" = 1'-0"
140
6.0
141
12.0
290
     0
  0
SCALE
  5
53
102
{ACAD_REACTORS
330
42
102
}
330
42
100
AcDbScale
 70
     0
300
1'-0" = 1'-0"
140
12.0
141
12.0
290
     0
  0
ACDBSECTIONVIEWSTYLE
  5
69
102
{ACAD_REACTORS
330
68
102
}
330
68
100
AcDbModelDocViewStyle
 70
     0
  3
Imperial24
290
     1
300
Imperial24
 90
        0
100
AcDbSectionViewStyle
 70
     0
 71
     0
 90
       78
 71
     1
340
55
 62
   256
 40
0.24
340
0
340
0
 62
   256
 40
0.24
300
I, O, Q, S, X, Z
 40
0.48
 90
        3
 40
0.18
 90
        1
 71
     2
340
5D
 90
       25
 62
   256
340
5D
 90
       50
 62
   256
 40
0.24
 40
0.0
 40
0.24
 71
     3
340
55
 62
   256
 40
0.24
 90
        1
 40
0.75
 90
        1
300
%<\AcVar ViewType \f "%tc1">% %<\AcVar ViewSectionStartId>%-%<\AcVar ViewSectionEndId>%\PSCALE %<\AcVar ViewScale \f "%sn">%
 71
     4
 62
   256
 62
   257
300
ANSI31
 40
1.0
 90
        0
290
     0
290
     0
 90
        6
 40
0.0
 40
1.570796326794896
 40
0.2617993877991494
 40
1.308996938995747
 40
-0.2617993877991494
 40
1.832595714594046
  0
TABLESTYLE
  5
65
102
{ACAD_XDICTIONARY
360
1C1
102
}
102
{ACAD_REACTORS
330
64
102
}
330
64
100
AcDbTableStyle
280
     0
  3
Standard
 70
     0
 71
     0
 40
0.06
 41
0.06
280
     0
281
     0
  7
Standard
140
0.18
170
     2
 62
     0
 63
     7
283
     0
 90
      512
 91
        0
  1

274
    -2
284
     1
 64
     0
275
    -2
285
     1
 65
     0
276
    -2
286
     1
 66
     0
277
    -2
287
     1
 67
     0
278
    -2
288
     1
 68
     0
279
    -2
289
     1
 69
     0
  7
Standard
140
0.25
170
     5
 62
     0
 63
     7
283
     0
 90
      512
 91
        0
  1

274
    -2
284
     1
 64
     0
275
    -2
285
     1
 65
     0
276
    -2
286
     1
 66
     0
277
    -2
287
     1
 67
     0
278
    -2
288
     1
 68
     0
279
    -2
289
     1
 69
     0
  7
Standard
140
0.18
170
     5
 62
     0
 63
     7
283
     0
 90
      512
 91
        0
  1

274
    -2
284
     1
 64
     0
275
    -2
285
     1
 65
     0
276
    -2
286
     1
 66
     0
277
    -2
287
     1
 67
     0
278
    -2
288
     1
 68
     0
279
    -2
289
     1
 69
     0
  0
VISUALSTYLE
  5
2F
102
{ACAD_REACTORS
330
29
102
}
330
29
100
AcDbVisualStyle
  2
2dWireframe
 70
     4
177
     3
291
     0
 70
    58
 90
        0
176
     1
 90
        2
176
     1
 90
        0
176
     1
 90
        0
176
     1
 40
0.6
176
     1
 40
30.0
176
     1
 62
     7
420
 16777215
176
     1
 90
        1
176
     1
 90
        4
176
     1
 62
     7
176
     1
 62
   257
176
     1
 90
        1
176
     1
 90
        1
176
     1
 40
1.0
176
     1
 90
        0
176
     1
 62
   257
176
     1
 40
1.0
176
     1
 90
        1
176
     1
 90
        6
176
     1
 90
        2
176
     1
 62
     7
176
     1
 90
        5
176
     1
 90
        0
176
     1
 90
        0
176
     1
290
     0
176
     1
 90
        1
176
     1
 40
0.0
176
     1
 90
        0
176
     1
290
     1
176
     1
290
     1
176
     1
290
     0
176
     1
290
     0
176
     1
290
     0
176
     1
290
     0
176
     1
290
     0
176
     1
290
     0
176
     1
290
     0
176
     1
 90
       50
176
     1
 40
0.0
176
     1
 40
1.0
176
     1
 90
        0
176
     1
 62
    18
420
        0
176
     1
 90
       50
176
     1
 90
        3
176
     1
 62
     5
420
      255
176
     1
290
     0
176
     1
 90
       50
176
     1
 90
       50
176
     1
 90
       50
176
     1
290
     0
176
     1
 90
       50
176
     1
 62
   256
176
     0
 40
1.0
176
     0
 90
        2
176
     1
  1
strokes_ogs.tif
176
     1
290
     0
176
     1
 40
1.0
176
     1
 40
1.0
176
     1
  0
VISUALSTYLE
  5
2E
102
{ACAD_REACTORS
330
29
102
}
330
29
100
AcDbVisualStyle
  2
Basic
 70
     7
177
     3
291
     1
 70
    58
 90
        1
176
     1
 90
        0
176
     1
 90
        1
176
     1
 90
        0
176
     1
 40
0.6
176
     1
 40
30.0
176
     1
 62
     7
420
 16777215
176
     1
 90
        0
176
     1
 90
        4
176
     1
 62
     7
176
     1
 62
   257
176
     1
 90
        1
176
     1
 90
        1
176
     1
 40
1.0
176
     1
 90
        8
176
     1
 62
     7
176
     1
 40
1.0
176
     1
 90
        1
176
     1
 90
        6
176
     1
 90
        2
176
     1
 62
     7
176
     1
 90
        5
176
     1
 90
        0
176
     1
 90
        0
176
     1
290
     0
176
     1
 90
        1
176
     1
 40
0.0
176
     1
 90
        0
176
     1
290
     0
176
     1
290
     1
176
     1
290
     1
176
     1
290
     0
176
     1
290
     0
176
     1
290
     0
176
     1
290
     0
176
     1
290
     0
176
     1
290
     0
176
     1
 90
       50
176
     1
 40
0.0
176
     1
 40
1.0
176
     1
 90
        0
176
     1
 62
    18
420
        0
176
     1
 90
       50
176
     1
 90
        3
176
     1
 62
     5
420
      255
176
     1
290
     0
176
     1
 90
       50
176
     1
 90
       50
176
     1
 90
       50
176
     1
290
     0
176
     1
 90
       50
176
     1
 62
   256
176
     0
 40
1.0
176
     0
 90
        2
176
     1
  1
strokes_ogs.tif
176
     1
290
     0
176
     1
 40
1.0
176
     1
 40
1.0
176
     1
  0
VISUALSTYLE
  5
35
102
{ACAD_REACTORS
330
29
102
}
330
29
100
AcDbVisualStyle
  2
Brighten
 70
    12
177
     3
291
     1
 70
    58
 90
        2
176
     1
 90
        2
176
     1
 90
        0
176
     1
 90
        0
176
     1
 40
0.6
176
     1
 40
30.0
176
     1
 62
     7
420
 16777215
176
     1
 90
        1
176
     1
 90
        4
176
     1
 62
     7
176
     1
 62
   257
176
     1
 90
        1
176
     1
 90
        1
176
     1
 40
1.0
176
     1
 90
        8
176
     1
 62
     7
176
     1
 40
1.0
176
     1
 90
        1
176
     1
 90
        6
176
     1
 90
        2
176
     1
 62
     7
176
     1
 90
        5
176
     1
 90
        0
176
     1
 90
        0
176
     1
290
     0
176
     1
 90
        1
176
     1
 40
50.0
176
     1
 90
        0
176
     1
290
     0
176
     1
290
     1
176
     1
290
     1
176
     1
290
     0
176
     1
290
     0
176
     1
290
     0
176
     1
290
     0
176
     1
290
     0
176
     1
290
     0
176
     1
 90
       50
176
     1
 40
0.0
176
     1
 40
1.0
176
     1
 90
        0
176
     1
 62
    18
420
        0
176
     1
 90
       50
176
     1
 90
        3
176
     1
 62
     5
420
      255
176
     1
290
     0
176
     1
 90
       50
176
     1
 90
       50
176
     1
 90
       50
176
     1
290
     0
176
     1
 90
       50
176
     1
 62
   256
176
     0
 40
1.0
176
     0
 90
        2
176
     1
  1
strokes_ogs.tif
176
     1
290
     0
176
     1
 40
1.0
176
     1
 40
1.0
176
     1
  0
VISUALSTYLE
  5
39
102
{ACAD_REACTORS
330
29
102
}
330
29
100
AcDbVisualStyle
  2
ColorChange
 70
    16
177
     3
291
     1
 70
    58
 90
        2
176
     1
 90
        2
176
     1
 90
        3
176
     1
 90
        0
176
     1
 40
0.6
176
     1
 40
30.0
176
     1
 62
     8
420
  8421504
176
     1
 90
        1
176
     1
 90
        4
176
     1
 62
     7
176
     1
 62
   257
176
     1
 90
        1
176
     1
 90
        1
176
     1
 40
1.0
176
     1
 90
        8
176
     1
 62
     8
420
  8421504
176
     1
 40
1.0
176
     1
 90
        1
176
     1
 90
        6
176
     1
 90
        2
176
     1
 62
     7
176
     1
 90
        5
176
     1
 90
        0
176
     1
 90
        0
176
     1
290
     0
176
     1
 90
        1
176
     1
 40
0.0
176
     1
 90
        0
176
     1
290
     0
176
     1
290
     1
176
     1
290
     1
176
     1
290
     0
176
     1
290
     0
176
     1
290
     0
176
     1
290
     0
176
     1
290
     0
176
     1
290
     0
176
     1
 90
       50
176
     1
 40
0.0
176
     1
 40
1.0
176
     1
 90
        0
176
     1
 62
    18
420
        0
176
     1
 90
       50
176
     1
 90
        3
176
     1
 62
     5
420
      255
176
     1
290
     0
176
     1
 90
       50
176
     1
 90
       50
176
     1
 90
       50
176
     1
290
     0
176
     1
 90
       50
176
     1
 62
   256
176
     0
 40
1.0
176
     0
 90
        2
176
     1
  1
strokes_ogs.tif
176
     1
290
     0
176
     1
 40
1.0
176
     1
 40
1.0
176
     1
  0
VISUALSTYLE
  5
32
102
{ACAD_REACTORS
330
29
102
}
330
29
100
AcDbVisualStyle
  2
Conceptual
 70
     9
177
     3
291
     0
 70
    58
 90
        3
176
     1
 90
        2
176
     1
 90
        0
176
     1
 90
        0
176
     1
 40
0.6
176
     1
 40
30.0
176
     1
 62
     7
420
 16777215
176
     1
 90
        2
176
     1
 90
        2
176
     1
 62
     7
176
     1
 62
   257
176
     1
 90
        1
176
     1
 90
        1
176
     1
 40
179.0
176
     1
 90
        8
176
     1
 62
     7
176
     1
 40
1.0
176
     1
 90
        1
176
     1
 90
        6
176
     1
 90
        2
176
     1
 62
     7
176
     1
 90
        3
176
     1
 90
        0
176
     1
 90
        0
176
     1
290
     0
176
     1
 90
        1
176
     1
 40
0.0
176
     1
 90
        0
176
     1
290
     0
176
     1
290
     1
176
     1
290
     1
176
     1
290
     0
176
     1
290
     0
176
     1
290
     0
176
     1
290
     0
176
     1
290
     0
176
     1
290
     0
176
     1
 90
       50
176
     1
 40
0.0
176
     1
 40
1.0
176
     1
 90
        0
176
     1
 62
    18
420
        0
176
     1
 90
       50
176
     1
 90
        3
176
     1
 62
     5
420
      255
176
     1
290
     0
176
     1
 90
       50
176
     1
 90
       50
176
     1
 90
       50
176
     1
290
     0
176
     1
 90
       50
176
     1
 62
   256
176
     0
 40
1.0
176
     0
 90
        2
176
     1
  1
strokes_ogs.tif
176
     1
290
     0
176
     1
 40
1.0
176
     1
 40
1.0
176
     1
  0
VISUALSTYLE
  5
34
102
{ACAD_REACTORS
330
29
102
}
330
29
100
AcDbVisualStyle
  2
Dim
 70
    11
177
     3
291
     1
 70
    58
 90
        2
176
     1
 90
        2
176
     1
 90
        0
176
     1
 90
        0
176
     1
 40
0.6
176
     1
 40
30.0
176
     1
 62
     7
420
 16777215
176
     1
 90
        1
176
     1
 90
        4
176
     1
 62
     7
176
     1
 62
   257
176
     1
 90
        1
176
     1
 90
        1
176
     1
 40
1.0
176
     1
 90
        8
176
     1
 62
     7
176
     1
 40
1.0
176
     1
 90
        1
176
     1
 90
        6
176
     1
 90
        2
176
     1
 62
     7
176
     1
 90
        5
176
     1
 90
        0
176
     1
 90
        0
176
     1
290
     0
176
     1
 90
        1
176
     1
 40
-50.0
176
     1
 90
        0
176
     1
290
     0
176
     1
290
     1
176
     1
290
     1
176
     1
290
     0
176
     1
290
     0
176
     1
290
     0
176
     1
290
     0
176
     1
290
     0
176
     1
290
     0
176
     1
 90
       50
176
     1
 40
0.0
176
     1
 40
1.0
176
     1
 90
        0
176
     1
 62
    18
420
        0
176
     1
 90
       50
176
     1
 90
        3
176
     1
 62
     5
420
      255
176
     1
290
     0
176
     1
 90
       50
176
     1
 90
       50
176
     1
 90
       50
176
     1
290
     0
176
     1
 90
       50
176
     1
 62
   256
176
     0
 40
1.0
176
     0
 90
        2
176
     1
  1
strokes_ogs.tif
176
     1
290
     0
176
     1
 40
1.0
176
     1
 40
1.0
176
     1
  0
VISUALSTYLE
  5
41
102
{ACAD_REACTORS
330
29
102
}
330
29
100
AcDbVisualStyle
  2
EdgeColorOff
 70
    22
177
     3
291
     1
 70
    58
 90
        2
176
     0
 90
        2
176
     0
 90
        0
176
     0
 90
        0
176
     0
 40
0.6
176
     0
 40
30.0
176
     0
 62
     7
420
 16777215
176
     0
 90
        1
176
     0
 90
        4
176
     0
 62
     7
176
     0
 62
   257
176
     0
 90
        1
176
     0
 90
        1
176
     0
 40
1.0
176
     0
 90
        8
176
     2
 62
     7
176
     0
 40
1.0
176
     0
 90
        1
176
     0
 90
        6
176
     0
 90
        2
176
     0
 62
     7
176
     0
 90
        5
176
     0
 90
        0
176
     0
 90
        0
176
     0
290
     0
176
     0
 90
        1
176
     0
 40
0.0
176
     0
 90
        0
176
     0
290
     0
176
     0
290
     1
176
     0
290
     1
176
     0
290
     0
176
     0
290
     0
176
     0
290
     0
176
     0
290
     0
176
     0
290
     0
176
     0
290
     0
176
     0
 90
       50
176
     0
 40
0.0
176
     0
 40
1.0
176
     0
 90
        0
176
     0
 62
    18
420
        0
176
     0
 90
       50
176
     0
 90
        3
176
     0
 62
     5
420
      255
176
     0
290
     0
176
     0
 90
       50
176
     0
 90
       50
176
     0
 90
       50
176
     0
290
     0
176
     0
 90
       50
176
     0
 62
   256
176
     0
 40
1.0
176
     0
 90
        2
176
     0
  1
strokes_ogs.tif
176
     0
290
     0
176
     0
 40
1.0
176
     0
 40
1.0
176
     0
  0
VISUALSTYLE
  5
38
102
{ACAD_REACTORS
330
29
102
}
330
29
100
AcDbVisualStyle
  2
Facepattern
 70
    15
177
     3
291
     1
 70
    58
 90
        2
176
     1
 90
        2
176
     1
 90
        0
176
     1
 90
        0
176
     1
 40
0.6
176
     1
 40
30.0
176
     1
 62
     7
420
 16777215
176
     1
 90
        1
176
     1
 90
        4
176
     1
 62
     7
176
     1
 62
   257
176
     1
 90
        1
176
     1
 90
        1
176
     1
 40
1.0
176
     1
 90
        8
176
     1
 62
     7
176
     1
 40
1.0
176
     1
 90
        1
176
     1
 90
        6
176
     1
 90
        2
176
     1
 62
     7
176
     1
 90
        5
176
     1
 90
        0
176
     1
 90
        0
176
     1
290
     0
176
     1
 90
        1
176
     1
 40
0.0
176
     1
 90
        0
176
     1
290
     0
176
     1
290
     1
176
     1
290
     1
176
     1
290
     0
176
     1
290
     0
176
     1
290
     0
176
     1
290
     0
176
     1
290
     0
176
     1
290
     0
176
     1
 90
       50
176
     1
 40
0.0
176
     1
 40
1.0
176
     1
 90
        0
176
     1
 62
    18
420
        0
176
     1
 90
       50
176
     1
 90
        3
176
     1
 62
     5
420
      255
176
     1
290
     0
176
     1
 90
       50
176
     1
 90
       50
176
     1
 90
       50
176
     1
290
     0
176
     1
 90
       50
176
     1
 62
   256
176
     0
 40
1.0
176
     0
 90
        2
176
     1
  1
strokes_ogs.tif
176
     1
290
     0
176
     1
 40
1.0
176
     1
 40
1.0
176
     1
  0
VISUALSTYLE
  5
2A
102
{ACAD_REACTORS
330
29
102
}
330
29
100
AcDbVisualStyle
  2
Flat
 70
     0
177
     3
291
     1
 70
    58
 90
        2
176
     1
 90
        1
176
     1
 90
        1
176
     1
 90
        2
176
     1
 40
0.6
176
     1
 40
30.0
176
     1
 62
     7
420
 16777215
176
     1
 90
        0
176
     1
 90
        0
176
     1
 62
     7
176
     1
 62
   257
176
     1
 90
        1
176
     1
 90
        1
176
     1
 40
1.0
176
     1
 90
        8
176
     1
 62
     7
176
     1
 40
1.0
176
     1
 90
        1
176
     1
 90
        6
176
     1
 90
        2
176
     1
 62
     7
176
     1
 90
        5
176
     1
 90
        0
176
     1
 90
        0
176
     1
290
     0
176
     1
 90
       13
176
     1
 40
0.0
176
     1
 90
        0
176
     1
290
     0
176
     1
290
     1
176
     1
290
     1
176
     1
290
     0
176
     1
290
     0
176
     1
290
     0
176
     1
290
     0
176
     1
290
     0
176
     1
290
     0
176
     1
 90
       50
176
     1
 40
0.0
176
     1
 40
1.0
176
     1
 90
        0
176
     1
 62
    18
420
        0
176
     1
 90
       50
176
     1
 90
        3
176
     1
 62
     5
420
      255
176
     1
290
     0
176
     1
 90
       50
176
     1
 90
       50
176
     1
 90
       50
176
     1
290
     0
176
     1
 90
       50
176
     1
 62
   256
176
     0
 40
1.0
176
     0
 90
        2
176
     1
  1
strokes_ogs.tif
176
     1
290
     0
176
     1
 40
1.0
176
     1
 40
1.0
176
     1
  0
VISUALSTYLE
  5
2B
102
{ACAD_REACTORS
330
29
102
}
330
29
100
AcDbVisualStyle
  2
FlatWithEdges
 70
     1
177
     3
291
     1
 70
    58
 90
        2
176
     1
 90
        1
176
     1
 90
        1
176
     1
 90
        2
176
     1
 40
0.6
176
     1
 40
30.0
176
     1
 62
     7
420
 16777215
176
     1
 90
        1
176
     1
 90
        0
176
     1
 62
     7
176
     1
 62
   257
176
     1
 90
        1
176
     1
 90
        1
176
     1
 40
1.0
176
     1
 90
        0
176
     1
 62
   257
176
     1
 40
1.0
176
     1
 90
        1
176
     1
 90
        6
176
     1
 90
        2
176
     1
 62
     7
176
     1
 90
        5
176
     1
 90
        0
176
     1
 90
        0
176
     1
290
     0
176
     1
 90
       13
176
     1
 40
0.0
176
     1
 90
        0
176
     1
290
     0
176
     1
290
     1
176
     1
290
     1
176
     1
290
     0
176
     1
290
     0
176
     1
290
     0
176
     1
290
     0
176
     1
290
     0
176
     1
290
     0
176
     1
 90
       50
176
     1
 40
0.0
176
     1
 40
1.0
176
     1
 90
        0
176
     1
 62
    18
420
        0
176
     1
 90
       50
176
     1
 90
        3
176
     1
 62
     5
420
      255
176
     1
290
     0
176
     1
 90
       50
176
     1
 90
       50
176
     1
 90
       50
176
     1
290
     0
176
     1
 90
       50
176
     1
 62
   256
176
     0
 40
1.0
176
     0
 90
        2
176
     1
  1
strokes_ogs.tif
176
     1
290
     0
176
     1
 40
1.0
176
     1
 40
1.0
176
     1
  0
VISUALSTYLE
  5
2C
102
{ACAD_REACTORS
330
29
102
}
330
29
100
AcDbVisualStyle
  2
Gouraud
 70
     2
177
     3
291
     1
 70
    58
 90
        2
176
     1
 90
        2
176
     1
 90
        1
176
     1
 90
        2
176
     1
 40
0.6
176
     1
 40
30.0
176
     1
 62
     7
420
 16777215
176
     1
 90
        0
176
     1
 90
        0
176
     1
 62
     7
176
     1
 62
   257
176
     1
 90
        1
176
     1
 90
        1
176
     1
 40
1.0
176
     1
 90
        0
176
     1
 62
     7
176
     1
 40
1.0
176
     1
 90
        1
176
     1
 90
        6
176
     1
 90
        2
176
     1
 62
     7
176
     1
 90
        5
176
     1
 90
        0
176
     1
 90
        0
176
     1
290
     0
176
     1
 90
       13
176
     1
 40
0.0
176
     1
 90
        0
176
     1
290
     0
176
     1
290
     1
176
     1
290
     1
176
     1
290
     0
176
     1
290
     0
176
     1
290
     0
176
     1
290
     0
176
     1
290
     0
176
     1
290
     0
176
     1
 90
       50
176
     1
 40
0.0
176
     1
 40
1.0
176
     1
 90
        0
176
     1
 62
    18
420
        0
176
     1
 90
       50
176
     1
 90
        3
176
     1
 62
     5
420
      255
176
     1
290
     0
176
     1
 90
       50
176
     1
 90
       50
176
     1
 90
       50
176
     1
290
     0
176
     1
 90
       50
176
     1
 62
   256
176
     0
 40
1.0
176
     0
 90
        2
176
     1
  1
strokes_ogs.tif
176
     1
290
     0
176
     1
 40
1.0
176
     1
 40
1.0
176
     1
  0
VISUALSTYLE
  5
2D
102
{ACAD_REACTORS
330
29
102
}
330
29
100
AcDbVisualStyle
  2
GouraudWithEdges
 70
     3
177
     3
291
     1
 70
    58
 90
        2
176
     1
 90
        2
176
     1
 90
        1
176
     1
 90
        2
176
     1
 40
0.6
176
     1
 40
30.0
176
     1
 62
     7
420
 16777215
176
     1
 90
        1
176
     1
 90
        0
176
     1
 62
     7
176
     1
 62
   257
176
     1
 90
        1
176
     1
 90
        1
176
     1
 40
1.0
176
     1
 90
        0
176
     1
 62
   257
176
     1
 40
1.0
176
     1
 90
        1
176
     1
 90
        6
176
     1
 90
        2
176
     1
 62
     7
176
     1
 90
        5
176
     1
 90
        0
176
     1
 90
        0
176
     1
290
     0
176
     1
 90
       13
176
     1
 40
0.0
176
     1
 90
        0
176
     1
290
     0
176
     1
290
     1
176
     1
290
     1
176
     1
290
     0
176
     1
290
     0
176
     1
290
     0
176
     1
290
     0
176
     1
290
     0
176
     1
290
     0
176
     1
 90
       50
176
     1
 40
0.0
176
     1
 40
1.0
176
     1
 90
        0
176
     1
 62
    18
420
        0
176
     1
 90
       50
176
     1
 90
        3
176
     1
 62
     5
420
      255
176
     1
290
     0
176
     1
 90
       50
176
     1
 90
       50
176
     1
 90
       50
176
     1
290
     0
176
     1
 90
       50
176
     1
 62
   256
176
     0
 40
1.0
176
     0
 90
        2
176
     1
  1
strokes_ogs.tif
176
     1
290
     0
176
     1
 40
1.0
176
     1
 40
1.0
176
     1
  0
VISUALSTYLE
  5
31
102
{ACAD_REACTORS
330
29
102
}
330
29
100
AcDbVisualStyle
  2
Hidden
 70
     6
177
     3
291
     0
 70
    58
 90
        1
176
     1
 90
        2
176
     1
 90
        2
176
     1
 90
        0
176
     1
 40
0.6
176
     1
 40
30.0
176
     1
 62
     7
420
 16777215
176
     1
 90
        2
176
     1
 90
        2
176
     1
 62
     7
176
     1
 62
   257
176
     1
 90
        2
176
     1
 90
        1
176
     1
 40
40.0
176
     1
 90
        0
176
     1
 62
   257
176
     1
 40
1.0
176
     1
 90
        1
176
     1
 90
        6
176
     1
 90
        2
176
     1
 62
     7
176
     1
 90
        3
176
     1
 90
        0
176
     1
 90
        0
176
     1
290
     0
176
     1
 90
        1
176
     1
 40
0.0
176
     1
 90
        0
176
     1
290
     0
176
     1
290
     1
176
     1
290
     1
176
     1
290
     0
176
     1
290
     0
176
     1
290
     0
176
     1
290
     0
176
     1
290
     0
176
     1
290
     0
176
     1
 90
       50
176
     1
 40
0.0
176
     1
 40
1.0
176
     1
 90
        0
176
     1
 62
    18
420
        0
176
     1
 90
       50
176
     1
 90
        3
176
     1
 62
     5
420
      255
176
     1
290
     0
176
     1
 90
       50
176
     1
 90
       50
176
     1
 90
       50
176
     1
290
     0
176
     1
 90
       50
176
     1
 62
   256
176
     0
 40
1.0
176
     0
 90
        2
176
     1
  1
strokes_ogs.tif
176
     1
290
     0
176
     1
 40
1.0
176
     1
 40
1.0
176
     1
  0
VISUALSTYLE
  5
3F
102
{ACAD_REACTORS
330
29
102
}
330
29
100
AcDbVisualStyle
  2
JitterOff
 70
    20
177
     3
291
     1
 70
    58
 90
        2
176
     0
 90
        2
176
     0
 90
        0
176
     0
 90
        0
176
     0
 40
0.6
176
     0
 40
30.0
176
     0
 62
     7
420
 16777215
176
     0
 90
        1
176
     0
 90
        4
176
     0
 62
     7
176
     0
 62
   257
176
     0
 90
        1
176
     0
 90
        1
176
     0
 40
1.0
176
     0
 90
       10
176
     2
 62
     7
176
     0
 40
1.0
176
     0
 90
        1
176
     0
 90
        6
176
     0
 90
        2
176
     0
 62
     7
176
     0
 90
        5
176
     0
 90
        0
176
     0
 90
        0
176
     0
290
     0
176
     0
 90
        1
176
     0
 40
0.0
176
     0
 90
        0
176
     0
290
     0
176
     0
290
     1
176
     0
290
     1
176
     0
290
     0
176
     0
290
     0
176
     0
290
     0
176
     0
290
     0
176
     0
290
     0
176
     0
290
     0
176
     0
 90
       50
176
     0
 40
0.0
176
     0
 40
1.0
176
     0
 90
        0
176
     0
 62
    18
420
        0
176
     0
 90
       50
176
     0
 90
        3
176
     0
 62
     5
420
      255
176
     0
290
     0
176
     0
 90
       50
176
     0
 90
       50
176
     0
 90
       50
176
     0
290
     0
176
     0
 90
       50
176
     0
 62
   256
176
     0
 40
1.0
176
     0
 90
        2
176
     0
  1
strokes_ogs.tif
176
     0
290
     0
176
     0
 40
1.0
176
     0
 40
1.0
176
     0
  0
VISUALSTYLE
  5
37
102
{ACAD_REACTORS
330
29
102
}
330
29
100
AcDbVisualStyle
  2
Linepattern
 70
    14
177
     3
291
     1
 70
    58
 90
        2
176
     1
 90
        2
176
     1
 90
        0
176
     1
 90
        0
176
     1
 40
0.6
176
     1
 40
30.0
176
     1
 62
     7
420
 16777215
176
     1
 90
        1
176
     1
 90
        4
176
     1
 62
     7
176
     1
 62
   257
176
     1
 90
        7
176
     1
 90
        7
176
     1
 40
1.0
176
     1
 90
        8
176
     1
 62
     7
176
     1
 40
1.0
176
     1
 90
        1
176
     1
 90
        6
176
     1
 90
        2
176
     1
 62
     7
176
     1
 90
        5
176
     1
 90
        0
176
     1
 90
        0
176
     1
290
     0
176
     1
 90
        1
176
     1
 40
0.0
176
     1
 90
        0
176
     1
290
     0
176
     1
290
     1
176
     1
290
     1
176
     1
290
     0
176
     1
290
     0
176
     1
290
     0
176
     1
290
     0
176
     1
290
     0
176
     1
290
     0
176
     1
 90
       50
176
     1
 40
0.0
176
     1
 40
1.0
176
     1
 90
        0
176
     1
 62
    18
420
        0
176
     1
 90
       50
176
     1
 90
        3
176
     1
 62
     5
420
      255
176
     1
290
     0
176
     1
 90
       50
176
     1
 90
       50
176
     1
 90
       50
176
     1
290
     0
176
     1
 90
       50
176
     1
 62
   256
176
     0
 40
1.0
176
     0
 90
        2
176
     1
  1
strokes_ogs.tif
176
     1
290
     0
176
     1
 40
1.0
176
     1
 40
1.0
176
     1
  0
VISUALSTYLE
  5
40
102
{ACAD_REACTORS
330
29
102
}
330
29
100
AcDbVisualStyle
  2
OverhangOff
 70
    21
177
     3
291
     1
 70
    58
 90
        2
176
     0
 90
        2
176
     0
 90
        0
176
     0
 90
        0
176
     0
 40
0.6
176
     0
 40
30.0
176
     0
 62
     7
420
 16777215
176
     0
 90
        1
176
     0
 90
        4
176
     0
 62
     7
176
     0
 62
   257
176
     0
 90
        1
176
     0
 90
        1
176
     0
 40
1.0
176
     0
 90
        9
176
     2
 62
     7
176
     0
 40
1.0
176
     0
 90
        1
176
     0
 90
        6
176
     0
 90
        2
176
     0
 62
     7
176
     0
 90
        5
176
     0
 90
        0
176
     0
 90
        0
176
     0
290
     0
176
     0
 90
        1
176
     0
 40
0.0
176
     0
 90
        0
176
     0
290
     0
176
     0
290
     1
176
     0
290
     1
176
     0
290
     0
176
     0
290
     0
176
     0
290
     0
176
     0
290
     0
176
     0
290
     0
176
     0
290
     0
176
     0
 90
       50
176
     0
 40
0.0
176
     0
 40
1.0
176
     0
 90
        0
176
     0
 62
    18
420
        0
176
     0
 90
       50
176
     0
 90
        3
176
     0
 62
     5
420
      255
176
     0
290
     0
176
     0
 90
       50
176
     0
 90
       50
176
     0
 90
       50
176
     0
290
     0
176
     0
 90
       50
176
     0
 62
   256
176
     0
 40
1.0
176
     0
 90
        2
176
     0
  1
strokes_ogs.tif
176
     0
290
     0
176
     0
 40
1.0
176
     0
 40
1.0
176
     0
  0
VISUALSTYLE
  5
33
102
{ACAD_REACTORS
330
29
102
}
330
29
100
AcDbVisualStyle
  2
Realistic
 70
     8
177
     3
291
     0
 70
    58
 90
        2
176
     1
 90
        3
176
     1
 90
        0
176
     1
 90
        2
176
     1
 40
0.6
176
     1
 40
30.0
176
     1
 62
     7
420
 16777215
176
     1
 90
        0
176
     1
 90
        0
176
     1
 62
     7
176
     1
 62
   257
176
     1
 90
        1
176
     1
 90
        1
176
     1
 40
1.0
176
     1
 90
        8
176
     1
 62
   257
176
     1
 40
1.0
176
     1
 90
        1
176
     1
 90
        6
176
     1
 90
        2
176
     1
 62
     7
176
     1
 90
        3
176
     1
 90
        0
176
     1
 90
        0
176
     1
290
     0
176
     1
 90
       13
176
     1
 40
0.0
176
     1
 90
        0
176
     1
290
     0
176
     1
290
     1
176
     1
290
     1
176
     1
290
     0
176
     1
290
     0
176
     1
290
     0
176
     1
290
     0
176
     1
290
     0
176
     1
290
     0
176
     1
 90
       50
176
     1
 40
0.0
176
     1
 40
1.0
176
     1
 90
        0
176
     1
 62
    18
420
        0
176
     1
 90
       50
176
     1
 90
        3
176
     1
 62
     5
420
      255
176
     1
290
     0
176
     1
 90
       50
176
     1
 90
       50
176
     1
 90
       50
176
     1
290
     0
176
     1
 90
       50
176
     1
 62
   256
176
     0
 40
1.0
176
     0
 90
        2
176
     1
  1
strokes_ogs.tif
176
     1
290
     0
176
     1
 40
1.0
176
     1
 40
1.0
176
     1
  0
VISUALSTYLE
  5
3E
102
{ACAD_REACTORS
330
29
102
}
330
29
100
AcDbVisualStyle
  2
Shaded
 70
    27
177
     3
291
     0
 70
    58
 90
        2
176
     1
 90
        2
176
     1
 90
        1
176
     1
 90
        2
176
     1
 40
0.6
176
     1
 40
30.0
176
     1
 62
     7
420
 16777215
176
     1
 90
        0
176
     1
 90
        4
176
     1
 62
     7
176
     1
 62
   257
176
     1
 90
        1
176
     1
 90
        1
176
     1
 40
1.0
176
     1
 90
        8
176
     1
 62
   257
176
     1
 40
1.0
176
     1
 90
        1
176
     1
 90
        6
176
     1
 90
        2
176
     1
 62
     8
420
  7895160
176
     1
 90
        3
176
     1
 90
        0
176
     1
 90
        0
176
     1
290
     0
176
     1
 90
        5
176
     1
 40
0.0
176
     1
 90
        0
176
     1
290
     0
176
     1
290
     1
176
     1
290
     1
176
     1
290
     0
176
     1
290
     0
176
     1
290
     0
176
     1
290
     0
176
     1
290
     0
176
     1
290
     0
176
     1
 90
       50
176
     1
 40
0.0
176
     1
 40
1.0
176
     1
 90
        0
176
     1
 62
    18
420
        0
176
     1
 90
       50
176
     1
 90
        3
176
     1
 62
     5
420
      255
176
     1
290
     0
176
     1
 90
       50
176
     1
 90
       50
176
     1
 90
       50
176
     1
290
     0
176
     1
 90
       50
176
     1
 62
   256
176
     0
 40
1.0
176
     0
 90
        2
176
     1
  1
strokes_ogs.tif
176
     1
290
     0
176
     1
 40
1.0
176
     1
 40
1.0
176
     1
  0
VISUALSTYLE
  5
3D
102
{ACAD_REACTORS
330
29
102
}
330
29
100
AcDbVisualStyle
  2
Shaded with edges
 70
    26
177
     3
291
     0
 70
    58
 90
        2
176
     1
 90
        2
176
     1
 90
        1
176
     1
 90
        2
176
     1
 40
0.6
176
     1
 40
30.0
176
     1
 62
     7
420
 16777215
176
     1
 90
        1
176
     1
 90
        2
176
     1
 62
     7
176
     1
 62
   257
176
     1
 90
        2
176
     1
 90
        1
176
     1
 40
1.0
176
     1
 90
        8
176
     1
 62
   257
176
     1
 40
1.0
176
     1
 90
        1
176
     1
 90
        6
176
     1
 90
        2
176
     1
 62
     7
176
     1
 90
        3
176
     1
 90
        0
176
     1
 90
        0
176
     1
290
     0
176
     1
 90
        5
176
     1
 40
0.0
176
     1
 90
        0
176
     1
290
     0
176
     1
290
     1
176
     1
290
     1
176
     1
290
     0
176
     1
290
     0
176
     1
290
     0
176
     1
290
     0
176
     1
290
     0
176
     1
290
     0
176
     1
 90
       50
176
     1
 40
0.0
176
     1
 40
1.0
176
     1
 90
        0
176
     1
 62
    18
420
        0
176
     1
 90
       50
176
     1
 90
        3
176
     1
 62
     5
420
      255
176
     1
290
     0
176
     1
 90
       50
176
     1
 90
       50
176
     1
 90
       50
176
     1
290
     0
176
     1
 90
       50
176
     1
 62
   256
176
     0
 40
1.0
176
     0
 90
        2
176
     1
  1
strokes_ogs.tif
176
     1
290
     0
176
     1
 40
1.0
176
     1
 40
1.0
176
     1
  0
VISUALSTYLE
  5
3A
102
{ACAD_REACTORS
330
29
102
}
330
29
100
AcDbVisualStyle
  2
Shades of Gray
 70
    23
177
     3
291
     0
 70
    58
 90
        2
176
     1
 90
        2
176
     1
 90
        3
176
     1
 90
        0
176
     1
 40
0.6
176
     1
 40
30.0
176
     1
 62
     7
420
 16777215
176
     1
 90
        2
176
     1
 90
        2
176
     1
 62
     7
176
     1
 62
     7
176
     1
 90
        1
176
     1
 90
        1
176
     1
 40
40.0
176
     1
 90
        8
176
     1
 62
     7
176
     1
 40
1.0
176
     1
 90
        1
176
     1
 90
        6
176
     1
 90
        2
176
     1
 62
     7
176
     1
 90
        3
176
     1
 90
        0
176
     1
 90
        0
176
     1
290
     0
176
     1
 90
        1
176
     1
 40
0.0
176
     1
 90
        0
176
     1
290
     0
176
     1
290
     1
176
     1
290
     1
176
     1
290
     0
176
     1
290
     0
176
     1
290
     0
176
     1
290
     0
176
     1
290
     0
176
     1
290
     0
176
     1
 90
       50
176
     1
 40
0.0
176
     1
 40
1.0
176
     1
 90
        0
176
     1
 62
    18
420
        0
176
     1
 90
       50
176
     1
 90
        3
176
     1
 62
     5
420
      255
176
     1
290
     0
176
     1
 90
       50
176
     1
 90
       50
176
     1
 90
       50
176
     1
290
     0
176
     1
 90
       50
176
     1
 62
   256
176
     0
 40
1.0
176
     0
 90
        2
176
     1
  1
strokes_ogs.tif
176
     1
290
     0
176
     1
 40
1.0
176
     1
 40
1.0
176
     1
  0
VISUALSTYLE
  5
3B
102
{ACAD_REACTORS
330
29
102
}
330
29
100
AcDbVisualStyle
  2
Sketchy
 70
    24
177
     3
291
     0
 70
    58
 90
        1
176
     1
 90
        2
176
     1
 90
        2
176
     1
 90
        0
176
     1
 40
0.6
176
     1
 40
30.0
176
     1
 62
     7
420
 16777215
176
     1
 90
        2
176
     1
 90
        2
176
     1
 62
     7
176
     1
 62
     7
176
     1
 90
        1
176
     1
 90
        1
176
     1
 40
40.0
176
     1
 90
       11
176
     1
 62
     7
176
     1
 40
1.0
176
     1
 90
        1
176
     1
 90
        6
176
     1
 90
        2
176
     1
 62
     7
176
     1
 90
        6
176
     1
 90
        0
176
     1
 90
        0
176
     1
290
     0
176
     1
 90
        1
176
     1
 40
0.0
176
     1
 90
        0
176
     1
290
     0
176
     1
290
     1
176
     1
290
     1
176
     1
290
     0
176
     1
290
     0
176
     1
290
     0
176
     1
290
     0
176
     1
290
     0
176
     1
290
     0
176
     1
 90
       50
176
     1
 40
0.0
176
     1
 40
1.0
176
     1
 90
        0
176
     1
 62
    18
420
        0
176
     1
 90
       50
176
     1
 90
        3
176
     1
 62
     5
420
      255
176
     1
290
     0
176
     1
 90
       50
176
     1
 90
       50
176
     1
 90
       50
176
     1
290
     0
176
     1
 90
       50
176
     1
 62
   256
176
     0
 40
1.0
176
     0
 90
        2
176
     1
  1
strokes_ogs.tif
176
     1
290
     0
176
     1
 40
1.0
176
     1
 40
1.0
176
     1
  0
VISUALSTYLE
  5
36
102
{ACAD_REACTORS
330
29
102
}
330
29
100
AcDbVisualStyle
  2
Thicken
 70
    13
177
     3
291
     1
 70
    58
 90
        2
176
     1
 90
        2
176
     1
 90
        0
176
     1
 90
        0
176
     1
 40
0.6
176
     1
 40
30.0
176
     1
 62
     7
420
 16777215
176
     1
 90
        1
176
     1
 90
        4
176
     1
 62
     7
176
     1
 62
   257
176
     1
 90
        1
176
     1
 90
        1
176
     1
 40
1.0
176
     1
 90
       12
176
     1
 62
     7
176
     1
 40
1.0
176
     1
 90
        1
176
     1
 90
        6
176
     1
 90
        2
176
     1
 62
     7
176
     1
 90
        5
176
     1
 90
        0
176
     1
 90
        0
176
     1
290
     0
176
     1
 90
        1
176
     1
 40
0.0
176
     1
 90
        0
176
     1
290
     0
176
     1
290
     1
176
     1
290
     1
176
     1
290
     0
176
     1
290
     0
176
     1
290
     0
176
     1
290
     0
176
     1
290
     0
176
     1
290
     0
176
     1
 90
       50
176
     1
 40
0.0
176
     1
 40
1.0
176
     1
 90
        0
176
     1
 62
    18
420
        0
176
     1
 90
       50
176
     1
 90
        3
176
     1
 62
     5
420
      255
176
     1
290
     0
176
     1
 90
       50
176
     1
 90
       50
176
     1
 90
       50
176
     1
290
     0
176
     1
 90
       50
176
     1
 62
   256
176
     0
 40
1.0
176
     0
 90
        2
176
     1
  1
strokes_ogs.tif
176
     1
290
     0
176
     1
 40
1.0
176
     1
 40
1.0
176
     1
  0
VISUALSTYLE
  5
30
102
{ACAD_REACTORS
330
29
102
}
330
29
100
AcDbVisualStyle
  2
Wireframe
 70
     5
177
     3
291
     0
 70
    58
 90
        0
176
     1
 90
        2
176
     1
 90
        0
176
     1
 90
        0
176
     1
 40
0.6
176
     1
 40
30.0
176
     1
 62
     7
420
 16777215
176
     1
 90
        1
176
     1
 90
        4
176
     1
 62
     7
176
     1
 62
   257
176
     1
 90
        1
176
     1
 90
        1
176
     1
 40
1.0
176
     1
 90
        0
176
     1
 62
   257
176
     1
 40
1.0
176
     1
 90
        1
176
     1
 90
        6
176
     1
 90
        2
176
     1
 62
     7
176
     1
 90
        3
176
     1
 90
        0
176
     1
 90
        0
176
     1
290
     0
176
     1
 90
        1
176
     1
 40
0.0
176
     1
 90
        0
176
     1
290
     0
176
     1
290
     1
176
     1
290
     1
176
     1
290
     0
176
     1
290
     0
176
     1
290
     0
176
     1
290
     0
176
     1
290
     0
176
     1
290
     0
176
     1
 90
       50
176
     1
 40
0.0
176
     1
 40
1.0
176
     1
 90
        0
176
     1
 62
    18
420
        0
176
     1
 90
       50
176
     1
 90
        3
176
     1
 62
     5
420
      255
176
     1
290
     0
176
     1
 90
       50
176
     1
 90
       50
176
     1
 90
       50
176
     1
290
     0
176
     1
 90
       50
176
     1
 62
   256
176
     0
 40
1.0
176
     0
 90
        2
176
     1
  1
strokes_ogs.tif
176
     1
290
     0
176
     1
 40
1.0
176
     1
 40
1.0
176
     1
  0
VISUALSTYLE
  5
3C
102
{ACAD_REACTORS
330
29
102
}
330
29
100
AcDbVisualStyle
  2
X-Ray
 70
    25
177
     3
291
     0
 70
    58
 90
        2
176
     1
 90
        2
176
     1
 90
        1
176
     1
 90
        1
176
     1
 40
0.5
176
     1
 40
30.0
176
     1
 62
     7
420
 16777215
176
     1
 90
        1
176
     1
 90
        0
176
     1
 62
     7
176
     1
 62
   257
176
     1
 90
        1
176
     1
 90
        1
176
     1
 40
1.0
176
     1
 90
        8
176
     1
 62
     7
176
     1
 40
1.0
176
     1
 90
        1
176
     1
 90
        6
176
     1
 90
        2
176
     1
 62
     7
176
     1
 90
        3
176
     1
 90
        0
176
     1
 90
        0
176
     1
290
     0
176
     1
 90
       13
176
     1
 40
0.0
176
     1
 90
        0
176
     1
290
     0
176
     1
290
     1
176
     1
290
     1
176
     1
290
     0
176
     1
290
     0
176
     1
290
     0
176
     1
290
     0
176
     1
290
     0
176
     1
290
     0
176
     1
 90
       50
176
     1
 40
0.0
176
     1
 40
1.0
176
     1
 90
        0
176
     1
 62
    18
420
        0
176
     1
 90
       50
176
     1
 90
        3
176
     1
 62
     5
420
      255
176
     1
290
     0
176
     1
 90
       50
176
     1
 90
       50
176
     1
 90
       50
176
     1
290
     0
176
     1
 90
       50
176
     1
 62
   256
176
     0
 40
1.0
176
     0
 90
        2
176
     1
  1
strokes_ogs.tif
176
     1
290
     0
176
     1
 40
1.0
176
     1
 40
1.0
176
     1
  0
DICTIONARYVAR
  5
80
102
{ACAD_REACTORS
330
7B
102
}
330
7B
100
DictionaryVariables
280
     0
  1
1:1
  0
DICTIONARYVAR
  5
7D
102
{ACAD_REACTORS
330
7B
102
}
330
7B
100
DictionaryVariables
280
     0
  1
STANDARD
  0
DICTIONARYVAR
  5
7C
102
{ACAD_REACTORS
330
7B
102
}
330
7B
100
DictionaryVariables
280
     0
  1
STANDARD
  0
DICTIONARYVAR
  5
7E
102
{ACAD_REACTORS
330
7B
102
}
330
7B
100
DictionaryVariables
280
     0
  1
Imperial24
  0
DICTIONARYVAR
  5
7F
102
{ACAD_REACTORS
330
7B
102
}
330
7B
100
DictionaryVariables
280
     0
  1
Imperial24
  0
XRECORD
  5
1BE
102
{ACAD_REACTORS
330
1B7
102
}
330
1B7
100
AcDbXrecord
280
     1
  1
BUILDING_ID
  1
686001_HCMFP-McCormick_A25
  1
FLOOR_ID
  1
5276069
  0
XRECORD
  5
1BC
102
{ACAD_REACTORS
330
1B7
102
}
330
1B7
100
AcDbXrecord
280
     1
  1
-2000011
  1
Walls
  1
-2000120
  1
Stairs
  1
-2000126
  1
Railings
  1
-2000170
  1
Curtain Panels
  1
-2000171
  1
Curtain Wall Mullions
  1
-2000829
  1
Room Polylines
  0
XRECORD
  5
1B8
102
{ACAD_REACTORS
330
1B7
102
}
330
1B7
100
AcDbXrecord
280
     1
  1
2d493b10-bebe-499d-838d-4aeb5b214033
  0
XRECORD
  5
1BD
102
{ACAD_REACTORS
330
1B7
102
}
330
1B7
100
AcDbXrecord
280
     1
  1
-2000128
  1
Rails
  1
-2000932
  1
Nosing Lines
  1
-2000934
  1
Outlines
  1
-2000952
  1
Supports
  0
XRECORD
  5
1BB
102
{ACAD_REACTORS
330
1B7
102
}
330
1B7
100
AcDbXrecord
280
     1
  1
1969
  1
Railing : Railing 1
  1
44989
  1
Assembled Stair : 7" max riser 11" tread
  1
5142885
  1
Basic Wall : *Generic - 16" : *Generic - 16"
  1
639164
  1
Basic Wall : *Generic - 12" : *Generic - 12"
  1
639165
  1
Basic Wall : *Generic - 5" : *Generic - 5"
  1
645966
  1
System Panel : zGlazed
  1
646104
  1
Rectangular Mullion : 4 1/2" x 2" Rectangular(CE)
  1
646107
  1
Rectangular Mullion : 6" x 2" Rectangular(CE)
  0
DICTIONARY
  5
1A
330
19
100
AcDbDictionary
280
     1
281
     1
  3
BUMPTILE
360
1C
  3
DIFFUSETILE
360
1B
  3
OPACITYTILE
360
1F
  3
REFLECTIONTILE
360
1E
  3
REFRACTIONTILE
360
20
  3
SPECULARTILE
360
1D
  0
DICTIONARY
  5
12
330
11
100
AcDbDictionary
280
     1
281
     1
  3
BUMPTILE
360
14
  3
DIFFUSETILE
360
13
  3
OPACITYTILE
360
17
  3
REFLECTIONTILE
360
16
  3
REFRACTIONTILE
360
18
  3
SPECULARTILE
360
15
  0
DICTIONARY
  5
22
330
21
100
AcDbDictionary
280
     1
281
     1
  3
BUMPTILE
360
24
  3
DIFFUSETILE
360
23
  3
OPACITYTILE
360
27
  3
REFLECTIONTILE
360
26
  3
REFRACTIONTILE
360
28
  3
SPECULARTILE
360
25
  0
DICTIONARY
  5
1C1
330
65
100
AcDbDictionary
280
     1
281
     1
  3
ACAD_ROUNDTRIP_2008_TABLESTYLE_CELLSTYLEMAP
360
1C2
  0
XRECORD
  5
1C
102
{ACAD_REACTORS
330
1A
102
}
330
1A
100
AcDbXrecord
280
     1
270
     1
271
     1
  0
XRECORD
  5
1B
102
{ACAD_REACTORS
330
1A
102
}
330
1A
100
AcDbXrecord
280
     1
270
     1
271
     1
  0
XRECORD
  5
1F
102
{ACAD_REACTORS
330
1A
102
}
330
1A
100
AcDbXrecord
280
     1
270
     1
271
     1
  0
XRECORD
  5
1E
102
{ACAD_REACTORS
330
1A
102
}
330
1A
100
AcDbXrecord
280
     1
270
     1
271
     1
  0
XRECORD
  5
20
102
{ACAD_REACTORS
330
1A
102
}
330
1A
100
AcDbXrecord
280
     1
270
     1
271
     1
  0
XRECORD
  5
1D
102
{ACAD_REACTORS
330
1A
102
}
330
1A
100
AcDbXrecord
280
     1
270
     1
271
     1
  0
XRECORD
  5
14
102
{ACAD_REACTORS
330
12
102
}
330
12
100
AcDbXrecord
280
     1
270
     1
271
     1
  0
XRECORD
  5
13
102
{ACAD_REACTORS
330
12
102
}
330
12
100
AcDbXrecord
280
     1
270
     1
271
     1
  0
XRECORD
  5
17
102
{ACAD_REACTORS
330
12
102
}
330
12
100
AcDbXrecord
280
     1
270
     1
271
     1
  0
XRECORD
  5
16
102
{ACAD_REACTORS
330
12
102
}
330
12
100
AcDbXrecord
280
     1
270
     1
271
     1
  0
XRECORD
  5
18
102
{ACAD_REACTORS
330
12
102
}
330
12
100
AcDbXrecord
280
     1
270
     1
271
     1
  0
XRECORD
  5
15
102
{ACAD_REACTORS
330
12
102
}
330
12
100
AcDbXrecord
280
     1
270
     1
271
     1
  0
XRECORD
  5
24
102
{ACAD_REACTORS
330
22
102
}
330
22
100
AcDbXrecord
280
     1
270
     1
271
     1
  0
XRECORD
  5
23
102
{ACAD_REACTORS
330
22
102
}
330
22
100
AcDbXrecord
280
     1
270
     1
271
     1
  0
XRECORD
  5
27
102
{ACAD_REACTORS
330
22
102
}
330
22
100
AcDbXrecord
280
     1
270
     1
271
     1
  0
XRECORD
  5
26
102
{ACAD_REACTORS
330
22
102
}
330
22
100
AcDbXrecord
280
     1
270
     1
271
     1
  0
XRECORD
  5
28
102
{ACAD_REACTORS
330
22
102
}
330
22
100
AcDbXrecord
280
     1
270
     1
271
     1
  0
XRECORD
  5
25
102
{ACAD_REACTORS
330
22
102
}
330
22
100
AcDbXrecord
280
     1
270
     1
271
     1
  0
CELLSTYLEMAP
  5
1C2
102
{ACAD_REACTORS
330
1C1
102
}
330
1C1
100
AcDbCellStyleMap
 90
        3
300
CELLSTYLE
  1
TABLEFORMAT_BEGIN
 90
        5
170
     1
 91
        0
 92
    32768
 62
   257
 93
        1
300
CONTENTFORMAT
  1
CONTENTFORMAT_BEGIN
 90
        0
 91
        0
 92
      512
 93
        0
300

 40
0.0
140
1.0
 94
        5
 62
     0
340
55
144
0.25
309
CONTENTFORMAT_END
171
     0
 94
        0
309
TABLEFORMAT_END
  1
CELLSTYLE_BEGIN
 90
        1
 91
        1
300
_TITLE
309
CELLSTYLE_END
300
CELLSTYLE
  1
TABLEFORMAT_BEGIN
 90
        5
170
     1
 91
        0
 92
        0
 62
   257
 93
        1
300
CONTENTFORMAT
  1
CONTENTFORMAT_BEGIN
 90
        0
 91
        0
 92
      512
 93
        0
300

 40
0.0
140
1.0
 94
        5
 62
     0
340
55
144
0.18
309
CONTENTFORMAT_END
171
     0
 94
        0
309
TABLEFORMAT_END
  1
CELLSTYLE_BEGIN
 90
        2
 91
        1
300
_HEADER
309
CELLSTYLE_END
300
CELLSTYLE
  1
TABLEFORMAT_BEGIN
 90
        5
170
     1
 91
        0
 92
        0
 62
   257
 93
        1
300
CONTENTFORMAT
  1
CONTENTFORMAT_BEGIN
 90
        0
 91
        0
 92
      512
 93
        0
300

 40
0.0
140
1.0
 94
        2
 62
     0
340
55
144
0.18
309
CONTENTFORMAT_END
171
     0
 94
        0
309
TABLEFORMAT_END
  1
CELLSTYLE_BEGIN
 90
        3
 91
        2
300
_DATA
309
CELLSTYLE_END
  0
ENDSEC
  0
EOF
