  0
SECTION
  2
HEADER
  9
$ACADVER
  1
AC1032
  9
$ACADMAINTVER
 90
      321
  9
$DWGCODEPAGE
  3
ANSI_1252
  9
$REQUIREDVERSIONS
160
                 0
  9
$INSBASE
 10
0.0
 20
0.0
 30
0.0
  9
$EXTMIN
 10
-1199.000528253808
 20
-1388.025263920941
 30
0.0
  9
$EXTMAX
 10
1455.437914754709
 20
84.40808124673356
 30
0.0
  9
$LIMMIN
 10
0.0
 20
0.0
  9
$LIMMAX
 10
12.0
 20
9.0
  9
$ORTHOMODE
 70
     0
  9
$REGENMODE
 70
     1
  9
$FILLMODE
 70
     1
  9
$QTEXTMODE
 70
     0
  9
$MIRRTEXT
 70
     0
  9
$LTSCALE
 40
1.0
  9
$ATTMODE
 70
     1
  9
$TEXTSIZE
 40
0.2
  9
$TRACEWID
 40
0.05
  9
$TEXTSTYLE
  7
Standard
  9
$CLAYER
  8
0
  9
$CELTYPE
  6
ByLayer
  9
$CECOLOR
 62
   256
  9
$CELTSCALE
 40
1.0
  9
$DISPSILH
 70
     0
  9
$DIMSCALE
 40
1.0
  9
$DIMASZ
 40
0.18
  9
$DIMEXO
 40
0.0625
  9
$DIMDLI
 40
0.38
  9
$DIMRND
 40
0.0
  9
$DIMDLE
 40
0.0
  9
$DIMEXE
 40
0.18
  9
$DIMTP
 40
0.0
  9
$DIMTM
 40
0.0
  9
$DIMTXT
 40
0.18
  9
$DIMCEN
 40
0.09
  9
$DIMTSZ
 40
0.0
  9
$DIMTOL
 70
     0
  9
$DIMLIM
 70
     0
  9
$DIMTIH
 70
     1
  9
$DIMTOH
 70
     1
  9
$DIMSE1
 70
     0
  9
$DIMSE2
 70
     0
  9
$DIMTAD
 70
     0
  9
$DIMZIN
 70
     0
  9
$DIMBLK
  1

  9
$DIMASO
 70
     1
  9
$DIMSHO
 70
     1
  9
$DIMPOST
  1

  9
$DIMAPOST
  1

  9
$DIMALT
 70
     0
  9
$DIMALTD
 70
     2
  9
$DIMALTF
 40
25.4
  9
$DIMLFAC
 40
1.0
  9
$DIMTOFL
 70
     0
  9
$DIMTVP
 40
0.0
  9
$DIMTIX
 70
     0
  9
$DIMSOXD
 70
     0
  9
$DIMSAH
 70
     0
  9
$DIMBLK1
  1

  9
$DIMBLK2
  1

  9
$DIMSTYLE
  2
Standard
  9
$DIMCLRD
 70
     0
  9
$DIMCLRE
 70
     0
  9
$DIMCLRT
 70
     0
  9
$DIMTFAC
 40
1.0
  9
$DIMGAP
 40
0.09
  9
$DIMJUST
 70
     0
  9
$DIMSD1
 70
     0
  9
$DIMSD2
 70
     0
  9
$DIMTOLJ
 70
     1
  9
$DIMTZIN
 70
     0
  9
$DIMALTZ
 70
     0
  9
$DIMALTTZ
 70
     0
  9
$DIMUPT
 70
     0
  9
$DIMDEC
 70
     4
  9
$DIMTDEC
 70
     4
  9
$DIMALTU
 70
     4
  9
$DIMALTTD
 70
     2
  9
$DIMTXSTY
  7
Standard
  9
$DIMAUNIT
 70
     0
  9
$DIMADEC
 70
     0
  9
$DIMALTRND
 40
0.0
  9
$DIMAZIN
 70
     0
  9
$DIMDSEP
 70
    46
  9
$DIMATFIT
 70
     3
  9
$DIMFRAC
 70
     0
  9
$DIMLDRBLK
  1

  9
$DIMLUNIT
 70
     4
  9
$DIMLWD
 70
    -2
  9
$DIMLWE
 70
    -2
  9
$DIMTMOVE
 70
     0
  9
$DIMFXL
 40
1.0
  9
$DIMFXLON
 70
     0
  9
$DIMJOGANG
 40
0.7853981633974483
  9
$DIMTFILL
 70
     0
  9
$DIMTFILLCLR
 70
     0
  9
$DIMARCSYM
 70
     0
  9
$DIMLTYPE
  6

  9
$DIMLTEX1
  6

  9
$DIMLTEX2
  6

  9
$DIMTXTDIRECTION
 70
     0
  9
$LUNITS
 70
     4
  9
$LUPREC
 70
     4
  9
$SKETCHINC
 40
0.1
  9
$FILLETRAD
 40
0.0
  9
$AUNITS
 70
     0
  9
$AUPREC
 70
     0
  9
$MENU
  1
.
  9
$ELEVATION
 40
0.0
  9
$PELEVATION
 40
0.0
  9
$THICKNESS
 40
0.0
  9
$LIMCHECK
 70
     0
  9
$CHAMFERA
 40
0.0
  9
$CHAMFERB
 40
0.0
  9
$CHAMFERC
 40
0.0
  9
$CHAMFERD
 40
0.0
  9
$SKPOLY
 70
     0
  9
$TDCREATE
 40
2461071.410219907
  9
$TDUCREATE
 40
2461071.660219907
  9
$TDUPDATE
 40
2461071.410219907
  9
$TDUUPDATE
 40
2461071.660219907
  9
$TDINDWG
 40
0.0000000000
  9
$TDUSRTIMER
 40
0.0000000000
  9
$USRTIMER
 70
     1
  9
$ANGBASE
 50
0.0
  9
$ANGDIR
 70
     0
  9
$PDMODE
 70
     0
  9
$PDSIZE
 40
0.0
  9
$PLINEWID
 40
0.0
  9
$SPLFRAME
 70
     0
  9
$SPLINETYPE
 70
     6
  9
$SPLINESEGS
 70
     8
  9
$HANDSEED
  5
247
  9
$SURFTAB1
 70
     6
  9
$SURFTAB2
 70
     6
  9
$SURFTYPE
 70
     6
  9
$SURFU
 70
     6
  9
$SURFV
 70
     6
  9
$UCSBASE
  2

  9
$UCSNAME
  2

  9
$UCSORG
 10
0.0
 20
0.0
 30
0.0
  9
$UCSXDIR
 10
1.0
 20
0.0
 30
0.0
  9
$UCSYDIR
 10
0.0
 20
1.0
 30
0.0
  9
$UCSORTHOREF
  2

  9
$UCSORTHOVIEW
 70
     0
  9
$UCSORGTOP
 10
0.0
 20
0.0
 30
0.0
  9
$UCSORGBOTTOM
 10
0.0
 20
0.0
 30
0.0
  9
$UCSORGLEFT
 10
0.0
 20
0.0
 30
0.0
  9
$UCSORGRIGHT
 10
0.0
 20
0.0
 30
0.0
  9
$UCSORGFRONT
 10
0.0
 20
0.0
 30
0.0
  9
$UCSORGBACK
 10
0.0
 20
0.0
 30
0.0
  9
$PUCSBASE
  2

  9
$PUCSNAME
  2

  9
$PUCSORG
 10
0.0
 20
0.0
 30
0.0
  9
$PUCSXDIR
 10
1.0
 20
0.0
 30
0.0
  9
$PUCSYDIR
 10
0.0
 20
1.0
 30
0.0
  9
$PUCSORTHOREF
  2

  9
$PUCSORTHOVIEW
 70
     0
  9
$PUCSORGTOP
 10
0.0
 20
0.0
 30
0.0
  9
$PUCSORGBOTTOM
 10
0.0
 20
0.0
 30
0.0
  9
$PUCSORGLEFT
 10
0.0
 20
0.0
 30
0.0
  9
$PUCSORGRIGHT
 10
0.0
 20
0.0
 30
0.0
  9
$PUCSORGFRONT
 10
0.0
 20
0.0
 30
0.0
  9
$PUCSORGBACK
 10
0.0
 20
0.0
 30
0.0
  9
$USERI1
 70
     0
  9
$USERI2
 70
     0
  9
$USERI3
 70
     0
  9
$USERI4
 70
     0
  9
$USERI5
 70
     0
  9
$USERR1
 40
0.0
  9
$USERR2
 40
0.0
  9
$USERR3
 40
0.0
  9
$USERR4
 40
0.0
  9
$USERR5
 40
0.0
  9
$WORLDVIEW
 70
     1
  9
$SHADEDGE
 70
     3
  9
$SHADEDIF
 70
    70
  9
$TILEMODE
 70
     1
  9
$MAXACTVP
 70
    64
  9
$PINSBASE
 10
0.0
 20
0.0
 30
0.0
  9
$PLIMCHECK
 70
     0
  9
$PEXTMIN
 10
1.000000000000000E+20
 20
1.000000000000000E+20
 30
1.000000000000000E+20
  9
$PEXTMAX
 10
-1.000000000000000E+20
 20
-1.000000000000000E+20
 30
-1.000000000000000E+20
  9
$PLIMMIN
 10
0.0
 20
0.0
  9
$PLIMMAX
 10
12.0
 20
9.0
  9
$UNITMODE
 70
     0
  9
$VISRETAIN
 70
     1
  9
$PLINEGEN
 70
     0
  9
$PSLTSCALE
 70
     0
  9
$TREEDEPTH
 70
  3020
  9
$CMLSTYLE
  2
Standard
  9
$CMLJUST
 70
     0
  9
$CMLSCALE
 40
1.0
  9
$PROXYGRAPHICS
 70
     1
  9
$MEASUREMENT
 70
     0
  9
$CELWEIGHT
370
    -1
  9
$ENDCAPS
280
     0
  9
$JOINSTYLE
280
     0
  9
$LWDISPLAY
290
     0
  9
$INSUNITS
 70
     1
  9
$HYPERLINKBASE
  1

  9
$STYLESHEET
  1

  9
$XEDIT
290
     1
  9
$CEPSNTYPE
380
     0
  9
$PSTYLEMODE
290
     1
  9
$FINGERPRINTGUID
  2
{AE4B22C0-3D94-9A4C-9458-20F41F586D65}
  9
$VERSIONGUID
  2
{DE98499A-3C89-454A-8C9D-EB9DFDDDE8D8}
  9
$EXTNAMES
290
     1
  9
$PSVPSCALE
 40
0.0
  9
$OLESTARTUP
290
     0
  9
$SORTENTS
280
   127
  9
$INDEXCTL
280
     0
  9
$HIDETEXT
280
     1
  9
$XCLIPFRAME
280
     2
  9
$HALOGAP
280
     0
  9
$OBSCOLOR
 70
   257
  9
$OBSLTYPE
280
     0
  9
$INTERSECTIONDISPLAY
280
     0
  9
$INTERSECTIONCOLOR
 70
   257
  9
$DIMASSOC
280
     2
  9
$PROJECTNAME
  1

  9
$CAMERADISPLAY
290
     0
  9
$LENSLENGTH
 40
50.0
  9
$CAMERAHEIGHT
 40
0.0
  9
$STEPSPERSEC
 40
2.0
  9
$STEPSIZE
 40
6.0
  9
$3DDWFPREC
 40
2.0
  9
$PSOLWIDTH
 40
0.25
  9
$PSOLHEIGHT
 40
4.0
  9
$LOFTANG1
 40
1.570796326794896
  9
$LOFTANG2
 40
1.570796326794896
  9
$LOFTMAG1
 40
0.0
  9
$LOFTMAG2
 40
0.0
  9
$LOFTPARAM
 70
     7
  9
$LOFTNORMALS
280
     1
  9
$LATITUDE
 40
37.795
  9
$LONGITUDE
 40
-122.394
  9
$NORTHDIRECTION
 40
0.0
  9
$TIMEZONE
 70
 -8000
  9
$LIGHTGLYPHDISPLAY
280
     1
  9
$TILEMODELIGHTSYNCH
280
     1
  9
$CMATERIAL
347
11
  9
$SOLIDHIST
280
     0
  9
$SHOWHIST
280
     1
  9
$DWFFRAME
280
     2
  9
$DGNFRAME
280
     0
  9
$REALWORLDSCALE
290
     1
  9
$INTERFERECOLOR
 62
     1
  9
$INTERFEREOBJVS
345
33
  9
$INTERFEREVPVS
346
30
  9
$CSHADOW
280
     0
  9
$SHADOWPLANELOCATION
 40
0.0
  0
ENDSEC
  0
SECTION
  2
CLASSES
  0
CLASS
  1
ACDBDICTIONARYWDFLT
  2
AcDbDictionaryWithDefault
  3
ObjectDBX Classes
 90
        0
 91
        1
280
     0
281
     0
  0
CLASS
  1
MATERIAL
  2
AcDbMaterial
  3
ObjectDBX Classes
 90
     1153
 91
        3
280
     0
281
     0
  0
CLASS
  1
VISUALSTYLE
  2
AcDbVisualStyle
  3
ObjectDBX Classes
 90
     4095
 91
       24
280
     0
281
     0
  0
CLASS
  1
SCALE
  2
AcDbScale
  3
ObjectDBX Classes
 90
     1153
 91
       17
280
     0
281
     0
  0
CLASS
  1
TABLESTYLE
  2
AcDbTableStyle
  3
ObjectDBX Classes
 90
     4095
 91
        1
280
     0
281
     0
  0
CLASS
  1
MLEADERSTYLE
  2
AcDbMLeaderStyle
  3
ACDB_MLEADERSTYLE_CLASS
 90
     4095
 91
        1
280
     0
281
     0
  0
CLASS
  1
ACDBSECTIONVIEWSTYLE
  2
AcDbSectionViewStyle
  3
ObjectDBX Classes
 90
     1025
 91
        1
280
     0
281
     0
  0
CLASS
  1
ACDBDETAILVIEWSTYLE
  2
AcDbDetailViewStyle
  3
ObjectDBX Classes
 90
     1025
 91
        1
280
     0
281
     0
  0
CLASS
  1
RASTERVARIABLES
  2
AcDbRasterVariables
  3
ISM
 90
        0
 91
        1
280
     0
281
     0
  0
CLASS
  1
DICTIONARYVAR
  2
AcDbDictionaryVar
  3
ObjectDBX Classes
 90
        0
 91
        5
280
     0
281
     0
  0
CLASS
  1
CELLSTYLEMAP
  2
AcDbCellStyleMap
  3
ObjectDBX Classes
 90
     1152
 91
        2
280
     0
281
     0
  0
CLASS
  1
SORTENTSTABLE
  2
AcDbSortentsTable
  3
ObjectDBX Classes
 90
        0
 91
        1
280
     0
281
     0
  0
ENDSEC
  0
SECTION
  2
TABLES
  0
TABLE
  2
VPORT
  5
8
330
0
100
AcDbSymbolTable
 70
     1
  0
VPORT
  5
57
330
8
100
AcDbSymbolTableRecord
100
AcDbViewportTableRecord
  2
*Active
 70
     0
 10
0.0
 20
0.0
 11
1.0
 21
1.0
 12
128.2186932504505
 22
-651.8085913371039
 13
0.0
 23
0.0
 14
1.0
 24
1.0
 15
0.0
 25
0.0
 16
0.0
 26
0.0
 36
1.0
 17
0.0
 27
0.0
 37
0.0
 40
1472.433345167675
 41
1.802756268540114
 42
50.0
 43
0.0
 44
0.0
 50
0.0
 51
0.0
 71
     0
 72
  1000
 73
     1
 74
     1
 75
     0
 76
     0
 77
     0
 78
     0
281
     0
 65
     1
110
0.0
120
0.0
130
0.0
111
1.0
121
0.0
131
0.0
112
0.0
122
1.0
132
0.0
 79
     0
146
0.0
 60
     3
 61
     5
292
     1
282
     1
141
0.0
142
0.0
 63
   250
421
  3355443
  0
ENDTAB
  0
TABLE
  2
LTYPE
  5
5
330
0
100
AcDbSymbolTable
 70
     2
  0
LTYPE
  5
5B
330
5
100
AcDbSymbolTableRecord
100
AcDbLinetypeTableRecord
  2
ByBlock
 70
     0
  3

 72
    65
 73
     0
 40
0.0
  0
LTYPE
  5
5C
330
5
100
AcDbSymbolTableRecord
100
AcDbLinetypeTableRecord
  2
ByLayer
 70
     0
  3

 72
    65
 73
     0
 40
0.0
  0
LTYPE
  5
5D
330
5
100
AcDbSymbolTableRecord
100
AcDbLinetypeTableRecord
  2
Continuous
 70
     0
  3
Solid line
 72
    65
 73
     0
 40
0.0
  0
LTYPE
  5
22B
330
5
100
AcDbSymbolTableRecord
100
AcDbLinetypeTableRecord
  2
Grid Line
 70
     0
  3

 72
    65
 73
     4
 40
168.0
 49
96.0
 74
     0
 49
-24.0
 74
     0
 49
24.0
 74
     0
 49
-24.0
 74
     0
  0
ENDTAB
  0
TABLE
  2
LAYER
  5
2
330
0
100
AcDbSymbolTable
 70
    18
  0
LAYER
  5
54
330
2
100
AcDbSymbolTableRecord
100
AcDbLayerTableRecord
  2
0
 70
     0
 62
     7
  6
Continuous
370
    -3
390
F
347
21
348
0
  0
LAYER
  5
84
330
2
100
AcDbSymbolTableRecord
100
AcDbLayerTableRecord
  2
A-WALL
 70
     0
 62
   113
  6
Continuous
370
     9
390
F
347
21
348
0
  0
LAYER
  5
85
330
2
100
AcDbSymbolTableRecord
100
AcDbLayerTableRecord
  2
I-WALL
 70
     0
 62
     2
  6
Continuous
370
     9
390
F
347
21
348
0
  0
LAYER
  5
86
330
2
100
AcDbSymbolTableRecord
100
AcDbLayerTableRecord
  2
S-STRS
 70
     0
 62
    31
  6
Continuous
370
     9
390
F
347
21
348
0
  0
LAYER
  5
87
330
2
100
AcDbSymbolTableRecord
100
AcDbLayerTableRecord
  2
S-STRS-IDEN
 70
     0
 62
    31
  6
Continuous
370
     9
390
F
347
21
348
0
  0
LAYER
  5
88
330
2
100
AcDbSymbolTableRecord
100
AcDbLayerTableRecord
  2
A-FLOR-HRAL
 70
     0
 62
    11
  6
Continuous
370
     9
390
F
347
21
348
0
  0
LAYER
  5
89
330
2
100
AcDbSymbolTableRecord
100
AcDbLayerTableRecord
  2
A-GLAZ-CURT
 70
     0
 62
    52
  6
Continuous
370
     9
390
F
347
21
348
0
  0
LAYER
  5
8A
330
2
100
AcDbSymbolTableRecord
100
AcDbLayerTableRecord
  2
A-GLAZ-CWMG
 70
     0
 62
    51
  6
Continuous
370
     9
390
F
347
21
348
0
  0
LAYER
  5
8B
330
2
100
AcDbSymbolTableRecord
100
AcDbLayerTableRecord
  2
A-DOOR
 70
     0
 62
    31
  6
Continuous
370
     9
390
F
347
21
348
0
  0
LAYER
  5
16A
330
2
100
AcDbSymbolTableRecord
100
AcDbLayerTableRecord
  2
S-STRS-MBND
 70
     0
 62
    31
  6
Continuous
370
     9
390
F
347
21
348
0
  0
LAYER
  5
179
330
2
100
AcDbSymbolTableRecord
100
AcDbLayerTableRecord
  2
S-STRS-ANNO
 70
     0
 62
    31
  6
Continuous
370
     9
390
F
347
21
348
0
  0
LAYER
  5
1F2
330
2
100
AcDbSymbolTableRecord
100
AcDbLayerTableRecord
  2
A-DOOR-FRAM
 70
     0
 62
    31
  6
Continuous
370
    15
390
F
347
21
348
0
  0
LAYER
  5
20E
330
2
100
AcDbSymbolTableRecord
100
AcDbLayerTableRecord
  2
A-AREA-BNDY
 70
     0
 62
    -1
  6
Continuous
370
     9
390
F
347
21
348
0
  0
LAYER
  5
210
330
2
100
AcDbSymbolTableRecord
100
AcDbLayerTableRecord
  2
G-ANNO-SYMB
 70
     0
 62
   111
  6
Continuous
370
     9
390
F
347
21
348
0
  0
LAYER
  5
222
330
2
100
AcDbSymbolTableRecord
100
AcDbLayerTableRecord
  2
S-GRID
 70
     0
 62
     1
  6
Continuous
370
     9
390
F
347
21
348
0
  0
LAYER
  5
223
330
2
100
AcDbSymbolTableRecord
100
AcDbLayerTableRecord
  2
S-GRID-IDEN
 70
     0
 62
     1
  6
Continuous
370
    50
390
F
347
21
348
0
  0
LAYER
  5
234
330
2
100
AcDbSymbolTableRecord
100
AcDbLayerTableRecord
  2
A-AREA-IDEN
 70
     0
 62
     2
  6
Continuous
370
     9
390
F
347
21
348
0
  0
ENDTAB
  0
TABLE
  2
STYLE
  5
3
330
0
100
AcDbSymbolTable
 70
     5
  0
STYLE
  5
55
330
3
100
AcDbSymbolTableRecord
100
AcDbTextStyleTableRecord
  2
Standard
 70
     0
 40
0.0
 41
1.0
 50
0.0
 71
     0
 42
0.2
  3
txt
  4

  0
STYLE
  5
5A
330
3
100
AcDbSymbolTableRecord
100
AcDbTextStyleTableRecord
  2
Annotative
 70
     0
 40
0.0
 41
1.0
 50
0.0
 71
     0
 42
0.2
  3
txt
  4

1001
AcadAnnotative
1000
AnnotativeData
1002
{
1070
     1
1070
     1
1002
}
  0
STYLE
  5
20C
330
3
100
AcDbSymbolTableRecord
100
AcDbTextStyleTableRecord
  2
Arial Narrow
 70
     0
 40
18.0
 41
1.0
 50
0.0
 71
     0
 42
0.2
  3
ARIALN.TTF
  4

1001
ACAD
1000
Arial Narrow
1071
       34
  0
STYLE
  5
229
330
3
100
AcDbSymbolTableRecord
100
AcDbTextStyleTableRecord
  2
Arial Narrow_1
 70
     0
 40
23.99999999999998
 41
1.0
 50
0.0
 71
     0
 42
0.2
  3
ARIALN.TTF
  4

1001
ACAD
1000
Arial Narrow
1071
       34
  0
STYLE
  5
236
330
3
100
AcDbSymbolTableRecord
100
AcDbTextStyleTableRecord
  2
Arial Narrow_B
 70
     0
 40
23.99999999999998
 41
1.0
 50
0.0
 71
     0
 42
0.2
  3
ARIALNB.TTF
  4

1001
ACAD
1000
Arial Narrow
1071
 33554466
  0
ENDTAB
  0
TABLE
  2
VIEW
  5
6
330
0
100
AcDbSymbolTable
 70
     0
  0
ENDTAB
  0
TABLE
  2
UCS
  5
7
330
0
100
AcDbSymbolTable
 70
     2
  0
UCS
  5
23A
330
7
100
AcDbSymbolTableRecord
100
AcDbUCSTableRecord
  2
REVIT60-Internal
 70
     0
 10
0.0
 20
0.0
 30
0.0
 11
-1.0
 21
0.0000000000000032
 31
0.0
 12
-0.0000000000000032
 22
-1.0
 32
0.0
 79
     0
146
0.0
  0
UCS
  5
23B
330
7
100
AcDbSymbolTableRecord
100
AcDbUCSTableRecord
  2
REVIT60-Default Site
 70
     0
 10
0.0
 20
0.0000000000020464
 30
-1200.0
 11
-1.0
 21
0.0000000000000032
 31
0.0
 12
-0.0000000000000032
 22
-1.0
 32
0.0
 79
     0
146
0.0
  0
ENDTAB
  0
TABLE
  2
APPID
  5
9
330
0
100
AcDbSymbolTable
 70
     3
  0
APPID
  5
56
330
9
100
AcDbSymbolTableRecord
100
AcDbRegAppTableRecord
  2
ACAD
 70
     0
  0
APPID
  5
5E
330
9
100
AcDbSymbolTableRecord
100
AcDbRegAppTableRecord
  2
AcadAnnotative
 70
     0
  0
APPID
  5
78
330
9
100
AcDbSymbolTableRecord
100
AcDbRegAppTableRecord
  2
REVIT
 70
     0
  0
ENDTAB
  0
TABLE
  2
DIMSTYLE
  5
A
330
0
100
AcDbSymbolTable
 70
     2
100
AcDbDimStyleTable
 71
     0
  0
DIMSTYLE
105
58
330
A
100
AcDbSymbolTableRecord
100
AcDbDimStyleTableRecord
  2
Standard
 70
     0
340
55
  0
DIMSTYLE
105
59
330
A
100
AcDbSymbolTableRecord
100
AcDbDimStyleTableRecord
  2
Annotative
 70
     0
340
55
1001
AcadAnnotative
1000
AnnotativeData
1002
{
1070
     1
1070
     1
1002
}
  0
ENDTAB
  0
TABLE
  2
BLOCK_RECORD
  5
1
330
0
100
AcDbSymbolTable
 70
    13
  0
BLOCK_RECORD
  5
70
102
{ACAD_XDICTIONARY
360
240
102
}
330
1
100
AcDbSymbolTableRecord
100
AcDbBlockTableRecord
  2
*Model_Space
340
73
 70
     0
280
     1
281
     0
  0
BLOCK_RECORD
  5
6C
330
1
100
AcDbSymbolTableRecord
100
AcDbBlockTableRecord
  2
*Paper_Space
340
6F
 70
     0
280
     1
281
     0
  0
BLOCK_RECORD
  5
74
330
1
100
AcDbSymbolTableRecord
100
AcDbBlockTableRecord
  2
*Paper_Space0
340
77
 70
     0
280
     1
281
     0
  0
BLOCK_RECORD
  5
180
330
1
100
AcDbSymbolTableRecord
100
AcDbBlockTableRecord
  2
Railing - Railing-5167030-LEVEL 2
340
0
102
{BLKREFS
331
187
102
}
 70
     0
280
     1
281
     0
  0
BLOCK_RECORD
  5
188
330
1
100
AcDbSymbolTableRecord
100
AcDbBlockTableRecord
  2
Railing - Railing-5167034-LEVEL 2
340
0
102
{BLKREFS
331
18F
102
}
 70
     0
280
     1
281
     0
  0
BLOCK_RECORD
  5
1A2
330
1
100
AcDbSymbolTableRecord
100
AcDbBlockTableRecord
  2
Railing - Railing-5167651-LEVEL 2
340
0
102
{BLKREFS
331
1A9
102
}
 70
     0
280
     1
281
     0
  0
BLOCK_RECORD
  5
1AA
330
1
100
AcDbSymbolTableRecord
100
AcDbBlockTableRecord
  2
Railing - Railing-5167655-LEVEL 2
340
0
102
{BLKREFS
331
1B1
102
}
 70
     0
280
     1
281
     0
  0
BLOCK_RECORD
  5
1B6
330
1
100
AcDbSymbolTableRecord
100
AcDbBlockTableRecord
  2
System Panel - zGlazed-5171404-LEVEL 2
340
0
102
{BLKREFS
331
1C2
331
1E3
331
1E7
102
}
 70
     0
280
     1
281
     0
  0
BLOCK_RECORD
  5
1C3
330
1
100
AcDbSymbolTableRecord
100
AcDbBlockTableRecord
  2
Rectangular Mullion - 4 1_2_ x 2_ Rectangular_CE_-5162315-LEVEL 2
340
0
102
{BLKREFS
331
1C8
331
1E4
331
1E8
102
}
 70
     0
280
     1
281
     0
  0
BLOCK_RECORD
  5
1C9
330
1
100
AcDbSymbolTableRecord
100
AcDbBlockTableRecord
  2
Rectangular Mullion - 4 1_2_ x 2_ Rectangular_CE_-5171405-LEVEL 2
340
0
102
{BLKREFS
331
1D5
331
1E5
331
1E9
102
}
 70
     0
280
     1
281
     0
  0
BLOCK_RECORD
  5
1D6
330
1
100
AcDbSymbolTableRecord
100
AcDbBlockTableRecord
  2
Rectangular Mullion - 4 1_2_ x 2_ Rectangular_CE_-5171406-LEVEL 2
340
0
102
{BLKREFS
331
1E2
331
1E6
331
1EA
102
}
 70
     0
280
     1
281
     0
  0
BLOCK_RECORD
  5
1EB
330
1
100
AcDbSymbolTableRecord
100
AcDbBlockTableRecord
  2
Door-Single_CE_ - HM Door-2_ HM Frame-5154214-LEVEL 2
340
0
102
{BLKREFS
331
20B
102
}
 70
     0
280
     1
281
     0
  0
BLOCK_RECORD
  5
211
330
1
100
AcDbSymbolTableRecord
100
AcDbBlockTableRecord
  2
Elevation - Detail Number_CE_-134675-LEVEL 2
340
0
102
{BLKREFS
331
218
102
}
 70
     0
280
     1
281
     0
  0
BLOCK_RECORD
  5
21A
330
1
100
AcDbSymbolTableRecord
100
AcDbBlockTableRecord
  2
Elevation - Detail Number_CE_-46063-LEVEL 2
340
0
102
{BLKREFS
331
220
102
}
 70
     0
280
     1
281
     0
  0
BLOCK_RECORD
  5
224
330
1
100
AcDbSymbolTableRecord
100
AcDbBlockTableRecord
  2
Grid - Grid Head-Circle_CE_-46466-LEVEL 2
340
0
102
{BLKREFS
331
228
331
22F
102
}
 70
     0
280
     1
281
     0
  0
ENDTAB
  0
ENDSEC
  0
SECTION
  2
BLOCKS
  0
BLOCK
  5
71
330
70
100
AcDbEntity
  8
0
100
AcDbBlockBegin
  2
*Model_Space
 70
     0
 10
0.0
 20
0.0
 30
0.0
  3
*Model_Space
  1

  0
ENDBLK
  5
72
330
70
100
AcDbEntity
  8
0
100
AcDbBlockEnd
  0
BLOCK
  5
6D
330
6C
100
AcDbEntity
 67
     1
  8
0
100
AcDbBlockBegin
  2
*Paper_Space
 70
     0
 10
0.0
 20
0.0
 30
0.0
  3
*Paper_Space
  1

  0
ENDBLK
  5
6E
330
6C
100
AcDbEntity
 67
     1
  8
0
100
AcDbBlockEnd
  0
BLOCK
  5
75
330
74
100
AcDbEntity
 67
     1
  8
0
100
AcDbBlockBegin
  2
*Paper_Space0
 70
     0
 10
0.0
 20
0.0
 30
0.0
  3
*Paper_Space0
  1

  0
ENDBLK
  5
76
330
74
100
AcDbEntity
 67
     1
  8
0
100
AcDbBlockEnd
  0
BLOCK
  5
185
330
180
100
AcDbEntity
  8
0
100
AcDbBlockBegin
  2
Railing - Railing-5167030-LEVEL 2
 70
     0
 10
0.0
 20
0.0
 30
0.0
  3
Railing - Railing-5167030-LEVEL 2
  1

  0
LINE
  5
181
330
180
100
AcDbEntity
  8
A-FLOR-HRAL
100
AcDbLine
 10
-125.6206531485194
 20
-385.9764545958918
 30
0.0
 11
-126.5532684648294
 21
-383.9764545958918
 31
0.0
1001
REVIT
1002
{
1070
     1
1000
5167029
1002
}
1002
{
1070
     5
1000
1969
1002
}
1002
{
1070
     3
1000
-2000128
1002
}
  0
LINE
  5
182
330
180
100
AcDbEntity
  8
A-FLOR-HRAL
100
AcDbLine
 10
-202.5788831151617
 20
-383.9764545958913
 30
0.0
 11
-126.5532684648294
 21
-383.9764545958918
 31
0.0
1001
REVIT
1002
{
1070
     1
1000
5167029
1002
}
1002
{
1070
     5
1000
1969
1002
}
1002
{
1070
     3
1000
-2000128
1002
}
  0
LINE
  5
183
330
180
100
AcDbEntity
  8
A-FLOR-HRAL
100
AcDbLine
 10
-202.5788831151617
 20
-385.9764545958913
 30
0.0
 11
-202.5788831151617
 21
-383.9764545958913
 31
0.0
1001
REVIT
1002
{
1070
     1
1000
5167029
1002
}
1002
{
1070
     5
1000
1969
1002
}
1002
{
1070
     3
1000
-2000128
1002
}
  0
LINE
  5
184
330
180
100
AcDbEntity
  8
A-FLOR-HRAL
100
AcDbLine
 10
-202.5788831151617
 20
-385.9764545958913
 30
0.0
 11
-125.6206531485194
 21
-385.9764545958918
 31
0.0
1001
REVIT
1002
{
1070
     1
1000
5167029
1002
}
1002
{
1070
     5
1000
1969
1002
}
1002
{
1070
     3
1000
-2000128
1002
}
  0
ENDBLK
  5
186
330
180
100
AcDbEntity
  8
0
100
AcDbBlockEnd
  0
BLOCK
  5
18D
330
188
100
AcDbEntity
  8
0
100
AcDbBlockBegin
  2
Railing - Railing-5167034-LEVEL 2
 70
     0
 10
0.0
 20
0.0
 30
0.0
  3
Railing - Railing-5167034-LEVEL 2
  1

  0
LINE
  5
189
330
188
100
AcDbEntity
  8
A-FLOR-HRAL
100
AcDbLine
 10
-146.6044977654938
 20
-340.9764545958918
 30
0.0
 11
-147.5371130818038
 21
-338.9764545958919
 31
0.0
1001
REVIT
1002
{
1070
     1
1000
5167033
1002
}
1002
{
1070
     5
1000
1969
1002
}
1002
{
1070
     3
1000
-2000128
1002
}
  0
LINE
  5
18A
330
188
100
AcDbEntity
  8
A-FLOR-HRAL
100
AcDbLine
 10
-202.5788831151615
 20
-338.9764545958915
 30
0.0
 11
-147.5371130818038
 21
-338.9764545958919
 31
0.0
1001
REVIT
1002
{
1070
     1
1000
5167033
1002
}
1002
{
1070
     5
1000
1969
1002
}
1002
{
1070
     3
1000
-2000128
1002
}
  0
LINE
  5
18B
330
188
100
AcDbEntity
  8
A-FLOR-HRAL
100
AcDbLine
 10
-202.5788831151615
 20
-340.9764545958914
 30
0.0
 11
-202.5788831151615
 21
-338.9764545958915
 31
0.0
1001
REVIT
1002
{
1070
     1
1000
5167033
1002
}
1002
{
1070
     5
1000
1969
1002
}
1002
{
1070
     3
1000
-2000128
1002
}
  0
LINE
  5
18C
330
188
100
AcDbEntity
  8
A-FLOR-HRAL
100
AcDbLine
 10
-202.5788831151615
 20
-340.9764545958914
 30
0.0
 11
-146.6044977654938
 21
-340.9764545958918
 31
0.0
1001
REVIT
1002
{
1070
     1
1000
5167033
1002
}
1002
{
1070
     5
1000
1969
1002
}
1002
{
1070
     3
1000
-2000128
1002
}
  0
ENDBLK
  5
18E
330
188
100
AcDbEntity
  8
0
100
AcDbBlockEnd
  0
BLOCK
  5
1A7
330
1A2
100
AcDbEntity
  8
0
100
AcDbBlockBegin
  2
Railing - Railing-5167651-LEVEL 2
 70
     0
 10
0.0
 20
0.0
 30
0.0
  3
Railing - Railing-5167651-LEVEL 2
  1

  0
LINE
  5
1A3
330
1A2
100
AcDbEntity
  8
A-FLOR-HRAL
100
AcDbLine
 10
-146.6044977654958
 20
-638.9764545958891
 30
0.0
 11
-147.5371130818058
 21
-636.9764545958892
 31
0.0
1001
REVIT
1002
{
1070
     1
1000
5167650
1002
}
1002
{
1070
     5
1000
1969
1002
}
1002
{
1070
     3
1000
-2000128
1002
}
  0
LINE
  5
1A4
330
1A2
100
AcDbEntity
  8
A-FLOR-HRAL
100
AcDbLine
 10
-202.5788831151634
 20
-636.9764545958888
 30
0.0
 11
-147.5371130818058
 21
-636.9764545958892
 31
0.0
1001
REVIT
1002
{
1070
     1
1000
5167650
1002
}
1002
{
1070
     5
1000
1969
1002
}
1002
{
1070
     3
1000
-2000128
1002
}
  0
LINE
  5
1A5
330
1A2
100
AcDbEntity
  8
A-FLOR-HRAL
100
AcDbLine
 10
-202.5788831151634
 20
-638.9764545958889
 30
0.0
 11
-202.5788831151634
 21
-636.9764545958888
 31
0.0
1001
REVIT
1002
{
1070
     1
1000
5167650
1002
}
1002
{
1070
     5
1000
1969
1002
}
1002
{
1070
     3
1000
-2000128
1002
}
  0
LINE
  5
1A6
330
1A2
100
AcDbEntity
  8
A-FLOR-HRAL
100
AcDbLine
 10
-202.5788831151634
 20
-638.9764545958889
 30
0.0
 11
-146.6044977654958
 21
-638.9764545958891
 31
0.0
1001
REVIT
1002
{
1070
     1
1000
5167650
1002
}
1002
{
1070
     5
1000
1969
1002
}
1002
{
1070
     3
1000
-2000128
1002
}
  0
ENDBLK
  5
1A8
330
1A2
100
AcDbEntity
  8
0
100
AcDbBlockEnd
  0
BLOCK
  5
1AF
330
1AA
100
AcDbEntity
  8
0
100
AcDbBlockBegin
  2
Railing - Railing-5167655-LEVEL 2
 70
     0
 10
0.0
 20
0.0
 30
0.0
  3
Railing - Railing-5167655-LEVEL 2
  1

  0
LINE
  5
1AB
330
1AA
100
AcDbEntity
  8
A-FLOR-HRAL
100
AcDbLine
 10
-125.6206531485213
 20
-683.9764545958894
 30
0.0
 11
-126.5532684648313
 21
-681.9764545958893
 31
0.0
1001
REVIT
1002
{
1070
     1
1000
5167654
1002
}
1002
{
1070
     5
1000
1969
1002
}
1002
{
1070
     3
1000
-2000128
1002
}
  0
LINE
  5
1AC
330
1AA
100
AcDbEntity
  8
A-FLOR-HRAL
100
AcDbLine
 10
-202.5788831151636
 20
-681.9764545958888
 30
0.0
 11
-126.5532684648313
 21
-681.9764545958893
 31
0.0
1001
REVIT
1002
{
1070
     1
1000
5167654
1002
}
1002
{
1070
     5
1000
1969
1002
}
1002
{
1070
     3
1000
-2000128
1002
}
  0
LINE
  5
1AD
330
1AA
100
AcDbEntity
  8
A-FLOR-HRAL
100
AcDbLine
 10
-202.5788831151636
 20
-683.9764545958888
 30
0.0
 11
-202.5788831151636
 21
-681.9764545958888
 31
0.0
1001
REVIT
1002
{
1070
     1
1000
5167654
1002
}
1002
{
1070
     5
1000
1969
1002
}
1002
{
1070
     3
1000
-2000128
1002
}
  0
LINE
  5
1AE
330
1AA
100
AcDbEntity
  8
A-FLOR-HRAL
100
AcDbLine
 10
-202.5788831151636
 20
-683.9764545958888
 30
0.0
 11
-125.6206531485213
 21
-683.9764545958894
 31
0.0
1001
REVIT
1002
{
1070
     1
1000
5167654
1002
}
1002
{
1070
     5
1000
1969
1002
}
1002
{
1070
     3
1000
-2000128
1002
}
  0
ENDBLK
  5
1B0
330
1AA
100
AcDbEntity
  8
0
100
AcDbBlockEnd
  0
BLOCK
  5
1C0
330
1B6
100
AcDbEntity
  8
0
100
AcDbBlockBegin
  2
System Panel - zGlazed-5171404-LEVEL 2
 70
     0
 10
0.0
 20
0.0
 30
0.0
  3
System Panel - zGlazed-5171404-LEVEL 2
  1

  0
HATCH
  5
1BB
330
1B6
100
AcDbEntity
  8
A-GLAZ-CURT
 62
     7
100
AcDbHatch
 10
0.0
 20
0.0
 30
0.0
210
0.0
220
0.0
230
1.0
  2
SOLID
 70
     1
 71
     0
 91
        1
 92
        1
 93
        4
 72
     1
 10
-36.0
 20
0.5000000000002273
 11
35.99999999999872
 21
0.5000000000002273
 72
     1
 10
35.99999999999872
 20
0.5000000000002273
 11
35.99999999999872
 21
1.500000000000341
 72
     1
 10
35.99999999999872
 20
1.50000000000034
 11
-36.0
 21
1.50000000000034
 72
     1
 10
-36.0
 20
1.50000000000034
 11
-36.0
 21
0.5000000000002272
 97
        0
 75
     0
 76
     1
 98
        1
 10
0.0
 20
0.0
450
        0
451
        0
460
0.0
461
0.0
452
        0
462
0.0
453
        0
470

1001
REVIT
1002
{
1070
     1
1000
5170856
1002
}
1002
{
1070
     5
1000
645966
1002
}
  0
LINE
  5
1BC
330
1B6
100
AcDbEntity
  8
A-GLAZ-CURT
100
AcDbLine
 10
-35.99999999999931
 20
0.4999999999999715
 30
0.0
 11
35.99999999999931
 21
0.4999999999999715
 31
0.0
1001
REVIT
1002
{
1070
     1
1000
5170856
1002
}
1002
{
1070
     5
1000
645966
1002
}
  0
LINE
  5
1BD
330
1B6
100
AcDbEntity
  8
A-GLAZ-CURT
100
AcDbLine
 10
35.99999999999931
 20
0.4999999999999715
 30
0.0
 11
35.99999999999931
 21
1.499999999999957
 31
0.0
1001
REVIT
1002
{
1070
     1
1000
5170856
1002
}
1002
{
1070
     5
1000
645966
1002
}
  0
LINE
  5
1BE
330
1B6
100
AcDbEntity
  8
A-GLAZ-CURT
100
AcDbLine
 10
35.99999999999931
 20
1.499999999999957
 30
0.0
 11
-35.99999999999931
 21
1.499999999999957
 31
0.0
1001
REVIT
1002
{
1070
     1
1000
5170856
1002
}
1002
{
1070
     5
1000
645966
1002
}
  0
LINE
  5
1BF
330
1B6
100
AcDbEntity
  8
A-GLAZ-CURT
100
AcDbLine
 10
-35.99999999999931
 20
1.499999999999957
 30
0.0
 11
-35.99999999999931
 21
0.4999999999999715
 31
0.0
1001
REVIT
1002
{
1070
     1
1000
5170856
1002
}
1002
{
1070
     5
1000
645966
1002
}
  0
ENDBLK
  5
1C1
330
1B6
100
AcDbEntity
  8
0
100
AcDbBlockEnd
  0
BLOCK
  5
1C6
330
1C3
100
AcDbEntity
  8
0
100
AcDbBlockBegin
  2
Rectangular Mullion - 4 1_2_ x 2_ Rectangular_CE_-5162315-LEVEL 2
 70
     0
 10
0.0
 20
0.0
 30
0.0
  3
Rectangular Mullion - 4 1_2_ x 2_ Rectangular_CE_-5162315-LEVEL 2
  1

  0
LINE
  5
1C4
330
1C3
100
AcDbEntity
  8
A-GLAZ-CWMG
100
AcDbLine
 10
-323.3288831151627
 20
-608.476454595889
 30
0.0
 11
-323.3288831151631
 21
-680.476454595889
 31
0.0
1001
REVIT
1002
{
1070
     1
1000
5170859
1002
}
1002
{
1070
     5
1000
646104
1002
}
  0
LINE
  5
1C5
330
1C3
100
AcDbEntity
  8
A-GLAZ-CWMG
100
AcDbLine
 10
-327.8288831151627
 20
-608.476454595889
 30
0.0
 11
-327.8288831151631
 21
-680.476454595889
 31
0.0
1001
REVIT
1002
{
1070
     1
1000
5170859
1002
}
1002
{
1070
     5
1000
646104
1002
}
  0
ENDBLK
  5
1C7
330
1C3
100
AcDbEntity
  8
0
100
AcDbBlockEnd
  0
BLOCK
  5
1D3
330
1C9
100
AcDbEntity
  8
0
100
AcDbBlockBegin
  2
Rectangular Mullion - 4 1_2_ x 2_ Rectangular_CE_-5171405-LEVEL 2
 70
     0
 10
0.0
 20
0.0
 30
0.0
  3
Rectangular Mullion - 4 1_2_ x 2_ Rectangular_CE_-5171405-LEVEL 2
  1

  0
HATCH
  5
1CE
330
1C9
100
AcDbEntity
  8
A-GLAZ-CWMG
 62
     7
100
AcDbHatch
 10
0.0
 20
0.0
 30
0.0
210
0.0
220
0.0
230
1.0
  2
SOLID
 70
     1
 71
     0
 91
        1
 92
        1
 93
        4
 72
     1
 10
-2.000000000000653
 20
2.249999999999487
 11
-0.0000000000005969
 21
2.249999999999658
 72
     1
 10
-0.0000000000005969
 20
2.249999999999658
 11
-0.0000000000005969
 21
-2.250000000000511
 72
     1
 10
-0.0000000000005969
 20
-2.250000000000511
 11
-2.000000000000653
 21
-2.250000000000511
 72
     1
 10
-2.000000000000653
 20
-2.250000000000511
 11
-2.000000000000653
 21
2.249999999999487
 97
        0
 75
     0
 76
     1
 98
        1
 10
0.0
 20
0.0
450
        0
451
        0
460
0.0
461
0.0
452
        0
462
0.0
453
        0
470

1001
REVIT
1002
{
1070
     1
1000
5170860
1002
}
1002
{
1070
     5
1000
646104
1002
}
  0
LINE
  5
1CF
330
1C9
100
AcDbEntity
  8
A-GLAZ-CWMG
370
    15
100
AcDbLine
 10
-1.999999999999971
 20
2.249999999999999
 30
0.0
 11
0.0
 21
2.249999999999999
 31
0.0
1001
REVIT
1002
{
1070
     1
1000
5170860
1002
}
1002
{
1070
     5
1000
646104
1002
}
  0
LINE
  5
1D0
330
1C9
100
AcDbEntity
  8
A-GLAZ-CWMG
370
    15
100
AcDbLine
 10
0.0
 20
2.249999999999999
 30
0.0
 11
0.0
 21
-2.249999999999999
 31
0.0
1001
REVIT
1002
{
1070
     1
1000
5170860
1002
}
1002
{
1070
     5
1000
646104
1002
}
  0
LINE
  5
1D1
330
1C9
100
AcDbEntity
  8
A-GLAZ-CWMG
370
    15
100
AcDbLine
 10
0.0
 20
-2.249999999999999
 30
0.0
 11
-1.999999999999971
 21
-2.249999999999999
 31
0.0
1001
REVIT
1002
{
1070
     1
1000
5170860
1002
}
1002
{
1070
     5
1000
646104
1002
}
  0
LINE
  5
1D2
330
1C9
100
AcDbEntity
  8
A-GLAZ-CWMG
370
    15
100
AcDbLine
 10
-1.999999999999971
 20
-2.249999999999999
 30
0.0
 11
-1.999999999999971
 21
2.249999999999999
 31
0.0
1001
REVIT
1002
{
1070
     1
1000
5170860
1002
}
1002
{
1070
     5
1000
646104
1002
}
  0
ENDBLK
  5
1D4
330
1C9
100
AcDbEntity
  8
0
100
AcDbBlockEnd
  0
BLOCK
  5
1E0
330
1D6
100
AcDbEntity
  8
0
100
AcDbBlockBegin
  2
Rectangular Mullion - 4 1_2_ x 2_ Rectangular_CE_-5171406-LEVEL 2
 70
     0
 10
0.0
 20
0.0
 30
0.0
  3
Rectangular Mullion - 4 1_2_ x 2_ Rectangular_CE_-5171406-LEVEL 2
  1

  0
HATCH
  5
1DB
330
1D6
100
AcDbEntity
  8
A-GLAZ-CWMG
 62
     7
100
AcDbHatch
 10
0.0
 20
0.0
 30
0.0
210
0.0
220
0.0
230
1.0
  2
SOLID
 70
     1
 71
     0
 91
        1
 92
        1
 93
        4
 72
     1
 10
0.0000000000008527
 20
2.249999999999658
 11
-1.999999999999203
 21
2.249999999999658
 72
     1
 10
-1.999999999999204
 20
2.249999999999658
 11
-1.999999999999204
 21
-2.25000000000034
 72
     1
 10
-1.999999999999204
 20
-2.25000000000034
 11
0.0000000000008524
 21
-2.250000000000511
 72
     1
 10
0.0000000000008527
 20
-2.250000000000511
 11
0.0000000000008527
 21
2.249999999999658
 97
        0
 75
     0
 76
     1
 98
        1
 10
0.0
 20
0.0
450
        0
451
        0
460
0.0
461
0.0
452
        0
462
0.0
453
        0
470

1001
REVIT
1002
{
1070
     1
1000
5170861
1002
}
1002
{
1070
     5
1000
646104
1002
}
  0
LINE
  5
1DC
330
1D6
100
AcDbEntity
  8
A-GLAZ-CWMG
370
    15
100
AcDbLine
 10
0.0
 20
2.249999999999999
 30
0.0
 11
-1.999999999999971
 21
2.249999999999999
 31
0.0
1001
REVIT
1002
{
1070
     1
1000
5170861
1002
}
1002
{
1070
     5
1000
646104
1002
}
  0
LINE
  5
1DD
330
1D6
100
AcDbEntity
  8
A-GLAZ-CWMG
370
    15
100
AcDbLine
 10
-1.999999999999971
 20
2.249999999999999
 30
0.0
 11
-1.999999999999971
 21
-2.249999999999999
 31
0.0
1001
REVIT
1002
{
1070
     1
1000
5170861
1002
}
1002
{
1070
     5
1000
646104
1002
}
  0
LINE
  5
1DE
330
1D6
100
AcDbEntity
  8
A-GLAZ-CWMG
370
    15
100
AcDbLine
 10
-1.999999999999971
 20
-2.249999999999999
 30
0.0
 11
0.0
 21
-2.249999999999999
 31
0.0
1001
REVIT
1002
{
1070
     1
1000
5170861
1002
}
1002
{
1070
     5
1000
646104
1002
}
  0
LINE
  5
1DF
330
1D6
100
AcDbEntity
  8
A-GLAZ-CWMG
370
    15
100
AcDbLine
 10
0.0
 20
-2.249999999999999
 30
0.0
 11
0.0
 21
2.249999999999999
 31
0.0
1001
REVIT
1002
{
1070
     1
1000
5170861
1002
}
1002
{
1070
     5
1000
646104
1002
}
  0
ENDBLK
  5
1E1
330
1D6
100
AcDbEntity
  8
0
100
AcDbBlockEnd
  0
BLOCK
  5
209
330
1EB
100
AcDbEntity
  8
0
100
AcDbBlockBegin
  2
Door-Single_CE_ - HM Door-2_ HM Frame-5154214-LEVEL 2
 70
     0
 10
0.0
 20
0.0
 30
0.0
  3
Door-Single_CE_ - HM Door-2_ HM Frame-5154214-LEVEL 2
  1

  0
ARC
  5
1EC
330
1EB
100
AcDbEntity
  8
A-DOOR
100
AcDbCircle
 10
18.0000000000032
 20
2.999999999999463
 30
0.0
 40
36.0
100
AcDbArc
 50
90.00000000000012
 51
180.4999999999995
1001
REVIT
1002
{
1070
     1
1000
5178578
1002
}
1002
{
1070
     5
1000
4450563
1002
}
1002
{
1070
     3
1000
636535
1002
}
  0
LINE
  5
1ED
330
1EB
100
AcDbEntity
  8
A-DOOR
100
AcDbLine
 10
18.00000000000001
 20
2.999999999999383
 30
0.0
 11
17.99999999999995
 21
38.99999999999938
 31
0.0
1001
REVIT
1002
{
1070
     1
1000
5178578
1002
}
1002
{
1070
     5
1000
4450563
1002
}
1002
{
1070
     3
1000
-2000025
1002
}
  0
LINE
  5
1EE
330
1EB
100
AcDbEntity
  8
A-DOOR
100
AcDbLine
 10
17.99999999999995
 20
38.99999999999938
 30
0.0
 11
16.24999999999995
 21
38.99999999999938
 31
0.0
1001
REVIT
1002
{
1070
     1
1000
5178578
1002
}
1002
{
1070
     5
1000
4450563
1002
}
1002
{
1070
     3
1000
-2000025
1002
}
  0
LINE
  5
1EF
330
1EB
100
AcDbEntity
  8
A-DOOR
100
AcDbLine
 10
16.24999999999995
 20
38.99999999999938
 30
0.0
 11
16.25000000000001
 21
2.999999999999381
 31
0.0
1001
REVIT
1002
{
1070
     1
1000
5178578
1002
}
1002
{
1070
     5
1000
4450563
1002
}
1002
{
1070
     3
1000
-2000025
1002
}
  0
LINE
  5
1F0
330
1EB
100
AcDbEntity
  8
A-DOOR
100
AcDbLine
 10
16.25000000000001
 20
2.99999999999938
 30
0.0
 11
18.00000000000001
 21
2.999999999999383
 31
0.0
1001
REVIT
1002
{
1070
     1
1000
5178578
1002
}
1002
{
1070
     5
1000
4450563
1002
}
1002
{
1070
     3
1000
-2000025
1002
}
  0
ARC
  5
1F1
330
1EB
100
AcDbEntity
  8
A-DOOR
100
AcDbCircle
 10
18.00000000000001
 20
2.999999999999386
 30
0.0
 40
36.0
100
AcDbArc
 50
90.00000000000012
 51
180.4999999999995
1001
REVIT
1002
{
1070
     1
1000
5178578
1002
}
1002
{
1070
     5
1000
4450563
1002
}
1002
{
1070
     3
1000
636535
1002
}
  0
LINE
  5
1F3
330
1EB
100
AcDbEntity
  8
A-DOOR-FRAM
100
AcDbLine
 10
-17.99999999999988
 20
3.00000000000004
 30
0.0
 11
-20.00000000000011
 21
3.000000000000047
 31
0.0
1001
REVIT
1002
{
1070
     1
1000
5178578
1002
}
1002
{
1070
     5
1000
4450563
1002
}
1002
{
1070
     3
1000
-2000029
1002
}
  0
LINE
  5
1F4
330
1EB
100
AcDbEntity
  8
A-DOOR-FRAM
100
AcDbLine
 10
-20.00000000000011
 20
3.000000000000047
 30
0.0
 11
-20.00000000000013
 21
-2.999999999999936
 31
0.0
1001
REVIT
1002
{
1070
     1
1000
5178578
1002
}
1002
{
1070
     5
1000
4450563
1002
}
1002
{
1070
     3
1000
-2000029
1002
}
  0
LINE
  5
1F5
330
1EB
100
AcDbEntity
  8
A-DOOR-FRAM
100
AcDbLine
 10
-20.00000000000013
 20
-2.999999999999936
 30
0.0
 11
-17.9999999999999
 21
-2.999999999999943
 31
0.0
1001
REVIT
1002
{
1070
     1
1000
5178578
1002
}
1002
{
1070
     5
1000
4450563
1002
}
1002
{
1070
     3
1000
-2000029
1002
}
  0
LINE
  5
1F6
330
1EB
100
AcDbEntity
  8
A-DOOR-FRAM
100
AcDbLine
 10
-17.9999999999999
 20
-2.999999999999943
 30
0.0
 11
-17.99999999999989
 21
-0.7499999999997674
 31
0.0
1001
REVIT
1002
{
1070
     1
1000
5178578
1002
}
1002
{
1070
     5
1000
4450563
1002
}
1002
{
1070
     3
1000
-2000029
1002
}
  0
LINE
  5
1F7
330
1EB
100
AcDbEntity
  8
A-DOOR-FRAM
100
AcDbLine
 10
-17.99999999999989
 20
-0.7499999999997674
 30
0.0
 11
-17.49999999999991
 21
-0.7499999999997672
 31
0.0
1001
REVIT
1002
{
1070
     1
1000
5178578
1002
}
1002
{
1070
     5
1000
4450563
1002
}
1002
{
1070
     3
1000
-2000029
1002
}
  0
LINE
  5
1F8
330
1EB
100
AcDbEntity
  8
A-DOOR-FRAM
100
AcDbLine
 10
-17.49999999999991
 20
-0.7499999999997672
 30
0.0
 11
-17.4999999999999
 21
1.250000000000289
 31
0.0
1001
REVIT
1002
{
1070
     1
1000
5178578
1002
}
1002
{
1070
     5
1000
4450563
1002
}
1002
{
1070
     3
1000
-2000029
1002
}
  0
LINE
  5
1F9
330
1EB
100
AcDbEntity
  8
A-DOOR-FRAM
100
AcDbLine
 10
-17.4999999999999
 20
1.250000000000289
 30
0.0
 11
-17.99999999999988
 21
1.250000000000291
 31
0.0
1001
REVIT
1002
{
1070
     1
1000
5178578
1002
}
1002
{
1070
     5
1000
4450563
1002
}
1002
{
1070
     3
1000
-2000029
1002
}
  0
LINE
  5
1FA
330
1EB
100
AcDbEntity
  8
A-DOOR-FRAM
100
AcDbLine
 10
-17.99999999999988
 20
1.250000000000291
 30
0.0
 11
-17.99999999999988
 21
3.00000000000004
 31
0.0
1001
REVIT
1002
{
1070
     1
1000
5178578
1002
}
1002
{
1070
     5
1000
4450563
1002
}
1002
{
1070
     3
1000
-2000029
1002
}
  0
LINE
  5
1FB
330
1EB
100
AcDbEntity
  8
A-DOOR-FRAM
100
AcDbLine
 10
20.00000000000001
 20
2.999999999999918
 30
0.0
 11
18.00000000000007
 21
2.999999999999925
 31
0.0
1001
REVIT
1002
{
1070
     1
1000
5178578
1002
}
1002
{
1070
     5
1000
4450563
1002
}
1002
{
1070
     3
1000
-2000029
1002
}
  0
LINE
  5
1FC
330
1EB
100
AcDbEntity
  8
A-DOOR-FRAM
100
AcDbLine
 10
18.00000000000007
 20
2.999999999999925
 30
0.0
 11
18.00000000000007
 21
1.250000000000171
 31
0.0
1001
REVIT
1002
{
1070
     1
1000
5178578
1002
}
1002
{
1070
     5
1000
4450563
1002
}
1002
{
1070
     3
1000
-2000029
1002
}
  0
LINE
  5
1FD
330
1EB
100
AcDbEntity
  8
A-DOOR-FRAM
100
AcDbLine
 10
18.00000000000007
 20
1.250000000000171
 30
0.0
 11
17.49999999999995
 21
1.250000000000172
 31
0.0
1001
REVIT
1002
{
1070
     1
1000
5178578
1002
}
1002
{
1070
     5
1000
4450563
1002
}
1002
{
1070
     3
1000
-2000029
1002
}
  0
LINE
  5
1FE
330
1EB
100
AcDbEntity
  8
A-DOOR-FRAM
100
AcDbLine
 10
17.49999999999995
 20
1.250000000000172
 30
0.0
 11
17.49999999999995
 21
-0.74999999999988
 31
0.0
1001
REVIT
1002
{
1070
     1
1000
5178578
1002
}
1002
{
1070
     5
1000
4450563
1002
}
1002
{
1070
     3
1000
-2000029
1002
}
  0
LINE
  5
1FF
330
1EB
100
AcDbEntity
  8
A-DOOR-FRAM
100
AcDbLine
 10
17.49999999999995
 20
-0.74999999999988
 30
0.0
 11
18.00000000000007
 21
-0.7499999999998814
 31
0.0
1001
REVIT
1002
{
1070
     1
1000
5178578
1002
}
1002
{
1070
     5
1000
4450563
1002
}
1002
{
1070
     3
1000
-2000029
1002
}
  0
LINE
  5
200
330
1EB
100
AcDbEntity
  8
A-DOOR-FRAM
100
AcDbLine
 10
18.00000000000007
 20
-0.7499999999998814
 30
0.0
 11
18.00000000000006
 21
-3.000000000000059
 31
0.0
1001
REVIT
1002
{
1070
     1
1000
5178578
1002
}
1002
{
1070
     5
1000
4450563
1002
}
1002
{
1070
     3
1000
-2000029
1002
}
  0
LINE
  5
201
330
1EB
100
AcDbEntity
  8
A-DOOR-FRAM
100
AcDbLine
 10
18.00000000000006
 20
-3.000000000000059
 30
0.0
 11
19.99999999999999
 21
-3.000000000000066
 31
0.0
1001
REVIT
1002
{
1070
     1
1000
5178578
1002
}
1002
{
1070
     5
1000
4450563
1002
}
1002
{
1070
     3
1000
-2000029
1002
}
  0
LINE
  5
202
330
1EB
100
AcDbEntity
  8
A-DOOR-FRAM
100
AcDbLine
 10
19.99999999999999
 20
-3.000000000000066
 30
0.0
 11
20.00000000000001
 21
2.999999999999918
 31
0.0
1001
REVIT
1002
{
1070
     1
1000
5178578
1002
}
1002
{
1070
     5
1000
4450563
1002
}
1002
{
1070
     3
1000
-2000029
1002
}
  0
LINE
  5
203
330
1EB
100
AcDbEntity
  8
A-DOOR
370
    15
100
AcDbLine
 10
17.99999999999993
 20
38.99999999999938
 30
0.0
 11
16.24999999999993
 21
38.99999999999938
 31
0.0
1001
REVIT
1002
{
1070
     1
1000
5178578
1002
}
1002
{
1070
     5
1000
4450563
1002
}
  0
LINE
  5
204
330
1EB
100
AcDbEntity
  8
A-DOOR
370
    15
100
AcDbLine
 10
18.0
 20
2.999999999999383
 30
0.0
 11
17.99999999999993
 21
38.99999999999938
 31
0.0
1001
REVIT
1002
{
1070
     1
1000
5178578
1002
}
1002
{
1070
     5
1000
4450563
1002
}
  0
LINE
  5
205
330
1EB
100
AcDbEntity
  8
A-DOOR
370
    15
100
AcDbLine
 10
16.24999999999993
 20
38.99999999999938
 30
0.0
 11
16.25
 21
2.999999999999381
 31
0.0
1001
REVIT
1002
{
1070
     1
1000
5178578
1002
}
1002
{
1070
     5
1000
4450563
1002
}
  0
LINE
  5
206
330
1EB
100
AcDbEntity
  8
A-DOOR
370
    15
100
AcDbLine
 10
18.0
 20
2.999999999999383
 30
0.0
 11
16.25
 21
2.999999999999381
 31
0.0
1001
REVIT
1002
{
1070
     1
1000
5178578
1002
}
1002
{
1070
     5
1000
4450563
1002
}
  0
ARC
  5
207
330
1EB
100
AcDbEntity
  8
A-DOOR
100
AcDbCircle
 10
18.0
 20
2.999999999999386
 30
0.0
 40
36.0
100
AcDbArc
 50
90.00000000000012
 51
180.4999999999968
1001
REVIT
1002
{
1070
     1
1000
5178578
1002
}
1002
{
1070
     5
1000
4450563
1002
}
1002
{
1070
     3
1000
636535
1002
}
  0
ARC
  5
208
330
1EB
100
AcDbEntity
  8
A-DOOR
100
AcDbCircle
 10
18.0
 20
2.999999999999386
 30
0.0
 40
36.0
100
AcDbArc
 50
90.00000000000012
 51
180.4999999999962
1001
REVIT
1002
{
1070
     1
1000
5178578
1002
}
1002
{
1070
     5
1000
4450563
1002
}
1002
{
1070
     3
1000
636535
1002
}
  0
ENDBLK
  5
20A
330
1EB
100
AcDbEntity
  8
0
100
AcDbBlockEnd
  0
BLOCK
  5
216
330
211
100
AcDbEntity
  8
0
100
AcDbBlockBegin
  2
Elevation - Detail Number_CE_-134675-LEVEL 2
 70
     0
 10
0.0
 20
0.0
 30
0.0
  3
Elevation - Detail Number_CE_-134675-LEVEL 2
  1

  0
LINE
  5
212
330
211
100
AcDbEntity
  8
G-ANNO-SYMB
370
    25
100
AcDbLine
 10
0.2499999999999999
 20
0.25
 30
0.0
 11
0.2499999999999999
 21
-0.25
 31
0.0
1001
REVIT
1002
{
1070
     1
1000
317691
1002
}
1002
{
1070
     5
1000
134756
1002
}
  0
LINE
  5
213
330
211
100
AcDbEntity
  8
G-ANNO-SYMB
370
    25
100
AcDbLine
 10
0.2499999999999999
 20
-0.25
 30
0.0
 11
-0.25
 21
-0.25
 31
0.0
1001
REVIT
1002
{
1070
     1
1000
317691
1002
}
1002
{
1070
     5
1000
134756
1002
}
  0
LINE
  5
214
330
211
100
AcDbEntity
  8
G-ANNO-SYMB
370
    25
100
AcDbLine
 10
-0.25
 20
-0.25
 30
0.0
 11
-0.25
 21
0.25
 31
0.0
1001
REVIT
1002
{
1070
     1
1000
317691
1002
}
1002
{
1070
     5
1000
134756
1002
}
  0
LINE
  5
215
330
211
100
AcDbEntity
  8
G-ANNO-SYMB
370
    25
100
AcDbLine
 10
-0.25
 20
0.25
 30
0.0
 11
0.2499999999999999
 21
0.25
 31
0.0
1001
REVIT
1002
{
1070
     1
1000
317691
1002
}
1002
{
1070
     5
1000
134756
1002
}
  0
ENDBLK
  5
217
330
211
100
AcDbEntity
  8
0
100
AcDbBlockEnd
  0
BLOCK
  5
21E
330
21A
100
AcDbEntity
  8
0
100
AcDbBlockBegin
  2
Elevation - Detail Number_CE_-46063-LEVEL 2
 70
     0
 10
0.0
 20
0.0
 30
0.0
  3
Elevation - Detail Number_CE_-46063-LEVEL 2
  1

  0
LINE
  5
21B
330
21A
100
AcDbEntity
  8
G-ANNO-SYMB
370
    25
100
AcDbLine
 10
0.0
 20
0.249999999999999
 30
0.0
 11
-0.2499999999999996
 21
-0.0000000000000002
 31
0.0
1001
REVIT
1002
{
1070
     1
1000
317692
1002
}
1002
{
1070
     5
1000
134756
1002
}
  0
LINE
  5
21C
330
21A
100
AcDbEntity
  8
G-ANNO-SYMB
370
    25
100
AcDbLine
 10
0.2499999999999996
 20
-0.0000000000000003
 30
0.0
 11
0.0
 21
0.249999999999999
 31
0.0
1001
REVIT
1002
{
1070
     1
1000
317692
1002
}
1002
{
1070
     5
1000
134756
1002
}
  0
LINE
  5
21D
330
21A
100
AcDbEntity
  8
G-ANNO-SYMB
370
    25
100
AcDbLine
 10
-0.2499999999999995
 20
-0.0000000000000002
 30
0.0
 11
0.2499999999999996
 21
-0.0000000000000002
 31
0.0
1001
REVIT
1002
{
1070
     1
1000
317692
1002
}
1002
{
1070
     5
1000
134756
1002
}
  0
ENDBLK
  5
21F
330
21A
100
AcDbEntity
  8
0
100
AcDbBlockEnd
  0
BLOCK
  5
226
330
224
100
AcDbEntity
  8
0
100
AcDbBlockBegin
  2
Grid - Grid Head-Circle_CE_-46466-LEVEL 2
 70
     0
 10
0.0
 20
0.0
 30
0.0
  3
Grid - Grid Head-Circle_CE_-46466-LEVEL 2
  1

  0
CIRCLE
  5
225
330
224
100
AcDbEntity
  8
S-GRID-IDEN
100
AcDbCircle
 10
0.0
 20
0.0
 30
0.0
 40
0.1875000000000001
1001
REVIT
1002
{
1070
     1
1000
4532416
1002
}
1002
{
1070
     5
1000
1952
1002
}
  0
ENDBLK
  5
227
330
224
100
AcDbEntity
  8
0
100
AcDbBlockEnd
  0
ENDSEC
  0
SECTION
  2
ENTITIES
  0
HATCH
  5
92
330
70
100
AcDbEntity
  8
A-WALL
 62
     7
100
AcDbHatch
 10
0.0
 20
0.0
 30
0.0
210
0.0
220
0.0
230
1.0
  2
SOLID
 70
     1
 71
     0
 91
        1
 92
        1
 93
        5
 72
     1
 10
706.4211168848356
 20
-843.4764545958977
 11
706.4211168848356
 21
-831.4764545958977
 72
     1
 10
706.4211168848356
 20
-831.4764545958977
 11
-276.5788831151642
 21
-831.4764545958915
 72
     1
 10
-276.5788831151642
 20
-831.4764545958915
 11
-276.5788831151644
 21
-843.4764545958916
 72
     1
 10
-276.5788831151644
 20
-843.4764545958916
 11
104.2186932504505
 21
-843.4764545958939
 72
     1
 10
104.2186932504505
 20
-843.4764545958939
 11
706.4211168848356
 21
-843.4764545958977
 97
        0
 75
     0
 76
     1
 98
        1
 10
0.0
 20
0.0
450
        0
451
        0
460
0.0
461
0.0
452
        0
462
0.0
453
        0
470

1001
REVIT
1002
{
1070
     1
1000
5132436
1002
}
1002
{
1070
     5
1000
639164
1002
}
1002
{
1070
     2
1000
-2000011
1002
}
  0
HATCH
  5
98
330
70
100
AcDbEntity
  8
A-WALL
 62
     7
100
AcDbHatch
 10
0.0
 20
0.0
 30
0.0
210
0.0
220
0.0
230
1.0
  2
SOLID
 70
     1
 71
     0
 91
        1
 92
        1
 93
        5
 72
     1
 10
-276.5788831151642
 20
-831.4764545958915
 11
-264.5788831151644
 21
-831.4764545958915
 72
     1
 10
-264.5788831151644
 20
-831.4764545958915
 11
-264.5788831151639
 21
-704.476454595891
 72
     1
 10
-264.5788831151639
 20
-704.476454595891
 11
-276.578883115164
 21
-704.476454595891
 72
     1
 10
-276.578883115164
 20
-704.476454595891
 11
-276.578883115164
 21
-716.4764545958912
 72
     1
 10
-276.578883115164
 20
-716.4764545958912
 11
-276.5788831151642
 21
-831.4764545958915
 97
        0
 75
     0
 76
     1
 98
        1
 10
0.0
 20
0.0
450
        0
451
        0
460
0.0
461
0.0
452
        0
462
0.0
453
        0
470

1001
REVIT
1002
{
1070
     1
1000
5132486
1002
}
1002
{
1070
     5
1000
639164
1002
}
1002
{
1070
     2
1000
-2000011
1002
}
  0
HATCH
  5
9E
330
70
100
AcDbEntity
  8
A-WALL
 62
     7
100
AcDbHatch
 10
0.0
 20
0.0
 30
0.0
210
0.0
220
0.0
230
1.0
  2
SOLID
 70
     1
 71
     0
 91
        1
 92
        1
 93
        5
 72
     1
 10
-276.578883115164
 20
-716.4764545958912
 11
-276.578883115164
 21
-704.476454595891
 72
     1
 10
-276.578883115164
 20
-704.476454595891
 11
-331.5788831151635
 21
-704.476454595891
 72
     1
 10
-331.5788831151635
 20
-704.476454595891
 11
-331.5788831151635
 21
-716.4764545958909
 72
     1
 10
-331.5788831151635
 20
-716.4764545958909
 11
-319.5788831151635
 21
-716.4764545958909
 72
     1
 10
-319.5788831151635
 20
-716.4764545958909
 11
-276.578883115164
 21
-716.4764545958912
 97
        0
 75
     0
 76
     1
 98
        1
 10
0.0
 20
0.0
450
        0
451
        0
460
0.0
461
0.0
452
        0
462
0.0
453
        0
470

1001
REVIT
1002
{
1070
     1
1000
5132522
1002
}
1002
{
1070
     5
1000
639164
1002
}
1002
{
1070
     2
1000
-2000011
1002
}
  0
HATCH
  5
A3
330
70
100
AcDbEntity
  8
A-WALL
 62
     7
100
AcDbHatch
 10
0.0
 20
0.0
 30
0.0
210
0.0
220
0.0
230
1.0
  2
SOLID
 70
     1
 71
     0
 91
        1
 92
        1
 93
        4
 72
     1
 10
-319.5788831151635
 20
-704.476454595891
 11
-319.5788831151633
 21
-688.4764545958898
 72
     1
 10
-319.5788831151633
 20
-688.4764545958898
 11
-331.5788831151635
 21
-688.4764545958898
 72
     1
 10
-331.5788831151635
 20
-688.4764545958898
 11
-331.5788831151635
 21
-704.476454595891
 72
     1
 10
-331.5788831151635
 20
-704.476454595891
 11
-319.5788831151635
 21
-704.476454595891
 97
        0
 75
     0
 76
     1
 98
        1
 10
0.0
 20
0.0
450
        0
451
        0
460
0.0
461
0.0
452
        0
462
0.0
453
        0
470

1001
REVIT
1002
{
1070
     1
1000
5132569
1002
}
1002
{
1070
     5
1000
639164
1002
}
1002
{
1070
     2
1000
-2000011
1002
}
  0
HATCH
  5
A8
330
70
100
AcDbEntity
  8
A-WALL
 62
     7
100
AcDbHatch
 10
0.0
 20
0.0
 30
0.0
210
0.0
220
0.0
230
1.0
  2
SOLID
 70
     1
 71
     0
 91
        1
 92
        1
 93
        4
 72
     1
 10
-319.578883115163
 20
-600.4764545958912
 11
-319.5788831151626
 21
-555.4764545958899
 72
     1
 10
-319.5788831151626
 20
-555.4764545958899
 11
-331.5788831151628
 21
-555.4764545958898
 72
     1
 10
-331.5788831151628
 20
-555.4764545958898
 11
-331.578883115163
 21
-600.4764545958911
 72
     1
 10
-331.578883115163
 20
-600.4764545958911
 11
-319.578883115163
 21
-600.4764545958912
 97
        0
 75
     0
 76
     1
 98
        1
 10
0.0
 20
0.0
450
        0
451
        0
460
0.0
461
0.0
452
        0
462
0.0
453
        0
470

1001
REVIT
1002
{
1070
     1
1000
5133015
1002
}
1002
{
1070
     5
1000
639164
1002
}
1002
{
1070
     2
1000
-2000011
1002
}
  0
HATCH
  5
AD
330
70
100
AcDbEntity
  8
A-WALL
 62
     7
100
AcDbHatch
 10
0.0
 20
0.0
 30
0.0
210
0.0
220
0.0
230
1.0
  2
SOLID
 70
     1
 71
     0
 91
        1
 92
        1
 93
        4
 72
     1
 10
-319.5788831151623
 20
-467.4764545958912
 11
-319.5788831151619
 21
-422.4764545958897
 72
     1
 10
-319.5788831151619
 20
-422.4764545958897
 11
-331.5788831151619
 21
-422.4764545958896
 72
     1
 10
-331.5788831151619
 20
-422.4764545958896
 11
-331.5788831151621
 21
-467.4764545958912
 72
     1
 10
-331.5788831151621
 20
-467.4764545958912
 11
-319.5788831151623
 21
-467.4764545958912
 97
        0
 75
     0
 76
     1
 98
        1
 10
0.0
 20
0.0
450
        0
451
        0
460
0.0
461
0.0
452
        0
462
0.0
453
        0
470

1001
REVIT
1002
{
1070
     1
1000
5133265
1002
}
1002
{
1070
     5
1000
639164
1002
}
1002
{
1070
     2
1000
-2000011
1002
}
  0
HATCH
  5
B2
330
70
100
AcDbEntity
  8
A-WALL
 62
     7
100
AcDbHatch
 10
0.0
 20
0.0
 30
0.0
210
0.0
220
0.0
230
1.0
  2
SOLID
 70
     1
 71
     0
 91
        1
 92
        1
 93
        4
 72
     1
 10
-319.5788831151616
 20
-334.4764545958912
 11
-319.5788831151613
 21
-306.4764545958901
 72
     1
 10
-319.5788831151613
 20
-306.4764545958901
 11
-331.5788831151613
 21
-306.4764545958901
 72
     1
 10
-331.5788831151613
 20
-306.4764545958901
 11
-331.5788831151615
 21
-334.476454595891
 72
     1
 10
-331.5788831151615
 20
-334.476454595891
 11
-319.5788831151616
 21
-334.4764545958912
 97
        0
 75
     0
 76
     1
 98
        1
 10
0.0
 20
0.0
450
        0
451
        0
460
0.0
461
0.0
452
        0
462
0.0
453
        0
470

1001
REVIT
1002
{
1070
     1
1000
5133536
1002
}
1002
{
1070
     5
1000
639164
1002
}
1002
{
1070
     2
1000
-2000011
1002
}
  0
HATCH
  5
B8
330
70
100
AcDbEntity
  8
A-WALL
 62
     7
100
AcDbHatch
 10
0.0
 20
0.0
 30
0.0
210
0.0
220
0.0
230
1.0
  2
SOLID
 70
     1
 71
     0
 91
        1
 92
        1
 93
        5
 72
     1
 10
-264.5788831151627
 20
-318.4764545958905
 11
-264.5788831151627
 21
-306.4764545958905
 72
     1
 10
-264.5788831151627
 20
-306.4764545958905
 11
-319.5788831151613
 21
-306.4764545958901
 72
     1
 10
-319.5788831151613
 20
-306.4764545958901
 11
-319.5788831151614
 21
-318.4764545958901
 72
     1
 10
-319.5788831151614
 20
-318.4764545958901
 11
-267.3665926632207
 21
-318.4764545958905
 72
     1
 10
-267.3665926632207
 20
-318.4764545958905
 11
-264.5788831151627
 21
-318.4764545958905
 97
        0
 75
     0
 76
     1
 98
        1
 10
0.0
 20
0.0
450
        0
451
        0
460
0.0
461
0.0
452
        0
462
0.0
453
        0
470

1001
REVIT
1002
{
1070
     1
1000
5133577
1002
}
1002
{
1070
     5
1000
639164
1002
}
1002
{
1070
     2
1000
-2000011
1002
}
  0
HATCH
  5
BE
330
70
100
AcDbEntity
  8
A-WALL
 62
     7
100
AcDbHatch
 10
0.0
 20
0.0
 30
0.0
210
0.0
220
0.0
230
1.0
  2
SOLID
 70
     1
 71
     0
 91
        1
 92
        1
 93
        5
 72
     1
 10
-267.3665926632207
 20
-306.4764545958905
 11
-264.5788831151627
 21
-306.4764545958905
 72
     1
 10
-264.5788831151627
 20
-306.4764545958905
 11
-264.5788831151622
 21
-179.4764545958903
 72
     1
 10
-264.5788831151622
 20
-179.4764545958903
 11
-276.5788831151624
 21
-179.4764545958903
 72
     1
 10
-276.5788831151624
 20
-179.4764545958903
 11
-276.5788831151627
 21
-306.4764545958904
 72
     1
 10
-276.5788831151627
 20
-306.4764545958904
 11
-267.3665926632207
 21
-306.4764545958905
 97
        0
 75
     0
 76
     1
 98
        1
 10
0.0
 20
0.0
450
        0
451
        0
460
0.0
461
0.0
452
        0
462
0.0
453
        0
470

1001
REVIT
1002
{
1070
     1
1000
5133643
1002
}
1002
{
1070
     5
1000
639164
1002
}
1002
{
1070
     2
1000
-2000011
1002
}
  0
HATCH
  5
C4
330
70
100
AcDbEntity
  8
A-WALL
 62
     7
100
AcDbHatch
 10
0.0
 20
0.0
 30
0.0
210
0.0
220
0.0
230
1.0
  2
SOLID
 70
     1
 71
     0
 91
        1
 92
        1
 93
        5
 72
     1
 10
698.9211168848387
 20
-191.4764545958965
 11
698.9211168848387
 21
-179.4764545958966
 72
     1
 10
698.9211168848387
 20
-179.4764545958966
 11
-264.5788831151622
 21
-179.4764545958903
 72
     1
 10
-264.5788831151622
 20
-179.4764545958903
 11
-264.5788831151622
 21
-191.4764545958903
 72
     1
 10
-264.5788831151622
 20
-191.4764545958903
 11
104.2186932504505
 21
-191.4764545958927
 72
     1
 10
104.2186932504505
 20
-191.4764545958927
 11
698.9211168848387
 21
-191.4764545958965
 97
        0
 75
     0
 76
     1
 98
        1
 10
0.0
 20
0.0
450
        0
451
        0
460
0.0
461
0.0
452
        0
462
0.0
453
        0
470

1001
REVIT
1002
{
1070
     1
1000
5133814
1002
}
1002
{
1070
     5
1000
639164
1002
}
1002
{
1070
     2
1000
-2000011
1002
}
  0
HATCH
  5
CA
330
70
100
AcDbEntity
  8
A-WALL
 62
     7
100
AcDbHatch
 10
0.0
 20
0.0
 30
0.0
210
0.0
220
0.0
230
1.0
  2
SOLID
 70
     1
 71
     0
 91
        1
 92
        1
 93
        5
 72
     1
 10
1064.421116884839
 20
-191.4764545958984
 11
1064.421116884839
 21
-179.4764545958984
 72
     1
 10
1064.421116884839
 20
-179.4764545958984
 11
782.4211168848388
 21
-179.4764545958971
 72
     1
 10
782.4211168848388
 20
-179.4764545958971
 11
782.4211168848388
 21
-191.4764545958971
 72
     1
 10
782.4211168848388
 20
-191.4764545958971
 11
1052.421116884839
 21
-191.4764545958984
 72
     1
 10
1052.421116884839
 20
-191.4764545958984
 11
1064.421116884839
 21
-191.4764545958984
 97
        0
 75
     0
 76
     1
 98
        1
 10
0.0
 20
0.0
450
        0
451
        0
460
0.0
461
0.0
452
        0
462
0.0
453
        0
470

1001
REVIT
1002
{
1070
     1
1000
5134306
1002
}
1002
{
1070
     5
1000
639164
1002
}
1002
{
1070
     2
1000
-2000011
1002
}
  0
HATCH
  5
CF
330
70
100
AcDbEntity
  8
A-WALL
 62
     7
100
AcDbHatch
 10
0.0
 20
0.0
 30
0.0
210
0.0
220
0.0
230
1.0
  2
SOLID
 70
     1
 71
     0
 91
        1
 92
        1
 93
        4
 72
     1
 10
1064.421116884836
 20
-831.4764545959
 11
1064.421116884839
 21
-191.4764545958984
 72
     1
 10
1064.421116884839
 20
-191.4764545958984
 11
1052.421116884839
 21
-191.4764545958984
 72
     1
 10
1052.421116884839
 20
-191.4764545958984
 11
1052.421116884836
 21
-831.4764545959
 72
     1
 10
1052.421116884836
 20
-831.4764545959
 11
1064.421116884836
 21
-831.4764545959
 97
        0
 75
     0
 76
     1
 98
        1
 10
0.0
 20
0.0
450
        0
451
        0
460
0.0
461
0.0
452
        0
462
0.0
453
        0
470

1001
REVIT
1002
{
1070
     1
1000
5134473
1002
}
1002
{
1070
     5
1000
639164
1002
}
1002
{
1070
     2
1000
-2000011
1002
}
  0
HATCH
  5
D5
330
70
100
AcDbEntity
  8
A-WALL
 62
     7
100
AcDbHatch
 10
0.0
 20
0.0
 30
0.0
210
0.0
220
0.0
230
1.0
  2
SOLID
 70
     1
 71
     0
 91
        1
 92
        1
 93
        5
 72
     1
 10
1052.421116884836
 20
-843.4764545959001
 11
1064.421116884836
 21
-843.4764545959001
 72
     1
 10
1064.421116884836
 20
-843.4764545959001
 11
1064.421116884836
 21
-831.4764545959
 72
     1
 10
1064.421116884836
 20
-831.4764545959
 11
782.4211168848358
 21
-831.476454595899
 72
     1
 10
782.4211168848358
 20
-831.476454595899
 11
782.4211168848358
 21
-843.4764545958991
 72
     1
 10
782.4211168848358
 20
-843.4764545958991
 11
1052.421116884836
 21
-843.4764545959001
 97
        0
 75
     0
 76
     1
 98
        1
 10
0.0
 20
0.0
450
        0
451
        0
460
0.0
461
0.0
452
        0
462
0.0
453
        0
470

1001
REVIT
1002
{
1070
     1
1000
5134517
1002
}
1002
{
1070
     5
1000
639164
1002
}
1002
{
1070
     2
1000
-2000011
1002
}
  0
HATCH
  5
DC
330
70
100
AcDbEntity
  8
I-WALL
 62
     7
100
AcDbHatch
 10
0.0
 20
0.0
 30
0.0
210
0.0
220
0.0
230
1.0
  2
SOLID
 70
     1
 71
     0
 91
        1
 92
        1
 93
        6
 72
     1
 10
-51.57888311516359
 20
-634.9764545958925
 11
-46.57888311516352
 21
-634.9764545958925
 72
     1
 10
-46.57888311516352
 20
-634.9764545958925
 11
-46.57888311516352
 21
-629.9764545958926
 72
     1
 10
-46.57888311516352
 20
-629.9764545958926
 11
-212.5788831151629
 21
-629.9764545958922
 72
     1
 10
-212.5788831151629
 20
-629.9764545958922
 11
-212.5788831151629
 21
-634.9764545958922
 72
     1
 10
-212.5788831151629
 20
-634.9764545958922
 11
-207.578883115163
 21
-634.9764545958922
 72
     1
 10
-207.578883115163
 20
-634.9764545958922
 11
-51.57888311516359
 21
-634.9764545958925
 97
        0
 75
     0
 76
     1
 98
        1
 10
0.0
 20
0.0
450
        0
451
        0
460
0.0
461
0.0
452
        0
462
0.0
453
        0
470

1001
REVIT
1002
{
1070
     1
1000
5162613
1002
}
1002
{
1070
     5
1000
639165
1002
}
1002
{
1070
     2
1000
-2000011
1002
}
  0
HATCH
  5
E1
330
70
100
AcDbEntity
  8
I-WALL
 62
     7
100
AcDbHatch
 10
0.0
 20
0.0
 30
0.0
210
0.0
220
0.0
230
1.0
  2
SOLID
 70
     1
 71
     0
 91
        1
 92
        1
 93
        4
 72
     1
 10
-46.57888311516352
 20
-629.9764545958928
 11
-46.57888311516267
 21
-387.9764545958923
 72
     1
 10
-46.57888311516267
 20
-387.9764545958923
 11
-51.57888311516273
 21
-387.9764545958923
 72
     1
 10
-51.57888311516273
 20
-387.9764545958923
 11
-51.57888311516359
 21
-629.9764545958926
 72
     1
 10
-51.57888311516359
 20
-629.9764545958926
 11
-46.57888311516352
 21
-629.9764545958928
 97
        0
 75
     0
 76
     1
 98
        1
 10
0.0
 20
0.0
450
        0
451
        0
460
0.0
461
0.0
452
        0
462
0.0
453
        0
470

1001
REVIT
1002
{
1070
     1
1000
5162614
1002
}
1002
{
1070
     5
1000
639165
1002
}
1002
{
1070
     2
1000
-2000011
1002
}
  0
HATCH
  5
E7
330
70
100
AcDbEntity
  8
I-WALL
 62
     7
100
AcDbHatch
 10
0.0
 20
0.0
 30
0.0
210
0.0
220
0.0
230
1.0
  2
SOLID
 70
     1
 71
     0
 91
        1
 92
        1
 93
        5
 72
     1
 10
-51.57888311516273
 20
-392.9764545958923
 11
-51.57888311516273
 21
-387.9764545958923
 72
     1
 10
-51.57888311516273
 20
-387.9764545958923
 11
-207.5788831151617
 21
-387.9764545958918
 72
     1
 10
-207.5788831151617
 20
-387.9764545958918
 11
-207.5788831151617
 21
-392.9764545958918
 72
     1
 10
-207.5788831151617
 20
-392.9764545958918
 11
-124.6880378322094
 21
-392.976454595892
 72
     1
 10
-124.6880378322094
 20
-392.976454595892
 11
-51.57888311516273
 21
-392.9764545958923
 97
        0
 75
     0
 76
     1
 98
        1
 10
0.0
 20
0.0
450
        0
451
        0
460
0.0
461
0.0
452
        0
462
0.0
453
        0
470

1001
REVIT
1002
{
1070
     1
1000
5162615
1002
}
1002
{
1070
     5
1000
639165
1002
}
1002
{
1070
     2
1000
-2000011
1002
}
  0
HATCH
  5
F0
330
70
100
AcDbEntity
  8
A-WALL
 62
     7
100
AcDbHatch
 10
0.0
 20
0.0
 30
0.0
210
0.0
220
0.0
230
1.0
  2
SOLID
 70
     1
 71
     0
 91
        2
 92
        1
 93
        4
 72
     1
 10
-331.5788831151635
 20
-688.4764545958898
 11
-319.5788831151633
 21
-688.4764545958898
 72
     1
 10
-319.5788831151633
 20
-688.4764545958898
 11
-319.5788831151633
 21
-682.4764545958897
 72
     1
 10
-319.5788831151633
 20
-682.4764545958897
 11
-331.5788831151635
 21
-682.4764545958897
 72
     1
 10
-331.5788831151635
 20
-682.4764545958897
 11
-331.5788831151635
 21
-688.4764545958898
 97
        0
 92
        1
 93
        4
 72
     1
 10
-331.578883115163
 20
-606.476454595891
 11
-319.578883115163
 21
-606.476454595891
 72
     1
 10
-319.578883115163
 20
-606.476454595891
 11
-319.578883115163
 21
-600.4764545958912
 72
     1
 10
-319.578883115163
 20
-600.4764545958912
 11
-331.578883115163
 21
-600.4764545958911
 72
     1
 10
-331.578883115163
 20
-600.4764545958911
 11
-331.578883115163
 21
-606.476454595891
 97
        0
 75
     0
 76
     1
 98
        1
 10
0.0
 20
0.0
450
        0
451
        0
460
0.0
461
0.0
452
        0
462
0.0
453
        0
470

1001
REVIT
1002
{
1070
     1
1000
5164544
1002
}
1002
{
1070
     5
1000
639164
1002
}
1002
{
1070
     2
1000
-2000011
1002
}
  0
HATCH
  5
F9
330
70
100
AcDbEntity
  8
A-WALL
 62
     7
100
AcDbHatch
 10
0.0
 20
0.0
 30
0.0
210
0.0
220
0.0
230
1.0
  2
SOLID
 70
     1
 71
     0
 91
        2
 92
        1
 93
        4
 72
     1
 10
-319.5788831151628
 20
-555.4764545958899
 11
-319.5788831151628
 21
-549.4764545958897
 72
     1
 10
-319.5788831151628
 20
-549.4764545958897
 11
-331.5788831151628
 21
-549.4764545958896
 72
     1
 10
-331.5788831151628
 20
-549.4764545958896
 11
-331.5788831151628
 21
-555.4764545958898
 72
     1
 10
-331.5788831151628
 20
-555.4764545958898
 11
-319.5788831151628
 21
-555.4764545958899
 97
        0
 92
        1
 93
        4
 72
     1
 10
-319.5788831151623
 20
-473.4764545958912
 11
-319.5788831151623
 21
-467.4764545958912
 72
     1
 10
-319.5788831151623
 20
-467.4764545958912
 11
-331.5788831151623
 21
-467.4764545958912
 72
     1
 10
-331.5788831151623
 20
-467.4764545958912
 11
-331.5788831151623
 21
-473.4764545958911
 72
     1
 10
-331.5788831151623
 20
-473.4764545958911
 11
-319.5788831151623
 21
-473.4764545958912
 97
        0
 75
     0
 76
     1
 98
        1
 10
0.0
 20
0.0
450
        0
451
        0
460
0.0
461
0.0
452
        0
462
0.0
453
        0
470

1001
REVIT
1002
{
1070
     1
1000
5164697
1002
}
1002
{
1070
     5
1000
639164
1002
}
1002
{
1070
     2
1000
-2000011
1002
}
  0
HATCH
  5
102
330
70
100
AcDbEntity
  8
A-WALL
 62
     7
100
AcDbHatch
 10
0.0
 20
0.0
 30
0.0
210
0.0
220
0.0
230
1.0
  2
SOLID
 70
     1
 71
     0
 91
        2
 92
        1
 93
        4
 72
     1
 10
-319.5788831151621
 20
-422.4764545958897
 11
-319.5788831151621
 21
-416.4764545958896
 72
     1
 10
-319.5788831151621
 20
-416.4764545958896
 11
-331.5788831151621
 21
-416.4764545958895
 72
     1
 10
-331.5788831151621
 20
-416.4764545958895
 11
-331.5788831151621
 21
-422.4764545958896
 72
     1
 10
-331.5788831151621
 20
-422.4764545958896
 11
-319.5788831151621
 21
-422.4764545958897
 97
        0
 92
        1
 93
        4
 72
     1
 10
-331.5788831151616
 20
-340.4764545958911
 11
-319.5788831151616
 21
-340.4764545958911
 72
     1
 10
-319.5788831151616
 20
-340.4764545958911
 11
-319.5788831151616
 21
-334.4764545958912
 72
     1
 10
-319.5788831151616
 20
-334.4764545958912
 11
-331.5788831151616
 21
-334.4764545958911
 72
     1
 10
-331.5788831151616
 20
-334.4764545958911
 11
-331.5788831151616
 21
-340.4764545958911
 97
        0
 75
     0
 76
     1
 98
        1
 10
0.0
 20
0.0
450
        0
451
        0
460
0.0
461
0.0
452
        0
462
0.0
453
        0
470

1001
REVIT
1002
{
1070
     1
1000
5164788
1002
}
1002
{
1070
     5
1000
639164
1002
}
1002
{
1070
     2
1000
-2000011
1002
}
  0
HATCH
  5
10B
330
70
100
AcDbEntity
  8
I-WALL
 62
     7
100
AcDbHatch
 10
0.0
 20
0.0
 30
0.0
210
0.0
220
0.0
230
1.0
  2
SOLID
 70
     1
 71
     0
 91
        2
 92
        1
 93
        4
 72
     1
 10
-207.578883115163
 20
-629.9764545958922
 11
-207.5788831151627
 21
-593.9764545959072
 72
     1
 10
-207.5788831151627
 20
-593.9764545959072
 11
-212.5788831151627
 21
-593.9764545959072
 72
     1
 10
-212.5788831151627
 20
-593.9764545959072
 11
-212.5788831151629
 21
-629.9764545958922
 72
     1
 10
-212.5788831151629
 20
-629.9764545958922
 11
-207.578883115163
 21
-629.9764545958922
 97
        0
 92
        1
 93
        4
 72
     1
 10
-207.5788831151625
 20
-553.9764545959071
 11
-207.5788831151617
 21
-387.9764545958918
 72
     1
 10
-207.5788831151617
 20
-387.9764545958918
 11
-212.5788831151617
 21
-387.9764545958918
 72
     1
 10
-212.5788831151617
 20
-387.9764545958918
 11
-212.5788831151626
 21
-553.9764545959071
 72
     1
 10
-212.5788831151626
 20
-553.9764545959071
 11
-207.5788831151625
 21
-553.9764545959071
 97
        0
 75
     0
 76
     1
 98
        1
 10
0.0
 20
0.0
450
        0
451
        0
460
0.0
461
0.0
452
        0
462
0.0
453
        0
470

1001
REVIT
1002
{
1070
     1
1000
5165393
1002
}
1002
{
1070
     5
1000
639165
1002
}
1002
{
1070
     2
1000
-2000011
1002
}
  0
HATCH
  5
111
330
70
100
AcDbEntity
  8
I-WALL
 62
     7
100
AcDbHatch
 10
0.0
 20
0.0
 30
0.0
210
0.0
220
0.0
230
1.0
  2
SOLID
 70
     1
 71
     0
 91
        1
 92
        1
 93
        5
 72
     1
 10
68.4211168848369
 20
-831.4764545958936
 11
73.42111688483679
 21
-831.4764545958936
 72
     1
 10
73.42111688483679
 20
-831.4764545958936
 11
73.42111688484003
 21
-191.4764545958925
 72
     1
 10
73.42111688484003
 20
-191.4764545958925
 11
68.4211168848398
 21
-191.4764545958925
 72
     1
 10
68.4211168848398
 20
-191.4764545958925
 11
68.42111688483758
 21
-651.8085913371047
 72
     1
 10
68.42111688483758
 20
-651.8085913371047
 11
68.4211168848369
 21
-831.4764545958936
 97
        0
 75
     0
 76
     1
 98
        1
 10
0.0
 20
0.0
450
        0
451
        0
460
0.0
461
0.0
452
        0
462
0.0
453
        0
470

1001
REVIT
1002
{
1070
     1
1000
5166485
1002
}
1002
{
1070
     5
1000
639165
1002
}
1002
{
1070
     2
1000
-2000011
1002
}
  0
HATCH
  5
116
330
70
100
AcDbEntity
  8
A-WALL
 62
     7
100
AcDbHatch
 10
0.0
 20
0.0
 30
0.0
210
0.0
220
0.0
230
1.0
  2
SOLID
 70
     1
 71
     0
 91
        1
 92
        1
 93
        4
 72
     1
 10
782.4211168848388
 20
-191.4764545958971
 11
782.4211168848388
 21
-179.4764545958971
 72
     1
 10
782.4211168848388
 20
-179.4764545958971
 11
698.9211168848387
 21
-179.4764545958966
 72
     1
 10
698.9211168848387
 20
-179.4764545958966
 11
698.9211168848384
 21
-191.4764545958965
 72
     1
 10
698.9211168848384
 20
-191.4764545958965
 11
782.4211168848388
 21
-191.4764545958971
 97
        0
 75
     0
 76
     1
 98
        1
 10
0.0
 20
0.0
450
        0
451
        0
460
0.0
461
0.0
452
        0
462
0.0
453
        0
470

1001
REVIT
1002
{
1070
     1
1000
5168723
1002
}
1002
{
1070
     5
1000
639164
1002
}
1002
{
1070
     2
1000
-2000011
1002
}
  0
HATCH
  5
11B
330
70
100
AcDbEntity
  8
A-WALL
 62
     7
100
AcDbHatch
 10
0.0
 20
0.0
 30
0.0
210
0.0
220
0.0
230
1.0
  2
SOLID
 70
     1
 71
     0
 91
        1
 92
        1
 93
        4
 72
     1
 10
782.4211168848358
 20
-843.4764545958991
 11
782.4211168848358
 21
-831.476454595899
 72
     1
 10
782.4211168848358
 20
-831.476454595899
 11
706.4211168848356
 21
-831.4764545958988
 72
     1
 10
706.4211168848356
 20
-831.4764545958988
 11
706.4211168848356
 21
-843.4764545958987
 72
     1
 10
706.4211168848356
 20
-843.4764545958987
 11
782.4211168848358
 21
-843.4764545958991
 97
        0
 75
     0
 76
     1
 98
        1
 10
0.0
 20
0.0
450
        0
451
        0
460
0.0
461
0.0
452
        0
462
0.0
453
        0
470

1001
REVIT
1002
{
1070
     1
1000
5168830
1002
}
1002
{
1070
     5
1000
639164
1002
}
1002
{
1070
     2
1000
-2000011
1002
}
  0
LINE
  5
11C
330
70
100
AcDbEntity
  8
A-WALL
 62
   250
370
    25
100
AcDbLine
 10
1052.421116884835
 20
-831.476454595899
 30
0.0
 11
73.42111688483671
 21
-831.4764545958928
 31
0.0
1001
REVIT
1002
{
1070
     1
1000
5132436
1002
}
1002
{
1070
     5
1000
639164
1002
}
1002
{
1070
     2
1000
-2000011
1002
}
  0
LINE
  5
11D
330
70
100
AcDbEntity
  8
A-WALL
 62
   250
370
    25
100
AcDbLine
 10
68.4211168848368
 20
-831.4764545958928
 30
0.0
 11
-264.5788831151642
 21
-831.4764545958906
 31
0.0
1001
REVIT
1002
{
1070
     1
1000
5132436
1002
}
1002
{
1070
     5
1000
639164
1002
}
1002
{
1070
     2
1000
-2000011
1002
}
  0
LINE
  5
11F
330
70
100
AcDbEntity
  8
A-WALL
 62
   250
370
    25
100
AcDbLine
 10
-276.5788831151642
 20
-843.4764545958906
 30
0.0
 11
1064.421116884834
 21
-843.4764545958991
 31
0.0
1001
REVIT
1002
{
1070
     1
1000
5132436
1002
}
1002
{
1070
     5
1000
639164
1002
}
1002
{
1070
     2
1000
-2000011
1002
}
  0
LINE
  5
120
330
70
100
AcDbEntity
  8
A-WALL
 62
   250
370
    25
100
AcDbLine
 10
-264.5788831151641
 20
-831.4764545958905
 30
0.0
 11
-264.5788831151637
 21
-704.4764545958903
 31
0.0
1001
REVIT
1002
{
1070
     1
1000
5132486
1002
}
1002
{
1070
     5
1000
639164
1002
}
1002
{
1070
     2
1000
-2000011
1002
}
  0
LINE
  5
122
330
70
100
AcDbEntity
  8
A-WALL
 62
   250
370
    25
100
AcDbLine
 10
-276.5788831151638
 20
-716.4764545958903
 30
0.0
 11
-276.5788831151642
 21
-843.4764545958906
 31
0.0
1001
REVIT
1002
{
1070
     1
1000
5132486
1002
}
1002
{
1070
     5
1000
639164
1002
}
1002
{
1070
     2
1000
-2000011
1002
}
  0
LINE
  5
123
330
70
100
AcDbEntity
  8
A-WALL
 62
   250
370
    25
100
AcDbLine
 10
-264.5788831151637
 20
-704.4764545958903
 30
0.0
 11
-319.5788831151631
 21
-704.4764545958902
 31
0.0
1001
REVIT
1002
{
1070
     1
1000
5132522
1002
}
1002
{
1070
     5
1000
639164
1002
}
1002
{
1070
     2
1000
-2000011
1002
}
  0
LINE
  5
125
330
70
100
AcDbEntity
  8
A-WALL
 62
   250
370
    25
100
AcDbLine
 10
-331.5788831151632
 20
-716.4764545958902
 30
0.0
 11
-276.5788831151638
 21
-716.4764545958903
 31
0.0
1001
REVIT
1002
{
1070
     1
1000
5132522
1002
}
1002
{
1070
     5
1000
639164
1002
}
1002
{
1070
     2
1000
-2000011
1002
}
  0
LINE
  5
126
330
70
100
AcDbEntity
  8
A-WALL
 62
   250
370
    25
100
AcDbLine
 10
-319.5788831151631
 20
-704.4764545958902
 30
0.0
 11
-319.5788831151631
 21
-682.4764545958889
 31
0.0
1001
REVIT
1002
{
1070
     1
1000
5132569
1002
}
1002
{
1070
     5
1000
639164
1002
}
1002
{
1070
     2
1000
-2000011
1002
}
  0
LINE
  5
127
330
70
100
AcDbEntity
  8
A-WALL
 62
   250
370
    25
100
AcDbLine
 10
-331.5788831151631
 20
-682.4764545958888
 30
0.0
 11
-331.5788831151632
 21
-716.4764545958902
 31
0.0
1001
REVIT
1002
{
1070
     1
1000
5132569
1002
}
1002
{
1070
     5
1000
639164
1002
}
1002
{
1070
     2
1000
-2000011
1002
}
  0
LINE
  5
128
330
70
100
AcDbEntity
  8
A-WALL
 62
   250
370
    25
100
AcDbLine
 10
-319.5788831151627
 20
-606.4764545958905
 30
0.0
 11
-319.5788831151624
 21
-549.4764545958892
 31
0.0
1001
REVIT
1002
{
1070
     1
1000
5133015
1002
}
1002
{
1070
     5
1000
639164
1002
}
1002
{
1070
     2
1000
-2000011
1002
}
  0
LINE
  5
129
330
70
100
AcDbEntity
  8
A-WALL
 62
   250
370
    25
100
AcDbLine
 10
-331.5788831151624
 20
-549.4764545958891
 30
0.0
 11
-331.5788831151627
 21
-606.4764545958903
 31
0.0
1001
REVIT
1002
{
1070
     1
1000
5133015
1002
}
1002
{
1070
     5
1000
639164
1002
}
1002
{
1070
     2
1000
-2000011
1002
}
  0
LINE
  5
12A
330
70
100
AcDbEntity
  8
A-WALL
 62
   250
370
    25
100
AcDbLine
 10
-319.5788831151621
 20
-473.4764545958906
 30
0.0
 11
-319.5788831151618
 21
-416.4764545958892
 31
0.0
1001
REVIT
1002
{
1070
     1
1000
5133265
1002
}
1002
{
1070
     5
1000
639164
1002
}
1002
{
1070
     2
1000
-2000011
1002
}
  0
LINE
  5
12B
330
70
100
AcDbEntity
  8
A-WALL
 62
   250
370
    25
100
AcDbLine
 10
-331.5788831151618
 20
-416.4764545958891
 30
0.0
 11
-331.5788831151621
 21
-473.4764545958905
 31
0.0
1001
REVIT
1002
{
1070
     1
1000
5133265
1002
}
1002
{
1070
     5
1000
639164
1002
}
1002
{
1070
     2
1000
-2000011
1002
}
  0
LINE
  5
12C
330
70
100
AcDbEntity
  8
A-WALL
 62
   250
370
    25
100
AcDbLine
 10
-319.5788831151614
 20
-340.4764545958907
 30
0.0
 11
-319.5788831151611
 21
-318.4764545958898
 31
0.0
1001
REVIT
1002
{
1070
     1
1000
5133536
1002
}
1002
{
1070
     5
1000
639164
1002
}
1002
{
1070
     2
1000
-2000011
1002
}
  0
LINE
  5
12E
330
70
100
AcDbEntity
  8
A-WALL
 62
   250
370
    25
100
AcDbLine
 10
-331.5788831151611
 20
-306.4764545958897
 30
0.0
 11
-331.5788831151614
 21
-340.4764545958907
 31
0.0
1001
REVIT
1002
{
1070
     1
1000
5133536
1002
}
1002
{
1070
     5
1000
639164
1002
}
1002
{
1070
     2
1000
-2000011
1002
}
  0
LINE
  5
12F
330
70
100
AcDbEntity
  8
A-WALL
 62
   250
370
    25
100
AcDbLine
 10
-319.5788831151611
 20
-318.4764545958898
 30
0.0
 11
-264.5788831151624
 21
-318.4764545958901
 31
0.0
1001
REVIT
1002
{
1070
     1
1000
5133577
1002
}
1002
{
1070
     5
1000
639164
1002
}
1002
{
1070
     2
1000
-2000011
1002
}
  0
LINE
  5
131
330
70
100
AcDbEntity
  8
A-WALL
 62
   250
370
    25
100
AcDbLine
 10
-276.5788831151624
 20
-306.4764545958901
 30
0.0
 11
-331.5788831151611
 21
-306.4764545958897
 31
0.0
1001
REVIT
1002
{
1070
     1
1000
5133577
1002
}
1002
{
1070
     5
1000
639164
1002
}
1002
{
1070
     2
1000
-2000011
1002
}
  0
LINE
  5
132
330
70
100
AcDbEntity
  8
A-WALL
 62
   250
370
    25
100
AcDbLine
 10
-264.5788831151624
 20
-318.4764545958901
 30
0.0
 11
-264.578883115162
 21
-191.4764545958901
 31
0.0
1001
REVIT
1002
{
1070
     1
1000
5133643
1002
}
1002
{
1070
     5
1000
639164
1002
}
1002
{
1070
     2
1000
-2000011
1002
}
  0
LINE
  5
134
330
70
100
AcDbEntity
  8
A-WALL
 62
   250
370
    25
100
AcDbLine
 10
-276.578883115162
 20
-179.4764545958901
 30
0.0
 11
-276.5788831151624
 21
-306.4764545958901
 31
0.0
1001
REVIT
1002
{
1070
     1
1000
5133643
1002
}
1002
{
1070
     5
1000
639164
1002
}
1002
{
1070
     2
1000
-2000011
1002
}
  0
LINE
  5
135
330
70
100
AcDbEntity
  8
A-WALL
 62
   250
370
    25
100
AcDbLine
 10
-264.578883115162
 20
-191.4764545958901
 30
0.0
 11
68.42111688483988
 21
-191.4764545958923
 31
0.0
1001
REVIT
1002
{
1070
     1
1000
5133814
1002
}
1002
{
1070
     5
1000
639164
1002
}
1002
{
1070
     2
1000
-2000011
1002
}
  0
LINE
  5
136
330
70
100
AcDbEntity
  8
A-WALL
 62
   250
370
    25
100
AcDbLine
 10
73.42111688483981
 20
-191.4764545958923
 30
0.0
 11
1052.421116884838
 21
-191.4764545958982
 31
0.0
1001
REVIT
1002
{
1070
     1
1000
5133814
1002
}
1002
{
1070
     5
1000
639164
1002
}
1002
{
1070
     2
1000
-2000011
1002
}
  0
LINE
  5
137
330
70
100
AcDbEntity
  8
A-WALL
 62
   250
370
    25
100
AcDbLine
 10
1064.421116884838
 20
-179.4764545958982
 30
0.0
 11
-276.578883115162
 21
-179.4764545958901
 31
0.0
1001
REVIT
1002
{
1070
     1
1000
5133814
1002
}
1002
{
1070
     5
1000
639164
1002
}
1002
{
1070
     2
1000
-2000011
1002
}
  0
LINE
  5
13B
330
70
100
AcDbEntity
  8
A-WALL
 62
   250
370
    25
100
AcDbLine
 10
1052.421116884838
 20
-191.4764545958982
 30
0.0
 11
1052.421116884835
 21
-831.476454595899
 31
0.0
1001
REVIT
1002
{
1070
     1
1000
5134473
1002
}
1002
{
1070
     5
1000
639164
1002
}
1002
{
1070
     2
1000
-2000011
1002
}
  0
LINE
  5
13C
330
70
100
AcDbEntity
  8
A-WALL
 62
   250
370
    25
100
AcDbLine
 10
1064.421116884834
 20
-843.4764545958991
 30
0.0
 11
1064.421116884838
 21
-179.4764545958982
 31
0.0
1001
REVIT
1002
{
1070
     1
1000
5134473
1002
}
1002
{
1070
     5
1000
639164
1002
}
1002
{
1070
     2
1000
-2000011
1002
}
  0
LINE
  5
140
330
70
100
AcDbEntity
  8
I-WALL
 62
   250
370
    25
100
AcDbLine
 10
-51.57888311516345
 20
-629.976454595892
 30
0.0
 11
-207.5788831151627
 21
-629.9764545958915
 31
0.0
1001
REVIT
1002
{
1070
     1
1000
5162613
1002
}
1002
{
1070
     5
1000
639165
1002
}
1002
{
1070
     2
1000
-2000011
1002
}
  0
LINE
  5
142
330
70
100
AcDbEntity
  8
I-WALL
 62
   250
370
    25
100
AcDbLine
 10
-212.5788831151628
 20
-634.9764545958914
 30
0.0
 11
-46.57888311516348
 21
-634.9764545958919
 31
0.0
1001
REVIT
1002
{
1070
     1
1000
5162613
1002
}
1002
{
1070
     5
1000
639165
1002
}
1002
{
1070
     2
1000
-2000011
1002
}
  0
LINE
  5
144
330
70
100
AcDbEntity
  8
I-WALL
 62
   250
370
    25
100
AcDbLine
 10
-51.57888311516269
 20
-392.9764545958918
 30
0.0
 11
-51.57888311516345
 21
-629.9764545958919
 31
0.0
1001
REVIT
1002
{
1070
     1
1000
5162614
1002
}
1002
{
1070
     5
1000
639165
1002
}
1002
{
1070
     2
1000
-2000011
1002
}
  0
LINE
  5
145
330
70
100
AcDbEntity
  8
I-WALL
 62
   250
370
    25
100
AcDbLine
 10
-46.57888311516348
 20
-634.9764545958919
 30
0.0
 11
-46.57888311516268
 21
-387.9764545958919
 31
0.0
1001
REVIT
1002
{
1070
     1
1000
5162614
1002
}
1002
{
1070
     5
1000
639165
1002
}
1002
{
1070
     2
1000
-2000011
1002
}
  0
LINE
  5
147
330
70
100
AcDbEntity
  8
I-WALL
 62
   250
370
    25
100
AcDbLine
 10
-207.5788831151616
 20
-392.9764545958913
 30
0.0
 11
-51.57888311516269
 21
-392.9764545958918
 31
0.0
1001
REVIT
1002
{
1070
     1
1000
5162615
1002
}
1002
{
1070
     5
1000
639165
1002
}
1002
{
1070
     2
1000
-2000011
1002
}
  0
LINE
  5
148
330
70
100
AcDbEntity
  8
I-WALL
 62
   250
370
    25
100
AcDbLine
 10
-46.57888311516268
 20
-387.9764545958919
 30
0.0
 11
-124.6880378322093
 21
-387.9764545958916
 31
0.0
1001
REVIT
1002
{
1070
     1
1000
5162615
1002
}
1002
{
1070
     5
1000
639165
1002
}
1002
{
1070
     2
1000
-2000011
1002
}
  0
LINE
  5
149
330
70
100
AcDbEntity
  8
I-WALL
 62
   250
370
    25
100
AcDbLine
 10
-137.1579754276578
 20
-387.9764545958916
 30
0.0
 11
-212.5788831151616
 21
-387.9764545958914
 31
0.0
1001
REVIT
1002
{
1070
     1
1000
5162615
1002
}
1002
{
1070
     5
1000
639165
1002
}
1002
{
1070
     2
1000
-2000011
1002
}
  0
LINE
  5
14B
330
70
100
AcDbEntity
  8
A-WALL
 62
   250
370
    25
100
AcDbLine
 10
-319.5788831151631
 20
-682.4764545958889
 30
0.0
 11
-331.5788831151631
 21
-682.4764545958888
 31
0.0
1001
REVIT
1002
{
1070
     1
1000
5164544
1002
}
1002
{
1070
     5
1000
639164
1002
}
1002
{
1070
     2
1000
-2000011
1002
}
  0
LINE
  5
14F
330
70
100
AcDbEntity
  8
A-WALL
 62
   250
370
    25
100
AcDbLine
 10
-331.5788831151627
 20
-606.4764545958903
 30
0.0
 11
-319.5788831151627
 21
-606.4764545958905
 31
0.0
1001
REVIT
1002
{
1070
     1
1000
5164544
1002
}
1002
{
1070
     5
1000
639164
1002
}
1002
{
1070
     2
1000
-2000011
1002
}
  0
LINE
  5
151
330
70
100
AcDbEntity
  8
A-WALL
 62
   250
370
    25
100
AcDbLine
 10
-319.5788831151624
 20
-549.4764545958892
 30
0.0
 11
-331.5788831151624
 21
-549.4764545958891
 31
0.0
1001
REVIT
1002
{
1070
     1
1000
5164697
1002
}
1002
{
1070
     5
1000
639164
1002
}
1002
{
1070
     2
1000
-2000011
1002
}
  0
LINE
  5
155
330
70
100
AcDbEntity
  8
A-WALL
 62
   250
370
    25
100
AcDbLine
 10
-331.5788831151621
 20
-473.4764545958905
 30
0.0
 11
-319.5788831151621
 21
-473.4764545958906
 31
0.0
1001
REVIT
1002
{
1070
     1
1000
5164697
1002
}
1002
{
1070
     5
1000
639164
1002
}
1002
{
1070
     2
1000
-2000011
1002
}
  0
LINE
  5
157
330
70
100
AcDbEntity
  8
A-WALL
 62
   250
370
    25
100
AcDbLine
 10
-319.5788831151618
 20
-416.4764545958892
 30
0.0
 11
-331.5788831151618
 21
-416.4764545958891
 31
0.0
1001
REVIT
1002
{
1070
     1
1000
5164788
1002
}
1002
{
1070
     5
1000
639164
1002
}
1002
{
1070
     2
1000
-2000011
1002
}
  0
LINE
  5
15B
330
70
100
AcDbEntity
  8
A-WALL
 62
   250
370
    25
100
AcDbLine
 10
-331.5788831151614
 20
-340.4764545958907
 30
0.0
 11
-319.5788831151614
 21
-340.4764545958907
 31
0.0
1001
REVIT
1002
{
1070
     1
1000
5164788
1002
}
1002
{
1070
     5
1000
639164
1002
}
1002
{
1070
     2
1000
-2000011
1002
}
  0
LINE
  5
15C
330
70
100
AcDbEntity
  8
I-WALL
 62
   250
370
    25
100
AcDbLine
 10
-207.5788831151627
 20
-629.9764545958915
 30
0.0
 11
-207.5788831151626
 21
-593.9764545959065
 31
0.0
1001
REVIT
1002
{
1070
     1
1000
5165393
1002
}
1002
{
1070
     5
1000
639165
1002
}
1002
{
1070
     2
1000
-2000011
1002
}
  0
LINE
  5
15D
330
70
100
AcDbEntity
  8
I-WALL
 62
   250
370
    25
100
AcDbLine
 10
-207.5788831151626
 20
-593.9764545959065
 30
0.0
 11
-212.5788831151626
 21
-593.9764545959065
 31
0.0
1001
REVIT
1002
{
1070
     1
1000
5165393
1002
}
1002
{
1070
     5
1000
639165
1002
}
1002
{
1070
     2
1000
-2000011
1002
}
  0
LINE
  5
15E
330
70
100
AcDbEntity
  8
I-WALL
 62
   250
370
    25
100
AcDbLine
 10
-212.5788831151626
 20
-593.9764545959065
 30
0.0
 11
-212.5788831151628
 21
-634.9764545958914
 31
0.0
1001
REVIT
1002
{
1070
     1
1000
5165393
1002
}
1002
{
1070
     5
1000
639165
1002
}
1002
{
1070
     2
1000
-2000011
1002
}
  0
LINE
  5
15F
330
70
100
AcDbEntity
  8
I-WALL
 62
   250
370
    25
100
AcDbLine
 10
-207.5788831151624
 20
-553.9764545959066
 30
0.0
 11
-207.5788831151616
 21
-392.9764545958913
 31
0.0
1001
REVIT
1002
{
1070
     1
1000
5165393
1002
}
1002
{
1070
     5
1000
639165
1002
}
1002
{
1070
     2
1000
-2000011
1002
}
  0
LINE
  5
161
330
70
100
AcDbEntity
  8
I-WALL
 62
   250
370
    25
100
AcDbLine
 10
-212.5788831151616
 20
-387.9764545958914
 30
0.0
 11
-212.5788831151624
 21
-553.9764545959066
 31
0.0
1001
REVIT
1002
{
1070
     1
1000
5165393
1002
}
1002
{
1070
     5
1000
639165
1002
}
1002
{
1070
     2
1000
-2000011
1002
}
  0
LINE
  5
162
330
70
100
AcDbEntity
  8
I-WALL
 62
   250
370
    25
100
AcDbLine
 10
-212.5788831151624
 20
-553.9764545959066
 30
0.0
 11
-207.5788831151624
 21
-553.9764545959066
 31
0.0
1001
REVIT
1002
{
1070
     1
1000
5165393
1002
}
1002
{
1070
     5
1000
639165
1002
}
1002
{
1070
     2
1000
-2000011
1002
}
  0
LINE
  5
163
330
70
100
AcDbEntity
  8
I-WALL
 62
   250
370
    25
100
AcDbLine
 10
73.42111688483675
 20
-831.4764545958928
 30
0.0
 11
73.42111688483985
 21
-191.4764545958923
 31
0.0
1001
REVIT
1002
{
1070
     1
1000
5166485
1002
}
1002
{
1070
     5
1000
639165
1002
}
1002
{
1070
     2
1000
-2000011
1002
}
  0
LINE
  5
164
330
70
100
AcDbEntity
  8
I-WALL
 62
   250
370
    25
100
AcDbLine
 10
68.42111688483985
 20
-191.4764545958923
 30
0.0
 11
68.42111688483675
 21
-831.4764545958928
 31
0.0
1001
REVIT
1002
{
1070
     1
1000
5166485
1002
}
1002
{
1070
     5
1000
639165
1002
}
1002
{
1070
     2
1000
-2000011
1002
}
  0
LINE
  5
165
330
70
100
AcDbEntity
  8
S-STRS
100
AcDbLine
 10
-202.5788831151617
 20
-385.9764545958915
 30
0.0
 11
-202.5788831151617
 21
-387.9764545958914
 31
0.0
1001
REVIT
1002
{
1070
     1
1000
5166826
1002
}
1002
{
1070
     5
1000
44989
1002
}
1002
{
1070
     2
1000
-2000120
1002
}
1002
{
1070
     3
1000
-2000952
1002
}
  0
LINE
  5
166
330
70
100
AcDbEntity
  8
S-STRS
100
AcDbLine
 10
-137.1579754672577
 20
-387.9764545958919
 30
0.0
 11
-124.6880378322093
 21
-387.976454595892
 31
0.0
1001
REVIT
1002
{
1070
     1
1000
5166826
1002
}
1002
{
1070
     5
1000
44989
1002
}
1002
{
1070
     2
1000
-2000120
1002
}
1002
{
1070
     3
1000
-2000952
1002
}
  0
LINE
  5
167
330
70
100
AcDbEntity
  8
S-STRS
100
AcDbLine
 10
-202.5788831151614
 20
-336.9764545958915
 30
0.0
 11
-202.5788831151614
 21
-338.9764545958915
 31
0.0
1001
REVIT
1002
{
1070
     1
1000
5166826
1002
}
1002
{
1070
     5
1000
44989
1002
}
1002
{
1070
     2
1000
-2000120
1002
}
1002
{
1070
     3
1000
-2000952
1002
}
  0
LINE
  5
168
330
70
100
AcDbEntity
  8
S-STRS
100
AcDbLine
 10
-202.5788831151614
 20
-336.9764545958915
 30
0.0
 11
-148.4697283981138
 21
-336.9764545958918
 31
0.0
1001
REVIT
1002
{
1070
     1
1000
5166826
1002
}
1002
{
1070
     5
1000
44989
1002
}
1002
{
1070
     2
1000
-2000120
1002
}
1002
{
1070
     3
1000
-2000952
1002
}
  0
LINE
  5
169
330
70
100
AcDbEntity
  8
S-STRS
100
AcDbLine
 10
-202.5788831151614
 20
-340.9764545958914
 30
0.0
 11
-202.5788831151617
 21
-383.9764545958912
 31
0.0
1001
REVIT
1002
{
1070
     1
1000
5166826
1002
}
1002
{
1070
     5
1000
44989
1002
}
1002
{
1070
     2
1000
-2000120
1002
}
1002
{
1070
     3
1000
-2000934
1002
}
  0
LINE
  5
16B
330
70
100
AcDbEntity
  8
S-STRS-MBND
100
AcDbLine
 10
-140.3824474708278
 20
-354.319684512562
 30
0.0
 11
-146.6044977654939
 21
-340.9764545958918
 31
0.0
1001
REVIT
1002
{
1070
     1
1000
5166826
1002
}
1002
{
1070
     5
1000
44989
1002
}
1002
{
1070
     2
1000
-2000120
1002
}
1002
{
1070
     3
1000
-2000930
1002
}
  0
LINE
  5
16C
330
70
100
AcDbEntity
  8
S-STRS-MBND
100
AcDbLine
 10
-147.5371130818038
 20
-338.9764545958919
 30
0.0
 11
-148.4697283981138
 21
-336.9764545958918
 31
0.0
1001
REVIT
1002
{
1070
     1
1000
5166826
1002
}
1002
{
1070
     5
1000
44989
1002
}
1002
{
1070
     2
1000
-2000120
1002
}
1002
{
1070
     3
1000
-2000930
1002
}
  0
LINE
  5
16D
330
70
100
AcDbEntity
  8
S-STRS-MBND
100
AcDbLine
 10
-126.3829205109992
 20
-357.7219991513091
 30
0.0
 11
-140.3824474708278
 21
-354.319684512562
 31
0.0
1001
REVIT
1002
{
1070
     1
1000
5166826
1002
}
1002
{
1070
     5
1000
44989
1002
}
1002
{
1070
     2
1000
-2000120
1002
}
1002
{
1070
     3
1000
-2000930
1002
}
  0
LINE
  5
16E
330
70
100
AcDbEntity
  8
S-STRS-MBND
100
AcDbLine
 10
-146.7748457193239
 20
-367.2309100404747
 30
0.0
 11
-126.3829205109992
 21
-357.7219991513091
 31
0.0
1001
REVIT
1002
{
1070
     1
1000
5166826
1002
}
1002
{
1070
     5
1000
44989
1002
}
1002
{
1070
     2
1000
-2000120
1002
}
1002
{
1070
     3
1000
-2000930
1002
}
  0
LINE
  5
16F
330
70
100
AcDbEntity
  8
S-STRS-MBND
100
AcDbLine
 10
-132.7753187594953
 20
-370.6332246792218
 30
0.0
 11
-146.7748457193239
 21
-367.2309100404747
 31
0.0
1001
REVIT
1002
{
1070
     1
1000
5166826
1002
}
1002
{
1070
     5
1000
44989
1002
}
1002
{
1070
     2
1000
-2000120
1002
}
1002
{
1070
     3
1000
-2000930
1002
}
  0
LINE
  5
170
330
70
100
AcDbEntity
  8
S-STRS-MBND
100
AcDbLine
 10
-124.6880378322093
 20
-387.976454595892
 30
0.0
 11
-125.6206531485194
 21
-385.9764545958918
 31
0.0
1001
REVIT
1002
{
1070
     1
1000
5166826
1002
}
1002
{
1070
     5
1000
44989
1002
}
1002
{
1070
     2
1000
-2000120
1002
}
1002
{
1070
     3
1000
-2000930
1002
}
  0
LINE
  5
171
330
70
100
AcDbEntity
  8
S-STRS-MBND
100
AcDbLine
 10
-126.5532684648294
 20
-383.9764545958918
 30
0.0
 11
-132.7753187594953
 21
-370.6332246792218
 31
0.0
1001
REVIT
1002
{
1070
     1
1000
5166826
1002
}
1002
{
1070
     5
1000
44989
1002
}
1002
{
1070
     2
1000
-2000120
1002
}
1002
{
1070
     3
1000
-2000930
1002
}
  0
LINE
  5
172
330
70
100
AcDbEntity
  8
S-STRS
100
AcDbLine
 10
-136.5788831151616
 20
-369.7088418251558
 30
0.0
 11
-136.5788831151617
 21
-383.9764545958917
 31
0.0
1001
REVIT
1002
{
1070
     1
1000
5166826
1002
}
1002
{
1070
     5
1000
44989
1002
}
1002
{
1070
     2
1000
-2000120
1002
}
1002
{
1070
     3
1000
-2000932
1002
}
  0
LINE
  5
173
330
70
100
AcDbEntity
  8
S-STRS
100
AcDbLine
 10
-136.5788831151615
 20
-355.244067366628
 30
0.0
 11
-136.5788831151615
 21
-362.4764545958918
 31
0.0
1001
REVIT
1002
{
1070
     1
1000
5166826
1002
}
1002
{
1070
     5
1000
44989
1002
}
1002
{
1070
     2
1000
-2000120
1002
}
1002
{
1070
     3
1000
-2000932
1002
}
  0
LINE
  5
174
330
70
100
AcDbEntity
  8
S-STRS
100
AcDbLine
 10
-147.5788831151615
 20
-340.9764545958918
 30
0.0
 11
-147.5788831151616
 21
-383.9764545958916
 31
0.0
1001
REVIT
1002
{
1070
     1
1000
5166826
1002
}
1002
{
1070
     5
1000
44989
1002
}
1002
{
1070
     2
1000
-2000120
1002
}
1002
{
1070
     3
1000
-2000932
1002
}
  0
LINE
  5
175
330
70
100
AcDbEntity
  8
S-STRS
100
AcDbLine
 10
-158.5788831151614
 20
-340.9764545958918
 30
0.0
 11
-158.5788831151617
 21
-383.9764545958916
 31
0.0
1001
REVIT
1002
{
1070
     1
1000
5166826
1002
}
1002
{
1070
     5
1000
44989
1002
}
1002
{
1070
     2
1000
-2000120
1002
}
1002
{
1070
     3
1000
-2000932
1002
}
  0
LINE
  5
176
330
70
100
AcDbEntity
  8
S-STRS
100
AcDbLine
 10
-169.5788831151614
 20
-340.9764545958916
 30
0.0
 11
-169.5788831151617
 21
-383.9764545958916
 31
0.0
1001
REVIT
1002
{
1070
     1
1000
5166826
1002
}
1002
{
1070
     5
1000
44989
1002
}
1002
{
1070
     2
1000
-2000120
1002
}
1002
{
1070
     3
1000
-2000932
1002
}
  0
LINE
  5
177
330
70
100
AcDbEntity
  8
S-STRS
100
AcDbLine
 10
-180.5788831151614
 20
-340.9764545958916
 30
0.0
 11
-180.5788831151616
 21
-383.9764545958915
 31
0.0
1001
REVIT
1002
{
1070
     1
1000
5166826
1002
}
1002
{
1070
     5
1000
44989
1002
}
1002
{
1070
     2
1000
-2000120
1002
}
1002
{
1070
     3
1000
-2000932
1002
}
  0
LINE
  5
178
330
70
100
AcDbEntity
  8
S-STRS
100
AcDbLine
 10
-191.5788831151614
 20
-340.9764545958915
 30
0.0
 11
-191.5788831151617
 21
-383.9764545958914
 31
0.0
1001
REVIT
1002
{
1070
     1
1000
5166826
1002
}
1002
{
1070
     5
1000
44989
1002
}
1002
{
1070
     2
1000
-2000120
1002
}
1002
{
1070
     3
1000
-2000932
1002
}
  0
LINE
  5
17A
330
70
100
AcDbEntity
  8
S-STRS-ANNO
100
AcDbLine
 10
-169.5788831151616
 20
-362.4764545958917
 30
0.0
 11
-160.5788831151615
 21
-362.4764545958917
 31
0.0
1001
REVIT
1002
{
1070
     1
1000
5167024
1002
}
1002
{
1070
     5
1000
2287
1002
}
1002
{
1070
     2
1000
-2000938
1002
}
1002
{
1070
     3
1000
-2000130
1002
}
  0
LINE
  5
17B
330
70
100
AcDbEntity
  8
S-STRS-ANNO
100
AcDbLine
 10
-180.5788831151615
 20
-362.4764545958916
 30
0.0
 11
-169.5788831151616
 21
-362.4764545958917
 31
0.0
1001
REVIT
1002
{
1070
     1
1000
5167024
1002
}
1002
{
1070
     5
1000
2287
1002
}
1002
{
1070
     2
1000
-2000938
1002
}
1002
{
1070
     3
1000
-2000130
1002
}
  0
LINE
  5
17C
330
70
100
AcDbEntity
  8
S-STRS-ANNO
100
AcDbLine
 10
-191.5788831151616
 20
-362.4764545958915
 30
0.0
 11
-180.5788831151615
 21
-362.4764545958916
 31
0.0
1001
REVIT
1002
{
1070
     1
1000
5167024
1002
}
1002
{
1070
     5
1000
2287
1002
}
1002
{
1070
     2
1000
-2000938
1002
}
1002
{
1070
     3
1000
-2000130
1002
}
  0
LINE
  5
17D
330
70
100
AcDbEntity
  8
S-STRS-ANNO
100
AcDbLine
 10
-202.5788831151615
 20
-362.4764545958915
 30
0.0
 11
-191.5788831151616
 21
-362.4764545958915
 31
0.0
1001
REVIT
1002
{
1070
     1
1000
5167024
1002
}
1002
{
1070
     5
1000
2287
1002
}
1002
{
1070
     2
1000
-2000938
1002
}
1002
{
1070
     3
1000
-2000130
1002
}
  0
LINE
  5
17E
330
70
100
AcDbEntity
  8
S-STRS-ANNO
100
AcDbLine
 10
-160.5788831151615
 20
-362.4764545958917
 30
0.0
 11
-172.5788831151616
 21
-374.4764545958917
 31
0.0
1001
REVIT
1002
{
1070
     1
1000
5167024
1002
}
1002
{
1070
     5
1000
2287
1002
}
1002
{
1070
     2
1000
-2000938
1002
}
1002
{
1070
     3
1000
-2000130
1002
}
  0
LINE
  5
17F
330
70
100
AcDbEntity
  8
S-STRS-ANNO
100
AcDbLine
 10
-160.5788831151615
 20
-362.4764545958917
 30
0.0
 11
-172.5788831151615
 21
-350.4764545958916
 31
0.0
1001
REVIT
1002
{
1070
     1
1000
5167024
1002
}
1002
{
1070
     5
1000
2287
1002
}
1002
{
1070
     2
1000
-2000938
1002
}
1002
{
1070
     3
1000
-2000130
1002
}
  0
INSERT
  5
187
330
70
100
AcDbEntity
  8
A-FLOR-HRAL
100
AcDbBlockReference
  2
Railing - Railing-5167030-LEVEL 2
 10
0.0
 20
0.0
 30
0.0
1001
REVIT
1002
{
1070
     1
1000
5167029
1002
}
1002
{
1070
     5
1000
1969
1002
}
1002
{
1070
     2
1000
-2000126
1002
}
1002
{
1070
     3
1000
-2000128
1002
}
  0
INSERT
  5
18F
330
70
100
AcDbEntity
  8
A-FLOR-HRAL
100
AcDbBlockReference
  2
Railing - Railing-5167034-LEVEL 2
 10
0.0
 20
0.0
 30
0.0
1001
REVIT
1002
{
1070
     1
1000
5167033
1002
}
1002
{
1070
     5
1000
1969
1002
}
1002
{
1070
     2
1000
-2000126
1002
}
1002
{
1070
     3
1000
-2000128
1002
}
  0
LINE
  5
190
330
70
100
AcDbEntity
  8
S-STRS
100
AcDbLine
 10
-202.5788831151633
 20
-634.9764545958889
 30
0.0
 11
-202.5788831151633
 21
-636.9764545958888
 31
0.0
1001
REVIT
1002
{
1070
     1
1000
5167644
1002
}
1002
{
1070
     5
1000
44989
1002
}
1002
{
1070
     2
1000
-2000120
1002
}
1002
{
1070
     3
1000
-2000952
1002
}
  0
LINE
  5
191
330
70
100
AcDbEntity
  8
S-STRS
100
AcDbLine
 10
-202.5788831151637
 20
-683.9764545958888
 30
0.0
 11
-202.5788831151637
 21
-685.9764545958888
 31
0.0
1001
REVIT
1002
{
1070
     1
1000
5167644
1002
}
1002
{
1070
     5
1000
44989
1002
}
1002
{
1070
     2
1000
-2000120
1002
}
1002
{
1070
     3
1000
-2000952
1002
}
  0
LINE
  5
192
330
70
100
AcDbEntity
  8
S-STRS
100
AcDbLine
 10
-202.5788831151637
 20
-685.9764545958888
 30
0.0
 11
-124.6880378322113
 21
-685.9764545958894
 31
0.0
1001
REVIT
1002
{
1070
     1
1000
5167644
1002
}
1002
{
1070
     5
1000
44989
1002
}
1002
{
1070
     2
1000
-2000120
1002
}
1002
{
1070
     3
1000
-2000952
1002
}
  0
LINE
  5
193
330
70
100
AcDbEntity
  8
S-STRS
100
AcDbLine
 10
-202.5788831151635
 20
-638.9764545958889
 30
0.0
 11
-202.5788831151635
 21
-681.9764545958888
 31
0.0
1001
REVIT
1002
{
1070
     1
1000
5167644
1002
}
1002
{
1070
     5
1000
44989
1002
}
1002
{
1070
     2
1000
-2000120
1002
}
1002
{
1070
     3
1000
-2000934
1002
}
  0
LINE
  5
194
330
70
100
AcDbEntity
  8
S-STRS-MBND
100
AcDbLine
 10
-140.3824474708298
 20
-652.3196845125594
 30
0.0
 11
-146.6044977654958
 21
-638.9764545958893
 31
0.0
1001
REVIT
1002
{
1070
     1
1000
5167644
1002
}
1002
{
1070
     5
1000
44989
1002
}
1002
{
1070
     2
1000
-2000120
1002
}
1002
{
1070
     3
1000
-2000930
1002
}
  0
LINE
  5
195
330
70
100
AcDbEntity
  8
S-STRS-MBND
100
AcDbLine
 10
-147.5371130818058
 20
-636.9764545958891
 30
0.0
 11
-148.4697283981157
 21
-634.9764545958891
 31
0.0
1001
REVIT
1002
{
1070
     1
1000
5167644
1002
}
1002
{
1070
     5
1000
44989
1002
}
1002
{
1070
     2
1000
-2000120
1002
}
1002
{
1070
     3
1000
-2000930
1002
}
  0
LINE
  5
196
330
70
100
AcDbEntity
  8
S-STRS-MBND
100
AcDbLine
 10
-126.3829205110012
 20
-655.7219991513065
 30
0.0
 11
-140.3824474708297
 21
-652.3196845125594
 31
0.0
1001
REVIT
1002
{
1070
     1
1000
5167644
1002
}
1002
{
1070
     5
1000
44989
1002
}
1002
{
1070
     2
1000
-2000120
1002
}
1002
{
1070
     3
1000
-2000930
1002
}
  0
LINE
  5
197
330
70
100
AcDbEntity
  8
S-STRS-MBND
100
AcDbLine
 10
-146.7748457193259
 20
-665.2309100404721
 30
0.0
 11
-126.3829205110012
 21
-655.7219991513065
 31
0.0
1001
REVIT
1002
{
1070
     1
1000
5167644
1002
}
1002
{
1070
     5
1000
44989
1002
}
1002
{
1070
     2
1000
-2000120
1002
}
1002
{
1070
     3
1000
-2000930
1002
}
  0
LINE
  5
198
330
70
100
AcDbEntity
  8
S-STRS-MBND
100
AcDbLine
 10
-132.7753187594973
 20
-668.6332246792192
 30
0.0
 11
-146.7748457193259
 21
-665.2309100404721
 31
0.0
1001
REVIT
1002
{
1070
     1
1000
5167644
1002
}
1002
{
1070
     5
1000
44989
1002
}
1002
{
1070
     2
1000
-2000120
1002
}
1002
{
1070
     3
1000
-2000930
1002
}
  0
LINE
  5
199
330
70
100
AcDbEntity
  8
S-STRS-MBND
100
AcDbLine
 10
-124.6880378322113
 20
-685.9764545958894
 30
0.0
 11
-125.6206531485213
 21
-683.9764545958892
 31
0.0
1001
REVIT
1002
{
1070
     1
1000
5167644
1002
}
1002
{
1070
     5
1000
44989
1002
}
1002
{
1070
     2
1000
-2000120
1002
}
1002
{
1070
     3
1000
-2000930
1002
}
  0
LINE
  5
19A
330
70
100
AcDbEntity
  8
S-STRS-MBND
100
AcDbLine
 10
-126.5532684648313
 20
-681.9764545958893
 30
0.0
 11
-132.7753187594973
 21
-668.6332246792192
 31
0.0
1001
REVIT
1002
{
1070
     1
1000
5167644
1002
}
1002
{
1070
     5
1000
44989
1002
}
1002
{
1070
     2
1000
-2000120
1002
}
1002
{
1070
     3
1000
-2000930
1002
}
  0
LINE
  5
19B
330
70
100
AcDbEntity
  8
S-STRS
100
AcDbLine
 10
-136.5788831151636
 20
-667.7088418251533
 30
0.0
 11
-136.5788831151637
 21
-681.9764545958894
 31
0.0
1001
REVIT
1002
{
1070
     1
1000
5167644
1002
}
1002
{
1070
     5
1000
44989
1002
}
1002
{
1070
     2
1000
-2000120
1002
}
1002
{
1070
     3
1000
-2000932
1002
}
  0
LINE
  5
19C
330
70
100
AcDbEntity
  8
S-STRS
100
AcDbLine
 10
-136.5788831151635
 20
-653.2440673666254
 30
0.0
 11
-136.5788831151635
 21
-660.4764545958893
 31
0.0
1001
REVIT
1002
{
1070
     1
1000
5167644
1002
}
1002
{
1070
     5
1000
44989
1002
}
1002
{
1070
     2
1000
-2000120
1002
}
1002
{
1070
     3
1000
-2000932
1002
}
  0
LINE
  5
19D
330
70
100
AcDbEntity
  8
S-STRS
100
AcDbLine
 10
-147.5788831151633
 20
-638.9764545958894
 30
0.0
 11
-147.5788831151637
 21
-681.9764545958892
 31
0.0
1001
REVIT
1002
{
1070
     1
1000
5167644
1002
}
1002
{
1070
     5
1000
44989
1002
}
1002
{
1070
     2
1000
-2000120
1002
}
1002
{
1070
     3
1000
-2000932
1002
}
  0
LINE
  5
19E
330
70
100
AcDbEntity
  8
S-STRS
100
AcDbLine
 10
-158.5788831151633
 20
-638.9764545958893
 30
0.0
 11
-158.5788831151637
 21
-681.976454595889
 31
0.0
1001
REVIT
1002
{
1070
     1
1000
5167644
1002
}
1002
{
1070
     5
1000
44989
1002
}
1002
{
1070
     2
1000
-2000120
1002
}
1002
{
1070
     3
1000
-2000932
1002
}
  0
LINE
  5
19F
330
70
100
AcDbEntity
  8
S-STRS
100
AcDbLine
 10
-169.5788831151633
 20
-638.9764545958893
 30
0.0
 11
-169.5788831151637
 21
-681.9764545958889
 31
0.0
1001
REVIT
1002
{
1070
     1
1000
5167644
1002
}
1002
{
1070
     5
1000
44989
1002
}
1002
{
1070
     2
1000
-2000120
1002
}
1002
{
1070
     3
1000
-2000932
1002
}
  0
LINE
  5
1A0
330
70
100
AcDbEntity
  8
S-STRS
100
AcDbLine
 10
-180.5788831151633
 20
-638.976454595889
 30
0.0
 11
-180.5788831151637
 21
-681.9764545958889
 31
0.0
1001
REVIT
1002
{
1070
     1
1000
5167644
1002
}
1002
{
1070
     5
1000
44989
1002
}
1002
{
1070
     2
1000
-2000120
1002
}
1002
{
1070
     3
1000
-2000932
1002
}
  0
LINE
  5
1A1
330
70
100
AcDbEntity
  8
S-STRS
100
AcDbLine
 10
-191.5788831151633
 20
-638.976454595889
 30
0.0
 11
-191.5788831151637
 21
-681.9764545958889
 31
0.0
1001
REVIT
1002
{
1070
     1
1000
5167644
1002
}
1002
{
1070
     5
1000
44989
1002
}
1002
{
1070
     2
1000
-2000120
1002
}
1002
{
1070
     3
1000
-2000932
1002
}
  0
INSERT
  5
1A9
330
70
100
AcDbEntity
  8
A-FLOR-HRAL
100
AcDbBlockReference
  2
Railing - Railing-5167651-LEVEL 2
 10
0.0
 20
0.0
 30
0.0
1001
REVIT
1002
{
1070
     1
1000
5167650
1002
}
1002
{
1070
     5
1000
1969
1002
}
1002
{
1070
     2
1000
-2000126
1002
}
1002
{
1070
     3
1000
-2000128
1002
}
  0
INSERT
  5
1B1
330
70
100
AcDbEntity
  8
A-FLOR-HRAL
100
AcDbBlockReference
  2
Railing - Railing-5167655-LEVEL 2
 10
0.0
 20
0.0
 30
0.0
1001
REVIT
1002
{
1070
     1
1000
5167654
1002
}
1002
{
1070
     5
1000
1969
1002
}
1002
{
1070
     2
1000
-2000126
1002
}
1002
{
1070
     3
1000
-2000128
1002
}
  0
INSERT
  5
1C2
330
70
100
AcDbEntity
  8
A-GLAZ-CURT
100
AcDbBlockReference
  2
System Panel - zGlazed-5171404-LEVEL 2
 10
-325.5788831151629
 20
-644.4764545958896
 30
0.0
 50
89.99999999999971
1001
REVIT
1002
{
1070
     1
1000
5170856
1002
}
1002
{
1070
     5
1000
645966
1002
}
1002
{
1070
     2
1000
-2000170
1002
}
  0
INSERT
  5
1C8
330
70
100
AcDbEntity
  8
A-GLAZ-CWMG
100
AcDbBlockReference
  2
Rectangular Mullion - 4 1_2_ x 2_ Rectangular_CE_-5162315-LEVEL 2
 10
0.0
 20
0.0
 30
0.0
1001
REVIT
1002
{
1070
     1
1000
5170859
1002
}
1002
{
1070
     5
1000
646104
1002
}
1002
{
1070
     2
1000
-2000171
1002
}
  0
INSERT
  5
1D5
330
70
100
AcDbEntity
  8
A-GLAZ-CWMG
100
AcDbBlockReference
  2
Rectangular Mullion - 4 1_2_ x 2_ Rectangular_CE_-5171405-LEVEL 2
 10
325.5788831151627
 20
-606.4764545958905
 30
0.0
 50
90.00000000000028
210
0.0
220
0.0
230
-1.0
1001
REVIT
1002
{
1070
     1
1000
5170860
1002
}
1002
{
1070
     5
1000
646104
1002
}
1002
{
1070
     2
1000
-2000171
1002
}
  0
INSERT
  5
1E2
330
70
100
AcDbEntity
  8
A-GLAZ-CWMG
100
AcDbBlockReference
  2
Rectangular Mullion - 4 1_2_ x 2_ Rectangular_CE_-5171406-LEVEL 2
 10
-325.5788831151631
 20
-682.4764545958889
 30
0.0
 50
269.9999999999997
1001
REVIT
1002
{
1070
     1
1000
5170861
1002
}
1002
{
1070
     5
1000
646104
1002
}
1002
{
1070
     2
1000
-2000171
1002
}
  0
INSERT
  5
1E3
330
70
100
AcDbEntity
  8
A-GLAZ-CURT
100
AcDbBlockReference
  2
System Panel - zGlazed-5171404-LEVEL 2
 10
-325.5788831151622
 20
-511.4764545958898
 30
0.0
 50
89.99999999999976
1001
REVIT
1002
{
1070
     1
1000
5171009
1002
}
1002
{
1070
     5
1000
645966
1002
}
1002
{
1070
     2
1000
-2000170
1002
}
  0
INSERT
  5
1E4
330
70
100
AcDbEntity
  8
A-GLAZ-CWMG
100
AcDbBlockReference
  2
Rectangular Mullion - 4 1_2_ x 2_ Rectangular_CE_-5162315-LEVEL 2
 10
0.0
 20
133.0000000000001
 30
0.0
1001
REVIT
1002
{
1070
     1
1000
5171012
1002
}
1002
{
1070
     5
1000
646104
1002
}
1002
{
1070
     2
1000
-2000171
1002
}
  0
INSERT
  5
1E5
330
70
100
AcDbEntity
  8
A-GLAZ-CWMG
100
AcDbBlockReference
  2
Rectangular Mullion - 4 1_2_ x 2_ Rectangular_CE_-5171405-LEVEL 2
 10
325.5788831151621
 20
-473.4764545958906
 30
0.0
 50
90.00000000000021
210
0.0
220
0.0
230
-1.0
1001
REVIT
1002
{
1070
     1
1000
5171013
1002
}
1002
{
1070
     5
1000
646104
1002
}
1002
{
1070
     2
1000
-2000171
1002
}
  0
INSERT
  5
1E6
330
70
100
AcDbEntity
  8
A-GLAZ-CWMG
100
AcDbBlockReference
  2
Rectangular Mullion - 4 1_2_ x 2_ Rectangular_CE_-5171406-LEVEL 2
 10
-325.5788831151624
 20
-549.4764545958892
 30
0.0
 50
269.9999999999998
1001
REVIT
1002
{
1070
     1
1000
5171014
1002
}
1002
{
1070
     5
1000
646104
1002
}
1002
{
1070
     2
1000
-2000171
1002
}
  0
INSERT
  5
1E7
330
70
100
AcDbEntity
  8
A-GLAZ-CURT
100
AcDbBlockReference
  2
System Panel - zGlazed-5171404-LEVEL 2
 10
-325.5788831151615
 20
-378.4764545958901
 30
0.0
 50
89.99999999999976
1001
REVIT
1002
{
1070
     1
1000
5171116
1002
}
1002
{
1070
     5
1000
645966
1002
}
1002
{
1070
     2
1000
-2000170
1002
}
  0
INSERT
  5
1E8
330
70
100
AcDbEntity
  8
A-GLAZ-CWMG
100
AcDbBlockReference
  2
Rectangular Mullion - 4 1_2_ x 2_ Rectangular_CE_-5162315-LEVEL 2
 10
0.0
 20
266.0
 30
0.0
1001
REVIT
1002
{
1070
     1
1000
5171119
1002
}
1002
{
1070
     5
1000
646104
1002
}
1002
{
1070
     2
1000
-2000171
1002
}
  0
INSERT
  5
1E9
330
70
100
AcDbEntity
  8
A-GLAZ-CWMG
100
AcDbBlockReference
  2
Rectangular Mullion - 4 1_2_ x 2_ Rectangular_CE_-5171405-LEVEL 2
 10
325.5788831151614
 20
-340.4764545958907
 30
0.0
 50
90.00000000000024
210
0.0
220
0.0
230
-1.0
1001
REVIT
1002
{
1070
     1
1000
5171120
1002
}
1002
{
1070
     5
1000
646104
1002
}
1002
{
1070
     2
1000
-2000171
1002
}
  0
INSERT
  5
1EA
330
70
100
AcDbEntity
  8
A-GLAZ-CWMG
100
AcDbBlockReference
  2
Rectangular Mullion - 4 1_2_ x 2_ Rectangular_CE_-5171406-LEVEL 2
 10
-325.5788831151617
 20
-416.4764545958892
 30
0.0
 50
269.9999999999998
1001
REVIT
1002
{
1070
     1
1000
5171121
1002
}
1002
{
1070
     5
1000
646104
1002
}
1002
{
1070
     2
1000
-2000171
1002
}
  0
INSERT
  5
20B
330
70
100
AcDbEntity
  8
A-DOOR
100
AcDbBlockReference
  2
Door-Single_CE_ - HM Door-2_ HM Frame-5154214-LEVEL 2
 10
-210.0788831151627
 20
-573.9764545959064
 30
0.0
 50
89.99999999999973
1001
REVIT
1002
{
1070
     1
1000
5178578
1002
}
1002
{
1070
     5
1000
4450563
1002
}
1002
{
1070
     2
1000
-2000023
1002
}
1002
{
1070
     3
1000
636535
1002
}
  0
MTEXT
  5
20D
330
70
100
AcDbEntity
  8
S-STRS-IDEN
100
AcDbMText
 10
-231.2349503764728
 20
-353.8335377832584
 30
0.0
 40
18.0
 41
34.38728071357352
 46
0.0
 71
     1
 72
     1
  1
UP
  7
Arial Narrow
 73
     2
 44
0.9746961653507234
1001
REVIT
1002
{
1070
     1
1000
5167024
1002
}
1002
{
1070
     5
1000
2287
1002
}
1002
{
1070
     2
1000
-2000938
1002
}
  0
LWPOLYLINE
  5
20F
330
70
100
AcDbEntity
  8
A-AREA-BNDY
100
AcDbPolyline
 90
        4
 70
   129
 43
0.0
 10
-207.578883115163
 20
-629.9764545958919
 10
-51.57888311516359
 20
-629.9764545958926
 10
-51.57888311516273
 20
-392.9764545958923
 10
-207.5788831151617
 20
-392.9764545958918
1001
REVIT
1002
{
1070
     1
1000
5175080
1002
}
1002
{
1070
     2
1000
-2000829
1002
}
1002
{
1070
   101
1000
STEEPLE ACCESS
1002
}
1002
{
1070
   102
1000
201
1002
}
1002
{
1070
   103
1000

1002
}
1002
{
1070
   104
1000

1002
}
1002
{
1070
   105
1000

1002
}
  0
INSERT
  5
218
330
70
100
AcDbEntity
  8
G-ANNO-SYMB
370
    25
100
AcDbBlockReference
  2
Elevation - Detail Number_CE_-134675-LEVEL 2
 10
-1151.000528253808
 20
-497.3002681032918
 30
0.0
 41
191.9999999999999
 42
191.9999999999999
 43
191.9999999999999
 50
180.0
1001
REVIT
1002
{
1070
     1
1000
317691
1002
}
1002
{
1070
     5
1000
134756
1002
}
1002
{
1070
     2
1000
-2000535
1002
}
  0
MTEXT
  5
219
330
70
100
AcDbEntity
  8
G-ANNO-SYMB
100
AcDbMText
 10
-1178.523127324327
 20
-486.6526149896079
 30
0.0
 40
17.99999999999998
 41
66.05399999999995
 46
0.0
 71
     1
 72
     1
  1
A2.11
  7
Arial Narrow
 73
     2
 44
1.0
 90
        3
 63
     9
421
 13158600
 45
1.25
441
        0
1001
REVIT
1002
{
1070
     1
1000
317691
1002
}
1002
{
1070
     5
1000
134756
1002
}
1002
{
1070
     2
1000
-2000535
1002
}
  0
INSERT
  5
220
330
70
100
AcDbEntity
  8
G-ANNO-SYMB
370
    25
100
AcDbBlockReference
  2
Elevation - Detail Number_CE_-46063-LEVEL 2
 10
-1103.000528253808
 20
-497.3002681032919
 30
0.0
 41
191.9999999999999
 42
191.9999999999999
 43
191.9999999999999
 50
269.9999999999993
1001
REVIT
1002
{
1070
     1
1000
317692
1002
}
1002
{
1070
     5
1000
134756
1002
}
1002
{
1070
     2
1000
-2000535
1002
}
  0
MTEXT
  5
221
330
70
100
AcDbEntity
  8
G-ANNO-SYMB
100
AcDbMText
 10
-1090.098492161864
 20
-489.596087336336
 30
0.0
 40
17.99999999999998
 41
13.93799999999998
 46
0.0
 71
     1
 72
     1
  1
1
  7
Arial Narrow
 73
     2
 44
1.0
 90
        3
 63
     9
421
 13158600
 45
1.25
441
        0
1001
REVIT
1002
{
1070
     1
1000
317692
1002
}
1002
{
1070
     5
1000
134756
1002
}
1002
{
1070
     2
1000
-2000535
1002
}
  0
INSERT
  5
228
330
70
100
AcDbEntity
  8
S-GRID-IDEN
100
AcDbBlockReference
  2
Grid - Grid Head-Circle_CE_-46466-LEVEL 2
 10
1419.437914754708
 20
-1269.999141032993
 30
0.0
 41
191.9999999999999
 42
191.9999999999999
 43
191.9999999999999
 50
89.99999999999962
1001
REVIT
1002
{
1070
     1
1000
4532416
1002
}
1002
{
1070
     5
1000
1952
1002
}
1002
{
1070
     2
1000
-2006040
1002
}
  0
MTEXT
  5
22A
330
70
100
AcDbEntity
  8
S-GRID-IDEN
370
     9
100
AcDbMText
 10
1411.620303509927
 20
-1257.770573059471
 30
0.0
 40
23.99999999999998
 41
18.78599999999998
 46
0.0
 71
     1
 72
     1
  1
1
  7
Arial Narrow_1
 73
     2
 44
1.0
 90
        3
 63
     9
421
 13158600
 45
1.25
441
        0
1001
REVIT
1002
{
1070
     1
1000
4532416
1002
}
1002
{
1070
     5
1000
1952
1002
}
1002
{
1070
     2
1000
-2006040
1002
}
  0
LINE
  5
22C
330
70
100
AcDbEntity
  8
S-GRID
  6
Grid Line
370
    25
100
AcDbLine
 10
109.0110671251792
 20
-1269.999141032985
 30
0.0
 11
-82.98893287482075
 21
-1269.999141032984
 31
0.0
1001
REVIT
1002
{
1070
     1
1000
4532416
1002
}
1002
{
1070
     5
1000
1952
1002
}
1002
{
1070
     2
1000
-2000220
1002
}
  0
LINE
  5
22D
330
70
100
AcDbEntity
  8
S-GRID
  6
Grid Line
370
    25
100
AcDbLine
 10
1191.437914754709
 20
-1269.999141032992
 30
0.0
 11
109.0110671251792
 21
-1269.999141032985
 31
0.0
1001
REVIT
1002
{
1070
     1
1000
4532416
1002
}
1002
{
1070
     5
1000
1952
1002
}
1002
{
1070
     2
1000
-2000220
1002
}
  0
LINE
  5
22E
330
70
100
AcDbEntity
  8
S-GRID
  6
Grid Line
370
    25
100
AcDbLine
 10
1383.437914754709
 20
-1269.999141032994
 30
0.0
 11
1191.437914754709
 21
-1269.999141032992
 31
0.0
1001
REVIT
1002
{
1070
     1
1000
4532416
1002
}
1002
{
1070
     5
1000
1952
1002
}
1002
{
1070
     2
1000
-2000220
1002
}
  0
INSERT
  5
22F
330
70
100
AcDbEntity
  8
S-GRID-IDEN
100
AcDbBlockReference
  2
Grid - Grid Head-Circle_CE_-46466-LEVEL 2
 10
1173.874999999995
 20
-1352.025263920941
 30
0.0
 41
191.9999999999999
 42
191.9999999999999
 43
191.9999999999999
1001
REVIT
1002
{
1070
     1
1000
4532427
1002
}
1002
{
1070
     5
1000
1952
1002
}
1002
{
1070
     2
1000
-2006040
1002
}
  0
MTEXT
  5
230
330
70
100
AcDbEntity
  8
S-GRID-IDEN
370
     9
100
AcDbMText
 10
1164.341363249107
 20
-1339.982455825766
 30
0.0
 40
23.99999999999998
 41
22.42199999999997
 46
0.0
 71
     1
 72
     1
  1
A
  7
Arial Narrow_1
 73
     2
 44
1.0
 90
        3
 63
     9
421
 13158600
 45
1.25
441
        0
1001
REVIT
1002
{
1070
     1
1000
4532427
1002
}
1002
{
1070
     5
1000
1952
1002
}
1002
{
1070
     2
1000
-2006040
1002
}
  0
LINE
  5
231
330
70
100
AcDbEntity
  8
S-GRID
  6
Grid Line
370
    25
100
AcDbLine
 10
1173.875
 20
-107.5919187532664
 30
0.0
 11
1173.875
 21
84.40808124673356
 31
0.0
1001
REVIT
1002
{
1070
     1
1000
4532427
1002
}
1002
{
1070
     5
1000
1952
1002
}
1002
{
1070
     2
1000
-2000220
1002
}
  0
LINE
  5
232
330
70
100
AcDbEntity
  8
S-GRID
  6
Grid Line
370
    25
100
AcDbLine
 10
1173.874999999996
 20
-1124.025263920942
 30
0.0
 11
1173.875
 21
-107.5919187532663
 31
0.0
1001
REVIT
1002
{
1070
     1
1000
4532427
1002
}
1002
{
1070
     5
1000
1952
1002
}
1002
{
1070
     2
1000
-2000220
1002
}
  0
LINE
  5
233
330
70
100
AcDbEntity
  8
S-GRID
  6
Grid Line
370
    25
100
AcDbLine
 10
1173.874999999996
 20
-1316.025263920942
 30
0.0
 11
1173.874999999996
 21
-1124.025263920942
 31
0.0
1001
REVIT
1002
{
1070
     1
1000
4532427
1002
}
1002
{
1070
     5
1000
1952
1002
}
1002
{
1070
     2
1000
-2000220
1002
}
  0
LINE
  5
235
330
70
100
AcDbEntity
  8
A-AREA-IDEN
100
AcDbLine
 10
-137.5708704249121
 20
-510.7724731066662
 30
0.0
 11
-168.0407715621924
 21
-522.6479316208907
 31
0.0
1001
REVIT
1002
{
1070
     1
1000
5175081
1002
}
1002
{
1070
     5
1000
604744
1002
}
1002
{
1070
     2
1000
-2000480
1002
}
  0
MTEXT
  5
237
330
70
100
AcDbEntity
  8
A-AREA-IDEN
100
AcDbMText
 10
-168.0407715621923
 20
-510.4101363453001
 30
0.0
 40
23.99999999999998
 41
302.3939999999996
 46
0.0
 71
     1
 72
     1
  1
STEEPLE ACCESS
  7
Arial Narrow_B
 73
     2
 44
1.0
1001
REVIT
1002
{
1070
     1
1000
5175081
1002
}
1002
{
1070
     5
1000
604744
1002
}
1002
{
1070
     2
1000
-2000480
1002
}
  0
ENDSEC
  0
SECTION
  2
OBJECTS
  0
DICTIONARY
  5
C
330
0
100
AcDbDictionary
281
     1
  3
ACAD_CIP_PREVIOUS_PRODUCT_INFO
350
79
  3
ACAD_COLOR
350
63
  3
ACAD_DETAILVIEWSTYLE
350
6A
  3
ACAD_GROUP
350
D
  3
ACAD_IMAGE_VARS
350
7A
  3
ACAD_LAYOUT
350
62
  3
ACAD_MATERIAL
350
10
  3
ACAD_MLEADERSTYLE
350
66
  3
ACAD_MLINESTYLE
350
5F
  3
ACAD_PLOTSETTINGS
350
61
  3
ACAD_PLOTSTYLENAME
350
E
  3
ACAD_SCALELIST
350
42
  3
ACAD_SECTIONVIEWSTYLE
350
68
  3
ACAD_TABLESTYLE
350
64
  3
ACAD_VISUALSTYLE
350
29
  3
ACDB_RECOMPOSE_DATA
350
246
  3
AcDbVariableDictionary
350
7B
  3
REVIT_DICTIONARY
350
238
  0
DICTIONARY
  5
240
330
70
100
AcDbDictionary
280
     1
281
     1
  3
ACAD_SORTENTS
360
241
  0
XRECORD
  5
79
102
{ACAD_REACTORS
330
C
102
}
330
C
100
AcDbXrecord
280
     1
300
RVT
300
2025
300
RVT2025
  0
DICTIONARY
  5
63
102
{ACAD_REACTORS
330
C
102
}
330
C
100
AcDbDictionary
281
     1
  0
DICTIONARY
  5
6A
102
{ACAD_REACTORS
330
C
102
}
330
C
100
AcDbDictionary
281
     1
  3
Imperial24
350
6B
  0
DICTIONARY
  5
D
102
{ACAD_REACTORS
330
C
102
}
330
C
100
AcDbDictionary
281
     1
  0
RASTERVARIABLES
  5
7A
102
{ACAD_REACTORS
330
C
102
}
330
C
100
AcDbRasterVariables
 90
        0
 70
     0
 71
     1
 72
     5
  0
DICTIONARY
  5
62
102
{ACAD_REACTORS
330
C
102
}
330
C
100
AcDbDictionary
281
     1
  3
Layout1
350
6F
  3
Layout2
350
77
  3
Model
350
73
  0
DICTIONARY
  5
10
102
{ACAD_REACTORS
330
C
102
}
330
C
100
AcDbDictionary
281
     1
  3
ByBlock
350
19
  3
ByLayer
350
11
  3
Global
350
21
  0
DICTIONARY
  5
66
102
{ACAD_REACTORS
330
C
102
}
330
C
100
AcDbDictionary
281
     1
  3
Standard
350
67
  0
DICTIONARY
  5
5F
102
{ACAD_REACTORS
330
C
102
}
330
C
100
AcDbDictionary
281
     1
  3
Standard
350
60
  0
DICTIONARY
  5
61
102
{ACAD_REACTORS
330
C
102
}
330
C
100
AcDbDictionary
281
     1
  0
ACDBDICTIONARYWDFLT
  5
E
102
{ACAD_REACTORS
330
C
102
}
330
C
100
AcDbDictionary
281
     1
  3
Normal
350
F
100
AcDbDictionaryWithDefault
340
F
  0
DICTIONARY
  5
42
102
{ACAD_REACTORS
330
C
102
}
330
C
100
AcDbDictionary
281
     1
  3
A0
350
43
  3
A1
350
44
  3
A2
350
45
  3
A3
350
46
  3
A4
350
47
  3
A5
350
48
  3
A6
350
49
  3
A7
350
4A
  3
A8
350
4B
  3
A9
350
4C
  3
B0
350
4D
  3
B1
350
4E
  3
B2
350
4F
  3
B3
350
50
  3
B4
350
51
  3
B5
350
52
  3
B6
350
53
  0
DICTIONARY
  5
68
102
{ACAD_REACTORS
330
C
102
}
330
C
100
AcDbDictionary
281
     1
  3
Imperial24
350
69
  0
DICTIONARY
  5
64
102
{ACAD_REACTORS
330
C
102
}
330
C
100
AcDbDictionary
281
     1
  3
Standard
350
65
  0
DICTIONARY
  5
29
102
{ACAD_REACTORS
330
C
102
}
330
C
100
AcDbDictionary
281
     1
  3
2dWireframe
350
2F
  3
Basic
350
2E
  3
Brighten
350
35
  3
ColorChange
350
39
  3
Conceptual
350
32
  3
Dim
350
34
  3
EdgeColorOff
350
41
  3
Facepattern
350
38
  3
Flat
350
2A
  3
FlatWithEdges
350
2B
  3
Gouraud
350
2C
  3
GouraudWithEdges
350
2D
  3
Hidden
350
31
  3
JitterOff
350
3F
  3
Linepattern
350
37
  3
OverhangOff
350
40
  3
Realistic
350
33
  3
Shaded
350
3E
  3
Shaded with edges
350
3D
  3
Shades of Gray
350
3A
  3
Sketchy
350
3B
  3
Thicken
350
36
  3
Wireframe
350
30
  3
X-Ray
350
3C
  0
XRECORD
  5
246
102
{ACAD_REACTORS
330
C
102
}
330
C
100
AcDbXrecord
280
     1
 90
        1
330
65
  0
DICTIONARY
  5
7B
102
{ACAD_REACTORS
330
C
102
}
330
C
100
AcDbDictionary
281
     1
  3
CANNOSCALE
350
80
  3
CMLEADERSTYLE
350
7D
  3
CTABLESTYLE
350
7C
  3
CVIEWDETAILSTYLE
350
7E
  3
CVIEWSECTIONSTYLE
350
7F
  0
DICTIONARY
  5
238
102
{ACAD_REACTORS
330
C
102
}
330
C
100
AcDbDictionary
281
     1
  3
DRAWING_TOOL
350
23F
  3
REVIT_CATEGORY_MAPPING
350
23D
  3
REVIT_GET_SITE
350
239
  3
REVIT_SUB_CATEGORY_MAPPING
350
23E
  3
REVIT_TYPE_MAPPING
350
23C
  0
SORTENTSTABLE
  5
241
102
{ACAD_REACTORS
330
240
102
}
330
240
100
AcDbSortentsTable
330
70
  0
ACDBDETAILVIEWSTYLE
  5
6B
102
{ACAD_REACTORS
330
6A
102
}
330
6A
100
AcDbModelDocViewStyle
 70
     0
  3
Imperial24
290
     1
300
Imperial24
 90
        0
100
AcDbDetailViewStyle
 70
     0
 71
     0
 90
        3
 71
     1
340
55
 62
   256
 40
0.24
340
0
 62
   256
 40
0.24
300

 40
0.36
280
     3
 71
     2
340
5D
 90
       25
 62
   256
 71
     3
340
55
 62
   256
 40
0.24
 90
        1
 40
0.75
 90
        1
300
%<\AcVar ViewType \f "%tc1">% %<\AcVar ViewDetailId>%\PSCALE %<\AcVar ViewScale \f "%sn">%
 71
     4
340
5D
 90
       25
 62
   256
340
5D
 90
       25
 62
   256
280
     0
  0
LAYOUT
  5
6F
102
{ACAD_REACTORS
330
62
102
}
330
62
100
AcDbPlotSettings
  1

  2

  4

  6

 40
0.0
 41
0.0
 42
0.0
 43
0.0
 44
0.0
 45
0.0
 46
0.0
 47
0.0
 48
0.0
 49
0.0
140
0.0
141
0.0
142
1.0
143
1.0
 70
   688
 72
     0
 73
     0
 74
     5
  7

 75
    16
147
1.0
 76
     0
 77
     2
 78
   300
148
0.0
149
0.0
100
AcDbLayout
  1
Layout1
 70
     1
 71
     1
 10
0.0
 20
0.0
 11
12.0
 21
9.0
 12
0.0
 22
0.0
 32
0.0
 14
0.0
 24
0.0
 34
0.0
 15
0.0
 25
0.0
 35
0.0
146
0.0
 13
0.0
 23
0.0
 33
0.0
 16
1.0
 26
0.0
 36
0.0
 17
0.0
 27
1.0
 37
0.0
 76
     0
330
6C
  0
LAYOUT
  5
77
102
{ACAD_REACTORS
330
62
102
}
330
62
100
AcDbPlotSettings
  1

  2

  4

  6

 40
0.0
 41
0.0
 42
0.0
 43
0.0
 44
0.0
 45
0.0
 46
0.0
 47
0.0
 48
0.0
 49
0.0
140
0.0
141
0.0
142
1.0
143
1.0
 70
   688
 72
     0
 73
     0
 74
     5
  7

 75
    16
147
1.0
 76
     0
 77
     2
 78
   300
148
0.0
149
0.0
100
AcDbLayout
  1
Layout2
 70
     1
 71
     2
 10
0.0
 20
0.0
 11
12.0
 21
9.0
 12
0.0
 22
0.0
 32
0.0
 14
0.0
 24
0.0
 34
0.0
 15
0.0
 25
0.0
 35
0.0
146
0.0
 13
0.0
 23
0.0
 33
0.0
 16
1.0
 26
0.0
 36
0.0
 17
0.0
 27
1.0
 37
0.0
 76
     0
330
74
  0
LAYOUT
  5
73
102
{ACAD_REACTORS
330
62
102
}
330
62
100
AcDbPlotSettings
  1

  2

  4

  6

 40
0.0
 41
0.0
 42
0.0
 43
0.0
 44
0.0
 45
0.0
 46
0.0
 47
0.0
 48
0.0
 49
0.0
140
0.0
141
0.0
142
1.0
143
1.0
 70
  1712
 72
     0
 73
     0
 74
     0
  7

 75
     0
147
1.0
 76
     0
 77
     2
 78
   300
148
0.0
149
0.0
100
AcDbLayout
  1
Model
 70
     1
 71
     0
 10
0.0
 20
0.0
 11
12.0
 21
9.0
 12
0.0
 22
0.0
 32
0.0
 14
0.0
 24
0.0
 34
0.0
 15
0.0
 25
0.0
 35
0.0
146
0.0
 13
0.0
 23
0.0
 33
0.0
 16
1.0
 26
0.0
 36
0.0
 17
0.0
 27
1.0
 37
0.0
 76
     0
330
70
  0
MATERIAL
  5
19
102
{ACAD_XDICTIONARY
360
1A
102
}
102
{ACAD_REACTORS
330
10
102
}
330
10
100
AcDbMaterial
  1
ByBlock
 72
     0
 43
0.0208333333333333
 43
0.0
 43
0.0
 43
0.0
 43
0.0
 43
0.0208333333333333
 43
0.0
 43
0.0
 43
0.0
 43
0.0
 43
1.0
 43
0.0
 43
0.0
 43
0.0
 43
0.0
 43
1.0
 77
     0
 47
0.0208333333333333
 47
0.0
 47
0.0
 47
0.0
 47
0.0
 47
0.0208333333333333
 47
0.0
 47
0.0
 47
0.0
 47
0.0
 47
1.0
 47
0.0
 47
0.0
 47
0.0
 47
0.0
 47
1.0
171
     0
 49
0.0208333333333333
 49
0.0
 49
0.0
 49
0.0
 49
0.0
 49
0.0208333333333333
 49
0.0
 49
0.0
 49
0.0
 49
0.0
 49
1.0
 49
0.0
 49
0.0
 49
0.0
 49
0.0
 49
1.0
175
     0
142
0.0208333333333333
142
0.0
142
0.0
142
0.0
142
0.0
142
0.0208333333333333
142
0.0
142
0.0
142
0.0
142
0.0
142
1.0
142
0.0
142
0.0
142
0.0
142
0.0
142
1.0
179
     0
144
0.0208333333333333
144
0.0
144
0.0
144
0.0
144
0.0
144
0.0208333333333333
144
0.0
144
0.0
144
0.0
144
0.0
144
1.0
144
0.0
144
0.0
144
0.0
144
0.0
144
1.0
147
0.0208333333333333
147
0.0
147
0.0
147
0.0
147
0.0
147
0.0208333333333333
147
0.0
147
0.0
147
0.0
147
0.0
147
1.0
147
0.0
147
0.0
147
0.0
147
0.0
147
1.0
  0
MATERIAL
  5
11
102
{ACAD_XDICTIONARY
360
12
102
}
102
{ACAD_REACTORS
330
10
102
}
330
10
100
AcDbMaterial
  1
ByLayer
 72
     0
 43
0.0208333333333333
 43
0.0
 43
0.0
 43
0.0
 43
0.0
 43
0.0208333333333333
 43
0.0
 43
0.0
 43
0.0
 43
0.0
 43
1.0
 43
0.0
 43
0.0
 43
0.0
 43
0.0
 43
1.0
 77
     0
 47
0.0208333333333333
 47
0.0
 47
0.0
 47
0.0
 47
0.0
 47
0.0208333333333333
 47
0.0
 47
0.0
 47
0.0
 47
0.0
 47
1.0
 47
0.0
 47
0.0
 47
0.0
 47
0.0
 47
1.0
171
     0
 49
0.0208333333333333
 49
0.0
 49
0.0
 49
0.0
 49
0.0
 49
0.0208333333333333
 49
0.0
 49
0.0
 49
0.0
 49
0.0
 49
1.0
 49
0.0
 49
0.0
 49
0.0
 49
0.0
 49
1.0
175
     0
142
0.0208333333333333
142
0.0
142
0.0
142
0.0
142
0.0
142
0.0208333333333333
142
0.0
142
0.0
142
0.0
142
0.0
142
1.0
142
0.0
142
0.0
142
0.0
142
0.0
142
1.0
179
     0
144
0.0208333333333333
144
0.0
144
0.0
144
0.0
144
0.0
144
0.0208333333333333
144
0.0
144
0.0
144
0.0
144
0.0
144
1.0
144
0.0
144
0.0
144
0.0
144
0.0
144
1.0
147
0.0208333333333333
147
0.0
147
0.0
147
0.0
147
0.0
147
0.0208333333333333
147
0.0
147
0.0
147
0.0
147
0.0
147
1.0
147
0.0
147
0.0
147
0.0
147
0.0
147
1.0
  0
MATERIAL
  5
21
102
{ACAD_XDICTIONARY
360
22
102
}
102
{ACAD_REACTORS
330
10
102
}
330
10
100
AcDbMaterial
  1
Global
 72
     0
 43
0.0208333333333333
 43
0.0
 43
0.0
 43
0.0
 43
0.0
 43
0.0208333333333333
 43
0.0
 43
0.0
 43
0.0
 43
0.0
 43
1.0
 43
0.0
 43
0.0
 43
0.0
 43
0.0
 43
1.0
 77
     0
 47
0.0208333333333333
 47
0.0
 47
0.0
 47
0.0
 47
0.0
 47
0.0208333333333333
 47
0.0
 47
0.0
 47
0.0
 47
0.0
 47
1.0
 47
0.0
 47
0.0
 47
0.0
 47
0.0
 47
1.0
171
     0
 49
0.0208333333333333
 49
0.0
 49
0.0
 49
0.0
 49
0.0
 49
0.0208333333333333
 49
0.0
 49
0.0
 49
0.0
 49
0.0
 49
1.0
 49
0.0
 49
0.0
 49
0.0
 49
0.0
 49
1.0
175
     0
142
0.0208333333333333
142
0.0
142
0.0
142
0.0
142
0.0
142
0.0208333333333333
142
0.0
142
0.0
142
0.0
142
0.0
142
1.0
142
0.0
142
0.0
142
0.0
142
0.0
142
1.0
179
     0
144
0.0208333333333333
144
0.0
144
0.0
144
0.0
144
0.0
144
0.0208333333333333
144
0.0
144
0.0
144
0.0
144
0.0
144
1.0
144
0.0
144
0.0
144
0.0
144
0.0
144
1.0
147
0.0208333333333333
147
0.0
147
0.0
147
0.0
147
0.0
147
0.0208333333333333
147
0.0
147
0.0
147
0.0
147
0.0
147
1.0
147
0.0
147
0.0
147
0.0
147
0.0
147
1.0
  0
MLEADERSTYLE
  5
67
102
{ACAD_REACTORS
330
66
102
}
330
66
100
AcDbMLeaderStyle
179
     2
170
     2
171
     1
172
     0
 90
        2
 40
0.0
 41
0.0
173
     1
 91
-1056964608
340
5B
 92
       -2
290
     1
 42
0.09
291
     1
 43
0.36
  3
Standard
 44
0.18
300

342
55
174
     1
178
     6
175
     1
176
     0
 93
-1056964608
 45
0.18
292
     0
297
     0
 46
0.18
 94
-1056964608
 47
1.0
 49
1.0
140
1.0
293
     1
141
0.0
294
     1
177
     0
142
1.0
295
     1
296
     0
143
0.125
271
     0
272
     9
273
     9
298
     1
  0
MLINESTYLE
  5
60
102
{ACAD_REACTORS
330
5F
102
}
330
5F
100
AcDbMlineStyle
  2
STANDARD
 70
     0
  3

 62
   256
 51
90.0
 52
90.0
 71
     2
 49
0.5
 62
   256
  6
BYLAYER
 49
-0.5
 62
   256
  6
BYLAYER
  0
ACDBPLACEHOLDER
  5
F
102
{ACAD_REACTORS
330
E
102
}
330
E
  0
SCALE
  5
43
102
{ACAD_REACTORS
330
42
102
}
330
42
100
AcDbScale
 70
     0
300
1:1
140
1.0
141
1.0
290
     1
  0
SCALE
  5
44
102
{ACAD_REACTORS
330
42
102
}
330
42
100
AcDbScale
 70
     0
300
1/128" = 1'-0"
140
0.0078125
141
12.0
290
     0
  0
SCALE
  5
45
102
{ACAD_REACTORS
330
42
102
}
330
42
100
AcDbScale
 70
     0
300
1/64" = 1'-0"
140
0.015625
141
12.0
290
     0
  0
SCALE
  5
46
102
{ACAD_REACTORS
330
42
102
}
330
42
100
AcDbScale
 70
     0
300
1/32" = 1'-0"
140
0.03125
141
12.0
290
     0
  0
SCALE
  5
47
102
{ACAD_REACTORS
330
42
102
}
330
42
100
AcDbScale
 70
     0
300
1/16" = 1'-0"
140
0.0625
141
12.0
290
     0
  0
SCALE
  5
48
102
{ACAD_REACTORS
330
42
102
}
330
42
100
AcDbScale
 70
     0
300
3/32" = 1'-0"
140
0.09375
141
12.0
290
     0
  0
SCALE
  5
49
102
{ACAD_REACTORS
330
42
102
}
330
42
100
AcDbScale
 70
     0
300
1/8" = 1'-0"
140
0.125
141
12.0
290
     0
  0
SCALE
  5
4A
102
{ACAD_REACTORS
330
42
102
}
330
42
100
AcDbScale
 70
     0
300
3/16" = 1'-0"
140
0.1875
141
12.0
290
     0
  0
SCALE
  5
4B
102
{ACAD_REACTORS
330
42
102
}
330
42
100
AcDbScale
 70
     0
300
1/4" = 1'-0"
140
0.25
141
12.0
290
     0
  0
SCALE
  5
4C
102
{ACAD_REACTORS
330
42
102
}
330
42
100
AcDbScale
 70
     0
300
3/8" = 1'-0"
140
0.375
141
12.0
290
     0
  0
SCALE
  5
4D
102
{ACAD_REACTORS
330
42
102
}
330
42
100
AcDbScale
 70
     0
300
1/2" = 1'-0"
140
0.5
141
12.0
290
     0
  0
SCALE
  5
4E
102
{ACAD_REACTORS
330
42
102
}
330
42
100
AcDbScale
 70
     0
300
3/4" = 1'-0"
140
0.75
141
12.0
290
     0
  0
SCALE
  5
4F
102
{ACAD_REACTORS
330
42
102
}
330
42
100
AcDbScale
 70
     0
300
1" = 1'-0"
140
1.0
141
12.0
290
     0
  0
SCALE
  5
50
102
{ACAD_REACTORS
330
42
102
}
330
42
100
AcDbScale
 70
     0
300
1-1/2" = 1'-0"
140
1.5
141
12.0
290
     0
  0
SCALE
  5
51
102
{ACAD_REACTORS
330
42
102
}
330
42
100
AcDbScale
 70
     0
300
3" = 1'-0"
140
3.0
141
12.0
290
     0
  0
SCALE
  5
52
102
{ACAD_REACTORS
330
42
102
}
330
42
100
AcDbScale
 70
     0
300
6" = 1'-0"
140
6.0
141
12.0
290
     0
  0
SCALE
  5
53
102
{ACAD_REACTORS
330
42
102
}
330
42
100
AcDbScale
 70
     0
300
1'-0" = 1'-0"
140
12.0
141
12.0
290
     0
  0
ACDBSECTIONVIEWSTYLE
  5
69
102
{ACAD_REACTORS
330
68
102
}
330
68
100
AcDbModelDocViewStyle
 70
     0
  3
Imperial24
290
     1
300
Imperial24
 90
        0
100
AcDbSectionViewStyle
 70
     0
 71
     0
 90
       78
 71
     1
340
55
 62
   256
 40
0.24
340
0
340
0
 62
   256
 40
0.24
300
I, O, Q, S, X, Z
 40
0.48
 90
        3
 40
0.18
 90
        1
 71
     2
340
5D
 90
       25
 62
   256
340
5D
 90
       50
 62
   256
 40
0.24
 40
0.0
 40
0.24
 71
     3
340
55
 62
   256
 40
0.24
 90
        1
 40
0.75
 90
        1
300
%<\AcVar ViewType \f "%tc1">% %<\AcVar ViewSectionStartId>%-%<\AcVar ViewSectionEndId>%\PSCALE %<\AcVar ViewScale \f "%sn">%
 71
     4
 62
   256
 62
   257
300
ANSI31
 40
1.0
 90
        0
290
     0
290
     0
 90
        6
 40
0.0
 40
1.570796326794896
 40
0.2617993877991494
 40
1.308996938995747
 40
-0.2617993877991494
 40
1.832595714594046
  0
TABLESTYLE
  5
65
102
{ACAD_XDICTIONARY
360
244
102
}
102
{ACAD_REACTORS
330
64
102
}
330
64
100
AcDbTableStyle
280
     0
  3
Standard
 70
     0
 71
     0
 40
0.06
 41
0.06
280
     0
281
     0
  7
Standard
140
0.18
170
     2
 62
     0
 63
     7
283
     0
 90
      512
 91
        0
  1

274
    -2
284
     1
 64
     0
275
    -2
285
     1
 65
     0
276
    -2
286
     1
 66
     0
277
    -2
287
     1
 67
     0
278
    -2
288
     1
 68
     0
279
    -2
289
     1
 69
     0
  7
Standard
140
0.25
170
     5
 62
     0
 63
     7
283
     0
 90
      512
 91
        0
  1

274
    -2
284
     1
 64
     0
275
    -2
285
     1
 65
     0
276
    -2
286
     1
 66
     0
277
    -2
287
     1
 67
     0
278
    -2
288
     1
 68
     0
279
    -2
289
     1
 69
     0
  7
Standard
140
0.18
170
     5
 62
     0
 63
     7
283
     0
 90
      512
 91
        0
  1

274
    -2
284
     1
 64
     0
275
    -2
285
     1
 65
     0
276
    -2
286
     1
 66
     0
277
    -2
287
     1
 67
     0
278
    -2
288
     1
 68
     0
279
    -2
289
     1
 69
     0
  0
VISUALSTYLE
  5
2F
102
{ACAD_REACTORS
330
29
102
}
330
29
100
AcDbVisualStyle
  2
2dWireframe
 70
     4
177
     3
291
     0
 70
    58
 90
        0
176
     1
 90
        2
176
     1
 90
        0
176
     1
 90
        0
176
     1
 40
0.6
176
     1
 40
30.0
176
     1
 62
     7
420
 16777215
176
     1
 90
        1
176
     1
 90
        4
176
     1
 62
     7
176
     1
 62
   257
176
     1
 90
        1
176
     1
 90
        1
176
     1
 40
1.0
176
     1
 90
        0
176
     1
 62
   257
176
     1
 40
1.0
176
     1
 90
        1
176
     1
 90
        6
176
     1
 90
        2
176
     1
 62
     7
176
     1
 90
        5
176
     1
 90
        0
176
     1
 90
        0
176
     1
290
     0
176
     1
 90
        1
176
     1
 40
0.0
176
     1
 90
        0
176
     1
290
     1
176
     1
290
     1
176
     1
290
     0
176
     1
290
     0
176
     1
290
     0
176
     1
290
     0
176
     1
290
     0
176
     1
290
     0
176
     1
290
     0
176
     1
 90
       50
176
     1
 40
0.0
176
     1
 40
1.0
176
     1
 90
        0
176
     1
 62
    18
420
        0
176
     1
 90
       50
176
     1
 90
        3
176
     1
 62
     5
420
      255
176
     1
290
     0
176
     1
 90
       50
176
     1
 90
       50
176
     1
 90
       50
176
     1
290
     0
176
     1
 90
       50
176
     1
 62
   256
176
     0
 40
1.0
176
     0
 90
        2
176
     1
  1
strokes_ogs.tif
176
     1
290
     0
176
     1
 40
1.0
176
     1
 40
1.0
176
     1
  0
VISUALSTYLE
  5
2E
102
{ACAD_REACTORS
330
29
102
}
330
29
100
AcDbVisualStyle
  2
Basic
 70
     7
177
     3
291
     1
 70
    58
 90
        1
176
     1
 90
        0
176
     1
 90
        1
176
     1
 90
        0
176
     1
 40
0.6
176
     1
 40
30.0
176
     1
 62
     7
420
 16777215
176
     1
 90
        0
176
     1
 90
        4
176
     1
 62
     7
176
     1
 62
   257
176
     1
 90
        1
176
     1
 90
        1
176
     1
 40
1.0
176
     1
 90
        8
176
     1
 62
     7
176
     1
 40
1.0
176
     1
 90
        1
176
     1
 90
        6
176
     1
 90
        2
176
     1
 62
     7
176
     1
 90
        5
176
     1
 90
        0
176
     1
 90
        0
176
     1
290
     0
176
     1
 90
        1
176
     1
 40
0.0
176
     1
 90
        0
176
     1
290
     0
176
     1
290
     1
176
     1
290
     1
176
     1
290
     0
176
     1
290
     0
176
     1
290
     0
176
     1
290
     0
176
     1
290
     0
176
     1
290
     0
176
     1
 90
       50
176
     1
 40
0.0
176
     1
 40
1.0
176
     1
 90
        0
176
     1
 62
    18
420
        0
176
     1
 90
       50
176
     1
 90
        3
176
     1
 62
     5
420
      255
176
     1
290
     0
176
     1
 90
       50
176
     1
 90
       50
176
     1
 90
       50
176
     1
290
     0
176
     1
 90
       50
176
     1
 62
   256
176
     0
 40
1.0
176
     0
 90
        2
176
     1
  1
strokes_ogs.tif
176
     1
290
     0
176
     1
 40
1.0
176
     1
 40
1.0
176
     1
  0
VISUALSTYLE
  5
35
102
{ACAD_REACTORS
330
29
102
}
330
29
100
AcDbVisualStyle
  2
Brighten
 70
    12
177
     3
291
     1
 70
    58
 90
        2
176
     1
 90
        2
176
     1
 90
        0
176
     1
 90
        0
176
     1
 40
0.6
176
     1
 40
30.0
176
     1
 62
     7
420
 16777215
176
     1
 90
        1
176
     1
 90
        4
176
     1
 62
     7
176
     1
 62
   257
176
     1
 90
        1
176
     1
 90
        1
176
     1
 40
1.0
176
     1
 90
        8
176
     1
 62
     7
176
     1
 40
1.0
176
     1
 90
        1
176
     1
 90
        6
176
     1
 90
        2
176
     1
 62
     7
176
     1
 90
        5
176
     1
 90
        0
176
     1
 90
        0
176
     1
290
     0
176
     1
 90
        1
176
     1
 40
50.0
176
     1
 90
        0
176
     1
290
     0
176
     1
290
     1
176
     1
290
     1
176
     1
290
     0
176
     1
290
     0
176
     1
290
     0
176
     1
290
     0
176
     1
290
     0
176
     1
290
     0
176
     1
 90
       50
176
     1
 40
0.0
176
     1
 40
1.0
176
     1
 90
        0
176
     1
 62
    18
420
        0
176
     1
 90
       50
176
     1
 90
        3
176
     1
 62
     5
420
      255
176
     1
290
     0
176
     1
 90
       50
176
     1
 90
       50
176
     1
 90
       50
176
     1
290
     0
176
     1
 90
       50
176
     1
 62
   256
176
     0
 40
1.0
176
     0
 90
        2
176
     1
  1
strokes_ogs.tif
176
     1
290
     0
176
     1
 40
1.0
176
     1
 40
1.0
176
     1
  0
VISUALSTYLE
  5
39
102
{ACAD_REACTORS
330
29
102
}
330
29
100
AcDbVisualStyle
  2
ColorChange
 70
    16
177
     3
291
     1
 70
    58
 90
        2
176
     1
 90
        2
176
     1
 90
        3
176
     1
 90
        0
176
     1
 40
0.6
176
     1
 40
30.0
176
     1
 62
     8
420
  8421504
176
     1
 90
        1
176
     1
 90
        4
176
     1
 62
     7
176
     1
 62
   257
176
     1
 90
        1
176
     1
 90
        1
176
     1
 40
1.0
176
     1
 90
        8
176
     1
 62
     8
420
  8421504
176
     1
 40
1.0
176
     1
 90
        1
176
     1
 90
        6
176
     1
 90
        2
176
     1
 62
     7
176
     1
 90
        5
176
     1
 90
        0
176
     1
 90
        0
176
     1
290
     0
176
     1
 90
        1
176
     1
 40
0.0
176
     1
 90
        0
176
     1
290
     0
176
     1
290
     1
176
     1
290
     1
176
     1
290
     0
176
     1
290
     0
176
     1
290
     0
176
     1
290
     0
176
     1
290
     0
176
     1
290
     0
176
     1
 90
       50
176
     1
 40
0.0
176
     1
 40
1.0
176
     1
 90
        0
176
     1
 62
    18
420
        0
176
     1
 90
       50
176
     1
 90
        3
176
     1
 62
     5
420
      255
176
     1
290
     0
176
     1
 90
       50
176
     1
 90
       50
176
     1
 90
       50
176
     1
290
     0
176
     1
 90
       50
176
     1
 62
   256
176
     0
 40
1.0
176
     0
 90
        2
176
     1
  1
strokes_ogs.tif
176
     1
290
     0
176
     1
 40
1.0
176
     1
 40
1.0
176
     1
  0
VISUALSTYLE
  5
32
102
{ACAD_REACTORS
330
29
102
}
330
29
100
AcDbVisualStyle
  2
Conceptual
 70
     9
177
     3
291
     0
 70
    58
 90
        3
176
     1
 90
        2
176
     1
 90
        0
176
     1
 90
        0
176
     1
 40
0.6
176
     1
 40
30.0
176
     1
 62
     7
420
 16777215
176
     1
 90
        2
176
     1
 90
        2
176
     1
 62
     7
176
     1
 62
   257
176
     1
 90
        1
176
     1
 90
        1
176
     1
 40
179.0
176
     1
 90
        8
176
     1
 62
     7
176
     1
 40
1.0
176
     1
 90
        1
176
     1
 90
        6
176
     1
 90
        2
176
     1
 62
     7
176
     1
 90
        3
176
     1
 90
        0
176
     1
 90
        0
176
     1
290
     0
176
     1
 90
        1
176
     1
 40
0.0
176
     1
 90
        0
176
     1
290
     0
176
     1
290
     1
176
     1
290
     1
176
     1
290
     0
176
     1
290
     0
176
     1
290
     0
176
     1
290
     0
176
     1
290
     0
176
     1
290
     0
176
     1
 90
       50
176
     1
 40
0.0
176
     1
 40
1.0
176
     1
 90
        0
176
     1
 62
    18
420
        0
176
     1
 90
       50
176
     1
 90
        3
176
     1
 62
     5
420
      255
176
     1
290
     0
176
     1
 90
       50
176
     1
 90
       50
176
     1
 90
       50
176
     1
290
     0
176
     1
 90
       50
176
     1
 62
   256
176
     0
 40
1.0
176
     0
 90
        2
176
     1
  1
strokes_ogs.tif
176
     1
290
     0
176
     1
 40
1.0
176
     1
 40
1.0
176
     1
  0
VISUALSTYLE
  5
34
102
{ACAD_REACTORS
330
29
102
}
330
29
100
AcDbVisualStyle
  2
Dim
 70
    11
177
     3
291
     1
 70
    58
 90
        2
176
     1
 90
        2
176
     1
 90
        0
176
     1
 90
        0
176
     1
 40
0.6
176
     1
 40
30.0
176
     1
 62
     7
420
 16777215
176
     1
 90
        1
176
     1
 90
        4
176
     1
 62
     7
176
     1
 62
   257
176
     1
 90
        1
176
     1
 90
        1
176
     1
 40
1.0
176
     1
 90
        8
176
     1
 62
     7
176
     1
 40
1.0
176
     1
 90
        1
176
     1
 90
        6
176
     1
 90
        2
176
     1
 62
     7
176
     1
 90
        5
176
     1
 90
        0
176
     1
 90
        0
176
     1
290
     0
176
     1
 90
        1
176
     1
 40
-50.0
176
     1
 90
        0
176
     1
290
     0
176
     1
290
     1
176
     1
290
     1
176
     1
290
     0
176
     1
290
     0
176
     1
290
     0
176
     1
290
     0
176
     1
290
     0
176
     1
290
     0
176
     1
 90
       50
176
     1
 40
0.0
176
     1
 40
1.0
176
     1
 90
        0
176
     1
 62
    18
420
        0
176
     1
 90
       50
176
     1
 90
        3
176
     1
 62
     5
420
      255
176
     1
290
     0
176
     1
 90
       50
176
     1
 90
       50
176
     1
 90
       50
176
     1
290
     0
176
     1
 90
       50
176
     1
 62
   256
176
     0
 40
1.0
176
     0
 90
        2
176
     1
  1
strokes_ogs.tif
176
     1
290
     0
176
     1
 40
1.0
176
     1
 40
1.0
176
     1
  0
VISUALSTYLE
  5
41
102
{ACAD_REACTORS
330
29
102
}
330
29
100
AcDbVisualStyle
  2
EdgeColorOff
 70
    22
177
     3
291
     1
 70
    58
 90
        2
176
     0
 90
        2
176
     0
 90
        0
176
     0
 90
        0
176
     0
 40
0.6
176
     0
 40
30.0
176
     0
 62
     7
420
 16777215
176
     0
 90
        1
176
     0
 90
        4
176
     0
 62
     7
176
     0
 62
   257
176
     0
 90
        1
176
     0
 90
        1
176
     0
 40
1.0
176
     0
 90
        8
176
     2
 62
     7
176
     0
 40
1.0
176
     0
 90
        1
176
     0
 90
        6
176
     0
 90
        2
176
     0
 62
     7
176
     0
 90
        5
176
     0
 90
        0
176
     0
 90
        0
176
     0
290
     0
176
     0
 90
        1
176
     0
 40
0.0
176
     0
 90
        0
176
     0
290
     0
176
     0
290
     1
176
     0
290
     1
176
     0
290
     0
176
     0
290
     0
176
     0
290
     0
176
     0
290
     0
176
     0
290
     0
176
     0
290
     0
176
     0
 90
       50
176
     0
 40
0.0
176
     0
 40
1.0
176
     0
 90
        0
176
     0
 62
    18
420
        0
176
     0
 90
       50
176
     0
 90
        3
176
     0
 62
     5
420
      255
176
     0
290
     0
176
     0
 90
       50
176
     0
 90
       50
176
     0
 90
       50
176
     0
290
     0
176
     0
 90
       50
176
     0
 62
   256
176
     0
 40
1.0
176
     0
 90
        2
176
     0
  1
strokes_ogs.tif
176
     0
290
     0
176
     0
 40
1.0
176
     0
 40
1.0
176
     0
  0
VISUALSTYLE
  5
38
102
{ACAD_REACTORS
330
29
102
}
330
29
100
AcDbVisualStyle
  2
Facepattern
 70
    15
177
     3
291
     1
 70
    58
 90
        2
176
     1
 90
        2
176
     1
 90
        0
176
     1
 90
        0
176
     1
 40
0.6
176
     1
 40
30.0
176
     1
 62
     7
420
 16777215
176
     1
 90
        1
176
     1
 90
        4
176
     1
 62
     7
176
     1
 62
   257
176
     1
 90
        1
176
     1
 90
        1
176
     1
 40
1.0
176
     1
 90
        8
176
     1
 62
     7
176
     1
 40
1.0
176
     1
 90
        1
176
     1
 90
        6
176
     1
 90
        2
176
     1
 62
     7
176
     1
 90
        5
176
     1
 90
        0
176
     1
 90
        0
176
     1
290
     0
176
     1
 90
        1
176
     1
 40
0.0
176
     1
 90
        0
176
     1
290
     0
176
     1
290
     1
176
     1
290
     1
176
     1
290
     0
176
     1
290
     0
176
     1
290
     0
176
     1
290
     0
176
     1
290
     0
176
     1
290
     0
176
     1
 90
       50
176
     1
 40
0.0
176
     1
 40
1.0
176
     1
 90
        0
176
     1
 62
    18
420
        0
176
     1
 90
       50
176
     1
 90
        3
176
     1
 62
     5
420
      255
176
     1
290
     0
176
     1
 90
       50
176
     1
 90
       50
176
     1
 90
       50
176
     1
290
     0
176
     1
 90
       50
176
     1
 62
   256
176
     0
 40
1.0
176
     0
 90
        2
176
     1
  1
strokes_ogs.tif
176
     1
290
     0
176
     1
 40
1.0
176
     1
 40
1.0
176
     1
  0
VISUALSTYLE
  5
2A
102
{ACAD_REACTORS
330
29
102
}
330
29
100
AcDbVisualStyle
  2
Flat
 70
     0
177
     3
291
     1
 70
    58
 90
        2
176
     1
 90
        1
176
     1
 90
        1
176
     1
 90
        2
176
     1
 40
0.6
176
     1
 40
30.0
176
     1
 62
     7
420
 16777215
176
     1
 90
        0
176
     1
 90
        0
176
     1
 62
     7
176
     1
 62
   257
176
     1
 90
        1
176
     1
 90
        1
176
     1
 40
1.0
176
     1
 90
        8
176
     1
 62
     7
176
     1
 40
1.0
176
     1
 90
        1
176
     1
 90
        6
176
     1
 90
        2
176
     1
 62
     7
176
     1
 90
        5
176
     1
 90
        0
176
     1
 90
        0
176
     1
290
     0
176
     1
 90
       13
176
     1
 40
0.0
176
     1
 90
        0
176
     1
290
     0
176
     1
290
     1
176
     1
290
     1
176
     1
290
     0
176
     1
290
     0
176
     1
290
     0
176
     1
290
     0
176
     1
290
     0
176
     1
290
     0
176
     1
 90
       50
176
     1
 40
0.0
176
     1
 40
1.0
176
     1
 90
        0
176
     1
 62
    18
420
        0
176
     1
 90
       50
176
     1
 90
        3
176
     1
 62
     5
420
      255
176
     1
290
     0
176
     1
 90
       50
176
     1
 90
       50
176
     1
 90
       50
176
     1
290
     0
176
     1
 90
       50
176
     1
 62
   256
176
     0
 40
1.0
176
     0
 90
        2
176
     1
  1
strokes_ogs.tif
176
     1
290
     0
176
     1
 40
1.0
176
     1
 40
1.0
176
     1
  0
VISUALSTYLE
  5
2B
102
{ACAD_REACTORS
330
29
102
}
330
29
100
AcDbVisualStyle
  2
FlatWithEdges
 70
     1
177
     3
291
     1
 70
    58
 90
        2
176
     1
 90
        1
176
     1
 90
        1
176
     1
 90
        2
176
     1
 40
0.6
176
     1
 40
30.0
176
     1
 62
     7
420
 16777215
176
     1
 90
        1
176
     1
 90
        0
176
     1
 62
     7
176
     1
 62
   257
176
     1
 90
        1
176
     1
 90
        1
176
     1
 40
1.0
176
     1
 90
        0
176
     1
 62
   257
176
     1
 40
1.0
176
     1
 90
        1
176
     1
 90
        6
176
     1
 90
        2
176
     1
 62
     7
176
     1
 90
        5
176
     1
 90
        0
176
     1
 90
        0
176
     1
290
     0
176
     1
 90
       13
176
     1
 40
0.0
176
     1
 90
        0
176
     1
290
     0
176
     1
290
     1
176
     1
290
     1
176
     1
290
     0
176
     1
290
     0
176
     1
290
     0
176
     1
290
     0
176
     1
290
     0
176
     1
290
     0
176
     1
 90
       50
176
     1
 40
0.0
176
     1
 40
1.0
176
     1
 90
        0
176
     1
 62
    18
420
        0
176
     1
 90
       50
176
     1
 90
        3
176
     1
 62
     5
420
      255
176
     1
290
     0
176
     1
 90
       50
176
     1
 90
       50
176
     1
 90
       50
176
     1
290
     0
176
     1
 90
       50
176
     1
 62
   256
176
     0
 40
1.0
176
     0
 90
        2
176
     1
  1
strokes_ogs.tif
176
     1
290
     0
176
     1
 40
1.0
176
     1
 40
1.0
176
     1
  0
VISUALSTYLE
  5
2C
102
{ACAD_REACTORS
330
29
102
}
330
29
100
AcDbVisualStyle
  2
Gouraud
 70
     2
177
     3
291
     1
 70
    58
 90
        2
176
     1
 90
        2
176
     1
 90
        1
176
     1
 90
        2
176
     1
 40
0.6
176
     1
 40
30.0
176
     1
 62
     7
420
 16777215
176
     1
 90
        0
176
     1
 90
        0
176
     1
 62
     7
176
     1
 62
   257
176
     1
 90
        1
176
     1
 90
        1
176
     1
 40
1.0
176
     1
 90
        0
176
     1
 62
     7
176
     1
 40
1.0
176
     1
 90
        1
176
     1
 90
        6
176
     1
 90
        2
176
     1
 62
     7
176
     1
 90
        5
176
     1
 90
        0
176
     1
 90
        0
176
     1
290
     0
176
     1
 90
       13
176
     1
 40
0.0
176
     1
 90
        0
176
     1
290
     0
176
     1
290
     1
176
     1
290
     1
176
     1
290
     0
176
     1
290
     0
176
     1
290
     0
176
     1
290
     0
176
     1
290
     0
176
     1
290
     0
176
     1
 90
       50
176
     1
 40
0.0
176
     1
 40
1.0
176
     1
 90
        0
176
     1
 62
    18
420
        0
176
     1
 90
       50
176
     1
 90
        3
176
     1
 62
     5
420
      255
176
     1
290
     0
176
     1
 90
       50
176
     1
 90
       50
176
     1
 90
       50
176
     1
290
     0
176
     1
 90
       50
176
     1
 62
   256
176
     0
 40
1.0
176
     0
 90
        2
176
     1
  1
strokes_ogs.tif
176
     1
290
     0
176
     1
 40
1.0
176
     1
 40
1.0
176
     1
  0
VISUALSTYLE
  5
2D
102
{ACAD_REACTORS
330
29
102
}
330
29
100
AcDbVisualStyle
  2
GouraudWithEdges
 70
     3
177
     3
291
     1
 70
    58
 90
        2
176
     1
 90
        2
176
     1
 90
        1
176
     1
 90
        2
176
     1
 40
0.6
176
     1
 40
30.0
176
     1
 62
     7
420
 16777215
176
     1
 90
        1
176
     1
 90
        0
176
     1
 62
     7
176
     1
 62
   257
176
     1
 90
        1
176
     1
 90
        1
176
     1
 40
1.0
176
     1
 90
        0
176
     1
 62
   257
176
     1
 40
1.0
176
     1
 90
        1
176
     1
 90
        6
176
     1
 90
        2
176
     1
 62
     7
176
     1
 90
        5
176
     1
 90
        0
176
     1
 90
        0
176
     1
290
     0
176
     1
 90
       13
176
     1
 40
0.0
176
     1
 90
        0
176
     1
290
     0
176
     1
290
     1
176
     1
290
     1
176
     1
290
     0
176
     1
290
     0
176
     1
290
     0
176
     1
290
     0
176
     1
290
     0
176
     1
290
     0
176
     1
 90
       50
176
     1
 40
0.0
176
     1
 40
1.0
176
     1
 90
        0
176
     1
 62
    18
420
        0
176
     1
 90
       50
176
     1
 90
        3
176
     1
 62
     5
420
      255
176
     1
290
     0
176
     1
 90
       50
176
     1
 90
       50
176
     1
 90
       50
176
     1
290
     0
176
     1
 90
       50
176
     1
 62
   256
176
     0
 40
1.0
176
     0
 90
        2
176
     1
  1
strokes_ogs.tif
176
     1
290
     0
176
     1
 40
1.0
176
     1
 40
1.0
176
     1
  0
VISUALSTYLE
  5
31
102
{ACAD_REACTORS
330
29
102
}
330
29
100
AcDbVisualStyle
  2
Hidden
 70
     6
177
     3
291
     0
 70
    58
 90
        1
176
     1
 90
        2
176
     1
 90
        2
176
     1
 90
        0
176
     1
 40
0.6
176
     1
 40
30.0
176
     1
 62
     7
420
 16777215
176
     1
 90
        2
176
     1
 90
        2
176
     1
 62
     7
176
     1
 62
   257
176
     1
 90
        2
176
     1
 90
        1
176
     1
 40
40.0
176
     1
 90
        0
176
     1
 62
   257
176
     1
 40
1.0
176
     1
 90
        1
176
     1
 90
        6
176
     1
 90
        2
176
     1
 62
     7
176
     1
 90
        3
176
     1
 90
        0
176
     1
 90
        0
176
     1
290
     0
176
     1
 90
        1
176
     1
 40
0.0
176
     1
 90
        0
176
     1
290
     0
176
     1
290
     1
176
     1
290
     1
176
     1
290
     0
176
     1
290
     0
176
     1
290
     0
176
     1
290
     0
176
     1
290
     0
176
     1
290
     0
176
     1
 90
       50
176
     1
 40
0.0
176
     1
 40
1.0
176
     1
 90
        0
176
     1
 62
    18
420
        0
176
     1
 90
       50
176
     1
 90
        3
176
     1
 62
     5
420
      255
176
     1
290
     0
176
     1
 90
       50
176
     1
 90
       50
176
     1
 90
       50
176
     1
290
     0
176
     1
 90
       50
176
     1
 62
   256
176
     0
 40
1.0
176
     0
 90
        2
176
     1
  1
strokes_ogs.tif
176
     1
290
     0
176
     1
 40
1.0
176
     1
 40
1.0
176
     1
  0
VISUALSTYLE
  5
3F
102
{ACAD_REACTORS
330
29
102
}
330
29
100
AcDbVisualStyle
  2
JitterOff
 70
    20
177
     3
291
     1
 70
    58
 90
        2
176
     0
 90
        2
176
     0
 90
        0
176
     0
 90
        0
176
     0
 40
0.6
176
     0
 40
30.0
176
     0
 62
     7
420
 16777215
176
     0
 90
        1
176
     0
 90
        4
176
     0
 62
     7
176
     0
 62
   257
176
     0
 90
        1
176
     0
 90
        1
176
     0
 40
1.0
176
     0
 90
       10
176
     2
 62
     7
176
     0
 40
1.0
176
     0
 90
        1
176
     0
 90
        6
176
     0
 90
        2
176
     0
 62
     7
176
     0
 90
        5
176
     0
 90
        0
176
     0
 90
        0
176
     0
290
     0
176
     0
 90
        1
176
     0
 40
0.0
176
     0
 90
        0
176
     0
290
     0
176
     0
290
     1
176
     0
290
     1
176
     0
290
     0
176
     0
290
     0
176
     0
290
     0
176
     0
290
     0
176
     0
290
     0
176
     0
290
     0
176
     0
 90
       50
176
     0
 40
0.0
176
     0
 40
1.0
176
     0
 90
        0
176
     0
 62
    18
420
        0
176
     0
 90
       50
176
     0
 90
        3
176
     0
 62
     5
420
      255
176
     0
290
     0
176
     0
 90
       50
176
     0
 90
       50
176
     0
 90
       50
176
     0
290
     0
176
     0
 90
       50
176
     0
 62
   256
176
     0
 40
1.0
176
     0
 90
        2
176
     0
  1
strokes_ogs.tif
176
     0
290
     0
176
     0
 40
1.0
176
     0
 40
1.0
176
     0
  0
VISUALSTYLE
  5
37
102
{ACAD_REACTORS
330
29
102
}
330
29
100
AcDbVisualStyle
  2
Linepattern
 70
    14
177
     3
291
     1
 70
    58
 90
        2
176
     1
 90
        2
176
     1
 90
        0
176
     1
 90
        0
176
     1
 40
0.6
176
     1
 40
30.0
176
     1
 62
     7
420
 16777215
176
     1
 90
        1
176
     1
 90
        4
176
     1
 62
     7
176
     1
 62
   257
176
     1
 90
        7
176
     1
 90
        7
176
     1
 40
1.0
176
     1
 90
        8
176
     1
 62
     7
176
     1
 40
1.0
176
     1
 90
        1
176
     1
 90
        6
176
     1
 90
        2
176
     1
 62
     7
176
     1
 90
        5
176
     1
 90
        0
176
     1
 90
        0
176
     1
290
     0
176
     1
 90
        1
176
     1
 40
0.0
176
     1
 90
        0
176
     1
290
     0
176
     1
290
     1
176
     1
290
     1
176
     1
290
     0
176
     1
290
     0
176
     1
290
     0
176
     1
290
     0
176
     1
290
     0
176
     1
290
     0
176
     1
 90
       50
176
     1
 40
0.0
176
     1
 40
1.0
176
     1
 90
        0
176
     1
 62
    18
420
        0
176
     1
 90
       50
176
     1
 90
        3
176
     1
 62
     5
420
      255
176
     1
290
     0
176
     1
 90
       50
176
     1
 90
       50
176
     1
 90
       50
176
     1
290
     0
176
     1
 90
       50
176
     1
 62
   256
176
     0
 40
1.0
176
     0
 90
        2
176
     1
  1
strokes_ogs.tif
176
     1
290
     0
176
     1
 40
1.0
176
     1
 40
1.0
176
     1
  0
VISUALSTYLE
  5
40
102
{ACAD_REACTORS
330
29
102
}
330
29
100
AcDbVisualStyle
  2
OverhangOff
 70
    21
177
     3
291
     1
 70
    58
 90
        2
176
     0
 90
        2
176
     0
 90
        0
176
     0
 90
        0
176
     0
 40
0.6
176
     0
 40
30.0
176
     0
 62
     7
420
 16777215
176
     0
 90
        1
176
     0
 90
        4
176
     0
 62
     7
176
     0
 62
   257
176
     0
 90
        1
176
     0
 90
        1
176
     0
 40
1.0
176
     0
 90
        9
176
     2
 62
     7
176
     0
 40
1.0
176
     0
 90
        1
176
     0
 90
        6
176
     0
 90
        2
176
     0
 62
     7
176
     0
 90
        5
176
     0
 90
        0
176
     0
 90
        0
176
     0
290
     0
176
     0
 90
        1
176
     0
 40
0.0
176
     0
 90
        0
176
     0
290
     0
176
     0
290
     1
176
     0
290
     1
176
     0
290
     0
176
     0
290
     0
176
     0
290
     0
176
     0
290
     0
176
     0
290
     0
176
     0
290
     0
176
     0
 90
       50
176
     0
 40
0.0
176
     0
 40
1.0
176
     0
 90
        0
176
     0
 62
    18
420
        0
176
     0
 90
       50
176
     0
 90
        3
176
     0
 62
     5
420
      255
176
     0
290
     0
176
     0
 90
       50
176
     0
 90
       50
176
     0
 90
       50
176
     0
290
     0
176
     0
 90
       50
176
     0
 62
   256
176
     0
 40
1.0
176
     0
 90
        2
176
     0
  1
strokes_ogs.tif
176
     0
290
     0
176
     0
 40
1.0
176
     0
 40
1.0
176
     0
  0
VISUALSTYLE
  5
33
102
{ACAD_REACTORS
330
29
102
}
330
29
100
AcDbVisualStyle
  2
Realistic
 70
     8
177
     3
291
     0
 70
    58
 90
        2
176
     1
 90
        3
176
     1
 90
        0
176
     1
 90
        2
176
     1
 40
0.6
176
     1
 40
30.0
176
     1
 62
     7
420
 16777215
176
     1
 90
        0
176
     1
 90
        0
176
     1
 62
     7
176
     1
 62
   257
176
     1
 90
        1
176
     1
 90
        1
176
     1
 40
1.0
176
     1
 90
        8
176
     1
 62
   257
176
     1
 40
1.0
176
     1
 90
        1
176
     1
 90
        6
176
     1
 90
        2
176
     1
 62
     7
176
     1
 90
        3
176
     1
 90
        0
176
     1
 90
        0
176
     1
290
     0
176
     1
 90
       13
176
     1
 40
0.0
176
     1
 90
        0
176
     1
290
     0
176
     1
290
     1
176
     1
290
     1
176
     1
290
     0
176
     1
290
     0
176
     1
290
     0
176
     1
290
     0
176
     1
290
     0
176
     1
290
     0
176
     1
 90
       50
176
     1
 40
0.0
176
     1
 40
1.0
176
     1
 90
        0
176
     1
 62
    18
420
        0
176
     1
 90
       50
176
     1
 90
        3
176
     1
 62
     5
420
      255
176
     1
290
     0
176
     1
 90
       50
176
     1
 90
       50
176
     1
 90
       50
176
     1
290
     0
176
     1
 90
       50
176
     1
 62
   256
176
     0
 40
1.0
176
     0
 90
        2
176
     1
  1
strokes_ogs.tif
176
     1
290
     0
176
     1
 40
1.0
176
     1
 40
1.0
176
     1
  0
VISUALSTYLE
  5
3E
102
{ACAD_REACTORS
330
29
102
}
330
29
100
AcDbVisualStyle
  2
Shaded
 70
    27
177
     3
291
     0
 70
    58
 90
        2
176
     1
 90
        2
176
     1
 90
        1
176
     1
 90
        2
176
     1
 40
0.6
176
     1
 40
30.0
176
     1
 62
     7
420
 16777215
176
     1
 90
        0
176
     1
 90
        4
176
     1
 62
     7
176
     1
 62
   257
176
     1
 90
        1
176
     1
 90
        1
176
     1
 40
1.0
176
     1
 90
        8
176
     1
 62
   257
176
     1
 40
1.0
176
     1
 90
        1
176
     1
 90
        6
176
     1
 90
        2
176
     1
 62
     8
420
  7895160
176
     1
 90
        3
176
     1
 90
        0
176
     1
 90
        0
176
     1
290
     0
176
     1
 90
        5
176
     1
 40
0.0
176
     1
 90
        0
176
     1
290
     0
176
     1
290
     1
176
     1
290
     1
176
     1
290
     0
176
     1
290
     0
176
     1
290
     0
176
     1
290
     0
176
     1
290
     0
176
     1
290
     0
176
     1
 90
       50
176
     1
 40
0.0
176
     1
 40
1.0
176
     1
 90
        0
176
     1
 62
    18
420
        0
176
     1
 90
       50
176
     1
 90
        3
176
     1
 62
     5
420
      255
176
     1
290
     0
176
     1
 90
       50
176
     1
 90
       50
176
     1
 90
       50
176
     1
290
     0
176
     1
 90
       50
176
     1
 62
   256
176
     0
 40
1.0
176
     0
 90
        2
176
     1
  1
strokes_ogs.tif
176
     1
290
     0
176
     1
 40
1.0
176
     1
 40
1.0
176
     1
  0
VISUALSTYLE
  5
3D
102
{ACAD_REACTORS
330
29
102
}
330
29
100
AcDbVisualStyle
  2
Shaded with edges
 70
    26
177
     3
291
     0
 70
    58
 90
        2
176
     1
 90
        2
176
     1
 90
        1
176
     1
 90
        2
176
     1
 40
0.6
176
     1
 40
30.0
176
     1
 62
     7
420
 16777215
176
     1
 90
        1
176
     1
 90
        2
176
     1
 62
     7
176
     1
 62
   257
176
     1
 90
        2
176
     1
 90
        1
176
     1
 40
1.0
176
     1
 90
        8
176
     1
 62
   257
176
     1
 40
1.0
176
     1
 90
        1
176
     1
 90
        6
176
     1
 90
        2
176
     1
 62
     7
176
     1
 90
        3
176
     1
 90
        0
176
     1
 90
        0
176
     1
290
     0
176
     1
 90
        5
176
     1
 40
0.0
176
     1
 90
        0
176
     1
290
     0
176
     1
290
     1
176
     1
290
     1
176
     1
290
     0
176
     1
290
     0
176
     1
290
     0
176
     1
290
     0
176
     1
290
     0
176
     1
290
     0
176
     1
 90
       50
176
     1
 40
0.0
176
     1
 40
1.0
176
     1
 90
        0
176
     1
 62
    18
420
        0
176
     1
 90
       50
176
     1
 90
        3
176
     1
 62
     5
420
      255
176
     1
290
     0
176
     1
 90
       50
176
     1
 90
       50
176
     1
 90
       50
176
     1
290
     0
176
     1
 90
       50
176
     1
 62
   256
176
     0
 40
1.0
176
     0
 90
        2
176
     1
  1
strokes_ogs.tif
176
     1
290
     0
176
     1
 40
1.0
176
     1
 40
1.0
176
     1
  0
VISUALSTYLE
  5
3A
102
{ACAD_REACTORS
330
29
102
}
330
29
100
AcDbVisualStyle
  2
Shades of Gray
 70
    23
177
     3
291
     0
 70
    58
 90
        2
176
     1
 90
        2
176
     1
 90
        3
176
     1
 90
        0
176
     1
 40
0.6
176
     1
 40
30.0
176
     1
 62
     7
420
 16777215
176
     1
 90
        2
176
     1
 90
        2
176
     1
 62
     7
176
     1
 62
     7
176
     1
 90
        1
176
     1
 90
        1
176
     1
 40
40.0
176
     1
 90
        8
176
     1
 62
     7
176
     1
 40
1.0
176
     1
 90
        1
176
     1
 90
        6
176
     1
 90
        2
176
     1
 62
     7
176
     1
 90
        3
176
     1
 90
        0
176
     1
 90
        0
176
     1
290
     0
176
     1
 90
        1
176
     1
 40
0.0
176
     1
 90
        0
176
     1
290
     0
176
     1
290
     1
176
     1
290
     1
176
     1
290
     0
176
     1
290
     0
176
     1
290
     0
176
     1
290
     0
176
     1
290
     0
176
     1
290
     0
176
     1
 90
       50
176
     1
 40
0.0
176
     1
 40
1.0
176
     1
 90
        0
176
     1
 62
    18
420
        0
176
     1
 90
       50
176
     1
 90
        3
176
     1
 62
     5
420
      255
176
     1
290
     0
176
     1
 90
       50
176
     1
 90
       50
176
     1
 90
       50
176
     1
290
     0
176
     1
 90
       50
176
     1
 62
   256
176
     0
 40
1.0
176
     0
 90
        2
176
     1
  1
strokes_ogs.tif
176
     1
290
     0
176
     1
 40
1.0
176
     1
 40
1.0
176
     1
  0
VISUALSTYLE
  5
3B
102
{ACAD_REACTORS
330
29
102
}
330
29
100
AcDbVisualStyle
  2
Sketchy
 70
    24
177
     3
291
     0
 70
    58
 90
        1
176
     1
 90
        2
176
     1
 90
        2
176
     1
 90
        0
176
     1
 40
0.6
176
     1
 40
30.0
176
     1
 62
     7
420
 16777215
176
     1
 90
        2
176
     1
 90
        2
176
     1
 62
     7
176
     1
 62
     7
176
     1
 90
        1
176
     1
 90
        1
176
     1
 40
40.0
176
     1
 90
       11
176
     1
 62
     7
176
     1
 40
1.0
176
     1
 90
        1
176
     1
 90
        6
176
     1
 90
        2
176
     1
 62
     7
176
     1
 90
        6
176
     1
 90
        0
176
     1
 90
        0
176
     1
290
     0
176
     1
 90
        1
176
     1
 40
0.0
176
     1
 90
        0
176
     1
290
     0
176
     1
290
     1
176
     1
290
     1
176
     1
290
     0
176
     1
290
     0
176
     1
290
     0
176
     1
290
     0
176
     1
290
     0
176
     1
290
     0
176
     1
 90
       50
176
     1
 40
0.0
176
     1
 40
1.0
176
     1
 90
        0
176
     1
 62
    18
420
        0
176
     1
 90
       50
176
     1
 90
        3
176
     1
 62
     5
420
      255
176
     1
290
     0
176
     1
 90
       50
176
     1
 90
       50
176
     1
 90
       50
176
     1
290
     0
176
     1
 90
       50
176
     1
 62
   256
176
     0
 40
1.0
176
     0
 90
        2
176
     1
  1
strokes_ogs.tif
176
     1
290
     0
176
     1
 40
1.0
176
     1
 40
1.0
176
     1
  0
VISUALSTYLE
  5
36
102
{ACAD_REACTORS
330
29
102
}
330
29
100
AcDbVisualStyle
  2
Thicken
 70
    13
177
     3
291
     1
 70
    58
 90
        2
176
     1
 90
        2
176
     1
 90
        0
176
     1
 90
        0
176
     1
 40
0.6
176
     1
 40
30.0
176
     1
 62
     7
420
 16777215
176
     1
 90
        1
176
     1
 90
        4
176
     1
 62
     7
176
     1
 62
   257
176
     1
 90
        1
176
     1
 90
        1
176
     1
 40
1.0
176
     1
 90
       12
176
     1
 62
     7
176
     1
 40
1.0
176
     1
 90
        1
176
     1
 90
        6
176
     1
 90
        2
176
     1
 62
     7
176
     1
 90
        5
176
     1
 90
        0
176
     1
 90
        0
176
     1
290
     0
176
     1
 90
        1
176
     1
 40
0.0
176
     1
 90
        0
176
     1
290
     0
176
     1
290
     1
176
     1
290
     1
176
     1
290
     0
176
     1
290
     0
176
     1
290
     0
176
     1
290
     0
176
     1
290
     0
176
     1
290
     0
176
     1
 90
       50
176
     1
 40
0.0
176
     1
 40
1.0
176
     1
 90
        0
176
     1
 62
    18
420
        0
176
     1
 90
       50
176
     1
 90
        3
176
     1
 62
     5
420
      255
176
     1
290
     0
176
     1
 90
       50
176
     1
 90
       50
176
     1
 90
       50
176
     1
290
     0
176
     1
 90
       50
176
     1
 62
   256
176
     0
 40
1.0
176
     0
 90
        2
176
     1
  1
strokes_ogs.tif
176
     1
290
     0
176
     1
 40
1.0
176
     1
 40
1.0
176
     1
  0
VISUALSTYLE
  5
30
102
{ACAD_REACTORS
330
29
102
}
330
29
100
AcDbVisualStyle
  2
Wireframe
 70
     5
177
     3
291
     0
 70
    58
 90
        0
176
     1
 90
        2
176
     1
 90
        0
176
     1
 90
        0
176
     1
 40
0.6
176
     1
 40
30.0
176
     1
 62
     7
420
 16777215
176
     1
 90
        1
176
     1
 90
        4
176
     1
 62
     7
176
     1
 62
   257
176
     1
 90
        1
176
     1
 90
        1
176
     1
 40
1.0
176
     1
 90
        0
176
     1
 62
   257
176
     1
 40
1.0
176
     1
 90
        1
176
     1
 90
        6
176
     1
 90
        2
176
     1
 62
     7
176
     1
 90
        3
176
     1
 90
        0
176
     1
 90
        0
176
     1
290
     0
176
     1
 90
        1
176
     1
 40
0.0
176
     1
 90
        0
176
     1
290
     0
176
     1
290
     1
176
     1
290
     1
176
     1
290
     0
176
     1
290
     0
176
     1
290
     0
176
     1
290
     0
176
     1
290
     0
176
     1
290
     0
176
     1
 90
       50
176
     1
 40
0.0
176
     1
 40
1.0
176
     1
 90
        0
176
     1
 62
    18
420
        0
176
     1
 90
       50
176
     1
 90
        3
176
     1
 62
     5
420
      255
176
     1
290
     0
176
     1
 90
       50
176
     1
 90
       50
176
     1
 90
       50
176
     1
290
     0
176
     1
 90
       50
176
     1
 62
   256
176
     0
 40
1.0
176
     0
 90
        2
176
     1
  1
strokes_ogs.tif
176
     1
290
     0
176
     1
 40
1.0
176
     1
 40
1.0
176
     1
  0
VISUALSTYLE
  5
3C
102
{ACAD_REACTORS
330
29
102
}
330
29
100
AcDbVisualStyle
  2
X-Ray
 70
    25
177
     3
291
     0
 70
    58
 90
        2
176
     1
 90
        2
176
     1
 90
        1
176
     1
 90
        1
176
     1
 40
0.5
176
     1
 40
30.0
176
     1
 62
     7
420
 16777215
176
     1
 90
        1
176
     1
 90
        0
176
     1
 62
     7
176
     1
 62
   257
176
     1
 90
        1
176
     1
 90
        1
176
     1
 40
1.0
176
     1
 90
        8
176
     1
 62
     7
176
     1
 40
1.0
176
     1
 90
        1
176
     1
 90
        6
176
     1
 90
        2
176
     1
 62
     7
176
     1
 90
        3
176
     1
 90
        0
176
     1
 90
        0
176
     1
290
     0
176
     1
 90
       13
176
     1
 40
0.0
176
     1
 90
        0
176
     1
290
     0
176
     1
290
     1
176
     1
290
     1
176
     1
290
     0
176
     1
290
     0
176
     1
290
     0
176
     1
290
     0
176
     1
290
     0
176
     1
290
     0
176
     1
 90
       50
176
     1
 40
0.0
176
     1
 40
1.0
176
     1
 90
        0
176
     1
 62
    18
420
        0
176
     1
 90
       50
176
     1
 90
        3
176
     1
 62
     5
420
      255
176
     1
290
     0
176
     1
 90
       50
176
     1
 90
       50
176
     1
 90
       50
176
     1
290
     0
176
     1
 90
       50
176
     1
 62
   256
176
     0
 40
1.0
176
     0
 90
        2
176
     1
  1
strokes_ogs.tif
176
     1
290
     0
176
     1
 40
1.0
176
     1
 40
1.0
176
     1
  0
DICTIONARYVAR
  5
80
102
{ACAD_REACTORS
330
7B
102
}
330
7B
100
DictionaryVariables
280
     0
  1
1:1
  0
DICTIONARYVAR
  5
7D
102
{ACAD_REACTORS
330
7B
102
}
330
7B
100
DictionaryVariables
280
     0
  1
STANDARD
  0
DICTIONARYVAR
  5
7C
102
{ACAD_REACTORS
330
7B
102
}
330
7B
100
DictionaryVariables
280
     0
  1
STANDARD
  0
DICTIONARYVAR
  5
7E
102
{ACAD_REACTORS
330
7B
102
}
330
7B
100
DictionaryVariables
280
     0
  1
Imperial24
  0
DICTIONARYVAR
  5
7F
102
{ACAD_REACTORS
330
7B
102
}
330
7B
100
DictionaryVariables
280
     0
  1
Imperial24
  0
XRECORD
  5
23F
102
{ACAD_REACTORS
330
238
102
}
330
238
100
AcDbXrecord
280
     1
  1
BUILDING_ID
  1
686001_HCMFP_FrenchChapel_A25_Rotated
  1
FLOOR_ID
  1
314995
  0
XRECORD
  5
23D
102
{ACAD_REACTORS
330
238
102
}
330
238
100
AcDbXrecord
280
     1
  1
-2000011
  1
Walls
  1
-2000023
  1
Doors
  1
-2000120
  1
Stairs
  1
-2000126
  1
Railings
  1
-2000170
  1
Curtain Panels
  1
-2000171
  1
Curtain Wall Mullions
  1
-2000220
  1
Grids
  1
-2000480
  1
Room Tags
  1
-2000535
  1
Elevations
  1
-2000829
  1
Room Polylines
  1
-2000938
  1
Stair Paths
  1
-2006040
  1
Grid Heads
  0
XRECORD
  5
239
102
{ACAD_REACTORS
330
238
102
}
330
238
100
AcDbXrecord
280
     1
  1
1b9a7177-aba2-4a10-b034-9ee2a49a1982
  0
XRECORD
  5
23E
102
{ACAD_REACTORS
330
238
102
}
330
238
100
AcDbXrecord
280
     1
  1
-2000025
  1
Panel
  1
-2000029
  1
Frame/Mullion
  1
-2000128
  1
Rails
  1
-2000130
  1
Up Arrows
  1
-2000930
  1
Cut Marks
  1
-2000932
  1
Nosing Lines
  1
-2000934
  1
Outlines
  1
-2000952
  1
Supports
  1
636535
  1
Plan Swing
  0
XRECORD
  5
23C
102
{ACAD_REACTORS
330
238
102
}
330
238
100
AcDbXrecord
280
     1
  1
134756
  1
Elevation : 2.10 Building Elevations
  1
1952
  1
Grid : Grid(Arch)
  1
1969
  1
Railing : Railing 1
  1
2287
  1
Fixed Up Direction : Standard
  1
4450563
  1
Door-Single(CE) : HM Door-2" HM Frame
  1
44989
  1
Assembled Stair : 7" max riser 11" tread
  1
604744
  1
Tag_Room_SD(CE) : Large
  1
639164
  1
Basic Wall : *Generic - 12" : *Generic - 12"
  1
639165
  1
Basic Wall : *Generic - 5" : *Generic - 5"
  1
645966
  1
System Panel : zGlazed
  1
646104
  1
Rectangular Mullion : 4 1/2" x 2" Rectangular(CE)
  0
DICTIONARY
  5
1A
330
19
100
AcDbDictionary
280
     1
281
     1
  3
BUMPTILE
360
1C
  3
DIFFUSETILE
360
1B
  3
OPACITYTILE
360
1F
  3
REFLECTIONTILE
360
1E
  3
REFRACTIONTILE
360
20
  3
SPECULARTILE
360
1D
  0
DICTIONARY
  5
12
330
11
100
AcDbDictionary
280
     1
281
     1
  3
BUMPTILE
360
14
  3
DIFFUSETILE
360
13
  3
OPACITYTILE
360
17
  3
REFLECTIONTILE
360
16
  3
REFRACTIONTILE
360
18
  3
SPECULARTILE
360
15
  0
DICTIONARY
  5
22
330
21
100
AcDbDictionary
280
     1
281
     1
  3
BUMPTILE
360
24
  3
DIFFUSETILE
360
23
  3
OPACITYTILE
360
27
  3
REFLECTIONTILE
360
26
  3
REFRACTIONTILE
360
28
  3
SPECULARTILE
360
25
  0
DICTIONARY
  5
244
330
65
100
AcDbDictionary
280
     1
281
     1
  3
ACAD_ROUNDTRIP_2008_TABLESTYLE_CELLSTYLEMAP
360
245
  0
XRECORD
  5
1C
102
{ACAD_REACTORS
330
1A
102
}
330
1A
100
AcDbXrecord
280
     1
270
     1
271
     1
  0
XRECORD
  5
1B
102
{ACAD_REACTORS
330
1A
102
}
330
1A
100
AcDbXrecord
280
     1
270
     1
271
     1
  0
XRECORD
  5
1F
102
{ACAD_REACTORS
330
1A
102
}
330
1A
100
AcDbXrecord
280
     1
270
     1
271
     1
  0
XRECORD
  5
1E
102
{ACAD_REACTORS
330
1A
102
}
330
1A
100
AcDbXrecord
280
     1
270
     1
271
     1
  0
XRECORD
  5
20
102
{ACAD_REACTORS
330
1A
102
}
330
1A
100
AcDbXrecord
280
     1
270
     1
271
     1
  0
XRECORD
  5
1D
102
{ACAD_REACTORS
330
1A
102
}
330
1A
100
AcDbXrecord
280
     1
270
     1
271
     1
  0
XRECORD
  5
14
102
{ACAD_REACTORS
330
12
102
}
330
12
100
AcDbXrecord
280
     1
270
     1
271
     1
  0
XRECORD
  5
13
102
{ACAD_REACTORS
330
12
102
}
330
12
100
AcDbXrecord
280
     1
270
     1
271
     1
  0
XRECORD
  5
17
102
{ACAD_REACTORS
330
12
102
}
330
12
100
AcDbXrecord
280
     1
270
     1
271
     1
  0
XRECORD
  5
16
102
{ACAD_REACTORS
330
12
102
}
330
12
100
AcDbXrecord
280
     1
270
     1
271
     1
  0
XRECORD
  5
18
102
{ACAD_REACTORS
330
12
102
}
330
12
100
AcDbXrecord
280
     1
270
     1
271
     1
  0
XRECORD
  5
15
102
{ACAD_REACTORS
330
12
102
}
330
12
100
AcDbXrecord
280
     1
270
     1
271
     1
  0
XRECORD
  5
24
102
{ACAD_REACTORS
330
22
102
}
330
22
100
AcDbXrecord
280
     1
270
     1
271
     1
  0
XRECORD
  5
23
102
{ACAD_REACTORS
330
22
102
}
330
22
100
AcDbXrecord
280
     1
270
     1
271
     1
  0
XRECORD
  5
27
102
{ACAD_REACTORS
330
22
102
}
330
22
100
AcDbXrecord
280
     1
270
     1
271
     1
  0
XRECORD
  5
26
102
{ACAD_REACTORS
330
22
102
}
330
22
100
AcDbXrecord
280
     1
270
     1
271
     1
  0
XRECORD
  5
28
102
{ACAD_REACTORS
330
22
102
}
330
22
100
AcDbXrecord
280
     1
270
     1
271
     1
  0
XRECORD
  5
25
102
{ACAD_REACTORS
330
22
102
}
330
22
100
AcDbXrecord
280
     1
270
     1
271
     1
  0
CELLSTYLEMAP
  5
245
102
{ACAD_REACTORS
330
244
102
}
330
244
100
AcDbCellStyleMap
 90
        3
300
CELLSTYLE
  1
TABLEFORMAT_BEGIN
 90
        5
170
     1
 91
        0
 92
    32768
 62
   257
 93
        1
300
CONTENTFORMAT
  1
CONTENTFORMAT_BEGIN
 90
        0
 91
        0
 92
      512
 93
        0
300

 40
0.0
140
1.0
 94
        5
 62
     0
340
55
144
0.25
309
CONTENTFORMAT_END
171
     0
 94
        0
309
TABLEFORMAT_END
  1
CELLSTYLE_BEGIN
 90
        1
 91
        1
300
_TITLE
309
CELLSTYLE_END
300
CELLSTYLE
  1
TABLEFORMAT_BEGIN
 90
        5
170
     1
 91
        0
 92
        0
 62
   257
 93
        1
300
CONTENTFORMAT
  1
CONTENTFORMAT_BEGIN
 90
        0
 91
        0
 92
      512
 93
        0
300

 40
0.0
140
1.0
 94
        5
 62
     0
340
55
144
0.18
309
CONTENTFORMAT_END
171
     0
 94
        0
309
TABLEFORMAT_END
  1
CELLSTYLE_BEGIN
 90
        2
 91
        1
300
_HEADER
309
CELLSTYLE_END
300
CELLSTYLE
  1
TABLEFORMAT_BEGIN
 90
        5
170
     1
 91
        0
 92
        0
 62
   257
 93
        1
300
CONTENTFORMAT
  1
CONTENTFORMAT_BEGIN
 90
        0
 91
        0
 92
      512
 93
        0
300

 40
0.0
140
1.0
 94
        2
 62
     0
340
55
144
0.18
309
CONTENTFORMAT_END
171
     0
 94
        0
309
TABLEFORMAT_END
  1
CELLSTYLE_BEGIN
 90
        3
 91
        2
300
_DATA
309
CELLSTYLE_END
  0
ENDSEC
  0
EOF
